  0
SECTION
  2
HEADER
  9
$ACADVER
  1
AC1015
  9
$ACADMAINTVER
 70
     6
  9
$DWGCODEPAGE
  3
ANSI_1252
  9
$INSBASE
 10
0.0
 20
0.0
 30
0.0
  9
$EXTMIN
 10
0.0
 20
0.0
 30
0.0
  9
$EXTMAX
 10
210.0
 20
297.0
 30
0.0
  9
$LIMMIN
 10
0.0
 20
0.0
  9
$LIMMAX
 10
210.0
 20
297.0
  9
$ORTHOMODE
 70
     0
  9
$REGENMODE
 70
     1
  9
$FILLMODE
 70
     1
  9
$QTEXTMODE
 70
     0
  9
$MIRRTEXT
 70
     1
  9
$LTSCALE
 40
1.0
  9
$ATTMODE
 70
     1
  9
$TEXTSIZE
 40
3.5
  9
$TRACEWID
 40
1.0
  9
$TEXTSTYLE
  7
Standard
  9
$CLAYER
  8
0
  9
$CELTYPE
  6
ByLayer
  9
$CECOLOR
 62
   256
  9
$CELTSCALE
 40
1.0
  9
$DISPSILH
 70
     0
  9
$DIMSCALE
 40
1.0
  9
$DIMASZ
 40
3.302
  9
$DIMEXO
 40
1.0
  9
$DIMDLI
 40
3.75
  9
$DIMRND
 40
0.0
  9
$DIMDLE
 40
0.0
  9
$DIMEXE
 40
1.0
  9
$DIMTP
 40
0.0
  9
$DIMTM
 40
0.0
  9
$DIMTXT
 40
3.5
  9
$DIMCEN
 40
2.5
  9
$DIMTSZ
 40
0.0
  9
$DIMTOL
 70
     0
  9
$DIMLIM
 70
     0
  9
$DIMTIH
 70
     1
  9
$DIMTOH
 70
     1
  9
$DIMSE1
 70
     0
  9
$DIMSE2
 70
     0
  9
$DIMTAD
 70
     1
  9
$DIMZIN
 70
     0
  9
$DIMBLK
  1

  9
$DIMASO
 70
     1
  9
$DIMSHO
 70
     1
  9
$DIMPOST
  1

  9
$DIMAPOST
  1

  9
$DIMALT
 70
     0
  9
$DIMALTD
 70
     3
  9
$DIMALTF
 40
0.0393700787
  9
$DIMLFAC
 40
2.0
  9
$DIMTOFL
 70
     1
  9
$DIMTVP
 40
0.0
  9
$DIMTIX
 70
     0
  9
$DIMSOXD
 70
     0
  9
$DIMSAH
 70
     0
  9
$DIMBLK1
  1

  9
$DIMBLK2
  1

  9
$DIMSTYLE
  2
ISO-25
  9
$DIMCLRD
 70
     0
  9
$DIMCLRE
 70
     0
  9
$DIMCLRT
 70
     0
  9
$DIMTFAC
 40
1.0
  9
$DIMGAP
 40
1.524
  9
$DIMJUST
 70
     0
  9
$DIMSD1
 70
     0
  9
$DIMSD2
 70
     0
  9
$DIMTOLJ
 70
     0
  9
$DIMTZIN
 70
     0
  9
$DIMALTZ
 70
     0
  9
$DIMALTTZ
 70
     0
  9
$DIMUPT
 70
     0
  9
$DIMDEC
 70
     2
  9
$DIMTDEC
 70
     2
  9
$DIMALTU
 70
     2
  9
$DIMALTTD
 70
     3
  9
$DIMTXSTY
  7
Standard
  9
$DIMAUNIT
 70
     0
  9
$DIMADEC
 70
     2
  9
$DIMALTRND
 40
0.0
  9
$DIMAZIN
 70
     0
  9
$DIMDSEP
 70
    44
  9
$DIMATFIT
 70
     3
  9
$DIMFRAC
 70
     0
  9
$DIMLDRBLK
  1

  9
$DIMLUNIT
 70
     2
  9
$DIMLWD
 70
    -2
  9
$DIMLWE
 70
    -2
  9
$DIMTMOVE
 70
     0
  9
$LUNITS
 70
     2
  9
$LUPREC
 70
     2
  9
$SKETCHINC
 40
1.0
  9
$FILLETRAD
 40
10.0
  9
$AUNITS
 70
     0
  9
$AUPREC
 70
     2
  9
$MENU
  1
.
  9
$ELEVATION
 40
0.0
  9
$PELEVATION
 40
0.0
  9
$THICKNESS
 40
0.0
  9
$LIMCHECK
 70
     0
  9
$CHAMFERA
 40
10.0
  9
$CHAMFERB
 40
10.0
  9
$CHAMFERC
 40
20.0
  9
$CHAMFERD
 40
0.0
  9
$SKPOLY
 70
     0
  9
$TDCREATE
 40
2457437.447034074
  9
$TDUCREATE
 40
2457437.113700741
  9
$TDUPDATE
 40
2457437.447035127
  9
$TDUUPDATE
 40
2457437.113701794
  9
$TDINDWG
 40
0.0000000116
  9
$TDUSRTIMER
 40
0.0000000116
  9
$USRTIMER
 70
     1
  9
$ANGBASE
 50
0.0
  9
$ANGDIR
 70
     0
  9
$PDMODE
 70
     0
  9
$PDSIZE
 40
-1.0
  9
$PLINEWID
 40
0.0
  9
$SPLFRAME
 70
     0
  9
$SPLINETYPE
 70
     6
  9
$SPLINESEGS
 70
     8
  9
$HANDSEED
  5
1DB
  9
$SURFTAB1
 70
     6
  9
$SURFTAB2
 70
     6
  9
$SURFTYPE
 70
     6
  9
$SURFU
 70
     6
  9
$SURFV
 70
     6
  9
$UCSBASE
  2

  9
$UCSNAME
  2

  9
$UCSORG
 10
0.0
 20
0.0
 30
0.0
  9
$UCSXDIR
 10
1.0
 20
0.0
 30
0.0
  9
$UCSYDIR
 10
0.0
 20
1.0
 30
0.0
  9
$UCSORTHOREF
  2

  9
$UCSORTHOVIEW
 70
     0
  9
$UCSORGTOP
 10
0.0
 20
0.0
 30
0.0
  9
$UCSORGBOTTOM
 10
0.0
 20
0.0
 30
0.0
  9
$UCSORGLEFT
 10
0.0
 20
0.0
 30
0.0
  9
$UCSORGRIGHT
 10
0.0
 20
0.0
 30
0.0
  9
$UCSORGFRONT
 10
0.0
 20
0.0
 30
0.0
  9
$UCSORGBACK
 10
0.0
 20
0.0
 30
0.0
  9
$PUCSBASE
  2

  9
$PUCSNAME
  2

  9
$PUCSORG
 10
0.0
 20
0.0
 30
0.0
  9
$PUCSXDIR
 10
1.0
 20
0.0
 30
0.0
  9
$PUCSYDIR
 10
0.0
 20
1.0
 30
0.0
  9
$PUCSORTHOREF
  2

  9
$PUCSORTHOVIEW
 70
     0
  9
$PUCSORGTOP
 10
0.0
 20
0.0
 30
0.0
  9
$PUCSORGBOTTOM
 10
0.0
 20
0.0
 30
0.0
  9
$PUCSORGLEFT
 10
0.0
 20
0.0
 30
0.0
  9
$PUCSORGRIGHT
 10
0.0
 20
0.0
 30
0.0
  9
$PUCSORGFRONT
 10
0.0
 20
0.0
 30
0.0
  9
$PUCSORGBACK
 10
0.0
 20
0.0
 30
0.0
  9
$USERI1
 70
     0
  9
$USERI2
 70
     0
  9
$USERI3
 70
     0
  9
$USERI4
 70
     0
  9
$USERI5
 70
     0
  9
$USERR1
 40
0.0
  9
$USERR2
 40
0.0
  9
$USERR3
 40
0.0
  9
$USERR4
 40
0.0
  9
$USERR5
 40
0.0
  9
$WORLDVIEW
 70
     1
  9
$SHADEDGE
 70
     3
  9
$SHADEDIF
 70
    70
  9
$TILEMODE
 70
     1
  9
$MAXACTVP
 70
    64
  9
$PINSBASE
 10
0.0
 20
0.0
 30
0.0
  9
$PLIMCHECK
 70
     0
  9
$PEXTMIN
 10
1.0000000000E+20
 20
1.0000000000E+20
 30
1.0000000000E+20
  9
$PEXTMAX
 10
-1.0000000000E+20
 20
-1.0000000000E+20
 30
-1.0000000000E+20
  9
$PLIMMIN
 10
0.0
 20
0.0
  9
$PLIMMAX
 10
420.0
 20
297.0
  9
$UNITMODE
 70
     0
  9
$VISRETAIN
 70
     1
  9
$PLINEGEN
 70
     0
  9
$PSLTSCALE
 70
     1
  9
$TREEDEPTH
 70
  3020
  9
$CMLSTYLE
  2
Standard
  9
$CMLJUST
 70
     0
  9
$CMLSCALE
 40
20.0
  9
$PROXYGRAPHICS
 70
     1
  9
$MEASUREMENT
 70
     1
  9
$CELWEIGHT
370
    -1
  9
$ENDCAPS
280
     0
  9
$JOINSTYLE
280
     0
  9
$LWDISPLAY
290
     1
  9
$INSUNITS
 70
     4
  9
$HYPERLINKBASE
  1

  9
$STYLESHEET
  1

  9
$XEDIT
290
     1
  9
$CEPSNTYPE
380
     0
  9
$PSTYLEMODE
290
     1
  9
$FINGERPRINTGUID
  2
{D1582689-BB63-4C9C-8BB4-2FAE729C1EB9}
  9
$VERSIONGUID
  2
{FAEB1C32-E019-11D5-929B-00C0DF256EC4}
  9
$EXTNAMES
290
     1
  9
$PSVPSCALE
 40
0.0
  9
$OLESTARTUP
290
     0
  0
ENDSEC
  0
SECTION
  2
CLASSES
  0
CLASS
  1
ACDBDICTIONARYWDFLT
  2
AcDbDictionaryWithDefault
  3
ObjectDBX Classes
 90
        0
280
     0
281
     0
  0
CLASS
  1
VISUALSTYLE
  2
AcDbVisualStyle
  3
ObjectDBX Classes
 90
     4095
280
     0
281
     0
  0
CLASS
  1
MATERIAL
  2
AcDbMaterial
  3
ObjectDBX Classes
 90
     1153
280
     0
281
     0
  0
CLASS
  1
ACDBPLACEHOLDER
  2
AcDbPlaceHolder
  3
ObjectDBX Classes
 90
        0
280
     0
281
     0
  0
CLASS
  1
LAYOUT
  2
AcDbLayout
  3
ObjectDBX Classes
 90
        0
280
     0
281
     0
  0
ENDSEC
  0
SECTION
  2
TABLES
  0
TABLE
  2
VPORT
  5
8
330
0
100
AcDbSymbolTable
 70
     1
  0
VPORT
  5
29
330
8
100
AcDbSymbolTableRecord
100
AcDbViewportTableRecord
  2
*Active
 70
     0
 10
0.0
 20
0.0
 11
1.0
 21
1.0
 12
105.0
 22
148.5
 13
0.0
 23
0.0
 14
10.0
 24
10.0
 15
10.0
 25
10.0
 16
0.0
 26
0.0
 36
1.0
 17
0.0
 27
0.0
 37
0.0
 40
297.0
 41
0.7070707071
 42
50.0
 43
0.0
 44
0.0
 50
0.0
 51
0.0
 71
     0
 72
  2000
 73
     1
 74
     3
 75
     0
 76
     0
 77
     0
 78
     0
281
     0
 65
     1
110
0.0
120
0.0
130
0.0
111
1.0
121
0.0
131
0.0
112
0.0
122
1.0
132
0.0
 79
     0
146
0.0
  0
ENDTAB
  0
TABLE
  2
LTYPE
  5
5
330
0
100
AcDbSymbolTable
 70
     6
  0
LTYPE
  5
14
330
5
100
AcDbSymbolTableRecord
100
AcDbLinetypeTableRecord
  2
ByBlock
 70
     0
  3

 72
    65
 73
     0
 40
0.0
  0
LTYPE
  5
15
330
5
100
AcDbSymbolTableRecord
100
AcDbLinetypeTableRecord
  2
ByLayer
 70
     0
  3

 72
    65
 73
     0
 40
0.0
  0
LTYPE
  5
16
330
5
100
AcDbSymbolTableRecord
100
AcDbLinetypeTableRecord
  2
Continuous
 70
     0
  3
Solid line
 72
    65
 73
     0
 40
0.0
  0
LTYPE
  5
3F
330
5
100
AcDbSymbolTableRecord
100
AcDbLinetypeTableRecord
  2
HIDDEN
 70
     0
  3
Hidden __ __ __ __ __ __ __ __ __ __ __ __ __ __
 72
    65
 73
     2
 40
1.905
 49
1.27
 74
     0
 49
-0.635
 74
     0
  0
LTYPE
  5
40
330
5
100
AcDbSymbolTableRecord
100
AcDbLinetypeTableRecord
  2
PHANTOM
 70
     0
  3
Phantom ______  __  __  ______  __  __  ______
 72
    65
 73
     6
 40
12.7
 49
6.35
 74
     0
 49
-1.27
 74
     0
 49
1.27
 74
     0
 49
-1.27
 74
     0
 49
1.27
 74
     0
 49
-1.27
 74
     0
  0
LTYPE
  5
41
330
5
100
AcDbSymbolTableRecord
100
AcDbLinetypeTableRecord
  2
CENTER
 70
     0
  3
Center ____ _ ____ _ ____ _ ____ _ ____ _ ____
 72
    65
 73
     4
 40
10.16
 49
6.35
 74
     0
 49
-1.27
 74
     0
 49
1.27
 74
     0
 49
-1.27
 74
     0
  0
LTYPE
  5
42
330
5
100
AcDbSymbolTableRecord
100
AcDbLinetypeTableRecord
  2
CENTERX2
 70
     0
  3
Center (2x) ________  __  ________  __  _____
 72
    65
 73
     4
 40
20.32
 49
12.7
 74
     0
 49
-2.54
 74
     0
 49
2.54
 74
     0
 49
-2.54
 74
     0
  0
LTYPE
  5
43
330
5
100
AcDbSymbolTableRecord
100
AcDbLinetypeTableRecord
  2
DOT2
 70
     0
  3
Dot (.5x) ........................................
 72
    65
 73
     2
 40
0.635
 49
0.0
 74
     0
 49
-0.635
 74
     0
  0
ENDTAB
  0
TABLE
  2
LAYER
  5
2
330
0
100
AcDbSymbolTable
 70
     4
  0
LAYER
  5
10
330
2
100
AcDbSymbolTableRecord
100
AcDbLayerTableRecord
  2
0
 70
     0
 62
     7
  6
Continuous
370
    -3
390
F
  0
LAYER
  5
44
330
2
100
AcDbSymbolTableRecord
100
AcDbLayerTableRecord
  2
SLD-0
 70
     0
 62
   179
  6
Continuous
370
    -3
390
F
  0
LAYER
  5
45
330
2
100
AcDbSymbolTableRecord
100
AcDbLayerTableRecord
  2
SLD-DEFPOINTS
 70
     0
 62
   179
  6
Continuous
370
    -3
390
F
  0
LAYER
  5
46
330
2
100
AcDbSymbolTableRecord
100
AcDbLayerTableRecord
  2
LAYER_1
 70
     0
 62
   179
  6
Continuous
370
    -3
390
F
  0
ENDTAB
  0
TABLE
  2
STYLE
  5
3
330
0
100
AcDbSymbolTable
 70
     2
  0
STYLE
  5
11
330
3
100
AcDbSymbolTableRecord
100
AcDbTextStyleTableRecord
  2
Standard
 70
     0
 40
0.0
 41
1.0
 50
0.0
 71
     0
 42
3.5
  3
txt
  4

  0
STYLE
  5
AF
330
3
100
AcDbSymbolTableRecord
100
AcDbTextStyleTableRecord
  2
SLDTEXTSTYLE0
 70
     0
 40
0.0
 41
0.75
 50
0.0
 71
     0
 42
0.2
  3
TXT
  4

  0
ENDTAB
  0
TABLE
  2
VIEW
  5
6
330
0
100
AcDbSymbolTable
 70
     0
  0
ENDTAB
  0
TABLE
  2
UCS
  5
7
330
0
100
AcDbSymbolTable
 70
     0
  0
ENDTAB
  0
TABLE
  2
APPID
  5
9
330
0
100
AcDbSymbolTable
 70
     1
  0
APPID
  5
12
330
9
100
AcDbSymbolTableRecord
100
AcDbRegAppTableRecord
  2
ACAD
 70
     0
  0
ENDTAB
  0
TABLE
  2
DIMSTYLE
  5
A
330
0
100
AcDbSymbolTable
 70
     4
100
AcDbDimStyleTable
  0
DIMSTYLE
105
27
330
A
100
AcDbSymbolTableRecord
100
AcDbDimStyleTableRecord
  2
ISO-25
 70
     0
 41
2.5
 42
0.625
 43
3.75
 44
1.25
 73
     0
 74
     0
 77
     1
 78
     8
140
2.5
141
2.5
143
0.0393700787
147
0.625
171
     3
172
     1
178
     0
271
     2
272
     2
274
     3
278
    44
283
     0
284
     8
340
11
  0
DIMSTYLE
105
12E
102
{ACAD_REACTORS
330
12D
330
139
330
15B
330
180
102
}
330
A
100
AcDbSymbolTableRecord
100
AcDbDimStyleTableRecord
  2
SLDDIMSTYLE0
 70
     0
 41
3.302
 44
0.0
 45
0.000000001
 73
     0
 74
     0
 77
     1
 78
     4
 79
     1
140
3.5
147
0.875
173
     1
178
     0
271
     2
272
     2
276
     2
284
    12
340
AF
  0
DIMSTYLE
105
145
102
{ACAD_REACTORS
330
144
330
166
330
173
330
18B
102
}
330
A
100
AcDbSymbolTableRecord
100
AcDbDimStyleTableRecord
  2
SLDDIMSTYLE1
 70
     0
 41
3.302
 44
0.0
 45
0.000000001
 73
     0
 74
     0
 77
     1
 78
    12
 79
     3
140
3.5
147
0.875
172
     1
173
     1
178
     0
271
     2
272
     2
276
     2
284
    12
289
     0
340
AF
  0
DIMSTYLE
105
153
102
{ACAD_REACTORS
330
152
330
198
102
}
330
A
100
AcDbSymbolTableRecord
100
AcDbDimStyleTableRecord
  2
SLDDIMSTYLE2
 70
     0
 41
3.302
 44
0.0
 45
0.000000001
 73
     0
 74
     0
 77
     1
 78
    12
 79
     3
140
3.5
141
0.0
147
0.875
173
     1
178
     0
271
     2
272
     2
276
     2
284
    12
340
AF
  0
ENDTAB
  0
TABLE
  2
BLOCK_RECORD
  5
1
330
0
100
AcDbSymbolTable
 70
    14
  0
BLOCK_RECORD
  5
1F
330
1
100
AcDbSymbolTableRecord
100
AcDbBlockTableRecord
  2
*Model_Space
340
22
  0
BLOCK_RECORD
  5
1B
330
1
100
AcDbSymbolTableRecord
100
AcDbBlockTableRecord
  2
*Paper_Space
340
1E
  0
BLOCK_RECORD
  5
23
330
1
100
AcDbSymbolTableRecord
100
AcDbBlockTableRecord
  2
*Paper_Space0
340
26
  0
BLOCK_RECORD
  5
47
330
1
100
AcDbSymbolTableRecord
100
AcDbBlockTableRecord
  2
BLOCK 2
340
0
102
{BLKREFS
331
1D5
102
}
  0
BLOCK_RECORD
  5
AC
330
1
100
AcDbSymbolTableRecord
100
AcDbBlockTableRecord
  2
SW_NOTE_0
340
0
102
{BLKREFS
331
B5
102
}
  0
BLOCK_RECORD
  5
B7
330
1
100
AcDbSymbolTableRecord
100
AcDbBlockTableRecord
  2
SW_NOTE_1
340
0
102
{BLKREFS
331
BC
102
}
  0
BLOCK_RECORD
  5
12F
330
1
100
AcDbSymbolTableRecord
100
AcDbBlockTableRecord
  2
_D
340
0
  0
BLOCK_RECORD
  5
13A
330
1
100
AcDbSymbolTableRecord
100
AcDbBlockTableRecord
  2
_D_1
340
0
  0
BLOCK_RECORD
  5
146
330
1
100
AcDbSymbolTableRecord
100
AcDbBlockTableRecord
  2
_D_2
340
0
  0
BLOCK_RECORD
  5
154
330
1
100
AcDbSymbolTableRecord
100
AcDbBlockTableRecord
  2
_D_3
340
0
  0
BLOCK_RECORD
  5
15C
330
1
100
AcDbSymbolTableRecord
100
AcDbBlockTableRecord
  2
_D_4
340
0
  0
BLOCK_RECORD
  5
167
330
1
100
AcDbSymbolTableRecord
100
AcDbBlockTableRecord
  2
_D_5
340
0
  0
BLOCK_RECORD
  5
174
330
1
100
AcDbSymbolTableRecord
100
AcDbBlockTableRecord
  2
_D_6
340
0
  0
BLOCK_RECORD
  5
181
330
1
100
AcDbSymbolTableRecord
100
AcDbBlockTableRecord
  2
_D_7
340
0
  0
BLOCK_RECORD
  5
18C
330
1
100
AcDbSymbolTableRecord
100
AcDbBlockTableRecord
  2
_D_8
340
0
  0
BLOCK_RECORD
  5
199
330
1
100
AcDbSymbolTableRecord
100
AcDbBlockTableRecord
  2
_D_9
340
0
  0
ENDTAB
  0
ENDSEC
  0
SECTION
  2
BLOCKS
  0
BLOCK
  5
20
330
1F
100
AcDbEntity
  8
0
100
AcDbBlockBegin
  2
*Model_Space
 70
     0
 10
0.0
 20
0.0
 30
0.0
  3
*Model_Space
  1

  0
ENDBLK
  5
21
330
1F
100
AcDbEntity
  8
0
100
AcDbBlockEnd
  0
BLOCK
  5
1C
330
1B
100
AcDbEntity
 67
     1
  8
0
100
AcDbBlockBegin
  2
*Paper_Space
 70
     0
 10
0.0
 20
0.0
 30
0.0
  3
*Paper_Space
  1

  0
ENDBLK
  5
1D
330
1B
100
AcDbEntity
 67
     1
  8
0
100
AcDbBlockEnd
  0
BLOCK
  5
24
330
23
100
AcDbEntity
  8
0
100
AcDbBlockBegin
  2
*Paper_Space0
 70
     0
 10
0.0
 20
0.0
 30
0.0
  3
*Paper_Space0
  1

  0
ENDBLK
  5
25
330
23
100
AcDbEntity
  8
0
100
AcDbBlockEnd
  0
BLOCK
  5
48
330
47
100
AcDbEntity
  8
0
100
AcDbBlockBegin
  2
BLOCK 2
 70
     0
 10
0.0
 20
0.0
 30
0.0
  3
BLOCK 2
  1

  0
LINE
  5
4A
330
47
100
AcDbEntity
  8
LAYER_1
370
     0
100
AcDbLine
 10
25.4702799415
 20
-14.6402777741
 30
0.0
 11
12.2517930742
 21
-14.6402777741
 31
0.0
  0
LINE
  5
4B
330
47
100
AcDbEntity
  8
LAYER_1
370
     0
100
AcDbLine
 10
7.2732855885
 20
-11.6382215683
 30
0.0
 11
7.2732855885
 21
-9.3334526886
 31
0.0
  0
LINE
  5
4C
330
47
100
AcDbEntity
  8
LAYER_1
370
     0
100
AcDbLine
 10
12.2517930742
 20
-6.3313964828
 30
0.0
 11
25.4702799415
 21
-6.3313964828
 31
0.0
  0
LINE
  5
4D
330
47
100
AcDbEntity
  8
LAYER_1
370
     0
100
AcDbLine
 10
25.4702799415
 20
-6.3313964828
 30
0.0
 11
25.4702799415
 21
-8.8084201367
 31
0.0
  0
LINE
  5
4E
330
47
100
AcDbEntity
  8
LAYER_1
370
     0
100
AcDbLine
 10
25.4702799415
 20
-8.8084201367
 30
0.0
 11
12.2517930742
 21
-8.8084201367
 31
0.0
  0
LINE
  5
4F
330
47
100
AcDbEntity
  8
LAYER_1
370
     0
100
AcDbLine
 10
9.7506537519
 20
-9.9721733916
 30
0.0
 11
9.7506537519
 21
-10.9998453749
 31
0.0
  0
LINE
  5
50
330
47
100
AcDbEntity
  8
LAYER_1
370
     0
100
AcDbLine
 10
12.2517930742
 20
-12.1632541202
 30
0.0
 11
25.4702799415
 21
-12.1632541202
 31
0.0
  0
LINE
  5
51
330
47
100
AcDbEntity
  8
LAYER_1
370
     0
100
AcDbLine
 10
25.4702799415
 20
-12.1632541202
 30
0.0
 11
25.4702799415
 21
-14.6402777741
 31
0.0
  0
LINE
  5
52
330
47
100
AcDbEntity
  8
LAYER_1
370
     0
100
AcDbLine
 10
40.1918619691
 20
-14.6402777741
 30
0.0
 11
36.2561848868
 21
-14.6402777741
 31
0.0
  0
LINE
  5
53
330
47
100
AcDbEntity
  8
LAYER_1
370
     0
100
AcDbLine
 10
36.2561848868
 20
-14.6402777741
 30
0.0
 11
36.2561848868
 21
-12.1635986298
 31
0.0
  0
LINE
  5
54
330
47
100
AcDbEntity
  8
LAYER_1
370
     0
100
AcDbLine
 10
36.2561848868
 20
-12.1635986298
 30
0.0
 11
40.1918619691
 21
-12.1635986298
 31
0.0
  0
LINE
  5
55
330
47
100
AcDbEntity
  8
LAYER_1
370
     0
100
AcDbLine
 10
26.6209418336
 20
-6.3313964828
 30
0.0
 11
29.097620978
 21
-6.3313964828
 31
0.0
  0
LINE
  5
56
330
47
100
AcDbEntity
  8
LAYER_1
370
     0
100
AcDbLine
 10
29.097620978
 20
-6.3313964828
 30
0.0
 11
29.097620978
 21
-7.8465494772
 31
0.0
  0
LINE
  5
57
330
47
100
AcDbEntity
  8
LAYER_1
370
     0
100
AcDbLine
 10
31.2356472361
 20
-8.6699272982
 30
0.0
 11
42.6930012914
 21
-8.6699272982
 31
0.0
  0
LINE
  5
58
330
47
100
AcDbEntity
  8
LAYER_1
370
     0
100
AcDbLine
 10
42.6930012914
 20
-8.6699272982
 30
0.0
 11
42.6930012914
 21
-6.3313964828
 31
0.0
  0
LINE
  5
59
330
47
100
AcDbEntity
  8
LAYER_1
370
     0
100
AcDbLine
 10
42.6930012914
 20
-6.3313964828
 30
0.0
 11
45.1700249453
 21
-6.3313964828
 31
0.0
  0
LINE
  5
5A
330
47
100
AcDbEntity
  8
LAYER_1
370
     0
100
AcDbLine
 10
45.1700249453
 20
-6.3313964828
 30
0.0
 11
45.1700249453
 21
-11.2854437906
 31
0.0
  0
LINE
  5
5B
330
47
100
AcDbEntity
  8
LAYER_1
370
     0
100
AcDbLine
 10
86.7400973633
 20
-14.6402777741
 30
0.0
 11
84.2630737094
 21
-14.6402777741
 31
0.0
  0
LINE
  5
5C
330
47
100
AcDbEntity
  8
LAYER_1
370
     0
100
AcDbLine
 10
84.2630737094
 20
-14.6402777741
 30
0.0
 11
84.2630737094
 21
-6.3313964828
 31
0.0
  0
LINE
  5
5D
330
47
100
AcDbEntity
  8
LAYER_1
370
     0
100
AcDbLine
 10
84.2630737094
 20
-6.3313964828
 30
0.0
 11
86.7400973633
 21
-6.3313964828
 31
0.0
  0
LINE
  5
5E
330
47
100
AcDbEntity
  8
LAYER_1
370
     0
100
AcDbLine
 10
86.7400973633
 20
-6.3313964828
 30
0.0
 11
86.7400973633
 21
-14.6402777741
 31
0.0
  0
LINE
  5
5F
330
47
100
AcDbEntity
  8
LAYER_1
370
     0
100
AcDbLine
 10
64.5171644261
 20
-14.6402777741
 30
0.0
 11
51.2983330492
 21
-14.6402777741
 31
0.0
  0
LINE
  5
60
330
47
100
AcDbEntity
  8
LAYER_1
370
     0
100
AcDbLine
 10
46.3199978183
 20
-11.6382215683
 30
0.0
 11
46.3199978183
 21
-9.3334526886
 31
0.0
  0
LINE
  5
61
330
47
100
AcDbEntity
  8
LAYER_1
370
     0
100
AcDbLine
 10
51.2983330492
 20
-6.3313964828
 30
0.0
 11
64.5171644261
 21
-6.3313964828
 31
0.0
  0
LINE
  5
62
330
47
100
AcDbEntity
  8
LAYER_1
370
     0
100
AcDbLine
 10
64.5171644261
 20
-6.3313964828
 30
0.0
 11
64.5171644261
 21
-8.8084201367
 31
0.0
  0
LINE
  5
63
330
47
100
AcDbEntity
  8
LAYER_1
370
     0
100
AcDbLine
 10
64.5171644261
 20
-8.8084201367
 30
0.0
 11
51.2983330492
 21
-8.8084201367
 31
0.0
  0
LINE
  5
64
330
47
100
AcDbEntity
  8
LAYER_1
370
     0
100
AcDbLine
 10
48.797193727
 20
-9.9721733916
 30
0.0
 11
48.797193727
 21
-10.6470675972
 31
0.0
  0
LINE
  5
65
330
47
100
AcDbEntity
  8
LAYER_1
370
     0
100
AcDbLine
 10
51.2983330492
 20
-12.1632541202
 30
0.0
 11
64.5171644261
 21
-12.1632541202
 31
0.0
  0
LINE
  5
66
330
47
100
AcDbEntity
  8
LAYER_1
370
     0
100
AcDbLine
 10
64.5171644261
 20
-12.1632541202
 30
0.0
 11
64.5171644261
 21
-14.6402777741
 31
0.0
  0
LINE
  5
67
330
47
100
AcDbEntity
  8
LAYER_1
370
     0
100
AcDbLine
 10
65.6795396429
 20
-6.3313964828
 30
0.0
 11
83.1578870777
 21
-6.3313964828
 31
0.0
  0
LINE
  5
68
330
47
100
AcDbEntity
  8
LAYER_1
370
     0
100
AcDbLine
 10
83.1578870777
 20
-6.3313964828
 30
0.0
 11
83.1578870777
 21
-8.8080756271
 31
0.0
  0
LINE
  5
69
330
47
100
AcDbEntity
  8
LAYER_1
370
     0
100
AcDbLine
 10
83.1578870777
 20
-8.8080756271
 30
0.0
 11
68.1565632968
 21
-8.8080756271
 31
0.0
  0
LINE
  5
6A
330
47
100
AcDbEntity
  8
LAYER_1
370
     0
100
AcDbLine
 10
68.1565632968
 20
-8.8080756271
 30
0.0
 11
68.1358927239
 21
-9.774252656
 31
0.0
  0
LINE
  5
6B
330
47
100
AcDbEntity
  8
LAYER_1
370
     0
100
AcDbLine
 10
68.1358927239
 20
-9.774252656
 30
0.0
 11
77.7931843881
 21
-9.7814873565
 31
0.0
  0
LINE
  5
6C
330
47
100
AcDbEntity
  8
LAYER_1
370
     0
100
AcDbLine
 10
77.7931843881
 20
-9.7814873565
 30
0.0
 11
77.7931843881
 21
-12.2514485646
 31
0.0
  0
LINE
  5
6D
330
47
100
AcDbEntity
  8
LAYER_1
370
     0
100
AcDbLine
 10
77.7931843881
 20
-12.2514485646
 30
0.0
 11
68.1358927239
 21
-12.2514485646
 31
0.0
  0
LINE
  5
6E
330
47
100
AcDbEntity
  8
LAYER_1
370
     0
100
AcDbLine
 10
68.1358927239
 20
-12.2514485646
 30
0.0
 11
68.1565632968
 21
-14.6402777741
 31
0.0
  0
LINE
  5
6F
330
47
100
AcDbEntity
  8
LAYER_1
370
     0
100
AcDbLine
 10
68.1565632968
 20
-14.6402777741
 30
0.0
 11
65.6795396429
 21
-14.6402777741
 31
0.0
  0
LINE
  5
70
330
47
100
AcDbEntity
  8
LAYER_1
370
     0
100
AcDbLine
 10
65.6795396429
 20
-14.6402777741
 30
0.0
 11
65.6795396429
 21
-6.3313964828
 31
0.0
  0
SPLINE
  5
71
330
47
100
AcDbEntity
  8
LAYER_1
370
     0
100
AcDbSpline
210
0.0
220
0.0
230
1.0
 70
     8
 71
     3
 72
     8
 73
     4
 74
     0
 42
0.00000001
 43
0.00000001
 12
1.0
 22
0.0
 32
0.0
 13
1.0
 23
0.0
 33
0.0
 40
1.0
 40
1.0
 40
1.0
 40
1.0
 40
2.0
 40
2.0
 40
2.0
 40
2.0
 10
12.251793074194
 20
-14.64027777411771
 30
0.0
 10
11.44564073064553
 20
-14.64027777411771
 30
0.0
 10
10.74249674210604
 20
-14.59790309964914
 30
0.0
 10
10.1613091337444
 20
-14.51418727935756
 30
0.0
  0
SPLINE
  5
72
330
47
100
AcDbEntity
  8
LAYER_1
370
     0
100
AcDbSpline
210
0.0
220
0.0
230
1.0
 70
     8
 71
     3
 72
     8
 73
     4
 74
     0
 42
0.00000001
 43
0.00000001
 12
1.0
 22
0.0
 32
0.0
 13
1.0
 23
0.0
 33
0.0
 40
2.0
 40
2.0
 40
2.0
 40
2.0
 40
3.0
 40
3.0
 40
3.0
 40
3.0
 10
10.1613091337444
 20
-14.51418727935756
 30
0.0
 10
9.544637041884675
 20
-14.42564832538664
 30
0.0
 10
9.021671547223749
 20
-14.26820746171073
 30
0.0
 10
8.60757106989672
 20
-14.04737684110621
 30
0.0
  0
SPLINE
  5
73
330
47
100
AcDbEntity
  8
LAYER_1
370
     0
100
AcDbSpline
210
0.0
220
0.0
230
1.0
 70
     8
 71
     3
 72
     8
 73
     4
 74
     0
 42
0.00000001
 43
0.00000001
 12
1.0
 22
0.0
 32
0.0
 13
1.0
 23
0.0
 33
0.0
 40
3.0
 40
3.0
 40
3.0
 40
3.0
 40
4.0
 40
4.0
 40
4.0
 40
4.0
 10
8.60757106989672
 20
-14.04737684110621
 30
0.0
 10
8.15695258042604
 20
-13.8072536857843
 30
0.0
 10
7.816232636934832
 20
-13.47962510513704
 30
0.0
 10
7.595402016330317
 20
-13.07344834742608
 30
0.0
  0
SPLINE
  5
74
330
47
100
AcDbEntity
  8
LAYER_1
370
     0
100
AcDbSpline
210
0.0
220
0.0
230
1.0
 70
     8
 71
     3
 72
     8
 73
     4
 74
     0
 42
0.00000001
 43
0.00000001
 12
1.0
 22
0.0
 32
0.0
 13
1.0
 23
0.0
 33
0.0
 40
4.0
 40
4.0
 40
4.0
 40
4.0
 40
5.0
 40
5.0
 40
5.0
 40
5.0
 10
7.595402016330317
 20
-13.07344834742608
 30
0.0
 10
7.382150605793352
 20
-12.68139648120465
 30
0.0
 10
7.273285588459457
 20
-12.19839409417262
 30
0.0
 10
7.273285588459457
 20
-11.638221568271
 30
0.0
  0
SPLINE
  5
75
330
47
100
AcDbEntity
  8
LAYER_1
370
     0
100
AcDbSpline
210
0.0
220
0.0
230
1.0
 70
     8
 71
     3
 72
     8
 73
     4
 74
     0
 42
0.00000001
 43
0.00000001
 12
1.0
 22
0.0
 32
0.0
 13
1.0
 23
0.0
 33
0.0
 40
6.0
 40
6.0
 40
6.0
 40
6.0
 40
7.0
 40
7.0
 40
7.0
 40
7.0
 10
7.273285588459457
 20
-9.33345268863886
 30
0.0
 10
7.273285588459457
 20
-8.773280162737237
 30
0.0
 10
7.382150605793352
 20
-8.290277775705208
 30
0.0
 10
7.595746525878842
 20
-7.897881399935252
 30
0.0
  0
SPLINE
  5
76
330
47
100
AcDbEntity
  8
LAYER_1
370
     0
100
AcDbSpline
210
0.0
220
0.0
230
1.0
 70
     8
 71
     3
 72
     8
 73
     4
 74
     0
 42
0.00000001
 43
0.00000001
 12
1.0
 22
0.0
 32
0.0
 13
1.0
 23
0.0
 33
0.0
 40
7.0
 40
7.0
 40
7.0
 40
7.0
 40
8.0
 40
8.0
 40
8.0
 40
8.0
 10
7.595746525878842
 20
-7.897881399935252
 30
0.0
 10
7.816232636934832
 20
-7.492049151772822
 30
0.0
 10
8.15695258042604
 20
-7.164420571125562
 30
0.0
 10
8.607915579445244
 20
-6.923952906255123
 30
0.0
  0
SPLINE
  5
77
330
47
100
AcDbEntity
  8
LAYER_1
370
     0
100
AcDbSpline
210
0.0
220
0.0
230
1.0
 70
     8
 71
     3
 72
     8
 73
     4
 74
     0
 42
0.00000001
 43
0.00000001
 12
1.0
 22
0.0
 32
0.0
 13
1.0
 23
0.0
 33
0.0
 40
8.0
 40
8.0
 40
8.0
 40
8.0
 40
9.0
 40
9.0
 40
9.0
 40
9.0
 10
8.607915579445244
 20
-6.923952906255123
 30
0.0
 10
9.021671547223749
 20
-6.703466795199134
 30
0.0
 10
9.544637041884675
 20
-6.546025931523217
 30
0.0
 10
10.16165364329292
 20
-6.457486977552295
 30
0.0
  0
SPLINE
  5
78
330
47
100
AcDbEntity
  8
LAYER_1
370
     0
100
AcDbSpline
210
0.0
220
0.0
230
1.0
 70
     8
 71
     3
 72
     8
 73
     4
 74
     0
 42
0.00000001
 43
0.00000001
 12
1.0
 22
0.0
 32
0.0
 13
1.0
 23
0.0
 33
0.0
 40
9.0
 40
9.0
 40
9.0
 40
9.0
 40
10.0
 40
10.0
 40
10.0
 40
10.0
 10
10.16165364329292
 20
-6.457486977552295
 30
0.0
 10
10.74490830894572
 20
-6.373771157260724
 30
0.0
 10
11.44805229748521
 20
-6.331396482792151
 30
0.0
 10
12.251793074194
 20
-6.331396482792151
 30
0.0
  0
SPLINE
  5
79
330
47
100
AcDbEntity
  8
LAYER_1
370
     0
100
AcDbSpline
210
0.0
220
0.0
230
1.0
 70
     8
 71
     3
 72
     8
 73
     4
 74
     0
 42
0.00000001
 43
0.00000001
 12
1.0
 22
0.0
 32
0.0
 13
1.0
 23
0.0
 33
0.0
 40
13.0
 40
13.0
 40
13.0
 40
13.0
 40
14.0
 40
14.0
 40
14.0
 40
14.0
 10
12.251793074194
 20
-8.808420136686784
 30
0.0
 10
11.59377983651128
 20
-8.808420136686784
 30
0.0
 10
11.04738769255065
 20
-8.792572697454634
 30
0.0
 10
10.66842718917317
 20
-8.834947371923208
 30
0.0
  0
SPLINE
  5
7A
330
47
100
AcDbEntity
  8
LAYER_1
370
     0
100
AcDbSpline
210
0.0
220
0.0
230
1.0
 70
     8
 71
     3
 72
     8
 73
     4
 74
     0
 42
0.00000001
 43
0.00000001
 12
1.0
 22
0.0
 32
0.0
 13
1.0
 23
0.0
 33
0.0
 40
14.0
 40
14.0
 40
14.0
 40
14.0
 40
15.0
 40
15.0
 40
15.0
 40
15.0
 10
10.66842718917317
 20
-8.834947371923208
 30
0.0
 10
10.24157985855072
 20
-8.88214518007113
 30
0.0
 10
10.1461507136093
 20
-8.935199650543979
 30
0.0
 10
10.04452039679443
 20
-8.994455292890276
 30
0.0
  0
SPLINE
  5
7B
330
47
100
AcDbEntity
  8
LAYER_1
370
     0
100
AcDbSpline
210
0.0
220
0.0
230
1.0
 70
     8
 71
     3
 72
     8
 73
     4
 74
     0
 42
0.00000001
 43
0.00000001
 12
1.0
 22
0.0
 32
0.0
 13
1.0
 23
0.0
 33
0.0
 40
15.0
 40
15.0
 40
15.0
 40
15.0
 40
16.0
 40
16.0
 40
16.0
 40
16.0
 10
10.04452039679443
 20
-8.994455292890276
 30
0.0
 10
9.885012475827358
 20
-9.087472870992023
 30
0.0
 10
9.850906030523385
 20
-9.226310219047589
 30
0.0
 10
9.79922959824464
 20
-9.469189450757703
 30
0.0
  0
SPLINE
  5
7C
330
47
100
AcDbEntity
  8
LAYER_1
370
     0
100
AcDbSpline
210
0.0
220
0.0
230
1.0
 70
     8
 71
     3
 72
     8
 73
     4
 74
     0
 42
0.00000001
 43
0.00000001
 12
1.0
 22
0.0
 32
0.0
 13
1.0
 23
0.0
 33
0.0
 40
16.0
 40
16.0
 40
16.0
 40
16.0
 40
17.0
 40
17.0
 40
17.0
 40
17.0
 10
9.79922959824464
 20
-9.469189450757703
 30
0.0
 10
9.763056095649514
 20
-9.765123152940664
 30
0.0
 10
9.750653751902615
 20
-9.834025062645662
 30
0.0
 10
9.750653751902615
 20
-9.97217339160418
 30
0.0
  0
SPLINE
  5
7D
330
47
100
AcDbEntity
  8
LAYER_1
370
     0
100
AcDbSpline
210
0.0
220
0.0
230
1.0
 70
     8
 71
     3
 72
     8
 73
     4
 74
     0
 42
0.00000001
 43
0.00000001
 12
1.0
 22
0.0
 32
0.0
 13
1.0
 23
0.0
 33
0.0
 40
18.0
 40
18.0
 40
18.0
 40
18.0
 40
19.0
 40
19.0
 40
19.0
 40
19.0
 10
9.750653751902615
 20
-10.99984537485421
 30
0.0
 10
9.750653751902615
 20
-11.1376491942642
 30
0.0
 10
9.775802948944941
 20
-11.29577907703717
 30
0.0
 10
9.800952145987262
 20
-11.50592990163741
 30
0.0
  0
SPLINE
  5
7E
330
47
100
AcDbEntity
  8
LAYER_1
370
     0
100
AcDbSpline
210
0.0
220
0.0
230
1.0
 70
     8
 71
     3
 72
     8
 73
     4
 74
     0
 42
0.00000001
 43
0.00000001
 12
1.0
 22
0.0
 32
0.0
 13
1.0
 23
0.0
 33
0.0
 40
19.0
 40
19.0
 40
19.0
 40
19.0
 40
20.0
 40
20.0
 40
20.0
 40
20.0
 10
9.800952145987262
 20
-11.50592990163741
 30
0.0
 10
9.806464298763663
 20
-11.51350911170496
 30
0.0
 10
9.813354489734161
 20
-11.75948892935179
 30
0.0
 10
10.0262613907226
 20
-11.92244194580411
 30
0.0
  0
SPLINE
  5
7F
330
47
100
AcDbEntity
  8
LAYER_1
370
     0
100
AcDbSpline
210
0.0
220
0.0
230
1.0
 70
     8
 71
     3
 72
     8
 73
     4
 74
     0
 42
0.00000001
 43
0.00000001
 12
1.0
 22
0.0
 32
0.0
 13
1.0
 23
0.0
 33
0.0
 40
20.0
 40
20.0
 40
20.0
 40
20.0
 40
21.0
 40
21.0
 40
21.0
 40
21.0
 10
10.0262613907226
 20
-11.92244194580411
 30
0.0
 10
10.27534179430616
 20
-12.11295572613843
 30
0.0
 10
10.40281032726041
 20
-12.06885850392723
 30
0.0
 10
10.6894422716332
 20
-12.09986436329448
 30
0.0
  0
SPLINE
  5
80
330
47
100
AcDbEntity
  8
LAYER_1
370
     0
100
AcDbSpline
210
0.0
220
0.0
230
1.0
 70
     8
 71
     3
 72
     8
 73
     4
 74
     0
 42
0.00000001
 43
0.00000001
 12
1.0
 22
0.0
 32
0.0
 13
1.0
 23
0.0
 33
0.0
 40
21.0
 40
21.0
 40
21.0
 40
21.0
 40
22.0
 40
22.0
 40
22.0
 40
22.0
 10
10.6894422716332
 20
-12.09986436329448
 30
0.0
 10
11.06909179410773
 20
-12.14086099956895
 30
0.0
 10
11.59446885560833
 20
-12.16325412022308
 30
0.0
 10
12.251793074194
 20
-12.16325412022308
 30
0.0
  0
SPLINE
  5
81
330
47
100
AcDbEntity
  8
LAYER_1
370
     0
100
AcDbSpline
210
0.0
220
0.0
230
1.0
 70
     8
 71
     3
 72
     8
 73
     4
 74
     0
 42
0.00000001
 43
0.00000001
 12
1.0
 22
0.0
 32
0.0
 13
1.0
 23
0.0
 33
0.0
 40
3.0
 40
3.0
 40
3.0
 40
3.0
 40
4.0
 40
4.0
 40
4.0
 40
4.0
 10
40.1918619691187
 20
-12.1635986297716
 30
0.0
 10
40.84918618770437
 20
-12.1635986297716
 30
0.0
 10
41.40212401308697
 20
-12.1649766679657
 30
0.0
 10
41.77695040188215
 20
-12.12260199349713
 30
0.0
  0
SPLINE
  5
82
330
47
100
AcDbEntity
  8
LAYER_1
370
     0
100
AcDbSpline
210
0.0
220
0.0
230
1.0
 70
     8
 71
     3
 72
     8
 73
     4
 74
     0
 42
0.00000001
 43
0.00000001
 12
1.0
 22
0.0
 32
0.0
 13
1.0
 23
0.0
 33
0.0
 40
4.0
 40
4.0
 40
4.0
 40
4.0
 40
5.0
 40
5.0
 40
5.0
 40
5.0
 10
41.77695040188215
 20
-12.12260199349713
 30
0.0
 10
42.19794107017968
 20
-12.07574869489773
 30
0.0
 10
42.35572644340412
 20
-12.05094400740393
 30
0.0
 10
42.49215222462002
 20
-11.93243272271134
 30
0.0
  0
SPLINE
  5
83
330
47
100
AcDbEntity
  8
LAYER_1
370
     0
100
AcDbSpline
210
0.0
220
0.0
230
1.0
 70
     8
 71
     3
 72
     8
 73
     4
 74
     0
 42
0.00000001
 43
0.00000001
 12
1.0
 22
0.0
 32
0.0
 13
1.0
 23
0.0
 33
0.0
 40
5.0
 40
5.0
 40
5.0
 40
5.0
 40
6.0
 40
6.0
 40
6.0
 40
6.0
 10
42.49215222462002
 20
-11.93243272271134
 30
0.0
 10
42.62995604403001
 20
-11.81254339982464
 30
0.0
 10
42.60239528014802
 20
-11.16486544859767
 30
0.0
 10
42.62237683396246
 20
-11.14660644252585
 30
0.0
  0
SPLINE
  5
84
330
47
100
AcDbEntity
  8
LAYER_1
370
     0
100
AcDbSpline
210
0.0
220
0.0
230
1.0
 70
     8
 71
     2
 72
     6
 73
     3
 74
     0
 42
0.00000001
 43
0.00000001
 12
1.0
 22
0.0
 32
0.0
 13
1.0
 23
0.0
 33
0.0
 40
6.0
 40
6.0
 40
6.0
 40
7.0
 40
7.0
 40
7.0
 10
42.62237683396246
 20
-11.14660644252585
 30
0.0
 10
34.38618705737568
 20
-11.15108506665667
 30
0.0
 10
31.24770507031307
 20
-11.14660644252585
 30
0.0
  0
SPLINE
  5
85
330
47
100
AcDbEntity
  8
LAYER_1
370
     0
100
AcDbSpline
210
0.0
220
0.0
230
1.0
 70
     8
 71
     3
 72
     8
 73
     4
 74
     0
 42
0.00000001
 43
0.00000001
 12
1.0
 22
0.0
 32
0.0
 13
1.0
 23
0.0
 33
0.0
 40
7.0
 40
7.0
 40
7.0
 40
7.0
 40
8.0
 40
8.0
 40
8.0
 40
8.0
 10
31.24770507031307
 20
-11.14660644252585
 30
0.0
 10
28.10922308325047
 20
-11.14212781839502
 30
0.0
 10
26.62094183362254
 20
-10.13305935076535
 30
0.0
 10
26.62094183362254
 20
-7.816921656031881
 30
0.0
  0
SPLINE
  5
86
330
47
100
AcDbEntity
  8
LAYER_1
370
     0
100
AcDbSpline
210
0.0
220
0.0
230
1.0
 70
    24
 71
     2
 72
     6
 73
     3
 74
     0
 42
0.00000001
 43
0.00000001
 12
1.0
 22
0.0
 32
0.0
 13
1.0
 23
0.0
 33
0.0
 40
8.0
 40
8.0
 40
8.0
 40
9.0
 40
9.0
 40
9.0
 10
26.62094183362254
 20
-7.816921656031881
 30
0.0
 10
26.62094183362254
 20
-7.555266653927156
 30
0.0
 10
26.62094183362254
 20
-6.331396482792151
 30
0.0
  0
SPLINE
  5
87
330
47
100
AcDbEntity
  8
LAYER_1
370
     0
100
AcDbSpline
210
0.0
220
0.0
230
1.0
 70
     8
 71
     3
 72
     8
 73
     4
 74
     0
 42
0.00000001
 43
0.00000001
 12
1.0
 22
0.0
 32
0.0
 13
1.0
 23
0.0
 33
0.0
 40
11.0
 40
11.0
 40
11.0
 40
11.0
 40
12.0
 40
12.0
 40
12.0
 40
12.0
 10
29.09762097796865
 20
-7.846549477205031
 30
0.0
 10
29.09762097796865
 20
-8.008813474560297
 30
0.0
 10
29.11966958907425
 20
-7.856884763660778
 30
0.0
 10
29.16480033993102
 20
-8.027072480632121
 30
0.0
  0
SPLINE
  5
88
330
47
100
AcDbEntity
  8
LAYER_1
370
     0
100
AcDbSpline
210
0.0
220
0.0
230
1.0
 70
     8
 71
     3
 72
     8
 73
     4
 74
     0
 42
0.00000001
 43
0.00000001
 12
1.0
 22
0.0
 32
0.0
 13
1.0
 23
0.0
 33
0.0
 40
12.0
 40
12.0
 40
12.0
 40
12.0
 40
13.0
 40
13.0
 40
13.0
 40
13.0
 10
29.16480033993102
 20
-8.027072480632121
 30
0.0
 10
29.2044189380114
 20
-8.176589624691964
 30
0.0
 10
29.32568629909219
 20
-8.315426972747533
 30
0.0
 10
29.44523111243036
 20
-8.406032984009602
 30
0.0
  0
SPLINE
  5
89
330
47
100
AcDbEntity
  8
LAYER_1
370
     0
100
AcDbSpline
210
0.0
220
0.0
230
1.0
 70
     8
 71
     3
 72
     8
 73
     4
 74
     0
 42
0.00000001
 43
0.00000001
 12
1.0
 22
0.0
 32
0.0
 13
1.0
 23
0.0
 33
0.0
 40
13.0
 40
13.0
 40
13.0
 40
13.0
 40
14.0
 40
14.0
 40
14.0
 40
14.0
 10
29.44523111243036
 20
-8.406032984009602
 30
0.0
 10
29.61025118617383
 20
-8.530400931027122
 30
0.0
 10
29.73496364273987
 20
-8.55313856122977
 30
0.0
 10
30.01573892478773
 20
-8.59654676434392
 30
0.0
  0
SPLINE
  5
8A
330
47
100
AcDbEntity
  8
LAYER_1
370
     0
100
AcDbSpline
210
0.0
220
0.0
230
1.0
 70
     8
 71
     3
 72
     8
 73
     4
 74
     0
 42
0.00000001
 43
0.00000001
 12
1.0
 22
0.0
 32
0.0
 13
1.0
 23
0.0
 33
0.0
 40
14.0
 40
14.0
 40
14.0
 40
14.0
 40
15.0
 40
15.0
 40
15.0
 40
15.0
 10
30.01573892478773
 20
-8.59654676434392
 30
0.0
 10
30.32752006620284
 20
-8.645122610685942
 30
0.0
 10
30.73817544804463
 20
-8.66992729817974
 30
0.0
 10
31.2356472361147
 20
-8.66992729817974
 30
0.0
  0
SPLINE
  5
8B
330
47
100
AcDbEntity
  8
LAYER_1
370
     0
100
AcDbSpline
210
0.0
220
0.0
230
1.0
 70
     8
 71
     3
 72
     8
 73
     4
 74
     0
 42
0.00000001
 43
0.00000001
 12
1.0
 22
0.0
 32
0.0
 13
1.0
 23
0.0
 33
0.0
 40
19.0
 40
19.0
 40
19.0
 40
19.0
 40
20.0
 40
20.0
 40
20.0
 40
20.0
 10
45.17002494530472
 20
-11.28544379058142
 30
0.0
 10
45.17002494530472
 20
-11.84423827828894
 30
0.0
 10
45.06150443751935
 20
-12.68174099075318
 30
0.0
 10
44.84790851743386
 20
-13.07379285697461
 30
0.0
  0
SPLINE
  5
8C
330
47
100
AcDbEntity
  8
LAYER_1
370
     0
100
AcDbSpline
210
0.0
220
0.0
230
1.0
 70
     8
 71
     3
 72
     8
 73
     4
 74
     0
 42
0.00000001
 43
0.00000001
 12
1.0
 22
0.0
 32
0.0
 13
1.0
 23
0.0
 33
0.0
 40
20.0
 40
20.0
 40
20.0
 40
20.0
 40
21.0
 40
21.0
 40
21.0
 40
21.0
 10
44.84790851743386
 20
-13.07379285697461
 30
0.0
 10
44.62673338728082
 20
-13.47996961468556
 30
0.0
 10
44.28635795333813
 20
-13.8072536857843
 30
0.0
 10
43.83608397341598
 20
-14.04772135065474
 30
0.0
  0
SPLINE
  5
8D
330
47
100
AcDbEntity
  8
LAYER_1
370
     0
100
AcDbSpline
210
0.0
220
0.0
230
1.0
 70
     8
 71
     3
 72
     8
 73
     4
 74
     0
 42
0.00000001
 43
0.00000001
 12
1.0
 22
0.0
 32
0.0
 13
1.0
 23
0.0
 33
0.0
 40
21.0
 40
21.0
 40
21.0
 40
21.0
 40
22.0
 40
22.0
 40
22.0
 40
22.0
 10
43.83608397341598
 20
-14.04772135065474
 30
0.0
 10
43.42198349608895
 20
-14.26889648080778
 30
0.0
 10
42.89936251097655
 20
-14.42530381583812
 30
0.0
 10
42.28200140001978
 20
-14.51418727935756
 30
0.0
  0
SPLINE
  5
8E
330
47
100
AcDbEntity
  8
LAYER_1
370
     0
100
AcDbSpline
210
0.0
220
0.0
230
1.0
 70
     8
 71
     3
 72
     8
 73
     4
 74
     0
 42
0.00000001
 43
0.00000001
 12
1.0
 22
0.0
 32
0.0
 13
1.0
 23
0.0
 33
0.0
 40
22.0
 40
22.0
 40
22.0
 40
22.0
 40
23.0
 40
23.0
 40
23.0
 40
23.0
 10
42.28200140001978
 20
-14.51418727935756
 30
0.0
 10
41.6990912439155
 20
-14.59824760919766
 30
0.0
 10
40.99594725537602
 20
-14.64027777411771
 30
0.0
 10
40.1918619691187
 20
-14.64027777411771
 30
0.0
  0
SPLINE
  5
8F
330
47
100
AcDbEntity
  8
LAYER_1
370
     0
100
AcDbSpline
210
0.0
220
0.0
230
1.0
 70
     8
 71
     3
 72
     8
 73
     4
 74
     0
 42
0.00000001
 43
0.00000001
 12
1.0
 22
0.0
 32
0.0
 13
1.0
 23
0.0
 33
0.0
 40
1.0
 40
1.0
 40
1.0
 40
1.0
 40
2.0
 40
2.0
 40
2.0
 40
2.0
 10
51.2983330492414
 20
-14.64027777411771
 30
0.0
 10
50.49218070569293
 20
-14.64027777411771
 30
0.0
 10
49.78869220760491
 20
-14.59790309964914
 30
0.0
 10
49.20784910879179
 20
-14.51418727935756
 30
0.0
  0
SPLINE
  5
90
330
47
100
AcDbEntity
  8
LAYER_1
370
     0
100
AcDbSpline
210
0.0
220
0.0
230
1.0
 70
     8
 71
     3
 72
     8
 73
     4
 74
     0
 42
0.00000001
 43
0.00000001
 12
1.0
 22
0.0
 32
0.0
 13
1.0
 23
0.0
 33
0.0
 40
2.0
 40
2.0
 40
2.0
 40
2.0
 40
3.0
 40
3.0
 40
3.0
 40
3.0
 10
49.20784910879179
 20
-14.51418727935756
 30
0.0
 10
48.59117701693207
 20
-14.42564832538664
 30
0.0
 10
48.06821152227114
 20
-14.26820746171073
 30
0.0
 10
47.65411104494412
 20
-14.04737684110621
 30
0.0
  0
SPLINE
  5
91
330
47
100
AcDbEntity
  8
LAYER_1
370
     0
100
AcDbSpline
210
0.0
220
0.0
230
1.0
 70
     8
 71
     3
 72
     8
 73
     4
 74
     0
 42
0.00000001
 43
0.00000001
 12
1.0
 22
0.0
 32
0.0
 13
1.0
 23
0.0
 33
0.0
 40
3.0
 40
3.0
 40
3.0
 40
3.0
 40
4.0
 40
4.0
 40
4.0
 40
4.0
 10
47.65411104494412
 20
-14.04737684110621
 30
0.0
 10
47.20366481024769
 20
-13.8072536857843
 30
0.0
 10
46.8629448667565
 20
-13.47962510513704
 30
0.0
 10
46.64176973660345
 20
-13.07344834742608
 30
0.0
  0
SPLINE
  5
92
330
47
100
AcDbEntity
  8
LAYER_1
370
     0
100
AcDbSpline
210
0.0
220
0.0
230
1.0
 70
     8
 71
     3
 72
     8
 73
     4
 74
     0
 42
0.00000001
 43
0.00000001
 12
1.0
 22
0.0
 32
0.0
 13
1.0
 23
0.0
 33
0.0
 40
4.0
 40
4.0
 40
4.0
 40
4.0
 40
5.0
 40
5.0
 40
5.0
 40
5.0
 10
46.64176973660345
 20
-13.07344834742608
 30
0.0
 10
46.42851832606648
 20
-12.68139648120465
 30
0.0
 10
46.31999781828112
 20
-12.19839409417262
 30
0.0
 10
46.31999781828112
 20
-11.638221568271
 30
0.0
  0
SPLINE
  5
93
330
47
100
AcDbEntity
  8
LAYER_1
370
     0
100
AcDbSpline
210
0.0
220
0.0
230
1.0
 70
     8
 71
     3
 72
     8
 73
     4
 74
     0
 42
0.00000001
 43
0.00000001
 12
1.0
 22
0.0
 32
0.0
 13
1.0
 23
0.0
 33
0.0
 40
6.0
 40
6.0
 40
6.0
 40
6.0
 40
7.0
 40
7.0
 40
7.0
 40
7.0
 10
46.31999781828112
 20
-9.33345268863886
 30
0.0
 10
46.31999781828112
 20
-8.773280162737237
 30
0.0
 10
46.42851832606648
 20
-8.290277775705208
 30
0.0
 10
46.64211424615198
 20
-7.897881399935252
 30
0.0
  0
SPLINE
  5
94
330
47
100
AcDbEntity
  8
LAYER_1
370
     0
100
AcDbSpline
210
0.0
220
0.0
230
1.0
 70
     8
 71
     3
 72
     8
 73
     4
 74
     0
 42
0.00000001
 43
0.00000001
 12
1.0
 22
0.0
 32
0.0
 13
1.0
 23
0.0
 33
0.0
 40
7.0
 40
7.0
 40
7.0
 40
7.0
 40
8.0
 40
8.0
 40
8.0
 40
8.0
 10
46.64211424615198
 20
-7.897881399935252
 30
0.0
 10
46.8629448667565
 20
-7.492049151772822
 30
0.0
 10
47.20366481024769
 20
-7.164420571125562
 30
0.0
 10
47.65411104494412
 20
-6.923952906255123
 30
0.0
  0
SPLINE
  5
95
330
47
100
AcDbEntity
  8
LAYER_1
370
     0
100
AcDbSpline
210
0.0
220
0.0
230
1.0
 70
     8
 71
     3
 72
     8
 73
     4
 74
     0
 42
0.00000001
 43
0.00000001
 12
1.0
 22
0.0
 32
0.0
 13
1.0
 23
0.0
 33
0.0
 40
8.0
 40
8.0
 40
8.0
 40
8.0
 40
9.0
 40
9.0
 40
9.0
 40
9.0
 10
47.65411104494412
 20
-6.923952906255123
 30
0.0
 10
48.06821152227114
 20
-6.703466795199134
 30
0.0
 10
48.59117701693207
 20
-6.546025931523217
 30
0.0
 10
49.20853812788884
 20
-6.457486977552295
 30
0.0
  0
SPLINE
  5
96
330
47
100
AcDbEntity
  8
LAYER_1
370
     0
100
AcDbSpline
210
0.0
220
0.0
230
1.0
 70
     8
 71
     3
 72
     8
 73
     4
 74
     0
 42
0.00000001
 43
0.00000001
 12
1.0
 22
0.0
 32
0.0
 13
1.0
 23
0.0
 33
0.0
 40
9.0
 40
9.0
 40
9.0
 40
9.0
 40
10.0
 40
10.0
 40
10.0
 40
10.0
 10
49.20853812788884
 20
-6.457486977552295
 30
0.0
 10
49.79144828399311
 20
-6.373771157260724
 30
0.0
 10
50.49493678208113
 20
-6.331396482792151
 30
0.0
 10
51.2983330492414
 20
-6.331396482792151
 30
0.0
  0
SPLINE
  5
97
330
47
100
AcDbEntity
  8
LAYER_1
370
     0
100
AcDbSpline
210
0.0
220
0.0
230
1.0
 70
     8
 71
     3
 72
     8
 73
     4
 74
     0
 42
0.00000001
 43
0.00000001
 12
1.0
 22
0.0
 32
0.0
 13
1.0
 23
0.0
 33
0.0
 40
13.0
 40
13.0
 40
13.0
 40
13.0
 40
14.0
 40
14.0
 40
14.0
 40
14.0
 10
51.2983330492414
 20
-8.808420136686784
 30
0.0
 10
50.64031981155867
 20
-8.808420136686784
 30
0.0
 10
50.09392766759806
 20
-8.792572697454634
 30
0.0
 10
49.71496716422057
 20
-8.834947371923208
 30
0.0
  0
SPLINE
  5
98
330
47
100
AcDbEntity
  8
LAYER_1
370
     0
100
AcDbSpline
210
0.0
220
0.0
230
1.0
 70
     8
 71
     3
 72
     8
 73
     4
 74
     0
 42
0.00000001
 43
0.00000001
 12
1.0
 22
0.0
 32
0.0
 13
1.0
 23
0.0
 33
0.0
 40
14.0
 40
14.0
 40
14.0
 40
14.0
 40
15.0
 40
15.0
 40
15.0
 40
15.0
 10
49.71496716422057
 20
-8.834947371923208
 30
0.0
 10
49.28846434314665
 20
-8.88214518007113
 30
0.0
 10
49.19269068865669
 20
-8.935199650543979
 30
0.0
 10
49.09071586229329
 20
-8.994455292890276
 30
0.0
  0
SPLINE
  5
99
330
47
100
AcDbEntity
  8
LAYER_1
370
     0
100
AcDbSpline
210
0.0
220
0.0
230
1.0
 70
     8
 71
     3
 72
     8
 73
     4
 74
     0
 42
0.00000001
 43
0.00000001
 12
1.0
 22
0.0
 32
0.0
 13
1.0
 23
0.0
 33
0.0
 40
15.0
 40
15.0
 40
15.0
 40
15.0
 40
16.0
 40
16.0
 40
16.0
 40
16.0
 10
49.09071586229329
 20
-8.994455292890276
 30
0.0
 10
48.93155245087475
 20
-9.087472870992023
 30
0.0
 10
48.8977905151193
 20
-9.226310219047589
 30
0.0
 10
48.84611408284056
 20
-9.469189450757703
 30
0.0
  0
SPLINE
  5
9A
330
47
100
AcDbEntity
  8
LAYER_1
370
     0
100
AcDbSpline
210
0.0
220
0.0
230
1.0
 70
     8
 71
     3
 72
     8
 73
     4
 74
     0
 42
0.00000001
 43
0.00000001
 12
1.0
 22
0.0
 32
0.0
 13
1.0
 23
0.0
 33
0.0
 40
16.0
 40
16.0
 40
16.0
 40
16.0
 40
17.0
 40
17.0
 40
17.0
 40
17.0
 10
48.84611408284056
 20
-9.469189450757703
 30
0.0
 10
48.80959607069691
 20
-9.765123152940664
 30
0.0
 10
48.79719372695001
 20
-9.834025062645662
 30
0.0
 10
48.79719372695001
 20
-9.97217339160418
 30
0.0
  0
SPLINE
  5
9B
330
47
100
AcDbEntity
  8
LAYER_1
370
     0
100
AcDbSpline
210
0.0
220
0.0
230
1.0
 70
     8
 71
     3
 72
     8
 73
     4
 74
     0
 42
0.00000001
 43
0.00000001
 12
1.0
 22
0.0
 32
0.0
 13
1.0
 23
0.0
 33
0.0
 40
18.0
 40
18.0
 40
18.0
 40
18.0
 40
19.0
 40
19.0
 40
19.0
 40
19.0
 10
48.79719372695001
 20
-10.64706759716462
 30
0.0
 10
48.79719372695001
 20
-10.78487141657462
 30
0.0
 10
48.82199841444381
 20
-11.29577907703717
 30
0.0
 10
48.84749212103466
 20
-11.50592990163741
 30
0.0
  0
SPLINE
  5
9C
330
47
100
AcDbEntity
  8
LAYER_1
370
     0
100
AcDbSpline
210
0.0
220
0.0
230
1.0
 70
     8
 71
     3
 72
     8
 73
     4
 74
     0
 42
0.00000001
 43
0.00000001
 12
1.0
 22
0.0
 32
0.0
 13
1.0
 23
0.0
 33
0.0
 40
19.0
 40
19.0
 40
19.0
 40
19.0
 40
20.0
 40
20.0
 40
20.0
 40
20.0
 10
48.84749212103466
 20
-11.50592990163741
 30
0.0
 10
48.85300427381106
 20
-11.51350911170496
 30
0.0
 10
48.85989446478155
 20
-11.75948892935179
 30
0.0
 10
49.07280136577
 20
-11.92244194580411
 30
0.0
  0
SPLINE
  5
9D
330
47
100
AcDbEntity
  8
LAYER_1
370
     0
100
AcDbSpline
210
0.0
220
0.0
230
1.0
 70
     8
 71
     3
 72
     8
 73
     4
 74
     0
 42
0.00000001
 43
0.00000001
 12
1.0
 22
0.0
 32
0.0
 13
1.0
 23
0.0
 33
0.0
 40
20.0
 40
20.0
 40
20.0
 40
20.0
 40
21.0
 40
21.0
 40
21.0
 40
21.0
 10
49.07280136577
 20
-11.92244194580411
 30
0.0
 10
49.32153725980503
 20
-12.11295572613843
 30
0.0
 10
49.44969481185633
 20
-12.06885850392723
 30
0.0
 10
49.73632675622912
 20
-12.09986436329448
 30
0.0
  0
SPLINE
  5
9E
330
47
100
AcDbEntity
  8
LAYER_1
370
     0
100
AcDbSpline
210
0.0
220
0.0
230
1.0
 70
     8
 71
     3
 72
     8
 73
     4
 74
     0
 42
0.00000001
 43
0.00000001
 12
1.0
 22
0.0
 32
0.0
 13
1.0
 23
0.0
 33
0.0
 40
21.0
 40
21.0
 40
21.0
 40
21.0
 40
22.0
 40
22.0
 40
22.0
 40
22.0
 10
49.73632675622912
 20
-12.09986436329448
 30
0.0
 10
50.1152872596066
 20
-12.14086099956895
 30
0.0
 10
50.64100883065572
 20
-12.16325412022308
 30
0.0
 10
51.2983330492414
 20
-12.16325412022308
 30
0.0
  0
ENDBLK
  5
49
330
47
100
AcDbEntity
  8
0
100
AcDbBlockEnd
  0
BLOCK
  5
AD
330
AC
100
AcDbEntity
  8
0
100
AcDbBlockBegin
  2
SW_NOTE_0
 70
     0
 10
0.0
 20
0.0
 30
0.0
  3
SW_NOTE_0
  1

  0
MTEXT
  5
B0
330
AC
100
AcDbEntity
  8
0
  6
Continuous
 62
     0
370
     0
100
AcDbMText
 10
0.0
 20
3.7517242343
 30
0.0
 40
2.9104166667
 41
0.0
 71
     1
 72
     1
  1
XR Project by Cycfi Research is licensed under
  7
SLDTEXTSTYLE0
 73
     1
 44
1.0
  0
MTEXT
  5
B1
330
AC
100
AcDbEntity
  8
0
  6
Continuous
 62
     0
370
     0
100
AcDbMText
 10
0.0
 20
-0.1288312744
 30
0.0
 40
2.9104166667
 41
0.0
 71
     1
 72
     1
  1
a Creative Commons Attribution-NonCommercial
  7
SLDTEXTSTYLE0
 73
     1
 44
1.0
  0
MTEXT
  5
B2
330
AC
100
AcDbEntity
  8
0
  6
Continuous
 62
     0
370
     0
100
AcDbMText
 10
0.0
 20
-4.009386783
 30
0.0
 40
2.9104166667
 41
0.0
 71
     1
 72
     1
  1
4.0 International License.
  7
SLDTEXTSTYLE0
 73
     1
 44
1.0
  0
MTEXT
  5
B3
330
AC
100
AcDbEntity
  8
0
  6
Continuous
 62
     0
370
     0
100
AcDbMText
 10
0.0
 20
-7.8899422917
 30
0.0
 40
2.9104166667
 41
0.0
 71
     1
 72
     1
  1
http://creativecommons.org/licenses/by-nc/4.0/
  7
SLDTEXTSTYLE0
 73
     1
 44
1.0
  0
MTEXT
  5
B4
330
AC
100
AcDbEntity
  8
0
  6
Continuous
 62
     0
370
     0
100
AcDbMText
 10
0.0
 20
-15.651053309
 30
0.0
 40
2.9104166667
 41
0.0
 71
     1
 72
     1
  1
Copyright CYCFI Research Inc. 2013-2016
  7
SLDTEXTSTYLE0
 73
     1
 44
1.0
  0
ENDBLK
  5
AE
330
AC
100
AcDbEntity
  8
0
100
AcDbBlockEnd
  0
BLOCK
  5
B8
330
B7
100
AcDbEntity
  8
0
100
AcDbBlockBegin
  2
SW_NOTE_1
 70
     0
 10
0.0
 20
0.0
 30
0.0
  3
SW_NOTE_1
  1

  0
MTEXT
  5
BA
330
B7
100
AcDbEntity
  8
0
  6
Continuous
 62
     0
370
     0
100
AcDbMText
 10
33.63515625
 20
6.1391851107
 30
0.0
 40
4.7625
 41
0.0
 71
     2
 72
     1
  1
XR Half width soapbar
  7
SLDTEXTSTYLE0
 73
     1
 44
1.0
  0
MTEXT
  5
BB
330
B7
100
AcDbEntity
  8
0
  6
Continuous
 62
     0
370
     0
100
AcDbMText
 10
34.3263789833
 20
-0.2108148126
 30
0.0
 40
4.7625
 41
0.0
 71
     2
 72
     1
  1
mounting base
  7
SLDTEXTSTYLE0
 73
     1
 44
1.0
  0
ENDBLK
  5
B9
330
B7
100
AcDbEntity
  8
0
100
AcDbBlockEnd
  0
BLOCK
  5
130
330
12F
100
AcDbEntity
  8
0
100
AcDbBlockBegin
  2
_D
 70
     0
 10
0.0
 20
0.0
 30
0.0
  3
_D
  1

  0
SOLID
  5
132
330
12F
100
AcDbEntity
  8
SLD-0
100
AcDbTrace
 10
64.0138850174
 20
157.3810057702
 30
0.0
 11
67.3158850174
 21
156.8730057702
 31
0.0
 12
67.3158850174
 22
157.8890057702
 32
0.0
 13
67.3158850174
 23
157.8890057702
 33
0.0
  0
SOLID
  5
133
330
12F
100
AcDbEntity
  8
SLD-0
100
AcDbTrace
 10
146.5138850174
 20
157.3810057702
 30
0.0
 11
143.2118850174
 21
157.8890057702
 31
0.0
 12
143.2118850174
 22
156.8730057702
 32
0.0
 13
143.2118850174
 23
156.8730057702
 33
0.0
  0
LINE
  5
134
330
12F
100
AcDbEntity
  8
SLD-0
100
AcDbLine
 10
64.0138850174
 20
154.2699986591
 30
0.0
 11
64.0138850174
 21
158.3810057702
 31
0.0
  0
LINE
  5
135
330
12F
100
AcDbEntity
  8
SLD-0
100
AcDbLine
 10
146.5138850174
 20
155.9170544223
 30
0.0
 11
146.5138850174
 21
158.3810057702
 31
0.0
  0
LINE
  5
136
330
12F
100
AcDbEntity
  8
SLD-0
100
AcDbLine
 10
64.0138850174
 20
157.3810057702
 30
0.0
 11
146.5138850174
 21
157.3810057702
 31
0.0
  0
MTEXT
  5
137
330
12F
100
AcDbEntity
  8
SLD-0
100
AcDbMText
 10
96.9276575594
 20
161.8927426848
 30
0.1
 40
3.5
 41
0.0
 71
     1
 72
     1
  1
82.50
  7
SLDTEXTSTYLE0
 73
     1
 44
1.0
  0
MTEXT
  5
138
330
12F
100
AcDbEntity
  8
SLD-0
100
AcDbMText
 10
112.7214077561
 20
161.8927426848
 30
0.1
 40
3.5
 41
0.0
 71
     1
 72
     1
  1
mm
  7
SLDTEXTSTYLE0
 73
     1
 44
1.0
  0
ENDBLK
  5
131
330
12F
100
AcDbEntity
  8
0
100
AcDbBlockEnd
  0
BLOCK
  5
13B
330
13A
100
AcDbEntity
  8
0
100
AcDbBlockBegin
  2
_D_1
 70
     0
 10
0.0
 20
0.0
 30
0.0
  3
_D_1
  1

  0
SOLID
  5
13D
330
13A
100
AcDbEntity
  8
SLD-0
100
AcDbTrace
 10
57.6638850174
 20
238.6384320557
 30
0.0
 11
60.9658850174
 21
238.1304320557
 31
0.0
 12
60.9658850174
 22
239.1464320557
 32
0.0
 13
60.9658850174
 23
239.1464320557
 33
0.0
  0
SOLID
  5
13E
330
13A
100
AcDbEntity
  8
SLD-0
100
AcDbTrace
 10
152.8638850174
 20
238.6384320557
 30
0.0
 11
149.5618850174
 21
239.1464320557
 31
0.0
 12
149.5618850174
 22
238.1304320557
 32
0.0
 13
149.5618850174
 23
238.1304320557
 33
0.0
  0
LINE
  5
13F
330
13A
100
AcDbEntity
  8
SLD-0
100
AcDbLine
 10
57.6638850174
 20
231.7677255914
 30
0.0
 11
57.6638850174
 21
239.6384320557
 31
0.0
  0
LINE
  5
140
330
13A
100
AcDbEntity
  8
SLD-0
100
AcDbLine
 10
152.8638850174
 20
231.7677255914
 30
0.0
 11
152.8638850174
 21
239.6384320557
 31
0.0
  0
LINE
  5
141
330
13A
100
AcDbEntity
  8
SLD-0
100
AcDbLine
 10
57.6638850174
 20
238.6384320557
 30
0.0
 11
152.8638850174
 21
238.6384320557
 31
0.0
  0
MTEXT
  5
142
330
13A
100
AcDbEntity
  8
SLD-0
100
AcDbMText
 10
90.9026954485
 20
243.1501689703
 30
0.1
 40
3.5
 41
0.0
 71
     1
 72
     1
  1
95.20
  7
SLDTEXTSTYLE0
 73
     1
 44
1.0
  0
MTEXT
  5
143
330
13A
100
AcDbEntity
  8
SLD-0
100
AcDbMText
 10
106.6964456451
 20
243.1501689703
 30
0.1
 40
3.5
 41
0.0
 71
     1
 72
     1
  1
mm
  7
SLDTEXTSTYLE0
 73
     1
 44
1.0
  0
ENDBLK
  5
13C
330
13A
100
AcDbEntity
  8
0
100
AcDbBlockEnd
  0
BLOCK
  5
147
330
146
100
AcDbEntity
  8
0
100
AcDbBlockBegin
  2
_D_2
 70
     0
 10
0.0
 20
0.0
 30
0.0
  3
_D_2
  1

  0
SOLID
  5
149
330
146
100
AcDbEntity
  8
SLD-0
100
AcDbTrace
 10
51.7386067205
 20
141.6384320557
 30
0.0
 11
52.2466067205
 21
144.9404320557
 31
0.0
 12
51.2306067205
 22
144.9404320557
 32
0.0
 13
51.2306067205
 23
144.9404320557
 33
0.0
  0
SOLID
  5
14A
330
146
100
AcDbEntity
  8
SLD-0
100
AcDbTrace
 10
51.7386067205
 20
138.6384320557
 30
0.0
 11
51.2306067205
 21
135.3364320557
 31
0.0
 12
52.2466067205
 22
135.3364320557
 32
0.0
 13
52.2466067205
 23
135.3364320557
 33
0.0
  0
LINE
  5
14B
330
146
100
AcDbEntity
  8
SLD-0
100
AcDbLine
 10
63.0138850174
 20
141.6384320557
 30
0.0
 11
50.7386067205
 21
141.6384320557
 31
0.0
  0
LINE
  5
14C
330
146
100
AcDbEntity
  8
SLD-0
100
AcDbLine
 10
63.0138850174
 20
138.6384320557
 30
0.0
 11
50.7386067205
 21
138.6384320557
 31
0.0
  0
LINE
  5
14D
330
146
100
AcDbEntity
  8
SLD-0
100
AcDbLine
 10
51.7386067205
 20
141.6384320557
 30
0.0
 11
51.7386067205
 21
147.9884320557
 31
0.0
  0
LINE
  5
14E
330
146
100
AcDbEntity
  8
SLD-0
100
AcDbLine
 10
51.7386067205
 20
141.6384320557
 30
0.0
 11
51.7386067205
 21
138.6384320557
 31
0.0
  0
LINE
  5
14F
330
146
100
AcDbEntity
  8
SLD-0
100
AcDbLine
 10
51.7386067205
 20
138.6384320557
 30
0.0
 11
51.7386067205
 21
132.2884320557
 31
0.0
  0
MTEXT
  5
150
330
146
100
AcDbEntity
  8
SLD-0
100
AcDbMText
 10
47.2268696313
 20
133.6286263604
 30
-46.0461406667
 40
3.5
 41
0.0
 71
     1
 72
     1
  1
%%c
  7
SLDTEXTSTYLE0
 11
-7.044195017643634E-15
 21
1.0
 31
0.0
 73
     1
 44
1.0
  0
MTEXT
  5
151
330
146
100
AcDbEntity
  8
SLD-0
100
AcDbMText
 10
47.1733974546
 20
138.9070637588
 30
-46.0461406667
 40
3.5
 41
0.0
 71
     1
 72
     1
  1
3
  7
SLDTEXTSTYLE0
 11
-7.044195017643634E-15
 21
1.0
 31
0.0
 73
     1
 44
1.0
  0
ENDBLK
  5
148
330
146
100
AcDbEntity
  8
0
100
AcDbBlockEnd
  0
BLOCK
  5
155
330
154
100
AcDbEntity
  8
0
100
AcDbBlockBegin
  2
_D_3
 70
     0
 10
0.0
 20
0.0
 30
0.0
  3
_D_3
  1

  0
SOLID
  5
157
330
154
100
AcDbEntity
  8
SLD-0
100
AcDbTrace
 10
61.2385844874
 20
148.0534320557
 30
0.0
 11
58.6329686041
 21
150.1443729609
 31
0.0
 12
58.1249686041
 22
149.2644911506
 32
0.0
 13
58.1249686041
 23
149.2644911506
 33
0.0
  0
LINE
  5
158
330
154
100
AcDbEntity
  8
SLD-0
100
AcDbLine
 10
61.2385844874
 20
148.0534320557
 30
0.0
 11
45.5904157484
 21
157.0879064895
 31
0.0
  0
LINE
  5
159
330
154
100
AcDbEntity
  8
SLD-0
100
AcDbLine
 10
61.2385844874
 20
148.0534320557
 30
0.0
 11
63.9838850174
 21
146.4684320557
 31
0.0
  0
MTEXT
  5
15A
330
154
100
AcDbEntity
  8
SLD-0
100
AcDbMText
 10
47.8202249223
 20
160.95004927
 30
-46.0461406667
 40
3.5
 41
0.0
 71
     1
 72
     1
  1
R3.17
  7
SLDTEXTSTYLE0
 11
0.8660254037843923
 21
-0.5000000000000803
 31
0.0
 73
     1
 44
1.0
  0
ENDBLK
  5
156
330
154
100
AcDbEntity
  8
0
100
AcDbBlockEnd
  0
BLOCK
  5
15D
330
15C
100
AcDbEntity
  8
0
100
AcDbBlockBegin
  2
_D_4
 70
     0
 10
0.0
 20
0.0
 30
0.0
  3
_D_4
  1

  0
SOLID
  5
15F
330
15C
100
AcDbEntity
  8
SLD-0
100
AcDbTrace
 10
60.8138850174
 20
120.6384320557
 30
0.0
 11
64.1158850174
 21
120.1304320557
 31
0.0
 12
64.1158850174
 22
121.1464320557
 32
0.0
 13
64.1158850174
 23
121.1464320557
 33
0.0
  0
SOLID
  5
160
330
15C
100
AcDbEntity
  8
SLD-0
100
AcDbTrace
 10
149.7138850174
 20
120.6384320557
 30
0.0
 11
146.4118850174
 21
121.1464320557
 31
0.0
 12
146.4118850174
 22
120.1304320557
 32
0.0
 13
146.4118850174
 23
120.1304320557
 33
0.0
  0
LINE
  5
161
330
15C
100
AcDbEntity
  8
SLD-0
100
AcDbLine
 10
60.8138850174
 20
132.8084320557
 30
0.0
 11
60.8138850174
 21
119.6384320557
 31
0.0
  0
LINE
  5
162
330
15C
100
AcDbEntity
  8
SLD-0
100
AcDbLine
 10
149.7138850174
 20
132.8084320557
 30
0.0
 11
149.7138850174
 21
119.6384320557
 31
0.0
  0
LINE
  5
163
330
15C
100
AcDbEntity
  8
SLD-0
100
AcDbLine
 10
60.8138850174
 20
120.6384320557
 30
0.0
 11
149.7138850174
 21
120.6384320557
 31
0.0
  0
MTEXT
  5
164
330
15C
100
AcDbEntity
  8
SLD-0
100
AcDbMText
 10
96.9276575594
 20
125.1501689703
 30
-46.0461406667
 40
3.5
 41
0.0
 71
     1
 72
     1
  1
88.90
  7
SLDTEXTSTYLE0
 73
     1
 44
1.0
  0
MTEXT
  5
165
330
15C
100
AcDbEntity
  8
SLD-0
100
AcDbMText
 10
112.7214077561
 20
125.1501689703
 30
-46.0461406667
 40
3.5
 41
0.0
 71
     1
 72
     1
  1
mm
  7
SLDTEXTSTYLE0
 73
     1
 44
1.0
  0
ENDBLK
  5
15E
330
15C
100
AcDbEntity
  8
0
100
AcDbBlockEnd
  0
BLOCK
  5
168
330
167
100
AcDbEntity
  8
0
100
AcDbBlockBegin
  2
_D_5
 70
     0
 10
0.0
 20
0.0
 30
0.0
  3
_D_5
  1

  0
SOLID
  5
16A
330
167
100
AcDbEntity
  8
SLD-0
100
AcDbTrace
 10
160.6910449054
 20
149.6384320557
 30
0.0
 11
161.1990449054
 21
152.9404320557
 31
0.0
 12
160.1830449054
 22
152.9404320557
 32
0.0
 13
160.1830449054
 23
152.9404320557
 33
0.0
  0
SOLID
  5
16B
330
167
100
AcDbEntity
  8
SLD-0
100
AcDbTrace
 10
160.6910449054
 20
130.6384320557
 30
0.0
 11
160.1830449054
 21
127.3364320557
 31
0.0
 12
161.1990449054
 22
127.3364320557
 32
0.0
 13
161.1990449054
 23
127.3364320557
 33
0.0
  0
LINE
  5
16C
330
167
100
AcDbEntity
  8
SLD-0
100
AcDbLine
 10
147.5438850174
 20
149.6384320557
 30
0.0
 11
161.6910449054
 21
149.6384320557
 31
0.0
  0
LINE
  5
16D
330
167
100
AcDbEntity
  8
SLD-0
100
AcDbLine
 10
147.5438850174
 20
130.6384320557
 30
0.0
 11
161.6910449054
 21
130.6384320557
 31
0.0
  0
LINE
  5
16E
330
167
100
AcDbEntity
  8
SLD-0
100
AcDbLine
 10
160.6910449054
 20
149.6384320557
 30
0.0
 11
160.6910449054
 21
155.9884320557
 31
0.0
  0
LINE
  5
16F
330
167
100
AcDbEntity
  8
SLD-0
100
AcDbLine
 10
160.6910449054
 20
149.6384320557
 30
0.0
 11
160.6910449054
 21
130.6384320557
 31
0.0
  0
LINE
  5
170
330
167
100
AcDbEntity
  8
SLD-0
100
AcDbLine
 10
160.6910449054
 20
130.6384320557
 30
0.0
 11
160.6910449054
 21
124.2884320557
 31
0.0
  0
MTEXT
  5
171
330
167
100
AcDbEntity
  8
SLD-0
100
AcDbMText
 10
156.1793079908
 20
129.9532614712
 30
-46.0461406667
 40
3.5
 41
0.0
 71
     1
 72
     1
  1
19
  7
SLDTEXTSTYLE0
 11
-7.044195017643634E-15
 21
1.0
 31
0.0
 73
     1
 44
1.0
  0
MTEXT
  5
172
330
167
100
AcDbEntity
  8
SLD-0
100
AcDbMText
 10
156.1793079908
 20
139.2817340334
 30
-46.0461406667
 40
3.5
 41
0.0
 71
     1
 72
     1
  1
mm
  7
SLDTEXTSTYLE0
 11
-7.044195017643634E-15
 21
1.0
 31
0.0
 73
     1
 44
1.0
  0
ENDBLK
  5
169
330
167
100
AcDbEntity
  8
0
100
AcDbBlockEnd
  0
BLOCK
  5
175
330
174
100
AcDbEntity
  8
0
100
AcDbBlockBegin
  2
_D_6
 70
     0
 10
0.0
 20
0.0
 30
0.0
  3
_D_6
  1

  0
SOLID
  5
177
330
174
100
AcDbEntity
  8
SLD-0
100
AcDbTrace
 10
46.7443378546
 20
220.6384320557
 30
0.0
 11
47.2523378546
 21
223.9404320557
 31
0.0
 12
46.2363378546
 22
223.9404320557
 32
0.0
 13
46.2363378546
 23
223.9404320557
 33
0.0
  0
SOLID
  5
178
330
174
100
AcDbEntity
  8
SLD-0
100
AcDbTrace
 10
46.7443378546
 20
217.6384320557
 30
0.0
 11
46.2363378546
 21
214.3364320557
 31
0.0
 12
47.2523378546
 22
214.3364320557
 32
0.0
 13
47.2523378546
 23
214.3364320557
 33
0.0
  0
LINE
  5
179
330
174
100
AcDbEntity
  8
SLD-0
100
AcDbLine
 10
56.6638850174
 20
220.6384320557
 30
0.0
 11
45.7443378546
 21
220.6384320557
 31
0.0
  0
LINE
  5
17A
330
174
100
AcDbEntity
  8
SLD-0
100
AcDbLine
 10
56.6638850174
 20
217.6384320557
 30
0.0
 11
45.7443378546
 21
217.6384320557
 31
0.0
  0
LINE
  5
17B
330
174
100
AcDbEntity
  8
SLD-0
100
AcDbLine
 10
46.7443378546
 20
220.6384320557
 30
0.0
 11
46.7443378546
 21
226.9884320557
 31
0.0
  0
LINE
  5
17C
330
174
100
AcDbEntity
  8
SLD-0
100
AcDbLine
 10
46.7443378546
 20
220.6384320557
 30
0.0
 11
46.7443378546
 21
217.6384320557
 31
0.0
  0
LINE
  5
17D
330
174
100
AcDbEntity
  8
SLD-0
100
AcDbLine
 10
46.7443378546
 20
217.6384320557
 30
0.0
 11
46.7443378546
 21
211.2884320557
 31
0.0
  0
MTEXT
  5
17E
330
174
100
AcDbEntity
  8
SLD-0
100
AcDbMText
 10
42.2326007654
 20
214.1639797561
 30
-46.0461406667
 40
3.5
 41
0.0
 71
     1
 72
     1
  1
%%c
  7
SLDTEXTSTYLE0
 11
-7.044195017643634E-15
 21
1.0
 31
0.0
 73
     1
 44
1.0
  0
MTEXT
  5
17F
330
174
100
AcDbEntity
  8
SLD-0
100
AcDbMText
 10
42.1791285888
 20
219.4424171545
 30
-46.0461406667
 40
3.5
 41
0.0
 71
     1
 72
     1
  1
3
  7
SLDTEXTSTYLE0
 11
-7.044195017643634E-15
 21
1.0
 31
0.0
 73
     1
 44
1.0
  0
ENDBLK
  5
176
330
174
100
AcDbEntity
  8
0
100
AcDbBlockEnd
  0
BLOCK
  5
182
330
181
100
AcDbEntity
  8
0
100
AcDbBlockBegin
  2
_D_7
 70
     0
 10
0.0
 20
0.0
 30
0.0
  3
_D_7
  1

  0
SOLID
  5
184
330
181
100
AcDbEntity
  8
SLD-0
100
AcDbTrace
 10
54.4638850174
 20
201.2448540623
 30
0.0
 11
57.7658850174
 21
200.7368540623
 31
0.0
 12
57.7658850174
 22
201.7528540623
 32
0.0
 13
57.7658850174
 23
201.7528540623
 33
0.0
  0
SOLID
  5
185
330
181
100
AcDbEntity
  8
SLD-0
100
AcDbTrace
 10
156.0638850174
 20
201.2448540623
 30
0.0
 11
152.7618850174
 21
201.7528540623
 31
0.0
 12
152.7618850174
 22
200.7368540623
 32
0.0
 13
152.7618850174
 23
200.7368540623
 33
0.0
  0
LINE
  5
186
330
181
100
AcDbEntity
  8
SLD-0
100
AcDbLine
 10
54.4638850174
 20
211.8084320557
 30
0.0
 11
54.4638850174
 21
200.2448540623
 31
0.0
  0
LINE
  5
187
330
181
100
AcDbEntity
  8
SLD-0
100
AcDbLine
 10
156.0638850174
 20
211.8084320557
 30
0.0
 11
156.0638850174
 21
200.2448540623
 31
0.0
  0
LINE
  5
188
330
181
100
AcDbEntity
  8
SLD-0
100
AcDbLine
 10
54.4638850174
 20
201.2448540623
 30
0.0
 11
156.0638850174
 21
201.2448540623
 31
0.0
  0
MTEXT
  5
189
330
181
100
AcDbEntity
  8
SLD-0
100
AcDbMText
 10
89.6096397353
 20
205.7565909769
 30
-46.0461406667
 40
3.5
 41
0.0
 71
     1
 72
     1
  1
101.60
  7
SLDTEXTSTYLE0
 73
     1
 44
1.0
  0
MTEXT
  5
18A
330
181
100
AcDbEntity
  8
SLD-0
100
AcDbMText
 10
107.9895013583
 20
205.7565909769
 30
-46.0461406667
 40
3.5
 41
0.0
 71
     1
 72
     1
  1
mm
  7
SLDTEXTSTYLE0
 73
     1
 44
1.0
  0
ENDBLK
  5
183
330
181
100
AcDbEntity
  8
0
100
AcDbBlockEnd
  0
BLOCK
  5
18D
330
18C
100
AcDbEntity
  8
0
100
AcDbBlockBegin
  2
_D_8
 70
     0
 10
0.0
 20
0.0
 30
0.0
  3
_D_8
  1

  0
SOLID
  5
18F
330
18C
100
AcDbEntity
  8
SLD-0
100
AcDbTrace
 10
164.4569785849
 20
228.6384320557
 30
0.0
 11
164.9649785849
 21
231.9404320557
 31
0.0
 12
163.9489785849
 22
231.9404320557
 32
0.0
 13
163.9489785849
 23
231.9404320557
 33
0.0
  0
SOLID
  5
190
330
18C
100
AcDbEntity
  8
SLD-0
100
AcDbTrace
 10
164.4569785849
 20
209.6384320557
 30
0.0
 11
163.9489785849
 21
206.3364320557
 31
0.0
 12
164.9649785849
 22
206.3364320557
 32
0.0
 13
164.9649785849
 23
206.3364320557
 33
0.0
  0
LINE
  5
191
330
18C
100
AcDbEntity
  8
SLD-0
100
AcDbLine
 10
153.8938850174
 20
228.6384320557
 30
0.0
 11
165.4569785849
 21
228.6384320557
 31
0.0
  0
LINE
  5
192
330
18C
100
AcDbEntity
  8
SLD-0
100
AcDbLine
 10
153.8938850174
 20
209.6384320557
 30
0.0
 11
165.4569785849
 21
209.6384320557
 31
0.0
  0
LINE
  5
193
330
18C
100
AcDbEntity
  8
SLD-0
100
AcDbLine
 10
164.4569785849
 20
228.6384320557
 30
0.0
 11
164.4569785849
 21
234.9884320557
 31
0.0
  0
LINE
  5
194
330
18C
100
AcDbEntity
  8
SLD-0
100
AcDbLine
 10
164.4569785849
 20
228.6384320557
 30
0.0
 11
164.4569785849
 21
209.6384320557
 31
0.0
  0
LINE
  5
195
330
18C
100
AcDbEntity
  8
SLD-0
100
AcDbLine
 10
164.4569785849
 20
209.6384320557
 30
0.0
 11
164.4569785849
 21
203.2884320557
 31
0.0
  0
MTEXT
  5
196
330
18C
100
AcDbEntity
  8
SLD-0
100
AcDbMText
 10
159.9452416703
 20
209.6751663065
 30
-46.0461406667
 40
3.5
 41
0.0
 71
     1
 72
     1
  1
19
  7
SLDTEXTSTYLE0
 11
-7.044195017643634E-15
 21
1.0
 31
0.0
 73
     1
 44
1.0
  0
MTEXT
  5
197
330
18C
100
AcDbEntity
  8
SLD-0
100
AcDbMText
 10
159.9452416703
 20
219.0036388686
 30
-46.0461406667
 40
3.5
 41
0.0
 71
     1
 72
     1
  1
mm
  7
SLDTEXTSTYLE0
 11
-7.044195017643634E-15
 21
1.0
 31
0.0
 73
     1
 44
1.0
  0
ENDBLK
  5
18E
330
18C
100
AcDbEntity
  8
0
100
AcDbBlockEnd
  0
BLOCK
  5
19A
330
199
100
AcDbEntity
  8
0
100
AcDbBlockBegin
  2
_D_9
 70
     0
 10
0.0
 20
0.0
 30
0.0
  3
_D_9
  1

  0
SOLID
  5
19C
330
199
100
AcDbEntity
  8
SLD-0
100
AcDbTrace
 10
55.1295502493
 20
227.4119359455
 30
0.0
 11
52.83238513
 21
229.8376936445
 31
0.0
 12
52.209482937
 22
229.0350425012
 32
0.0
 13
52.209482937
 23
229.0350425012
 33
0.0
  0
LINE
  5
19D
330
199
100
AcDbEntity
  8
SLD-0
100
AcDbLine
 10
55.1295502493
 20
227.4119359455
 30
0.0
 11
41.1408900137
 21
238.2679189101
 31
0.0
  0
LINE
  5
19E
330
199
100
AcDbEntity
  8
SLD-0
100
AcDbLine
 10
55.1295502493
 20
227.4119359455
 30
0.0
 11
57.6338850174
 21
225.4684320557
 31
0.0
  0
MTEXT
  5
19F
330
199
100
AcDbEntity
  8
SLD-0
100
AcDbMText
 10
43.8734287091
 20
241.7889778059
 30
-46.0461406667
 40
3.5
 41
0.0
 71
     1
 72
     1
  1
R3.17
  7
SLDTEXTSTYLE0
 11
0.7900109678496662
 21
-0.6130927096918
 31
0.0
 73
     1
 44
1.0
  0
ENDBLK
  5
19B
330
199
100
AcDbEntity
  8
0
100
AcDbBlockEnd
  0
ENDSEC
  0
SECTION
  2
ENTITIES
  0
LINE
  5
9F
330
1F
100
AcDbEntity
  8
0
  6
Continuous
 62
     7
370
     0
100
AcDbLine
 10
106.5493383202
 20
14.1236714055
 30
0.0
 11
203.6275821704
 21
14.1236714055
 31
0.0
  0
LINE
  5
A0
330
1F
100
AcDbEntity
  8
0
  6
Continuous
 62
     7
370
     0
100
AcDbLine
 10
173.4707663102
 20
6.9743255484
 30
0.0
 11
173.4707663102
 21
14.1236714055
 31
0.0
  0
LINE
  5
A1
330
1F
100
AcDbEntity
  8
0
  6
Continuous
 62
     7
370
     0
100
AcDbLine
 10
106.5493383202
 20
21.7338440854
 30
0.0
 11
203.6275821704
 21
21.7338440854
 31
0.0
  0
LINE
  5
A2
330
1F
100
AcDbEntity
  8
0
  6
Continuous
 62
     7
370
     0
100
AcDbLine
 10
173.4707663102
 20
14.1236714055
 30
0.0
 11
173.4707663102
 21
21.7338440854
 31
0.0
  0
LINE
  5
A3
330
1F
100
AcDbEntity
  8
0
  6
Continuous
 62
     7
370
     0
100
AcDbLine
 10
16.4275821704
 20
6.9743255484
 30
0.0
 11
203.6275821704
 21
6.9743255484
 31
0.0
  0
LINE
  5
A4
330
1F
100
AcDbEntity
  8
0
  6
Continuous
 62
     7
370
     0
100
AcDbLine
 10
106.5493383202
 20
62.2243255484
 30
0.0
 11
203.6275821704
 21
62.2243255484
 31
0.0
  0
LINE
  5
A5
330
1F
100
AcDbEntity
  8
0
  6
Continuous
 62
     7
370
     0
100
AcDbLine
 10
106.5493383202
 20
62.2243255484
 30
0.0
 11
106.5493383202
 21
6.9743255484
 31
0.0
  0
LINE
  5
A6
330
1F
100
AcDbEntity
  8
0
  6
Continuous
 62
     7
370
     0
100
AcDbLine
 10
203.6275821704
 20
36.7505957879
 30
0.0
 11
106.5493383202
 21
36.7505957879
 31
0.0
  0
LINE
  5
A7
330
1F
100
AcDbEntity
  8
0
  6
Continuous
 62
     7
370
     0
100
AcDbLine
 10
5.6983796303
 20
293.9743255484
 30
0.0
 11
5.6983796303
 21
6.9743255484
 31
0.0
  0
LINE
  5
A8
330
1F
100
AcDbEntity
  8
0
  6
Continuous
 62
     7
370
     0
100
AcDbLine
 10
5.6983796303
 20
6.9743255484
 30
0.0
 11
16.4275821704
 21
6.9743255484
 31
0.0
  0
LINE
  5
A9
330
1F
100
AcDbEntity
  8
0
  6
Continuous
 62
     7
370
     0
100
AcDbLine
 10
203.6275821704
 20
6.9743255484
 30
0.0
 11
203.6275821704
 21
293.9743255484
 31
0.0
  0
LINE
  5
AA
330
1F
100
AcDbEntity
  8
0
  6
Continuous
 62
     7
370
     0
100
AcDbLine
 10
203.6275821704
 20
293.9743255484
 30
0.0
 11
16.4275821704
 21
293.9743255484
 31
0.0
  0
LINE
  5
AB
330
1F
100
AcDbEntity
  8
0
  6
Continuous
 62
     7
370
     0
100
AcDbLine
 10
16.4275821704
 20
293.9743255484
 30
0.0
 11
5.6983796303
 21
293.9743255484
 31
0.0
  0
INSERT
  5
B5
330
1F
100
AcDbEntity
  8
0
  6
Continuous
 62
     7
370
     0
100
AcDbBlockReference
  2
SW_NOTE_0
 10
11.5817825595
 20
44.673561439
 30
0.0
  0
MTEXT
  5
B6
330
1F
100
AcDbEntity
  8
0
  6
Continuous
 62
     7
370
     0
100
AcDbMText
 10
109.3493138213
 20
11.9465090893
 30
0.0
 40
2.9104166667
 41
0.0
 71
     1
 72
     1
  1
Date: 02/17/2016
  7
SLDTEXTSTYLE0
 73
     1
 44
1.0
  0
INSERT
  5
BC
330
1F
100
AcDbEntity
  8
0
  6
Continuous
 62
     7
370
     0
100
AcDbBlockReference
  2
SW_NOTE_1
 10
124.9132816899
 20
29.0340079851
 30
0.0
  0
MTEXT
  5
BD
330
1F
100
AcDbEntity
  8
0
  6
Continuous
 62
     7
370
     0
100
AcDbMText
 10
179.6516542493
 20
19.62601264
 30
0.0
 40
2.9104166667
 41
0.0
 71
     1
 72
     1
  1
REV: v 0.90
  7
SLDTEXTSTYLE0
 73
     1
 44
1.0
  0
MTEXT
  5
BE
330
1F
100
AcDbEntity
  8
0
  6
Continuous
 62
     7
370
     0
100
AcDbMText
 10
178.9786474074
 20
11.9465090893
 30
0.0
 40
2.9104166667
 41
0.0
 71
     1
 72
     1
  1
SHEET: 1/1
  7
SLDTEXTSTYLE0
 73
     1
 44
1.0
  0
MTEXT
  5
BF
330
1F
100
AcDbEntity
  8
0
  6
Continuous
 62
     7
370
     0
100
AcDbMText
 10
108.6539425623
 20
19.7774464516
 30
0.0
 40
2.9104166667
 41
0.0
 71
     1
 72
     1
  1
Document Number: 2016025
  7
SLDTEXTSTYLE0
 73
     1
 44
1.0
  0
MTEXT
  5
C0
330
1F
100
AcDbEntity
  8
0
  6
Continuous
 62
     7
370
     0
100
AcDbMText
 10
107.7055252568
 20
33.6902270691
 30
0.0
 40
2.9104166667
 41
0.0
 71
     1
 72
     1
  1
TITLE:
  7
SLDTEXTSTYLE0
 73
     1
 44
1.0
  0
CIRCLE
  5
C1
330
1F
100
AcDbEntity
  8
0
  6
Continuous
 62
     7
370
    15
100
AcDbCircle
 10
138.3638850174
 20
219.1384320557
 30
0.0
 40
1.224999999999994
  0
CIRCLE
  5
C2
330
1F
100
AcDbEntity
  8
0
  6
Continuous
 62
     7
370
    15
100
AcDbCircle
 10
80.6638850174
 20
219.1384320557
 30
0.0
 40
1.224999999999994
  0
CIRCLE
  5
C3
330
1F
100
AcDbEntity
  8
0
  6
Continuous
 62
     7
370
    15
100
AcDbCircle
 10
57.6638850174
 20
219.1384320557
 30
0.0
 40
1.700000000000017
  0
CIRCLE
  5
C4
330
1F
100
AcDbEntity
  8
0
  6
Continuous
 62
     7
370
    15
100
AcDbCircle
 10
105.2638850174
 20
214.1384320557
 30
0.0
 40
0.4500000000000171
  0
LINE
  5
C5
330
1F
100
AcDbEntity
  8
0
  6
Continuous
 62
     7
370
    15
100
AcDbLine
 10
155.8639121848
 20
212.8084341885
 30
0.0
 11
155.8639121848
 21
225.4684309364
 31
0.0
  0
ARC
  5
C6
330
1F
100
AcDbEntity
  8
0
  6
Continuous
 62
     7
370
    15
100
AcDbCircle
 10
152.8938850174
 20
212.8084320557
 30
0.0
 40
2.970000000000027
100
AcDbArc
 50
270.0
 51
0.0
  0
LINE
  5
C7
330
1F
100
AcDbEntity
  8
0
  6
Continuous
 62
     7
370
    15
100
AcDbLine
 10
57.6338780719
 20
209.8384315969
 30
0.0
 11
152.8938723403
 21
209.8384315969
 31
0.0
  0
ARC
  5
C8
330
1F
100
AcDbEntity
  8
0
  6
Continuous
 62
     7
370
    15
100
AcDbCircle
 10
57.6338850174
 20
212.8084320557
 30
0.0
 40
2.969999999999999
100
AcDbArc
 50
180.0
 51
270.0
  0
LINE
  5
C9
330
1F
100
AcDbEntity
  8
0
  6
Continuous
 62
     7
370
    15
100
AcDbLine
 10
54.663897832
 20
225.4684309364
 30
0.0
 11
54.663897832
 21
212.8084341885
 31
0.0
  0
ARC
  5
CA
330
1F
100
AcDbEntity
  8
0
  6
Continuous
 62
     7
370
    15
100
AcDbCircle
 10
57.6338850174
 20
225.4684320557
 30
0.0
 40
2.969999999999999
100
AcDbArc
 50
90.0
 51
180.0
  0
LINE
  5
CB
330
1F
100
AcDbEntity
  8
0
  6
Continuous
 62
     7
370
    15
100
AcDbLine
 10
152.8938723403
 20
228.438433528
 30
0.0
 11
57.6338780719
 21
228.438433528
 31
0.0
  0
ARC
  5
CC
330
1F
100
AcDbEntity
  8
0
  6
Continuous
 62
     7
370
    15
100
AcDbCircle
 10
152.8938850174
 20
225.4684320557
 30
0.0
 40
2.970000000000027
100
AcDbArc
 50
0.0
 51
90.0
  0
LINE
  5
CD
330
1F
100
AcDbEntity
  8
0
  6
Continuous
 62
     7
370
    15
100
AcDbLine
 10
93.563885768
 20
214.9384285213
 30
0.0
 11
93.563885768
 21
223.3384291531
 31
0.0
  0
LINE
  5
CE
330
1F
100
AcDbEntity
  8
0
  6
Continuous
 62
     7
370
    15
100
AcDbLine
 10
108.4639144736
 20
214.9384285213
 30
0.0
 11
93.563885768
 21
214.9384285213
 31
0.0
  0
LINE
  5
CF
330
1F
100
AcDbEntity
  8
0
  6
Continuous
 62
     7
370
    15
100
AcDbLine
 10
108.4639144736
 20
223.3384291531
 30
0.0
 11
108.4639144736
 21
214.9384285213
 31
0.0
  0
LINE
  5
D0
330
1F
100
AcDbEntity
  8
0
  6
Continuous
 62
     7
370
    15
100
AcDbLine
 10
93.563885768
 20
223.3384291531
 30
0.0
 11
108.4639144736
 21
223.3384291531
 31
0.0
  0
CIRCLE
  5
D1
330
1F
100
AcDbEntity
  8
0
  6
Continuous
 62
     7
370
    15
100
AcDbCircle
 10
105.2638850174
 20
224.1384320557
 30
0.0
 40
0.4499999999999886
  0
CIRCLE
  5
D2
330
1F
100
AcDbEntity
  8
0
  6
Continuous
 62
     7
370
    15
100
AcDbCircle
 10
72.1638850174
 20
219.1384320557
 30
0.0
 40
1.224999999999994
  0
CIRCLE
  5
D3
330
1F
100
AcDbEntity
  8
0
  6
Continuous
 62
     7
370
    15
100
AcDbCircle
 10
129.8638850174
 20
219.1384320557
 30
0.0
 40
1.224999999999994
  0
CIRCLE
  5
D4
330
1F
100
AcDbEntity
  8
0
  6
Continuous
 62
     7
370
    15
100
AcDbCircle
 10
152.8638850174
 20
219.1384320557
 30
0.0
 40
1.700000000000017
  0
LINE
  5
D5
330
1F
100
AcDbEntity
  8
0
  6
Continuous
 62
     7
370
    15
100
AcDbLine
 10
93.7638891535
 20
215.1384319068
 30
0.0
 11
108.2638812857
 21
215.1384319068
 31
0.0
  0
LWPOLYLINE
  5
D6
330
1F
100
AcDbEntity
  8
0
  6
Continuous
 62
     7
370
    15
100
AcDbPolyline
 90
        9
 70
   128
 43
0.0
 10
108.2638812857
 20
215.1384319068
 10
108.2677555876
 20
215.1345874072
 10
108.2790804702
 20
215.1232103706
 10
108.2976175147
 20
215.1047254802
 10
108.3224726515
 20
215.0798554421
 10
108.3527518111
 20
215.0495464803
 10
108.3873225051
 20
215.0149683357
 10
108.4248734313
 20
214.9774472118
 10
108.4639144736
 20
214.9384285213
  0
LWPOLYLINE
  5
D7
330
1F
100
AcDbEntity
  8
0
  6
Continuous
 62
     7
370
    15
100
AcDbPolyline
 90
       10
 70
   128
 43
0.0
 10
93.7638891535
 20
215.1384319068
 10
93.7608493167
 20
215.1353920699
 10
93.751819213
 20
215.1263694168
 10
93.7370968657
 20
215.111639619
 10
93.7170995074
 20
215.0916422607
 10
93.6924529868
 20
215.0669882895
 10
93.6638725596
 20
215.038430214
 10
93.6322820979
 20
215.0068397523
 10
93.5986054736
 20
214.973163128
 10
93.563885768
 20
214.9384285213
  0
LWPOLYLINE
  5
D8
330
1F
100
AcDbEntity
  8
0
  6
Continuous
 62
     7
370
    15
100
AcDbPolyline
 90
        9
 70
   128
 43
0.0
 10
108.4639144736
 20
223.3384291531
 10
108.4248734313
 20
223.2994104625
 10
108.3873225051
 20
223.2618967892
 10
108.3527518111
 20
223.2273186446
 10
108.3224726515
 20
223.1970096828
 10
108.2976175147
 20
223.1721396447
 10
108.2790804702
 20
223.1536547543
 10
108.2677555876
 20
223.1422777177
 10
108.2638812857
 20
223.1384332181
  0
LINE
  5
D9
330
1F
100
AcDbEntity
  8
0
  6
Continuous
 62
     7
370
    15
100
AcDbLine
 10
108.2638812857
 20
223.1384332181
 30
0.0
 11
93.7638891535
 21
223.1384332181
 31
0.0
  0
LWPOLYLINE
  5
DA
330
1F
100
AcDbEntity
  8
0
  6
Continuous
 62
     7
370
    15
100
AcDbPolyline
 90
        9
 70
   128
 43
0.0
 10
93.563885768
 20
223.3384291531
 10
93.602897008
 20
223.2994104625
 10
93.6404181319
 20
223.2618967892
 10
93.6749888259
 20
223.2273186446
 10
93.7052977877
 20
223.1970096828
 10
93.7301827269
 20
223.1721396447
 10
93.7486601668
 20
223.1536547543
 10
93.760044654
 20
223.1422777177
 10
93.7638891535
 20
223.1384332181
  0
LINE
  5
DB
330
1F
100
AcDbEntity
  8
0
  6
Continuous
 62
     7
370
    15
100
AcDbLine
 10
108.2638812857
 20
215.1384319068
 30
0.0
 11
108.2638812857
 21
223.1384332181
 31
0.0
  0
LINE
  5
DC
330
1F
100
AcDbEntity
  8
0
  6
Continuous
 62
     7
370
    15
100
AcDbLine
 10
152.8938723403
 20
209.8384315969
 30
0.0
 11
152.8938723403
 21
209.6384356619
 31
0.0
  0
LINE
  5
DD
330
1F
100
AcDbEntity
  8
0
  6
Continuous
 62
     7
370
    15
100
AcDbLine
 10
152.8938723403
 20
209.6384356619
 30
0.0
 11
57.6338780719
 21
209.6384356619
 31
0.0
  0
LINE
  5
DE
330
1F
100
AcDbEntity
  8
0
  6
Continuous
 62
     7
370
    15
100
AcDbLine
 10
57.6338780719
 20
209.6384356619
 30
0.0
 11
57.6338780719
 21
209.8384315969
 31
0.0
  0
LINE
  5
DF
330
1F
100
AcDbEntity
  8
0
  6
Continuous
 62
     7
370
    15
100
AcDbLine
 10
155.8639121848
 20
212.8084341885
 30
0.0
 11
156.063885768
 21
212.8084341885
 31
0.0
  0
ARC
  5
E0
330
1F
100
AcDbEntity
  8
0
  6
Continuous
 62
     7
370
    15
100
AcDbCircle
 10
152.8938850174
 20
212.8084320557
 30
0.0
 40
3.169999999999987
100
AcDbArc
 50
270.0
 51
0.0
  0
ARC
  5
E1
330
1F
100
AcDbEntity
  8
0
  6
Continuous
 62
     7
370
    15
100
AcDbCircle
 10
57.6338850174
 20
212.8084320557
 30
0.0
 40
3.169999999999987
100
AcDbArc
 50
180.0
 51
270.0
  0
LINE
  5
E2
330
1F
100
AcDbEntity
  8
0
  6
Continuous
 62
     7
370
    15
100
AcDbLine
 10
54.4638944464
 20
212.8084341885
 30
0.0
 11
54.663897832
 21
212.8084341885
 31
0.0
  0
LINE
  5
E3
330
1F
100
AcDbEntity
  8
0
  6
Continuous
 62
     7
370
    15
100
AcDbLine
 10
155.8639121848
 20
225.4684309364
 30
0.0
 11
156.063885768
 21
225.4684309364
 31
0.0
  0
LINE
  5
E4
330
1F
100
AcDbEntity
  8
0
  6
Continuous
 62
     7
370
    15
100
AcDbLine
 10
156.063885768
 20
225.4684309364
 30
0.0
 11
156.063885768
 21
212.8084341885
 31
0.0
  0
LINE
  5
E5
330
1F
100
AcDbEntity
  8
0
  6
Continuous
 62
     7
370
    15
100
AcDbLine
 10
54.4638944464
 20
212.8084341885
 30
0.0
 11
54.4638944464
 21
225.4684309364
 31
0.0
  0
LINE
  5
E6
330
1F
100
AcDbEntity
  8
0
  6
Continuous
 62
     7
370
    15
100
AcDbLine
 10
54.4638944464
 20
225.4684309364
 30
0.0
 11
54.663897832
 21
225.4684309364
 31
0.0
  0
LINE
  5
E7
330
1F
100
AcDbEntity
  8
0
  6
Continuous
 62
     7
370
    15
100
AcDbLine
 10
152.8938723403
 20
228.438433528
 30
0.0
 11
152.8938723403
 21
228.638429463
 31
0.0
  0
ARC
  5
E8
330
1F
100
AcDbEntity
  8
0
  6
Continuous
 62
     7
370
    15
100
AcDbCircle
 10
152.8938850174
 20
225.4684320557
 30
0.0
 40
3.169999999999987
100
AcDbArc
 50
0.0
 51
90.0
  0
ARC
  5
E9
330
1F
100
AcDbEntity
  8
0
  6
Continuous
 62
     7
370
    15
100
AcDbCircle
 10
57.6338850174
 20
225.4684320557
 30
0.0
 40
3.169999999999959
100
AcDbArc
 50
90.0
 51
180.0
  0
LINE
  5
EA
330
1F
100
AcDbEntity
  8
0
  6
Continuous
 62
     7
370
    15
100
AcDbLine
 10
57.6338780719
 20
228.638429463
 30
0.0
 11
57.6338780719
 21
228.438433528
 31
0.0
  0
CIRCLE
  5
EB
330
1F
100
AcDbEntity
  8
0
  6
Continuous
 62
     7
370
    15
100
AcDbCircle
 10
152.8638850174
 20
219.1384320557
 30
0.0
 40
1.5
  0
CIRCLE
  5
EC
330
1F
100
AcDbEntity
  8
0
  6
Continuous
 62
     7
370
    15
100
AcDbCircle
 10
129.8638850174
 20
219.1384320557
 30
0.0
 40
1.025000000000006
  0
CIRCLE
  5
ED
330
1F
100
AcDbEntity
  8
0
  6
Continuous
 62
     7
370
    15
100
AcDbCircle
 10
72.1638850174
 20
219.1384320557
 30
0.0
 40
1.025000000000006
  0
CIRCLE
  5
EE
330
1F
100
AcDbEntity
  8
0
  6
Continuous
 62
     7
370
    15
100
AcDbCircle
 10
105.2638850174
 20
224.1384320557
 30
0.0
 40
0.25
  0
LINE
  5
EF
330
1F
100
AcDbEntity
  8
0
  6
Continuous
 62
     7
370
    15
100
AcDbLine
 10
93.7638891535
 20
223.1384332181
 30
0.0
 11
93.7638891535
 21
215.1384319068
 31
0.0
  0
LINE
  5
F0
330
1F
100
AcDbEntity
  8
0
  6
Continuous
 62
     7
370
    15
100
AcDbLine
 10
57.6338780719
 20
228.638429463
 30
0.0
 11
152.8938723403
 21
228.638429463
 31
0.0
  0
CIRCLE
  5
F1
330
1F
100
AcDbEntity
  8
0
  6
Continuous
 62
     7
370
    15
100
AcDbCircle
 10
105.2638850174
 20
214.1384320557
 30
0.0
 40
0.25
  0
CIRCLE
  5
F2
330
1F
100
AcDbEntity
  8
0
  6
Continuous
 62
     7
370
    15
100
AcDbCircle
 10
57.6638850174
 20
219.1384320557
 30
0.0
 40
1.5
  0
CIRCLE
  5
F3
330
1F
100
AcDbEntity
  8
0
  6
Continuous
 62
     7
370
    15
100
AcDbCircle
 10
80.6638850174
 20
219.1384320557
 30
0.0
 40
1.025000000000006
  0
CIRCLE
  5
F4
330
1F
100
AcDbEntity
  8
0
  6
Continuous
 62
     7
370
    15
100
AcDbCircle
 10
138.3638850174
 20
219.1384320557
 30
0.0
 40
1.025000000000006
  0
CIRCLE
  5
F5
330
1F
100
AcDbEntity
  8
0
  6
Continuous
 62
     7
370
    15
100
AcDbCircle
 10
105.2638850174
 20
145.1384320557
 30
0.0
 40
0.4500000000000171
  0
CIRCLE
  5
F6
330
1F
100
AcDbEntity
  8
0
  6
Continuous
 62
     7
370
    15
100
AcDbCircle
 10
146.5138850174
 20
140.1384320557
 30
0.0
 40
1.699999999999989
  0
CIRCLE
  5
F7
330
1F
100
AcDbEntity
  8
0
  6
Continuous
 62
     7
370
    15
100
AcDbCircle
 10
127.3138850174
 20
140.1384320557
 30
0.0
 40
1.224999999999994
  0
CIRCLE
  5
F8
330
1F
100
AcDbEntity
  8
0
  6
Continuous
 62
     7
370
    15
100
AcDbCircle
 10
74.7138850174
 20
140.1384320557
 30
0.0
 40
1.224999999999994
  0
LINE
  5
F9
330
1F
100
AcDbEntity
  8
0
  6
Continuous
 62
     7
370
    15
100
AcDbLine
 10
149.513871749
 20
133.8084319496
 30
0.0
 11
149.513871749
 21
146.4684319572
 31
0.0
  0
ARC
  5
FA
330
1F
100
AcDbEntity
  8
0
  6
Continuous
 62
     7
370
    15
100
AcDbCircle
 10
146.5438850174
 20
133.8084320557
 30
0.0
 40
2.970000000000027
100
AcDbArc
 50
270.0
 51
0.0
  0
LINE
  5
FB
330
1F
100
AcDbEntity
  8
0
  6
Continuous
 62
     7
370
    15
100
AcDbLine
 10
63.9838887053
 20
130.8384321519
 30
0.0
 11
146.5438915091
 21
130.8384321519
 31
0.0
  0
ARC
  5
FC
330
1F
100
AcDbEntity
  8
0
  6
Continuous
 62
     7
370
    15
100
AcDbCircle
 10
63.9838850174
 20
133.8084320557
 30
0.0
 40
2.970000000000027
100
AcDbArc
 50
180.0
 51
270.0
  0
LINE
  5
FD
330
1F
100
AcDbEntity
  8
0
  6
Continuous
 62
     7
370
    15
100
AcDbLine
 10
61.0138786631
 20
146.4684319572
 30
0.0
 11
61.0138786631
 21
133.8084319496
 31
0.0
  0
ARC
  5
FE
330
1F
100
AcDbEntity
  8
0
  6
Continuous
 62
     7
370
    15
100
AcDbCircle
 10
63.9838850174
 20
146.4684320557
 30
0.0
 40
2.970000000000027
100
AcDbArc
 50
90.0
 51
180.0
  0
LINE
  5
FF
330
1F
100
AcDbEntity
  8
0
  6
Continuous
 62
     7
370
    15
100
AcDbLine
 10
146.5438915091
 20
149.4384317548
 30
0.0
 11
63.9838887053
 21
149.4384317548
 31
0.0
  0
ARC
  5
100
330
1F
100
AcDbEntity
  8
0
  6
Continuous
 62
     7
370
    15
100
AcDbCircle
 10
146.5438850174
 20
146.4684320557
 30
0.0
 40
2.970000000000027
100
AcDbArc
 50
0.0
 51
90.0
  0
CIRCLE
  5
101
330
1F
100
AcDbEntity
  8
0
  6
Continuous
 62
     7
370
    15
100
AcDbCircle
 10
64.0138850174
 20
140.1384320557
 30
0.0
 40
1.699999999999989
  0
CIRCLE
  5
102
330
1F
100
AcDbEntity
  8
0
  6
Continuous
 62
     7
370
    15
100
AcDbCircle
 10
83.2138850174
 20
140.1384320557
 30
0.0
 40
1.224999999999994
  0
CIRCLE
  5
103
330
1F
100
AcDbEntity
  8
0
  6
Continuous
 62
     7
370
    15
100
AcDbCircle
 10
135.8138850174
 20
140.1384320557
 30
0.0
 40
1.224999999999994
  0
LINE
  5
104
330
1F
100
AcDbEntity
  8
0
  6
Continuous
 62
     7
370
    15
100
AcDbLine
 10
93.563885768
 20
144.3384320364
 30
0.0
 11
108.4639144736
 21
144.3384320364
 31
0.0
  0
LINE
  5
105
330
1F
100
AcDbEntity
  8
0
  6
Continuous
 62
     7
370
    15
100
AcDbLine
 10
93.563885768
 20
135.9384321031
 30
0.0
 11
93.563885768
 21
144.3384320364
 31
0.0
  0
LINE
  5
106
330
1F
100
AcDbEntity
  8
0
  6
Continuous
 62
     7
370
    15
100
AcDbLine
 10
108.4639144736
 20
135.9384321031
 30
0.0
 11
93.563885768
 21
135.9384321031
 31
0.0
  0
LINE
  5
107
330
1F
100
AcDbEntity
  8
0
  6
Continuous
 62
     7
370
    15
100
AcDbLine
 10
108.4639144736
 20
144.3384320364
 30
0.0
 11
108.4639144736
 21
135.9384321031
 31
0.0
  0
CIRCLE
  5
108
330
1F
100
AcDbEntity
  8
0
  6
Continuous
 62
     7
370
    15
100
AcDbCircle
 10
105.2638850174
 20
135.1384320557
 30
0.0
 40
0.4499999999999602
  0
CIRCLE
  5
109
330
1F
100
AcDbEntity
  8
0
  6
Continuous
 62
     7
370
    15
100
AcDbCircle
 10
135.8138850174
 20
140.1384320557
 30
0.0
 40
1.025000000000006
  0
CIRCLE
  5
10A
330
1F
100
AcDbEntity
  8
0
  6
Continuous
 62
     7
370
    15
100
AcDbCircle
 10
83.2138850174
 20
140.1384320557
 30
0.0
 40
1.025000000000006
  0
CIRCLE
  5
10B
330
1F
100
AcDbEntity
  8
0
  6
Continuous
 62
     7
370
    15
100
AcDbCircle
 10
64.0138850174
 20
140.1384320557
 30
0.0
 40
1.500000000000028
  0
LINE
  5
10C
330
1F
100
AcDbEntity
  8
0
  6
Continuous
 62
     7
370
    15
100
AcDbLine
 10
146.5438915091
 20
130.8384321519
 30
0.0
 11
146.5438915091
 21
130.638432026
 31
0.0
  0
LINE
  5
10D
330
1F
100
AcDbEntity
  8
0
  6
Continuous
 62
     7
370
    15
100
AcDbLine
 10
146.5438915091
 20
130.638432026
 30
0.0
 11
63.9838887053
 21
130.638432026
 31
0.0
  0
LINE
  5
10E
330
1F
100
AcDbEntity
  8
0
  6
Continuous
 62
     7
370
    15
100
AcDbLine
 10
63.9838887053
 20
130.638432026
 30
0.0
 11
63.9838887053
 21
130.8384321519
 31
0.0
  0
LINE
  5
10F
330
1F
100
AcDbEntity
  8
0
  6
Continuous
 62
     7
370
    15
100
AcDbLine
 10
149.513871749
 20
133.8084319496
 30
0.0
 11
149.7139049369
 21
133.8084319496
 31
0.0
  0
ARC
  5
110
330
1F
100
AcDbEntity
  8
0
  6
Continuous
 62
     7
370
    15
100
AcDbCircle
 10
146.5438850174
 20
133.8084320557
 30
0.0
 40
3.169999999999987
100
AcDbArc
 50
270.0
 51
0.0
  0
ARC
  5
111
330
1F
100
AcDbEntity
  8
0
  6
Continuous
 62
     7
370
    15
100
AcDbCircle
 10
63.9838850174
 20
133.8084320557
 30
0.0
 40
3.170000000000002
100
AcDbArc
 50
180.0
 51
270.0
  0
LINE
  5
112
330
1F
100
AcDbEntity
  8
0
  6
Continuous
 62
     7
370
    15
100
AcDbLine
 10
60.8138752776
 20
133.8084319496
 30
0.0
 11
61.0138786631
 21
133.8084319496
 31
0.0
  0
LINE
  5
113
330
1F
100
AcDbEntity
  8
0
  6
Continuous
 62
     7
370
    15
100
AcDbLine
 10
149.513871749
 20
146.4684319572
 30
0.0
 11
149.7139049369
 21
146.4684319572
 31
0.0
  0
LINE
  5
114
330
1F
100
AcDbEntity
  8
0
  6
Continuous
 62
     7
370
    15
100
AcDbLine
 10
149.7139049369
 20
146.4684319572
 30
0.0
 11
149.7139049369
 21
133.8084319496
 31
0.0
  0
LINE
  5
115
330
1F
100
AcDbEntity
  8
0
  6
Continuous
 62
     7
370
    15
100
AcDbLine
 10
60.8138752776
 20
133.8084319496
 30
0.0
 11
60.8138752776
 21
146.4684319572
 31
0.0
  0
LINE
  5
116
330
1F
100
AcDbEntity
  8
0
  6
Continuous
 62
     7
370
    15
100
AcDbLine
 10
60.8138752776
 20
146.4684319572
 30
0.0
 11
61.0138786631
 21
146.4684319572
 31
0.0
  0
LINE
  5
117
330
1F
100
AcDbEntity
  8
0
  6
Continuous
 62
     7
370
    15
100
AcDbLine
 10
146.5438915091
 20
149.4384317548
 30
0.0
 11
146.5438915091
 21
149.6384323464
 31
0.0
  0
ARC
  5
118
330
1F
100
AcDbEntity
  8
0
  6
Continuous
 62
     7
370
    15
100
AcDbCircle
 10
146.5438850174
 20
146.4684320557
 30
0.0
 40
3.170000000000016
100
AcDbArc
 50
0.0
 51
90.0
  0
LINE
  5
119
330
1F
100
AcDbEntity
  8
0
  6
Continuous
 62
     7
370
    15
100
AcDbLine
 10
93.7638891535
 20
136.1384321126
 30
0.0
 11
108.2638812857
 21
136.1384321126
 31
0.0
  0
LWPOLYLINE
  5
11A
330
1F
100
AcDbEntity
  8
0
  6
Continuous
 62
     7
370
    15
100
AcDbPolyline
 90
        9
 70
   128
 43
0.0
 10
108.4639144736
 20
135.9384321031
 10
108.4248734313
 20
135.9774500952
 10
108.3873225051
 20
136.0149687744
 10
108.3527518111
 20
136.049546104
 10
108.3224726515
 20
136.0798534361
 10
108.2976175147
 20
136.1047260352
 10
108.2790804702
 20
136.1232080153
 10
108.2677555876
 20
136.1345891264
 10
108.2638812857
 20
136.1384321126
  0
LWPOLYLINE
  5
11B
330
1F
100
AcDbEntity
  8
0
  6
Continuous
 62
     7
370
    15
100
AcDbPolyline
 90
        9
 70
   128
 43
0.0
 10
93.7638891535
 20
136.1384321126
 10
93.760044654
 20
136.1345891264
 10
93.7486601668
 20
136.1232080153
 10
93.7301827269
 20
136.1047260352
 10
93.7052977877
 20
136.0798534361
 10
93.6749888259
 20
136.049546104
 10
93.6404181319
 20
136.0149687744
 10
93.602897008
 20
135.9774500952
 10
93.563885768
 20
135.9384321031
  0
CIRCLE
  5
11C
330
1F
100
AcDbEntity
  8
0
  6
Continuous
 62
     7
370
    15
100
AcDbCircle
 10
105.2638850174
 20
145.1384320557
 30
0.0
 40
0.25
  0
LINE
  5
11D
330
1F
100
AcDbEntity
  8
0
  6
Continuous
 62
     7
370
    15
100
AcDbLine
 10
108.2638812857
 20
144.1384319105
 30
0.0
 11
93.7638891535
 21
144.1384319105
 31
0.0
  0
LWPOLYLINE
  5
11E
330
1F
100
AcDbEntity
  8
0
  6
Continuous
 62
     7
370
    15
100
AcDbPolyline
 90
       10
 70
   128
 43
0.0
 10
93.7638891535
 20
144.1384319105
 10
93.7608493167
 20
144.1414703504
 10
93.751819213
 20
144.1504934692
 10
93.7370968657
 20
144.1652269923
 10
93.7170995074
 20
144.1852229537
 10
93.6924529868
 20
144.2098745965
 10
93.6638725596
 20
144.2384322063
 10
93.6322820979
 20
144.270028256
 10
93.5986054736
 20
144.303702552
 10
93.563885768
 20
144.3384320364
  0
LWPOLYLINE
  5
11F
330
1F
100
AcDbEntity
  8
0
  6
Continuous
 62
     7
370
    15
100
AcDbPolyline
 90
        9
 70
   128
 43
0.0
 10
108.4639144736
 20
144.3384320364
 10
108.4248734313
 20
144.2994138115
 10
108.3873225051
 20
144.2618954816
 10
108.3527518111
 20
144.2273178027
 10
108.3224726515
 20
144.1970107035
 10
108.2976175147
 20
144.1721383371
 10
108.2790804702
 20
144.1536562407
 10
108.2677555876
 20
144.1422750131
 10
108.2638812857
 20
144.1384319105
  0
ARC
  5
120
330
1F
100
AcDbEntity
  8
0
  6
Continuous
 62
     7
370
    15
100
AcDbCircle
 10
63.9838850174
 20
146.4684320557
 30
0.0
 40
3.170000000000016
100
AcDbArc
 50
90.0
 51
180.0
  0
LINE
  5
121
330
1F
100
AcDbEntity
  8
0
  6
Continuous
 62
     7
370
    15
100
AcDbLine
 10
63.9838887053
 20
149.6384323464
 30
0.0
 11
63.9838887053
 21
149.4384317548
 31
0.0
  0
CIRCLE
  5
122
330
1F
100
AcDbEntity
  8
0
  6
Continuous
 62
     7
370
    15
100
AcDbCircle
 10
105.2638850174
 20
135.1384320557
 30
0.0
 40
0.2499999999999716
  0
CIRCLE
  5
123
330
1F
100
AcDbEntity
  8
0
  6
Continuous
 62
     7
370
    15
100
AcDbCircle
 10
146.5138850174
 20
140.1384320557
 30
0.0
 40
1.500000000000028
  0
LINE
  5
124
330
1F
100
AcDbEntity
  8
0
  6
Continuous
 62
     7
370
    15
100
AcDbLine
 10
93.7638891535
 20
144.1384319105
 30
0.0
 11
93.7638891535
 21
136.1384321126
 31
0.0
  0
LINE
  5
125
330
1F
100
AcDbEntity
  8
0
  6
Continuous
 62
     7
370
    15
100
AcDbLine
 10
108.2638812857
 20
136.1384321126
 30
0.0
 11
108.2638812857
 21
144.1384319105
 31
0.0
  0
CIRCLE
  5
126
330
1F
100
AcDbEntity
  8
0
  6
Continuous
 62
     7
370
    15
100
AcDbCircle
 10
127.3138850174
 20
140.1384320557
 30
0.0
 40
1.025000000000006
  0
LINE
  5
127
330
1F
100
AcDbEntity
  8
0
  6
Continuous
 62
     7
370
    15
100
AcDbLine
 10
63.9838887053
 20
149.6384323464
 30
0.0
 11
146.5438915091
 21
149.6384323464
 31
0.0
  0
CIRCLE
  5
128
330
1F
100
AcDbEntity
  8
0
  6
Continuous
 62
     7
370
    15
100
AcDbCircle
 10
74.7138850174
 20
140.1384320557
 30
0.0
 40
1.025000000000006
  0
LINE
  5
129
330
1F
100
AcDbEntity
  8
0
  6
CENTERX2
 62
     7
370
     0
100
AcDbLine
 10
57.6638850174
 20
219.1384320557
 30
0.0
 11
57.6638850174
 21
230.7677255914
 31
0.0
  0
LINE
  5
12A
330
1F
100
AcDbEntity
  8
0
  6
CENTERX2
 62
     7
370
     0
100
AcDbLine
 10
152.8638850174
 20
219.1384320557
 30
0.0
 11
152.8638850174
 21
230.7677255914
 31
0.0
  0
LINE
  5
12B
330
1F
100
AcDbEntity
  8
0
  6
CENTERX2
 62
     7
370
     0
100
AcDbLine
 10
64.0138850174
 20
140.1384320557
 30
0.0
 11
64.0138850174
 21
153.2699986591
 31
0.0
  0
LINE
  5
12C
330
1F
100
AcDbEntity
  8
0
  6
CENTERX2
 62
     7
370
     0
100
AcDbLine
 10
146.5138850174
 20
140.1384320557
 30
0.0
 11
146.5138850174
 21
154.9170544223
 31
0.0
  0
DIMENSION
  5
12D
330
1F
100
AcDbEntity
  8
SLD-0
100
AcDbDimension
  2
_D
 10
146.5138850174
 20
157.3810057702
 30
0.0
 11
109.1898100673
 21
157.3810057702
 31
0.0
 70
   160
  1
<> mm
 71
     2
 42
-1.0
  3
SLDDIMSTYLE0
100
AcDbAlignedDimension
 13
64.0138850174
 23
153.2699986591
 33
0.0
 14
146.5138850174
 24
154.9170544223
 34
0.0
100
AcDbRotatedDimension
  0
DIMENSION
  5
139
330
1F
100
AcDbEntity
  8
SLD-0
100
AcDbDimension
  2
_D_1
 10
152.8638850174
 20
238.6384320557
 30
0.0
 11
103.1648479564
 21
238.6384320557
 31
0.0
 70
   160
  1
<> mm
 71
     2
 42
-1.0
  3
SLDDIMSTYLE0
100
AcDbAlignedDimension
 13
57.6638850174
 23
230.7677255914
 33
0.0
 14
152.8638850174
 24
230.7677255914
 34
0.0
100
AcDbRotatedDimension
  0
DIMENSION
  5
144
330
1F
100
AcDbEntity
  8
SLD-0
100
AcDbDimension
  2
_D_2
 10
51.7386067205
 20
138.6384320557
 30
0.0
 11
51.7386067205
 21
138.9827756275
 31
0.0
 70
   160
  1
%%c<>
 71
     2
 42
-1.0
  3
SLDDIMSTYLE1
100
AcDbAlignedDimension
 13
64.0138850174
 23
141.6384320557
 33
0.0
 14
64.0138850174
 24
138.6384320557
 34
0.0
 50
90.0
100
AcDbRotatedDimension
  0
DIMENSION
  5
152
330
1F
100
AcDbEntity
  8
SLD-0
100
AcDbDimension
  2
_D_3
 10
63.9838850174
 20
146.4684320557
 30
0.0
 11
51.7386167205
 21
153.5382567768
 31
0.0
 70
   164
  1
<>
 71
     1
 42
-1.0
  3
SLDDIMSTYLE2
100
AcDbRadialDimension
 15
61.2385844874
 25
148.0534320557
 35
0.0
 40
0.0
  0
DIMENSION
  5
15B
330
1F
100
AcDbEntity
  8
SLD-0
100
AcDbDimension
  2
_D_4
 10
149.7138850174
 20
120.6384320557
 30
0.0
 11
109.1898100673
 21
120.6384320557
 31
0.0
 70
   160
  1
<> mm
 71
     2
 42
-1.0
  3
SLDDIMSTYLE0
100
AcDbAlignedDimension
 13
60.8138850174
 23
133.8084320557
 33
0.0
 14
149.7138850174
 24
133.8084320557
 34
0.0
100
AcDbRotatedDimension
  0
DIMENSION
  5
166
330
1F
100
AcDbEntity
  8
SLD-0
100
AcDbDimension
  2
_D_5
 10
160.6910449054
 20
130.6384320557
 30
0.0
 11
160.6910449054
 21
138.9827756275
 31
0.0
 70
   160
  1
<> mm
 71
     2
 42
-1.0
  3
SLDDIMSTYLE1
100
AcDbAlignedDimension
 13
146.5438850174
 23
149.6384320557
 33
0.0
 14
146.5438850174
 24
130.6384320557
 34
0.0
 50
90.0
100
AcDbRotatedDimension
  0
DIMENSION
  5
173
330
1F
100
AcDbEntity
  8
SLD-0
100
AcDbDimension
  2
_D_6
 10
46.7443378546
 20
217.6384320557
 30
0.0
 11
46.7443378546
 21
219.5181290232
 31
0.0
 70
   160
  1
%%c<>
 71
     2
 42
-1.0
  3
SLDDIMSTYLE1
100
AcDbAlignedDimension
 13
57.6638850174
 23
220.6384320557
 33
0.0
 14
57.6638850174
 24
217.6384320557
 34
0.0
 50
90.0
100
AcDbRotatedDimension
  0
DIMENSION
  5
180
330
1F
100
AcDbEntity
  8
SLD-0
100
AcDbDimension
  2
_D_7
 10
156.0638850174
 20
201.2448540623
 30
0.0
 11
103.1648479564
 21
201.2448540623
 31
0.0
 70
   160
  1
<> mm
 71
     2
 42
-1.0
  3
SLDDIMSTYLE0
100
AcDbAlignedDimension
 13
54.4638850174
 23
212.8084320557
 33
0.0
 14
156.0638850174
 24
212.8084320557
 34
0.0
100
AcDbRotatedDimension
  0
DIMENSION
  5
18B
330
1F
100
AcDbEntity
  8
SLD-0
100
AcDbDimension
  2
_D_8
 10
164.4569785849
 20
209.6384320557
 30
0.0
 11
164.4569785849
 21
218.7046804627
 31
0.0
 70
   160
  1
<> mm
 71
     2
 42
-1.0
  3
SLDDIMSTYLE1
100
AcDbAlignedDimension
 13
152.8938850174
 23
228.6384320557
 33
0.0
 14
152.8938850174
 24
209.6384320557
 34
0.0
 50
90.0
100
AcDbRotatedDimension
  0
DIMENSION
  5
198
330
1F
100
AcDbEntity
  8
SLD-0
100
AcDbDimension
  2
_D_9
 10
57.6338850174
 20
225.4684320557
 30
0.0
 11
46.7443478546
 21
233.9193398901
 31
0.0
 70
   164
  1
<>
 71
     1
 42
-1.0
  3
SLDDIMSTYLE2
100
AcDbRadialDimension
 15
55.1295502493
 25
227.4119359455
 35
0.0
 40
0.0
  0
MTEXT
  5
1A0
330
1F
100
AcDbEntity
  8
SLD-0
100
AcDbMText
 10
83.5867207659
 20
195.4993184857
 30
0.0
 40
3.5
 41
0.0
 71
     1
 72
     1
  1
XR8 Half Soapbar
  7
SLDTEXTSTYLE0
 73
     1
 44
1.0
  0
MTEXT
  5
1A1
330
1F
100
AcDbEntity
  8
SLD-0
100
AcDbMText
 10
88.7684825302
 20
115.2332748487
 30
0.0
 40
3.5
 41
0.0
 71
     1
 72
     1
  1
XR7 Half Soapbar
  7
SLDTEXTSTYLE0
 73
     1
 44
1.0
  0
LINE
  5
1A2
330
1F
100
AcDbEntity
  8
LAYER_1
100
AcDbLine
 10
133.5293613299
 20
44.2753867089
 30
0.0
 11
120.3108744625
 21
44.2753867089
 31
0.0
  0
LINE
  5
1A3
330
1F
100
AcDbEntity
  8
LAYER_1
100
AcDbLine
 10
115.3323669768
 20
47.2774429148
 30
0.0
 11
115.3323669768
 21
49.5822117944
 31
0.0
  0
LINE
  5
1A4
330
1F
100
AcDbEntity
  8
LAYER_1
100
AcDbLine
 10
120.3108744625
 20
52.5842680002
 30
0.0
 11
133.5293613299
 21
52.5842680002
 31
0.0
  0
LINE
  5
1A5
330
1F
100
AcDbEntity
  8
LAYER_1
100
AcDbLine
 10
133.5293613299
 20
52.5842680002
 30
0.0
 11
133.5293613299
 21
50.1072443463
 31
0.0
  0
LINE
  5
1A6
330
1F
100
AcDbEntity
  8
LAYER_1
100
AcDbLine
 10
133.5293613299
 20
50.1072443463
 30
0.0
 11
120.3108744625
 21
50.1072443463
 31
0.0
  0
LINE
  5
1A7
330
1F
100
AcDbEntity
  8
LAYER_1
100
AcDbLine
 10
117.8097351402
 20
48.9434910914
 30
0.0
 11
117.8097351402
 21
47.9158191082
 31
0.0
  0
LINE
  5
1A8
330
1F
100
AcDbEntity
  8
LAYER_1
100
AcDbLine
 10
120.3108744625
 20
46.7524103628
 30
0.0
 11
133.5293613299
 21
46.7524103628
 31
0.0
  0
LINE
  5
1A9
330
1F
100
AcDbEntity
  8
LAYER_1
100
AcDbLine
 10
133.5293613299
 20
46.7524103628
 30
0.0
 11
133.5293613299
 21
44.2753867089
 31
0.0
  0
LINE
  5
1AA
330
1F
100
AcDbEntity
  8
LAYER_1
100
AcDbLine
 10
148.2509433575
 20
44.2753867089
 30
0.0
 11
144.3152662751
 21
44.2753867089
 31
0.0
  0
LINE
  5
1AB
330
1F
100
AcDbEntity
  8
LAYER_1
100
AcDbLine
 10
144.3152662751
 20
44.2753867089
 30
0.0
 11
144.3152662751
 21
46.7520658533
 31
0.0
  0
LINE
  5
1AC
330
1F
100
AcDbEntity
  8
LAYER_1
100
AcDbLine
 10
144.3152662751
 20
46.7520658533
 30
0.0
 11
148.2509433575
 21
46.7520658533
 31
0.0
  0
LINE
  5
1AD
330
1F
100
AcDbEntity
  8
LAYER_1
100
AcDbLine
 10
134.680023222
 20
52.5842680002
 30
0.0
 11
137.1567023663
 21
52.5842680002
 31
0.0
  0
LINE
  5
1AE
330
1F
100
AcDbEntity
  8
LAYER_1
100
AcDbLine
 10
137.1567023663
 20
52.5842680002
 30
0.0
 11
137.1567023663
 21
51.0691150058
 31
0.0
  0
LINE
  5
1AF
330
1F
100
AcDbEntity
  8
LAYER_1
100
AcDbLine
 10
139.2947286245
 20
50.2457371848
 30
0.0
 11
150.7520826797
 21
50.2457371848
 31
0.0
  0
LINE
  5
1B0
330
1F
100
AcDbEntity
  8
LAYER_1
100
AcDbLine
 10
150.7520826797
 20
50.2457371848
 30
0.0
 11
150.7520826797
 21
52.5842680002
 31
0.0
  0
LINE
  5
1B1
330
1F
100
AcDbEntity
  8
LAYER_1
100
AcDbLine
 10
150.7520826797
 20
52.5842680002
 30
0.0
 11
153.2291063336
 21
52.5842680002
 31
0.0
  0
LINE
  5
1B2
330
1F
100
AcDbEntity
  8
LAYER_1
100
AcDbLine
 10
153.2291063336
 20
52.5842680002
 30
0.0
 11
153.2291063336
 21
47.6302206924
 31
0.0
  0
LINE
  5
1B3
330
1F
100
AcDbEntity
  8
LAYER_1
100
AcDbLine
 10
194.7991787516
 20
44.2753867089
 30
0.0
 11
192.3221550977
 21
44.2753867089
 31
0.0
  0
LINE
  5
1B4
330
1F
100
AcDbEntity
  8
LAYER_1
100
AcDbLine
 10
192.3221550977
 20
44.2753867089
 30
0.0
 11
192.3221550977
 21
52.5842680002
 31
0.0
  0
LINE
  5
1B5
330
1F
100
AcDbEntity
  8
LAYER_1
100
AcDbLine
 10
192.3221550977
 20
52.5842680002
 30
0.0
 11
194.7991787516
 21
52.5842680002
 31
0.0
  0
LINE
  5
1B6
330
1F
100
AcDbEntity
  8
LAYER_1
100
AcDbLine
 10
194.7991787516
 20
52.5842680002
 30
0.0
 11
194.7991787516
 21
44.2753867089
 31
0.0
  0
LINE
  5
1B7
330
1F
100
AcDbEntity
  8
LAYER_1
100
AcDbLine
 10
172.5762458145
 20
44.2753867089
 30
0.0
 11
159.3574144376
 21
44.2753867089
 31
0.0
  0
LINE
  5
1B8
330
1F
100
AcDbEntity
  8
LAYER_1
100
AcDbLine
 10
154.3790792066
 20
47.2774429148
 30
0.0
 11
154.3790792066
 21
49.5822117944
 31
0.0
  0
LINE
  5
1B9
330
1F
100
AcDbEntity
  8
LAYER_1
100
AcDbLine
 10
159.3574144376
 20
52.5842680002
 30
0.0
 11
172.5762458145
 21
52.5842680002
 31
0.0
  0
LINE
  5
1BA
330
1F
100
AcDbEntity
  8
LAYER_1
100
AcDbLine
 10
172.5762458145
 20
52.5842680002
 30
0.0
 11
172.5762458145
 21
50.1072443463
 31
0.0
  0
LINE
  5
1BB
330
1F
100
AcDbEntity
  8
LAYER_1
100
AcDbLine
 10
172.5762458145
 20
50.1072443463
 30
0.0
 11
159.3574144376
 21
50.1072443463
 31
0.0
  0
LINE
  5
1BC
330
1F
100
AcDbEntity
  8
LAYER_1
100
AcDbLine
 10
156.8562751153
 20
48.9434910914
 30
0.0
 11
156.8562751153
 21
48.2685968859
 31
0.0
  0
LINE
  5
1BD
330
1F
100
AcDbEntity
  8
LAYER_1
100
AcDbLine
 10
159.3574144376
 20
46.7524103628
 30
0.0
 11
172.5762458145
 21
46.7524103628
 31
0.0
  0
LINE
  5
1BE
330
1F
100
AcDbEntity
  8
LAYER_1
100
AcDbLine
 10
172.5762458145
 20
46.7524103628
 30
0.0
 11
172.5762458145
 21
44.2753867089
 31
0.0
  0
LINE
  5
1BF
330
1F
100
AcDbEntity
  8
LAYER_1
100
AcDbLine
 10
173.7386210312
 20
52.5842680002
 30
0.0
 11
191.2169684661
 21
52.5842680002
 31
0.0
  0
LINE
  5
1C0
330
1F
100
AcDbEntity
  8
LAYER_1
100
AcDbLine
 10
191.2169684661
 20
52.5842680002
 30
0.0
 11
191.2169684661
 21
50.1075888559
 31
0.0
  0
LINE
  5
1C1
330
1F
100
AcDbEntity
  8
LAYER_1
100
AcDbLine
 10
191.2169684661
 20
50.1075888559
 30
0.0
 11
176.2156446851
 21
50.1075888559
 31
0.0
  0
LINE
  5
1C2
330
1F
100
AcDbEntity
  8
LAYER_1
100
AcDbLine
 10
176.2156446851
 20
50.1075888559
 30
0.0
 11
176.1949741122
 21
49.141411827
 31
0.0
  0
LINE
  5
1C3
330
1F
100
AcDbEntity
  8
LAYER_1
100
AcDbLine
 10
176.1949741122
 20
49.141411827
 30
0.0
 11
185.8522657764
 21
49.1341771265
 31
0.0
  0
LINE
  5
1C4
330
1F
100
AcDbEntity
  8
LAYER_1
100
AcDbLine
 10
185.8522657764
 20
49.1341771265
 30
0.0
 11
185.8522657764
 21
46.6642159184
 31
0.0
  0
LINE
  5
1C5
330
1F
100
AcDbEntity
  8
LAYER_1
100
AcDbLine
 10
185.8522657764
 20
46.6642159184
 30
0.0
 11
176.1949741122
 21
46.6642159184
 31
0.0
  0
LINE
  5
1C6
330
1F
100
AcDbEntity
  8
LAYER_1
100
AcDbLine
 10
176.1949741122
 20
46.6642159184
 30
0.0
 11
176.2156446851
 21
44.2753867089
 31
0.0
  0
LINE
  5
1C7
330
1F
100
AcDbEntity
  8
LAYER_1
100
AcDbLine
 10
176.2156446851
 20
44.2753867089
 30
0.0
 11
173.7386210312
 21
44.2753867089
 31
0.0
  0
LINE
  5
1C8
330
1F
100
AcDbEntity
  8
LAYER_1
100
AcDbLine
 10
173.7386210312
 20
44.2753867089
 30
0.0
 11
173.7386210312
 21
52.5842680002
 31
0.0
  0
SPLINE
  5
1C9
330
1F
100
AcDbEntity
  8
LAYER_1
100
AcDbSpline
210
0.0
220
0.0
230
1.0
 70
     8
 71
     3
 72
    17
 73
    13
 74
     0
 42
0.00000001
 43
0.00000001
 12
1.0
 22
0.0
 32
0.0
 13
1.0
 23
0.0
 33
0.0
 40
0.0
 40
0.0
 40
0.0
 40
0.0
 40
1.0
 40
2.0
 40
3.0
 40
4.0
 40
5.0
 40
6.0
 40
7.0
 40
8.0
 40
9.0
 40
10.0
 40
10.0
 40
10.0
 40
10.0
 10
120.3108744625322
 20
44.27538670890824
 30
0.0
 10
119.5047221189838
 20
44.27538670890824
 30
0.0
 10
118.8015781304442
 20
44.31776138337678
 30
0.0
 10
118.2203905220827
 20
44.40147720366839
 30
0.0
 10
117.6037184302229
 20
44.49001615763925
 30
0.0
 10
117.0807529355619
 20
44.64745702131518
 30
0.0
 10
116.6666524582349
 20
44.86828764191975
 30
0.0
 10
116.2160339687642
 20
45.10841079724165
 30
0.0
 10
115.8753140252731
 20
45.43603937788892
 30
0.0
 10
115.6544834046686
 20
45.84221613559986
 30
0.0
 10
115.4412319941315
 20
46.23426800182123
 30
0.0
 10
115.3323669767976
 20
46.71727038885331
 30
0.0
 10
115.3323669767976
 20
47.27744291475494
 30
0.0
  0
SPLINE
  5
1CA
330
1F
100
AcDbEntity
  8
LAYER_1
100
AcDbSpline
210
0.0
220
0.0
230
1.0
 70
     8
 71
     3
 72
    17
 73
    13
 74
     0
 42
0.00000001
 43
0.00000001
 12
1.0
 22
0.0
 32
0.0
 13
1.0
 23
0.0
 33
0.0
 40
0.0
 40
0.0
 40
0.0
 40
0.0
 40
1.0
 40
2.0
 40
3.0
 40
4.0
 40
5.0
 40
6.0
 40
7.0
 40
8.0
 40
9.0
 40
10.0
 40
10.0
 40
10.0
 40
10.0
 10
115.3323669767976
 20
49.58221179438704
 30
0.0
 10
115.3323669767976
 20
50.14238432028867
 30
0.0
 10
115.4412319941315
 20
50.62538670732075
 30
0.0
 10
115.6548279142171
 20
51.01778308309068
 30
0.0
 10
115.8753140252731
 20
51.42361533125306
 30
0.0
 10
116.2160339687642
 20
51.75124391190039
 30
0.0
 10
116.6669969677835
 20
51.9917115767708
 30
0.0
 10
117.0807529355619
 20
52.21219768782681
 30
0.0
 10
117.6037184302229
 20
52.36963855150273
 30
0.0
 10
118.2207350316311
 20
52.4581775054736
 30
0.0
 10
118.8039896972839
 20
52.5418933257652
 30
0.0
 10
119.5071336858234
 20
52.58426800023375
 30
0.0
 10
120.3108744625322
 20
52.58426800023375
 30
0.0
  0
SPLINE
  5
1CB
330
1F
100
AcDbEntity
  8
LAYER_1
100
AcDbSpline
210
0.0
220
0.0
230
1.0
 70
     8
 71
     3
 72
    17
 73
    13
 74
     0
 42
0.00000001
 43
0.00000001
 12
1.0
 22
0.0
 32
0.0
 13
1.0
 23
0.0
 33
0.0
 40
0.0
 40
0.0
 40
0.0
 40
0.0
 40
1.0
 40
2.0
 40
3.0
 40
4.0
 40
5.0
 40
6.0
 40
7.0
 40
8.0
 40
9.0
 40
10.0
 40
10.0
 40
10.0
 40
10.0
 10
120.3108744625322
 20
50.10724434633917
 30
0.0
 10
119.6528612248495
 20
50.10724434633917
 30
0.0
 10
119.1064690808888
 20
50.12309178557128
 30
0.0
 10
118.7275085775114
 20
50.08071711110274
 30
0.0
 10
118.3006612468889
 20
50.0335193029548
 30
0.0
 10
118.2052321019474
 20
49.98046483248197
 30
0.0
 10
118.1036017851326
 20
49.92120919013565
 30
0.0
 10
117.9440938641656
 20
49.82819161203389
 30
0.0
 10
117.9099874188615
 20
49.6893542639783
 30
0.0
 10
117.8583109865828
 20
49.44647503226823
 30
0.0
 10
117.8221374839877
 20
49.15054133008528
 30
0.0
 10
117.8097351402408
 20
49.0816394203803
 30
0.0
 10
117.8097351402408
 20
48.94349109142171
 30
0.0
  0
SPLINE
  5
1CC
330
1F
100
AcDbEntity
  8
LAYER_1
100
AcDbSpline
210
0.0
220
0.0
230
1.0
 70
     8
 71
     3
 72
    17
 73
    13
 74
     0
 42
0.00000001
 43
0.00000001
 12
1.0
 22
0.0
 32
0.0
 13
1.0
 23
0.0
 33
0.0
 40
0.0
 40
0.0
 40
0.0
 40
0.0
 40
1.0
 40
2.0
 40
3.0
 40
4.0
 40
5.0
 40
6.0
 40
7.0
 40
8.0
 40
9.0
 40
10.0
 40
10.0
 40
10.0
 40
10.0
 10
117.8097351402408
 20
47.91581910817172
 30
0.0
 10
117.8097351402408
 20
47.77801528876169
 30
0.0
 10
117.8348843372832
 20
47.61988540598872
 30
0.0
 10
117.8600335343254
 20
47.40973458138853
 30
0.0
 10
117.8655456871018
 20
47.40215537132097
 30
0.0
 10
117.8724358780723
 20
47.15617555367413
 30
0.0
 10
118.0853427790608
 20
46.99322253722183
 30
0.0
 10
118.3344231826444
 20
46.80270875688753
 30
0.0
 10
118.4618917155986
 20
46.84680597909868
 30
0.0
 10
118.7485236599714
 20
46.81580011973141
 30
0.0
 10
119.1281731824459
 20
46.77480348345697
 30
0.0
 10
119.6535502439465
 20
46.75241036280286
 30
0.0
 10
120.3108744625322
 20
46.75241036280286
 30
0.0
  0
SPLINE
  5
1CD
330
1F
100
AcDbEntity
  8
LAYER_1
100
AcDbSpline
210
0.0
220
0.0
230
1.0
 70
     8
 71
     3
 72
    14
 73
    10
 74
     0
 42
0.00000001
 43
0.00000001
 12
1.0
 22
0.0
 32
0.0
 13
1.0
 23
0.0
 33
0.0
 40
0.0
 40
0.0
 40
0.0
 40
0.0
 40
1.0
 40
2.0
 40
3.0
 40
4.0
 40
5.0
 40
6.0
 40
7.0
 40
7.0
 40
7.0
 40
7.0
 10
148.2509433574569
 20
46.75206585325431
 30
0.0
 10
148.9082675760426
 20
46.75206585325431
 30
0.0
 10
149.4612054014253
 20
46.75068781506025
 30
0.0
 10
149.8360317902203
 20
46.7930624895288
 30
0.0
 10
150.2570224585179
 20
46.83991578812818
 30
0.0
 10
150.4148078317423
 20
46.86472047562201
 30
0.0
 10
150.5512336129582
 20
46.9832317603146
 30
0.0
 10
150.6890374323682
 20
47.1031210832013
 30
0.0
 10
150.6614766684862
 20
47.7507990344283
 30
0.0
 10
150.6814582223006
 20
47.76905804050008
 30
0.0
  0
SPLINE
  5
1CE
330
1F
100
AcDbEntity
  8
LAYER_1
100
AcDbSpline
210
0.0
220
0.0
230
1.0
 70
     8
 71
     3
 72
    12
 73
     8
 74
     0
 42
0.00000001
 43
0.00000001
 12
1.0
 22
0.0
 32
0.0
 13
1.0
 23
0.0
 33
0.0
 40
0.0
 40
0.0
 40
0.0
 40
0.0
 40
1.0
 40
2.0
 40
3.0
 40
4.0
 40
5.0
 40
5.0
 40
5.0
 40
5.0
 10
150.6814582223006
 20
47.76905804050008
 30
0.0
 10
142.4452684457138
 20
47.76457941636924
 30
0.0
 10
139.3067864586512
 20
47.76905804050008
 30
0.0
 10
136.1683044715887
 20
47.77353666463091
 30
0.0
 10
134.6800232219607
 20
48.78260513226057
 30
0.0
 10
134.6800232219607
 20
51.09874282699406
 30
0.0
 10
134.6800232219607
 20
51.36039782909879
 30
0.0
 10
134.6800232219607
 20
52.58426800023375
 30
0.0
  0
SPLINE
  5
1CF
330
1F
100
AcDbEntity
  8
LAYER_1
100
AcDbSpline
210
0.0
220
0.0
230
1.0
 70
     8
 71
     3
 72
    17
 73
    13
 74
     0
 42
0.00000001
 43
0.00000001
 12
1.0
 22
0.0
 32
0.0
 13
1.0
 23
0.0
 33
0.0
 40
0.0
 40
0.0
 40
0.0
 40
0.0
 40
1.0
 40
2.0
 40
3.0
 40
4.0
 40
5.0
 40
6.0
 40
7.0
 40
8.0
 40
9.0
 40
10.0
 40
10.0
 40
10.0
 40
10.0
 10
137.1567023663068
 20
51.0691150058209
 30
0.0
 10
137.1567023663068
 20
50.90685100846565
 30
0.0
 10
137.1787509774124
 20
51.05877971936512
 30
0.0
 10
137.2238817282693
 20
50.88859200239382
 30
0.0
 10
137.2635003263496
 20
50.73907485833396
 30
0.0
 10
137.3847676874305
 20
50.60023751027837
 30
0.0
 10
137.5043125007685
 20
50.50963149901633
 30
0.0
 10
137.6693325745121
 20
50.38526355199879
 30
0.0
 10
137.7940450310781
 20
50.36252592179613
 30
0.0
 10
138.0748203131259
 20
50.31911771868197
 30
0.0
 10
138.3866014545411
 20
50.27054187234003
 30
0.0
 10
138.7972568363829
 20
50.24573718484621
 30
0.0
 10
139.2947286244529
 20
50.24573718484621
 30
0.0
  0
SPLINE
  5
1D0
330
1F
100
AcDbEntity
  8
LAYER_1
100
AcDbSpline
210
0.0
220
0.0
230
1.0
 70
     8
 71
     3
 72
    17
 73
    13
 74
     0
 42
0.00000001
 43
0.00000001
 12
1.0
 22
0.0
 32
0.0
 13
1.0
 23
0.0
 33
0.0
 40
0.0
 40
0.0
 40
0.0
 40
0.0
 40
1.0
 40
2.0
 40
3.0
 40
4.0
 40
5.0
 40
6.0
 40
7.0
 40
8.0
 40
9.0
 40
10.0
 40
10.0
 40
10.0
 40
10.0
 10
153.229106333643
 20
47.63022069244449
 30
0.0
 10
153.229106333643
 20
47.07142620473703
 30
0.0
 10
153.1205858258575
 20
46.23392349227279
 30
0.0
 10
152.9069899057721
 20
45.84187162605136
 30
0.0
 10
152.685814775619
 20
45.43569486834037
 30
0.0
 10
152.3454393416763
 20
45.10841079724165
 30
0.0
 10
151.8951653617542
 20
44.86794313237119
 30
0.0
 10
151.4810648844272
 20
44.64676800221817
 30
0.0
 10
150.9584438993147
 20
44.49036066718782
 30
0.0
 10
150.341082788358
 20
44.40147720366839
 30
0.0
 10
149.7581726322537
 20
44.31741687382829
 30
0.0
 10
149.0550286437142
 20
44.27538670890824
 30
0.0
 10
148.2509433574569
 20
44.27538670890824
 30
0.0
  0
SPLINE
  5
1D1
330
1F
100
AcDbEntity
  8
LAYER_1
100
AcDbSpline
210
0.0
220
0.0
230
1.0
 70
     8
 71
     3
 72
    17
 73
    13
 74
     0
 42
0.00000001
 43
0.00000001
 12
1.0
 22
0.0
 32
0.0
 13
1.0
 23
0.0
 33
0.0
 40
0.0
 40
0.0
 40
0.0
 40
0.0
 40
1.0
 40
2.0
 40
3.0
 40
4.0
 40
5.0
 40
6.0
 40
7.0
 40
8.0
 40
9.0
 40
10.0
 40
10.0
 40
10.0
 40
10.0
 10
159.3574144375796
 20
44.27538670890824
 30
0.0
 10
158.5512620940311
 20
44.27538670890824
 30
0.0
 10
157.8477735959432
 20
44.31776138337678
 30
0.0
 10
157.2669304971299
 20
44.40147720366839
 30
0.0
 10
156.6502584052703
 20
44.49001615763925
 30
0.0
 10
156.1272929106093
 20
44.64745702131518
 30
0.0
 10
155.7131924332823
 20
44.86828764191975
 30
0.0
 10
155.2627461985859
 20
45.10841079724165
 30
0.0
 10
154.9220262550947
 20
45.43603937788892
 30
0.0
 10
154.7008511249417
 20
45.84221613559986
 30
0.0
 10
154.4875997144047
 20
46.23426800182123
 30
0.0
 10
154.3790792066193
 20
46.71727038885331
 30
0.0
 10
154.3790792066193
 20
47.27744291475494
 30
0.0
  0
SPLINE
  5
1D2
330
1F
100
AcDbEntity
  8
LAYER_1
100
AcDbSpline
210
0.0
220
0.0
230
1.0
 70
     8
 71
     3
 72
    17
 73
    13
 74
     0
 42
0.00000001
 43
0.00000001
 12
1.0
 22
0.0
 32
0.0
 13
1.0
 23
0.0
 33
0.0
 40
0.0
 40
0.0
 40
0.0
 40
0.0
 40
1.0
 40
2.0
 40
3.0
 40
4.0
 40
5.0
 40
6.0
 40
7.0
 40
8.0
 40
9.0
 40
10.0
 40
10.0
 40
10.0
 40
10.0
 10
154.3790792066193
 20
49.58221179438704
 30
0.0
 10
154.3790792066193
 20
50.14238432028867
 30
0.0
 10
154.4875997144047
 20
50.62538670732075
 30
0.0
 10
154.7011956344903
 20
51.01778308309068
 30
0.0
 10
154.9220262550947
 20
51.42361533125306
 30
0.0
 10
155.2627461985859
 20
51.75124391190039
 30
0.0
 10
155.7131924332823
 20
51.9917115767708
 30
0.0
 10
156.1272929106093
 20
52.21219768782681
 30
0.0
 10
156.6502584052703
 20
52.36963855150273
 30
0.0
 10
157.267619516227
 20
52.4581775054736
 30
0.0
 10
157.8505296723314
 20
52.5418933257652
 30
0.0
 10
158.5540181704194
 20
52.58426800023375
 30
0.0
 10
159.3574144375796
 20
52.58426800023375
 30
0.0
  0
SPLINE
  5
1D3
330
1F
100
AcDbEntity
  8
LAYER_1
100
AcDbSpline
210
0.0
220
0.0
230
1.0
 70
     8
 71
     3
 72
    17
 73
    13
 74
     0
 42
0.00000001
 43
0.00000001
 12
1.0
 22
0.0
 32
0.0
 13
1.0
 23
0.0
 33
0.0
 40
0.0
 40
0.0
 40
0.0
 40
0.0
 40
1.0
 40
2.0
 40
3.0
 40
4.0
 40
5.0
 40
6.0
 40
7.0
 40
8.0
 40
9.0
 40
10.0
 40
10.0
 40
10.0
 40
10.0
 10
159.3574144375796
 20
50.10724434633917
 30
0.0
 10
158.6994011998969
 20
50.10724434633917
 30
0.0
 10
158.1530090559362
 20
50.12309178557128
 30
0.0
 10
157.7740485525587
 20
50.08071711110274
 30
0.0
 10
157.3475457314848
 20
50.0335193029548
 30
0.0
 10
157.2517720769949
 20
49.98046483248197
 30
0.0
 10
157.1497972506315
 20
49.92120919013565
 30
0.0
 10
156.990633839213
 20
49.82819161203389
 30
0.0
 10
156.9568719034575
 20
49.6893542639783
 30
0.0
 10
156.9051954711788
 20
49.44647503226823
 30
0.0
 10
156.8686774590351
 20
49.15054133008528
 30
0.0
 10
156.8562751152882
 20
49.0816394203803
 30
0.0
 10
156.8562751152882
 20
48.94349109142171
 30
0.0
  0
SPLINE
  5
1D4
330
1F
100
AcDbEntity
  8
LAYER_1
100
AcDbSpline
210
0.0
220
0.0
230
1.0
 70
     8
 71
     3
 72
    17
 73
    13
 74
     0
 42
0.00000001
 43
0.00000001
 12
1.0
 22
0.0
 32
0.0
 13
1.0
 23
0.0
 33
0.0
 40
0.0
 40
0.0
 40
0.0
 40
0.0
 40
1.0
 40
2.0
 40
3.0
 40
4.0
 40
5.0
 40
6.0
 40
7.0
 40
8.0
 40
9.0
 40
10.0
 40
10.0
 40
10.0
 40
10.0
 10
156.8562751152882
 20
48.26859688586133
 30
0.0
 10
156.8562751152882
 20
48.1307930664513
 30
0.0
 10
156.881079802782
 20
47.61988540598872
 30
0.0
 10
156.9065735093729
 20
47.40973458138853
 30
0.0
 10
156.9120856621492
 20
47.40215537132097
 30
0.0
 10
156.9189758531197
 20
47.15617555367413
 30
0.0
 10
157.1318827541082
 20
46.99322253722183
 30
0.0
 10
157.3806186481432
 20
46.80270875688753
 30
0.0
 10
157.5087762001945
 20
46.84680597909868
 30
0.0
 10
157.7954081445673
 20
46.81580011973141
 30
0.0
 10
158.1743686479448
 20
46.77480348345697
 30
0.0
 10
158.7000902189939
 20
46.75241036280286
 30
0.0
 10
159.3574144375796
 20
46.75241036280286
 30
0.0
  0
INSERT
  5
1D5
330
1F
100
AcDbEntity
  8
0
  6
Continuous
 62
     7
100
AcDbBlockReference
  2
BLOCK 2
 10
108.0590813883
 20
58.915664483
 30
0.0
  0
HATCH
  5
1D6
330
1F
100
AcDbEntity
  8
LAYER_1
 62
   250
100
AcDbHatch
 10
0.0
 20
0.0
 30
0.0
210
0.0
220
0.0
230
1.0
  2
SOLID
 70
     1
 71
     0
 91
        1
 92
        0
 93
       12
 72
     1
 10
133.5293613298873
 20
46.75241036280286
 11
133.5293613298873
 21
44.27538670890824
 72
     1
 10
133.5293613298873
 20
44.27538670890824
 11
120.3108744625322
 21
44.27538670890824
 72
     4
 94
        3
 73
     1
 74
     0
 95
       17
 96
       13
 40
0.0
 40
0.0
 40
0.0
 40
0.0
 40
1.0
 40
2.0
 40
3.0
 40
4.0
 40
5.0
 40
6.0
 40
7.0
 40
8.0
 40
9.0
 40
10.0
 40
10.0
 40
10.0
 40
10.0
 10
120.3108744625322
 20
44.27538670890824
 42
1.0
 10
119.5047221189838
 20
44.27538670890824
 42
1.0
 10
118.8015781304442
 20
44.31776138337678
 42
1.0
 10
118.2203905220827
 20
44.40147720366839
 42
1.0
 10
117.6037184302229
 20
44.49001615763925
 42
1.0
 10
117.0807529355619
 20
44.64745702131518
 42
1.0
 10
116.6666524582349
 20
44.86828764191975
 42
1.0
 10
116.2160339687642
 20
45.10841079724165
 42
1.0
 10
115.8753140252731
 20
45.43603937788892
 42
1.0
 10
115.6544834046686
 20
45.84221613559986
 42
1.0
 10
115.4412319941315
 20
46.23426800182123
 42
1.0
 10
115.3323669767976
 20
46.71727038885331
 42
1.0
 10
115.3323669767976
 20
47.27744291475494
 42
1.0
 72
     1
 10
115.3323669767976
 20
47.27744291475494
 11
115.3323669767976
 21
49.58221179438704
 72
     4
 94
        3
 73
     1
 74
     0
 95
       17
 96
       13
 40
0.0
 40
0.0
 40
0.0
 40
0.0
 40
1.0
 40
2.0
 40
3.0
 40
4.0
 40
5.0
 40
6.0
 40
7.0
 40
8.0
 40
9.0
 40
10.0
 40
10.0
 40
10.0
 40
10.0
 10
115.3323669767976
 20
49.58221179438704
 42
1.0
 10
115.3323669767976
 20
50.14238432028867
 42
1.0
 10
115.4412319941315
 20
50.62538670732075
 42
1.0
 10
115.6548279142171
 20
51.01778308309068
 42
1.0
 10
115.8753140252731
 20
51.42361533125306
 42
1.0
 10
116.2160339687642
 20
51.75124391190039
 42
1.0
 10
116.6669969677835
 20
51.9917115767708
 42
1.0
 10
117.0807529355619
 20
52.21219768782681
 42
1.0
 10
117.6037184302229
 20
52.36963855150273
 42
1.0
 10
118.2207350316311
 20
52.4581775054736
 42
1.0
 10
118.8039896972839
 20
52.5418933257652
 42
1.0
 10
119.5071336858234
 20
52.58426800023375
 42
1.0
 10
120.3108744625322
 20
52.58426800023375
 42
1.0
 72
     1
 10
120.3108744625322
 20
52.58426800023375
 11
133.5293613298873
 21
52.58426800023375
 72
     1
 10
133.5293613298873
 20
52.58426800023375
 11
133.5293613298873
 21
50.10724434633917
 72
     1
 10
133.5293613298873
 20
50.10724434633917
 11
120.3108744625322
 21
50.10724434633917
 72
     4
 94
        3
 73
     1
 74
     0
 95
       17
 96
       13
 40
0.0
 40
0.0
 40
0.0
 40
0.0
 40
1.0
 40
2.0
 40
3.0
 40
4.0
 40
5.0
 40
6.0
 40
7.0
 40
8.0
 40
9.0
 40
10.0
 40
10.0
 40
10.0
 40
10.0
 10
120.3108744625322
 20
50.10724434633917
 42
1.0
 10
119.6528612248495
 20
50.10724434633917
 42
1.0
 10
119.1064690808888
 20
50.12309178557128
 42
1.0
 10
118.7275085775114
 20
50.08071711110274
 42
1.0
 10
118.3006612468889
 20
50.0335193029548
 42
1.0
 10
118.2052321019474
 20
49.98046483248197
 42
1.0
 10
118.1036017851326
 20
49.92120919013565
 42
1.0
 10
117.9440938641656
 20
49.82819161203389
 42
1.0
 10
117.9099874188615
 20
49.6893542639783
 42
1.0
 10
117.8583109865828
 20
49.44647503226823
 42
1.0
 10
117.8221374839877
 20
49.15054133008528
 42
1.0
 10
117.8097351402408
 20
49.0816394203803
 42
1.0
 10
117.8097351402408
 20
48.94349109142171
 42
1.0
 72
     1
 10
117.8097351402408
 20
48.94349109142171
 11
117.8097351402408
 21
47.91581910817172
 72
     4
 94
        3
 73
     1
 74
     0
 95
       17
 96
       13
 40
0.0
 40
0.0
 40
0.0
 40
0.0
 40
1.0
 40
2.0
 40
3.0
 40
4.0
 40
5.0
 40
6.0
 40
7.0
 40
8.0
 40
9.0
 40
10.0
 40
10.0
 40
10.0
 40
10.0
 10
117.8097351402408
 20
47.91581910817172
 42
1.0
 10
117.8097351402408
 20
47.77801528876169
 42
1.0
 10
117.8348843372832
 20
47.61988540598872
 42
1.0
 10
117.8600335343254
 20
47.40973458138853
 42
1.0
 10
117.8655456871018
 20
47.40215537132097
 42
1.0
 10
117.8724358780723
 20
47.15617555367413
 42
1.0
 10
118.0853427790608
 20
46.99322253722183
 42
1.0
 10
118.3344231826444
 20
46.80270875688753
 42
1.0
 10
118.4618917155986
 20
46.84680597909868
 42
1.0
 10
118.7485236599714
 20
46.81580011973141
 42
1.0
 10
119.1281731824459
 20
46.77480348345697
 42
1.0
 10
119.6535502439465
 20
46.75241036280286
 42
1.0
 10
120.3108744625322
 20
46.75241036280286
 42
1.0
 72
     1
 10
120.3108744625322
 20
46.75241036280286
 11
133.5293613298873
 21
46.75241036280286
 97
        0
 75
     0
 76
     1
 98
        1
 10
0.0
 20
0.0
  0
HATCH
  5
1D7
330
1F
100
AcDbEntity
  8
LAYER_1
 62
   250
100
AcDbHatch
 10
0.0
 20
0.0
 30
0.0
210
0.0
220
0.0
230
1.0
  2
SOLID
 70
     1
 71
     0
 91
        1
 92
        0
 93
       13
 72
     4
 94
        3
 73
     1
 74
     0
 95
       17
 96
       13
 40
0.0
 40
0.0
 40
0.0
 40
0.0
 40
1.0
 40
2.0
 40
3.0
 40
4.0
 40
5.0
 40
6.0
 40
7.0
 40
8.0
 40
9.0
 40
10.0
 40
10.0
 40
10.0
 40
10.0
 10
153.229106333643
 20
47.63022069244449
 42
1.0
 10
153.229106333643
 20
47.07142620473703
 42
1.0
 10
153.1205858258575
 20
46.23392349227279
 42
1.0
 10
152.9069899057721
 20
45.84187162605136
 42
1.0
 10
152.685814775619
 20
45.43569486834037
 42
1.0
 10
152.3454393416763
 20
45.10841079724165
 42
1.0
 10
151.8951653617542
 20
44.86794313237119
 42
1.0
 10
151.4810648844272
 20
44.64676800221817
 42
1.0
 10
150.9584438993147
 20
44.49036066718782
 42
1.0
 10
150.341082788358
 20
44.40147720366839
 42
1.0
 10
149.7581726322537
 20
44.31741687382829
 42
1.0
 10
149.0550286437142
 20
44.27538670890824
 42
1.0
 10
148.2509433574569
 20
44.27538670890824
 42
1.0
 72
     1
 10
148.2509433574569
 20
44.27538670890824
 11
144.3152662751074
 21
44.27538670890824
 72
     1
 10
144.3152662751074
 20
44.27538670890824
 11
144.3152662751074
 21
46.75206585325431
 72
     1
 10
144.3152662751074
 20
46.75206585325431
 11
148.2509433574569
 21
46.75206585325431
 72
     4
 94
        3
 73
     1
 74
     0
 95
       14
 96
       10
 40
0.0
 40
0.0
 40
0.0
 40
0.0
 40
1.0
 40
2.0
 40
3.0
 40
4.0
 40
5.0
 40
6.0
 40
7.0
 40
7.0
 40
7.0
 40
7.0
 10
148.2509433574569
 20
46.75206585325431
 42
1.0
 10
148.9082675760426
 20
46.75206585325431
 42
1.0
 10
149.4612054014253
 20
46.75068781506025
 42
1.0
 10
149.8360317902203
 20
46.7930624895288
 42
1.0
 10
150.2570224585179
 20
46.83991578812818
 42
1.0
 10
150.4148078317423
 20
46.86472047562201
 42
1.0
 10
150.5512336129582
 20
46.9832317603146
 42
1.0
 10
150.6890374323682
 20
47.1031210832013
 42
1.0
 10
150.6614766684862
 20
47.7507990344283
 42
1.0
 10
150.6814582223006
 20
47.76905804050008
 42
1.0
 72
     4
 94
        3
 73
     1
 74
     0
 95
       12
 96
        8
 40
0.0
 40
0.0
 40
0.0
 40
0.0
 40
1.0
 40
2.0
 40
3.0
 40
4.0
 40
5.0
 40
5.0
 40
5.0
 40
5.0
 10
150.6814582223006
 20
47.76905804050008
 42
1.0
 10
142.4452684457138
 20
47.76457941636924
 42
1.0
 10
139.3067864586512
 20
47.76905804050008
 42
1.0
 10
136.1683044715887
 20
47.77353666463091
 42
1.0
 10
134.6800232219607
 20
48.78260513226057
 42
1.0
 10
134.6800232219607
 20
51.09874282699406
 42
1.0
 10
134.6800232219607
 20
51.36039782909879
 42
1.0
 10
134.6800232219607
 20
52.58426800023375
 42
1.0
 72
     1
 10
134.6800232219607
 20
52.58426800023375
 11
137.1567023663068
 21
52.58426800023375
 72
     1
 10
137.1567023663068
 20
52.58426800023375
 11
137.1567023663068
 21
51.0691150058209
 72
     4
 94
        3
 73
     1
 74
     0
 95
       17
 96
       13
 40
0.0
 40
0.0
 40
0.0
 40
0.0
 40
1.0
 40
2.0
 40
3.0
 40
4.0
 40
5.0
 40
6.0
 40
7.0
 40
8.0
 40
9.0
 40
10.0
 40
10.0
 40
10.0
 40
10.0
 10
137.1567023663068
 20
51.0691150058209
 42
1.0
 10
137.1567023663068
 20
50.90685100846565
 42
1.0
 10
137.1787509774124
 20
51.05877971936512
 42
1.0
 10
137.2238817282693
 20
50.88859200239382
 42
1.0
 10
137.2635003263496
 20
50.73907485833396
 42
1.0
 10
137.3847676874305
 20
50.60023751027837
 42
1.0
 10
137.5043125007685
 20
50.50963149901633
 42
1.0
 10
137.6693325745121
 20
50.38526355199879
 42
1.0
 10
137.7940450310781
 20
50.36252592179613
 42
1.0
 10
138.0748203131259
 20
50.31911771868197
 42
1.0
 10
138.3866014545411
 20
50.27054187234003
 42
1.0
 10
138.7972568363829
 20
50.24573718484621
 42
1.0
 10
139.2947286244529
 20
50.24573718484621
 42
1.0
 72
     1
 10
139.2947286244529
 20
50.24573718484621
 11
150.7520826797483
 21
50.24573718484621
 72
     1
 10
150.7520826797483
 20
50.24573718484621
 11
150.7520826797483
 21
52.58426800023375
 72
     1
 10
150.7520826797483
 20
52.58426800023375
 11
153.229106333643
 21
52.58426800023375
 72
     1
 10
153.229106333643
 20
52.58426800023375
 11
153.229106333643
 21
47.63022069244449
 97
        0
 75
     0
 76
     1
 98
        1
 10
0.0
 20
0.0
  0
HATCH
  5
1D8
330
1F
100
AcDbEntity
  8
LAYER_1
 62
   250
100
AcDbHatch
 10
0.0
 20
0.0
 30
0.0
210
0.0
220
0.0
230
1.0
  2
SOLID
 70
     1
 71
     0
 91
        1
 92
        0
 93
        4
 72
     1
 10
194.7991787516358
 20
52.58426800023375
 11
194.7991787516358
 21
44.27538670890824
 72
     1
 10
194.7991787516358
 20
44.27538670890824
 11
192.3221550977412
 21
44.27538670890824
 72
     1
 10
192.3221550977412
 20
44.27538670890824
 11
192.3221550977412
 21
52.58426800023375
 72
     1
 10
192.3221550977412
 20
52.58426800023375
 11
194.7991787516358
 21
52.58426800023375
 97
        0
 75
     0
 76
     1
 98
        1
 10
0.0
 20
0.0
  0
HATCH
  5
1D9
330
1F
100
AcDbEntity
  8
LAYER_1
 62
   250
100
AcDbHatch
 10
0.0
 20
0.0
 30
0.0
210
0.0
220
0.0
230
1.0
  2
SOLID
 70
     1
 71
     0
 91
        1
 92
        0
 93
       12
 72
     1
 10
172.5762458144832
 20
46.75241036280286
 11
172.5762458144832
 21
44.27538670890824
 72
     1
 10
172.5762458144832
 20
44.27538670890824
 11
159.3574144375796
 21
44.27538670890824
 72
     4
 94
        3
 73
     1
 74
     0
 95
       17
 96
       13
 40
0.0
 40
0.0
 40
0.0
 40
0.0
 40
1.0
 40
2.0
 40
3.0
 40
4.0
 40
5.0
 40
6.0
 40
7.0
 40
8.0
 40
9.0
 40
10.0
 40
10.0
 40
10.0
 40
10.0
 10
159.3574144375796
 20
44.27538670890824
 42
1.0
 10
158.5512620940311
 20
44.27538670890824
 42
1.0
 10
157.8477735959432
 20
44.31776138337678
 42
1.0
 10
157.2669304971299
 20
44.40147720366839
 42
1.0
 10
156.6502584052703
 20
44.49001615763925
 42
1.0
 10
156.1272929106093
 20
44.64745702131518
 42
1.0
 10
155.7131924332823
 20
44.86828764191975
 42
1.0
 10
155.2627461985859
 20
45.10841079724165
 42
1.0
 10
154.9220262550947
 20
45.43603937788892
 42
1.0
 10
154.7008511249417
 20
45.84221613559986
 42
1.0
 10
154.4875997144047
 20
46.23426800182123
 42
1.0
 10
154.3790792066193
 20
46.71727038885331
 42
1.0
 10
154.3790792066193
 20
47.27744291475494
 42
1.0
 72
     1
 10
154.3790792066193
 20
47.27744291475494
 11
154.3790792066193
 21
49.58221179438704
 72
     4
 94
        3
 73
     1
 74
     0
 95
       17
 96
       13
 40
0.0
 40
0.0
 40
0.0
 40
0.0
 40
1.0
 40
2.0
 40
3.0
 40
4.0
 40
5.0
 40
6.0
 40
7.0
 40
8.0
 40
9.0
 40
10.0
 40
10.0
 40
10.0
 40
10.0
 10
154.3790792066193
 20
49.58221179438704
 42
1.0
 10
154.3790792066193
 20
50.14238432028867
 42
1.0
 10
154.4875997144047
 20
50.62538670732075
 42
1.0
 10
154.7011956344903
 20
51.01778308309068
 42
1.0
 10
154.9220262550947
 20
51.42361533125306
 42
1.0
 10
155.2627461985859
 20
51.75124391190039
 42
1.0
 10
155.7131924332823
 20
51.9917115767708
 42
1.0
 10
156.1272929106093
 20
52.21219768782681
 42
1.0
 10
156.6502584052703
 20
52.36963855150273
 42
1.0
 10
157.267619516227
 20
52.4581775054736
 42
1.0
 10
157.8505296723314
 20
52.5418933257652
 42
1.0
 10
158.5540181704194
 20
52.58426800023375
 42
1.0
 10
159.3574144375796
 20
52.58426800023375
 42
1.0
 72
     1
 10
159.3574144375796
 20
52.58426800023375
 11
172.5762458144832
 21
52.58426800023375
 72
     1
 10
172.5762458144832
 20
52.58426800023375
 11
172.5762458144832
 21
50.10724434633917
 72
     1
 10
172.5762458144832
 20
50.10724434633917
 11
159.3574144375796
 21
50.10724434633917
 72
     4
 94
        3
 73
     1
 74
     0
 95
       17
 96
       13
 40
0.0
 40
0.0
 40
0.0
 40
0.0
 40
1.0
 40
2.0
 40
3.0
 40
4.0
 40
5.0
 40
6.0
 40
7.0
 40
8.0
 40
9.0
 40
10.0
 40
10.0
 40
10.0
 40
10.0
 10
159.3574144375796
 20
50.10724434633917
 42
1.0
 10
158.6994011998969
 20
50.10724434633917
 42
1.0
 10
158.1530090559362
 20
50.12309178557128
 42
1.0
 10
157.7740485525587
 20
50.08071711110274
 42
1.0
 10
157.3475457314848
 20
50.0335193029548
 42
1.0
 10
157.2517720769949
 20
49.98046483248197
 42
1.0
 10
157.1497972506315
 20
49.92120919013565
 42
1.0
 10
156.990633839213
 20
49.82819161203389
 42
1.0
 10
156.9568719034575
 20
49.6893542639783
 42
1.0
 10
156.9051954711788
 20
49.44647503226823
 42
1.0
 10
156.8686774590351
 20
49.15054133008528
 42
1.0
 10
156.8562751152882
 20
49.0816394203803
 42
1.0
 10
156.8562751152882
 20
48.94349109142171
 42
1.0
 72
     1
 10
156.8562751152882
 20
48.94349109142171
 11
156.8562751152882
 21
48.26859688586133
 72
     4
 94
        3
 73
     1
 74
     0
 95
       17
 96
       13
 40
0.0
 40
0.0
 40
0.0
 40
0.0
 40
1.0
 40
2.0
 40
3.0
 40
4.0
 40
5.0
 40
6.0
 40
7.0
 40
8.0
 40
9.0
 40
10.0
 40
10.0
 40
10.0
 40
10.0
 10
156.8562751152882
 20
48.26859688586133
 42
1.0
 10
156.8562751152882
 20
48.1307930664513
 42
1.0
 10
156.881079802782
 20
47.61988540598872
 42
1.0
 10
156.9065735093729
 20
47.40973458138853
 42
1.0
 10
156.9120856621492
 20
47.40215537132097
 42
1.0
 10
156.9189758531197
 20
47.15617555367413
 42
1.0
 10
157.1318827541082
 20
46.99322253722183
 42
1.0
 10
157.3806186481432
 20
46.80270875688753
 42
1.0
 10
157.5087762001945
 20
46.84680597909868
 42
1.0
 10
157.7954081445673
 20
46.81580011973141
 42
1.0
 10
158.1743686479448
 20
46.77480348345697
 42
1.0
 10
158.7000902189939
 20
46.75241036280286
 42
1.0
 10
159.3574144375796
 20
46.75241036280286
 42
1.0
 72
     1
 10
159.3574144375796
 20
46.75241036280286
 11
172.5762458144832
 21
46.75241036280286
 97
        0
 75
     0
 76
     1
 98
        1
 10
0.0
 20
0.0
  0
HATCH
  5
1DA
330
1F
100
AcDbEntity
  8
LAYER_1
 62
   250
100
AcDbHatch
 10
0.0
 20
0.0
 30
0.0
210
0.0
220
0.0
230
1.0
  2
SOLID
 70
     1
 71
     0
 91
        1
 92
        0
 93
       10
 72
     1
 10
173.7386210312065
 20
44.27538670890824
 11
173.7386210312065
 21
52.58426800023375
 72
     1
 10
173.7386210312065
 20
52.58426800023375
 11
191.216968466073
 21
52.58426800023375
 72
     1
 10
191.216968466073
 20
52.58426800023375
 11
191.216968466073
 21
50.10758885588768
 72
     1
 10
191.216968466073
 20
50.10758885588768
 11
176.2156446851012
 21
50.10758885588768
 72
     1
 10
176.2156446851012
 20
50.10758885588768
 11
176.1949741121896
 21
49.14141182704934
 72
     1
 10
176.1949741121896
 20
49.14141182704934
 11
185.852265776442
 21
49.13417712653035
 72
     1
 10
185.852265776442
 20
49.13417712653035
 11
185.852265776442
 21
46.66421591838049
 72
     1
 10
185.852265776442
 20
46.66421591838049
 11
176.1949741121896
 21
46.66421591838049
 72
     1
 10
176.1949741121896
 20
46.66421591838049
 11
176.2156446851012
 21
44.27538670890824
 72
     1
 10
176.2156446851012
 20
44.27538670890824
 11
173.7386210312065
 21
44.27538670890824
 97
        0
 75
     0
 76
     1
 98
        1
 10
0.0
 20
0.0
  0
ENDSEC
  0
SECTION
  2
OBJECTS
  0
DICTIONARY
  5
C
330
0
100
AcDbDictionary
281
     1
  3
ACAD_GROUP
350
D
  3
ACAD_LAYOUT
350
1A
  3
ACAD_MLINESTYLE
350
17
  3
ACAD_PLOTSETTINGS
350
19
  3
ACAD_PLOTSTYLENAME
350
E
  0
DICTIONARY
  5
D
102
{ACAD_REACTORS
330
C
102
}
330
C
100
AcDbDictionary
281
     1
  0
DICTIONARY
  5
1A
102
{ACAD_REACTORS
330
C
102
}
330
C
100
AcDbDictionary
281
     1
  3
Layout1
350
1E
  3
Layout2
350
26
  3
Model
350
22
  0
DICTIONARY
  5
17
102
{ACAD_REACTORS
330
C
102
}
330
C
100
AcDbDictionary
281
     1
  3
Standard
350
18
  0
DICTIONARY
  5
19
102
{ACAD_REACTORS
330
C
102
}
330
C
100
AcDbDictionary
281
     1
  0
ACDBDICTIONARYWDFLT
  5
E
102
{ACAD_REACTORS
330
C
102
}
330
C
100
AcDbDictionary
281
     1
  3
Normal
350
F
100
AcDbDictionaryWithDefault
340
F
  0
LAYOUT
  5
1E
102
{ACAD_REACTORS
330
1A
102
}
330
1A
100
AcDbPlotSettings
  1

  2
none_device
  4

  6

 40
0.0
 41
0.0
 42
0.0
 43
0.0
 44
0.0
 45
0.0
 46
0.0
 47
0.0
 48
0.0
 49
0.0
140
0.0
141
0.0
142
1.0
143
1.0
 70
   688
 72
     0
 73
     0
 74
     5
  7

 75
    16
147
1.0
148
0.0
149
0.0
100
AcDbLayout
  1
Layout1
 70
     1
 71
     1
 10
0.0
 20
0.0
 11
420.0
 21
297.0
 12
0.0
 22
0.0
 32
0.0
 14
1.0000000000E+20
 24
1.0000000000E+20
 34
1.0000000000E+20
 15
-1.0000000000E+20
 25
-1.0000000000E+20
 35
-1.0000000000E+20
146
0.0
 13
0.0
 23
0.0
 33
0.0
 16
1.0
 26
0.0
 36
0.0
 17
0.0
 27
1.0
 37
0.0
 76
     0
330
1B
  0
LAYOUT
  5
26
102
{ACAD_REACTORS
330
1A
102
}
330
1A
100
AcDbPlotSettings
  1

  2
none_device
  4

  6

 40
0.0
 41
0.0
 42
0.0
 43
0.0
 44
0.0
 45
0.0
 46
0.0
 47
0.0
 48
0.0
 49
0.0
140
0.0
141
0.0
142
1.0
143
1.0
 70
   688
 72
     0
 73
     0
 74
     5
  7

 75
    16
147
1.0
148
0.0
149
0.0
100
AcDbLayout
  1
Layout2
 70
     1
 71
     2
 10
0.0
 20
0.0
 11
0.0
 21
0.0
 12
0.0
 22
0.0
 32
0.0
 14
0.0
 24
0.0
 34
0.0
 15
0.0
 25
0.0
 35
0.0
146
0.0
 13
0.0
 23
0.0
 33
0.0
 16
1.0
 26
0.0
 36
0.0
 17
0.0
 27
1.0
 37
0.0
 76
     0
330
23
  0
LAYOUT
  5
22
102
{ACAD_REACTORS
330
1A
102
}
330
1A
100
AcDbPlotSettings
  1

  2
none_device
  4

  6

 40
0.0
 41
0.0
 42
0.0
 43
0.0
 44
0.0
 45
0.0
 46
0.0
 47
0.0
 48
0.0
 49
0.0
140
0.0
141
0.0
142
1.0
143
1.0
 70
  1712
 72
     0
 73
     0
 74
     0
  7

 75
     0
147
1.0
148
0.0
149
0.0
100
AcDbLayout
  1
Model
 70
     1
 71
     0
 10
0.0
 20
0.0
 11
210.0
 21
297.0
 12
0.0
 22
0.0
 32
0.0
 14
0.0
 24
0.0
 34
0.0
 15
210.0
 25
297.0
 35
0.0
146
0.0
 13
0.0
 23
0.0
 33
0.0
 16
1.0
 26
0.0
 36
0.0
 17
0.0
 27
1.0
 37
0.0
 76
     0
330
1F
331
29
  0
MLINESTYLE
  5
18
102
{ACAD_REACTORS
330
17
102
}
330
17
100
AcDbMlineStyle
  2
Standard
 70
     0
  3

 62
   256
 51
90.0
 52
90.0
 71
     2
 49
0.5
 62
   256
  6
BYLAYER
 49
-0.5
 62
   256
  6
BYLAYER
  0
ACDBPLACEHOLDER
  5
F
102
{ACAD_REACTORS
330
E
102
}
330
E
  0
ENDSEC
  0
EOF
