  0
SECTION
  2
HEADER
  9
$ACADVER
  1
AC1015
  9
$ACADMAINTVER
 70
     6
  9
$DWGCODEPAGE
  3
ANSI_1252
  9
$INSBASE
 10
0.0
 20
0.0
 30
0.0
  9
$EXTMIN
 10
0.0
 20
0.0
 30
0.0
  9
$EXTMAX
 10
210.0
 20
297.0
 30
0.0
  9
$LIMMIN
 10
0.0
 20
0.0
  9
$LIMMAX
 10
210.0
 20
297.0
  9
$ORTHOMODE
 70
     0
  9
$REGENMODE
 70
     1
  9
$FILLMODE
 70
     1
  9
$QTEXTMODE
 70
     0
  9
$MIRRTEXT
 70
     1
  9
$LTSCALE
 40
1.0
  9
$ATTMODE
 70
     1
  9
$TEXTSIZE
 40
3.5
  9
$TRACEWID
 40
1.0
  9
$TEXTSTYLE
  7
Standard
  9
$CLAYER
  8
0
  9
$CELTYPE
  6
ByLayer
  9
$CECOLOR
 62
   256
  9
$CELTSCALE
 40
1.0
  9
$DISPSILH
 70
     0
  9
$DIMSCALE
 40
1.0
  9
$DIMASZ
 40
3.302
  9
$DIMEXO
 40
1.0
  9
$DIMDLI
 40
3.75
  9
$DIMRND
 40
0.0
  9
$DIMDLE
 40
0.0
  9
$DIMEXE
 40
1.0
  9
$DIMTP
 40
0.0
  9
$DIMTM
 40
0.0
  9
$DIMTXT
 40
3.5
  9
$DIMCEN
 40
2.5
  9
$DIMTSZ
 40
0.0
  9
$DIMTOL
 70
     0
  9
$DIMLIM
 70
     0
  9
$DIMTIH
 70
     1
  9
$DIMTOH
 70
     1
  9
$DIMSE1
 70
     0
  9
$DIMSE2
 70
     0
  9
$DIMTAD
 70
     1
  9
$DIMZIN
 70
     0
  9
$DIMBLK
  1

  9
$DIMASO
 70
     1
  9
$DIMSHO
 70
     1
  9
$DIMPOST
  1

  9
$DIMAPOST
  1

  9
$DIMALT
 70
     0
  9
$DIMALTD
 70
     3
  9
$DIMALTF
 40
0.0393700787
  9
$DIMLFAC
 40
2.0
  9
$DIMTOFL
 70
     1
  9
$DIMTVP
 40
0.0
  9
$DIMTIX
 70
     0
  9
$DIMSOXD
 70
     0
  9
$DIMSAH
 70
     0
  9
$DIMBLK1
  1

  9
$DIMBLK2
  1

  9
$DIMSTYLE
  2
ISO-25
  9
$DIMCLRD
 70
     0
  9
$DIMCLRE
 70
     0
  9
$DIMCLRT
 70
     0
  9
$DIMTFAC
 40
1.0
  9
$DIMGAP
 40
1.524
  9
$DIMJUST
 70
     0
  9
$DIMSD1
 70
     0
  9
$DIMSD2
 70
     0
  9
$DIMTOLJ
 70
     0
  9
$DIMTZIN
 70
     0
  9
$DIMALTZ
 70
     0
  9
$DIMALTTZ
 70
     0
  9
$DIMUPT
 70
     0
  9
$DIMDEC
 70
     3
  9
$DIMTDEC
 70
     3
  9
$DIMALTU
 70
     2
  9
$DIMALTTD
 70
     3
  9
$DIMTXSTY
  7
Standard
  9
$DIMAUNIT
 70
     0
  9
$DIMADEC
 70
     2
  9
$DIMALTRND
 40
0.0
  9
$DIMAZIN
 70
     0
  9
$DIMDSEP
 70
    44
  9
$DIMATFIT
 70
     3
  9
$DIMFRAC
 70
     0
  9
$DIMLDRBLK
  1

  9
$DIMLUNIT
 70
     2
  9
$DIMLWD
 70
    -2
  9
$DIMLWE
 70
    -2
  9
$DIMTMOVE
 70
     0
  9
$LUNITS
 70
     2
  9
$LUPREC
 70
     2
  9
$SKETCHINC
 40
1.0
  9
$FILLETRAD
 40
10.0
  9
$AUNITS
 70
     0
  9
$AUPREC
 70
     2
  9
$MENU
  1
.
  9
$ELEVATION
 40
0.0
  9
$PELEVATION
 40
0.0
  9
$THICKNESS
 40
0.0
  9
$LIMCHECK
 70
     0
  9
$CHAMFERA
 40
10.0
  9
$CHAMFERB
 40
10.0
  9
$CHAMFERC
 40
20.0
  9
$CHAMFERD
 40
0.0
  9
$SKPOLY
 70
     0
  9
$TDCREATE
 40
2457436.776757616
  9
$TDUCREATE
 40
2457436.443424283
  9
$TDUPDATE
 40
2457436.776758843
  9
$TDUUPDATE
 40
2457436.443425509
  9
$TDINDWG
 40
0.0000000116
  9
$TDUSRTIMER
 40
0.0000000116
  9
$USRTIMER
 70
     1
  9
$ANGBASE
 50
0.0
  9
$ANGDIR
 70
     0
  9
$PDMODE
 70
     0
  9
$PDSIZE
 40
-1.0
  9
$PLINEWID
 40
0.0
  9
$SPLFRAME
 70
     0
  9
$SPLINETYPE
 70
     6
  9
$SPLINESEGS
 70
     8
  9
$HANDSEED
  5
207
  9
$SURFTAB1
 70
     6
  9
$SURFTAB2
 70
     6
  9
$SURFTYPE
 70
     6
  9
$SURFU
 70
     6
  9
$SURFV
 70
     6
  9
$UCSBASE
  2

  9
$UCSNAME
  2

  9
$UCSORG
 10
0.0
 20
0.0
 30
0.0
  9
$UCSXDIR
 10
1.0
 20
0.0
 30
0.0
  9
$UCSYDIR
 10
0.0
 20
1.0
 30
0.0
  9
$UCSORTHOREF
  2

  9
$UCSORTHOVIEW
 70
     0
  9
$UCSORGTOP
 10
0.0
 20
0.0
 30
0.0
  9
$UCSORGBOTTOM
 10
0.0
 20
0.0
 30
0.0
  9
$UCSORGLEFT
 10
0.0
 20
0.0
 30
0.0
  9
$UCSORGRIGHT
 10
0.0
 20
0.0
 30
0.0
  9
$UCSORGFRONT
 10
0.0
 20
0.0
 30
0.0
  9
$UCSORGBACK
 10
0.0
 20
0.0
 30
0.0
  9
$PUCSBASE
  2

  9
$PUCSNAME
  2

  9
$PUCSORG
 10
0.0
 20
0.0
 30
0.0
  9
$PUCSXDIR
 10
1.0
 20
0.0
 30
0.0
  9
$PUCSYDIR
 10
0.0
 20
1.0
 30
0.0
  9
$PUCSORTHOREF
  2

  9
$PUCSORTHOVIEW
 70
     0
  9
$PUCSORGTOP
 10
0.0
 20
0.0
 30
0.0
  9
$PUCSORGBOTTOM
 10
0.0
 20
0.0
 30
0.0
  9
$PUCSORGLEFT
 10
0.0
 20
0.0
 30
0.0
  9
$PUCSORGRIGHT
 10
0.0
 20
0.0
 30
0.0
  9
$PUCSORGFRONT
 10
0.0
 20
0.0
 30
0.0
  9
$PUCSORGBACK
 10
0.0
 20
0.0
 30
0.0
  9
$USERI1
 70
     0
  9
$USERI2
 70
     0
  9
$USERI3
 70
     0
  9
$USERI4
 70
     0
  9
$USERI5
 70
     0
  9
$USERR1
 40
0.0
  9
$USERR2
 40
0.0
  9
$USERR3
 40
0.0
  9
$USERR4
 40
0.0
  9
$USERR5
 40
0.0
  9
$WORLDVIEW
 70
     1
  9
$SHADEDGE
 70
     3
  9
$SHADEDIF
 70
    70
  9
$TILEMODE
 70
     1
  9
$MAXACTVP
 70
    64
  9
$PINSBASE
 10
0.0
 20
0.0
 30
0.0
  9
$PLIMCHECK
 70
     0
  9
$PEXTMIN
 10
1.0000000000E+20
 20
1.0000000000E+20
 30
1.0000000000E+20
  9
$PEXTMAX
 10
-1.0000000000E+20
 20
-1.0000000000E+20
 30
-1.0000000000E+20
  9
$PLIMMIN
 10
0.0
 20
0.0
  9
$PLIMMAX
 10
420.0
 20
297.0
  9
$UNITMODE
 70
     0
  9
$VISRETAIN
 70
     1
  9
$PLINEGEN
 70
     0
  9
$PSLTSCALE
 70
     1
  9
$TREEDEPTH
 70
  3020
  9
$CMLSTYLE
  2
Standard
  9
$CMLJUST
 70
     0
  9
$CMLSCALE
 40
20.0
  9
$PROXYGRAPHICS
 70
     1
  9
$MEASUREMENT
 70
     1
  9
$CELWEIGHT
370
    -1
  9
$ENDCAPS
280
     0
  9
$JOINSTYLE
280
     0
  9
$LWDISPLAY
290
     1
  9
$INSUNITS
 70
     4
  9
$HYPERLINKBASE
  1

  9
$STYLESHEET
  1

  9
$XEDIT
290
     1
  9
$CEPSNTYPE
380
     0
  9
$PSTYLEMODE
290
     1
  9
$FINGERPRINTGUID
  2
{BE6C08BA-D46D-4562-877B-3158D7E89B3A}
  9
$VERSIONGUID
  2
{FAEB1C32-E019-11D5-929B-00C0DF256EC4}
  9
$EXTNAMES
290
     1
  9
$PSVPSCALE
 40
0.0
  9
$OLESTARTUP
290
     0
  0
ENDSEC
  0
SECTION
  2
CLASSES
  0
CLASS
  1
ACDBDICTIONARYWDFLT
  2
AcDbDictionaryWithDefault
  3
ObjectDBX Classes
 90
        0
280
     0
281
     0
  0
CLASS
  1
VISUALSTYLE
  2
AcDbVisualStyle
  3
ObjectDBX Classes
 90
     4095
280
     0
281
     0
  0
CLASS
  1
MATERIAL
  2
AcDbMaterial
  3
ObjectDBX Classes
 90
     1153
280
     0
281
     0
  0
CLASS
  1
ACDBPLACEHOLDER
  2
AcDbPlaceHolder
  3
ObjectDBX Classes
 90
        0
280
     0
281
     0
  0
CLASS
  1
LAYOUT
  2
AcDbLayout
  3
ObjectDBX Classes
 90
        0
280
     0
281
     0
  0
ENDSEC
  0
SECTION
  2
TABLES
  0
TABLE
  2
VPORT
  5
8
330
0
100
AcDbSymbolTable
 70
     1
  0
VPORT
  5
29
330
8
100
AcDbSymbolTableRecord
100
AcDbViewportTableRecord
  2
*Active
 70
     0
 10
0.0
 20
0.0
 11
1.0
 21
1.0
 12
105.0
 22
148.5
 13
0.0
 23
0.0
 14
10.0
 24
10.0
 15
10.0
 25
10.0
 16
0.0
 26
0.0
 36
1.0
 17
0.0
 27
0.0
 37
0.0
 40
297.0
 41
0.7070707071
 42
50.0
 43
0.0
 44
0.0
 50
0.0
 51
0.0
 71
     0
 72
  2000
 73
     1
 74
     3
 75
     0
 76
     0
 77
     0
 78
     0
281
     0
 65
     1
110
0.0
120
0.0
130
0.0
111
1.0
121
0.0
131
0.0
112
0.0
122
1.0
132
0.0
 79
     0
146
0.0
  0
ENDTAB
  0
TABLE
  2
LTYPE
  5
5
330
0
100
AcDbSymbolTable
 70
     6
  0
LTYPE
  5
14
330
5
100
AcDbSymbolTableRecord
100
AcDbLinetypeTableRecord
  2
ByBlock
 70
     0
  3

 72
    65
 73
     0
 40
0.0
  0
LTYPE
  5
15
330
5
100
AcDbSymbolTableRecord
100
AcDbLinetypeTableRecord
  2
ByLayer
 70
     0
  3

 72
    65
 73
     0
 40
0.0
  0
LTYPE
  5
16
330
5
100
AcDbSymbolTableRecord
100
AcDbLinetypeTableRecord
  2
Continuous
 70
     0
  3
Solid line
 72
    65
 73
     0
 40
0.0
  0
LTYPE
  5
3F
330
5
100
AcDbSymbolTableRecord
100
AcDbLinetypeTableRecord
  2
HIDDEN
 70
     0
  3
Hidden __ __ __ __ __ __ __ __ __ __ __ __ __ __
 72
    65
 73
     2
 40
1.905
 49
1.27
 74
     0
 49
-0.635
 74
     0
  0
LTYPE
  5
40
330
5
100
AcDbSymbolTableRecord
100
AcDbLinetypeTableRecord
  2
PHANTOM
 70
     0
  3
Phantom ______  __  __  ______  __  __  ______
 72
    65
 73
     6
 40
12.7
 49
6.35
 74
     0
 49
-1.27
 74
     0
 49
1.27
 74
     0
 49
-1.27
 74
     0
 49
1.27
 74
     0
 49
-1.27
 74
     0
  0
LTYPE
  5
41
330
5
100
AcDbSymbolTableRecord
100
AcDbLinetypeTableRecord
  2
CENTER
 70
     0
  3
Center ____ _ ____ _ ____ _ ____ _ ____ _ ____
 72
    65
 73
     4
 40
10.16
 49
6.35
 74
     0
 49
-1.27
 74
     0
 49
1.27
 74
     0
 49
-1.27
 74
     0
  0
LTYPE
  5
42
330
5
100
AcDbSymbolTableRecord
100
AcDbLinetypeTableRecord
  2
CENTERX2
 70
     0
  3
Center (2x) ________  __  ________  __  _____
 72
    65
 73
     4
 40
20.32
 49
12.7
 74
     0
 49
-2.54
 74
     0
 49
2.54
 74
     0
 49
-2.54
 74
     0
  0
LTYPE
  5
43
330
5
100
AcDbSymbolTableRecord
100
AcDbLinetypeTableRecord
  2
DOT2
 70
     0
  3
Dot (.5x) ........................................
 72
    65
 73
     2
 40
0.635
 49
0.0
 74
     0
 49
-0.635
 74
     0
  0
ENDTAB
  0
TABLE
  2
LAYER
  5
2
330
0
100
AcDbSymbolTable
 70
     4
  0
LAYER
  5
10
330
2
100
AcDbSymbolTableRecord
100
AcDbLayerTableRecord
  2
0
 70
     0
 62
     7
  6
Continuous
370
    -3
390
F
  0
LAYER
  5
44
330
2
100
AcDbSymbolTableRecord
100
AcDbLayerTableRecord
  2
SLD-0
 70
     0
 62
   179
  6
Continuous
370
    -3
390
F
  0
LAYER
  5
45
330
2
100
AcDbSymbolTableRecord
100
AcDbLayerTableRecord
  2
SLD-DEFPOINTS
 70
     0
 62
   179
  6
Continuous
370
    -3
390
F
  0
LAYER
  5
46
330
2
100
AcDbSymbolTableRecord
100
AcDbLayerTableRecord
  2
LAYER_1
 70
     0
 62
   179
  6
Continuous
370
    -3
390
F
  0
ENDTAB
  0
TABLE
  2
STYLE
  5
3
330
0
100
AcDbSymbolTable
 70
     2
  0
STYLE
  5
11
330
3
100
AcDbSymbolTableRecord
100
AcDbTextStyleTableRecord
  2
Standard
 70
     0
 40
0.0
 41
1.0
 50
0.0
 71
     0
 42
3.5
  3
txt
  4

  0
STYLE
  5
AC
330
3
100
AcDbSymbolTableRecord
100
AcDbTextStyleTableRecord
  2
SLDTEXTSTYLE0
 70
     0
 40
0.0
 41
0.75
 50
0.0
 71
     0
 42
0.2
  3
TXT
  4

  0
ENDTAB
  0
TABLE
  2
VIEW
  5
6
330
0
100
AcDbSymbolTable
 70
     0
  0
ENDTAB
  0
TABLE
  2
UCS
  5
7
330
0
100
AcDbSymbolTable
 70
     0
  0
ENDTAB
  0
TABLE
  2
APPID
  5
9
330
0
100
AcDbSymbolTable
 70
     1
  0
APPID
  5
12
330
9
100
AcDbSymbolTableRecord
100
AcDbRegAppTableRecord
  2
ACAD
 70
     0
  0
ENDTAB
  0
TABLE
  2
DIMSTYLE
  5
A
330
0
100
AcDbSymbolTable
 70
     4
100
AcDbDimStyleTable
  0
DIMSTYLE
105
27
330
A
100
AcDbSymbolTableRecord
100
AcDbDimStyleTableRecord
  2
ISO-25
 70
     0
 41
2.5
 42
0.625
 43
3.75
 44
1.25
 73
     0
 74
     0
 77
     1
 78
     8
140
2.5
141
2.5
143
0.0393700787
147
0.625
171
     3
172
     1
178
     0
271
     2
272
     2
274
     3
278
    44
283
     0
284
     8
340
11
  0
DIMSTYLE
105
15F
102
{ACAD_REACTORS
330
15E
330
16A
330
175
330
197
330
1B7
330
1C2
102
}
330
A
100
AcDbSymbolTableRecord
100
AcDbDimStyleTableRecord
  2
SLDDIMSTYLE0
 70
     0
 41
3.302
 44
0.0
 45
0.000000001
 73
     0
 74
     0
 77
     1
 78
     4
 79
     1
140
3.5
147
0.875
173
     1
178
     0
271
     2
272
     2
276
     2
284
    12
340
AC
  0
DIMSTYLE
105
181
102
{ACAD_REACTORS
330
180
330
1A2
102
}
330
A
100
AcDbSymbolTableRecord
100
AcDbDimStyleTableRecord
  2
SLDDIMSTYLE1
 70
     0
 41
3.302
 44
0.0
 45
0.000000001
 73
     0
 74
     0
 77
     1
 78
    12
 79
     3
140
3.5
147
0.875
172
     1
173
     1
178
     0
271
     3
272
     3
276
     2
284
    12
289
     0
340
AC
  0
DIMSTYLE
105
18F
102
{ACAD_REACTORS
330
18E
330
1AF
102
}
330
A
100
AcDbSymbolTableRecord
100
AcDbDimStyleTableRecord
  2
SLDDIMSTYLE2
 70
     0
 41
3.302
 44
0.0
 45
0.000000001
 73
     0
 74
     0
 77
     1
 78
     4
 79
     1
140
3.5
141
0.0
147
0.875
173
     1
178
     0
271
     3
272
     3
276
     2
284
    12
340
AC
  0
ENDTAB
  0
TABLE
  2
BLOCK_RECORD
  5
1
330
0
100
AcDbSymbolTable
 70
    14
  0
BLOCK_RECORD
  5
1F
330
1
100
AcDbSymbolTableRecord
100
AcDbBlockTableRecord
  2
*Model_Space
340
22
  0
BLOCK_RECORD
  5
1B
330
1
100
AcDbSymbolTableRecord
100
AcDbBlockTableRecord
  2
*Paper_Space
340
1E
  0
BLOCK_RECORD
  5
23
330
1
100
AcDbSymbolTableRecord
100
AcDbBlockTableRecord
  2
*Paper_Space0
340
26
  0
BLOCK_RECORD
  5
47
330
1
100
AcDbSymbolTableRecord
100
AcDbBlockTableRecord
  2
BLOCK 2
340
0
102
{BLKREFS
331
201
102
}
  0
BLOCK_RECORD
  5
B2
330
1
100
AcDbSymbolTableRecord
100
AcDbBlockTableRecord
  2
SW_NOTE_0
340
0
102
{BLKREFS
331
B7
102
}
  0
BLOCK_RECORD
  5
B9
330
1
100
AcDbSymbolTableRecord
100
AcDbBlockTableRecord
  2
SW_NOTE_1
340
0
102
{BLKREFS
331
C1
102
}
  0
BLOCK_RECORD
  5
160
330
1
100
AcDbSymbolTableRecord
100
AcDbBlockTableRecord
  2
_D
340
0
  0
BLOCK_RECORD
  5
16B
330
1
100
AcDbSymbolTableRecord
100
AcDbBlockTableRecord
  2
_D_1
340
0
  0
BLOCK_RECORD
  5
176
330
1
100
AcDbSymbolTableRecord
100
AcDbBlockTableRecord
  2
_D_2
340
0
  0
BLOCK_RECORD
  5
182
330
1
100
AcDbSymbolTableRecord
100
AcDbBlockTableRecord
  2
_D_3
340
0
  0
BLOCK_RECORD
  5
190
330
1
100
AcDbSymbolTableRecord
100
AcDbBlockTableRecord
  2
_D_4
340
0
  0
BLOCK_RECORD
  5
198
330
1
100
AcDbSymbolTableRecord
100
AcDbBlockTableRecord
  2
_D_5
340
0
  0
BLOCK_RECORD
  5
1A3
330
1
100
AcDbSymbolTableRecord
100
AcDbBlockTableRecord
  2
_D_6
340
0
  0
BLOCK_RECORD
  5
1B0
330
1
100
AcDbSymbolTableRecord
100
AcDbBlockTableRecord
  2
_D_7
340
0
  0
BLOCK_RECORD
  5
1B8
330
1
100
AcDbSymbolTableRecord
100
AcDbBlockTableRecord
  2
_D_8
340
0
  0
BLOCK_RECORD
  5
1C3
330
1
100
AcDbSymbolTableRecord
100
AcDbBlockTableRecord
  2
_D_9
340
0
  0
ENDTAB
  0
ENDSEC
  0
SECTION
  2
BLOCKS
  0
BLOCK
  5
20
330
1F
100
AcDbEntity
  8
0
100
AcDbBlockBegin
  2
*Model_Space
 70
     0
 10
0.0
 20
0.0
 30
0.0
  3
*Model_Space
  1

  0
ENDBLK
  5
21
330
1F
100
AcDbEntity
  8
0
100
AcDbBlockEnd
  0
BLOCK
  5
1C
330
1B
100
AcDbEntity
 67
     1
  8
0
100
AcDbBlockBegin
  2
*Paper_Space
 70
     0
 10
0.0
 20
0.0
 30
0.0
  3
*Paper_Space
  1

  0
ENDBLK
  5
1D
330
1B
100
AcDbEntity
 67
     1
  8
0
100
AcDbBlockEnd
  0
BLOCK
  5
24
330
23
100
AcDbEntity
  8
0
100
AcDbBlockBegin
  2
*Paper_Space0
 70
     0
 10
0.0
 20
0.0
 30
0.0
  3
*Paper_Space0
  1

  0
ENDBLK
  5
25
330
23
100
AcDbEntity
  8
0
100
AcDbBlockEnd
  0
BLOCK
  5
48
330
47
100
AcDbEntity
  8
0
100
AcDbBlockBegin
  2
BLOCK 2
 70
     0
 10
0.0
 20
0.0
 30
0.0
  3
BLOCK 2
  1

  0
LINE
  5
4A
330
47
100
AcDbEntity
  8
LAYER_1
370
     0
100
AcDbLine
 10
25.4702799415
 20
-14.6402777741
 30
0.0
 11
12.2517930742
 21
-14.6402777741
 31
0.0
  0
LINE
  5
4B
330
47
100
AcDbEntity
  8
LAYER_1
370
     0
100
AcDbLine
 10
7.2732855885
 20
-11.6382215683
 30
0.0
 11
7.2732855885
 21
-9.3334526886
 31
0.0
  0
LINE
  5
4C
330
47
100
AcDbEntity
  8
LAYER_1
370
     0
100
AcDbLine
 10
12.2517930742
 20
-6.3313964828
 30
0.0
 11
25.4702799415
 21
-6.3313964828
 31
0.0
  0
LINE
  5
4D
330
47
100
AcDbEntity
  8
LAYER_1
370
     0
100
AcDbLine
 10
25.4702799415
 20
-6.3313964828
 30
0.0
 11
25.4702799415
 21
-8.8084201367
 31
0.0
  0
LINE
  5
4E
330
47
100
AcDbEntity
  8
LAYER_1
370
     0
100
AcDbLine
 10
25.4702799415
 20
-8.8084201367
 30
0.0
 11
12.2517930742
 21
-8.8084201367
 31
0.0
  0
LINE
  5
4F
330
47
100
AcDbEntity
  8
LAYER_1
370
     0
100
AcDbLine
 10
9.7506537519
 20
-9.9721733916
 30
0.0
 11
9.7506537519
 21
-10.9998453749
 31
0.0
  0
LINE
  5
50
330
47
100
AcDbEntity
  8
LAYER_1
370
     0
100
AcDbLine
 10
12.2517930742
 20
-12.1632541202
 30
0.0
 11
25.4702799415
 21
-12.1632541202
 31
0.0
  0
LINE
  5
51
330
47
100
AcDbEntity
  8
LAYER_1
370
     0
100
AcDbLine
 10
25.4702799415
 20
-12.1632541202
 30
0.0
 11
25.4702799415
 21
-14.6402777741
 31
0.0
  0
LINE
  5
52
330
47
100
AcDbEntity
  8
LAYER_1
370
     0
100
AcDbLine
 10
40.1918619691
 20
-14.6402777741
 30
0.0
 11
36.2561848868
 21
-14.6402777741
 31
0.0
  0
LINE
  5
53
330
47
100
AcDbEntity
  8
LAYER_1
370
     0
100
AcDbLine
 10
36.2561848868
 20
-14.6402777741
 30
0.0
 11
36.2561848868
 21
-12.1635986298
 31
0.0
  0
LINE
  5
54
330
47
100
AcDbEntity
  8
LAYER_1
370
     0
100
AcDbLine
 10
36.2561848868
 20
-12.1635986298
 30
0.0
 11
40.1918619691
 21
-12.1635986298
 31
0.0
  0
LINE
  5
55
330
47
100
AcDbEntity
  8
LAYER_1
370
     0
100
AcDbLine
 10
26.6209418336
 20
-6.3313964828
 30
0.0
 11
29.097620978
 21
-6.3313964828
 31
0.0
  0
LINE
  5
56
330
47
100
AcDbEntity
  8
LAYER_1
370
     0
100
AcDbLine
 10
29.097620978
 20
-6.3313964828
 30
0.0
 11
29.097620978
 21
-7.8465494772
 31
0.0
  0
LINE
  5
57
330
47
100
AcDbEntity
  8
LAYER_1
370
     0
100
AcDbLine
 10
31.2356472361
 20
-8.6699272982
 30
0.0
 11
42.6930012914
 21
-8.6699272982
 31
0.0
  0
LINE
  5
58
330
47
100
AcDbEntity
  8
LAYER_1
370
     0
100
AcDbLine
 10
42.6930012914
 20
-8.6699272982
 30
0.0
 11
42.6930012914
 21
-6.3313964828
 31
0.0
  0
LINE
  5
59
330
47
100
AcDbEntity
  8
LAYER_1
370
     0
100
AcDbLine
 10
42.6930012914
 20
-6.3313964828
 30
0.0
 11
45.1700249453
 21
-6.3313964828
 31
0.0
  0
LINE
  5
5A
330
47
100
AcDbEntity
  8
LAYER_1
370
     0
100
AcDbLine
 10
45.1700249453
 20
-6.3313964828
 30
0.0
 11
45.1700249453
 21
-11.2854437906
 31
0.0
  0
LINE
  5
5B
330
47
100
AcDbEntity
  8
LAYER_1
370
     0
100
AcDbLine
 10
86.7400973633
 20
-14.6402777741
 30
0.0
 11
84.2630737094
 21
-14.6402777741
 31
0.0
  0
LINE
  5
5C
330
47
100
AcDbEntity
  8
LAYER_1
370
     0
100
AcDbLine
 10
84.2630737094
 20
-14.6402777741
 30
0.0
 11
84.2630737094
 21
-6.3313964828
 31
0.0
  0
LINE
  5
5D
330
47
100
AcDbEntity
  8
LAYER_1
370
     0
100
AcDbLine
 10
84.2630737094
 20
-6.3313964828
 30
0.0
 11
86.7400973633
 21
-6.3313964828
 31
0.0
  0
LINE
  5
5E
330
47
100
AcDbEntity
  8
LAYER_1
370
     0
100
AcDbLine
 10
86.7400973633
 20
-6.3313964828
 30
0.0
 11
86.7400973633
 21
-14.6402777741
 31
0.0
  0
LINE
  5
5F
330
47
100
AcDbEntity
  8
LAYER_1
370
     0
100
AcDbLine
 10
64.5171644261
 20
-14.6402777741
 30
0.0
 11
51.2983330492
 21
-14.6402777741
 31
0.0
  0
LINE
  5
60
330
47
100
AcDbEntity
  8
LAYER_1
370
     0
100
AcDbLine
 10
46.3199978183
 20
-11.6382215683
 30
0.0
 11
46.3199978183
 21
-9.3334526886
 31
0.0
  0
LINE
  5
61
330
47
100
AcDbEntity
  8
LAYER_1
370
     0
100
AcDbLine
 10
51.2983330492
 20
-6.3313964828
 30
0.0
 11
64.5171644261
 21
-6.3313964828
 31
0.0
  0
LINE
  5
62
330
47
100
AcDbEntity
  8
LAYER_1
370
     0
100
AcDbLine
 10
64.5171644261
 20
-6.3313964828
 30
0.0
 11
64.5171644261
 21
-8.8084201367
 31
0.0
  0
LINE
  5
63
330
47
100
AcDbEntity
  8
LAYER_1
370
     0
100
AcDbLine
 10
64.5171644261
 20
-8.8084201367
 30
0.0
 11
51.2983330492
 21
-8.8084201367
 31
0.0
  0
LINE
  5
64
330
47
100
AcDbEntity
  8
LAYER_1
370
     0
100
AcDbLine
 10
48.797193727
 20
-9.9721733916
 30
0.0
 11
48.797193727
 21
-10.6470675972
 31
0.0
  0
LINE
  5
65
330
47
100
AcDbEntity
  8
LAYER_1
370
     0
100
AcDbLine
 10
51.2983330492
 20
-12.1632541202
 30
0.0
 11
64.5171644261
 21
-12.1632541202
 31
0.0
  0
LINE
  5
66
330
47
100
AcDbEntity
  8
LAYER_1
370
     0
100
AcDbLine
 10
64.5171644261
 20
-12.1632541202
 30
0.0
 11
64.5171644261
 21
-14.6402777741
 31
0.0
  0
LINE
  5
67
330
47
100
AcDbEntity
  8
LAYER_1
370
     0
100
AcDbLine
 10
65.6795396429
 20
-6.3313964828
 30
0.0
 11
83.1578870777
 21
-6.3313964828
 31
0.0
  0
LINE
  5
68
330
47
100
AcDbEntity
  8
LAYER_1
370
     0
100
AcDbLine
 10
83.1578870777
 20
-6.3313964828
 30
0.0
 11
83.1578870777
 21
-8.8080756271
 31
0.0
  0
LINE
  5
69
330
47
100
AcDbEntity
  8
LAYER_1
370
     0
100
AcDbLine
 10
83.1578870777
 20
-8.8080756271
 30
0.0
 11
68.1565632968
 21
-8.8080756271
 31
0.0
  0
LINE
  5
6A
330
47
100
AcDbEntity
  8
LAYER_1
370
     0
100
AcDbLine
 10
68.1565632968
 20
-8.8080756271
 30
0.0
 11
68.1358927239
 21
-9.774252656
 31
0.0
  0
LINE
  5
6B
330
47
100
AcDbEntity
  8
LAYER_1
370
     0
100
AcDbLine
 10
68.1358927239
 20
-9.774252656
 30
0.0
 11
77.7931843881
 21
-9.7814873565
 31
0.0
  0
LINE
  5
6C
330
47
100
AcDbEntity
  8
LAYER_1
370
     0
100
AcDbLine
 10
77.7931843881
 20
-9.7814873565
 30
0.0
 11
77.7931843881
 21
-12.2514485646
 31
0.0
  0
LINE
  5
6D
330
47
100
AcDbEntity
  8
LAYER_1
370
     0
100
AcDbLine
 10
77.7931843881
 20
-12.2514485646
 30
0.0
 11
68.1358927239
 21
-12.2514485646
 31
0.0
  0
LINE
  5
6E
330
47
100
AcDbEntity
  8
LAYER_1
370
     0
100
AcDbLine
 10
68.1358927239
 20
-12.2514485646
 30
0.0
 11
68.1565632968
 21
-14.6402777741
 31
0.0
  0
LINE
  5
6F
330
47
100
AcDbEntity
  8
LAYER_1
370
     0
100
AcDbLine
 10
68.1565632968
 20
-14.6402777741
 30
0.0
 11
65.6795396429
 21
-14.6402777741
 31
0.0
  0
LINE
  5
70
330
47
100
AcDbEntity
  8
LAYER_1
370
     0
100
AcDbLine
 10
65.6795396429
 20
-14.6402777741
 30
0.0
 11
65.6795396429
 21
-6.3313964828
 31
0.0
  0
SPLINE
  5
71
330
47
100
AcDbEntity
  8
LAYER_1
370
     0
100
AcDbSpline
210
0.0
220
0.0
230
1.0
 70
     8
 71
     3
 72
     8
 73
     4
 74
     0
 42
0.00000001
 43
0.00000001
 12
1.0
 22
0.0
 32
0.0
 13
1.0
 23
0.0
 33
0.0
 40
1.0
 40
1.0
 40
1.0
 40
1.0
 40
2.0
 40
2.0
 40
2.0
 40
2.0
 10
12.251793074194
 20
-14.64027777411771
 30
0.0
 10
11.44564073064553
 20
-14.64027777411771
 30
0.0
 10
10.74249674210604
 20
-14.59790309964914
 30
0.0
 10
10.1613091337444
 20
-14.51418727935756
 30
0.0
  0
SPLINE
  5
72
330
47
100
AcDbEntity
  8
LAYER_1
370
     0
100
AcDbSpline
210
0.0
220
0.0
230
1.0
 70
     8
 71
     3
 72
     8
 73
     4
 74
     0
 42
0.00000001
 43
0.00000001
 12
1.0
 22
0.0
 32
0.0
 13
1.0
 23
0.0
 33
0.0
 40
2.0
 40
2.0
 40
2.0
 40
2.0
 40
3.0
 40
3.0
 40
3.0
 40
3.0
 10
10.1613091337444
 20
-14.51418727935756
 30
0.0
 10
9.544637041884675
 20
-14.42564832538664
 30
0.0
 10
9.021671547223749
 20
-14.26820746171073
 30
0.0
 10
8.60757106989672
 20
-14.04737684110621
 30
0.0
  0
SPLINE
  5
73
330
47
100
AcDbEntity
  8
LAYER_1
370
     0
100
AcDbSpline
210
0.0
220
0.0
230
1.0
 70
     8
 71
     3
 72
     8
 73
     4
 74
     0
 42
0.00000001
 43
0.00000001
 12
1.0
 22
0.0
 32
0.0
 13
1.0
 23
0.0
 33
0.0
 40
3.0
 40
3.0
 40
3.0
 40
3.0
 40
4.0
 40
4.0
 40
4.0
 40
4.0
 10
8.60757106989672
 20
-14.04737684110621
 30
0.0
 10
8.15695258042604
 20
-13.8072536857843
 30
0.0
 10
7.816232636934832
 20
-13.47962510513704
 30
0.0
 10
7.595402016330317
 20
-13.07344834742608
 30
0.0
  0
SPLINE
  5
74
330
47
100
AcDbEntity
  8
LAYER_1
370
     0
100
AcDbSpline
210
0.0
220
0.0
230
1.0
 70
     8
 71
     3
 72
     8
 73
     4
 74
     0
 42
0.00000001
 43
0.00000001
 12
1.0
 22
0.0
 32
0.0
 13
1.0
 23
0.0
 33
0.0
 40
4.0
 40
4.0
 40
4.0
 40
4.0
 40
5.0
 40
5.0
 40
5.0
 40
5.0
 10
7.595402016330317
 20
-13.07344834742608
 30
0.0
 10
7.382150605793352
 20
-12.68139648120465
 30
0.0
 10
7.273285588459457
 20
-12.19839409417262
 30
0.0
 10
7.273285588459457
 20
-11.638221568271
 30
0.0
  0
SPLINE
  5
75
330
47
100
AcDbEntity
  8
LAYER_1
370
     0
100
AcDbSpline
210
0.0
220
0.0
230
1.0
 70
     8
 71
     3
 72
     8
 73
     4
 74
     0
 42
0.00000001
 43
0.00000001
 12
1.0
 22
0.0
 32
0.0
 13
1.0
 23
0.0
 33
0.0
 40
6.0
 40
6.0
 40
6.0
 40
6.0
 40
7.0
 40
7.0
 40
7.0
 40
7.0
 10
7.273285588459457
 20
-9.33345268863886
 30
0.0
 10
7.273285588459457
 20
-8.773280162737237
 30
0.0
 10
7.382150605793352
 20
-8.290277775705208
 30
0.0
 10
7.595746525878842
 20
-7.897881399935252
 30
0.0
  0
SPLINE
  5
76
330
47
100
AcDbEntity
  8
LAYER_1
370
     0
100
AcDbSpline
210
0.0
220
0.0
230
1.0
 70
     8
 71
     3
 72
     8
 73
     4
 74
     0
 42
0.00000001
 43
0.00000001
 12
1.0
 22
0.0
 32
0.0
 13
1.0
 23
0.0
 33
0.0
 40
7.0
 40
7.0
 40
7.0
 40
7.0
 40
8.0
 40
8.0
 40
8.0
 40
8.0
 10
7.595746525878842
 20
-7.897881399935252
 30
0.0
 10
7.816232636934832
 20
-7.492049151772822
 30
0.0
 10
8.15695258042604
 20
-7.164420571125562
 30
0.0
 10
8.607915579445244
 20
-6.923952906255123
 30
0.0
  0
SPLINE
  5
77
330
47
100
AcDbEntity
  8
LAYER_1
370
     0
100
AcDbSpline
210
0.0
220
0.0
230
1.0
 70
     8
 71
     3
 72
     8
 73
     4
 74
     0
 42
0.00000001
 43
0.00000001
 12
1.0
 22
0.0
 32
0.0
 13
1.0
 23
0.0
 33
0.0
 40
8.0
 40
8.0
 40
8.0
 40
8.0
 40
9.0
 40
9.0
 40
9.0
 40
9.0
 10
8.607915579445244
 20
-6.923952906255123
 30
0.0
 10
9.021671547223749
 20
-6.703466795199134
 30
0.0
 10
9.544637041884675
 20
-6.546025931523217
 30
0.0
 10
10.16165364329292
 20
-6.457486977552295
 30
0.0
  0
SPLINE
  5
78
330
47
100
AcDbEntity
  8
LAYER_1
370
     0
100
AcDbSpline
210
0.0
220
0.0
230
1.0
 70
     8
 71
     3
 72
     8
 73
     4
 74
     0
 42
0.00000001
 43
0.00000001
 12
1.0
 22
0.0
 32
0.0
 13
1.0
 23
0.0
 33
0.0
 40
9.0
 40
9.0
 40
9.0
 40
9.0
 40
10.0
 40
10.0
 40
10.0
 40
10.0
 10
10.16165364329292
 20
-6.457486977552295
 30
0.0
 10
10.74490830894572
 20
-6.373771157260724
 30
0.0
 10
11.44805229748521
 20
-6.331396482792151
 30
0.0
 10
12.251793074194
 20
-6.331396482792151
 30
0.0
  0
SPLINE
  5
79
330
47
100
AcDbEntity
  8
LAYER_1
370
     0
100
AcDbSpline
210
0.0
220
0.0
230
1.0
 70
     8
 71
     3
 72
     8
 73
     4
 74
     0
 42
0.00000001
 43
0.00000001
 12
1.0
 22
0.0
 32
0.0
 13
1.0
 23
0.0
 33
0.0
 40
13.0
 40
13.0
 40
13.0
 40
13.0
 40
14.0
 40
14.0
 40
14.0
 40
14.0
 10
12.251793074194
 20
-8.808420136686784
 30
0.0
 10
11.59377983651128
 20
-8.808420136686784
 30
0.0
 10
11.04738769255065
 20
-8.792572697454634
 30
0.0
 10
10.66842718917317
 20
-8.834947371923208
 30
0.0
  0
SPLINE
  5
7A
330
47
100
AcDbEntity
  8
LAYER_1
370
     0
100
AcDbSpline
210
0.0
220
0.0
230
1.0
 70
     8
 71
     3
 72
     8
 73
     4
 74
     0
 42
0.00000001
 43
0.00000001
 12
1.0
 22
0.0
 32
0.0
 13
1.0
 23
0.0
 33
0.0
 40
14.0
 40
14.0
 40
14.0
 40
14.0
 40
15.0
 40
15.0
 40
15.0
 40
15.0
 10
10.66842718917317
 20
-8.834947371923208
 30
0.0
 10
10.24157985855072
 20
-8.88214518007113
 30
0.0
 10
10.1461507136093
 20
-8.935199650543979
 30
0.0
 10
10.04452039679443
 20
-8.994455292890276
 30
0.0
  0
SPLINE
  5
7B
330
47
100
AcDbEntity
  8
LAYER_1
370
     0
100
AcDbSpline
210
0.0
220
0.0
230
1.0
 70
     8
 71
     3
 72
     8
 73
     4
 74
     0
 42
0.00000001
 43
0.00000001
 12
1.0
 22
0.0
 32
0.0
 13
1.0
 23
0.0
 33
0.0
 40
15.0
 40
15.0
 40
15.0
 40
15.0
 40
16.0
 40
16.0
 40
16.0
 40
16.0
 10
10.04452039679443
 20
-8.994455292890276
 30
0.0
 10
9.885012475827358
 20
-9.087472870992023
 30
0.0
 10
9.850906030523385
 20
-9.226310219047589
 30
0.0
 10
9.79922959824464
 20
-9.469189450757703
 30
0.0
  0
SPLINE
  5
7C
330
47
100
AcDbEntity
  8
LAYER_1
370
     0
100
AcDbSpline
210
0.0
220
0.0
230
1.0
 70
     8
 71
     3
 72
     8
 73
     4
 74
     0
 42
0.00000001
 43
0.00000001
 12
1.0
 22
0.0
 32
0.0
 13
1.0
 23
0.0
 33
0.0
 40
16.0
 40
16.0
 40
16.0
 40
16.0
 40
17.0
 40
17.0
 40
17.0
 40
17.0
 10
9.79922959824464
 20
-9.469189450757703
 30
0.0
 10
9.763056095649514
 20
-9.765123152940664
 30
0.0
 10
9.750653751902615
 20
-9.834025062645662
 30
0.0
 10
9.750653751902615
 20
-9.97217339160418
 30
0.0
  0
SPLINE
  5
7D
330
47
100
AcDbEntity
  8
LAYER_1
370
     0
100
AcDbSpline
210
0.0
220
0.0
230
1.0
 70
     8
 71
     3
 72
     8
 73
     4
 74
     0
 42
0.00000001
 43
0.00000001
 12
1.0
 22
0.0
 32
0.0
 13
1.0
 23
0.0
 33
0.0
 40
18.0
 40
18.0
 40
18.0
 40
18.0
 40
19.0
 40
19.0
 40
19.0
 40
19.0
 10
9.750653751902615
 20
-10.99984537485421
 30
0.0
 10
9.750653751902615
 20
-11.1376491942642
 30
0.0
 10
9.775802948944941
 20
-11.29577907703717
 30
0.0
 10
9.800952145987262
 20
-11.50592990163741
 30
0.0
  0
SPLINE
  5
7E
330
47
100
AcDbEntity
  8
LAYER_1
370
     0
100
AcDbSpline
210
0.0
220
0.0
230
1.0
 70
     8
 71
     3
 72
     8
 73
     4
 74
     0
 42
0.00000001
 43
0.00000001
 12
1.0
 22
0.0
 32
0.0
 13
1.0
 23
0.0
 33
0.0
 40
19.0
 40
19.0
 40
19.0
 40
19.0
 40
20.0
 40
20.0
 40
20.0
 40
20.0
 10
9.800952145987262
 20
-11.50592990163741
 30
0.0
 10
9.806464298763663
 20
-11.51350911170496
 30
0.0
 10
9.813354489734161
 20
-11.75948892935179
 30
0.0
 10
10.0262613907226
 20
-11.92244194580411
 30
0.0
  0
SPLINE
  5
7F
330
47
100
AcDbEntity
  8
LAYER_1
370
     0
100
AcDbSpline
210
0.0
220
0.0
230
1.0
 70
     8
 71
     3
 72
     8
 73
     4
 74
     0
 42
0.00000001
 43
0.00000001
 12
1.0
 22
0.0
 32
0.0
 13
1.0
 23
0.0
 33
0.0
 40
20.0
 40
20.0
 40
20.0
 40
20.0
 40
21.0
 40
21.0
 40
21.0
 40
21.0
 10
10.0262613907226
 20
-11.92244194580411
 30
0.0
 10
10.27534179430616
 20
-12.11295572613843
 30
0.0
 10
10.40281032726041
 20
-12.06885850392723
 30
0.0
 10
10.6894422716332
 20
-12.09986436329448
 30
0.0
  0
SPLINE
  5
80
330
47
100
AcDbEntity
  8
LAYER_1
370
     0
100
AcDbSpline
210
0.0
220
0.0
230
1.0
 70
     8
 71
     3
 72
     8
 73
     4
 74
     0
 42
0.00000001
 43
0.00000001
 12
1.0
 22
0.0
 32
0.0
 13
1.0
 23
0.0
 33
0.0
 40
21.0
 40
21.0
 40
21.0
 40
21.0
 40
22.0
 40
22.0
 40
22.0
 40
22.0
 10
10.6894422716332
 20
-12.09986436329448
 30
0.0
 10
11.06909179410773
 20
-12.14086099956895
 30
0.0
 10
11.59446885560833
 20
-12.16325412022308
 30
0.0
 10
12.251793074194
 20
-12.16325412022308
 30
0.0
  0
SPLINE
  5
81
330
47
100
AcDbEntity
  8
LAYER_1
370
     0
100
AcDbSpline
210
0.0
220
0.0
230
1.0
 70
     8
 71
     3
 72
     8
 73
     4
 74
     0
 42
0.00000001
 43
0.00000001
 12
1.0
 22
0.0
 32
0.0
 13
1.0
 23
0.0
 33
0.0
 40
3.0
 40
3.0
 40
3.0
 40
3.0
 40
4.0
 40
4.0
 40
4.0
 40
4.0
 10
40.1918619691187
 20
-12.1635986297716
 30
0.0
 10
40.84918618770437
 20
-12.1635986297716
 30
0.0
 10
41.40212401308697
 20
-12.1649766679657
 30
0.0
 10
41.77695040188215
 20
-12.12260199349713
 30
0.0
  0
SPLINE
  5
82
330
47
100
AcDbEntity
  8
LAYER_1
370
     0
100
AcDbSpline
210
0.0
220
0.0
230
1.0
 70
     8
 71
     3
 72
     8
 73
     4
 74
     0
 42
0.00000001
 43
0.00000001
 12
1.0
 22
0.0
 32
0.0
 13
1.0
 23
0.0
 33
0.0
 40
4.0
 40
4.0
 40
4.0
 40
4.0
 40
5.0
 40
5.0
 40
5.0
 40
5.0
 10
41.77695040188215
 20
-12.12260199349713
 30
0.0
 10
42.19794107017968
 20
-12.07574869489773
 30
0.0
 10
42.35572644340412
 20
-12.05094400740393
 30
0.0
 10
42.49215222462002
 20
-11.93243272271134
 30
0.0
  0
SPLINE
  5
83
330
47
100
AcDbEntity
  8
LAYER_1
370
     0
100
AcDbSpline
210
0.0
220
0.0
230
1.0
 70
     8
 71
     3
 72
     8
 73
     4
 74
     0
 42
0.00000001
 43
0.00000001
 12
1.0
 22
0.0
 32
0.0
 13
1.0
 23
0.0
 33
0.0
 40
5.0
 40
5.0
 40
5.0
 40
5.0
 40
6.0
 40
6.0
 40
6.0
 40
6.0
 10
42.49215222462002
 20
-11.93243272271134
 30
0.0
 10
42.62995604403001
 20
-11.81254339982464
 30
0.0
 10
42.60239528014802
 20
-11.16486544859767
 30
0.0
 10
42.62237683396246
 20
-11.14660644252585
 30
0.0
  0
SPLINE
  5
84
330
47
100
AcDbEntity
  8
LAYER_1
370
     0
100
AcDbSpline
210
0.0
220
0.0
230
1.0
 70
     8
 71
     2
 72
     6
 73
     3
 74
     0
 42
0.00000001
 43
0.00000001
 12
1.0
 22
0.0
 32
0.0
 13
1.0
 23
0.0
 33
0.0
 40
6.0
 40
6.0
 40
6.0
 40
7.0
 40
7.0
 40
7.0
 10
42.62237683396246
 20
-11.14660644252585
 30
0.0
 10
34.38618705737568
 20
-11.15108506665667
 30
0.0
 10
31.24770507031307
 20
-11.14660644252585
 30
0.0
  0
SPLINE
  5
85
330
47
100
AcDbEntity
  8
LAYER_1
370
     0
100
AcDbSpline
210
0.0
220
0.0
230
1.0
 70
     8
 71
     3
 72
     8
 73
     4
 74
     0
 42
0.00000001
 43
0.00000001
 12
1.0
 22
0.0
 32
0.0
 13
1.0
 23
0.0
 33
0.0
 40
7.0
 40
7.0
 40
7.0
 40
7.0
 40
8.0
 40
8.0
 40
8.0
 40
8.0
 10
31.24770507031307
 20
-11.14660644252585
 30
0.0
 10
28.10922308325047
 20
-11.14212781839502
 30
0.0
 10
26.62094183362254
 20
-10.13305935076535
 30
0.0
 10
26.62094183362254
 20
-7.816921656031881
 30
0.0
  0
SPLINE
  5
86
330
47
100
AcDbEntity
  8
LAYER_1
370
     0
100
AcDbSpline
210
0.0
220
0.0
230
1.0
 70
    24
 71
     2
 72
     6
 73
     3
 74
     0
 42
0.00000001
 43
0.00000001
 12
1.0
 22
0.0
 32
0.0
 13
1.0
 23
0.0
 33
0.0
 40
8.0
 40
8.0
 40
8.0
 40
9.0
 40
9.0
 40
9.0
 10
26.62094183362254
 20
-7.816921656031881
 30
0.0
 10
26.62094183362254
 20
-7.555266653927156
 30
0.0
 10
26.62094183362254
 20
-6.331396482792151
 30
0.0
  0
SPLINE
  5
87
330
47
100
AcDbEntity
  8
LAYER_1
370
     0
100
AcDbSpline
210
0.0
220
0.0
230
1.0
 70
     8
 71
     3
 72
     8
 73
     4
 74
     0
 42
0.00000001
 43
0.00000001
 12
1.0
 22
0.0
 32
0.0
 13
1.0
 23
0.0
 33
0.0
 40
11.0
 40
11.0
 40
11.0
 40
11.0
 40
12.0
 40
12.0
 40
12.0
 40
12.0
 10
29.09762097796865
 20
-7.846549477205031
 30
0.0
 10
29.09762097796865
 20
-8.008813474560297
 30
0.0
 10
29.11966958907425
 20
-7.856884763660778
 30
0.0
 10
29.16480033993102
 20
-8.027072480632121
 30
0.0
  0
SPLINE
  5
88
330
47
100
AcDbEntity
  8
LAYER_1
370
     0
100
AcDbSpline
210
0.0
220
0.0
230
1.0
 70
     8
 71
     3
 72
     8
 73
     4
 74
     0
 42
0.00000001
 43
0.00000001
 12
1.0
 22
0.0
 32
0.0
 13
1.0
 23
0.0
 33
0.0
 40
12.0
 40
12.0
 40
12.0
 40
12.0
 40
13.0
 40
13.0
 40
13.0
 40
13.0
 10
29.16480033993102
 20
-8.027072480632121
 30
0.0
 10
29.2044189380114
 20
-8.176589624691964
 30
0.0
 10
29.32568629909219
 20
-8.315426972747533
 30
0.0
 10
29.44523111243036
 20
-8.406032984009602
 30
0.0
  0
SPLINE
  5
89
330
47
100
AcDbEntity
  8
LAYER_1
370
     0
100
AcDbSpline
210
0.0
220
0.0
230
1.0
 70
     8
 71
     3
 72
     8
 73
     4
 74
     0
 42
0.00000001
 43
0.00000001
 12
1.0
 22
0.0
 32
0.0
 13
1.0
 23
0.0
 33
0.0
 40
13.0
 40
13.0
 40
13.0
 40
13.0
 40
14.0
 40
14.0
 40
14.0
 40
14.0
 10
29.44523111243036
 20
-8.406032984009602
 30
0.0
 10
29.61025118617383
 20
-8.530400931027122
 30
0.0
 10
29.73496364273987
 20
-8.55313856122977
 30
0.0
 10
30.01573892478773
 20
-8.59654676434392
 30
0.0
  0
SPLINE
  5
8A
330
47
100
AcDbEntity
  8
LAYER_1
370
     0
100
AcDbSpline
210
0.0
220
0.0
230
1.0
 70
     8
 71
     3
 72
     8
 73
     4
 74
     0
 42
0.00000001
 43
0.00000001
 12
1.0
 22
0.0
 32
0.0
 13
1.0
 23
0.0
 33
0.0
 40
14.0
 40
14.0
 40
14.0
 40
14.0
 40
15.0
 40
15.0
 40
15.0
 40
15.0
 10
30.01573892478773
 20
-8.59654676434392
 30
0.0
 10
30.32752006620284
 20
-8.645122610685942
 30
0.0
 10
30.73817544804463
 20
-8.66992729817974
 30
0.0
 10
31.2356472361147
 20
-8.66992729817974
 30
0.0
  0
SPLINE
  5
8B
330
47
100
AcDbEntity
  8
LAYER_1
370
     0
100
AcDbSpline
210
0.0
220
0.0
230
1.0
 70
     8
 71
     3
 72
     8
 73
     4
 74
     0
 42
0.00000001
 43
0.00000001
 12
1.0
 22
0.0
 32
0.0
 13
1.0
 23
0.0
 33
0.0
 40
19.0
 40
19.0
 40
19.0
 40
19.0
 40
20.0
 40
20.0
 40
20.0
 40
20.0
 10
45.17002494530472
 20
-11.28544379058142
 30
0.0
 10
45.17002494530472
 20
-11.84423827828894
 30
0.0
 10
45.06150443751935
 20
-12.68174099075318
 30
0.0
 10
44.84790851743386
 20
-13.07379285697461
 30
0.0
  0
SPLINE
  5
8C
330
47
100
AcDbEntity
  8
LAYER_1
370
     0
100
AcDbSpline
210
0.0
220
0.0
230
1.0
 70
     8
 71
     3
 72
     8
 73
     4
 74
     0
 42
0.00000001
 43
0.00000001
 12
1.0
 22
0.0
 32
0.0
 13
1.0
 23
0.0
 33
0.0
 40
20.0
 40
20.0
 40
20.0
 40
20.0
 40
21.0
 40
21.0
 40
21.0
 40
21.0
 10
44.84790851743386
 20
-13.07379285697461
 30
0.0
 10
44.62673338728082
 20
-13.47996961468556
 30
0.0
 10
44.28635795333813
 20
-13.8072536857843
 30
0.0
 10
43.83608397341598
 20
-14.04772135065474
 30
0.0
  0
SPLINE
  5
8D
330
47
100
AcDbEntity
  8
LAYER_1
370
     0
100
AcDbSpline
210
0.0
220
0.0
230
1.0
 70
     8
 71
     3
 72
     8
 73
     4
 74
     0
 42
0.00000001
 43
0.00000001
 12
1.0
 22
0.0
 32
0.0
 13
1.0
 23
0.0
 33
0.0
 40
21.0
 40
21.0
 40
21.0
 40
21.0
 40
22.0
 40
22.0
 40
22.0
 40
22.0
 10
43.83608397341598
 20
-14.04772135065474
 30
0.0
 10
43.42198349608895
 20
-14.26889648080778
 30
0.0
 10
42.89936251097655
 20
-14.42530381583812
 30
0.0
 10
42.28200140001978
 20
-14.51418727935756
 30
0.0
  0
SPLINE
  5
8E
330
47
100
AcDbEntity
  8
LAYER_1
370
     0
100
AcDbSpline
210
0.0
220
0.0
230
1.0
 70
     8
 71
     3
 72
     8
 73
     4
 74
     0
 42
0.00000001
 43
0.00000001
 12
1.0
 22
0.0
 32
0.0
 13
1.0
 23
0.0
 33
0.0
 40
22.0
 40
22.0
 40
22.0
 40
22.0
 40
23.0
 40
23.0
 40
23.0
 40
23.0
 10
42.28200140001978
 20
-14.51418727935756
 30
0.0
 10
41.6990912439155
 20
-14.59824760919766
 30
0.0
 10
40.99594725537602
 20
-14.64027777411771
 30
0.0
 10
40.1918619691187
 20
-14.64027777411771
 30
0.0
  0
SPLINE
  5
8F
330
47
100
AcDbEntity
  8
LAYER_1
370
     0
100
AcDbSpline
210
0.0
220
0.0
230
1.0
 70
     8
 71
     3
 72
     8
 73
     4
 74
     0
 42
0.00000001
 43
0.00000001
 12
1.0
 22
0.0
 32
0.0
 13
1.0
 23
0.0
 33
0.0
 40
1.0
 40
1.0
 40
1.0
 40
1.0
 40
2.0
 40
2.0
 40
2.0
 40
2.0
 10
51.2983330492414
 20
-14.64027777411771
 30
0.0
 10
50.49218070569293
 20
-14.64027777411771
 30
0.0
 10
49.78869220760491
 20
-14.59790309964914
 30
0.0
 10
49.20784910879179
 20
-14.51418727935756
 30
0.0
  0
SPLINE
  5
90
330
47
100
AcDbEntity
  8
LAYER_1
370
     0
100
AcDbSpline
210
0.0
220
0.0
230
1.0
 70
     8
 71
     3
 72
     8
 73
     4
 74
     0
 42
0.00000001
 43
0.00000001
 12
1.0
 22
0.0
 32
0.0
 13
1.0
 23
0.0
 33
0.0
 40
2.0
 40
2.0
 40
2.0
 40
2.0
 40
3.0
 40
3.0
 40
3.0
 40
3.0
 10
49.20784910879179
 20
-14.51418727935756
 30
0.0
 10
48.59117701693207
 20
-14.42564832538664
 30
0.0
 10
48.06821152227114
 20
-14.26820746171073
 30
0.0
 10
47.65411104494412
 20
-14.04737684110621
 30
0.0
  0
SPLINE
  5
91
330
47
100
AcDbEntity
  8
LAYER_1
370
     0
100
AcDbSpline
210
0.0
220
0.0
230
1.0
 70
     8
 71
     3
 72
     8
 73
     4
 74
     0
 42
0.00000001
 43
0.00000001
 12
1.0
 22
0.0
 32
0.0
 13
1.0
 23
0.0
 33
0.0
 40
3.0
 40
3.0
 40
3.0
 40
3.0
 40
4.0
 40
4.0
 40
4.0
 40
4.0
 10
47.65411104494412
 20
-14.04737684110621
 30
0.0
 10
47.20366481024769
 20
-13.8072536857843
 30
0.0
 10
46.8629448667565
 20
-13.47962510513704
 30
0.0
 10
46.64176973660345
 20
-13.07344834742608
 30
0.0
  0
SPLINE
  5
92
330
47
100
AcDbEntity
  8
LAYER_1
370
     0
100
AcDbSpline
210
0.0
220
0.0
230
1.0
 70
     8
 71
     3
 72
     8
 73
     4
 74
     0
 42
0.00000001
 43
0.00000001
 12
1.0
 22
0.0
 32
0.0
 13
1.0
 23
0.0
 33
0.0
 40
4.0
 40
4.0
 40
4.0
 40
4.0
 40
5.0
 40
5.0
 40
5.0
 40
5.0
 10
46.64176973660345
 20
-13.07344834742608
 30
0.0
 10
46.42851832606648
 20
-12.68139648120465
 30
0.0
 10
46.31999781828112
 20
-12.19839409417262
 30
0.0
 10
46.31999781828112
 20
-11.638221568271
 30
0.0
  0
SPLINE
  5
93
330
47
100
AcDbEntity
  8
LAYER_1
370
     0
100
AcDbSpline
210
0.0
220
0.0
230
1.0
 70
     8
 71
     3
 72
     8
 73
     4
 74
     0
 42
0.00000001
 43
0.00000001
 12
1.0
 22
0.0
 32
0.0
 13
1.0
 23
0.0
 33
0.0
 40
6.0
 40
6.0
 40
6.0
 40
6.0
 40
7.0
 40
7.0
 40
7.0
 40
7.0
 10
46.31999781828112
 20
-9.33345268863886
 30
0.0
 10
46.31999781828112
 20
-8.773280162737237
 30
0.0
 10
46.42851832606648
 20
-8.290277775705208
 30
0.0
 10
46.64211424615198
 20
-7.897881399935252
 30
0.0
  0
SPLINE
  5
94
330
47
100
AcDbEntity
  8
LAYER_1
370
     0
100
AcDbSpline
210
0.0
220
0.0
230
1.0
 70
     8
 71
     3
 72
     8
 73
     4
 74
     0
 42
0.00000001
 43
0.00000001
 12
1.0
 22
0.0
 32
0.0
 13
1.0
 23
0.0
 33
0.0
 40
7.0
 40
7.0
 40
7.0
 40
7.0
 40
8.0
 40
8.0
 40
8.0
 40
8.0
 10
46.64211424615198
 20
-7.897881399935252
 30
0.0
 10
46.8629448667565
 20
-7.492049151772822
 30
0.0
 10
47.20366481024769
 20
-7.164420571125562
 30
0.0
 10
47.65411104494412
 20
-6.923952906255123
 30
0.0
  0
SPLINE
  5
95
330
47
100
AcDbEntity
  8
LAYER_1
370
     0
100
AcDbSpline
210
0.0
220
0.0
230
1.0
 70
     8
 71
     3
 72
     8
 73
     4
 74
     0
 42
0.00000001
 43
0.00000001
 12
1.0
 22
0.0
 32
0.0
 13
1.0
 23
0.0
 33
0.0
 40
8.0
 40
8.0
 40
8.0
 40
8.0
 40
9.0
 40
9.0
 40
9.0
 40
9.0
 10
47.65411104494412
 20
-6.923952906255123
 30
0.0
 10
48.06821152227114
 20
-6.703466795199134
 30
0.0
 10
48.59117701693207
 20
-6.546025931523217
 30
0.0
 10
49.20853812788884
 20
-6.457486977552295
 30
0.0
  0
SPLINE
  5
96
330
47
100
AcDbEntity
  8
LAYER_1
370
     0
100
AcDbSpline
210
0.0
220
0.0
230
1.0
 70
     8
 71
     3
 72
     8
 73
     4
 74
     0
 42
0.00000001
 43
0.00000001
 12
1.0
 22
0.0
 32
0.0
 13
1.0
 23
0.0
 33
0.0
 40
9.0
 40
9.0
 40
9.0
 40
9.0
 40
10.0
 40
10.0
 40
10.0
 40
10.0
 10
49.20853812788884
 20
-6.457486977552295
 30
0.0
 10
49.79144828399311
 20
-6.373771157260724
 30
0.0
 10
50.49493678208113
 20
-6.331396482792151
 30
0.0
 10
51.2983330492414
 20
-6.331396482792151
 30
0.0
  0
SPLINE
  5
97
330
47
100
AcDbEntity
  8
LAYER_1
370
     0
100
AcDbSpline
210
0.0
220
0.0
230
1.0
 70
     8
 71
     3
 72
     8
 73
     4
 74
     0
 42
0.00000001
 43
0.00000001
 12
1.0
 22
0.0
 32
0.0
 13
1.0
 23
0.0
 33
0.0
 40
13.0
 40
13.0
 40
13.0
 40
13.0
 40
14.0
 40
14.0
 40
14.0
 40
14.0
 10
51.2983330492414
 20
-8.808420136686784
 30
0.0
 10
50.64031981155867
 20
-8.808420136686784
 30
0.0
 10
50.09392766759806
 20
-8.792572697454634
 30
0.0
 10
49.71496716422057
 20
-8.834947371923208
 30
0.0
  0
SPLINE
  5
98
330
47
100
AcDbEntity
  8
LAYER_1
370
     0
100
AcDbSpline
210
0.0
220
0.0
230
1.0
 70
     8
 71
     3
 72
     8
 73
     4
 74
     0
 42
0.00000001
 43
0.00000001
 12
1.0
 22
0.0
 32
0.0
 13
1.0
 23
0.0
 33
0.0
 40
14.0
 40
14.0
 40
14.0
 40
14.0
 40
15.0
 40
15.0
 40
15.0
 40
15.0
 10
49.71496716422057
 20
-8.834947371923208
 30
0.0
 10
49.28846434314665
 20
-8.88214518007113
 30
0.0
 10
49.19269068865669
 20
-8.935199650543979
 30
0.0
 10
49.09071586229329
 20
-8.994455292890276
 30
0.0
  0
SPLINE
  5
99
330
47
100
AcDbEntity
  8
LAYER_1
370
     0
100
AcDbSpline
210
0.0
220
0.0
230
1.0
 70
     8
 71
     3
 72
     8
 73
     4
 74
     0
 42
0.00000001
 43
0.00000001
 12
1.0
 22
0.0
 32
0.0
 13
1.0
 23
0.0
 33
0.0
 40
15.0
 40
15.0
 40
15.0
 40
15.0
 40
16.0
 40
16.0
 40
16.0
 40
16.0
 10
49.09071586229329
 20
-8.994455292890276
 30
0.0
 10
48.93155245087475
 20
-9.087472870992023
 30
0.0
 10
48.8977905151193
 20
-9.226310219047589
 30
0.0
 10
48.84611408284056
 20
-9.469189450757703
 30
0.0
  0
SPLINE
  5
9A
330
47
100
AcDbEntity
  8
LAYER_1
370
     0
100
AcDbSpline
210
0.0
220
0.0
230
1.0
 70
     8
 71
     3
 72
     8
 73
     4
 74
     0
 42
0.00000001
 43
0.00000001
 12
1.0
 22
0.0
 32
0.0
 13
1.0
 23
0.0
 33
0.0
 40
16.0
 40
16.0
 40
16.0
 40
16.0
 40
17.0
 40
17.0
 40
17.0
 40
17.0
 10
48.84611408284056
 20
-9.469189450757703
 30
0.0
 10
48.80959607069691
 20
-9.765123152940664
 30
0.0
 10
48.79719372695001
 20
-9.834025062645662
 30
0.0
 10
48.79719372695001
 20
-9.97217339160418
 30
0.0
  0
SPLINE
  5
9B
330
47
100
AcDbEntity
  8
LAYER_1
370
     0
100
AcDbSpline
210
0.0
220
0.0
230
1.0
 70
     8
 71
     3
 72
     8
 73
     4
 74
     0
 42
0.00000001
 43
0.00000001
 12
1.0
 22
0.0
 32
0.0
 13
1.0
 23
0.0
 33
0.0
 40
18.0
 40
18.0
 40
18.0
 40
18.0
 40
19.0
 40
19.0
 40
19.0
 40
19.0
 10
48.79719372695001
 20
-10.64706759716462
 30
0.0
 10
48.79719372695001
 20
-10.78487141657462
 30
0.0
 10
48.82199841444381
 20
-11.29577907703717
 30
0.0
 10
48.84749212103466
 20
-11.50592990163741
 30
0.0
  0
SPLINE
  5
9C
330
47
100
AcDbEntity
  8
LAYER_1
370
     0
100
AcDbSpline
210
0.0
220
0.0
230
1.0
 70
     8
 71
     3
 72
     8
 73
     4
 74
     0
 42
0.00000001
 43
0.00000001
 12
1.0
 22
0.0
 32
0.0
 13
1.0
 23
0.0
 33
0.0
 40
19.0
 40
19.0
 40
19.0
 40
19.0
 40
20.0
 40
20.0
 40
20.0
 40
20.0
 10
48.84749212103466
 20
-11.50592990163741
 30
0.0
 10
48.85300427381106
 20
-11.51350911170496
 30
0.0
 10
48.85989446478155
 20
-11.75948892935179
 30
0.0
 10
49.07280136577
 20
-11.92244194580411
 30
0.0
  0
SPLINE
  5
9D
330
47
100
AcDbEntity
  8
LAYER_1
370
     0
100
AcDbSpline
210
0.0
220
0.0
230
1.0
 70
     8
 71
     3
 72
     8
 73
     4
 74
     0
 42
0.00000001
 43
0.00000001
 12
1.0
 22
0.0
 32
0.0
 13
1.0
 23
0.0
 33
0.0
 40
20.0
 40
20.0
 40
20.0
 40
20.0
 40
21.0
 40
21.0
 40
21.0
 40
21.0
 10
49.07280136577
 20
-11.92244194580411
 30
0.0
 10
49.32153725980503
 20
-12.11295572613843
 30
0.0
 10
49.44969481185633
 20
-12.06885850392723
 30
0.0
 10
49.73632675622912
 20
-12.09986436329448
 30
0.0
  0
SPLINE
  5
9E
330
47
100
AcDbEntity
  8
LAYER_1
370
     0
100
AcDbSpline
210
0.0
220
0.0
230
1.0
 70
     8
 71
     3
 72
     8
 73
     4
 74
     0
 42
0.00000001
 43
0.00000001
 12
1.0
 22
0.0
 32
0.0
 13
1.0
 23
0.0
 33
0.0
 40
21.0
 40
21.0
 40
21.0
 40
21.0
 40
22.0
 40
22.0
 40
22.0
 40
22.0
 10
49.73632675622912
 20
-12.09986436329448
 30
0.0
 10
50.1152872596066
 20
-12.14086099956895
 30
0.0
 10
50.64100883065572
 20
-12.16325412022308
 30
0.0
 10
51.2983330492414
 20
-12.16325412022308
 30
0.0
  0
ENDBLK
  5
49
330
47
100
AcDbEntity
  8
0
100
AcDbBlockEnd
  0
BLOCK
  5
B3
330
B2
100
AcDbEntity
  8
0
100
AcDbBlockBegin
  2
SW_NOTE_0
 70
     0
 10
0.0
 20
0.0
 30
0.0
  3
SW_NOTE_0
  1

  0
MTEXT
  5
B5
330
B2
100
AcDbEntity
  8
0
  6
Continuous
 62
     0
370
     0
100
AcDbMText
 10
32.44453125
 20
6.1391851107
 30
0.0
 40
4.7625
 41
0.0
 71
     2
 72
     1
  1
XR Full width soapbar
  7
SLDTEXTSTYLE0
 73
     1
 44
1.0
  0
MTEXT
  5
B6
330
B2
100
AcDbEntity
  8
0
  6
Continuous
 62
     0
370
     0
100
AcDbMText
 10
33.0806344569
 20
-0.2108148126
 30
0.0
 40
4.7625
 41
0.0
 71
     2
 72
     1
  1
mounting base
  7
SLDTEXTSTYLE0
 73
     1
 44
1.0
  0
ENDBLK
  5
B4
330
B2
100
AcDbEntity
  8
0
100
AcDbBlockEnd
  0
BLOCK
  5
BA
330
B9
100
AcDbEntity
  8
0
100
AcDbBlockBegin
  2
SW_NOTE_1
 70
     0
 10
0.0
 20
0.0
 30
0.0
  3
SW_NOTE_1
  1

  0
MTEXT
  5
BC
330
B9
100
AcDbEntity
  8
0
  6
Continuous
 62
     0
370
     0
100
AcDbMText
 10
0.0
 20
3.7517242343
 30
0.0
 40
2.9104166667
 41
0.0
 71
     1
 72
     1
  1
XR Project by Cycfi Research is licensed under
  7
SLDTEXTSTYLE0
 73
     1
 44
1.0
  0
MTEXT
  5
BD
330
B9
100
AcDbEntity
  8
0
  6
Continuous
 62
     0
370
     0
100
AcDbMText
 10
0.0
 20
-0.1288312744
 30
0.0
 40
2.9104166667
 41
0.0
 71
     1
 72
     1
  1
a Creative Commons Attribution-NonCommercial
  7
SLDTEXTSTYLE0
 73
     1
 44
1.0
  0
MTEXT
  5
BE
330
B9
100
AcDbEntity
  8
0
  6
Continuous
 62
     0
370
     0
100
AcDbMText
 10
0.0
 20
-4.009386783
 30
0.0
 40
2.9104166667
 41
0.0
 71
     1
 72
     1
  1
4.0 International License.
  7
SLDTEXTSTYLE0
 73
     1
 44
1.0
  0
MTEXT
  5
BF
330
B9
100
AcDbEntity
  8
0
  6
Continuous
 62
     0
370
     0
100
AcDbMText
 10
0.0
 20
-7.8899422917
 30
0.0
 40
2.9104166667
 41
0.0
 71
     1
 72
     1
  1
http://creativecommons.org/licenses/by-nc/4.0/
  7
SLDTEXTSTYLE0
 73
     1
 44
1.0
  0
MTEXT
  5
C0
330
B9
100
AcDbEntity
  8
0
  6
Continuous
 62
     0
370
     0
100
AcDbMText
 10
0.0
 20
-15.651053309
 30
0.0
 40
2.9104166667
 41
0.0
 71
     1
 72
     1
  1
Copyright CYCFI Research Inc. 2013-2016
  7
SLDTEXTSTYLE0
 73
     1
 44
1.0
  0
ENDBLK
  5
BB
330
B9
100
AcDbEntity
  8
0
100
AcDbBlockEnd
  0
BLOCK
  5
161
330
160
100
AcDbEntity
  8
0
100
AcDbBlockBegin
  2
_D
 70
     0
 10
0.0
 20
0.0
 30
0.0
  3
_D
  1

  0
SOLID
  5
163
330
160
100
AcDbEntity
  8
SLD-0
100
AcDbTrace
 10
59.7671110808
 20
243.9981455995
 30
0.0
 11
63.0691110808
 21
243.4901455995
 31
0.0
 12
63.0691110808
 22
244.5061455995
 32
0.0
 13
63.0691110808
 23
244.5061455995
 33
0.0
  0
SOLID
  5
164
330
160
100
AcDbEntity
  8
SLD-0
100
AcDbTrace
 10
154.9671110808
 20
243.9981455995
 30
0.0
 11
151.6651110808
 21
244.5061455995
 31
0.0
 12
151.6651110808
 22
243.4901455995
 32
0.0
 13
151.6651110808
 23
243.4901455995
 33
0.0
  0
LINE
  5
165
330
160
100
AcDbEntity
  8
SLD-0
100
AcDbLine
 10
59.7671110808
 20
243.5532729552
 30
0.0
 11
59.7671110808
 21
244.9981455995
 31
0.0
  0
LINE
  5
166
330
160
100
AcDbEntity
  8
SLD-0
100
AcDbLine
 10
154.9671110808
 20
243.5532729552
 30
0.0
 11
154.9671110808
 21
244.9981455995
 31
0.0
  0
LINE
  5
167
330
160
100
AcDbEntity
  8
SLD-0
100
AcDbLine
 10
59.7671110808
 20
243.9981455995
 30
0.0
 11
154.9671110808
 21
243.9981455995
 31
0.0
  0
MTEXT
  5
168
330
160
100
AcDbEntity
  8
SLD-0
100
AcDbMText
 10
96.0173204548
 20
248.5098825141
 30
0.1
 40
3.5
 41
0.0
 71
     1
 72
     1
  1
95.20
  7
SLDTEXTSTYLE0
 73
     1
 44
1.0
  0
MTEXT
  5
169
330
160
100
AcDbEntity
  8
SLD-0
100
AcDbMText
 10
111.8110706515
 20
248.5098825141
 30
0.1
 40
3.5
 41
0.0
 71
     1
 72
     1
  1
mm
  7
SLDTEXTSTYLE0
 73
     1
 44
1.0
  0
ENDBLK
  5
162
330
160
100
AcDbEntity
  8
0
100
AcDbBlockEnd
  0
BLOCK
  5
16C
330
16B
100
AcDbEntity
  8
0
100
AcDbBlockBegin
  2
_D_1
 70
     0
 10
0.0
 20
0.0
 30
0.0
  3
_D_1
  1

  0
SOLID
  5
16E
330
16B
100
AcDbEntity
  8
SLD-0
100
AcDbTrace
 10
66.1171110808
 20
155.7468559479
 30
0.0
 11
69.4191110808
 21
155.2388559479
 31
0.0
 12
69.4191110808
 22
156.2548559479
 32
0.0
 13
69.4191110808
 23
156.2548559479
 33
0.0
  0
SOLID
  5
16F
330
16B
100
AcDbEntity
  8
SLD-0
100
AcDbTrace
 10
148.6171110808
 20
155.7468559479
 30
0.0
 11
145.3151110808
 21
156.2548559479
 31
0.0
 12
145.3151110808
 22
155.2388559479
 32
0.0
 13
145.3151110808
 23
155.2388559479
 33
0.0
  0
LINE
  5
170
330
16B
100
AcDbEntity
  8
SLD-0
100
AcDbLine
 10
66.1171110808
 20
155.0182978509
 30
0.0
 11
66.1171110808
 21
156.7468559479
 31
0.0
  0
LINE
  5
171
330
16B
100
AcDbEntity
  8
SLD-0
100
AcDbLine
 10
148.6171110808
 20
155.0182978509
 30
0.0
 11
148.6171110808
 21
156.7468559479
 31
0.0
  0
LINE
  5
172
330
16B
100
AcDbEntity
  8
SLD-0
100
AcDbLine
 10
66.1171110808
 20
155.7468559479
 30
0.0
 11
148.6171110808
 21
155.7468559479
 31
0.0
  0
MTEXT
  5
173
330
16B
100
AcDbEntity
  8
SLD-0
100
AcDbMText
 10
93.0746698087
 20
160.2585928625
 30
0.1
 40
3.5
 41
0.0
 71
     1
 72
     1
  1
82.50
  7
SLDTEXTSTYLE0
 73
     1
 44
1.0
  0
MTEXT
  5
174
330
16B
100
AcDbEntity
  8
SLD-0
100
AcDbMText
 10
108.8684200054
 20
160.2585928625
 30
0.1
 40
3.5
 41
0.0
 71
     1
 72
     1
  1
mm
  7
SLDTEXTSTYLE0
 73
     1
 44
1.0
  0
ENDBLK
  5
16D
330
16B
100
AcDbEntity
  8
0
100
AcDbBlockEnd
  0
BLOCK
  5
177
330
176
100
AcDbEntity
  8
0
100
AcDbBlockBegin
  2
_D_2
 70
     0
 10
0.0
 20
0.0
 30
0.0
  3
_D_2
  1

  0
SOLID
  5
179
330
176
100
AcDbEntity
  8
SLD-0
100
AcDbTrace
 10
168.1671110808
 20
238.6275843339
 30
0.0
 11
167.6591110808
 21
235.3255843339
 31
0.0
 12
168.6751110808
 22
235.3255843339
 32
0.0
 13
168.6751110808
 23
235.3255843339
 33
0.0
  0
SOLID
  5
17A
330
176
100
AcDbEntity
  8
SLD-0
100
AcDbTrace
 10
168.1671110808
 20
200.5275843339
 30
0.0
 11
168.6751110808
 21
203.8295843339
 31
0.0
 12
167.6591110808
 22
203.8295843339
 32
0.0
 13
167.6591110808
 23
203.8295843339
 33
0.0
  0
LINE
  5
17B
330
176
100
AcDbEntity
  8
SLD-0
100
AcDbLine
 10
155.9971110808
 20
238.6275843339
 30
0.0
 11
169.1671110808
 21
238.6275843339
 31
0.0
  0
LINE
  5
17C
330
176
100
AcDbEntity
  8
SLD-0
100
AcDbLine
 10
155.9971110808
 20
200.5275843339
 30
0.0
 11
169.1671110808
 21
200.5275843339
 31
0.0
  0
LINE
  5
17D
330
176
100
AcDbEntity
  8
SLD-0
100
AcDbLine
 10
168.1671110808
 20
238.6275843339
 30
0.0
 11
168.1671110808
 21
200.5275843339
 31
0.0
  0
MTEXT
  5
17E
330
176
100
AcDbEntity
  8
SLD-0
100
AcDbMText
 10
163.6553741662
 20
207.3033184969
 30
-48.846140673
 40
3.5
 41
0.0
 71
     1
 72
     1
  1
38.10
  7
SLDTEXTSTYLE0
 11
-7.044195017643634E-15
 21
1.0
 31
0.0
 73
     1
 44
1.0
  0
MTEXT
  5
17F
330
176
100
AcDbEntity
  8
SLD-0
100
AcDbMText
 10
163.6553741662
 20
223.0970686936
 30
-48.846140673
 40
3.5
 41
0.0
 71
     1
 72
     1
  1
mm
  7
SLDTEXTSTYLE0
 11
-7.044195017643634E-15
 21
1.0
 31
0.0
 73
     1
 44
1.0
  0
ENDBLK
  5
178
330
176
100
AcDbEntity
  8
0
100
AcDbBlockEnd
  0
BLOCK
  5
183
330
182
100
AcDbEntity
  8
0
100
AcDbBlockBegin
  2
_D_3
 70
     0
 10
0.0
 20
0.0
 30
0.0
  3
_D_3
  1

  0
SOLID
  5
185
330
182
100
AcDbEntity
  8
SLD-0
100
AcDbTrace
 10
45.8776708556
 20
221.0775843339
 30
0.0
 11
46.3856708556
 21
224.3795843339
 31
0.0
 12
45.3696708556
 22
224.3795843339
 32
0.0
 13
45.3696708556
 23
224.3795843339
 33
0.0
  0
SOLID
  5
186
330
182
100
AcDbEntity
  8
SLD-0
100
AcDbTrace
 10
45.8776708556
 20
218.0775843339
 30
0.0
 11
45.3696708556
 21
214.7755843339
 31
0.0
 12
46.3856708556
 22
214.7755843339
 32
0.0
 13
46.3856708556
 23
214.7755843339
 33
0.0
  0
LINE
  5
187
330
182
100
AcDbEntity
  8
SLD-0
100
AcDbLine
 10
58.7671110808
 20
221.0775843339
 30
0.0
 11
44.8776708556
 21
221.0775843339
 31
0.0
  0
LINE
  5
188
330
182
100
AcDbEntity
  8
SLD-0
100
AcDbLine
 10
58.7671110808
 20
218.0775843339
 30
0.0
 11
44.8776708556
 21
218.0775843339
 31
0.0
  0
LINE
  5
189
330
182
100
AcDbEntity
  8
SLD-0
100
AcDbLine
 10
45.8776708556
 20
221.0775843339
 30
0.0
 11
45.8776708556
 21
227.4275843339
 31
0.0
  0
LINE
  5
18A
330
182
100
AcDbEntity
  8
SLD-0
100
AcDbLine
 10
45.8776708556
 20
221.0775843339
 30
0.0
 11
45.8776708556
 21
218.0775843339
 31
0.0
  0
LINE
  5
18B
330
182
100
AcDbEntity
  8
SLD-0
100
AcDbLine
 10
45.8776708556
 20
218.0775843339
 30
0.0
 11
45.8776708556
 21
211.7275843339
 31
0.0
  0
MTEXT
  5
18C
330
182
100
AcDbEntity
  8
SLD-0
100
AcDbMText
 10
41.3659337664
 20
215.0978178918
 30
-48.846140673
 40
3.5
 41
0.0
 71
     1
 72
     1
  1
%%c
  7
SLDTEXTSTYLE0
 11
-7.044195017643634E-15
 21
1.0
 31
0.0
 73
     1
 44
1.0
  0
MTEXT
  5
18D
330
182
100
AcDbEntity
  8
SLD-0
100
AcDbMText
 10
41.3124615897
 20
220.3762552901
 30
-48.846140673
 40
3.5
 41
0.0
 71
     1
 72
     1
  1
3
  7
SLDTEXTSTYLE0
 11
-7.044195017643634E-15
 21
1.0
 31
0.0
 73
     1
 44
1.0
  0
ENDBLK
  5
184
330
182
100
AcDbEntity
  8
0
100
AcDbBlockEnd
  0
BLOCK
  5
191
330
190
100
AcDbEntity
  8
0
100
AcDbBlockBegin
  2
_D_4
 70
     0
 10
0.0
 20
0.0
 30
0.0
  3
_D_4
  1

  0
SOLID
  5
193
330
190
100
AcDbEntity
  8
SLD-0
100
AcDbTrace
 10
56.9918105508
 20
237.0425843339
 30
0.0
 11
54.3861946675
 21
239.1335252391
 31
0.0
 12
53.8781946675
 22
238.2536434288
 32
0.0
 13
53.8781946675
 23
238.2536434288
 33
0.0
  0
LINE
  5
194
330
190
100
AcDbEntity
  8
SLD-0
100
AcDbLine
 10
56.9918105508
 20
237.0425843339
 30
0.0
 11
38.5841586914
 21
247.6702470901
 31
0.0
  0
LINE
  5
195
330
190
100
AcDbEntity
  8
SLD-0
100
AcDbLine
 10
56.9918105508
 20
237.0425843339
 30
0.0
 11
59.7371110808
 21
235.4575843339
 31
0.0
  0
MTEXT
  5
196
330
190
100
AcDbEntity
  8
SLD-0
100
AcDbMText
 10
40.8195588089
 20
251.5420736688
 30
-48.846140673
 40
3.5
 41
0.0
 71
     1
 72
     1
  1
R3.170
  7
SLDTEXTSTYLE0
 11
0.8660254037844378
 21
-0.5000000000000014
 31
0.0
 73
     1
 44
1.0
  0
ENDBLK
  5
192
330
190
100
AcDbEntity
  8
0
100
AcDbBlockEnd
  0
BLOCK
  5
199
330
198
100
AcDbEntity
  8
0
100
AcDbBlockBegin
  2
_D_5
 70
     0
 10
0.0
 20
0.0
 30
0.0
  3
_D_5
  1

  0
SOLID
  5
19B
330
198
100
AcDbEntity
  8
SLD-0
100
AcDbTrace
 10
56.5671110808
 20
192.3440984419
 30
0.0
 11
59.8691110808
 21
191.8360984419
 31
0.0
 12
59.8691110808
 22
192.8520984419
 32
0.0
 13
59.8691110808
 23
192.8520984419
 33
0.0
  0
SOLID
  5
19C
330
198
100
AcDbEntity
  8
SLD-0
100
AcDbTrace
 10
158.1671110808
 20
192.3440984419
 30
0.0
 11
154.8651110808
 21
192.8520984419
 31
0.0
 12
154.8651110808
 22
191.8360984419
 32
0.0
 13
154.8651110808
 23
191.8360984419
 33
0.0
  0
LINE
  5
19D
330
198
100
AcDbEntity
  8
SLD-0
100
AcDbLine
 10
56.5671110808
 20
202.6975843339
 30
0.0
 11
56.5671110808
 21
191.3440984419
 31
0.0
  0
LINE
  5
19E
330
198
100
AcDbEntity
  8
SLD-0
100
AcDbLine
 10
158.1671110808
 20
202.6975843339
 30
0.0
 11
158.1671110808
 21
191.3440984419
 31
0.0
  0
LINE
  5
19F
330
198
100
AcDbEntity
  8
SLD-0
100
AcDbLine
 10
56.5671110808
 20
192.3440984419
 30
0.0
 11
158.1671110808
 21
192.3440984419
 31
0.0
  0
MTEXT
  5
1A0
330
198
100
AcDbEntity
  8
SLD-0
100
AcDbMText
 10
94.7242647416
 20
196.8558353565
 30
-48.846140673
 40
3.5
 41
0.0
 71
     1
 72
     1
  1
101.60
  7
SLDTEXTSTYLE0
 73
     1
 44
1.0
  0
MTEXT
  5
1A1
330
198
100
AcDbEntity
  8
SLD-0
100
AcDbMText
 10
113.1041263647
 20
196.8558353565
 30
-48.846140673
 40
3.5
 41
0.0
 71
     1
 72
     1
  1
mm
  7
SLDTEXTSTYLE0
 73
     1
 44
1.0
  0
ENDBLK
  5
19A
330
198
100
AcDbEntity
  8
0
100
AcDbBlockEnd
  0
BLOCK
  5
1A4
330
1A3
100
AcDbEntity
  8
0
100
AcDbBlockBegin
  2
_D_6
 70
     0
 10
0.0
 20
0.0
 30
0.0
  3
_D_6
  1

  0
SOLID
  5
1A6
330
1A3
100
AcDbEntity
  8
SLD-0
100
AcDbTrace
 10
50.79456011
 20
132.9775843339
 30
0.0
 11
51.30256011
 21
136.2795843339
 31
0.0
 12
50.28656011
 22
136.2795843339
 32
0.0
 13
50.28656011
 23
136.2795843339
 33
0.0
  0
SOLID
  5
1A7
330
1A3
100
AcDbEntity
  8
SLD-0
100
AcDbTrace
 10
50.79456011
 20
129.9775843339
 30
0.0
 11
50.28656011
 21
126.6755843339
 31
0.0
 12
51.30256011
 22
126.6755843339
 32
0.0
 13
51.30256011
 23
126.6755843339
 33
0.0
  0
LINE
  5
1A8
330
1A3
100
AcDbEntity
  8
SLD-0
100
AcDbLine
 10
65.1171110808
 20
132.9775843339
 30
0.0
 11
49.79456011
 21
132.9775843339
 31
0.0
  0
LINE
  5
1A9
330
1A3
100
AcDbEntity
  8
SLD-0
100
AcDbLine
 10
65.1171110808
 20
129.9775843339
 30
0.0
 11
49.79456011
 21
129.9775843339
 31
0.0
  0
LINE
  5
1AA
330
1A3
100
AcDbEntity
  8
SLD-0
100
AcDbLine
 10
50.79456011
 20
132.9775843339
 30
0.0
 11
50.79456011
 21
139.3275843339
 31
0.0
  0
LINE
  5
1AB
330
1A3
100
AcDbEntity
  8
SLD-0
100
AcDbLine
 10
50.79456011
 20
132.9775843339
 30
0.0
 11
50.79456011
 21
129.9775843339
 31
0.0
  0
LINE
  5
1AC
330
1A3
100
AcDbEntity
  8
SLD-0
100
AcDbLine
 10
50.79456011
 20
129.9775843339
 30
0.0
 11
50.79456011
 21
123.6275843339
 31
0.0
  0
MTEXT
  5
1AD
330
1A3
100
AcDbEntity
  8
SLD-0
100
AcDbMText
 10
46.2828230208
 20
127.2366755627
 30
-48.846140673
 40
3.5
 41
0.0
 71
     1
 72
     1
  1
%%c
  7
SLDTEXTSTYLE0
 11
-7.044195017643634E-15
 21
1.0
 31
0.0
 73
     1
 44
1.0
  0
MTEXT
  5
1AE
330
1A3
100
AcDbEntity
  8
SLD-0
100
AcDbMText
 10
46.2293508442
 20
132.5151129611
 30
-48.846140673
 40
3.5
 41
0.0
 71
     1
 72
     1
  1
3
  7
SLDTEXTSTYLE0
 11
-7.044195017643634E-15
 21
1.0
 31
0.0
 73
     1
 44
1.0
  0
ENDBLK
  5
1A5
330
1A3
100
AcDbEntity
  8
0
100
AcDbBlockEnd
  0
BLOCK
  5
1B1
330
1B0
100
AcDbEntity
  8
0
100
AcDbBlockBegin
  2
_D_7
 70
     0
 10
0.0
 20
0.0
 30
0.0
  3
_D_7
  1

  0
SOLID
  5
1B3
330
1B0
100
AcDbEntity
  8
SLD-0
100
AcDbTrace
 10
63.3418105508
 20
148.9425843339
 30
0.0
 11
60.7361946675
 21
151.0335252391
 31
0.0
 12
60.2281946675
 22
150.1536434288
 32
0.0
 13
60.2281946675
 23
150.1536434288
 33
0.0
  0
LINE
  5
1B4
330
1B0
100
AcDbEntity
  8
SLD-0
100
AcDbLine
 10
63.3418105508
 20
148.9425843339
 30
0.0
 11
43.482639934
 21
160.4082818355
 31
0.0
  0
LINE
  5
1B5
330
1B0
100
AcDbEntity
  8
SLD-0
100
AcDbLine
 10
63.3418105508
 20
148.9425843339
 30
0.0
 11
66.0871110808
 21
147.3575843339
 31
0.0
  0
MTEXT
  5
1B6
330
1B0
100
AcDbEntity
  8
SLD-0
100
AcDbMText
 10
45.7216302489
 20
164.2863268185
 30
-48.846140673
 40
3.5
 41
0.0
 71
     1
 72
     1
  1
R3.170
  7
SLDTEXTSTYLE0
 11
0.8660254037844376
 21
-0.5000000000000018
 31
0.0
 73
     1
 44
1.0
  0
ENDBLK
  5
1B2
330
1B0
100
AcDbEntity
  8
0
100
AcDbBlockEnd
  0
BLOCK
  5
1B9
330
1B8
100
AcDbEntity
  8
0
100
AcDbBlockBegin
  2
_D_8
 70
     0
 10
0.0
 20
0.0
 30
0.0
  3
_D_8
  1

  0
SOLID
  5
1BB
330
1B8
100
AcDbEntity
  8
SLD-0
100
AcDbTrace
 10
62.9171110808
 20
102.4275843339
 30
0.0
 11
66.2191110808
 21
101.9195843339
 31
0.0
 12
66.2191110808
 22
102.9355843339
 32
0.0
 13
66.2191110808
 23
102.9355843339
 33
0.0
  0
SOLID
  5
1BC
330
1B8
100
AcDbEntity
  8
SLD-0
100
AcDbTrace
 10
151.8171110808
 20
102.4275843339
 30
0.0
 11
148.5151110808
 21
102.9355843339
 31
0.0
 12
148.5151110808
 22
101.9195843339
 32
0.0
 13
148.5151110808
 23
101.9195843339
 33
0.0
  0
LINE
  5
1BD
330
1B8
100
AcDbEntity
  8
SLD-0
100
AcDbLine
 10
62.9171110808
 20
114.5975843339
 30
0.0
 11
62.9171110808
 21
101.4275843339
 31
0.0
  0
LINE
  5
1BE
330
1B8
100
AcDbEntity
  8
SLD-0
100
AcDbLine
 10
151.8171110808
 20
114.5975843339
 30
0.0
 11
151.8171110808
 21
101.4275843339
 31
0.0
  0
LINE
  5
1BF
330
1B8
100
AcDbEntity
  8
SLD-0
100
AcDbLine
 10
62.9171110808
 20
102.4275843339
 30
0.0
 11
151.8171110808
 21
102.4275843339
 31
0.0
  0
MTEXT
  5
1C0
330
1B8
100
AcDbEntity
  8
SLD-0
100
AcDbMText
 10
96.0173204548
 20
106.9393212485
 30
-48.846140673
 40
3.5
 41
0.0
 71
     1
 72
     1
  1
88.90
  7
SLDTEXTSTYLE0
 73
     1
 44
1.0
  0
MTEXT
  5
1C1
330
1B8
100
AcDbEntity
  8
SLD-0
100
AcDbMText
 10
111.8110706515
 20
106.9393212485
 30
-48.846140673
 40
3.5
 41
0.0
 71
     1
 72
     1
  1
mm
  7
SLDTEXTSTYLE0
 73
     1
 44
1.0
  0
ENDBLK
  5
1BA
330
1B8
100
AcDbEntity
  8
0
100
AcDbBlockEnd
  0
BLOCK
  5
1C4
330
1C3
100
AcDbEntity
  8
0
100
AcDbBlockBegin
  2
_D_9
 70
     0
 10
0.0
 20
0.0
 30
0.0
  3
_D_9
  1

  0
SOLID
  5
1C6
330
1C3
100
AcDbEntity
  8
SLD-0
100
AcDbTrace
 10
169.2696230339
 20
150.5275843339
 30
0.0
 11
168.7616230339
 21
147.2255843339
 31
0.0
 12
169.7776230339
 22
147.2255843339
 32
0.0
 13
169.7776230339
 23
147.2255843339
 33
0.0
  0
SOLID
  5
1C7
330
1C3
100
AcDbEntity
  8
SLD-0
100
AcDbTrace
 10
169.2696230339
 20
112.4275843339
 30
0.0
 11
169.7776230339
 21
115.7295843339
 31
0.0
 12
168.7616230339
 22
115.7295843339
 32
0.0
 13
168.7616230339
 23
115.7295843339
 33
0.0
  0
LINE
  5
1C8
330
1C3
100
AcDbEntity
  8
SLD-0
100
AcDbLine
 10
149.6471110808
 20
150.5275843339
 30
0.0
 11
170.2696230339
 21
150.5275843339
 31
0.0
  0
LINE
  5
1C9
330
1C3
100
AcDbEntity
  8
SLD-0
100
AcDbLine
 10
149.6471110808
 20
112.4275843339
 30
0.0
 11
170.2696230339
 21
112.4275843339
 31
0.0
  0
LINE
  5
1CA
330
1C3
100
AcDbEntity
  8
SLD-0
100
AcDbLine
 10
169.2696230339
 20
150.5275843339
 30
0.0
 11
169.2696230339
 21
112.4275843339
 31
0.0
  0
MTEXT
  5
1CB
330
1C3
100
AcDbEntity
  8
SLD-0
100
AcDbMText
 10
164.7578861193
 20
118.6608816908
 30
-48.846140673
 40
3.5
 41
0.0
 71
     1
 72
     1
  1
38.10
  7
SLDTEXTSTYLE0
 11
-7.044195017643634E-15
 21
1.0
 31
0.0
 73
     1
 44
1.0
  0
MTEXT
  5
1CC
330
1C3
100
AcDbEntity
  8
SLD-0
100
AcDbMText
 10
164.7578861193
 20
134.4546318875
 30
-48.846140673
 40
3.5
 41
0.0
 71
     1
 72
     1
  1
mm
  7
SLDTEXTSTYLE0
 11
-7.044195017643634E-15
 21
1.0
 31
0.0
 73
     1
 44
1.0
  0
ENDBLK
  5
1C5
330
1C3
100
AcDbEntity
  8
0
100
AcDbBlockEnd
  0
ENDSEC
  0
SECTION
  2
ENTITIES
  0
LINE
  5
9F
330
1F
100
AcDbEntity
  8
0
  6
Continuous
 62
     7
370
     0
100
AcDbLine
 10
107.2405337573
 20
11.6741510917
 30
0.0
 11
204.3187776076
 21
11.6741510917
 31
0.0
  0
LINE
  5
A0
330
1F
100
AcDbEntity
  8
0
  6
Continuous
 62
     7
370
     0
100
AcDbLine
 10
174.1619617474
 20
4.5248052346
 30
0.0
 11
174.1619617474
 21
11.6741510917
 31
0.0
  0
LINE
  5
A1
330
1F
100
AcDbEntity
  8
0
  6
Continuous
 62
     7
370
     0
100
AcDbLine
 10
107.2405337573
 20
19.2843237716
 30
0.0
 11
204.3187776076
 21
19.2843237716
 31
0.0
  0
LINE
  5
A2
330
1F
100
AcDbEntity
  8
0
  6
Continuous
 62
     7
370
     0
100
AcDbLine
 10
174.1619617474
 20
11.6741510917
 30
0.0
 11
174.1619617474
 21
19.2843237716
 31
0.0
  0
LINE
  5
A3
330
1F
100
AcDbEntity
  8
0
  6
Continuous
 62
     7
370
     0
100
AcDbLine
 10
17.1187776076
 20
4.5248052346
 30
0.0
 11
204.3187776076
 21
4.5248052346
 31
0.0
  0
LINE
  5
A4
330
1F
100
AcDbEntity
  8
0
  6
Continuous
 62
     7
370
     0
100
AcDbLine
 10
107.2405337573
 20
59.7748052346
 30
0.0
 11
204.3187776076
 21
59.7748052346
 31
0.0
  0
LINE
  5
A5
330
1F
100
AcDbEntity
  8
0
  6
Continuous
 62
     7
370
     0
100
AcDbLine
 10
107.2405337573
 20
59.7748052346
 30
0.0
 11
107.2405337573
 21
4.5248052346
 31
0.0
  0
LINE
  5
A6
330
1F
100
AcDbEntity
  8
0
  6
Continuous
 62
     7
370
     0
100
AcDbLine
 10
204.3187776076
 20
34.3010754741
 30
0.0
 11
107.2405337573
 21
34.3010754741
 31
0.0
  0
LINE
  5
A7
330
1F
100
AcDbEntity
  8
0
  6
Continuous
 62
     7
370
     0
100
AcDbLine
 10
6.3895750674
 20
291.5248052346
 30
0.0
 11
6.3895750674
 21
4.5248052346
 31
0.0
  0
LINE
  5
A8
330
1F
100
AcDbEntity
  8
0
  6
Continuous
 62
     7
370
     0
100
AcDbLine
 10
6.3895750674
 20
4.5248052346
 30
0.0
 11
17.1187776076
 21
4.5248052346
 31
0.0
  0
LINE
  5
A9
330
1F
100
AcDbEntity
  8
0
  6
Continuous
 62
     7
370
     0
100
AcDbLine
 10
204.3187776076
 20
4.5248052346
 30
0.0
 11
204.3187776076
 21
291.5248052346
 31
0.0
  0
LINE
  5
AA
330
1F
100
AcDbEntity
  8
0
  6
Continuous
 62
     7
370
     0
100
AcDbLine
 10
204.3187776076
 20
291.5248052346
 30
0.0
 11
17.1187776076
 21
291.5248052346
 31
0.0
  0
LINE
  5
AB
330
1F
100
AcDbEntity
  8
0
  6
Continuous
 62
     7
370
     0
100
AcDbLine
 10
17.1187776076
 20
291.5248052346
 30
0.0
 11
6.3895750674
 21
291.5248052346
 31
0.0
  0
MTEXT
  5
AD
330
1F
100
AcDbEntity
  8
SLD-0
100
AcDbMText
 10
92.2235206331
 20
98.0349140538
 30
0.0
 40
3.5
 41
0.0
 71
     1
 72
     1
  1
XR7 Soapbar
  7
SLDTEXTSTYLE0
 73
     1
 44
1.0
  0
MTEXT
  5
AE
330
1F
100
AcDbEntity
  8
0
  6
Continuous
 62
     7
370
     0
100
AcDbMText
 10
108.3967206939
 20
31.2407067553
 30
0.0
 40
2.9104166667
 41
0.0
 71
     1
 72
     1
  1
TITLE:
  7
SLDTEXTSTYLE0
 73
     1
 44
1.0
  0
MTEXT
  5
AF
330
1F
100
AcDbEntity
  8
0
  6
Continuous
 62
     7
370
     0
100
AcDbMText
 10
109.3451379994
 20
17.3279261378
 30
0.0
 40
2.9104166667
 41
0.0
 71
     1
 72
     1
  1
Document Number: 2016026
  7
SLDTEXTSTYLE0
 73
     1
 44
1.0
  0
MTEXT
  5
B0
330
1F
100
AcDbEntity
  8
0
  6
Continuous
 62
     7
370
     0
100
AcDbMText
 10
179.6698428445
 20
9.4969887754
 30
0.0
 40
2.9104166667
 41
0.0
 71
     1
 72
     1
  1
SHEET: 1/1
  7
SLDTEXTSTYLE0
 73
     1
 44
1.0
  0
MTEXT
  5
B1
330
1F
100
AcDbEntity
  8
0
  6
Continuous
 62
     7
370
     0
100
AcDbMText
 10
180.3428496864
 20
17.1764923261
 30
0.0
 40
2.9104166667
 41
0.0
 71
     1
 72
     1
  1
REV: v 0.90
  7
SLDTEXTSTYLE0
 73
     1
 44
1.0
  0
INSERT
  5
B7
330
1F
100
AcDbEntity
  8
0
  6
Continuous
 62
     7
370
     0
100
AcDbBlockReference
  2
SW_NOTE_0
 10
126.8502216534
 20
26.5844876712
 30
0.0
  0
MTEXT
  5
B8
330
1F
100
AcDbEntity
  8
0
  6
Continuous
 62
     7
370
     0
100
AcDbMText
 10
110.0405092585
 20
9.4969887754
 30
0.0
 40
2.9104166667
 41
0.0
 71
     1
 72
     1
  1
Date: 02/17/2016
  7
SLDTEXTSTYLE0
 73
     1
 44
1.0
  0
INSERT
  5
C1
330
1F
100
AcDbEntity
  8
0
  6
Continuous
 62
     7
370
     0
100
AcDbBlockReference
  2
SW_NOTE_1
 10
12.2729779966
 20
42.2240411251
 30
0.0
  0
CIRCLE
  5
C2
330
1F
100
AcDbEntity
  8
0
  6
Continuous
 62
     7
370
    15
100
AcDbCircle
 10
107.3671110808
 20
215.5775843339
 30
0.0
 40
0.4499999999999318
  0
CIRCLE
  5
C3
330
1F
100
AcDbEntity
  8
0
  6
Continuous
 62
     7
370
    15
100
AcDbCircle
 10
107.3671110808
 20
233.5775843339
 30
0.0
 40
0.4499999999999886
  0
LINE
  5
C4
330
1F
100
AcDbEntity
  8
0
  6
Continuous
 62
     7
370
    15
100
AcDbLine
 10
95.6671223582
 20
232.7775863462
 30
0.0
 11
110.5671212615
 21
232.7775863462
 31
0.0
  0
LINE
  5
C5
330
1F
100
AcDbEntity
  8
0
  6
Continuous
 62
     7
370
    15
100
AcDbLine
 10
95.6671223582
 20
224.3775857144
 30
0.0
 11
95.6671223582
 21
232.7775863462
 31
0.0
  0
LINE
  5
C6
330
1F
100
AcDbEntity
  8
0
  6
Continuous
 62
     7
370
    15
100
AcDbLine
 10
110.5671212615
 20
224.3775857144
 30
0.0
 11
95.6671223582
 21
224.3775857144
 31
0.0
  0
LINE
  5
C7
330
1F
100
AcDbEntity
  8
0
  6
Continuous
 62
     7
370
    15
100
AcDbLine
 10
110.5671212615
 20
232.7775863462
 30
0.0
 11
110.5671212615
 21
224.3775857144
 31
0.0
  0
CIRCLE
  5
C8
330
1F
100
AcDbEntity
  8
0
  6
Continuous
 62
     7
370
    15
100
AcDbCircle
 10
140.4671110808
 20
228.5775843339
 30
0.0
 40
1.225000000000023
  0
CIRCLE
  5
C9
330
1F
100
AcDbEntity
  8
0
  6
Continuous
 62
     7
370
    15
100
AcDbCircle
 10
140.4671110808
 20
210.5775843339
 30
0.0
 40
1.224999999999966
  0
CIRCLE
  5
CA
330
1F
100
AcDbEntity
  8
0
  6
Continuous
 62
     7
370
    15
100
AcDbCircle
 10
74.2671110808
 20
210.5775843339
 30
0.0
 40
1.224999999999966
  0
CIRCLE
  5
CB
330
1F
100
AcDbEntity
  8
0
  6
Continuous
 62
     7
370
    15
100
AcDbCircle
 10
82.7671110808
 20
228.5775843339
 30
0.0
 40
1.225000000000023
  0
CIRCLE
  5
CC
330
1F
100
AcDbEntity
  8
0
  6
Continuous
 62
     7
370
    15
100
AcDbCircle
 10
59.7671110808
 20
219.5775843339
 30
0.0
 40
1.699999999999989
  0
LINE
  5
CD
330
1F
100
AcDbEntity
  8
0
  6
Continuous
 62
     7
370
    15
100
AcDbLine
 10
157.9671189727
 20
203.6975828463
 30
0.0
 11
157.9671189727
 21
235.4575825387
 31
0.0
  0
ARC
  5
CE
330
1F
100
AcDbEntity
  8
0
  6
Continuous
 62
     7
370
    15
100
AcDbCircle
 10
154.9971110808
 20
203.6975843339
 30
0.0
 40
2.969999999999999
100
AcDbArc
 50
270.0
 51
0.0
  0
LINE
  5
CF
330
1F
100
AcDbEntity
  8
0
  6
Continuous
 62
     7
370
    15
100
AcDbLine
 10
59.7371146621
 20
200.7275839799
 30
0.0
 11
154.9971089305
 21
200.7275839799
 31
0.0
  0
ARC
  5
D0
330
1F
100
AcDbEntity
  8
0
  6
Continuous
 62
     7
370
    15
100
AcDbCircle
 10
59.7371110808
 20
203.6975843339
 30
0.0
 40
2.96999999999997
100
AcDbArc
 50
180.0
 51
270.0
  0
LINE
  5
D1
330
1F
100
AcDbEntity
  8
0
  6
Continuous
 62
     7
370
    15
100
AcDbLine
 10
56.7671046199
 20
235.4575825387
 30
0.0
 11
56.7671046199
 21
203.6975828463
 31
0.0
  0
ARC
  5
D2
330
1F
100
AcDbEntity
  8
0
  6
Continuous
 62
     7
370
    15
100
AcDbCircle
 10
59.7371110808
 20
235.4575843339
 30
0.0
 40
2.970000000000027
100
AcDbArc
 50
90.0
 51
180.0
  0
LINE
  5
D3
330
1F
100
AcDbEntity
  8
0
  6
Continuous
 62
     7
370
    15
100
AcDbLine
 10
154.9971089305
 20
238.4275851303
 30
0.0
 11
59.7371146621
 21
238.4275851303
 31
0.0
  0
ARC
  5
D4
330
1F
100
AcDbEntity
  8
0
  6
Continuous
 62
     7
370
    15
100
AcDbCircle
 10
154.9971110808
 20
235.4575843339
 30
0.0
 40
2.970000000000027
100
AcDbArc
 50
0.0
 51
90.0
  0
CIRCLE
  5
D5
330
1F
100
AcDbEntity
  8
0
  6
Continuous
 62
     7
370
    15
100
AcDbCircle
 10
74.2671110808
 20
228.5775843339
 30
0.0
 40
1.225000000000023
  0
CIRCLE
  5
D6
330
1F
100
AcDbEntity
  8
0
  6
Continuous
 62
     7
370
    15
100
AcDbCircle
 10
82.7671110808
 20
210.5775843339
 30
0.0
 40
1.224999999999966
  0
CIRCLE
  5
D7
330
1F
100
AcDbEntity
  8
0
  6
Continuous
 62
     7
370
    15
100
AcDbCircle
 10
131.9671110808
 20
210.5775843339
 30
0.0
 40
1.224999999999966
  0
CIRCLE
  5
D8
330
1F
100
AcDbEntity
  8
0
  6
Continuous
 62
     7
370
    15
100
AcDbCircle
 10
154.9671110808
 20
219.5775843339
 30
0.0
 40
1.699999999999989
  0
CIRCLE
  5
D9
330
1F
100
AcDbEntity
  8
0
  6
Continuous
 62
     7
370
    15
100
AcDbCircle
 10
131.9671110808
 20
228.5775843339
 30
0.0
 40
1.225000000000023
  0
LINE
  5
DA
330
1F
100
AcDbEntity
  8
0
  6
Continuous
 62
     7
370
    15
100
AcDbLine
 10
95.6671223582
 20
214.7775833958
 30
0.0
 11
110.5671212615
 21
214.7775833958
 31
0.0
  0
LINE
  5
DB
330
1F
100
AcDbEntity
  8
0
  6
Continuous
 62
     7
370
    15
100
AcDbLine
 10
95.6671223582
 20
206.377582764
 30
0.0
 11
95.6671223582
 21
214.7775833958
 31
0.0
  0
LINE
  5
DC
330
1F
100
AcDbEntity
  8
0
  6
Continuous
 62
     7
370
    15
100
AcDbLine
 10
110.5671212615
 20
206.377582764
 30
0.0
 11
95.6671223582
 21
206.377582764
 31
0.0
  0
LINE
  5
DD
330
1F
100
AcDbEntity
  8
0
  6
Continuous
 62
     7
370
    15
100
AcDbLine
 10
110.5671212615
 20
214.7775833958
 30
0.0
 11
110.5671212615
 21
206.377582764
 31
0.0
  0
CIRCLE
  5
DE
330
1F
100
AcDbEntity
  8
0
  6
Continuous
 62
     7
370
    15
100
AcDbCircle
 10
107.3671110808
 20
223.5775843339
 30
0.0
 40
0.4499999999999318
  0
CIRCLE
  5
DF
330
1F
100
AcDbEntity
  8
0
  6
Continuous
 62
     7
370
    15
100
AcDbCircle
 10
107.3671110808
 20
205.5775843339
 30
0.0
 40
0.4499999999999602
  0
CIRCLE
  5
E0
330
1F
100
AcDbEntity
  8
0
  6
Continuous
 62
     7
370
    15
100
AcDbCircle
 10
107.3671110808
 20
205.5775843339
 30
0.0
 40
0.2499999999999716
  0
CIRCLE
  5
E1
330
1F
100
AcDbEntity
  8
0
  6
Continuous
 62
     7
370
    15
100
AcDbCircle
 10
107.3671110808
 20
223.5775843339
 30
0.0
 40
0.2499999999999716
  0
LINE
  5
E2
330
1F
100
AcDbEntity
  8
0
  6
Continuous
 62
     7
370
    15
100
AcDbLine
 10
110.367117876
 20
214.5775837356
 30
0.0
 11
95.8671257438
 21
214.5775837356
 31
0.0
  0
LWPOLYLINE
  5
E3
330
1F
100
AcDbEntity
  8
0
  6
Continuous
 62
     7
370
    15
100
AcDbPolyline
 90
        9
 70
   128
 43
0.0
 10
95.8671257438
 20
214.5775837356
 10
95.8632812442
 20
214.5814282352
 10
95.851896757
 20
214.592808997
 10
95.8334193172
 20
214.6112901622
 10
95.808534378
 20
214.6361639255
 10
95.7782254161
 20
214.6664691621
 10
95.7436547221
 20
214.7010473066
 10
95.7061335982
 20
214.7385647052
 10
95.6671223582
 20
214.7775833958
  0
LWPOLYLINE
  5
E4
330
1F
100
AcDbEntity
  8
0
  6
Continuous
 62
     7
370
    15
100
AcDbPolyline
 90
        9
 70
   128
 43
0.0
 10
110.5671212615
 20
214.7775833958
 10
110.5280802192
 20
214.7385647052
 10
110.4905888976
 20
214.7010473066
 10
110.4559884013
 20
214.6664691621
 10
110.4256794395
 20
214.6361639255
 10
110.4008243026
 20
214.6112901622
 10
110.3823468627
 20
214.592808997
 10
110.3709623756
 20
214.5814282352
 10
110.367117876
 20
214.5775837356
  0
LINE
  5
E5
330
1F
100
AcDbEntity
  8
0
  6
Continuous
 62
     7
370
    15
100
AcDbLine
 10
95.8671257438
 20
214.5775837356
 30
0.0
 11
95.8671257438
 21
206.5775861496
 31
0.0
  0
LWPOLYLINE
  5
E6
330
1F
100
AcDbEntity
  8
0
  6
Continuous
 62
     7
370
    15
100
AcDbPolyline
 90
        9
 70
   128
 43
0.0
 10
95.8671257438
 20
206.5775861496
 10
95.8632812442
 20
206.57374165
 10
95.851896757
 20
206.5623608881
 10
95.8334193172
 20
206.5438797229
 10
95.808534378
 20
206.5190059596
 10
95.7782254161
 20
206.4886969977
 10
95.7436547221
 20
206.4541225785
 10
95.7061335982
 20
206.4166014546
 10
95.6671223582
 20
206.377582764
  0
LWPOLYLINE
  5
E7
330
1F
100
AcDbEntity
  8
0
  6
Continuous
 62
     7
370
    15
100
AcDbPolyline
 90
        9
 70
   128
 43
0.0
 10
110.5671212615
 20
206.377582764
 10
110.5280802192
 20
206.4166014546
 10
110.4905888976
 20
206.4541225785
 10
110.4559884013
 20
206.4886969977
 10
110.4256794395
 20
206.5190059596
 10
110.4008243026
 20
206.5438797229
 10
110.3823468627
 20
206.5623608881
 10
110.3709623756
 20
206.57374165
 10
110.367117876
 20
206.5775861496
  0
LINE
  5
E8
330
1F
100
AcDbEntity
  8
0
  6
Continuous
 62
     7
370
    15
100
AcDbLine
 10
110.367117876
 20
206.5775861496
 30
0.0
 11
110.367117876
 21
214.5775837356
 31
0.0
  0
LINE
  5
E9
330
1F
100
AcDbEntity
  8
0
  6
Continuous
 62
     7
370
    15
100
AcDbLine
 10
95.8671257438
 20
206.5775861496
 30
0.0
 11
110.367117876
 21
206.5775861496
 31
0.0
  0
CIRCLE
  5
EA
330
1F
100
AcDbEntity
  8
0
  6
Continuous
 62
     7
370
    15
100
AcDbCircle
 10
131.9671110808
 20
228.5775843339
 30
0.0
 40
1.025000000000006
  0
CIRCLE
  5
EB
330
1F
100
AcDbEntity
  8
0
  6
Continuous
 62
     7
370
    15
100
AcDbCircle
 10
154.9671110808
 20
219.5775843339
 30
0.0
 40
1.5
  0
CIRCLE
  5
EC
330
1F
100
AcDbEntity
  8
0
  6
Continuous
 62
     7
370
    15
100
AcDbCircle
 10
131.9671110808
 20
210.5775843339
 30
0.0
 40
1.025000000000006
  0
CIRCLE
  5
ED
330
1F
100
AcDbEntity
  8
0
  6
Continuous
 62
     7
370
    15
100
AcDbCircle
 10
82.7671110808
 20
210.5775843339
 30
0.0
 40
1.025000000000006
  0
CIRCLE
  5
EE
330
1F
100
AcDbEntity
  8
0
  6
Continuous
 62
     7
370
    15
100
AcDbCircle
 10
74.2671110808
 20
228.5775843339
 30
0.0
 40
1.025000000000006
  0
LINE
  5
EF
330
1F
100
AcDbEntity
  8
0
  6
Continuous
 62
     7
370
    15
100
AcDbLine
 10
154.9971089305
 20
200.7275839799
 30
0.0
 11
154.9971089305
 21
200.5275843197
 31
0.0
  0
LINE
  5
F0
330
1F
100
AcDbEntity
  8
0
  6
Continuous
 62
     7
370
    15
100
AcDbLine
 10
154.9971089305
 20
200.5275843197
 30
0.0
 11
59.7371146621
 21
200.5275843197
 31
0.0
  0
LINE
  5
F1
330
1F
100
AcDbEntity
  8
0
  6
Continuous
 62
     7
370
    15
100
AcDbLine
 10
59.7371146621
 20
200.5275843197
 30
0.0
 11
59.7371146621
 21
200.7275839799
 31
0.0
  0
LINE
  5
F2
330
1F
100
AcDbEntity
  8
0
  6
Continuous
 62
     7
370
    15
100
AcDbLine
 10
157.9671189727
 20
203.6975828463
 30
0.0
 11
158.1671223582
 21
203.6975828463
 31
0.0
  0
ARC
  5
F3
330
1F
100
AcDbEntity
  8
0
  6
Continuous
 62
     7
370
    15
100
AcDbCircle
 10
154.9971110808
 20
203.6975843339
 30
0.0
 40
3.170000000000016
100
AcDbArc
 50
270.0
 51
0.0
  0
ARC
  5
F4
330
1F
100
AcDbEntity
  8
0
  6
Continuous
 62
     7
370
    15
100
AcDbCircle
 10
59.7371110808
 20
203.6975843339
 30
0.0
 40
3.170000000000009
100
AcDbArc
 50
180.0
 51
270.0
  0
LINE
  5
F5
330
1F
100
AcDbEntity
  8
0
  6
Continuous
 62
     7
370
    15
100
AcDbLine
 10
56.5671012343
 20
203.6975828463
 30
0.0
 11
56.7671046199
 21
203.6975828463
 31
0.0
  0
LINE
  5
F6
330
1F
100
AcDbEntity
  8
0
  6
Continuous
 62
     7
370
    15
100
AcDbLine
 10
157.9671189727
 20
235.4575825387
 30
0.0
 11
158.1671223582
 21
235.4575825387
 31
0.0
  0
LINE
  5
F7
330
1F
100
AcDbEntity
  8
0
  6
Continuous
 62
     7
370
    15
100
AcDbLine
 10
158.1671223582
 20
235.4575825387
 30
0.0
 11
158.1671223582
 21
203.6975828463
 31
0.0
  0
LINE
  5
F8
330
1F
100
AcDbEntity
  8
0
  6
Continuous
 62
     7
370
    15
100
AcDbLine
 10
56.5671012343
 20
203.6975828463
 30
0.0
 11
56.5671012343
 21
235.4575825387
 31
0.0
  0
LINE
  5
F9
330
1F
100
AcDbEntity
  8
0
  6
Continuous
 62
     7
370
    15
100
AcDbLine
 10
56.5671012343
 20
235.4575825387
 30
0.0
 11
56.7671046199
 21
235.4575825387
 31
0.0
  0
CIRCLE
  5
FA
330
1F
100
AcDbEntity
  8
0
  6
Continuous
 62
     7
370
    15
100
AcDbCircle
 10
59.7671110808
 20
219.5775843339
 30
0.0
 40
1.5
  0
CIRCLE
  5
FB
330
1F
100
AcDbEntity
  8
0
  6
Continuous
 62
     7
370
    15
100
AcDbCircle
 10
82.7671110808
 20
228.5775843339
 30
0.0
 40
1.025000000000006
  0
CIRCLE
  5
FC
330
1F
100
AcDbEntity
  8
0
  6
Continuous
 62
     7
370
    15
100
AcDbCircle
 10
74.2671110808
 20
210.5775843339
 30
0.0
 40
1.025000000000006
  0
CIRCLE
  5
FD
330
1F
100
AcDbEntity
  8
0
  6
Continuous
 62
     7
370
    15
100
AcDbCircle
 10
140.4671110808
 20
210.5775843339
 30
0.0
 40
1.025000000000006
  0
CIRCLE
  5
FE
330
1F
100
AcDbEntity
  8
0
  6
Continuous
 62
     7
370
    15
100
AcDbCircle
 10
140.4671110808
 20
228.5775843339
 30
0.0
 40
1.025000000000006
  0
LINE
  5
FF
330
1F
100
AcDbEntity
  8
0
  6
Continuous
 62
     7
370
    15
100
AcDbLine
 10
110.367117876
 20
232.5775829607
 30
0.0
 11
95.8671257438
 21
232.5775829607
 31
0.0
  0
LWPOLYLINE
  5
100
330
1F
100
AcDbEntity
  8
0
  6
Continuous
 62
     7
370
    15
100
AcDbPolyline
 90
        9
 70
   128
 43
0.0
 10
95.8671257438
 20
232.5775829607
 10
95.8632812442
 20
232.5814274603
 10
95.851896757
 20
232.5928119474
 10
95.8334193172
 20
232.6112893873
 10
95.808534378
 20
232.6361594254
 10
95.7782254161
 20
232.6664683872
 10
95.7436547221
 20
232.7010465318
 10
95.7061335982
 20
232.7385676557
 10
95.6671223582
 20
232.7775863462
  0
LWPOLYLINE
  5
101
330
1F
100
AcDbEntity
  8
0
  6
Continuous
 62
     7
370
    15
100
AcDbPolyline
 90
        9
 70
   128
 43
0.0
 10
110.5671212615
 20
232.7775863462
 10
110.5280802192
 20
232.7385676557
 10
110.4905888976
 20
232.7010465318
 10
110.4559884013
 20
232.6664683872
 10
110.4256794395
 20
232.6361594254
 10
110.4008243026
 20
232.6112893873
 10
110.3823468627
 20
232.5928119474
 10
110.3709623756
 20
232.5814274603
 10
110.367117876
 20
232.5775829607
  0
LINE
  5
102
330
1F
100
AcDbEntity
  8
0
  6
Continuous
 62
     7
370
    15
100
AcDbLine
 10
95.8671257438
 20
232.5775829607
 30
0.0
 11
95.8671257438
 21
224.5775853747
 31
0.0
  0
LWPOLYLINE
  5
103
330
1F
100
AcDbEntity
  8
0
  6
Continuous
 62
     7
370
    15
100
AcDbPolyline
 90
        9
 70
   128
 43
0.0
 10
95.8671257438
 20
224.5775853747
 10
95.8632812442
 20
224.5737408751
 10
95.851896757
 20
224.5623601132
 10
95.8334193172
 20
224.5438789481
 10
95.808534378
 20
224.5190051847
 10
95.7782254161
 20
224.4886999482
 10
95.7436547221
 20
224.4541218036
 10
95.7061335982
 20
224.4166006797
 10
95.6671223582
 20
224.3775857144
  0
LWPOLYLINE
  5
104
330
1F
100
AcDbEntity
  8
0
  6
Continuous
 62
     7
370
    15
100
AcDbPolyline
 90
        9
 70
   128
 43
0.0
 10
110.5671212615
 20
224.3775857144
 10
110.5280802192
 20
224.4166006797
 10
110.4905888976
 20
224.4541218036
 10
110.4559884013
 20
224.4886999482
 10
110.4256794395
 20
224.5190051847
 10
110.4008243026
 20
224.5438789481
 10
110.3823468627
 20
224.5623601132
 10
110.3709623756
 20
224.5737408751
 10
110.367117876
 20
224.5775853747
  0
LINE
  5
105
330
1F
100
AcDbEntity
  8
0
  6
Continuous
 62
     7
370
    15
100
AcDbLine
 10
110.367117876
 20
224.5775853747
 30
0.0
 11
110.367117876
 21
232.5775829607
 31
0.0
  0
LINE
  5
106
330
1F
100
AcDbEntity
  8
0
  6
Continuous
 62
     7
370
    15
100
AcDbLine
 10
154.9971089305
 20
238.4275851303
 30
0.0
 11
154.9971089305
 21
238.6275810653
 31
0.0
  0
ARC
  5
107
330
1F
100
AcDbEntity
  8
0
  6
Continuous
 62
     7
370
    15
100
AcDbCircle
 10
154.9971110808
 20
235.4575843339
 30
0.0
 40
3.169999999999987
100
AcDbArc
 50
0.0
 51
90.0
  0
ARC
  5
108
330
1F
100
AcDbEntity
  8
0
  6
Continuous
 62
     7
370
    15
100
AcDbCircle
 10
59.7371110808
 20
235.4575843339
 30
0.0
 40
3.170000000000009
100
AcDbArc
 50
90.0
 51
180.0
  0
LINE
  5
109
330
1F
100
AcDbEntity
  8
0
  6
Continuous
 62
     7
370
    15
100
AcDbLine
 10
59.7371146621
 20
238.6275810653
 30
0.0
 11
59.7371146621
 21
238.4275851303
 31
0.0
  0
LINE
  5
10A
330
1F
100
AcDbEntity
  8
0
  6
Continuous
 62
     7
370
    15
100
AcDbLine
 10
59.7371146621
 20
238.6275810653
 30
0.0
 11
154.9971089305
 21
238.6275810653
 31
0.0
  0
LINE
  5
10B
330
1F
100
AcDbEntity
  8
0
  6
Continuous
 62
     7
370
    15
100
AcDbLine
 10
95.8671257438
 20
224.5775853747
 30
0.0
 11
110.367117876
 21
224.5775853747
 31
0.0
  0
CIRCLE
  5
10C
330
1F
100
AcDbEntity
  8
0
  6
Continuous
 62
     7
370
    15
100
AcDbCircle
 10
107.3671110808
 20
233.5775843339
 30
0.0
 40
0.2499999999999716
  0
CIRCLE
  5
10D
330
1F
100
AcDbEntity
  8
0
  6
Continuous
 62
     7
370
    15
100
AcDbCircle
 10
107.3671110808
 20
215.5775843339
 30
0.0
 40
0.2499999999999716
  0
LINE
  5
10E
330
1F
100
AcDbEntity
  8
0
  6
Continuous
 62
     7
370
    15
100
AcDbLine
 10
62.9171118678
 20
115.5975853556
 30
0.0
 11
62.9171118678
 21
147.3575850481
 31
0.0
  0
LINE
  5
10F
330
1F
100
AcDbEntity
  8
0
  6
Continuous
 62
     7
370
    15
100
AcDbLine
 10
62.9171118678
 20
147.3575850481
 30
0.0
 11
63.1171152534
 21
147.3575850481
 31
0.0
  0
LINE
  5
110
330
1F
100
AcDbEntity
  8
0
  6
Continuous
 62
     7
370
    15
100
AcDbLine
 10
63.1171152534
 20
147.3575850481
 30
0.0
 11
63.1171152534
 21
115.5975853556
 31
0.0
  0
LINE
  5
111
330
1F
100
AcDbEntity
  8
0
  6
Continuous
 62
     7
370
    15
100
AcDbLine
 10
62.9171118678
 20
115.5975853556
 30
0.0
 11
63.1171152534
 21
115.5975853556
 31
0.0
  0
ARC
  5
112
330
1F
100
AcDbEntity
  8
0
  6
Continuous
 62
     7
370
    15
100
AcDbCircle
 10
148.6471110808
 20
147.3575843339
 30
0.0
 40
2.970000000000027
100
AcDbArc
 50
0.0
 51
90.0
  0
LINE
  5
113
330
1F
100
AcDbEntity
  8
0
  6
Continuous
 62
     7
370
    15
100
AcDbLine
 10
148.647098297
 20
150.3275839144
 30
0.0
 11
148.647098297
 21
150.527584506
 31
0.0
  0
ARC
  5
114
330
1F
100
AcDbEntity
  8
0
  6
Continuous
 62
     7
370
    15
100
AcDbCircle
 10
148.6471110808
 20
147.3575843339
 30
0.0
 40
3.169999999999987
100
AcDbArc
 50
0.0
 51
90.0
  0
LINE
  5
115
330
1F
100
AcDbEntity
  8
0
  6
Continuous
 62
     7
370
    15
100
AcDbLine
 10
151.6171083392
 20
147.3575850481
 30
0.0
 11
151.8171117248
 21
147.3575850481
 31
0.0
  0
ARC
  5
116
330
1F
100
AcDbEntity
  8
0
  6
Continuous
 62
     7
370
    15
100
AcDbCircle
 10
66.0871110808
 20
147.3575843339
 30
0.0
 40
3.170000000000009
100
AcDbArc
 50
90.0
 51
180.0
  0
LINE
  5
117
330
1F
100
AcDbEntity
  8
0
  6
Continuous
 62
     7
370
    15
100
AcDbLine
 10
66.0871252956
 20
150.527584506
 30
0.0
 11
66.0871252956
 21
150.3275839144
 31
0.0
  0
ARC
  5
118
330
1F
100
AcDbEntity
  8
0
  6
Continuous
 62
     7
370
    15
100
AcDbCircle
 10
66.0871110808
 20
147.3575843339
 30
0.0
 40
2.970000000000027
100
AcDbArc
 50
90.0
 51
180.0
  0
LINE
  5
119
330
1F
100
AcDbEntity
  8
0
  6
Continuous
 62
     7
370
    15
100
AcDbLine
 10
148.647098297
 20
150.3275839144
 30
0.0
 11
66.0871252956
 21
150.3275839144
 31
0.0
  0
LINE
  5
11A
330
1F
100
AcDbEntity
  8
0
  6
Continuous
 62
     7
370
    15
100
AcDbLine
 10
66.0871252956
 20
150.527584506
 30
0.0
 11
148.647098297
 21
150.527584506
 31
0.0
  0
LINE
  5
11B
330
1F
100
AcDbEntity
  8
0
  6
Continuous
 62
     7
370
    15
100
AcDbLine
 10
110.367117876
 20
118.4775849336
 30
0.0
 11
110.367117876
 21
126.4775825196
 31
0.0
  0
LWPOLYLINE
  5
11C
330
1F
100
AcDbEntity
  8
0
  6
Continuous
 62
     7
370
    15
100
AcDbPolyline
 90
        9
 70
   128
 43
0.0
 10
110.367117876
 20
126.4775825196
 10
110.3709623756
 20
126.4814270192
 10
110.3823468627
 20
126.4928077811
 10
110.4008243026
 20
126.5112889463
 10
110.4256794395
 20
126.5361627096
 10
110.4559884013
 20
126.5664716714
 10
110.4905888976
 20
126.6010460907
 10
110.5280802192
 20
126.6385672146
 10
110.5671212615
 20
126.6775859052
  0
LINE
  5
11D
330
1F
100
AcDbEntity
  8
0
  6
Continuous
 62
     7
370
    15
100
AcDbLine
 10
110.5671212615
 20
126.6775859052
 30
0.0
 11
110.5671212615
 21
118.2775852734
 31
0.0
  0
LWPOLYLINE
  5
11E
330
1F
100
AcDbEntity
  8
0
  6
Continuous
 62
     7
370
    15
100
AcDbPolyline
 90
        9
 70
   128
 43
0.0
 10
110.5671212615
 20
118.2775852734
 10
110.5280802192
 20
118.316603964
 10
110.4905888976
 20
118.3541213625
 10
110.4559884013
 20
118.3886995071
 10
110.4256794395
 20
118.4190047437
 10
110.4008243026
 20
118.443878507
 10
110.3823468627
 20
118.4623596722
 10
110.3709623756
 20
118.473740434
 10
110.367117876
 20
118.4775849336
  0
LINE
  5
11F
330
1F
100
AcDbEntity
  8
0
  6
Continuous
 62
     7
370
    15
100
AcDbLine
 10
110.367117876
 20
126.4775825196
 30
0.0
 11
95.8671257438
 21
126.4775825196
 31
0.0
  0
LWPOLYLINE
  5
120
330
1F
100
AcDbEntity
  8
0
  6
Continuous
 62
     7
370
    15
100
AcDbPolyline
 90
        9
 70
   128
 43
0.0
 10
95.8671257438
 20
126.4775825196
 10
95.8632812442
 20
126.4814270192
 10
95.851896757
 20
126.4928077811
 10
95.8334193172
 20
126.5112889463
 10
95.808534378
 20
126.5361627096
 10
95.7782254161
 20
126.5664716714
 10
95.7436547221
 20
126.6010460907
 10
95.7061335982
 20
126.6385672146
 10
95.6671223582
 20
126.6775859052
  0
LINE
  5
121
330
1F
100
AcDbEntity
  8
0
  6
Continuous
 62
     7
370
    15
100
AcDbLine
 10
95.6671223582
 20
126.6775859052
 30
0.0
 11
110.5671212615
 21
126.6775859052
 31
0.0
  0
LINE
  5
122
330
1F
100
AcDbEntity
  8
0
  6
Continuous
 62
     7
370
    15
100
AcDbLine
 10
110.5671212615
 20
118.2775852734
 30
0.0
 11
95.6671223582
 21
118.2775852734
 31
0.0
  0
LWPOLYLINE
  5
123
330
1F
100
AcDbEntity
  8
0
  6
Continuous
 62
     7
370
    15
100
AcDbPolyline
 90
        9
 70
   128
 43
0.0
 10
95.6671223582
 20
118.2775852734
 10
95.7061335982
 20
118.316603964
 10
95.7436547221
 20
118.3541213625
 10
95.7782254161
 20
118.3886995071
 10
95.808534378
 20
118.4190047437
 10
95.8334193172
 20
118.443878507
 10
95.851896757
 20
118.4623596722
 10
95.8632812442
 20
118.473740434
 10
95.8671257438
 20
118.4775849336
  0
LINE
  5
124
330
1F
100
AcDbEntity
  8
0
  6
Continuous
 62
     7
370
    15
100
AcDbLine
 10
95.8671257438
 20
118.4775849336
 30
0.0
 11
110.367117876
 21
118.4775849336
 31
0.0
  0
LINE
  5
125
330
1F
100
AcDbEntity
  8
0
  6
Continuous
 62
     7
370
    15
100
AcDbLine
 10
95.8671257438
 20
126.4775825196
 30
0.0
 11
95.8671257438
 21
118.4775849336
 31
0.0
  0
LINE
  5
126
330
1F
100
AcDbEntity
  8
0
  6
Continuous
 62
     7
370
    15
100
AcDbLine
 10
95.6671223582
 20
118.2775852734
 30
0.0
 11
95.6671223582
 21
126.6775859052
 31
0.0
  0
CIRCLE
  5
127
330
1F
100
AcDbEntity
  8
0
  6
Continuous
 62
     7
370
    15
100
AcDbCircle
 10
66.1171110808
 20
131.4775843339
 30
0.0
 40
1.5
  0
CIRCLE
  5
128
330
1F
100
AcDbEntity
  8
0
  6
Continuous
 62
     7
370
    15
100
AcDbCircle
 10
66.1171110808
 20
131.4775843339
 30
0.0
 40
1.700000000000017
  0
CIRCLE
  5
129
330
1F
100
AcDbEntity
  8
0
  6
Continuous
 62
     7
370
    15
100
AcDbCircle
 10
85.3171110808
 20
140.4775843339
 30
0.0
 40
1.025000000000006
  0
CIRCLE
  5
12A
330
1F
100
AcDbEntity
  8
0
  6
Continuous
 62
     7
370
    15
100
AcDbCircle
 10
85.3171110808
 20
140.4775843339
 30
0.0
 40
1.224999999999994
  0
CIRCLE
  5
12B
330
1F
100
AcDbEntity
  8
0
  6
Continuous
 62
     7
370
    15
100
AcDbCircle
 10
76.8171110808
 20
122.4775843339
 30
0.0
 40
1.025000000000006
  0
CIRCLE
  5
12C
330
1F
100
AcDbEntity
  8
0
  6
Continuous
 62
     7
370
    15
100
AcDbCircle
 10
76.8171110808
 20
122.4775843339
 30
0.0
 40
1.225000000000009
  0
CIRCLE
  5
12D
330
1F
100
AcDbEntity
  8
0
  6
Continuous
 62
     7
370
    15
100
AcDbCircle
 10
107.3671110808
 20
127.4775843339
 30
0.0
 40
0.2499999999999716
  0
CIRCLE
  5
12E
330
1F
100
AcDbEntity
  8
0
  6
Continuous
 62
     7
370
    15
100
AcDbCircle
 10
107.3671110808
 20
127.4775843339
 30
0.0
 40
0.4499999999999744
  0
CIRCLE
  5
12F
330
1F
100
AcDbEntity
  8
0
  6
Continuous
 62
     7
370
    15
100
AcDbCircle
 10
107.3671110808
 20
145.4775843339
 30
0.0
 40
0.2499999999999716
  0
CIRCLE
  5
130
330
1F
100
AcDbEntity
  8
0
  6
Continuous
 62
     7
370
    15
100
AcDbCircle
 10
107.3671110808
 20
145.4775843339
 30
0.0
 40
0.4499999999999602
  0
CIRCLE
  5
131
330
1F
100
AcDbEntity
  8
0
  6
Continuous
 62
     7
370
    15
100
AcDbCircle
 10
137.9171110808
 20
140.4775843339
 30
0.0
 40
1.025000000000006
  0
CIRCLE
  5
132
330
1F
100
AcDbEntity
  8
0
  6
Continuous
 62
     7
370
    15
100
AcDbCircle
 10
137.9171110808
 20
140.4775843339
 30
0.0
 40
1.224999999999994
  0
CIRCLE
  5
133
330
1F
100
AcDbEntity
  8
0
  6
Continuous
 62
     7
370
    15
100
AcDbCircle
 10
137.9171110808
 20
122.4775843339
 30
0.0
 40
1.025000000000006
  0
CIRCLE
  5
134
330
1F
100
AcDbEntity
  8
0
  6
Continuous
 62
     7
370
    15
100
AcDbCircle
 10
137.9171110808
 20
122.4775843339
 30
0.0
 40
1.225000000000009
  0
CIRCLE
  5
135
330
1F
100
AcDbEntity
  8
0
  6
Continuous
 62
     7
370
    15
100
AcDbCircle
 10
129.4171110808
 20
122.4775843339
 30
0.0
 40
1.025000000000006
  0
CIRCLE
  5
136
330
1F
100
AcDbEntity
  8
0
  6
Continuous
 62
     7
370
    15
100
AcDbCircle
 10
129.4171110808
 20
122.4775843339
 30
0.0
 40
1.225000000000009
  0
CIRCLE
  5
137
330
1F
100
AcDbEntity
  8
0
  6
Continuous
 62
     7
370
    15
100
AcDbCircle
 10
148.6171110808
 20
131.4775843339
 30
0.0
 40
1.5
  0
CIRCLE
  5
138
330
1F
100
AcDbEntity
  8
0
  6
Continuous
 62
     7
370
    15
100
AcDbCircle
 10
148.6171110808
 20
131.4775843339
 30
0.0
 40
1.700000000000017
  0
CIRCLE
  5
139
330
1F
100
AcDbEntity
  8
0
  6
Continuous
 62
     7
370
    15
100
AcDbCircle
 10
129.4171110808
 20
140.4775843339
 30
0.0
 40
1.025000000000006
  0
CIRCLE
  5
13A
330
1F
100
AcDbEntity
  8
0
  6
Continuous
 62
     7
370
    15
100
AcDbCircle
 10
129.4171110808
 20
140.4775843339
 30
0.0
 40
1.224999999999994
  0
CIRCLE
  5
13B
330
1F
100
AcDbEntity
  8
0
  6
Continuous
 62
     7
370
    15
100
AcDbCircle
 10
107.3671110808
 20
135.4775843339
 30
0.0
 40
0.2499999999999716
  0
CIRCLE
  5
13C
330
1F
100
AcDbEntity
  8
0
  6
Continuous
 62
     7
370
    15
100
AcDbCircle
 10
107.3671110808
 20
135.4775843339
 30
0.0
 40
0.4499999999999886
  0
CIRCLE
  5
13D
330
1F
100
AcDbEntity
  8
0
  6
Continuous
 62
     7
370
    15
100
AcDbCircle
 10
107.3671110808
 20
117.4775843339
 30
0.0
 40
0.2499999999999716
  0
CIRCLE
  5
13E
330
1F
100
AcDbEntity
  8
0
  6
Continuous
 62
     7
370
    15
100
AcDbCircle
 10
107.3671110808
 20
117.4775843339
 30
0.0
 40
0.4499999999999744
  0
CIRCLE
  5
13F
330
1F
100
AcDbEntity
  8
0
  6
Continuous
 62
     7
370
    15
100
AcDbCircle
 10
85.3171110808
 20
122.4775843339
 30
0.0
 40
1.025000000000006
  0
CIRCLE
  5
140
330
1F
100
AcDbEntity
  8
0
  6
Continuous
 62
     7
370
    15
100
AcDbCircle
 10
85.3171110808
 20
122.4775843339
 30
0.0
 40
1.225000000000009
  0
CIRCLE
  5
141
330
1F
100
AcDbEntity
  8
0
  6
Continuous
 62
     7
370
    15
100
AcDbCircle
 10
76.8171110808
 20
140.4775843339
 30
0.0
 40
1.025000000000006
  0
CIRCLE
  5
142
330
1F
100
AcDbEntity
  8
0
  6
Continuous
 62
     7
370
    15
100
AcDbCircle
 10
76.8171110808
 20
140.4775843339
 30
0.0
 40
1.224999999999994
  0
LINE
  5
143
330
1F
100
AcDbEntity
  8
0
  6
Continuous
 62
     7
370
    15
100
AcDbLine
 10
110.367117876
 20
136.4775841588
 30
0.0
 11
110.367117876
 21
144.4775836074
 31
0.0
  0
LWPOLYLINE
  5
144
330
1F
100
AcDbEntity
  8
0
  6
Continuous
 62
     7
370
    15
100
AcDbPolyline
 90
        9
 70
   128
 43
0.0
 10
110.367117876
 20
144.4775836074
 10
110.3709623756
 20
144.481428107
 10
110.3823468627
 20
144.4928088689
 10
110.4008243026
 20
144.511290034
 10
110.4256794395
 20
144.5361637974
 10
110.4559884013
 20
144.5664708966
 10
110.4905888976
 20
144.6010471785
 10
110.5280802192
 20
144.6385664397
 10
110.5671212615
 20
144.6775851303
  0
LINE
  5
145
330
1F
100
AcDbEntity
  8
0
  6
Continuous
 62
     7
370
    15
100
AcDbLine
 10
110.5671212615
 20
144.6775851303
 30
0.0
 11
110.5671212615
 21
136.2775844985
 31
0.0
  0
LWPOLYLINE
  5
146
330
1F
100
AcDbEntity
  8
0
  6
Continuous
 62
     7
370
    15
100
AcDbPolyline
 90
        9
 70
   128
 43
0.0
 10
110.5671212615
 20
136.2775844985
 10
110.5280802192
 20
136.3166031891
 10
110.4905888976
 20
136.3541205877
 10
110.4559884013
 20
136.3886987322
 10
110.4256794395
 20
136.4190058315
 10
110.4008243026
 20
136.4438777321
 10
110.3823468627
 20
136.46236076
 10
110.3709623756
 20
136.4737415218
 10
110.367117876
 20
136.4775841588
  0
LINE
  5
147
330
1F
100
AcDbEntity
  8
0
  6
Continuous
 62
     7
370
    15
100
AcDbLine
 10
110.367117876
 20
144.4775836074
 30
0.0
 11
95.8671257438
 21
144.4775836074
 31
0.0
  0
LWPOLYLINE
  5
148
330
1F
100
AcDbEntity
  8
0
  6
Continuous
 62
     7
370
    15
100
AcDbPolyline
 90
        9
 70
   128
 43
0.0
 10
95.8671257438
 20
144.4775836074
 10
95.8632812442
 20
144.481428107
 10
95.851896757
 20
144.4928088689
 10
95.8334193172
 20
144.511290034
 10
95.808534378
 20
144.5361637974
 10
95.7782254161
 20
144.5664708966
 10
95.7436547221
 20
144.6010471785
 10
95.7061335982
 20
144.6385664397
 10
95.6671223582
 20
144.6775851303
  0
LINE
  5
149
330
1F
100
AcDbEntity
  8
0
  6
Continuous
 62
     7
370
    15
100
AcDbLine
 10
95.6671223582
 20
144.6775851303
 30
0.0
 11
110.5671212615
 21
144.6775851303
 31
0.0
  0
LINE
  5
14A
330
1F
100
AcDbEntity
  8
0
  6
Continuous
 62
     7
370
    15
100
AcDbLine
 10
110.5671212615
 20
136.2775844985
 30
0.0
 11
95.6671223582
 21
136.2775844985
 31
0.0
  0
LWPOLYLINE
  5
14B
330
1F
100
AcDbEntity
  8
0
  6
Continuous
 62
     7
370
    15
100
AcDbPolyline
 90
        9
 70
   128
 43
0.0
 10
95.6671223582
 20
136.2775844985
 10
95.7061335982
 20
136.3166031891
 10
95.7436547221
 20
136.3541205877
 10
95.7782254161
 20
136.3886987322
 10
95.808534378
 20
136.4190058315
 10
95.8334193172
 20
136.4438777321
 10
95.851896757
 20
136.46236076
 10
95.8632812442
 20
136.4737415218
 10
95.8671257438
 20
136.4775841588
  0
LINE
  5
14C
330
1F
100
AcDbEntity
  8
0
  6
Continuous
 62
     7
370
    15
100
AcDbLine
 10
95.8671257438
 20
136.4775841588
 30
0.0
 11
110.367117876
 21
136.4775841588
 31
0.0
  0
LINE
  5
14D
330
1F
100
AcDbEntity
  8
0
  6
Continuous
 62
     7
370
    15
100
AcDbLine
 10
95.8671257438
 20
144.4775836074
 30
0.0
 11
95.8671257438
 21
136.4775841588
 31
0.0
  0
LINE
  5
14E
330
1F
100
AcDbEntity
  8
0
  6
Continuous
 62
     7
370
    15
100
AcDbLine
 10
95.6671223582
 20
136.2775844985
 30
0.0
 11
95.6671223582
 21
144.6775851303
 31
0.0
  0
LINE
  5
14F
330
1F
100
AcDbEntity
  8
0
  6
Continuous
 62
     7
370
    15
100
AcDbLine
 10
66.0871252956
 20
112.627582764
 30
0.0
 11
148.647098297
 21
112.627582764
 31
0.0
  0
LINE
  5
150
330
1F
100
AcDbEntity
  8
0
  6
Continuous
 62
     7
370
    15
100
AcDbLine
 10
148.647098297
 20
112.627582764
 30
0.0
 11
148.647098297
 21
112.4275831038
 31
0.0
  0
LINE
  5
151
330
1F
100
AcDbEntity
  8
0
  6
Continuous
 62
     7
370
    15
100
AcDbLine
 10
148.647098297
 20
112.4275831038
 30
0.0
 11
66.0871252956
 21
112.4275831038
 31
0.0
  0
LINE
  5
152
330
1F
100
AcDbEntity
  8
0
  6
Continuous
 62
     7
370
    15
100
AcDbLine
 10
66.0871252956
 20
112.4275831038
 30
0.0
 11
66.0871252956
 21
112.627582764
 31
0.0
  0
ARC
  5
153
330
1F
100
AcDbEntity
  8
0
  6
Continuous
 62
     7
370
    15
100
AcDbCircle
 10
148.6471110808
 20
115.5975843339
 30
0.0
 40
2.970000000000027
100
AcDbArc
 50
270.0
 51
0.0
  0
LINE
  5
154
330
1F
100
AcDbEntity
  8
0
  6
Continuous
 62
     7
370
    15
100
AcDbLine
 10
151.6171083392
 20
115.5975853556
 30
0.0
 11
151.8171117248
 21
115.5975853556
 31
0.0
  0
ARC
  5
155
330
1F
100
AcDbEntity
  8
0
  6
Continuous
 62
     7
370
    15
100
AcDbCircle
 10
148.6471110808
 20
115.5975843339
 30
0.0
 40
3.170000000000016
100
AcDbArc
 50
270.0
 51
0.0
  0
ARC
  5
156
330
1F
100
AcDbEntity
  8
0
  6
Continuous
 62
     7
370
    15
100
AcDbCircle
 10
66.0871110808
 20
115.5975843339
 30
0.0
 40
3.170000000000016
100
AcDbArc
 50
180.0
 51
270.0
  0
ARC
  5
157
330
1F
100
AcDbEntity
  8
0
  6
Continuous
 62
     7
370
    15
100
AcDbCircle
 10
66.0871110808
 20
115.5975843339
 30
0.0
 40
2.970000000000027
100
AcDbArc
 50
180.0
 51
270.0
  0
LINE
  5
158
330
1F
100
AcDbEntity
  8
0
  6
Continuous
 62
     7
370
    15
100
AcDbLine
 10
151.6171083392
 20
115.5975853556
 30
0.0
 11
151.6171083392
 21
147.3575850481
 31
0.0
  0
LINE
  5
159
330
1F
100
AcDbEntity
  8
0
  6
Continuous
 62
     7
370
    15
100
AcDbLine
 10
151.8171117248
 20
147.3575850481
 30
0.0
 11
151.8171117248
 21
115.5975853556
 31
0.0
  0
LINE
  5
15A
330
1F
100
AcDbEntity
  8
SLD-0
100
AcDbLine
 10
59.7671110808
 20
219.5775843339
 30
0.0
 11
59.7671110808
 21
242.5532729552
 31
0.0
  0
LINE
  5
15B
330
1F
100
AcDbEntity
  8
SLD-0
100
AcDbLine
 10
154.9671110808
 20
219.5775843339
 30
0.0
 11
154.9671110808
 21
242.5532729552
 31
0.0
  0
LINE
  5
15C
330
1F
100
AcDbEntity
  8
SLD-0
100
AcDbLine
 10
66.1171110808
 20
131.4775843339
 30
0.0
 11
66.1171110808
 21
154.0182978509
 31
0.0
  0
LINE
  5
15D
330
1F
100
AcDbEntity
  8
SLD-0
100
AcDbLine
 10
148.6171110808
 20
131.4775843339
 30
0.0
 11
148.6171110808
 21
154.0182978509
 31
0.0
  0
DIMENSION
  5
15E
330
1F
100
AcDbEntity
  8
SLD-0
100
AcDbDimension
  2
_D
 10
154.9671110808
 20
243.9981455995
 30
0.0
 11
108.2794729627
 21
243.9981455995
 31
0.0
 70
   160
  1
<> mm
 71
     2
 42
-1.0
  3
SLDDIMSTYLE0
100
AcDbAlignedDimension
 13
59.7671110808
 23
242.5532729552
 33
0.0
 14
154.9671110808
 24
242.5532729552
 34
0.0
100
AcDbRotatedDimension
  0
DIMENSION
  5
16A
330
1F
100
AcDbEntity
  8
SLD-0
100
AcDbDimension
  2
_D_1
 10
148.6171110808
 20
155.7468559479
 30
0.0
 11
105.3368223166
 21
155.7468559479
 31
0.0
 70
   160
  1
<> mm
 71
     2
 42
-1.0
  3
SLDDIMSTYLE0
100
AcDbAlignedDimension
 13
66.1171110808
 23
154.0182978509
 33
0.0
 14
148.6171110808
 24
154.0182978509
 34
0.0
100
AcDbRotatedDimension
  0
DIMENSION
  5
175
330
1F
100
AcDbEntity
  8
SLD-0
100
AcDbDimension
  2
_D_2
 10
168.1671110808
 20
200.5275843339
 30
0.0
 11
168.1671110808
 21
219.5654710048
 31
0.0
 70
   160
  1
<> mm
 71
     2
 42
-1.0
  3
SLDDIMSTYLE0
100
AcDbAlignedDimension
 13
154.9971110808
 23
238.6275843339
 33
0.0
 14
154.9971110808
 24
200.5275843339
 34
0.0
 50
90.0
100
AcDbRotatedDimension
  0
DIMENSION
  5
180
330
1F
100
AcDbEntity
  8
SLD-0
100
AcDbDimension
  2
_D_3
 10
45.8776708556
 20
218.0775843339
 30
0.0
 11
45.8776708556
 21
220.4519671588
 31
0.0
 70
   160
  1
%%c<>
 71
     2
 42
-1.0
  3
SLDDIMSTYLE1
100
AcDbAlignedDimension
 13
59.7671110808
 23
221.0775843339
 33
0.0
 14
59.7671110808
 24
218.0775843339
 34
0.0
 50
90.0
100
AcDbRotatedDimension
  0
DIMENSION
  5
18E
330
1F
100
AcDbEntity
  8
SLD-0
100
AcDbDimension
  2
_D_4
 10
59.7371110808
 20
235.4575843339
 30
0.0
 11
45.8776808556
 21
243.4593458788
 31
0.0
 70
   164
  1
<>
 71
     1
 42
-1.0
  3
SLDDIMSTYLE2
100
AcDbRadialDimension
 15
56.9918105508
 25
237.0425843339
 35
0.0
 40
0.0
  0
DIMENSION
  5
197
330
1F
100
AcDbEntity
  8
SLD-0
100
AcDbDimension
  2
_D_5
 10
158.1671110808
 20
192.3440984419
 30
0.0
 11
108.2794729627
 21
192.3440984419
 31
0.0
 70
   160
  1
<> mm
 71
     2
 42
-1.0
  3
SLDDIMSTYLE0
100
AcDbAlignedDimension
 13
56.5671110808
 23
203.6975843339
 33
0.0
 14
158.1671110808
 24
203.6975843339
 34
0.0
100
AcDbRotatedDimension
  0
DIMENSION
  5
1A2
330
1F
100
AcDbEntity
  8
SLD-0
100
AcDbDimension
  2
_D_6
 10
50.79456011
 20
129.9775843339
 30
0.0
 11
50.79456011
 21
132.5908248298
 31
0.0
 70
   160
  1
%%c<>
 71
     2
 42
-1.0
  3
SLDDIMSTYLE1
100
AcDbAlignedDimension
 13
66.1171110808
 23
132.9775843339
 33
0.0
 14
66.1171110808
 24
129.9775843339
 34
0.0
 50
90.0
100
AcDbRotatedDimension
  0
DIMENSION
  5
1AF
330
1F
100
AcDbEntity
  8
SLD-0
100
AcDbDimension
  2
_D_7
 10
66.0871110808
 20
147.3575843339
 30
0.0
 11
50.79457011
 21
156.1867527535
 31
0.0
 70
   164
  1
<>
 71
     1
 42
-1.0
  3
SLDDIMSTYLE2
100
AcDbRadialDimension
 15
63.3418105508
 25
148.9425843339
 35
0.0
 40
0.0
  0
DIMENSION
  5
1B7
330
1F
100
AcDbEntity
  8
SLD-0
100
AcDbDimension
  2
_D_8
 10
151.8171110808
 20
102.4275843339
 30
0.0
 11
108.2794729627
 21
102.4275843339
 31
0.0
 70
   160
  1
<> mm
 71
     2
 42
-1.0
  3
SLDDIMSTYLE0
100
AcDbAlignedDimension
 13
62.9171110808
 23
115.5975843339
 33
0.0
 14
151.8171110808
 24
115.5975843339
 34
0.0
100
AcDbRotatedDimension
  0
DIMENSION
  5
1C2
330
1F
100
AcDbEntity
  8
SLD-0
100
AcDbDimension
  2
_D_9
 10
169.2696230339
 20
112.4275843339
 30
0.0
 11
169.2696230339
 21
130.9230341987
 31
0.0
 70
   160
  1
<> mm
 71
     2
 42
-1.0
  3
SLDDIMSTYLE0
100
AcDbAlignedDimension
 13
148.6471110808
 23
150.5275843339
 33
0.0
 14
148.6471110808
 24
112.4275843339
 34
0.0
 50
90.0
100
AcDbRotatedDimension
  0
MTEXT
  5
1CD
330
1F
100
AcDbEntity
  8
SLD-0
100
AcDbMText
 10
93.7350278727
 20
188.8411328241
 30
0.0
 40
3.5
 41
0.0
 71
     1
 72
     1
  1
XR8 Soapbar
  7
SLDTEXTSTYLE0
 73
     1
 44
1.0
  0
LINE
  5
1CE
330
1F
100
AcDbEntity
  8
LAYER_1
100
AcDbLine
 10
135.8422935048
 20
42.1264555746
 30
0.0
 11
122.6238066374
 21
42.1264555746
 31
0.0
  0
LINE
  5
1CF
330
1F
100
AcDbEntity
  8
LAYER_1
100
AcDbLine
 10
117.6452991517
 20
45.1285117805
 30
0.0
 11
117.6452991517
 21
47.4332806601
 31
0.0
  0
LINE
  5
1D0
330
1F
100
AcDbEntity
  8
LAYER_1
100
AcDbLine
 10
122.6238066374
 20
50.4353368659
 30
0.0
 11
135.8422935048
 21
50.4353368659
 31
0.0
  0
LINE
  5
1D1
330
1F
100
AcDbEntity
  8
LAYER_1
100
AcDbLine
 10
135.8422935048
 20
50.4353368659
 30
0.0
 11
135.8422935048
 21
47.9583132121
 31
0.0
  0
LINE
  5
1D2
330
1F
100
AcDbEntity
  8
LAYER_1
100
AcDbLine
 10
135.8422935048
 20
47.9583132121
 30
0.0
 11
122.6238066374
 21
47.9583132121
 31
0.0
  0
LINE
  5
1D3
330
1F
100
AcDbEntity
  8
LAYER_1
100
AcDbLine
 10
120.1226673151
 20
46.7945599571
 30
0.0
 11
120.1226673151
 21
45.7668879739
 31
0.0
  0
LINE
  5
1D4
330
1F
100
AcDbEntity
  8
LAYER_1
100
AcDbLine
 10
122.6238066374
 20
44.6034792285
 30
0.0
 11
135.8422935048
 21
44.6034792285
 31
0.0
  0
LINE
  5
1D5
330
1F
100
AcDbEntity
  8
LAYER_1
100
AcDbLine
 10
135.8422935048
 20
44.6034792285
 30
0.0
 11
135.8422935048
 21
42.1264555746
 31
0.0
  0
LINE
  5
1D6
330
1F
100
AcDbEntity
  8
LAYER_1
100
AcDbLine
 10
150.5638755324
 20
42.1264555746
 30
0.0
 11
146.62819845
 21
42.1264555746
 31
0.0
  0
LINE
  5
1D7
330
1F
100
AcDbEntity
  8
LAYER_1
100
AcDbLine
 10
146.62819845
 20
42.1264555746
 30
0.0
 11
146.62819845
 21
44.603134719
 31
0.0
  0
LINE
  5
1D8
330
1F
100
AcDbEntity
  8
LAYER_1
100
AcDbLine
 10
146.62819845
 20
44.603134719
 30
0.0
 11
150.5638755324
 21
44.603134719
 31
0.0
  0
LINE
  5
1D9
330
1F
100
AcDbEntity
  8
LAYER_1
100
AcDbLine
 10
136.9929553969
 20
50.4353368659
 30
0.0
 11
139.4696345412
 21
50.4353368659
 31
0.0
  0
LINE
  5
1DA
330
1F
100
AcDbEntity
  8
LAYER_1
100
AcDbLine
 10
139.4696345412
 20
50.4353368659
 30
0.0
 11
139.4696345412
 21
48.9201838715
 31
0.0
  0
LINE
  5
1DB
330
1F
100
AcDbEntity
  8
LAYER_1
100
AcDbLine
 10
141.6076607993
 20
48.0968060506
 30
0.0
 11
153.0650148546
 21
48.0968060506
 31
0.0
  0
LINE
  5
1DC
330
1F
100
AcDbEntity
  8
LAYER_1
100
AcDbLine
 10
153.0650148546
 20
48.0968060506
 30
0.0
 11
153.0650148546
 21
50.4353368659
 31
0.0
  0
LINE
  5
1DD
330
1F
100
AcDbEntity
  8
LAYER_1
100
AcDbLine
 10
153.0650148546
 20
50.4353368659
 30
0.0
 11
155.5420385085
 21
50.4353368659
 31
0.0
  0
LINE
  5
1DE
330
1F
100
AcDbEntity
  8
LAYER_1
100
AcDbLine
 10
155.5420385085
 20
50.4353368659
 30
0.0
 11
155.5420385085
 21
45.4812895582
 31
0.0
  0
LINE
  5
1DF
330
1F
100
AcDbEntity
  8
LAYER_1
100
AcDbLine
 10
197.1121109265
 20
42.1264555746
 30
0.0
 11
194.6350872726
 21
42.1264555746
 31
0.0
  0
LINE
  5
1E0
330
1F
100
AcDbEntity
  8
LAYER_1
100
AcDbLine
 10
194.6350872726
 20
42.1264555746
 30
0.0
 11
194.6350872726
 21
50.4353368659
 31
0.0
  0
LINE
  5
1E1
330
1F
100
AcDbEntity
  8
LAYER_1
100
AcDbLine
 10
194.6350872726
 20
50.4353368659
 30
0.0
 11
197.1121109265
 21
50.4353368659
 31
0.0
  0
LINE
  5
1E2
330
1F
100
AcDbEntity
  8
LAYER_1
100
AcDbLine
 10
197.1121109265
 20
50.4353368659
 30
0.0
 11
197.1121109265
 21
42.1264555746
 31
0.0
  0
LINE
  5
1E3
330
1F
100
AcDbEntity
  8
LAYER_1
100
AcDbLine
 10
174.8891779894
 20
42.1264555746
 30
0.0
 11
161.6703466125
 21
42.1264555746
 31
0.0
  0
LINE
  5
1E4
330
1F
100
AcDbEntity
  8
LAYER_1
100
AcDbLine
 10
156.6920113815
 20
45.1285117805
 30
0.0
 11
156.6920113815
 21
47.4332806601
 31
0.0
  0
LINE
  5
1E5
330
1F
100
AcDbEntity
  8
LAYER_1
100
AcDbLine
 10
161.6703466125
 20
50.4353368659
 30
0.0
 11
174.8891779894
 21
50.4353368659
 31
0.0
  0
LINE
  5
1E6
330
1F
100
AcDbEntity
  8
LAYER_1
100
AcDbLine
 10
174.8891779894
 20
50.4353368659
 30
0.0
 11
174.8891779894
 21
47.9583132121
 31
0.0
  0
LINE
  5
1E7
330
1F
100
AcDbEntity
  8
LAYER_1
100
AcDbLine
 10
174.8891779894
 20
47.9583132121
 30
0.0
 11
161.6703466125
 21
47.9583132121
 31
0.0
  0
LINE
  5
1E8
330
1F
100
AcDbEntity
  8
LAYER_1
100
AcDbLine
 10
159.1692072902
 20
46.7945599571
 30
0.0
 11
159.1692072902
 21
46.1196657516
 31
0.0
  0
LINE
  5
1E9
330
1F
100
AcDbEntity
  8
LAYER_1
100
AcDbLine
 10
161.6703466125
 20
44.6034792285
 30
0.0
 11
174.8891779894
 21
44.6034792285
 31
0.0
  0
LINE
  5
1EA
330
1F
100
AcDbEntity
  8
LAYER_1
100
AcDbLine
 10
174.8891779894
 20
44.6034792285
 30
0.0
 11
174.8891779894
 21
42.1264555746
 31
0.0
  0
LINE
  5
1EB
330
1F
100
AcDbEntity
  8
LAYER_1
100
AcDbLine
 10
176.0515532061
 20
50.4353368659
 30
0.0
 11
193.529900641
 21
50.4353368659
 31
0.0
  0
LINE
  5
1EC
330
1F
100
AcDbEntity
  8
LAYER_1
100
AcDbLine
 10
193.529900641
 20
50.4353368659
 30
0.0
 11
193.529900641
 21
47.9586577216
 31
0.0
  0
LINE
  5
1ED
330
1F
100
AcDbEntity
  8
LAYER_1
100
AcDbLine
 10
193.529900641
 20
47.9586577216
 30
0.0
 11
178.52857686
 21
47.9586577216
 31
0.0
  0
LINE
  5
1EE
330
1F
100
AcDbEntity
  8
LAYER_1
100
AcDbLine
 10
178.52857686
 20
47.9586577216
 30
0.0
 11
178.5079062871
 21
46.9924806928
 31
0.0
  0
LINE
  5
1EF
330
1F
100
AcDbEntity
  8
LAYER_1
100
AcDbLine
 10
178.5079062871
 20
46.9924806928
 30
0.0
 11
188.1651979513
 21
46.9852459922
 31
0.0
  0
LINE
  5
1F0
330
1F
100
AcDbEntity
  8
LAYER_1
100
AcDbLine
 10
188.1651979513
 20
46.9852459922
 30
0.0
 11
188.1651979513
 21
44.5152847841
 31
0.0
  0
LINE
  5
1F1
330
1F
100
AcDbEntity
  8
LAYER_1
100
AcDbLine
 10
188.1651979513
 20
44.5152847841
 30
0.0
 11
178.5079062871
 21
44.5152847841
 31
0.0
  0
LINE
  5
1F2
330
1F
100
AcDbEntity
  8
LAYER_1
100
AcDbLine
 10
178.5079062871
 20
44.5152847841
 30
0.0
 11
178.52857686
 21
42.1264555746
 31
0.0
  0
LINE
  5
1F3
330
1F
100
AcDbEntity
  8
LAYER_1
100
AcDbLine
 10
178.52857686
 20
42.1264555746
 30
0.0
 11
176.0515532061
 21
42.1264555746
 31
0.0
  0
LINE
  5
1F4
330
1F
100
AcDbEntity
  8
LAYER_1
100
AcDbLine
 10
176.0515532061
 20
42.1264555746
 30
0.0
 11
176.0515532061
 21
50.4353368659
 31
0.0
  0
SPLINE
  5
1F5
330
1F
100
AcDbEntity
  8
LAYER_1
100
AcDbSpline
210
0.0
220
0.0
230
1.0
 70
     8
 71
     3
 72
    17
 73
    13
 74
     0
 42
0.00000001
 43
0.00000001
 12
1.0
 22
0.0
 32
0.0
 13
1.0
 23
0.0
 33
0.0
 40
0.0
 40
0.0
 40
0.0
 40
0.0
 40
1.0
 40
2.0
 40
3.0
 40
4.0
 40
5.0
 40
6.0
 40
7.0
 40
8.0
 40
9.0
 40
10.0
 40
10.0
 40
10.0
 40
10.0
 10
122.6238066374257
 20
42.12645557461997
 30
0.0
 10
121.8176542938773
 20
42.12645557461997
 30
0.0
 10
121.1145103053377
 20
42.16883024908851
 30
0.0
 10
120.5333226969761
 20
42.25254606938012
 30
0.0
 10
119.9166506051164
 20
42.34108502335098
 30
0.0
 10
119.3936851104553
 20
42.49852588702691
 30
0.0
 10
118.9795846331284
 20
42.71935650763148
 30
0.0
 10
118.5289661436577
 20
42.95947966295338
 30
0.0
 10
118.1882462001665
 20
43.28710824360066
 30
0.0
 10
117.967415579562
 20
43.69328500131159
 30
0.0
 10
117.754164169025
 20
44.08533686753297
 30
0.0
 10
117.6452991516911
 20
44.56833925456505
 30
0.0
 10
117.6452991516911
 20
45.12851178046667
 30
0.0
  0
SPLINE
  5
1F6
330
1F
100
AcDbEntity
  8
LAYER_1
100
AcDbSpline
210
0.0
220
0.0
230
1.0
 70
     8
 71
     3
 72
    17
 73
    13
 74
     0
 42
0.00000001
 43
0.00000001
 12
1.0
 22
0.0
 32
0.0
 13
1.0
 23
0.0
 33
0.0
 40
0.0
 40
0.0
 40
0.0
 40
0.0
 40
1.0
 40
2.0
 40
3.0
 40
4.0
 40
5.0
 40
6.0
 40
7.0
 40
8.0
 40
9.0
 40
10.0
 40
10.0
 40
10.0
 40
10.0
 10
117.6452991516911
 20
47.43328066009877
 30
0.0
 10
117.6452991516911
 20
47.9934531860004
 30
0.0
 10
117.754164169025
 20
48.47645557303248
 30
0.0
 10
117.9677600891106
 20
48.86885194880242
 30
0.0
 10
118.1882462001665
 20
49.27468419696479
 30
0.0
 10
118.5289661436577
 20
49.60231277761212
 30
0.0
 10
118.979929142677
 20
49.84278044248253
 30
0.0
 10
119.3936851104553
 20
50.06326655353854
 30
0.0
 10
119.9166506051164
 20
50.22070741721446
 30
0.0
 10
120.5336672065246
 20
50.30924637118533
 30
0.0
 10
121.1169218721774
 20
50.39296219147693
 30
0.0
 10
121.8200658607169
 20
50.43533686594548
 30
0.0
 10
122.6238066374257
 20
50.43533686594548
 30
0.0
  0
SPLINE
  5
1F7
330
1F
100
AcDbEntity
  8
LAYER_1
100
AcDbSpline
210
0.0
220
0.0
230
1.0
 70
     8
 71
     3
 72
    17
 73
    13
 74
     0
 42
0.00000001
 43
0.00000001
 12
1.0
 22
0.0
 32
0.0
 13
1.0
 23
0.0
 33
0.0
 40
0.0
 40
0.0
 40
0.0
 40
0.0
 40
1.0
 40
2.0
 40
3.0
 40
4.0
 40
5.0
 40
6.0
 40
7.0
 40
8.0
 40
9.0
 40
10.0
 40
10.0
 40
10.0
 40
10.0
 10
122.6238066374257
 20
47.95831321205091
 30
0.0
 10
121.965793399743
 20
47.95831321205091
 30
0.0
 10
121.4194012557823
 20
47.97416065128301
 30
0.0
 10
121.0404407524048
 20
47.93178597681447
 30
0.0
 10
120.6135934217824
 20
47.88458816866653
 30
0.0
 10
120.5181642768409
 20
47.83153369819371
 30
0.0
 10
120.416533960026
 20
47.77227805584738
 30
0.0
 10
120.2570260390591
 20
47.67926047774562
 30
0.0
 10
120.222919593755
 20
47.54042312969003
 30
0.0
 10
120.1712431614763
 20
47.29754389797996
 30
0.0
 10
120.1350696588812
 20
47.00161019579701
 30
0.0
 10
120.1226673151343
 20
46.93270828609203
 30
0.0
 10
120.1226673151343
 20
46.79455995713344
 30
0.0
  0
SPLINE
  5
1F8
330
1F
100
AcDbEntity
  8
LAYER_1
100
AcDbSpline
210
0.0
220
0.0
230
1.0
 70
     8
 71
     3
 72
    17
 73
    13
 74
     0
 42
0.00000001
 43
0.00000001
 12
1.0
 22
0.0
 32
0.0
 13
1.0
 23
0.0
 33
0.0
 40
0.0
 40
0.0
 40
0.0
 40
0.0
 40
1.0
 40
2.0
 40
3.0
 40
4.0
 40
5.0
 40
6.0
 40
7.0
 40
8.0
 40
9.0
 40
10.0
 40
10.0
 40
10.0
 40
10.0
 10
120.1226673151343
 20
45.76688797388345
 30
0.0
 10
120.1226673151343
 20
45.62908415447342
 30
0.0
 10
120.1478165121766
 20
45.47095427170045
 30
0.0
 10
120.1729657092189
 20
45.26080344710026
 30
0.0
 10
120.1784778619953
 20
45.25322423703271
 30
0.0
 10
120.1853680529658
 20
45.00724441938586
 30
0.0
 10
120.3982749539543
 20
44.84429140293356
 30
0.0
 10
120.6473553575379
 20
44.65377762259926
 30
0.0
 10
120.7748238904921
 20
44.69787484481041
 30
0.0
 10
121.0614558348648
 20
44.66686898544314
 30
0.0
 10
121.4411053573394
 20
44.6258723491687
 30
0.0
 10
121.96648241884
 20
44.6034792285146
 30
0.0
 10
122.6238066374257
 20
44.6034792285146
 30
0.0
  0
SPLINE
  5
1F9
330
1F
100
AcDbEntity
  8
LAYER_1
100
AcDbSpline
210
0.0
220
0.0
230
1.0
 70
     8
 71
     3
 72
    14
 73
    10
 74
     0
 42
0.00000001
 43
0.00000001
 12
1.0
 22
0.0
 32
0.0
 13
1.0
 23
0.0
 33
0.0
 40
0.0
 40
0.0
 40
0.0
 40
0.0
 40
1.0
 40
2.0
 40
3.0
 40
4.0
 40
5.0
 40
6.0
 40
7.0
 40
7.0
 40
7.0
 40
7.0
 10
150.5638755323504
 20
44.60313471896604
 30
0.0
 10
151.2211997509361
 20
44.60313471896604
 30
0.0
 10
151.7741375763187
 20
44.60175668077198
 30
0.0
 10
152.1489639651138
 20
44.64413135524053
 30
0.0
 10
152.5699546334114
 20
44.69098465383992
 30
0.0
 10
152.7277400066358
 20
44.71578934133375
 30
0.0
 10
152.8641657878517
 20
44.83430062602633
 30
0.0
 10
153.0019696072617
 20
44.95418994891304
 30
0.0
 10
152.9744088433796
 20
45.60186790014004
 30
0.0
 10
152.9943903971941
 20
45.62012690621181
 30
0.0
  0
SPLINE
  5
1FA
330
1F
100
AcDbEntity
  8
LAYER_1
100
AcDbSpline
210
0.0
220
0.0
230
1.0
 70
     8
 71
     3
 72
    12
 73
     8
 74
     0
 42
0.00000001
 43
0.00000001
 12
1.0
 22
0.0
 32
0.0
 13
1.0
 23
0.0
 33
0.0
 40
0.0
 40
0.0
 40
0.0
 40
0.0
 40
1.0
 40
2.0
 40
3.0
 40
4.0
 40
5.0
 40
5.0
 40
5.0
 40
5.0
 10
152.9943903971941
 20
45.62012690621181
 30
0.0
 10
144.7582006206073
 20
45.61564828208098
 30
0.0
 10
141.6197186335447
 20
45.62012690621181
 30
0.0
 10
138.4812366464822
 20
45.62460553034264
 30
0.0
 10
136.9929553968542
 20
46.6336739979723
 30
0.0
 10
136.9929553968542
 20
48.94981169270579
 30
0.0
 10
136.9929553968542
 20
49.21146669481053
 30
0.0
 10
136.9929553968542
 20
50.43533686594548
 30
0.0
  0
SPLINE
  5
1FB
330
1F
100
AcDbEntity
  8
LAYER_1
100
AcDbSpline
210
0.0
220
0.0
230
1.0
 70
     8
 71
     3
 72
    17
 73
    13
 74
     0
 42
0.00000001
 43
0.00000001
 12
1.0
 22
0.0
 32
0.0
 13
1.0
 23
0.0
 33
0.0
 40
0.0
 40
0.0
 40
0.0
 40
0.0
 40
1.0
 40
2.0
 40
3.0
 40
4.0
 40
5.0
 40
6.0
 40
7.0
 40
8.0
 40
9.0
 40
10.0
 40
10.0
 40
10.0
 40
10.0
 10
139.4696345412003
 20
48.92018387153263
 30
0.0
 10
139.4696345412003
 20
48.75791987417738
 30
0.0
 10
139.4916831523059
 20
48.90984858507685
 30
0.0
 10
139.5368139031627
 20
48.73966086810555
 30
0.0
 10
139.5764325012431
 20
48.59014372404569
 30
0.0
 10
139.6976998623239
 20
48.4513063759901
 30
0.0
 10
139.817244675662
 20
48.36070036472806
 30
0.0
 10
139.9822647494056
 20
48.23633241771053
 30
0.0
 10
140.1069772059715
 20
48.21359478750787
 30
0.0
 10
140.3877524880194
 20
48.1701865843937
 30
0.0
 10
140.6995336294345
 20
48.12161073805177
 30
0.0
 10
141.1101890112764
 20
48.09680605055794
 30
0.0
 10
141.6076607993464
 20
48.09680605055794
 30
0.0
  0
SPLINE
  5
1FC
330
1F
100
AcDbEntity
  8
LAYER_1
100
AcDbSpline
210
0.0
220
0.0
230
1.0
 70
     8
 71
     3
 72
    17
 73
    13
 74
     0
 42
0.00000001
 43
0.00000001
 12
1.0
 22
0.0
 32
0.0
 13
1.0
 23
0.0
 33
0.0
 40
0.0
 40
0.0
 40
0.0
 40
0.0
 40
1.0
 40
2.0
 40
3.0
 40
4.0
 40
5.0
 40
6.0
 40
7.0
 40
8.0
 40
9.0
 40
10.0
 40
10.0
 40
10.0
 40
10.0
 10
155.5420385085364
 20
45.48128955815622
 30
0.0
 10
155.5420385085364
 20
44.92249507044876
 30
0.0
 10
155.433518000751
 20
44.08499235798452
 30
0.0
 10
155.2199220806656
 20
43.69294049176309
 30
0.0
 10
154.9987469505125
 20
43.2867637340521
 30
0.0
 10
154.6583715165698
 20
42.95947966295338
 30
0.0
 10
154.2080975366477
 20
42.71901199808292
 30
0.0
 10
153.7939970593206
 20
42.49783686792991
 30
0.0
 10
153.2713760742081
 20
42.34142953289955
 30
0.0
 10
152.6540149632515
 20
42.25254606938012
 30
0.0
 10
152.0711048071472
 20
42.16848573954002
 30
0.0
 10
151.3679608186077
 20
42.12645557461997
 30
0.0
 10
150.5638755323504
 20
42.12645557461997
 30
0.0
  0
SPLINE
  5
1FD
330
1F
100
AcDbEntity
  8
LAYER_1
100
AcDbSpline
210
0.0
220
0.0
230
1.0
 70
     8
 71
     3
 72
    17
 73
    13
 74
     0
 42
0.00000001
 43
0.00000001
 12
1.0
 22
0.0
 32
0.0
 13
1.0
 23
0.0
 33
0.0
 40
0.0
 40
0.0
 40
0.0
 40
0.0
 40
1.0
 40
2.0
 40
3.0
 40
4.0
 40
5.0
 40
6.0
 40
7.0
 40
8.0
 40
9.0
 40
10.0
 40
10.0
 40
10.0
 40
10.0
 10
161.670346612473
 20
42.12645557461997
 30
0.0
 10
160.8641942689246
 20
42.12645557461997
 30
0.0
 10
160.1607057708366
 20
42.16883024908851
 30
0.0
 10
159.5798626720234
 20
42.25254606938012
 30
0.0
 10
158.9631905801637
 20
42.34108502335098
 30
0.0
 10
158.4402250855028
 20
42.49852588702691
 30
0.0
 10
158.0261246081758
 20
42.71935650763148
 30
0.0
 10
157.5756783734794
 20
42.95947966295338
 30
0.0
 10
157.2349584299881
 20
43.28710824360066
 30
0.0
 10
157.0137832998352
 20
43.69328500131159
 30
0.0
 10
156.8005318892982
 20
44.08533686753297
 30
0.0
 10
156.6920113815128
 20
44.56833925456505
 30
0.0
 10
156.6920113815128
 20
45.12851178046667
 30
0.0
  0
SPLINE
  5
1FE
330
1F
100
AcDbEntity
  8
LAYER_1
100
AcDbSpline
210
0.0
220
0.0
230
1.0
 70
     8
 71
     3
 72
    17
 73
    13
 74
     0
 42
0.00000001
 43
0.00000001
 12
1.0
 22
0.0
 32
0.0
 13
1.0
 23
0.0
 33
0.0
 40
0.0
 40
0.0
 40
0.0
 40
0.0
 40
1.0
 40
2.0
 40
3.0
 40
4.0
 40
5.0
 40
6.0
 40
7.0
 40
8.0
 40
9.0
 40
10.0
 40
10.0
 40
10.0
 40
10.0
 10
156.6920113815128
 20
47.43328066009877
 30
0.0
 10
156.6920113815128
 20
47.9934531860004
 30
0.0
 10
156.8005318892982
 20
48.47645557303248
 30
0.0
 10
157.0141278093837
 20
48.86885194880242
 30
0.0
 10
157.2349584299881
 20
49.27468419696479
 30
0.0
 10
157.5756783734794
 20
49.60231277761212
 30
0.0
 10
158.0261246081758
 20
49.84278044248253
 30
0.0
 10
158.4402250855028
 20
50.06326655353854
 30
0.0
 10
158.9631905801637
 20
50.22070741721446
 30
0.0
 10
159.5805516911205
 20
50.30924637118533
 30
0.0
 10
160.1634618472249
 20
50.39296219147693
 30
0.0
 10
160.8669503453128
 20
50.43533686594548
 30
0.0
 10
161.670346612473
 20
50.43533686594548
 30
0.0
  0
SPLINE
  5
1FF
330
1F
100
AcDbEntity
  8
LAYER_1
100
AcDbSpline
210
0.0
220
0.0
230
1.0
 70
     8
 71
     3
 72
    17
 73
    13
 74
     0
 42
0.00000001
 43
0.00000001
 12
1.0
 22
0.0
 32
0.0
 13
1.0
 23
0.0
 33
0.0
 40
0.0
 40
0.0
 40
0.0
 40
0.0
 40
1.0
 40
2.0
 40
3.0
 40
4.0
 40
5.0
 40
6.0
 40
7.0
 40
8.0
 40
9.0
 40
10.0
 40
10.0
 40
10.0
 40
10.0
 10
161.670346612473
 20
47.95831321205091
 30
0.0
 10
161.0123333747904
 20
47.95831321205091
 30
0.0
 10
160.4659412308297
 20
47.97416065128301
 30
0.0
 10
160.0869807274522
 20
47.93178597681447
 30
0.0
 10
159.6604779063783
 20
47.88458816866653
 30
0.0
 10
159.5647042518884
 20
47.83153369819371
 30
0.0
 10
159.462729425525
 20
47.77227805584738
 30
0.0
 10
159.3035660141065
 20
47.67926047774562
 30
0.0
 10
159.269804078351
 20
47.54042312969003
 30
0.0
 10
159.2181276460722
 20
47.29754389797996
 30
0.0
 10
159.1816096339286
 20
47.00161019579701
 30
0.0
 10
159.1692072901817
 20
46.93270828609203
 30
0.0
 10
159.1692072901817
 20
46.79455995713344
 30
0.0
  0
SPLINE
  5
200
330
1F
100
AcDbEntity
  8
LAYER_1
100
AcDbSpline
210
0.0
220
0.0
230
1.0
 70
     8
 71
     3
 72
    17
 73
    13
 74
     0
 42
0.00000001
 43
0.00000001
 12
1.0
 22
0.0
 32
0.0
 13
1.0
 23
0.0
 33
0.0
 40
0.0
 40
0.0
 40
0.0
 40
0.0
 40
1.0
 40
2.0
 40
3.0
 40
4.0
 40
5.0
 40
6.0
 40
7.0
 40
8.0
 40
9.0
 40
10.0
 40
10.0
 40
10.0
 40
10.0
 10
159.1692072901817
 20
46.11966575157306
 30
0.0
 10
159.1692072901817
 20
45.98186193216303
 30
0.0
 10
159.1940119776755
 20
45.47095427170045
 30
0.0
 10
159.2195056842664
 20
45.26080344710026
 30
0.0
 10
159.2250178370427
 20
45.25322423703271
 30
0.0
 10
159.2319080280132
 20
45.00724441938586
 30
0.0
 10
159.4448149290016
 20
44.84429140293356
 30
0.0
 10
159.6935508230367
 20
44.65377762259926
 30
0.0
 10
159.821708375088
 20
44.69787484481041
 30
0.0
 10
160.1083403194608
 20
44.66686898544314
 30
0.0
 10
160.4873008228383
 20
44.6258723491687
 30
0.0
 10
161.0130223938874
 20
44.6034792285146
 30
0.0
 10
161.670346612473
 20
44.6034792285146
 30
0.0
  0
INSERT
  5
201
330
1F
100
AcDbEntity
  8
0
  6
Continuous
 62
     7
100
AcDbBlockReference
  2
BLOCK 2
 10
110.3720135632
 20
56.7667333487
 30
0.0
  0
HATCH
  5
202
330
1F
100
AcDbEntity
  8
LAYER_1
 62
   250
100
AcDbHatch
 10
0.0
 20
0.0
 30
0.0
210
0.0
220
0.0
230
1.0
  2
SOLID
 70
     1
 71
     0
 91
        1
 92
        0
 93
       12
 72
     1
 10
135.8422935047807
 20
44.6034792285146
 11
135.8422935047807
 21
42.12645557461997
 72
     1
 10
135.8422935047807
 20
42.12645557461997
 11
122.6238066374257
 21
42.12645557461997
 72
     4
 94
        3
 73
     1
 74
     0
 95
       17
 96
       13
 40
0.0
 40
0.0
 40
0.0
 40
0.0
 40
1.0
 40
2.0
 40
3.0
 40
4.0
 40
5.0
 40
6.0
 40
7.0
 40
8.0
 40
9.0
 40
10.0
 40
10.0
 40
10.0
 40
10.0
 10
122.6238066374257
 20
42.12645557461997
 42
1.0
 10
121.8176542938773
 20
42.12645557461997
 42
1.0
 10
121.1145103053377
 20
42.16883024908851
 42
1.0
 10
120.5333226969761
 20
42.25254606938012
 42
1.0
 10
119.9166506051164
 20
42.34108502335098
 42
1.0
 10
119.3936851104553
 20
42.49852588702691
 42
1.0
 10
118.9795846331284
 20
42.71935650763148
 42
1.0
 10
118.5289661436577
 20
42.95947966295338
 42
1.0
 10
118.1882462001665
 20
43.28710824360066
 42
1.0
 10
117.967415579562
 20
43.69328500131159
 42
1.0
 10
117.754164169025
 20
44.08533686753297
 42
1.0
 10
117.6452991516911
 20
44.56833925456505
 42
1.0
 10
117.6452991516911
 20
45.12851178046667
 42
1.0
 72
     1
 10
117.6452991516911
 20
45.12851178046667
 11
117.6452991516911
 21
47.43328066009877
 72
     4
 94
        3
 73
     1
 74
     0
 95
       17
 96
       13
 40
0.0
 40
0.0
 40
0.0
 40
0.0
 40
1.0
 40
2.0
 40
3.0
 40
4.0
 40
5.0
 40
6.0
 40
7.0
 40
8.0
 40
9.0
 40
10.0
 40
10.0
 40
10.0
 40
10.0
 10
117.6452991516911
 20
47.43328066009877
 42
1.0
 10
117.6452991516911
 20
47.9934531860004
 42
1.0
 10
117.754164169025
 20
48.47645557303248
 42
1.0
 10
117.9677600891106
 20
48.86885194880242
 42
1.0
 10
118.1882462001665
 20
49.27468419696479
 42
1.0
 10
118.5289661436577
 20
49.60231277761212
 42
1.0
 10
118.979929142677
 20
49.84278044248253
 42
1.0
 10
119.3936851104553
 20
50.06326655353854
 42
1.0
 10
119.9166506051164
 20
50.22070741721446
 42
1.0
 10
120.5336672065246
 20
50.30924637118533
 42
1.0
 10
121.1169218721774
 20
50.39296219147693
 42
1.0
 10
121.8200658607169
 20
50.43533686594548
 42
1.0
 10
122.6238066374257
 20
50.43533686594548
 42
1.0
 72
     1
 10
122.6238066374257
 20
50.43533686594548
 11
135.8422935047807
 21
50.43533686594548
 72
     1
 10
135.8422935047807
 20
50.43533686594548
 11
135.8422935047807
 21
47.95831321205091
 72
     1
 10
135.8422935047807
 20
47.95831321205091
 11
122.6238066374257
 21
47.95831321205091
 72
     4
 94
        3
 73
     1
 74
     0
 95
       17
 96
       13
 40
0.0
 40
0.0
 40
0.0
 40
0.0
 40
1.0
 40
2.0
 40
3.0
 40
4.0
 40
5.0
 40
6.0
 40
7.0
 40
8.0
 40
9.0
 40
10.0
 40
10.0
 40
10.0
 40
10.0
 10
122.6238066374257
 20
47.95831321205091
 42
1.0
 10
121.965793399743
 20
47.95831321205091
 42
1.0
 10
121.4194012557823
 20
47.97416065128301
 42
1.0
 10
121.0404407524048
 20
47.93178597681447
 42
1.0
 10
120.6135934217824
 20
47.88458816866653
 42
1.0
 10
120.5181642768409
 20
47.83153369819371
 42
1.0
 10
120.416533960026
 20
47.77227805584738
 42
1.0
 10
120.2570260390591
 20
47.67926047774562
 42
1.0
 10
120.222919593755
 20
47.54042312969003
 42
1.0
 10
120.1712431614763
 20
47.29754389797996
 42
1.0
 10
120.1350696588812
 20
47.00161019579701
 42
1.0
 10
120.1226673151343
 20
46.93270828609203
 42
1.0
 10
120.1226673151343
 20
46.79455995713344
 42
1.0
 72
     1
 10
120.1226673151343
 20
46.79455995713344
 11
120.1226673151343
 21
45.76688797388345
 72
     4
 94
        3
 73
     1
 74
     0
 95
       17
 96
       13
 40
0.0
 40
0.0
 40
0.0
 40
0.0
 40
1.0
 40
2.0
 40
3.0
 40
4.0
 40
5.0
 40
6.0
 40
7.0
 40
8.0
 40
9.0
 40
10.0
 40
10.0
 40
10.0
 40
10.0
 10
120.1226673151343
 20
45.76688797388345
 42
1.0
 10
120.1226673151343
 20
45.62908415447342
 42
1.0
 10
120.1478165121766
 20
45.47095427170045
 42
1.0
 10
120.1729657092189
 20
45.26080344710026
 42
1.0
 10
120.1784778619953
 20
45.25322423703271
 42
1.0
 10
120.1853680529658
 20
45.00724441938586
 42
1.0
 10
120.3982749539543
 20
44.84429140293356
 42
1.0
 10
120.6473553575379
 20
44.65377762259926
 42
1.0
 10
120.7748238904921
 20
44.69787484481041
 42
1.0
 10
121.0614558348648
 20
44.66686898544314
 42
1.0
 10
121.4411053573394
 20
44.6258723491687
 42
1.0
 10
121.96648241884
 20
44.6034792285146
 42
1.0
 10
122.6238066374257
 20
44.6034792285146
 42
1.0
 72
     1
 10
122.6238066374257
 20
44.6034792285146
 11
135.8422935047807
 21
44.6034792285146
 97
        0
 75
     0
 76
     1
 98
        1
 10
0.0
 20
0.0
  0
HATCH
  5
203
330
1F
100
AcDbEntity
  8
LAYER_1
 62
   250
100
AcDbHatch
 10
0.0
 20
0.0
 30
0.0
210
0.0
220
0.0
230
1.0
  2
SOLID
 70
     1
 71
     0
 91
        1
 92
        0
 93
       13
 72
     4
 94
        3
 73
     1
 74
     0
 95
       17
 96
       13
 40
0.0
 40
0.0
 40
0.0
 40
0.0
 40
1.0
 40
2.0
 40
3.0
 40
4.0
 40
5.0
 40
6.0
 40
7.0
 40
8.0
 40
9.0
 40
10.0
 40
10.0
 40
10.0
 40
10.0
 10
155.5420385085364
 20
45.48128955815622
 42
1.0
 10
155.5420385085364
 20
44.92249507044876
 42
1.0
 10
155.433518000751
 20
44.08499235798452
 42
1.0
 10
155.2199220806656
 20
43.69294049176309
 42
1.0
 10
154.9987469505125
 20
43.2867637340521
 42
1.0
 10
154.6583715165698
 20
42.95947966295338
 42
1.0
 10
154.2080975366477
 20
42.71901199808292
 42
1.0
 10
153.7939970593206
 20
42.49783686792991
 42
1.0
 10
153.2713760742081
 20
42.34142953289955
 42
1.0
 10
152.6540149632515
 20
42.25254606938012
 42
1.0
 10
152.0711048071472
 20
42.16848573954002
 42
1.0
 10
151.3679608186077
 20
42.12645557461997
 42
1.0
 10
150.5638755323504
 20
42.12645557461997
 42
1.0
 72
     1
 10
150.5638755323504
 20
42.12645557461997
 11
146.6281984500009
 21
42.12645557461997
 72
     1
 10
146.6281984500009
 20
42.12645557461997
 11
146.6281984500009
 21
44.60313471896604
 72
     1
 10
146.6281984500009
 20
44.60313471896604
 11
150.5638755323504
 21
44.60313471896604
 72
     4
 94
        3
 73
     1
 74
     0
 95
       14
 96
       10
 40
0.0
 40
0.0
 40
0.0
 40
0.0
 40
1.0
 40
2.0
 40
3.0
 40
4.0
 40
5.0
 40
6.0
 40
7.0
 40
7.0
 40
7.0
 40
7.0
 10
150.5638755323504
 20
44.60313471896604
 42
1.0
 10
151.2211997509361
 20
44.60313471896604
 42
1.0
 10
151.7741375763187
 20
44.60175668077198
 42
1.0
 10
152.1489639651138
 20
44.64413135524053
 42
1.0
 10
152.5699546334114
 20
44.69098465383992
 42
1.0
 10
152.7277400066358
 20
44.71578934133375
 42
1.0
 10
152.8641657878517
 20
44.83430062602633
 42
1.0
 10
153.0019696072617
 20
44.95418994891304
 42
1.0
 10
152.9744088433796
 20
45.60186790014004
 42
1.0
 10
152.9943903971941
 20
45.62012690621181
 42
1.0
 72
     4
 94
        3
 73
     1
 74
     0
 95
       12
 96
        8
 40
0.0
 40
0.0
 40
0.0
 40
0.0
 40
1.0
 40
2.0
 40
3.0
 40
4.0
 40
5.0
 40
5.0
 40
5.0
 40
5.0
 10
152.9943903971941
 20
45.62012690621181
 42
1.0
 10
144.7582006206073
 20
45.61564828208098
 42
1.0
 10
141.6197186335447
 20
45.62012690621181
 42
1.0
 10
138.4812366464822
 20
45.62460553034264
 42
1.0
 10
136.9929553968542
 20
46.6336739979723
 42
1.0
 10
136.9929553968542
 20
48.94981169270579
 42
1.0
 10
136.9929553968542
 20
49.21146669481053
 42
1.0
 10
136.9929553968542
 20
50.43533686594548
 42
1.0
 72
     1
 10
136.9929553968542
 20
50.43533686594548
 11
139.4696345412003
 21
50.43533686594548
 72
     1
 10
139.4696345412003
 20
50.43533686594548
 11
139.4696345412003
 21
48.92018387153263
 72
     4
 94
        3
 73
     1
 74
     0
 95
       17
 96
       13
 40
0.0
 40
0.0
 40
0.0
 40
0.0
 40
1.0
 40
2.0
 40
3.0
 40
4.0
 40
5.0
 40
6.0
 40
7.0
 40
8.0
 40
9.0
 40
10.0
 40
10.0
 40
10.0
 40
10.0
 10
139.4696345412003
 20
48.92018387153263
 42
1.0
 10
139.4696345412003
 20
48.75791987417738
 42
1.0
 10
139.4916831523059
 20
48.90984858507685
 42
1.0
 10
139.5368139031627
 20
48.73966086810555
 42
1.0
 10
139.5764325012431
 20
48.59014372404569
 42
1.0
 10
139.6976998623239
 20
48.4513063759901
 42
1.0
 10
139.817244675662
 20
48.36070036472806
 42
1.0
 10
139.9822647494056
 20
48.23633241771053
 42
1.0
 10
140.1069772059715
 20
48.21359478750787
 42
1.0
 10
140.3877524880194
 20
48.1701865843937
 42
1.0
 10
140.6995336294345
 20
48.12161073805177
 42
1.0
 10
141.1101890112764
 20
48.09680605055794
 42
1.0
 10
141.6076607993464
 20
48.09680605055794
 42
1.0
 72
     1
 10
141.6076607993464
 20
48.09680605055794
 11
153.0650148546417
 21
48.09680605055794
 72
     1
 10
153.0650148546417
 20
48.09680605055794
 11
153.0650148546417
 21
50.43533686594548
 72
     1
 10
153.0650148546417
 20
50.43533686594548
 11
155.5420385085364
 21
50.43533686594548
 72
     1
 10
155.5420385085364
 20
50.43533686594548
 11
155.5420385085364
 21
45.48128955815622
 97
        0
 75
     0
 76
     1
 98
        1
 10
0.0
 20
0.0
  0
HATCH
  5
204
330
1F
100
AcDbEntity
  8
LAYER_1
 62
   250
100
AcDbHatch
 10
0.0
 20
0.0
 30
0.0
210
0.0
220
0.0
230
1.0
  2
SOLID
 70
     1
 71
     0
 91
        1
 92
        0
 93
        4
 72
     1
 10
197.1121109265293
 20
50.43533686594548
 11
197.1121109265293
 21
42.12645557461997
 72
     1
 10
197.1121109265293
 20
42.12645557461997
 11
194.6350872726347
 21
42.12645557461997
 72
     1
 10
194.6350872726347
 20
42.12645557461997
 11
194.6350872726347
 21
50.43533686594548
 72
     1
 10
194.6350872726347
 20
50.43533686594548
 11
197.1121109265293
 21
50.43533686594548
 97
        0
 75
     0
 76
     1
 98
        1
 10
0.0
 20
0.0
  0
HATCH
  5
205
330
1F
100
AcDbEntity
  8
LAYER_1
 62
   250
100
AcDbHatch
 10
0.0
 20
0.0
 30
0.0
210
0.0
220
0.0
230
1.0
  2
SOLID
 70
     1
 71
     0
 91
        1
 92
        0
 93
       12
 72
     1
 10
174.8891779893767
 20
44.6034792285146
 11
174.8891779893767
 21
42.12645557461997
 72
     1
 10
174.8891779893767
 20
42.12645557461997
 11
161.670346612473
 21
42.12645557461997
 72
     4
 94
        3
 73
     1
 74
     0
 95
       17
 96
       13
 40
0.0
 40
0.0
 40
0.0
 40
0.0
 40
1.0
 40
2.0
 40
3.0
 40
4.0
 40
5.0
 40
6.0
 40
7.0
 40
8.0
 40
9.0
 40
10.0
 40
10.0
 40
10.0
 40
10.0
 10
161.670346612473
 20
42.12645557461997
 42
1.0
 10
160.8641942689246
 20
42.12645557461997
 42
1.0
 10
160.1607057708366
 20
42.16883024908851
 42
1.0
 10
159.5798626720234
 20
42.25254606938012
 42
1.0
 10
158.9631905801637
 20
42.34108502335098
 42
1.0
 10
158.4402250855028
 20
42.49852588702691
 42
1.0
 10
158.0261246081758
 20
42.71935650763148
 42
1.0
 10
157.5756783734794
 20
42.95947966295338
 42
1.0
 10
157.2349584299881
 20
43.28710824360066
 42
1.0
 10
157.0137832998352
 20
43.69328500131159
 42
1.0
 10
156.8005318892982
 20
44.08533686753297
 42
1.0
 10
156.6920113815128
 20
44.56833925456505
 42
1.0
 10
156.6920113815128
 20
45.12851178046667
 42
1.0
 72
     1
 10
156.6920113815128
 20
45.12851178046667
 11
156.6920113815128
 21
47.43328066009877
 72
     4
 94
        3
 73
     1
 74
     0
 95
       17
 96
       13
 40
0.0
 40
0.0
 40
0.0
 40
0.0
 40
1.0
 40
2.0
 40
3.0
 40
4.0
 40
5.0
 40
6.0
 40
7.0
 40
8.0
 40
9.0
 40
10.0
 40
10.0
 40
10.0
 40
10.0
 10
156.6920113815128
 20
47.43328066009877
 42
1.0
 10
156.6920113815128
 20
47.9934531860004
 42
1.0
 10
156.8005318892982
 20
48.47645557303248
 42
1.0
 10
157.0141278093837
 20
48.86885194880242
 42
1.0
 10
157.2349584299881
 20
49.27468419696479
 42
1.0
 10
157.5756783734794
 20
49.60231277761212
 42
1.0
 10
158.0261246081758
 20
49.84278044248253
 42
1.0
 10
158.4402250855028
 20
50.06326655353854
 42
1.0
 10
158.9631905801637
 20
50.22070741721446
 42
1.0
 10
159.5805516911205
 20
50.30924637118533
 42
1.0
 10
160.1634618472249
 20
50.39296219147693
 42
1.0
 10
160.8669503453128
 20
50.43533686594548
 42
1.0
 10
161.670346612473
 20
50.43533686594548
 42
1.0
 72
     1
 10
161.670346612473
 20
50.43533686594548
 11
174.8891779893767
 21
50.43533686594548
 72
     1
 10
174.8891779893767
 20
50.43533686594548
 11
174.8891779893767
 21
47.95831321205091
 72
     1
 10
174.8891779893767
 20
47.95831321205091
 11
161.670346612473
 21
47.95831321205091
 72
     4
 94
        3
 73
     1
 74
     0
 95
       17
 96
       13
 40
0.0
 40
0.0
 40
0.0
 40
0.0
 40
1.0
 40
2.0
 40
3.0
 40
4.0
 40
5.0
 40
6.0
 40
7.0
 40
8.0
 40
9.0
 40
10.0
 40
10.0
 40
10.0
 40
10.0
 10
161.670346612473
 20
47.95831321205091
 42
1.0
 10
161.0123333747904
 20
47.95831321205091
 42
1.0
 10
160.4659412308297
 20
47.97416065128301
 42
1.0
 10
160.0869807274522
 20
47.93178597681447
 42
1.0
 10
159.6604779063783
 20
47.88458816866653
 42
1.0
 10
159.5647042518884
 20
47.83153369819371
 42
1.0
 10
159.462729425525
 20
47.77227805584738
 42
1.0
 10
159.3035660141065
 20
47.67926047774562
 42
1.0
 10
159.269804078351
 20
47.54042312969003
 42
1.0
 10
159.2181276460722
 20
47.29754389797996
 42
1.0
 10
159.1816096339286
 20
47.00161019579701
 42
1.0
 10
159.1692072901817
 20
46.93270828609203
 42
1.0
 10
159.1692072901817
 20
46.79455995713344
 42
1.0
 72
     1
 10
159.1692072901817
 20
46.79455995713344
 11
159.1692072901817
 21
46.11966575157306
 72
     4
 94
        3
 73
     1
 74
     0
 95
       17
 96
       13
 40
0.0
 40
0.0
 40
0.0
 40
0.0
 40
1.0
 40
2.0
 40
3.0
 40
4.0
 40
5.0
 40
6.0
 40
7.0
 40
8.0
 40
9.0
 40
10.0
 40
10.0
 40
10.0
 40
10.0
 10
159.1692072901817
 20
46.11966575157306
 42
1.0
 10
159.1692072901817
 20
45.98186193216303
 42
1.0
 10
159.1940119776755
 20
45.47095427170045
 42
1.0
 10
159.2195056842664
 20
45.26080344710026
 42
1.0
 10
159.2250178370427
 20
45.25322423703271
 42
1.0
 10
159.2319080280132
 20
45.00724441938586
 42
1.0
 10
159.4448149290016
 20
44.84429140293356
 42
1.0
 10
159.6935508230367
 20
44.65377762259926
 42
1.0
 10
159.821708375088
 20
44.69787484481041
 42
1.0
 10
160.1083403194608
 20
44.66686898544314
 42
1.0
 10
160.4873008228383
 20
44.6258723491687
 42
1.0
 10
161.0130223938874
 20
44.6034792285146
 42
1.0
 10
161.670346612473
 20
44.6034792285146
 42
1.0
 72
     1
 10
161.670346612473
 20
44.6034792285146
 11
174.8891779893767
 21
44.6034792285146
 97
        0
 75
     0
 76
     1
 98
        1
 10
0.0
 20
0.0
  0
HATCH
  5
206
330
1F
100
AcDbEntity
  8
LAYER_1
 62
   250
100
AcDbHatch
 10
0.0
 20
0.0
 30
0.0
210
0.0
220
0.0
230
1.0
  2
SOLID
 70
     1
 71
     0
 91
        1
 92
        0
 93
       10
 72
     1
 10
176.0515532061
 20
42.12645557461997
 11
176.0515532061
 21
50.43533686594548
 72
     1
 10
176.0515532061
 20
50.43533686594548
 11
193.5299006409665
 21
50.43533686594548
 72
     1
 10
193.5299006409665
 20
50.43533686594548
 11
193.5299006409665
 21
47.95865772159941
 72
     1
 10
193.5299006409665
 20
47.95865772159941
 11
178.5285768599946
 21
47.95865772159941
 72
     1
 10
178.5285768599946
 20
47.95865772159941
 11
178.5079062870831
 21
46.99248069276108
 72
     1
 10
178.5079062870831
 20
46.99248069276108
 11
188.1651979513355
 21
46.98524599224208
 72
     1
 10
188.1651979513355
 20
46.98524599224208
 11
188.1651979513355
 21
44.51528478409222
 72
     1
 10
188.1651979513355
 20
44.51528478409222
 11
178.5079062870831
 21
44.51528478409222
 72
     1
 10
178.5079062870831
 20
44.51528478409222
 11
178.5285768599946
 21
42.12645557461997
 72
     1
 10
178.5285768599946
 20
42.12645557461997
 11
176.0515532061
 21
42.12645557461997
 97
        0
 75
     0
 76
     1
 98
        1
 10
0.0
 20
0.0
  0
ENDSEC
  0
SECTION
  2
OBJECTS
  0
DICTIONARY
  5
C
330
0
100
AcDbDictionary
281
     1
  3
ACAD_GROUP
350
D
  3
ACAD_LAYOUT
350
1A
  3
ACAD_MLINESTYLE
350
17
  3
ACAD_PLOTSETTINGS
350
19
  3
ACAD_PLOTSTYLENAME
350
E
  0
DICTIONARY
  5
D
102
{ACAD_REACTORS
330
C
102
}
330
C
100
AcDbDictionary
281
     1
  0
DICTIONARY
  5
1A
102
{ACAD_REACTORS
330
C
102
}
330
C
100
AcDbDictionary
281
     1
  3
Layout1
350
1E
  3
Layout2
350
26
  3
Model
350
22
  0
DICTIONARY
  5
17
102
{ACAD_REACTORS
330
C
102
}
330
C
100
AcDbDictionary
281
     1
  3
Standard
350
18
  0
DICTIONARY
  5
19
102
{ACAD_REACTORS
330
C
102
}
330
C
100
AcDbDictionary
281
     1
  0
ACDBDICTIONARYWDFLT
  5
E
102
{ACAD_REACTORS
330
C
102
}
330
C
100
AcDbDictionary
281
     1
  3
Normal
350
F
100
AcDbDictionaryWithDefault
340
F
  0
LAYOUT
  5
1E
102
{ACAD_REACTORS
330
1A
102
}
330
1A
100
AcDbPlotSettings
  1

  2
none_device
  4

  6

 40
0.0
 41
0.0
 42
0.0
 43
0.0
 44
0.0
 45
0.0
 46
0.0
 47
0.0
 48
0.0
 49
0.0
140
0.0
141
0.0
142
1.0
143
1.0
 70
   688
 72
     0
 73
     0
 74
     5
  7

 75
    16
147
1.0
148
0.0
149
0.0
100
AcDbLayout
  1
Layout1
 70
     1
 71
     1
 10
0.0
 20
0.0
 11
420.0
 21
297.0
 12
0.0
 22
0.0
 32
0.0
 14
1.0000000000E+20
 24
1.0000000000E+20
 34
1.0000000000E+20
 15
-1.0000000000E+20
 25
-1.0000000000E+20
 35
-1.0000000000E+20
146
0.0
 13
0.0
 23
0.0
 33
0.0
 16
1.0
 26
0.0
 36
0.0
 17
0.0
 27
1.0
 37
0.0
 76
     0
330
1B
  0
LAYOUT
  5
26
102
{ACAD_REACTORS
330
1A
102
}
330
1A
100
AcDbPlotSettings
  1

  2
none_device
  4

  6

 40
0.0
 41
0.0
 42
0.0
 43
0.0
 44
0.0
 45
0.0
 46
0.0
 47
0.0
 48
0.0
 49
0.0
140
0.0
141
0.0
142
1.0
143
1.0
 70
   688
 72
     0
 73
     0
 74
     5
  7

 75
    16
147
1.0
148
0.0
149
0.0
100
AcDbLayout
  1
Layout2
 70
     1
 71
     2
 10
0.0
 20
0.0
 11
0.0
 21
0.0
 12
0.0
 22
0.0
 32
0.0
 14
0.0
 24
0.0
 34
0.0
 15
0.0
 25
0.0
 35
0.0
146
0.0
 13
0.0
 23
0.0
 33
0.0
 16
1.0
 26
0.0
 36
0.0
 17
0.0
 27
1.0
 37
0.0
 76
     0
330
23
  0
LAYOUT
  5
22
102
{ACAD_REACTORS
330
1A
102
}
330
1A
100
AcDbPlotSettings
  1

  2
none_device
  4

  6

 40
0.0
 41
0.0
 42
0.0
 43
0.0
 44
0.0
 45
0.0
 46
0.0
 47
0.0
 48
0.0
 49
0.0
140
0.0
141
0.0
142
1.0
143
1.0
 70
  1712
 72
     0
 73
     0
 74
     0
  7

 75
     0
147
1.0
148
0.0
149
0.0
100
AcDbLayout
  1
Model
 70
     1
 71
     0
 10
0.0
 20
0.0
 11
210.0
 21
297.0
 12
0.0
 22
0.0
 32
0.0
 14
0.0
 24
0.0
 34
0.0
 15
210.0
 25
297.0
 35
0.0
146
0.0
 13
0.0
 23
0.0
 33
0.0
 16
1.0
 26
0.0
 36
0.0
 17
0.0
 27
1.0
 37
0.0
 76
     0
330
1F
331
29
  0
MLINESTYLE
  5
18
102
{ACAD_REACTORS
330
17
102
}
330
17
100
AcDbMlineStyle
  2
Standard
 70
     0
  3

 62
   256
 51
90.0
 52
90.0
 71
     2
 49
0.5
 62
   256
  6
BYLAYER
 49
-0.5
 62
   256
  6
BYLAYER
  0
ACDBPLACEHOLDER
  5
F
102
{ACAD_REACTORS
330
E
102
}
330
E
  0
ENDSEC
  0
EOF
