  0
SECTION
  2
HEADER
  9
$ACADVER
  1
AC1015
  9
$ACADMAINTVER
 70
     6
  9
$DWGCODEPAGE
  3
ANSI_1252
  9
$INSBASE
 10
0.0
 20
0.0
 30
0.0
  9
$EXTMIN
 10
0.0
 20
0.0
 30
0.0
  9
$EXTMAX
 10
210.0
 20
297.0
 30
0.0
  9
$LIMMIN
 10
0.0
 20
0.0
  9
$LIMMAX
 10
210.0
 20
297.0
  9
$ORTHOMODE
 70
     0
  9
$REGENMODE
 70
     1
  9
$FILLMODE
 70
     1
  9
$QTEXTMODE
 70
     0
  9
$MIRRTEXT
 70
     1
  9
$LTSCALE
 40
1.0
  9
$ATTMODE
 70
     1
  9
$TEXTSIZE
 40
3.5
  9
$TRACEWID
 40
1.0
  9
$TEXTSTYLE
  7
Standard
  9
$CLAYER
  8
0
  9
$CELTYPE
  6
ByLayer
  9
$CECOLOR
 62
   256
  9
$CELTSCALE
 40
1.0
  9
$DISPSILH
 70
     0
  9
$DIMSCALE
 40
1.0
  9
$DIMASZ
 40
3.302
  9
$DIMEXO
 40
1.0
  9
$DIMDLI
 40
3.75
  9
$DIMRND
 40
0.0
  9
$DIMDLE
 40
0.0
  9
$DIMEXE
 40
1.0
  9
$DIMTP
 40
0.0
  9
$DIMTM
 40
0.0
  9
$DIMTXT
 40
3.5
  9
$DIMCEN
 40
2.5
  9
$DIMTSZ
 40
0.0
  9
$DIMTOL
 70
     0
  9
$DIMLIM
 70
     0
  9
$DIMTIH
 70
     1
  9
$DIMTOH
 70
     1
  9
$DIMSE1
 70
     0
  9
$DIMSE2
 70
     0
  9
$DIMTAD
 70
     1
  9
$DIMZIN
 70
     0
  9
$DIMBLK
  1

  9
$DIMASO
 70
     1
  9
$DIMSHO
 70
     1
  9
$DIMPOST
  1

  9
$DIMAPOST
  1

  9
$DIMALT
 70
     0
  9
$DIMALTD
 70
     3
  9
$DIMALTF
 40
0.0393700787
  9
$DIMLFAC
 40
5.0
  9
$DIMTOFL
 70
     1
  9
$DIMTVP
 40
0.0
  9
$DIMTIX
 70
     0
  9
$DIMSOXD
 70
     0
  9
$DIMSAH
 70
     0
  9
$DIMBLK1
  1

  9
$DIMBLK2
  1

  9
$DIMSTYLE
  2
ISO-25
  9
$DIMCLRD
 70
     0
  9
$DIMCLRE
 70
     0
  9
$DIMCLRT
 70
     0
  9
$DIMTFAC
 40
1.0
  9
$DIMGAP
 40
1.524
  9
$DIMJUST
 70
     0
  9
$DIMSD1
 70
     0
  9
$DIMSD2
 70
     0
  9
$DIMTOLJ
 70
     0
  9
$DIMTZIN
 70
     0
  9
$DIMALTZ
 70
     0
  9
$DIMALTTZ
 70
     0
  9
$DIMUPT
 70
     0
  9
$DIMDEC
 70
     2
  9
$DIMTDEC
 70
     2
  9
$DIMALTU
 70
     2
  9
$DIMALTTD
 70
     3
  9
$DIMTXSTY
  7
Standard
  9
$DIMAUNIT
 70
     0
  9
$DIMADEC
 70
     2
  9
$DIMALTRND
 40
0.0
  9
$DIMAZIN
 70
     0
  9
$DIMDSEP
 70
    44
  9
$DIMATFIT
 70
     3
  9
$DIMFRAC
 70
     0
  9
$DIMLDRBLK
  1

  9
$DIMLUNIT
 70
     2
  9
$DIMLWD
 70
    -2
  9
$DIMLWE
 70
    -2
  9
$DIMTMOVE
 70
     0
  9
$LUNITS
 70
     2
  9
$LUPREC
 70
     2
  9
$SKETCHINC
 40
1.0
  9
$FILLETRAD
 40
10.0
  9
$AUNITS
 70
     0
  9
$AUPREC
 70
     2
  9
$MENU
  1
.
  9
$ELEVATION
 40
0.0
  9
$PELEVATION
 40
0.0
  9
$THICKNESS
 40
0.0
  9
$LIMCHECK
 70
     0
  9
$CHAMFERA
 40
10.0
  9
$CHAMFERB
 40
10.0
  9
$CHAMFERC
 40
20.0
  9
$CHAMFERD
 40
0.0
  9
$SKPOLY
 70
     0
  9
$TDCREATE
 40
2457436.76790022
  9
$TDUCREATE
 40
2457436.434566887
  9
$TDUPDATE
 40
2457436.767925498
  9
$TDUUPDATE
 40
2457436.434592164
  9
$TDINDWG
 40
0.0000000116
  9
$TDUSRTIMER
 40
0.0000000116
  9
$USRTIMER
 70
     1
  9
$ANGBASE
 50
0.0
  9
$ANGDIR
 70
     0
  9
$PDMODE
 70
     0
  9
$PDSIZE
 40
-1.0
  9
$PLINEWID
 40
0.0
  9
$SPLFRAME
 70
     0
  9
$SPLINETYPE
 70
     6
  9
$SPLINESEGS
 70
     8
  9
$HANDSEED
  5
226
  9
$SURFTAB1
 70
     6
  9
$SURFTAB2
 70
     6
  9
$SURFTYPE
 70
     6
  9
$SURFU
 70
     6
  9
$SURFV
 70
     6
  9
$UCSBASE
  2

  9
$UCSNAME
  2

  9
$UCSORG
 10
0.0
 20
0.0
 30
0.0
  9
$UCSXDIR
 10
1.0
 20
0.0
 30
0.0
  9
$UCSYDIR
 10
0.0
 20
1.0
 30
0.0
  9
$UCSORTHOREF
  2

  9
$UCSORTHOVIEW
 70
     0
  9
$UCSORGTOP
 10
0.0
 20
0.0
 30
0.0
  9
$UCSORGBOTTOM
 10
0.0
 20
0.0
 30
0.0
  9
$UCSORGLEFT
 10
0.0
 20
0.0
 30
0.0
  9
$UCSORGRIGHT
 10
0.0
 20
0.0
 30
0.0
  9
$UCSORGFRONT
 10
0.0
 20
0.0
 30
0.0
  9
$UCSORGBACK
 10
0.0
 20
0.0
 30
0.0
  9
$PUCSBASE
  2

  9
$PUCSNAME
  2

  9
$PUCSORG
 10
0.0
 20
0.0
 30
0.0
  9
$PUCSXDIR
 10
1.0
 20
0.0
 30
0.0
  9
$PUCSYDIR
 10
0.0
 20
1.0
 30
0.0
  9
$PUCSORTHOREF
  2

  9
$PUCSORTHOVIEW
 70
     0
  9
$PUCSORGTOP
 10
0.0
 20
0.0
 30
0.0
  9
$PUCSORGBOTTOM
 10
0.0
 20
0.0
 30
0.0
  9
$PUCSORGLEFT
 10
0.0
 20
0.0
 30
0.0
  9
$PUCSORGRIGHT
 10
0.0
 20
0.0
 30
0.0
  9
$PUCSORGFRONT
 10
0.0
 20
0.0
 30
0.0
  9
$PUCSORGBACK
 10
0.0
 20
0.0
 30
0.0
  9
$USERI1
 70
     0
  9
$USERI2
 70
     0
  9
$USERI3
 70
     0
  9
$USERI4
 70
     0
  9
$USERI5
 70
     0
  9
$USERR1
 40
0.0
  9
$USERR2
 40
0.0
  9
$USERR3
 40
0.0
  9
$USERR4
 40
0.0
  9
$USERR5
 40
0.0
  9
$WORLDVIEW
 70
     1
  9
$SHADEDGE
 70
     3
  9
$SHADEDIF
 70
    70
  9
$TILEMODE
 70
     1
  9
$MAXACTVP
 70
    64
  9
$PINSBASE
 10
0.0
 20
0.0
 30
0.0
  9
$PLIMCHECK
 70
     0
  9
$PEXTMIN
 10
1.0000000000E+20
 20
1.0000000000E+20
 30
1.0000000000E+20
  9
$PEXTMAX
 10
-1.0000000000E+20
 20
-1.0000000000E+20
 30
-1.0000000000E+20
  9
$PLIMMIN
 10
0.0
 20
0.0
  9
$PLIMMAX
 10
420.0
 20
297.0
  9
$UNITMODE
 70
     0
  9
$VISRETAIN
 70
     1
  9
$PLINEGEN
 70
     0
  9
$PSLTSCALE
 70
     1
  9
$TREEDEPTH
 70
  3020
  9
$CMLSTYLE
  2
Standard
  9
$CMLJUST
 70
     0
  9
$CMLSCALE
 40
20.0
  9
$PROXYGRAPHICS
 70
     1
  9
$MEASUREMENT
 70
     1
  9
$CELWEIGHT
370
    -1
  9
$ENDCAPS
280
     0
  9
$JOINSTYLE
280
     0
  9
$LWDISPLAY
290
     1
  9
$INSUNITS
 70
     4
  9
$HYPERLINKBASE
  1

  9
$STYLESHEET
  1

  9
$XEDIT
290
     1
  9
$CEPSNTYPE
380
     0
  9
$PSTYLEMODE
290
     1
  9
$FINGERPRINTGUID
  2
{F6B8EAB7-90E5-402E-BE22-3D2FBBAEC596}
  9
$VERSIONGUID
  2
{FAEB1C32-E019-11D5-929B-00C0DF256EC4}
  9
$EXTNAMES
290
     1
  9
$PSVPSCALE
 40
0.0
  9
$OLESTARTUP
290
     0
  0
ENDSEC
  0
SECTION
  2
CLASSES
  0
CLASS
  1
ACDBDICTIONARYWDFLT
  2
AcDbDictionaryWithDefault
  3
ObjectDBX Classes
 90
        0
280
     0
281
     0
  0
CLASS
  1
VISUALSTYLE
  2
AcDbVisualStyle
  3
ObjectDBX Classes
 90
     4095
280
     0
281
     0
  0
CLASS
  1
MATERIAL
  2
AcDbMaterial
  3
ObjectDBX Classes
 90
     1153
280
     0
281
     0
  0
CLASS
  1
ACDBPLACEHOLDER
  2
AcDbPlaceHolder
  3
ObjectDBX Classes
 90
        0
280
     0
281
     0
  0
CLASS
  1
LAYOUT
  2
AcDbLayout
  3
ObjectDBX Classes
 90
        0
280
     0
281
     0
  0
ENDSEC
  0
SECTION
  2
TABLES
  0
TABLE
  2
VPORT
  5
8
330
0
100
AcDbSymbolTable
 70
     1
  0
VPORT
  5
29
330
8
100
AcDbSymbolTableRecord
100
AcDbViewportTableRecord
  2
*Active
 70
     0
 10
0.0
 20
0.0
 11
1.0
 21
1.0
 12
105.0
 22
148.5
 13
0.0
 23
0.0
 14
10.0
 24
10.0
 15
10.0
 25
10.0
 16
0.0
 26
0.0
 36
1.0
 17
0.0
 27
0.0
 37
0.0
 40
297.0
 41
0.7070707071
 42
50.0
 43
0.0
 44
0.0
 50
0.0
 51
0.0
 71
     0
 72
  2000
 73
     1
 74
     3
 75
     0
 76
     0
 77
     0
 78
     0
281
     0
 65
     1
110
0.0
120
0.0
130
0.0
111
1.0
121
0.0
131
0.0
112
0.0
122
1.0
132
0.0
 79
     0
146
0.0
  0
ENDTAB
  0
TABLE
  2
LTYPE
  5
5
330
0
100
AcDbSymbolTable
 70
     6
  0
LTYPE
  5
14
330
5
100
AcDbSymbolTableRecord
100
AcDbLinetypeTableRecord
  2
ByBlock
 70
     0
  3

 72
    65
 73
     0
 40
0.0
  0
LTYPE
  5
15
330
5
100
AcDbSymbolTableRecord
100
AcDbLinetypeTableRecord
  2
ByLayer
 70
     0
  3

 72
    65
 73
     0
 40
0.0
  0
LTYPE
  5
16
330
5
100
AcDbSymbolTableRecord
100
AcDbLinetypeTableRecord
  2
Continuous
 70
     0
  3
Solid line
 72
    65
 73
     0
 40
0.0
  0
LTYPE
  5
3F
330
5
100
AcDbSymbolTableRecord
100
AcDbLinetypeTableRecord
  2
HIDDEN
 70
     0
  3
Hidden __ __ __ __ __ __ __ __ __ __ __ __ __ __
 72
    65
 73
     2
 40
1.905
 49
1.27
 74
     0
 49
-0.635
 74
     0
  0
LTYPE
  5
40
330
5
100
AcDbSymbolTableRecord
100
AcDbLinetypeTableRecord
  2
PHANTOM
 70
     0
  3
Phantom ______  __  __  ______  __  __  ______
 72
    65
 73
     6
 40
12.7
 49
6.35
 74
     0
 49
-1.27
 74
     0
 49
1.27
 74
     0
 49
-1.27
 74
     0
 49
1.27
 74
     0
 49
-1.27
 74
     0
  0
LTYPE
  5
41
330
5
100
AcDbSymbolTableRecord
100
AcDbLinetypeTableRecord
  2
CENTER
 70
     0
  3
Center ____ _ ____ _ ____ _ ____ _ ____ _ ____
 72
    65
 73
     4
 40
10.16
 49
6.35
 74
     0
 49
-1.27
 74
     0
 49
1.27
 74
     0
 49
-1.27
 74
     0
  0
LTYPE
  5
42
330
5
100
AcDbSymbolTableRecord
100
AcDbLinetypeTableRecord
  2
CENTERX2
 70
     0
  3
Center (2x) ________  __  ________  __  _____
 72
    65
 73
     4
 40
20.32
 49
12.7
 74
     0
 49
-2.54
 74
     0
 49
2.54
 74
     0
 49
-2.54
 74
     0
  0
LTYPE
  5
43
330
5
100
AcDbSymbolTableRecord
100
AcDbLinetypeTableRecord
  2
DOT2
 70
     0
  3
Dot (.5x) ........................................
 72
    65
 73
     2
 40
0.635
 49
0.0
 74
     0
 49
-0.635
 74
     0
  0
ENDTAB
  0
TABLE
  2
LAYER
  5
2
330
0
100
AcDbSymbolTable
 70
     4
  0
LAYER
  5
10
330
2
100
AcDbSymbolTableRecord
100
AcDbLayerTableRecord
  2
0
 70
     0
 62
     7
  6
Continuous
370
    -3
390
F
  0
LAYER
  5
44
330
2
100
AcDbSymbolTableRecord
100
AcDbLayerTableRecord
  2
SLD-0
 70
     0
 62
   179
  6
Continuous
370
    -3
390
F
  0
LAYER
  5
45
330
2
100
AcDbSymbolTableRecord
100
AcDbLayerTableRecord
  2
SLD-DEFPOINTS
 70
     0
 62
   179
  6
Continuous
370
    -3
390
F
  0
LAYER
  5
46
330
2
100
AcDbSymbolTableRecord
100
AcDbLayerTableRecord
  2
LAYER_1
 70
     0
 62
   179
  6
Continuous
370
    -3
390
F
  0
ENDTAB
  0
TABLE
  2
STYLE
  5
3
330
0
100
AcDbSymbolTable
 70
     2
  0
STYLE
  5
11
330
3
100
AcDbSymbolTableRecord
100
AcDbTextStyleTableRecord
  2
Standard
 70
     0
 40
0.0
 41
1.0
 50
0.0
 71
     0
 42
3.5
  3
txt
  4

  0
STYLE
  5
AC
330
3
100
AcDbSymbolTableRecord
100
AcDbTextStyleTableRecord
  2
SLDTEXTSTYLE0
 70
     0
 40
0.0
 41
0.75
 50
0.0
 71
     0
 42
0.2
  3
TXT
  4

  0
ENDTAB
  0
TABLE
  2
VIEW
  5
6
330
0
100
AcDbSymbolTable
 70
     0
  0
ENDTAB
  0
TABLE
  2
UCS
  5
7
330
0
100
AcDbSymbolTable
 70
     0
  0
ENDTAB
  0
TABLE
  2
APPID
  5
9
330
0
100
AcDbSymbolTable
 70
     1
  0
APPID
  5
12
330
9
100
AcDbSymbolTableRecord
100
AcDbRegAppTableRecord
  2
ACAD
 70
     0
  0
ENDTAB
  0
TABLE
  2
DIMSTYLE
  5
A
330
0
100
AcDbSymbolTable
 70
     4
100
AcDbDimStyleTable
  0
DIMSTYLE
105
27
330
A
100
AcDbSymbolTableRecord
100
AcDbDimStyleTableRecord
  2
ISO-25
 70
     0
 41
2.5
 42
0.625
 43
3.75
 44
1.25
 73
     0
 74
     0
 77
     1
 78
     8
140
2.5
141
2.5
143
0.0393700787
147
0.625
171
     3
172
     1
178
     0
271
     2
272
     2
274
     3
278
    44
283
     0
284
     8
340
11
  0
DIMSTYLE
105
159
102
{ACAD_REACTORS
330
158
330
164
330
16F
330
17A
330
191
102
}
330
A
100
AcDbSymbolTableRecord
100
AcDbDimStyleTableRecord
  2
SLDDIMSTYLE0
 70
     0
 41
3.302
 44
0.0
 45
0.000000001
 73
     0
 74
     0
 77
     1
 78
     4
 79
     1
140
3.5
147
0.875
173
     1
178
     0
271
     2
272
     2
276
     2
284
    12
340
AC
  0
DIMSTYLE
105
186
102
{ACAD_REACTORS
330
185
102
}
330
A
100
AcDbSymbolTableRecord
100
AcDbDimStyleTableRecord
  2
SLDDIMSTYLE1
 70
     0
 41
3.302
 44
0.0
 45
0.000000001
 73
     0
 74
     0
 77
     1
 78
    12
 79
     3
140
3.5
147
0.875
173
     1
178
     0
271
     2
272
     2
276
     2
284
    12
340
AC
  0
DIMSTYLE
105
19D
102
{ACAD_REACTORS
330
19C
330
1AA
330
1B7
330
1C4
330
1D1
330
1DE
102
}
330
A
100
AcDbSymbolTableRecord
100
AcDbDimStyleTableRecord
  2
SLDDIMSTYLE2
 70
     0
 41
3.302
 44
0.0
 45
0.000000001
 73
     0
 74
     0
 77
     1
 78
    12
 79
     3
140
3.5
147
0.875
172
     1
173
     1
178
     0
271
     2
272
     2
276
     2
284
    12
289
     0
340
AC
  0
ENDTAB
  0
TABLE
  2
BLOCK_RECORD
  5
1
330
0
100
AcDbSymbolTable
 70
    16
  0
BLOCK_RECORD
  5
1F
330
1
100
AcDbSymbolTableRecord
100
AcDbBlockTableRecord
  2
*Model_Space
340
22
  0
BLOCK_RECORD
  5
1B
330
1
100
AcDbSymbolTableRecord
100
AcDbBlockTableRecord
  2
*Paper_Space
340
1E
  0
BLOCK_RECORD
  5
23
330
1
100
AcDbSymbolTableRecord
100
AcDbBlockTableRecord
  2
*Paper_Space0
340
26
  0
BLOCK_RECORD
  5
47
330
1
100
AcDbSymbolTableRecord
100
AcDbBlockTableRecord
  2
BLOCK 2
340
0
102
{BLKREFS
331
220
102
}
  0
BLOCK_RECORD
  5
AE
330
1
100
AcDbSymbolTableRecord
100
AcDbBlockTableRecord
  2
SW_NOTE_0
340
0
102
{BLKREFS
331
B6
102
}
  0
BLOCK_RECORD
  5
B8
330
1
100
AcDbSymbolTableRecord
100
AcDbBlockTableRecord
  2
SW_NOTE_1
340
0
102
{BLKREFS
331
BD
102
}
  0
BLOCK_RECORD
  5
15A
330
1
100
AcDbSymbolTableRecord
100
AcDbBlockTableRecord
  2
_D
340
0
  0
BLOCK_RECORD
  5
165
330
1
100
AcDbSymbolTableRecord
100
AcDbBlockTableRecord
  2
_D_1
340
0
  0
BLOCK_RECORD
  5
170
330
1
100
AcDbSymbolTableRecord
100
AcDbBlockTableRecord
  2
_D_2
340
0
  0
BLOCK_RECORD
  5
17B
330
1
100
AcDbSymbolTableRecord
100
AcDbBlockTableRecord
  2
_D_3
340
0
  0
BLOCK_RECORD
  5
187
330
1
100
AcDbSymbolTableRecord
100
AcDbBlockTableRecord
  2
_D_4
340
0
  0
BLOCK_RECORD
  5
192
330
1
100
AcDbSymbolTableRecord
100
AcDbBlockTableRecord
  2
_D_5
340
0
  0
BLOCK_RECORD
  5
19E
330
1
100
AcDbSymbolTableRecord
100
AcDbBlockTableRecord
  2
_D_6
340
0
  0
BLOCK_RECORD
  5
1AB
330
1
100
AcDbSymbolTableRecord
100
AcDbBlockTableRecord
  2
_D_7
340
0
  0
BLOCK_RECORD
  5
1B8
330
1
100
AcDbSymbolTableRecord
100
AcDbBlockTableRecord
  2
_D_8
340
0
  0
BLOCK_RECORD
  5
1C5
330
1
100
AcDbSymbolTableRecord
100
AcDbBlockTableRecord
  2
_D_9
340
0
  0
BLOCK_RECORD
  5
1D2
330
1
100
AcDbSymbolTableRecord
100
AcDbBlockTableRecord
  2
_D_10
340
0
  0
BLOCK_RECORD
  5
1DF
330
1
100
AcDbSymbolTableRecord
100
AcDbBlockTableRecord
  2
_D_11
340
0
  0
ENDTAB
  0
ENDSEC
  0
SECTION
  2
BLOCKS
  0
BLOCK
  5
20
330
1F
100
AcDbEntity
  8
0
100
AcDbBlockBegin
  2
*Model_Space
 70
     0
 10
0.0
 20
0.0
 30
0.0
  3
*Model_Space
  1

  0
ENDBLK
  5
21
330
1F
100
AcDbEntity
  8
0
100
AcDbBlockEnd
  0
BLOCK
  5
1C
330
1B
100
AcDbEntity
 67
     1
  8
0
100
AcDbBlockBegin
  2
*Paper_Space
 70
     0
 10
0.0
 20
0.0
 30
0.0
  3
*Paper_Space
  1

  0
ENDBLK
  5
1D
330
1B
100
AcDbEntity
 67
     1
  8
0
100
AcDbBlockEnd
  0
BLOCK
  5
24
330
23
100
AcDbEntity
  8
0
100
AcDbBlockBegin
  2
*Paper_Space0
 70
     0
 10
0.0
 20
0.0
 30
0.0
  3
*Paper_Space0
  1

  0
ENDBLK
  5
25
330
23
100
AcDbEntity
  8
0
100
AcDbBlockEnd
  0
BLOCK
  5
48
330
47
100
AcDbEntity
  8
0
100
AcDbBlockBegin
  2
BLOCK 2
 70
     0
 10
0.0
 20
0.0
 30
0.0
  3
BLOCK 2
  1

  0
LINE
  5
4A
330
47
100
AcDbEntity
  8
LAYER_1
370
     0
100
AcDbLine
 10
25.4702799415
 20
-14.6402777741
 30
0.0
 11
12.2517930742
 21
-14.6402777741
 31
0.0
  0
LINE
  5
4B
330
47
100
AcDbEntity
  8
LAYER_1
370
     0
100
AcDbLine
 10
7.2732855885
 20
-11.6382215683
 30
0.0
 11
7.2732855885
 21
-9.3334526886
 31
0.0
  0
LINE
  5
4C
330
47
100
AcDbEntity
  8
LAYER_1
370
     0
100
AcDbLine
 10
12.2517930742
 20
-6.3313964828
 30
0.0
 11
25.4702799415
 21
-6.3313964828
 31
0.0
  0
LINE
  5
4D
330
47
100
AcDbEntity
  8
LAYER_1
370
     0
100
AcDbLine
 10
25.4702799415
 20
-6.3313964828
 30
0.0
 11
25.4702799415
 21
-8.8084201367
 31
0.0
  0
LINE
  5
4E
330
47
100
AcDbEntity
  8
LAYER_1
370
     0
100
AcDbLine
 10
25.4702799415
 20
-8.8084201367
 30
0.0
 11
12.2517930742
 21
-8.8084201367
 31
0.0
  0
LINE
  5
4F
330
47
100
AcDbEntity
  8
LAYER_1
370
     0
100
AcDbLine
 10
9.7506537519
 20
-9.9721733916
 30
0.0
 11
9.7506537519
 21
-10.9998453749
 31
0.0
  0
LINE
  5
50
330
47
100
AcDbEntity
  8
LAYER_1
370
     0
100
AcDbLine
 10
12.2517930742
 20
-12.1632541202
 30
0.0
 11
25.4702799415
 21
-12.1632541202
 31
0.0
  0
LINE
  5
51
330
47
100
AcDbEntity
  8
LAYER_1
370
     0
100
AcDbLine
 10
25.4702799415
 20
-12.1632541202
 30
0.0
 11
25.4702799415
 21
-14.6402777741
 31
0.0
  0
LINE
  5
52
330
47
100
AcDbEntity
  8
LAYER_1
370
     0
100
AcDbLine
 10
40.1918619691
 20
-14.6402777741
 30
0.0
 11
36.2561848868
 21
-14.6402777741
 31
0.0
  0
LINE
  5
53
330
47
100
AcDbEntity
  8
LAYER_1
370
     0
100
AcDbLine
 10
36.2561848868
 20
-14.6402777741
 30
0.0
 11
36.2561848868
 21
-12.1635986298
 31
0.0
  0
LINE
  5
54
330
47
100
AcDbEntity
  8
LAYER_1
370
     0
100
AcDbLine
 10
36.2561848868
 20
-12.1635986298
 30
0.0
 11
40.1918619691
 21
-12.1635986298
 31
0.0
  0
LINE
  5
55
330
47
100
AcDbEntity
  8
LAYER_1
370
     0
100
AcDbLine
 10
26.6209418336
 20
-6.3313964828
 30
0.0
 11
29.097620978
 21
-6.3313964828
 31
0.0
  0
LINE
  5
56
330
47
100
AcDbEntity
  8
LAYER_1
370
     0
100
AcDbLine
 10
29.097620978
 20
-6.3313964828
 30
0.0
 11
29.097620978
 21
-7.8465494772
 31
0.0
  0
LINE
  5
57
330
47
100
AcDbEntity
  8
LAYER_1
370
     0
100
AcDbLine
 10
31.2356472361
 20
-8.6699272982
 30
0.0
 11
42.6930012914
 21
-8.6699272982
 31
0.0
  0
LINE
  5
58
330
47
100
AcDbEntity
  8
LAYER_1
370
     0
100
AcDbLine
 10
42.6930012914
 20
-8.6699272982
 30
0.0
 11
42.6930012914
 21
-6.3313964828
 31
0.0
  0
LINE
  5
59
330
47
100
AcDbEntity
  8
LAYER_1
370
     0
100
AcDbLine
 10
42.6930012914
 20
-6.3313964828
 30
0.0
 11
45.1700249453
 21
-6.3313964828
 31
0.0
  0
LINE
  5
5A
330
47
100
AcDbEntity
  8
LAYER_1
370
     0
100
AcDbLine
 10
45.1700249453
 20
-6.3313964828
 30
0.0
 11
45.1700249453
 21
-11.2854437906
 31
0.0
  0
LINE
  5
5B
330
47
100
AcDbEntity
  8
LAYER_1
370
     0
100
AcDbLine
 10
86.7400973633
 20
-14.6402777741
 30
0.0
 11
84.2630737094
 21
-14.6402777741
 31
0.0
  0
LINE
  5
5C
330
47
100
AcDbEntity
  8
LAYER_1
370
     0
100
AcDbLine
 10
84.2630737094
 20
-14.6402777741
 30
0.0
 11
84.2630737094
 21
-6.3313964828
 31
0.0
  0
LINE
  5
5D
330
47
100
AcDbEntity
  8
LAYER_1
370
     0
100
AcDbLine
 10
84.2630737094
 20
-6.3313964828
 30
0.0
 11
86.7400973633
 21
-6.3313964828
 31
0.0
  0
LINE
  5
5E
330
47
100
AcDbEntity
  8
LAYER_1
370
     0
100
AcDbLine
 10
86.7400973633
 20
-6.3313964828
 30
0.0
 11
86.7400973633
 21
-14.6402777741
 31
0.0
  0
LINE
  5
5F
330
47
100
AcDbEntity
  8
LAYER_1
370
     0
100
AcDbLine
 10
64.5171644261
 20
-14.6402777741
 30
0.0
 11
51.2983330492
 21
-14.6402777741
 31
0.0
  0
LINE
  5
60
330
47
100
AcDbEntity
  8
LAYER_1
370
     0
100
AcDbLine
 10
46.3199978183
 20
-11.6382215683
 30
0.0
 11
46.3199978183
 21
-9.3334526886
 31
0.0
  0
LINE
  5
61
330
47
100
AcDbEntity
  8
LAYER_1
370
     0
100
AcDbLine
 10
51.2983330492
 20
-6.3313964828
 30
0.0
 11
64.5171644261
 21
-6.3313964828
 31
0.0
  0
LINE
  5
62
330
47
100
AcDbEntity
  8
LAYER_1
370
     0
100
AcDbLine
 10
64.5171644261
 20
-6.3313964828
 30
0.0
 11
64.5171644261
 21
-8.8084201367
 31
0.0
  0
LINE
  5
63
330
47
100
AcDbEntity
  8
LAYER_1
370
     0
100
AcDbLine
 10
64.5171644261
 20
-8.8084201367
 30
0.0
 11
51.2983330492
 21
-8.8084201367
 31
0.0
  0
LINE
  5
64
330
47
100
AcDbEntity
  8
LAYER_1
370
     0
100
AcDbLine
 10
48.797193727
 20
-9.9721733916
 30
0.0
 11
48.797193727
 21
-10.6470675972
 31
0.0
  0
LINE
  5
65
330
47
100
AcDbEntity
  8
LAYER_1
370
     0
100
AcDbLine
 10
51.2983330492
 20
-12.1632541202
 30
0.0
 11
64.5171644261
 21
-12.1632541202
 31
0.0
  0
LINE
  5
66
330
47
100
AcDbEntity
  8
LAYER_1
370
     0
100
AcDbLine
 10
64.5171644261
 20
-12.1632541202
 30
0.0
 11
64.5171644261
 21
-14.6402777741
 31
0.0
  0
LINE
  5
67
330
47
100
AcDbEntity
  8
LAYER_1
370
     0
100
AcDbLine
 10
65.6795396429
 20
-6.3313964828
 30
0.0
 11
83.1578870777
 21
-6.3313964828
 31
0.0
  0
LINE
  5
68
330
47
100
AcDbEntity
  8
LAYER_1
370
     0
100
AcDbLine
 10
83.1578870777
 20
-6.3313964828
 30
0.0
 11
83.1578870777
 21
-8.8080756271
 31
0.0
  0
LINE
  5
69
330
47
100
AcDbEntity
  8
LAYER_1
370
     0
100
AcDbLine
 10
83.1578870777
 20
-8.8080756271
 30
0.0
 11
68.1565632968
 21
-8.8080756271
 31
0.0
  0
LINE
  5
6A
330
47
100
AcDbEntity
  8
LAYER_1
370
     0
100
AcDbLine
 10
68.1565632968
 20
-8.8080756271
 30
0.0
 11
68.1358927239
 21
-9.774252656
 31
0.0
  0
LINE
  5
6B
330
47
100
AcDbEntity
  8
LAYER_1
370
     0
100
AcDbLine
 10
68.1358927239
 20
-9.774252656
 30
0.0
 11
77.7931843881
 21
-9.7814873565
 31
0.0
  0
LINE
  5
6C
330
47
100
AcDbEntity
  8
LAYER_1
370
     0
100
AcDbLine
 10
77.7931843881
 20
-9.7814873565
 30
0.0
 11
77.7931843881
 21
-12.2514485646
 31
0.0
  0
LINE
  5
6D
330
47
100
AcDbEntity
  8
LAYER_1
370
     0
100
AcDbLine
 10
77.7931843881
 20
-12.2514485646
 30
0.0
 11
68.1358927239
 21
-12.2514485646
 31
0.0
  0
LINE
  5
6E
330
47
100
AcDbEntity
  8
LAYER_1
370
     0
100
AcDbLine
 10
68.1358927239
 20
-12.2514485646
 30
0.0
 11
68.1565632968
 21
-14.6402777741
 31
0.0
  0
LINE
  5
6F
330
47
100
AcDbEntity
  8
LAYER_1
370
     0
100
AcDbLine
 10
68.1565632968
 20
-14.6402777741
 30
0.0
 11
65.6795396429
 21
-14.6402777741
 31
0.0
  0
LINE
  5
70
330
47
100
AcDbEntity
  8
LAYER_1
370
     0
100
AcDbLine
 10
65.6795396429
 20
-14.6402777741
 30
0.0
 11
65.6795396429
 21
-6.3313964828
 31
0.0
  0
SPLINE
  5
71
330
47
100
AcDbEntity
  8
LAYER_1
370
     0
100
AcDbSpline
210
0.0
220
0.0
230
1.0
 70
     8
 71
     3
 72
     8
 73
     4
 74
     0
 42
0.00000001
 43
0.00000001
 12
1.0
 22
0.0
 32
0.0
 13
1.0
 23
0.0
 33
0.0
 40
1.0
 40
1.0
 40
1.0
 40
1.0
 40
2.0
 40
2.0
 40
2.0
 40
2.0
 10
12.251793074194
 20
-14.64027777411771
 30
0.0
 10
11.44564073064553
 20
-14.64027777411771
 30
0.0
 10
10.74249674210604
 20
-14.59790309964914
 30
0.0
 10
10.1613091337444
 20
-14.51418727935756
 30
0.0
  0
SPLINE
  5
72
330
47
100
AcDbEntity
  8
LAYER_1
370
     0
100
AcDbSpline
210
0.0
220
0.0
230
1.0
 70
     8
 71
     3
 72
     8
 73
     4
 74
     0
 42
0.00000001
 43
0.00000001
 12
1.0
 22
0.0
 32
0.0
 13
1.0
 23
0.0
 33
0.0
 40
2.0
 40
2.0
 40
2.0
 40
2.0
 40
3.0
 40
3.0
 40
3.0
 40
3.0
 10
10.1613091337444
 20
-14.51418727935756
 30
0.0
 10
9.544637041884675
 20
-14.42564832538664
 30
0.0
 10
9.021671547223749
 20
-14.26820746171073
 30
0.0
 10
8.60757106989672
 20
-14.04737684110621
 30
0.0
  0
SPLINE
  5
73
330
47
100
AcDbEntity
  8
LAYER_1
370
     0
100
AcDbSpline
210
0.0
220
0.0
230
1.0
 70
     8
 71
     3
 72
     8
 73
     4
 74
     0
 42
0.00000001
 43
0.00000001
 12
1.0
 22
0.0
 32
0.0
 13
1.0
 23
0.0
 33
0.0
 40
3.0
 40
3.0
 40
3.0
 40
3.0
 40
4.0
 40
4.0
 40
4.0
 40
4.0
 10
8.60757106989672
 20
-14.04737684110621
 30
0.0
 10
8.15695258042604
 20
-13.8072536857843
 30
0.0
 10
7.816232636934832
 20
-13.47962510513704
 30
0.0
 10
7.595402016330317
 20
-13.07344834742608
 30
0.0
  0
SPLINE
  5
74
330
47
100
AcDbEntity
  8
LAYER_1
370
     0
100
AcDbSpline
210
0.0
220
0.0
230
1.0
 70
     8
 71
     3
 72
     8
 73
     4
 74
     0
 42
0.00000001
 43
0.00000001
 12
1.0
 22
0.0
 32
0.0
 13
1.0
 23
0.0
 33
0.0
 40
4.0
 40
4.0
 40
4.0
 40
4.0
 40
5.0
 40
5.0
 40
5.0
 40
5.0
 10
7.595402016330317
 20
-13.07344834742608
 30
0.0
 10
7.382150605793352
 20
-12.68139648120465
 30
0.0
 10
7.273285588459457
 20
-12.19839409417262
 30
0.0
 10
7.273285588459457
 20
-11.638221568271
 30
0.0
  0
SPLINE
  5
75
330
47
100
AcDbEntity
  8
LAYER_1
370
     0
100
AcDbSpline
210
0.0
220
0.0
230
1.0
 70
     8
 71
     3
 72
     8
 73
     4
 74
     0
 42
0.00000001
 43
0.00000001
 12
1.0
 22
0.0
 32
0.0
 13
1.0
 23
0.0
 33
0.0
 40
6.0
 40
6.0
 40
6.0
 40
6.0
 40
7.0
 40
7.0
 40
7.0
 40
7.0
 10
7.273285588459457
 20
-9.33345268863886
 30
0.0
 10
7.273285588459457
 20
-8.773280162737237
 30
0.0
 10
7.382150605793352
 20
-8.290277775705208
 30
0.0
 10
7.595746525878842
 20
-7.897881399935252
 30
0.0
  0
SPLINE
  5
76
330
47
100
AcDbEntity
  8
LAYER_1
370
     0
100
AcDbSpline
210
0.0
220
0.0
230
1.0
 70
     8
 71
     3
 72
     8
 73
     4
 74
     0
 42
0.00000001
 43
0.00000001
 12
1.0
 22
0.0
 32
0.0
 13
1.0
 23
0.0
 33
0.0
 40
7.0
 40
7.0
 40
7.0
 40
7.0
 40
8.0
 40
8.0
 40
8.0
 40
8.0
 10
7.595746525878842
 20
-7.897881399935252
 30
0.0
 10
7.816232636934832
 20
-7.492049151772822
 30
0.0
 10
8.15695258042604
 20
-7.164420571125562
 30
0.0
 10
8.607915579445244
 20
-6.923952906255123
 30
0.0
  0
SPLINE
  5
77
330
47
100
AcDbEntity
  8
LAYER_1
370
     0
100
AcDbSpline
210
0.0
220
0.0
230
1.0
 70
     8
 71
     3
 72
     8
 73
     4
 74
     0
 42
0.00000001
 43
0.00000001
 12
1.0
 22
0.0
 32
0.0
 13
1.0
 23
0.0
 33
0.0
 40
8.0
 40
8.0
 40
8.0
 40
8.0
 40
9.0
 40
9.0
 40
9.0
 40
9.0
 10
8.607915579445244
 20
-6.923952906255123
 30
0.0
 10
9.021671547223749
 20
-6.703466795199134
 30
0.0
 10
9.544637041884675
 20
-6.546025931523217
 30
0.0
 10
10.16165364329292
 20
-6.457486977552295
 30
0.0
  0
SPLINE
  5
78
330
47
100
AcDbEntity
  8
LAYER_1
370
     0
100
AcDbSpline
210
0.0
220
0.0
230
1.0
 70
     8
 71
     3
 72
     8
 73
     4
 74
     0
 42
0.00000001
 43
0.00000001
 12
1.0
 22
0.0
 32
0.0
 13
1.0
 23
0.0
 33
0.0
 40
9.0
 40
9.0
 40
9.0
 40
9.0
 40
10.0
 40
10.0
 40
10.0
 40
10.0
 10
10.16165364329292
 20
-6.457486977552295
 30
0.0
 10
10.74490830894572
 20
-6.373771157260724
 30
0.0
 10
11.44805229748521
 20
-6.331396482792151
 30
0.0
 10
12.251793074194
 20
-6.331396482792151
 30
0.0
  0
SPLINE
  5
79
330
47
100
AcDbEntity
  8
LAYER_1
370
     0
100
AcDbSpline
210
0.0
220
0.0
230
1.0
 70
     8
 71
     3
 72
     8
 73
     4
 74
     0
 42
0.00000001
 43
0.00000001
 12
1.0
 22
0.0
 32
0.0
 13
1.0
 23
0.0
 33
0.0
 40
13.0
 40
13.0
 40
13.0
 40
13.0
 40
14.0
 40
14.0
 40
14.0
 40
14.0
 10
12.251793074194
 20
-8.808420136686784
 30
0.0
 10
11.59377983651128
 20
-8.808420136686784
 30
0.0
 10
11.04738769255065
 20
-8.792572697454634
 30
0.0
 10
10.66842718917317
 20
-8.834947371923208
 30
0.0
  0
SPLINE
  5
7A
330
47
100
AcDbEntity
  8
LAYER_1
370
     0
100
AcDbSpline
210
0.0
220
0.0
230
1.0
 70
     8
 71
     3
 72
     8
 73
     4
 74
     0
 42
0.00000001
 43
0.00000001
 12
1.0
 22
0.0
 32
0.0
 13
1.0
 23
0.0
 33
0.0
 40
14.0
 40
14.0
 40
14.0
 40
14.0
 40
15.0
 40
15.0
 40
15.0
 40
15.0
 10
10.66842718917317
 20
-8.834947371923208
 30
0.0
 10
10.24157985855072
 20
-8.88214518007113
 30
0.0
 10
10.1461507136093
 20
-8.935199650543979
 30
0.0
 10
10.04452039679443
 20
-8.994455292890276
 30
0.0
  0
SPLINE
  5
7B
330
47
100
AcDbEntity
  8
LAYER_1
370
     0
100
AcDbSpline
210
0.0
220
0.0
230
1.0
 70
     8
 71
     3
 72
     8
 73
     4
 74
     0
 42
0.00000001
 43
0.00000001
 12
1.0
 22
0.0
 32
0.0
 13
1.0
 23
0.0
 33
0.0
 40
15.0
 40
15.0
 40
15.0
 40
15.0
 40
16.0
 40
16.0
 40
16.0
 40
16.0
 10
10.04452039679443
 20
-8.994455292890276
 30
0.0
 10
9.885012475827358
 20
-9.087472870992023
 30
0.0
 10
9.850906030523385
 20
-9.226310219047589
 30
0.0
 10
9.79922959824464
 20
-9.469189450757703
 30
0.0
  0
SPLINE
  5
7C
330
47
100
AcDbEntity
  8
LAYER_1
370
     0
100
AcDbSpline
210
0.0
220
0.0
230
1.0
 70
     8
 71
     3
 72
     8
 73
     4
 74
     0
 42
0.00000001
 43
0.00000001
 12
1.0
 22
0.0
 32
0.0
 13
1.0
 23
0.0
 33
0.0
 40
16.0
 40
16.0
 40
16.0
 40
16.0
 40
17.0
 40
17.0
 40
17.0
 40
17.0
 10
9.79922959824464
 20
-9.469189450757703
 30
0.0
 10
9.763056095649514
 20
-9.765123152940664
 30
0.0
 10
9.750653751902615
 20
-9.834025062645662
 30
0.0
 10
9.750653751902615
 20
-9.97217339160418
 30
0.0
  0
SPLINE
  5
7D
330
47
100
AcDbEntity
  8
LAYER_1
370
     0
100
AcDbSpline
210
0.0
220
0.0
230
1.0
 70
     8
 71
     3
 72
     8
 73
     4
 74
     0
 42
0.00000001
 43
0.00000001
 12
1.0
 22
0.0
 32
0.0
 13
1.0
 23
0.0
 33
0.0
 40
18.0
 40
18.0
 40
18.0
 40
18.0
 40
19.0
 40
19.0
 40
19.0
 40
19.0
 10
9.750653751902615
 20
-10.99984537485421
 30
0.0
 10
9.750653751902615
 20
-11.1376491942642
 30
0.0
 10
9.775802948944941
 20
-11.29577907703717
 30
0.0
 10
9.800952145987262
 20
-11.50592990163741
 30
0.0
  0
SPLINE
  5
7E
330
47
100
AcDbEntity
  8
LAYER_1
370
     0
100
AcDbSpline
210
0.0
220
0.0
230
1.0
 70
     8
 71
     3
 72
     8
 73
     4
 74
     0
 42
0.00000001
 43
0.00000001
 12
1.0
 22
0.0
 32
0.0
 13
1.0
 23
0.0
 33
0.0
 40
19.0
 40
19.0
 40
19.0
 40
19.0
 40
20.0
 40
20.0
 40
20.0
 40
20.0
 10
9.800952145987262
 20
-11.50592990163741
 30
0.0
 10
9.806464298763663
 20
-11.51350911170496
 30
0.0
 10
9.813354489734161
 20
-11.75948892935179
 30
0.0
 10
10.0262613907226
 20
-11.92244194580411
 30
0.0
  0
SPLINE
  5
7F
330
47
100
AcDbEntity
  8
LAYER_1
370
     0
100
AcDbSpline
210
0.0
220
0.0
230
1.0
 70
     8
 71
     3
 72
     8
 73
     4
 74
     0
 42
0.00000001
 43
0.00000001
 12
1.0
 22
0.0
 32
0.0
 13
1.0
 23
0.0
 33
0.0
 40
20.0
 40
20.0
 40
20.0
 40
20.0
 40
21.0
 40
21.0
 40
21.0
 40
21.0
 10
10.0262613907226
 20
-11.92244194580411
 30
0.0
 10
10.27534179430616
 20
-12.11295572613843
 30
0.0
 10
10.40281032726041
 20
-12.06885850392723
 30
0.0
 10
10.6894422716332
 20
-12.09986436329448
 30
0.0
  0
SPLINE
  5
80
330
47
100
AcDbEntity
  8
LAYER_1
370
     0
100
AcDbSpline
210
0.0
220
0.0
230
1.0
 70
     8
 71
     3
 72
     8
 73
     4
 74
     0
 42
0.00000001
 43
0.00000001
 12
1.0
 22
0.0
 32
0.0
 13
1.0
 23
0.0
 33
0.0
 40
21.0
 40
21.0
 40
21.0
 40
21.0
 40
22.0
 40
22.0
 40
22.0
 40
22.0
 10
10.6894422716332
 20
-12.09986436329448
 30
0.0
 10
11.06909179410773
 20
-12.14086099956895
 30
0.0
 10
11.59446885560833
 20
-12.16325412022308
 30
0.0
 10
12.251793074194
 20
-12.16325412022308
 30
0.0
  0
SPLINE
  5
81
330
47
100
AcDbEntity
  8
LAYER_1
370
     0
100
AcDbSpline
210
0.0
220
0.0
230
1.0
 70
     8
 71
     3
 72
     8
 73
     4
 74
     0
 42
0.00000001
 43
0.00000001
 12
1.0
 22
0.0
 32
0.0
 13
1.0
 23
0.0
 33
0.0
 40
3.0
 40
3.0
 40
3.0
 40
3.0
 40
4.0
 40
4.0
 40
4.0
 40
4.0
 10
40.1918619691187
 20
-12.1635986297716
 30
0.0
 10
40.84918618770437
 20
-12.1635986297716
 30
0.0
 10
41.40212401308697
 20
-12.1649766679657
 30
0.0
 10
41.77695040188215
 20
-12.12260199349713
 30
0.0
  0
SPLINE
  5
82
330
47
100
AcDbEntity
  8
LAYER_1
370
     0
100
AcDbSpline
210
0.0
220
0.0
230
1.0
 70
     8
 71
     3
 72
     8
 73
     4
 74
     0
 42
0.00000001
 43
0.00000001
 12
1.0
 22
0.0
 32
0.0
 13
1.0
 23
0.0
 33
0.0
 40
4.0
 40
4.0
 40
4.0
 40
4.0
 40
5.0
 40
5.0
 40
5.0
 40
5.0
 10
41.77695040188215
 20
-12.12260199349713
 30
0.0
 10
42.19794107017968
 20
-12.07574869489773
 30
0.0
 10
42.35572644340412
 20
-12.05094400740393
 30
0.0
 10
42.49215222462002
 20
-11.93243272271134
 30
0.0
  0
SPLINE
  5
83
330
47
100
AcDbEntity
  8
LAYER_1
370
     0
100
AcDbSpline
210
0.0
220
0.0
230
1.0
 70
     8
 71
     3
 72
     8
 73
     4
 74
     0
 42
0.00000001
 43
0.00000001
 12
1.0
 22
0.0
 32
0.0
 13
1.0
 23
0.0
 33
0.0
 40
5.0
 40
5.0
 40
5.0
 40
5.0
 40
6.0
 40
6.0
 40
6.0
 40
6.0
 10
42.49215222462002
 20
-11.93243272271134
 30
0.0
 10
42.62995604403001
 20
-11.81254339982464
 30
0.0
 10
42.60239528014802
 20
-11.16486544859767
 30
0.0
 10
42.62237683396246
 20
-11.14660644252585
 30
0.0
  0
SPLINE
  5
84
330
47
100
AcDbEntity
  8
LAYER_1
370
     0
100
AcDbSpline
210
0.0
220
0.0
230
1.0
 70
     8
 71
     2
 72
     6
 73
     3
 74
     0
 42
0.00000001
 43
0.00000001
 12
1.0
 22
0.0
 32
0.0
 13
1.0
 23
0.0
 33
0.0
 40
6.0
 40
6.0
 40
6.0
 40
7.0
 40
7.0
 40
7.0
 10
42.62237683396246
 20
-11.14660644252585
 30
0.0
 10
34.38618705737568
 20
-11.15108506665667
 30
0.0
 10
31.24770507031307
 20
-11.14660644252585
 30
0.0
  0
SPLINE
  5
85
330
47
100
AcDbEntity
  8
LAYER_1
370
     0
100
AcDbSpline
210
0.0
220
0.0
230
1.0
 70
     8
 71
     3
 72
     8
 73
     4
 74
     0
 42
0.00000001
 43
0.00000001
 12
1.0
 22
0.0
 32
0.0
 13
1.0
 23
0.0
 33
0.0
 40
7.0
 40
7.0
 40
7.0
 40
7.0
 40
8.0
 40
8.0
 40
8.0
 40
8.0
 10
31.24770507031307
 20
-11.14660644252585
 30
0.0
 10
28.10922308325047
 20
-11.14212781839502
 30
0.0
 10
26.62094183362254
 20
-10.13305935076535
 30
0.0
 10
26.62094183362254
 20
-7.816921656031881
 30
0.0
  0
SPLINE
  5
86
330
47
100
AcDbEntity
  8
LAYER_1
370
     0
100
AcDbSpline
210
0.0
220
0.0
230
1.0
 70
    24
 71
     2
 72
     6
 73
     3
 74
     0
 42
0.00000001
 43
0.00000001
 12
1.0
 22
0.0
 32
0.0
 13
1.0
 23
0.0
 33
0.0
 40
8.0
 40
8.0
 40
8.0
 40
9.0
 40
9.0
 40
9.0
 10
26.62094183362254
 20
-7.816921656031881
 30
0.0
 10
26.62094183362254
 20
-7.555266653927156
 30
0.0
 10
26.62094183362254
 20
-6.331396482792151
 30
0.0
  0
SPLINE
  5
87
330
47
100
AcDbEntity
  8
LAYER_1
370
     0
100
AcDbSpline
210
0.0
220
0.0
230
1.0
 70
     8
 71
     3
 72
     8
 73
     4
 74
     0
 42
0.00000001
 43
0.00000001
 12
1.0
 22
0.0
 32
0.0
 13
1.0
 23
0.0
 33
0.0
 40
11.0
 40
11.0
 40
11.0
 40
11.0
 40
12.0
 40
12.0
 40
12.0
 40
12.0
 10
29.09762097796865
 20
-7.846549477205031
 30
0.0
 10
29.09762097796865
 20
-8.008813474560297
 30
0.0
 10
29.11966958907425
 20
-7.856884763660778
 30
0.0
 10
29.16480033993102
 20
-8.027072480632121
 30
0.0
  0
SPLINE
  5
88
330
47
100
AcDbEntity
  8
LAYER_1
370
     0
100
AcDbSpline
210
0.0
220
0.0
230
1.0
 70
     8
 71
     3
 72
     8
 73
     4
 74
     0
 42
0.00000001
 43
0.00000001
 12
1.0
 22
0.0
 32
0.0
 13
1.0
 23
0.0
 33
0.0
 40
12.0
 40
12.0
 40
12.0
 40
12.0
 40
13.0
 40
13.0
 40
13.0
 40
13.0
 10
29.16480033993102
 20
-8.027072480632121
 30
0.0
 10
29.2044189380114
 20
-8.176589624691964
 30
0.0
 10
29.32568629909219
 20
-8.315426972747533
 30
0.0
 10
29.44523111243036
 20
-8.406032984009602
 30
0.0
  0
SPLINE
  5
89
330
47
100
AcDbEntity
  8
LAYER_1
370
     0
100
AcDbSpline
210
0.0
220
0.0
230
1.0
 70
     8
 71
     3
 72
     8
 73
     4
 74
     0
 42
0.00000001
 43
0.00000001
 12
1.0
 22
0.0
 32
0.0
 13
1.0
 23
0.0
 33
0.0
 40
13.0
 40
13.0
 40
13.0
 40
13.0
 40
14.0
 40
14.0
 40
14.0
 40
14.0
 10
29.44523111243036
 20
-8.406032984009602
 30
0.0
 10
29.61025118617383
 20
-8.530400931027122
 30
0.0
 10
29.73496364273987
 20
-8.55313856122977
 30
0.0
 10
30.01573892478773
 20
-8.59654676434392
 30
0.0
  0
SPLINE
  5
8A
330
47
100
AcDbEntity
  8
LAYER_1
370
     0
100
AcDbSpline
210
0.0
220
0.0
230
1.0
 70
     8
 71
     3
 72
     8
 73
     4
 74
     0
 42
0.00000001
 43
0.00000001
 12
1.0
 22
0.0
 32
0.0
 13
1.0
 23
0.0
 33
0.0
 40
14.0
 40
14.0
 40
14.0
 40
14.0
 40
15.0
 40
15.0
 40
15.0
 40
15.0
 10
30.01573892478773
 20
-8.59654676434392
 30
0.0
 10
30.32752006620284
 20
-8.645122610685942
 30
0.0
 10
30.73817544804463
 20
-8.66992729817974
 30
0.0
 10
31.2356472361147
 20
-8.66992729817974
 30
0.0
  0
SPLINE
  5
8B
330
47
100
AcDbEntity
  8
LAYER_1
370
     0
100
AcDbSpline
210
0.0
220
0.0
230
1.0
 70
     8
 71
     3
 72
     8
 73
     4
 74
     0
 42
0.00000001
 43
0.00000001
 12
1.0
 22
0.0
 32
0.0
 13
1.0
 23
0.0
 33
0.0
 40
19.0
 40
19.0
 40
19.0
 40
19.0
 40
20.0
 40
20.0
 40
20.0
 40
20.0
 10
45.17002494530472
 20
-11.28544379058142
 30
0.0
 10
45.17002494530472
 20
-11.84423827828894
 30
0.0
 10
45.06150443751935
 20
-12.68174099075318
 30
0.0
 10
44.84790851743386
 20
-13.07379285697461
 30
0.0
  0
SPLINE
  5
8C
330
47
100
AcDbEntity
  8
LAYER_1
370
     0
100
AcDbSpline
210
0.0
220
0.0
230
1.0
 70
     8
 71
     3
 72
     8
 73
     4
 74
     0
 42
0.00000001
 43
0.00000001
 12
1.0
 22
0.0
 32
0.0
 13
1.0
 23
0.0
 33
0.0
 40
20.0
 40
20.0
 40
20.0
 40
20.0
 40
21.0
 40
21.0
 40
21.0
 40
21.0
 10
44.84790851743386
 20
-13.07379285697461
 30
0.0
 10
44.62673338728082
 20
-13.47996961468556
 30
0.0
 10
44.28635795333813
 20
-13.8072536857843
 30
0.0
 10
43.83608397341598
 20
-14.04772135065474
 30
0.0
  0
SPLINE
  5
8D
330
47
100
AcDbEntity
  8
LAYER_1
370
     0
100
AcDbSpline
210
0.0
220
0.0
230
1.0
 70
     8
 71
     3
 72
     8
 73
     4
 74
     0
 42
0.00000001
 43
0.00000001
 12
1.0
 22
0.0
 32
0.0
 13
1.0
 23
0.0
 33
0.0
 40
21.0
 40
21.0
 40
21.0
 40
21.0
 40
22.0
 40
22.0
 40
22.0
 40
22.0
 10
43.83608397341598
 20
-14.04772135065474
 30
0.0
 10
43.42198349608895
 20
-14.26889648080778
 30
0.0
 10
42.89936251097655
 20
-14.42530381583812
 30
0.0
 10
42.28200140001978
 20
-14.51418727935756
 30
0.0
  0
SPLINE
  5
8E
330
47
100
AcDbEntity
  8
LAYER_1
370
     0
100
AcDbSpline
210
0.0
220
0.0
230
1.0
 70
     8
 71
     3
 72
     8
 73
     4
 74
     0
 42
0.00000001
 43
0.00000001
 12
1.0
 22
0.0
 32
0.0
 13
1.0
 23
0.0
 33
0.0
 40
22.0
 40
22.0
 40
22.0
 40
22.0
 40
23.0
 40
23.0
 40
23.0
 40
23.0
 10
42.28200140001978
 20
-14.51418727935756
 30
0.0
 10
41.6990912439155
 20
-14.59824760919766
 30
0.0
 10
40.99594725537602
 20
-14.64027777411771
 30
0.0
 10
40.1918619691187
 20
-14.64027777411771
 30
0.0
  0
SPLINE
  5
8F
330
47
100
AcDbEntity
  8
LAYER_1
370
     0
100
AcDbSpline
210
0.0
220
0.0
230
1.0
 70
     8
 71
     3
 72
     8
 73
     4
 74
     0
 42
0.00000001
 43
0.00000001
 12
1.0
 22
0.0
 32
0.0
 13
1.0
 23
0.0
 33
0.0
 40
1.0
 40
1.0
 40
1.0
 40
1.0
 40
2.0
 40
2.0
 40
2.0
 40
2.0
 10
51.2983330492414
 20
-14.64027777411771
 30
0.0
 10
50.49218070569293
 20
-14.64027777411771
 30
0.0
 10
49.78869220760491
 20
-14.59790309964914
 30
0.0
 10
49.20784910879179
 20
-14.51418727935756
 30
0.0
  0
SPLINE
  5
90
330
47
100
AcDbEntity
  8
LAYER_1
370
     0
100
AcDbSpline
210
0.0
220
0.0
230
1.0
 70
     8
 71
     3
 72
     8
 73
     4
 74
     0
 42
0.00000001
 43
0.00000001
 12
1.0
 22
0.0
 32
0.0
 13
1.0
 23
0.0
 33
0.0
 40
2.0
 40
2.0
 40
2.0
 40
2.0
 40
3.0
 40
3.0
 40
3.0
 40
3.0
 10
49.20784910879179
 20
-14.51418727935756
 30
0.0
 10
48.59117701693207
 20
-14.42564832538664
 30
0.0
 10
48.06821152227114
 20
-14.26820746171073
 30
0.0
 10
47.65411104494412
 20
-14.04737684110621
 30
0.0
  0
SPLINE
  5
91
330
47
100
AcDbEntity
  8
LAYER_1
370
     0
100
AcDbSpline
210
0.0
220
0.0
230
1.0
 70
     8
 71
     3
 72
     8
 73
     4
 74
     0
 42
0.00000001
 43
0.00000001
 12
1.0
 22
0.0
 32
0.0
 13
1.0
 23
0.0
 33
0.0
 40
3.0
 40
3.0
 40
3.0
 40
3.0
 40
4.0
 40
4.0
 40
4.0
 40
4.0
 10
47.65411104494412
 20
-14.04737684110621
 30
0.0
 10
47.20366481024769
 20
-13.8072536857843
 30
0.0
 10
46.8629448667565
 20
-13.47962510513704
 30
0.0
 10
46.64176973660345
 20
-13.07344834742608
 30
0.0
  0
SPLINE
  5
92
330
47
100
AcDbEntity
  8
LAYER_1
370
     0
100
AcDbSpline
210
0.0
220
0.0
230
1.0
 70
     8
 71
     3
 72
     8
 73
     4
 74
     0
 42
0.00000001
 43
0.00000001
 12
1.0
 22
0.0
 32
0.0
 13
1.0
 23
0.0
 33
0.0
 40
4.0
 40
4.0
 40
4.0
 40
4.0
 40
5.0
 40
5.0
 40
5.0
 40
5.0
 10
46.64176973660345
 20
-13.07344834742608
 30
0.0
 10
46.42851832606648
 20
-12.68139648120465
 30
0.0
 10
46.31999781828112
 20
-12.19839409417262
 30
0.0
 10
46.31999781828112
 20
-11.638221568271
 30
0.0
  0
SPLINE
  5
93
330
47
100
AcDbEntity
  8
LAYER_1
370
     0
100
AcDbSpline
210
0.0
220
0.0
230
1.0
 70
     8
 71
     3
 72
     8
 73
     4
 74
     0
 42
0.00000001
 43
0.00000001
 12
1.0
 22
0.0
 32
0.0
 13
1.0
 23
0.0
 33
0.0
 40
6.0
 40
6.0
 40
6.0
 40
6.0
 40
7.0
 40
7.0
 40
7.0
 40
7.0
 10
46.31999781828112
 20
-9.33345268863886
 30
0.0
 10
46.31999781828112
 20
-8.773280162737237
 30
0.0
 10
46.42851832606648
 20
-8.290277775705208
 30
0.0
 10
46.64211424615198
 20
-7.897881399935252
 30
0.0
  0
SPLINE
  5
94
330
47
100
AcDbEntity
  8
LAYER_1
370
     0
100
AcDbSpline
210
0.0
220
0.0
230
1.0
 70
     8
 71
     3
 72
     8
 73
     4
 74
     0
 42
0.00000001
 43
0.00000001
 12
1.0
 22
0.0
 32
0.0
 13
1.0
 23
0.0
 33
0.0
 40
7.0
 40
7.0
 40
7.0
 40
7.0
 40
8.0
 40
8.0
 40
8.0
 40
8.0
 10
46.64211424615198
 20
-7.897881399935252
 30
0.0
 10
46.8629448667565
 20
-7.492049151772822
 30
0.0
 10
47.20366481024769
 20
-7.164420571125562
 30
0.0
 10
47.65411104494412
 20
-6.923952906255123
 30
0.0
  0
SPLINE
  5
95
330
47
100
AcDbEntity
  8
LAYER_1
370
     0
100
AcDbSpline
210
0.0
220
0.0
230
1.0
 70
     8
 71
     3
 72
     8
 73
     4
 74
     0
 42
0.00000001
 43
0.00000001
 12
1.0
 22
0.0
 32
0.0
 13
1.0
 23
0.0
 33
0.0
 40
8.0
 40
8.0
 40
8.0
 40
8.0
 40
9.0
 40
9.0
 40
9.0
 40
9.0
 10
47.65411104494412
 20
-6.923952906255123
 30
0.0
 10
48.06821152227114
 20
-6.703466795199134
 30
0.0
 10
48.59117701693207
 20
-6.546025931523217
 30
0.0
 10
49.20853812788884
 20
-6.457486977552295
 30
0.0
  0
SPLINE
  5
96
330
47
100
AcDbEntity
  8
LAYER_1
370
     0
100
AcDbSpline
210
0.0
220
0.0
230
1.0
 70
     8
 71
     3
 72
     8
 73
     4
 74
     0
 42
0.00000001
 43
0.00000001
 12
1.0
 22
0.0
 32
0.0
 13
1.0
 23
0.0
 33
0.0
 40
9.0
 40
9.0
 40
9.0
 40
9.0
 40
10.0
 40
10.0
 40
10.0
 40
10.0
 10
49.20853812788884
 20
-6.457486977552295
 30
0.0
 10
49.79144828399311
 20
-6.373771157260724
 30
0.0
 10
50.49493678208113
 20
-6.331396482792151
 30
0.0
 10
51.2983330492414
 20
-6.331396482792151
 30
0.0
  0
SPLINE
  5
97
330
47
100
AcDbEntity
  8
LAYER_1
370
     0
100
AcDbSpline
210
0.0
220
0.0
230
1.0
 70
     8
 71
     3
 72
     8
 73
     4
 74
     0
 42
0.00000001
 43
0.00000001
 12
1.0
 22
0.0
 32
0.0
 13
1.0
 23
0.0
 33
0.0
 40
13.0
 40
13.0
 40
13.0
 40
13.0
 40
14.0
 40
14.0
 40
14.0
 40
14.0
 10
51.2983330492414
 20
-8.808420136686784
 30
0.0
 10
50.64031981155867
 20
-8.808420136686784
 30
0.0
 10
50.09392766759806
 20
-8.792572697454634
 30
0.0
 10
49.71496716422057
 20
-8.834947371923208
 30
0.0
  0
SPLINE
  5
98
330
47
100
AcDbEntity
  8
LAYER_1
370
     0
100
AcDbSpline
210
0.0
220
0.0
230
1.0
 70
     8
 71
     3
 72
     8
 73
     4
 74
     0
 42
0.00000001
 43
0.00000001
 12
1.0
 22
0.0
 32
0.0
 13
1.0
 23
0.0
 33
0.0
 40
14.0
 40
14.0
 40
14.0
 40
14.0
 40
15.0
 40
15.0
 40
15.0
 40
15.0
 10
49.71496716422057
 20
-8.834947371923208
 30
0.0
 10
49.28846434314665
 20
-8.88214518007113
 30
0.0
 10
49.19269068865669
 20
-8.935199650543979
 30
0.0
 10
49.09071586229329
 20
-8.994455292890276
 30
0.0
  0
SPLINE
  5
99
330
47
100
AcDbEntity
  8
LAYER_1
370
     0
100
AcDbSpline
210
0.0
220
0.0
230
1.0
 70
     8
 71
     3
 72
     8
 73
     4
 74
     0
 42
0.00000001
 43
0.00000001
 12
1.0
 22
0.0
 32
0.0
 13
1.0
 23
0.0
 33
0.0
 40
15.0
 40
15.0
 40
15.0
 40
15.0
 40
16.0
 40
16.0
 40
16.0
 40
16.0
 10
49.09071586229329
 20
-8.994455292890276
 30
0.0
 10
48.93155245087475
 20
-9.087472870992023
 30
0.0
 10
48.8977905151193
 20
-9.226310219047589
 30
0.0
 10
48.84611408284056
 20
-9.469189450757703
 30
0.0
  0
SPLINE
  5
9A
330
47
100
AcDbEntity
  8
LAYER_1
370
     0
100
AcDbSpline
210
0.0
220
0.0
230
1.0
 70
     8
 71
     3
 72
     8
 73
     4
 74
     0
 42
0.00000001
 43
0.00000001
 12
1.0
 22
0.0
 32
0.0
 13
1.0
 23
0.0
 33
0.0
 40
16.0
 40
16.0
 40
16.0
 40
16.0
 40
17.0
 40
17.0
 40
17.0
 40
17.0
 10
48.84611408284056
 20
-9.469189450757703
 30
0.0
 10
48.80959607069691
 20
-9.765123152940664
 30
0.0
 10
48.79719372695001
 20
-9.834025062645662
 30
0.0
 10
48.79719372695001
 20
-9.97217339160418
 30
0.0
  0
SPLINE
  5
9B
330
47
100
AcDbEntity
  8
LAYER_1
370
     0
100
AcDbSpline
210
0.0
220
0.0
230
1.0
 70
     8
 71
     3
 72
     8
 73
     4
 74
     0
 42
0.00000001
 43
0.00000001
 12
1.0
 22
0.0
 32
0.0
 13
1.0
 23
0.0
 33
0.0
 40
18.0
 40
18.0
 40
18.0
 40
18.0
 40
19.0
 40
19.0
 40
19.0
 40
19.0
 10
48.79719372695001
 20
-10.64706759716462
 30
0.0
 10
48.79719372695001
 20
-10.78487141657462
 30
0.0
 10
48.82199841444381
 20
-11.29577907703717
 30
0.0
 10
48.84749212103466
 20
-11.50592990163741
 30
0.0
  0
SPLINE
  5
9C
330
47
100
AcDbEntity
  8
LAYER_1
370
     0
100
AcDbSpline
210
0.0
220
0.0
230
1.0
 70
     8
 71
     3
 72
     8
 73
     4
 74
     0
 42
0.00000001
 43
0.00000001
 12
1.0
 22
0.0
 32
0.0
 13
1.0
 23
0.0
 33
0.0
 40
19.0
 40
19.0
 40
19.0
 40
19.0
 40
20.0
 40
20.0
 40
20.0
 40
20.0
 10
48.84749212103466
 20
-11.50592990163741
 30
0.0
 10
48.85300427381106
 20
-11.51350911170496
 30
0.0
 10
48.85989446478155
 20
-11.75948892935179
 30
0.0
 10
49.07280136577
 20
-11.92244194580411
 30
0.0
  0
SPLINE
  5
9D
330
47
100
AcDbEntity
  8
LAYER_1
370
     0
100
AcDbSpline
210
0.0
220
0.0
230
1.0
 70
     8
 71
     3
 72
     8
 73
     4
 74
     0
 42
0.00000001
 43
0.00000001
 12
1.0
 22
0.0
 32
0.0
 13
1.0
 23
0.0
 33
0.0
 40
20.0
 40
20.0
 40
20.0
 40
20.0
 40
21.0
 40
21.0
 40
21.0
 40
21.0
 10
49.07280136577
 20
-11.92244194580411
 30
0.0
 10
49.32153725980503
 20
-12.11295572613843
 30
0.0
 10
49.44969481185633
 20
-12.06885850392723
 30
0.0
 10
49.73632675622912
 20
-12.09986436329448
 30
0.0
  0
SPLINE
  5
9E
330
47
100
AcDbEntity
  8
LAYER_1
370
     0
100
AcDbSpline
210
0.0
220
0.0
230
1.0
 70
     8
 71
     3
 72
     8
 73
     4
 74
     0
 42
0.00000001
 43
0.00000001
 12
1.0
 22
0.0
 32
0.0
 13
1.0
 23
0.0
 33
0.0
 40
21.0
 40
21.0
 40
21.0
 40
21.0
 40
22.0
 40
22.0
 40
22.0
 40
22.0
 10
49.73632675622912
 20
-12.09986436329448
 30
0.0
 10
50.1152872596066
 20
-12.14086099956895
 30
0.0
 10
50.64100883065572
 20
-12.16325412022308
 30
0.0
 10
51.2983330492414
 20
-12.16325412022308
 30
0.0
  0
ENDBLK
  5
49
330
47
100
AcDbEntity
  8
0
100
AcDbBlockEnd
  0
BLOCK
  5
AF
330
AE
100
AcDbEntity
  8
0
100
AcDbBlockBegin
  2
SW_NOTE_0
 70
     0
 10
0.0
 20
0.0
 30
0.0
  3
SW_NOTE_0
  1

  0
MTEXT
  5
B1
330
AE
100
AcDbEntity
  8
0
  6
Continuous
 62
     0
370
     0
100
AcDbMText
 10
0.0
 20
3.7517242343
 30
0.0
 40
2.9104166667
 41
0.0
 71
     1
 72
     1
  1
XR Project by Cycfi Research is licensed under
  7
SLDTEXTSTYLE0
 73
     1
 44
1.0
  0
MTEXT
  5
B2
330
AE
100
AcDbEntity
  8
0
  6
Continuous
 62
     0
370
     0
100
AcDbMText
 10
0.0
 20
-0.1288312744
 30
0.0
 40
2.9104166667
 41
0.0
 71
     1
 72
     1
  1
a Creative Commons Attribution-NonCommercial
  7
SLDTEXTSTYLE0
 73
     1
 44
1.0
  0
MTEXT
  5
B3
330
AE
100
AcDbEntity
  8
0
  6
Continuous
 62
     0
370
     0
100
AcDbMText
 10
0.0
 20
-4.009386783
 30
0.0
 40
2.9104166667
 41
0.0
 71
     1
 72
     1
  1
4.0 International License.
  7
SLDTEXTSTYLE0
 73
     1
 44
1.0
  0
MTEXT
  5
B4
330
AE
100
AcDbEntity
  8
0
  6
Continuous
 62
     0
370
     0
100
AcDbMText
 10
0.0
 20
-7.8899422917
 30
0.0
 40
2.9104166667
 41
0.0
 71
     1
 72
     1
  1
http://creativecommons.org/licenses/by-nc/4.0/
  7
SLDTEXTSTYLE0
 73
     1
 44
1.0
  0
MTEXT
  5
B5
330
AE
100
AcDbEntity
  8
0
  6
Continuous
 62
     0
370
     0
100
AcDbMText
 10
0.0
 20
-15.651053309
 30
0.0
 40
2.9104166667
 41
0.0
 71
     1
 72
     1
  1
Copyright CYCFI Research Inc. 2013-2016
  7
SLDTEXTSTYLE0
 73
     1
 44
1.0
  0
ENDBLK
  5
B0
330
AE
100
AcDbEntity
  8
0
100
AcDbBlockEnd
  0
BLOCK
  5
B9
330
B8
100
AcDbEntity
  8
0
100
AcDbBlockBegin
  2
SW_NOTE_1
 70
     0
 10
0.0
 20
0.0
 30
0.0
  3
SW_NOTE_1
  1

  0
MTEXT
  5
BB
330
B8
100
AcDbEntity
  8
0
  6
Continuous
 62
     0
370
     0
100
AcDbMText
 10
11.757421875
 20
6.1391851107
 30
0.0
 40
4.7625
 41
0.0
 71
     2
 72
     1
  1
XR Dual
  7
SLDTEXTSTYLE0
 73
     1
 44
1.0
  0
MTEXT
  5
BC
330
B8
100
AcDbEntity
  8
0
  6
Continuous
 62
     0
370
     0
100
AcDbMText
 10
12.7810291663
 20
-0.2108148126
 30
0.0
 40
4.7625
 41
0.0
 71
     2
 72
     1
  1
mounting base
  7
SLDTEXTSTYLE0
 73
     1
 44
1.0
  0
ENDBLK
  5
BA
330
B8
100
AcDbEntity
  8
0
100
AcDbBlockEnd
  0
BLOCK
  5
15B
330
15A
100
AcDbEntity
  8
0
100
AcDbBlockBegin
  2
_D
 70
     0
 10
0.0
 20
0.0
 30
0.0
  3
_D
  1

  0
SOLID
  5
15D
330
15A
100
AcDbEntity
  8
SLD-0
100
AcDbTrace
 10
61.0802737892
 20
262.6974732708
 30
0.0
 11
64.3822737892
 21
262.1894732708
 31
0.0
 12
64.3822737892
 22
263.2054732708
 32
0.0
 13
64.3822737892
 23
263.2054732708
 33
0.0
  0
SOLID
  5
15E
330
15A
100
AcDbEntity
  8
SLD-0
100
AcDbTrace
 10
158.4802737892
 20
262.6974732708
 30
0.0
 11
155.1782737892
 21
263.2054732708
 31
0.0
 12
155.1782737892
 22
262.1894732708
 32
0.0
 13
155.1782737892
 23
262.1894732708
 33
0.0
  0
LINE
  5
15F
330
15A
100
AcDbEntity
  8
SLD-0
100
AcDbLine
 10
61.0802737892
 20
253.6974732708
 30
0.0
 11
61.0802737892
 21
263.6974732708
 31
0.0
  0
LINE
  5
160
330
15A
100
AcDbEntity
  8
SLD-0
100
AcDbLine
 10
158.4802737892
 20
253.6974732708
 30
0.0
 11
158.4802737892
 21
263.6974732708
 31
0.0
  0
LINE
  5
161
330
15A
100
AcDbEntity
  8
SLD-0
100
AcDbLine
 10
61.0802737892
 20
262.6974732708
 30
0.0
 11
158.4802737892
 21
262.6974732708
 31
0.0
  0
MTEXT
  5
162
330
15A
100
AcDbEntity
  8
SLD-0
100
AcDbMText
 10
99.2580205768
 20
267.2092101854
 30
0.1
 40
3.5
 41
0.0
 71
     1
 72
     1
  1
97.40
  7
SLDTEXTSTYLE0
 73
     1
 44
1.0
  0
MTEXT
  5
163
330
15A
100
AcDbEntity
  8
SLD-0
100
AcDbMText
 10
115.0517707735
 20
267.2092101854
 30
0.1
 40
3.5
 41
0.0
 71
     1
 72
     1
  1
mm
  7
SLDTEXTSTYLE0
 73
     1
 44
1.0
  0
ENDBLK
  5
15C
330
15A
100
AcDbEntity
  8
0
100
AcDbBlockEnd
  0
BLOCK
  5
166
330
165
100
AcDbEntity
  8
0
100
AcDbBlockBegin
  2
_D_1
 70
     0
 10
0.0
 20
0.0
 30
0.0
  3
_D_1
  1

  0
SOLID
  5
168
330
165
100
AcDbEntity
  8
SLD-0
100
AcDbTrace
 10
58.1302737892
 20
224.4548099115
 30
0.0
 11
61.4322737892
 21
223.9468099115
 31
0.0
 12
61.4322737892
 22
224.9628099115
 32
0.0
 13
61.4322737892
 23
224.9628099115
 33
0.0
  0
SOLID
  5
169
330
165
100
AcDbEntity
  8
SLD-0
100
AcDbTrace
 10
161.4302737892
 20
224.4548099115
 30
0.0
 11
158.1282737892
 21
224.9628099115
 31
0.0
 12
158.1282737892
 22
223.9468099115
 32
0.0
 13
158.1282737892
 23
223.9468099115
 33
0.0
  0
LINE
  5
16A
330
165
100
AcDbEntity
  8
SLD-0
100
AcDbLine
 10
58.1302737892
 20
231.0970707546
 30
0.0
 11
58.1302737892
 21
223.4548099115
 31
0.0
  0
LINE
  5
16B
330
165
100
AcDbEntity
  8
SLD-0
100
AcDbLine
 10
161.4302737892
 20
231.0970707546
 30
0.0
 11
161.4302737892
 21
223.4548099115
 31
0.0
  0
LINE
  5
16C
330
165
100
AcDbEntity
  8
SLD-0
100
AcDbLine
 10
58.1302737892
 20
224.4548099115
 30
0.0
 11
161.4302737892
 21
224.4548099115
 31
0.0
  0
MTEXT
  5
16D
330
165
100
AcDbEntity
  8
SLD-0
100
AcDbMText
 10
97.9649648637
 20
228.9665468261
 30
0.1
 40
3.5
 41
0.0
 71
     1
 72
     1
  1
103.30
  7
SLDTEXTSTYLE0
 73
     1
 44
1.0
  0
MTEXT
  5
16E
330
165
100
AcDbEntity
  8
SLD-0
100
AcDbMText
 10
116.3448264867
 20
228.9665468261
 30
0.1
 40
3.5
 41
0.0
 71
     1
 72
     1
  1
mm
  7
SLDTEXTSTYLE0
 73
     1
 44
1.0
  0
ENDBLK
  5
167
330
165
100
AcDbEntity
  8
0
100
AcDbBlockEnd
  0
BLOCK
  5
171
330
170
100
AcDbEntity
  8
0
100
AcDbBlockBegin
  2
_D_2
 70
     0
 10
0.0
 20
0.0
 30
0.0
  3
_D_2
  1

  0
SOLID
  5
173
330
170
100
AcDbEntity
  8
SLD-0
100
AcDbTrace
 10
66.1802737892
 20
191.6856853116
 30
0.0
 11
69.4822737892
 21
191.1776853116
 31
0.0
 12
69.4822737892
 22
192.1936853116
 32
0.0
 13
69.4822737892
 23
192.1936853116
 33
0.0
  0
SOLID
  5
174
330
170
100
AcDbEntity
  8
SLD-0
100
AcDbTrace
 10
153.3802737892
 20
191.6856853116
 30
0.0
 11
150.0782737892
 21
192.1936853116
 31
0.0
 12
150.0782737892
 22
191.1776853116
 32
0.0
 13
150.0782737892
 23
191.1776853116
 33
0.0
  0
LINE
  5
175
330
170
100
AcDbEntity
  8
SLD-0
100
AcDbLine
 10
66.1802737892
 20
185.7849225997
 30
0.0
 11
66.1802737892
 21
192.6856853116
 31
0.0
  0
LINE
  5
176
330
170
100
AcDbEntity
  8
SLD-0
100
AcDbLine
 10
153.3802737892
 20
185.7849225997
 30
0.0
 11
153.3802737892
 21
192.6856853116
 31
0.0
  0
LINE
  5
177
330
170
100
AcDbEntity
  8
SLD-0
100
AcDbLine
 10
66.1802737892
 20
191.6856853116
 30
0.0
 11
153.3802737892
 21
191.6856853116
 31
0.0
  0
MTEXT
  5
178
330
170
100
AcDbEntity
  8
SLD-0
100
AcDbMText
 10
99.2580205768
 20
196.1974222262
 30
0.1
 40
3.5
 41
0.0
 71
     1
 72
     1
  1
87.20
  7
SLDTEXTSTYLE0
 73
     1
 44
1.0
  0
MTEXT
  5
179
330
170
100
AcDbEntity
  8
SLD-0
100
AcDbMText
 10
115.0517707735
 20
196.1974222262
 30
0.1
 40
3.5
 41
0.0
 71
     1
 72
     1
  1
mm
  7
SLDTEXTSTYLE0
 73
     1
 44
1.0
  0
ENDBLK
  5
172
330
170
100
AcDbEntity
  8
0
100
AcDbBlockEnd
  0
BLOCK
  5
17C
330
17B
100
AcDbEntity
  8
0
100
AcDbBlockBegin
  2
_D_3
 70
     0
 10
0.0
 20
0.0
 30
0.0
  3
_D_3
  1

  0
SOLID
  5
17E
330
17B
100
AcDbEntity
  8
SLD-0
100
AcDbTrace
 10
63.2302737892
 20
156.1111347855
 30
0.0
 11
66.5322737892
 21
155.6031347855
 31
0.0
 12
66.5322737892
 22
156.6191347855
 32
0.0
 13
66.5322737892
 23
156.6191347855
 33
0.0
  0
SOLID
  5
17F
330
17B
100
AcDbEntity
  8
SLD-0
100
AcDbTrace
 10
156.3302737892
 20
156.1111347855
 30
0.0
 11
153.0282737892
 21
156.6191347855
 31
0.0
 12
153.0282737892
 22
155.6031347855
 32
0.0
 13
153.0282737892
 23
155.6031347855
 33
0.0
  0
LINE
  5
180
330
17B
100
AcDbEntity
  8
SLD-0
100
AcDbLine
 10
63.2302737892
 20
163.110152939
 30
0.0
 11
63.2302737892
 21
155.1111347855
 31
0.0
  0
LINE
  5
181
330
17B
100
AcDbEntity
  8
SLD-0
100
AcDbLine
 10
156.3302737892
 20
163.110152939
 30
0.0
 11
156.3302737892
 21
155.1111347855
 31
0.0
  0
LINE
  5
182
330
17B
100
AcDbEntity
  8
SLD-0
100
AcDbLine
 10
63.2302737892
 20
156.1111347855
 30
0.0
 11
156.3302737892
 21
156.1111347855
 31
0.0
  0
MTEXT
  5
183
330
17B
100
AcDbEntity
  8
SLD-0
100
AcDbMText
 10
99.2580205768
 20
160.6228717001
 30
0.1
 40
3.5
 41
0.0
 71
     1
 72
     1
  1
93.10
  7
SLDTEXTSTYLE0
 73
     1
 44
1.0
  0
MTEXT
  5
184
330
17B
100
AcDbEntity
  8
SLD-0
100
AcDbMText
 10
115.0517707735
 20
160.6228717001
 30
0.1
 40
3.5
 41
0.0
 71
     1
 72
     1
  1
mm
  7
SLDTEXTSTYLE0
 73
     1
 44
1.0
  0
ENDBLK
  5
17D
330
17B
100
AcDbEntity
  8
0
100
AcDbBlockEnd
  0
BLOCK
  5
188
330
187
100
AcDbEntity
  8
0
100
AcDbBlockBegin
  2
_D_4
 70
     0
 10
0.0
 20
0.0
 30
0.0
  3
_D_4
  1

  0
SOLID
  5
18A
330
187
100
AcDbEntity
  8
SLD-0
100
AcDbTrace
 10
71.2802737892
 20
122.2783342335
 30
0.0
 11
74.5822737892
 21
121.7703342335
 31
0.0
 12
74.5822737892
 22
122.7863342335
 32
0.0
 13
74.5822737892
 23
122.7863342335
 33
0.0
  0
SOLID
  5
18B
330
187
100
AcDbEntity
  8
SLD-0
100
AcDbTrace
 10
148.2802737892
 20
122.2783342335
 30
0.0
 11
144.9782737892
 21
122.7863342335
 31
0.0
 12
144.9782737892
 22
121.7703342335
 32
0.0
 13
144.9782737892
 23
121.7703342335
 33
0.0
  0
LINE
  5
18C
330
187
100
AcDbEntity
  8
SLD-0
100
AcDbLine
 10
71.2802737892
 20
117.6974732708
 30
0.0
 11
71.2802737892
 21
123.2783342335
 31
0.0
  0
LINE
  5
18D
330
187
100
AcDbEntity
  8
SLD-0
100
AcDbLine
 10
148.2802737892
 20
117.6974732708
 30
0.0
 11
148.2802737892
 21
123.2783342335
 31
0.0
  0
LINE
  5
18E
330
187
100
AcDbEntity
  8
SLD-0
100
AcDbLine
 10
71.2802737892
 20
122.2783342335
 30
0.0
 11
148.2802737892
 21
122.2783342335
 31
0.0
  0
MTEXT
  5
18F
330
187
100
AcDbEntity
  8
SLD-0
100
AcDbMText
 10
99.598097578
 20
126.7900711481
 30
0.1
 40
3.5
 41
0.0
 71
     1
 72
     1
  1
77
  7
SLDTEXTSTYLE0
 73
     1
 44
1.0
  0
MTEXT
  5
190
330
187
100
AcDbEntity
  8
SLD-0
100
AcDbMText
 10
108.9265701401
 20
126.7900711481
 30
0.1
 40
3.5
 41
0.0
 71
     1
 72
     1
  1
mm
  7
SLDTEXTSTYLE0
 73
     1
 44
1.0
  0
ENDBLK
  5
189
330
187
100
AcDbEntity
  8
0
100
AcDbBlockEnd
  0
BLOCK
  5
193
330
192
100
AcDbEntity
  8
0
100
AcDbBlockBegin
  2
_D_5
 70
     0
 10
0.0
 20
0.0
 30
0.0
  3
_D_5
  1

  0
SOLID
  5
195
330
192
100
AcDbEntity
  8
SLD-0
100
AcDbTrace
 10
68.3302737892
 20
86.1685468914
 30
0.0
 11
71.6322737892
 21
85.6605468914
 31
0.0
 12
71.6322737892
 22
86.6765468914
 32
0.0
 13
71.6322737892
 23
86.6765468914
 33
0.0
  0
SOLID
  5
196
330
192
100
AcDbEntity
  8
SLD-0
100
AcDbTrace
 10
151.2302737892
 20
86.1685468914
 30
0.0
 11
147.9282737892
 21
86.6765468914
 31
0.0
 12
147.9282737892
 22
85.6605468914
 32
0.0
 13
147.9282737892
 23
85.6605468914
 33
0.0
  0
LINE
  5
197
330
192
100
AcDbEntity
  8
SLD-0
100
AcDbLine
 10
68.3302737892
 20
95.7250544096
 30
0.0
 11
68.3302737892
 21
85.1685468914
 31
0.0
  0
LINE
  5
198
330
192
100
AcDbEntity
  8
SLD-0
100
AcDbLine
 10
151.2302737892
 20
95.7250544096
 30
0.0
 11
151.2302737892
 21
85.1685468914
 31
0.0
  0
LINE
  5
199
330
192
100
AcDbEntity
  8
SLD-0
100
AcDbLine
 10
68.3302737892
 20
86.1685468914
 30
0.0
 11
151.2302737892
 21
86.1685468914
 31
0.0
  0
MTEXT
  5
19A
330
192
100
AcDbEntity
  8
SLD-0
100
AcDbMText
 10
99.2580205768
 20
90.680283806
 30
0.1
 40
3.5
 41
0.0
 71
     1
 72
     1
  1
82.90
  7
SLDTEXTSTYLE0
 73
     1
 44
1.0
  0
MTEXT
  5
19B
330
192
100
AcDbEntity
  8
SLD-0
100
AcDbMText
 10
115.0517707735
 20
90.680283806
 30
0.1
 40
3.5
 41
0.0
 71
     1
 72
     1
  1
mm
  7
SLDTEXTSTYLE0
 73
     1
 44
1.0
  0
ENDBLK
  5
194
330
192
100
AcDbEntity
  8
0
100
AcDbBlockEnd
  0
BLOCK
  5
19F
330
19E
100
AcDbEntity
  8
0
100
AcDbBlockBegin
  2
_D_6
 70
     0
 10
0.0
 20
0.0
 30
0.0
  3
_D_6
  1

  0
SOLID
  5
1A1
330
19E
100
AcDbEntity
  8
SLD-0
100
AcDbTrace
 10
48.1302737892
 20
245.1974732708
 30
0.0
 11
48.6382737892
 21
248.4994732708
 31
0.0
 12
47.6222737892
 22
248.4994732708
 32
0.0
 13
47.6222737892
 23
248.4994732708
 33
0.0
  0
SOLID
  5
1A2
330
19E
100
AcDbEntity
  8
SLD-0
100
AcDbTrace
 10
48.1302737892
 20
242.1974732708
 30
0.0
 11
47.6222737892
 21
238.8954732708
 31
0.0
 12
48.6382737892
 22
238.8954732708
 32
0.0
 13
48.6382737892
 23
238.8954732708
 33
0.0
  0
LINE
  5
1A3
330
19E
100
AcDbEntity
  8
SLD-0
100
AcDbLine
 10
60.0802737892
 20
245.1974732708
 30
0.0
 11
47.1302737892
 21
245.1974732708
 31
0.0
  0
LINE
  5
1A4
330
19E
100
AcDbEntity
  8
SLD-0
100
AcDbLine
 10
60.0802737892
 20
242.1974732708
 30
0.0
 11
47.1302737892
 21
242.1974732708
 31
0.0
  0
LINE
  5
1A5
330
19E
100
AcDbEntity
  8
SLD-0
100
AcDbLine
 10
48.1302737892
 20
245.1974732708
 30
0.0
 11
48.1302737892
 21
251.5474732708
 31
0.0
  0
LINE
  5
1A6
330
19E
100
AcDbEntity
  8
SLD-0
100
AcDbLine
 10
48.1302737892
 20
245.1974732708
 30
0.0
 11
48.1302737892
 21
242.1974732708
 31
0.0
  0
LINE
  5
1A7
330
19E
100
AcDbEntity
  8
SLD-0
100
AcDbLine
 10
48.1302737892
 20
242.1974732708
 30
0.0
 11
48.1302737892
 21
235.8474732708
 31
0.0
  0
MTEXT
  5
1A8
330
19E
100
AcDbEntity
  8
SLD-0
100
AcDbMText
 10
43.6185367
 20
237.9479404312
 30
-47.846140673
 40
3.5
 41
0.0
 71
     1
 72
     1
  1
%%c
  7
SLDTEXTSTYLE0
 11
-7.044195017643634E-15
 21
1.0
 31
0.0
 73
     1
 44
1.0
  0
MTEXT
  5
1A9
330
19E
100
AcDbEntity
  8
SLD-0
100
AcDbMText
 10
43.5650645233
 20
243.2263778296
 30
-47.846140673
 40
3.5
 41
0.0
 71
     1
 72
     1
  1
3
  7
SLDTEXTSTYLE0
 11
-7.044195017643634E-15
 21
1.0
 31
0.0
 73
     1
 44
1.0
  0
ENDBLK
  5
1A0
330
19E
100
AcDbEntity
  8
0
100
AcDbBlockEnd
  0
BLOCK
  5
1AC
330
1AB
100
AcDbEntity
  8
0
100
AcDbBlockBegin
  2
_D_7
 70
     0
 10
0.0
 20
0.0
 30
0.0
  3
_D_7
  1

  0
SOLID
  5
1AE
330
1AB
100
AcDbEntity
  8
SLD-0
100
AcDbTrace
 10
171.4302737892
 20
252.6974732708
 30
0.0
 11
171.9382737892
 21
255.9994732708
 31
0.0
 12
170.9222737892
 22
255.9994732708
 32
0.0
 13
170.9222737892
 23
255.9994732708
 33
0.0
  0
SOLID
  5
1AF
330
1AB
100
AcDbEntity
  8
SLD-0
100
AcDbTrace
 10
171.4302737892
 20
234.6974732708
 30
0.0
 11
170.9222737892
 21
231.3954732708
 31
0.0
 12
171.9382737892
 22
231.3954732708
 32
0.0
 13
171.9382737892
 23
231.3954732708
 33
0.0
  0
LINE
  5
1B0
330
1AB
100
AcDbEntity
  8
SLD-0
100
AcDbLine
 10
153.4302737892
 20
252.6974732708
 30
0.0
 11
172.4302737892
 21
252.6974732708
 31
0.0
  0
LINE
  5
1B1
330
1AB
100
AcDbEntity
  8
SLD-0
100
AcDbLine
 10
153.4302737892
 20
234.6974732708
 30
0.0
 11
172.4302737892
 21
234.6974732708
 31
0.0
  0
LINE
  5
1B2
330
1AB
100
AcDbEntity
  8
SLD-0
100
AcDbLine
 10
171.4302737892
 20
252.6974732708
 30
0.0
 11
171.4302737892
 21
259.0474732708
 31
0.0
  0
LINE
  5
1B3
330
1AB
100
AcDbEntity
  8
SLD-0
100
AcDbLine
 10
171.4302737892
 20
252.6974732708
 30
0.0
 11
171.4302737892
 21
234.6974732708
 31
0.0
  0
LINE
  5
1B4
330
1AB
100
AcDbEntity
  8
SLD-0
100
AcDbLine
 10
171.4302737892
 20
234.6974732708
 30
0.0
 11
171.4302737892
 21
228.3474732708
 31
0.0
  0
MTEXT
  5
1B5
330
1AB
100
AcDbEntity
  8
SLD-0
100
AcDbMText
 10
166.9185368746
 20
234.272575542
 30
-47.846140673
 40
3.5
 41
0.0
 71
     1
 72
     1
  1
18
  7
SLDTEXTSTYLE0
 11
-7.044195017643634E-15
 21
1.0
 31
0.0
 73
     1
 44
1.0
  0
MTEXT
  5
1B6
330
1AB
100
AcDbEntity
  8
SLD-0
100
AcDbMText
 10
166.9185368746
 20
243.6010481041
 30
-47.846140673
 40
3.5
 41
0.0
 71
     1
 72
     1
  1
mm
  7
SLDTEXTSTYLE0
 11
-7.044195017643634E-15
 21
1.0
 31
0.0
 73
     1
 44
1.0
  0
ENDBLK
  5
1AD
330
1AB
100
AcDbEntity
  8
0
100
AcDbBlockEnd
  0
BLOCK
  5
1B9
330
1B8
100
AcDbEntity
  8
0
100
AcDbBlockBegin
  2
_D_8
 70
     0
 10
0.0
 20
0.0
 30
0.0
  3
_D_8
  1

  0
SOLID
  5
1BB
330
1B8
100
AcDbEntity
  8
SLD-0
100
AcDbTrace
 10
169.7339141696
 20
184.6974732708
 30
0.0
 11
170.2419141696
 21
187.9994732708
 31
0.0
 12
169.2259141696
 22
187.9994732708
 32
0.0
 13
169.2259141696
 23
187.9994732708
 33
0.0
  0
SOLID
  5
1BC
330
1B8
100
AcDbEntity
  8
SLD-0
100
AcDbTrace
 10
169.7339141696
 20
166.6974732708
 30
0.0
 11
169.2259141696
 21
163.3954732708
 31
0.0
 12
170.2419141696
 22
163.3954732708
 32
0.0
 13
170.2419141696
 23
163.3954732708
 33
0.0
  0
LINE
  5
1BD
330
1B8
100
AcDbEntity
  8
SLD-0
100
AcDbLine
 10
148.3302737892
 20
184.6974732708
 30
0.0
 11
170.7339141696
 21
184.6974732708
 31
0.0
  0
LINE
  5
1BE
330
1B8
100
AcDbEntity
  8
SLD-0
100
AcDbLine
 10
148.3302737892
 20
166.6974732708
 30
0.0
 11
170.7339141696
 21
166.6974732708
 31
0.0
  0
LINE
  5
1BF
330
1B8
100
AcDbEntity
  8
SLD-0
100
AcDbLine
 10
169.7339141696
 20
184.6974732708
 30
0.0
 11
169.7339141696
 21
191.0474732708
 31
0.0
  0
LINE
  5
1C0
330
1B8
100
AcDbEntity
  8
SLD-0
100
AcDbLine
 10
169.7339141696
 20
184.6974732708
 30
0.0
 11
169.7339141696
 21
166.6974732708
 31
0.0
  0
LINE
  5
1C1
330
1B8
100
AcDbEntity
  8
SLD-0
100
AcDbLine
 10
169.7339141696
 20
166.6974732708
 30
0.0
 11
169.7339141696
 21
160.3474732708
 31
0.0
  0
MTEXT
  5
1C2
330
1B8
100
AcDbEntity
  8
SLD-0
100
AcDbMText
 10
165.222177255
 20
165.5273434013
 30
-47.846140673
 40
3.5
 41
0.0
 71
     1
 72
     1
  1
18
  7
SLDTEXTSTYLE0
 11
-7.044195017643634E-15
 21
1.0
 31
0.0
 73
     1
 44
1.0
  0
MTEXT
  5
1C3
330
1B8
100
AcDbEntity
  8
SLD-0
100
AcDbMText
 10
165.222177255
 20
174.8558159634
 30
-47.846140673
 40
3.5
 41
0.0
 71
     1
 72
     1
  1
mm
  7
SLDTEXTSTYLE0
 11
-7.044195017643634E-15
 21
1.0
 31
0.0
 73
     1
 44
1.0
  0
ENDBLK
  5
1BA
330
1B8
100
AcDbEntity
  8
0
100
AcDbBlockEnd
  0
BLOCK
  5
1C6
330
1C5
100
AcDbEntity
  8
0
100
AcDbBlockBegin
  2
_D_9
 70
     0
 10
0.0
 20
0.0
 30
0.0
  3
_D_9
  1

  0
SOLID
  5
1C8
330
1C5
100
AcDbEntity
  8
SLD-0
100
AcDbTrace
 10
54.6165883002
 20
177.1974732708
 30
0.0
 11
55.1245883002
 21
180.4994732708
 31
0.0
 12
54.1085883002
 22
180.4994732708
 32
0.0
 13
54.1085883002
 23
180.4994732708
 33
0.0
  0
SOLID
  5
1C9
330
1C5
100
AcDbEntity
  8
SLD-0
100
AcDbTrace
 10
54.6165883002
 20
174.1974732708
 30
0.0
 11
54.1085883002
 21
170.8954732708
 31
0.0
 12
55.1245883002
 22
170.8954732708
 32
0.0
 13
55.1245883002
 23
170.8954732708
 33
0.0
  0
LINE
  5
1CA
330
1C5
100
AcDbEntity
  8
SLD-0
100
AcDbLine
 10
65.1802737892
 20
177.1974732708
 30
0.0
 11
53.6165883002
 21
177.1974732708
 31
0.0
  0
LINE
  5
1CB
330
1C5
100
AcDbEntity
  8
SLD-0
100
AcDbLine
 10
65.1802737892
 20
174.1974732708
 30
0.0
 11
53.6165883002
 21
174.1974732708
 31
0.0
  0
LINE
  5
1CC
330
1C5
100
AcDbEntity
  8
SLD-0
100
AcDbLine
 10
54.6165883002
 20
177.1974732708
 30
0.0
 11
54.6165883002
 21
183.5474732708
 31
0.0
  0
LINE
  5
1CD
330
1C5
100
AcDbEntity
  8
SLD-0
100
AcDbLine
 10
54.6165883002
 20
177.1974732708
 30
0.0
 11
54.6165883002
 21
174.1974732708
 31
0.0
  0
LINE
  5
1CE
330
1C5
100
AcDbEntity
  8
SLD-0
100
AcDbLine
 10
54.6165883002
 20
174.1974732708
 30
0.0
 11
54.6165883002
 21
167.8474732708
 31
0.0
  0
MTEXT
  5
1CF
330
1C5
100
AcDbEntity
  8
SLD-0
100
AcDbMText
 10
50.104851211
 20
169.2027082905
 30
-47.846140673
 40
3.5
 41
0.0
 71
     1
 72
     1
  1
%%c
  7
SLDTEXTSTYLE0
 11
-7.044195017643634E-15
 21
1.0
 31
0.0
 73
     1
 44
1.0
  0
MTEXT
  5
1D0
330
1C5
100
AcDbEntity
  8
SLD-0
100
AcDbMText
 10
50.0513790344
 20
174.4811456888
 30
-47.846140673
 40
3.5
 41
0.0
 71
     1
 72
     1
  1
3
  7
SLDTEXTSTYLE0
 11
-7.044195017643634E-15
 21
1.0
 31
0.0
 73
     1
 44
1.0
  0
ENDBLK
  5
1C7
330
1C5
100
AcDbEntity
  8
0
100
AcDbBlockEnd
  0
BLOCK
  5
1D3
330
1D2
100
AcDbEntity
  8
0
100
AcDbBlockBegin
  2
_D_10
 70
     0
 10
0.0
 20
0.0
 30
0.0
  3
_D_10
  1

  0
SOLID
  5
1D5
330
1D2
100
AcDbEntity
  8
SLD-0
100
AcDbTrace
 10
59.5109905025
 20
109.1974732708
 30
0.0
 11
60.0189905025
 21
112.4994732708
 31
0.0
 12
59.0029905025
 22
112.4994732708
 32
0.0
 13
59.0029905025
 23
112.4994732708
 33
0.0
  0
SOLID
  5
1D6
330
1D2
100
AcDbEntity
  8
SLD-0
100
AcDbTrace
 10
59.5109905025
 20
106.1974732708
 30
0.0
 11
59.0029905025
 21
102.8954732708
 31
0.0
 12
60.0189905025
 22
102.8954732708
 32
0.0
 13
60.0189905025
 23
102.8954732708
 33
0.0
  0
LINE
  5
1D7
330
1D2
100
AcDbEntity
  8
SLD-0
100
AcDbLine
 10
70.2802737892
 20
109.1974732708
 30
0.0
 11
58.5109905025
 21
109.1974732708
 31
0.0
  0
LINE
  5
1D8
330
1D2
100
AcDbEntity
  8
SLD-0
100
AcDbLine
 10
70.2802737892
 20
106.1974732708
 30
0.0
 11
58.5109905025
 21
106.1974732708
 31
0.0
  0
LINE
  5
1D9
330
1D2
100
AcDbEntity
  8
SLD-0
100
AcDbLine
 10
59.5109905025
 20
109.1974732708
 30
0.0
 11
59.5109905025
 21
115.5474732708
 31
0.0
  0
LINE
  5
1DA
330
1D2
100
AcDbEntity
  8
SLD-0
100
AcDbLine
 10
59.5109905025
 20
109.1974732708
 30
0.0
 11
59.5109905025
 21
106.1974732708
 31
0.0
  0
LINE
  5
1DB
330
1D2
100
AcDbEntity
  8
SLD-0
100
AcDbLine
 10
59.5109905025
 20
106.1974732708
 30
0.0
 11
59.5109905025
 21
99.8474732708
 31
0.0
  0
MTEXT
  5
1DC
330
1D2
100
AcDbEntity
  8
SLD-0
100
AcDbMText
 10
54.9992534133
 20
101.1847619213
 30
-47.846140673
 40
3.5
 41
0.0
 71
     1
 72
     1
  1
%%c
  7
SLDTEXTSTYLE0
 11
-7.044195017643634E-15
 21
1.0
 31
0.0
 73
     1
 44
1.0
  0
MTEXT
  5
1DD
330
1D2
100
AcDbEntity
  8
SLD-0
100
AcDbMText
 10
54.9457812366
 20
106.4631993196
 30
-47.846140673
 40
3.5
 41
0.0
 71
     1
 72
     1
  1
3
  7
SLDTEXTSTYLE0
 11
-7.044195017643634E-15
 21
1.0
 31
0.0
 73
     1
 44
1.0
  0
ENDBLK
  5
1D4
330
1D2
100
AcDbEntity
  8
0
100
AcDbBlockEnd
  0
BLOCK
  5
1E0
330
1DF
100
AcDbEntity
  8
0
100
AcDbBlockBegin
  2
_D_11
 70
     0
 10
0.0
 20
0.0
 30
0.0
  3
_D_11
  1

  0
SOLID
  5
1E2
330
1DF
100
AcDbEntity
  8
SLD-0
100
AcDbTrace
 10
164.7337135091
 20
116.6974732708
 30
0.0
 11
165.2417135091
 21
119.9994732708
 31
0.0
 12
164.2257135091
 22
119.9994732708
 32
0.0
 13
164.2257135091
 23
119.9994732708
 33
0.0
  0
SOLID
  5
1E3
330
1DF
100
AcDbEntity
  8
SLD-0
100
AcDbTrace
 10
164.7337135091
 20
98.6974732708
 30
0.0
 11
164.2257135091
 21
95.3954732708
 31
0.0
 12
165.2417135091
 22
95.3954732708
 32
0.0
 13
165.2417135091
 23
95.3954732708
 33
0.0
  0
LINE
  5
1E4
330
1DF
100
AcDbEntity
  8
SLD-0
100
AcDbLine
 10
143.2302737892
 20
116.6974732708
 30
0.0
 11
165.7337135091
 21
116.6974732708
 31
0.0
  0
LINE
  5
1E5
330
1DF
100
AcDbEntity
  8
SLD-0
100
AcDbLine
 10
143.2302737892
 20
98.6974732708
 30
0.0
 11
165.7337135091
 21
98.6974732708
 31
0.0
  0
LINE
  5
1E6
330
1DF
100
AcDbEntity
  8
SLD-0
100
AcDbLine
 10
164.7337135091
 20
116.6974732708
 30
0.0
 11
164.7337135091
 21
123.0474732708
 31
0.0
  0
LINE
  5
1E7
330
1DF
100
AcDbEntity
  8
SLD-0
100
AcDbLine
 10
164.7337135091
 20
116.6974732708
 30
0.0
 11
164.7337135091
 21
98.6974732708
 31
0.0
  0
LINE
  5
1E8
330
1DF
100
AcDbEntity
  8
SLD-0
100
AcDbLine
 10
164.7337135091
 20
98.6974732708
 30
0.0
 11
164.7337135091
 21
92.3474732708
 31
0.0
  0
MTEXT
  5
1E9
330
1DF
100
AcDbEntity
  8
SLD-0
100
AcDbMText
 10
160.2219765945
 20
97.5093970321
 30
-47.846140673
 40
3.5
 41
0.0
 71
     1
 72
     1
  1
18
  7
SLDTEXTSTYLE0
 11
-7.044195017643634E-15
 21
1.0
 31
0.0
 73
     1
 44
1.0
  0
MTEXT
  5
1EA
330
1DF
100
AcDbEntity
  8
SLD-0
100
AcDbMText
 10
160.2219765945
 20
106.8378695942
 30
-47.846140673
 40
3.5
 41
0.0
 71
     1
 72
     1
  1
mm
  7
SLDTEXTSTYLE0
 11
-7.044195017643634E-15
 21
1.0
 31
0.0
 73
     1
 44
1.0
  0
ENDBLK
  5
1E1
330
1DF
100
AcDbEntity
  8
0
100
AcDbBlockEnd
  0
ENDSEC
  0
SECTION
  2
ENTITIES
  0
LINE
  5
9F
330
1F
100
AcDbEntity
  8
0
  6
Continuous
 62
     7
370
     0
100
AcDbLine
 10
107.9217561497
 20
12.1493458571
 30
0.0
 11
205.0
 21
12.1493458571
 31
0.0
  0
LINE
  5
A0
330
1F
100
AcDbEntity
  8
0
  6
Continuous
 62
     7
370
     0
100
AcDbLine
 10
174.8431841398
 20
5.0
 30
0.0
 11
174.8431841398
 21
12.1493458571
 31
0.0
  0
LINE
  5
A1
330
1F
100
AcDbEntity
  8
0
  6
Continuous
 62
     7
370
     0
100
AcDbLine
 10
107.9217561497
 20
19.759518537
 30
0.0
 11
205.0
 21
19.759518537
 31
0.0
  0
LINE
  5
A2
330
1F
100
AcDbEntity
  8
0
  6
Continuous
 62
     7
370
     0
100
AcDbLine
 10
174.8431841398
 20
12.1493458571
 30
0.0
 11
174.8431841398
 21
19.759518537
 31
0.0
  0
LINE
  5
A3
330
1F
100
AcDbEntity
  8
0
  6
Continuous
 62
     7
370
     0
100
AcDbLine
 10
17.8
 20
5.0
 30
0.0
 11
205.0
 21
5.0
 31
0.0
  0
LINE
  5
A4
330
1F
100
AcDbEntity
  8
0
  6
Continuous
 62
     7
370
     0
100
AcDbLine
 10
107.9217561497
 20
60.25
 30
0.0
 11
205.0
 21
60.25
 31
0.0
  0
LINE
  5
A5
330
1F
100
AcDbEntity
  8
0
  6
Continuous
 62
     7
370
     0
100
AcDbLine
 10
107.9217561497
 20
60.25
 30
0.0
 11
107.9217561497
 21
5.0
 31
0.0
  0
LINE
  5
A6
330
1F
100
AcDbEntity
  8
0
  6
Continuous
 62
     7
370
     0
100
AcDbLine
 10
205.0
 20
34.7762702395
 30
0.0
 11
107.9217561497
 21
34.7762702395
 31
0.0
  0
LINE
  5
A7
330
1F
100
AcDbEntity
  8
0
  6
Continuous
 62
     7
370
     0
100
AcDbLine
 10
7.0707974599
 20
292.0
 30
0.0
 11
7.0707974599
 21
5.0
 31
0.0
  0
LINE
  5
A8
330
1F
100
AcDbEntity
  8
0
  6
Continuous
 62
     7
370
     0
100
AcDbLine
 10
7.0707974599
 20
5.0
 30
0.0
 11
17.8
 21
5.0
 31
0.0
  0
LINE
  5
A9
330
1F
100
AcDbEntity
  8
0
  6
Continuous
 62
     7
370
     0
100
AcDbLine
 10
205.0
 20
5.0
 30
0.0
 11
205.0
 21
292.0
 31
0.0
  0
LINE
  5
AA
330
1F
100
AcDbEntity
  8
0
  6
Continuous
 62
     7
370
     0
100
AcDbLine
 10
205.0
 20
292.0
 30
0.0
 11
17.8
 21
292.0
 31
0.0
  0
LINE
  5
AB
330
1F
100
AcDbEntity
  8
0
  6
Continuous
 62
     7
370
     0
100
AcDbLine
 10
17.8
 20
292.0
 30
0.0
 11
7.0707974599
 21
292.0
 31
0.0
  0
MTEXT
  5
AD
330
1F
100
AcDbEntity
  8
SLD-0
100
AcDbMText
 10
99.4207324422
 20
82.5532491546
 30
0.0
 40
3.5
 41
0.0
 71
     1
 72
     1
  1
X6 Dual
  7
SLDTEXTSTYLE0
 73
     1
 44
1.0
  0
INSERT
  5
B6
330
1F
100
AcDbEntity
  8
0
  6
Continuous
 62
     7
370
     0
100
AcDbBlockReference
  2
SW_NOTE_0
 10
12.9542003891
 20
42.6992358906
 30
0.0
  0
MTEXT
  5
B7
330
1F
100
AcDbEntity
  8
0
  6
Continuous
 62
     7
370
     0
100
AcDbMText
 10
110.7217316509
 20
9.9721835409
 30
0.0
 40
2.9104166667
 41
0.0
 71
     1
 72
     1
  1
Date: 02/17/2016
  7
SLDTEXTSTYLE0
 73
     1
 44
1.0
  0
INSERT
  5
BD
330
1F
100
AcDbEntity
  8
0
  6
Continuous
 62
     7
370
     0
100
AcDbBlockReference
  2
SW_NOTE_1
 10
148.7394518658
 20
27.0596824366
 30
0.0
  0
MTEXT
  5
BE
330
1F
100
AcDbEntity
  8
0
  6
Continuous
 62
     7
370
     0
100
AcDbMText
 10
181.0240720789
 20
17.6516870915
 30
0.0
 40
2.9104166667
 41
0.0
 71
     1
 72
     1
  1
REV: v 0.90
  7
SLDTEXTSTYLE0
 73
     1
 44
1.0
  0
MTEXT
  5
BF
330
1F
100
AcDbEntity
  8
0
  6
Continuous
 62
     7
370
     0
100
AcDbMText
 10
180.3510652369
 20
9.9721835409
 30
0.0
 40
2.9104166667
 41
0.0
 71
     1
 72
     1
  1
SHEET: 1/1
  7
SLDTEXTSTYLE0
 73
     1
 44
1.0
  0
MTEXT
  5
C0
330
1F
100
AcDbEntity
  8
0
  6
Continuous
 62
     7
370
     0
100
AcDbMText
 10
110.0263603919
 20
17.8031209032
 30
0.0
 40
2.9104166667
 41
0.0
 71
     1
 72
     1
  1
Document Number: 2016023
  7
SLDTEXTSTYLE0
 73
     1
 44
1.0
  0
MTEXT
  5
C1
330
1F
100
AcDbEntity
  8
0
  6
Continuous
 62
     7
370
     0
100
AcDbMText
 10
109.0779430864
 20
31.7159015207
 30
0.0
 40
2.9104166667
 41
0.0
 71
     1
 72
     1
  1
TITLE:
  7
SLDTEXTSTYLE0
 73
     1
 44
1.0
  0
CIRCLE
  5
C2
330
1F
100
AcDbEntity
  8
0
  6
Continuous
 62
     7
370
    15
100
AcDbCircle
 10
66.1802737892
 20
175.6974732708
 30
0.0
 40
2.0
  0
CIRCLE
  5
C3
330
1F
100
AcDbEntity
  8
0
  6
Continuous
 62
     7
370
    15
100
AcDbCircle
 10
66.1802737892
 20
175.6974732708
 30
0.0
 40
1.5
  0
CIRCLE
  5
C4
330
1F
100
AcDbEntity
  8
0
  6
Continuous
 62
     7
370
    15
100
AcDbCircle
 10
66.1802737892
 20
175.6974732708
 30
0.0
 40
1.25
  0
CIRCLE
  5
C5
330
1F
100
AcDbEntity
  8
0
  6
Continuous
 62
     7
370
    15
100
AcDbCircle
 10
158.4802737892
 20
243.6974732708
 30
0.0
 40
2.0
  0
CIRCLE
  5
C6
330
1F
100
AcDbEntity
  8
0
  6
Continuous
 62
     7
370
    15
100
AcDbCircle
 10
158.4802737892
 20
243.6974732708
 30
0.0
 40
1.5
  0
CIRCLE
  5
C7
330
1F
100
AcDbEntity
  8
0
  6
Continuous
 62
     7
370
    15
100
AcDbCircle
 10
158.4802737892
 20
243.6974732708
 30
0.0
 40
1.25
  0
CIRCLE
  5
C8
330
1F
100
AcDbEntity
  8
0
  6
Continuous
 62
     7
370
    15
100
AcDbCircle
 10
61.0802737892
 20
243.6974732708
 30
0.0
 40
2.000000000000007
  0
CIRCLE
  5
C9
330
1F
100
AcDbEntity
  8
0
  6
Continuous
 62
     7
370
    15
100
AcDbCircle
 10
61.0802737892
 20
243.6974732708
 30
0.0
 40
1.500000000000007
  0
CIRCLE
  5
CA
330
1F
100
AcDbEntity
  8
0
  6
Continuous
 62
     7
370
    15
100
AcDbCircle
 10
61.0802737892
 20
243.6974732708
 30
0.0
 40
1.250000000000007
  0
CIRCLE
  5
CB
330
1F
100
AcDbEntity
  8
0
  6
Continuous
 62
     7
370
    15
100
AcDbCircle
 10
153.3802737892
 20
175.6974732708
 30
0.0
 40
2.0
  0
CIRCLE
  5
CC
330
1F
100
AcDbEntity
  8
0
  6
Continuous
 62
     7
370
    15
100
AcDbCircle
 10
153.3802737892
 20
175.6974732708
 30
0.0
 40
1.5
  0
CIRCLE
  5
CD
330
1F
100
AcDbEntity
  8
0
  6
Continuous
 62
     7
370
    15
100
AcDbCircle
 10
153.3802737892
 20
175.6974732708
 30
0.0
 40
1.25
  0
CIRCLE
  5
CE
330
1F
100
AcDbEntity
  8
0
  6
Continuous
 62
     7
370
    15
100
AcDbCircle
 10
148.2802737892
 20
107.6974732708
 30
0.0
 40
2.0
  0
CIRCLE
  5
CF
330
1F
100
AcDbEntity
  8
0
  6
Continuous
 62
     7
370
    15
100
AcDbCircle
 10
148.2802737892
 20
107.6974732708
 30
0.0
 40
1.5
  0
CIRCLE
  5
D0
330
1F
100
AcDbEntity
  8
0
  6
Continuous
 62
     7
370
    15
100
AcDbCircle
 10
148.2802737892
 20
107.6974732708
 30
0.0
 40
1.250000000000028
  0
CIRCLE
  5
D1
330
1F
100
AcDbEntity
  8
0
  6
Continuous
 62
     7
370
    15
100
AcDbCircle
 10
71.2802737892
 20
107.6974732708
 30
0.0
 40
2.0
  0
CIRCLE
  5
D2
330
1F
100
AcDbEntity
  8
0
  6
Continuous
 62
     7
370
    15
100
AcDbCircle
 10
71.2802737892
 20
107.6974732708
 30
0.0
 40
1.5
  0
CIRCLE
  5
D3
330
1F
100
AcDbEntity
  8
0
  6
Continuous
 62
     7
370
    15
100
AcDbCircle
 10
71.2802737892
 20
107.6974732708
 30
0.0
 40
1.25
  0
LINE
  5
D4
330
1F
100
AcDbEntity
  8
0
  6
Continuous
 62
     7
370
    15
100
AcDbLine
 10
152.4302719536
 20
252.4974706936
 30
0.0
 11
67.1302734318
 21
252.4974706936
 31
0.0
  0
LINE
  5
D5
330
1F
100
AcDbEntity
  8
0
  6
Continuous
 62
     7
370
    15
100
AcDbLine
 10
67.1302734318
 20
252.6974740791
 30
0.0
 11
67.1302734318
 21
252.4974706936
 31
0.0
  0
LINE
  5
D6
330
1F
100
AcDbEntity
  8
0
  6
Continuous
 62
     7
370
    15
100
AcDbLine
 10
67.1302734318
 20
252.6974740791
 30
0.0
 11
152.4302719536
 21
252.6974740791
 31
0.0
  0
LINE
  5
D7
330
1F
100
AcDbEntity
  8
0
  6
Continuous
 62
     7
370
    15
100
AcDbLine
 10
152.4302719536
 20
252.4974706936
 30
0.0
 11
152.4302719536
 21
252.6974740791
 31
0.0
  0
CIRCLE
  5
D8
330
1F
100
AcDbEntity
  8
0
  6
Continuous
 62
     7
370
    15
100
AcDbCircle
 10
61.0802737892
 20
243.6974732708
 30
0.0
 40
2.250000000000028
  0
CIRCLE
  5
D9
330
1F
100
AcDbEntity
  8
0
  6
Continuous
 62
     7
370
    15
100
AcDbCircle
 10
61.0802737892
 20
243.6974732708
 30
0.0
 40
2.449999999999989
  0
CIRCLE
  5
DA
330
1F
100
AcDbEntity
  8
0
  6
Continuous
 62
     7
370
    15
100
AcDbCircle
 10
85.1802737892
 20
243.6974732708
 30
0.0
 40
1.024999999999977
  0
CIRCLE
  5
DB
330
1F
100
AcDbEntity
  8
0
  6
Continuous
 62
     7
370
    15
100
AcDbCircle
 10
85.1802737892
 20
243.6974732708
 30
0.0
 40
1.224999999999994
  0
CIRCLE
  5
DC
330
1F
100
AcDbEntity
  8
0
  6
Continuous
 62
     7
370
    15
100
AcDbCircle
 10
142.8802737892
 20
243.6974732708
 30
0.0
 40
1.024999999999977
  0
CIRCLE
  5
DD
330
1F
100
AcDbEntity
  8
0
  6
Continuous
 62
     7
370
    15
100
AcDbCircle
 10
142.8802737892
 20
243.6974732708
 30
0.0
 40
1.224999999999994
  0
CIRCLE
  5
DE
330
1F
100
AcDbEntity
  8
0
  6
Continuous
 62
     7
370
    15
100
AcDbCircle
 10
109.7802737892
 20
248.6974732708
 30
0.0
 40
0.2500000000000284
  0
CIRCLE
  5
DF
330
1F
100
AcDbEntity
  8
0
  6
Continuous
 62
     7
370
    15
100
AcDbCircle
 10
109.7802737892
 20
248.6974732708
 30
0.0
 40
0.4499999999999886
  0
LINE
  5
E0
330
1F
100
AcDbEntity
  8
0
  6
Continuous
 62
     7
370
    15
100
AcDbLine
 10
67.1302734318
 20
234.8974707889
 30
0.0
 11
152.4302719536
 21
234.8974707889
 31
0.0
  0
ARC
  5
E1
330
1F
100
AcDbEntity
  8
0
  6
Continuous
 62
     7
370
    15
100
AcDbCircle
 10
67.1302737892
 20
243.6974732708
 30
0.0
 40
8.800000000000011
100
AcDbArc
 50
90.0
 51
270.0
  0
ARC
  5
E2
330
1F
100
AcDbEntity
  8
0
  6
Continuous
 62
     7
370
    15
100
AcDbCircle
 10
152.4302737892
 20
243.6974732708
 30
0.0
 40
8.799999999999983
100
AcDbArc
 50
270.0
 51
90.0
  0
LINE
  5
E3
330
1F
100
AcDbEntity
  8
0
  6
Continuous
 62
     7
370
    15
100
AcDbLine
 10
98.0802720788
 20
247.8974747825
 30
0.0
 11
112.9802747074
 21
247.8974747825
 31
0.0
  0
LINE
  5
E4
330
1F
100
AcDbEntity
  8
0
  6
Continuous
 62
     7
370
    15
100
AcDbLine
 10
98.0802720788
 20
239.4974741506
 30
0.0
 11
98.0802720788
 21
247.8974747825
 31
0.0
  0
LINE
  5
E5
330
1F
100
AcDbEntity
  8
0
  6
Continuous
 62
     7
370
    15
100
AcDbLine
 10
112.9802747074
 20
239.4974741506
 30
0.0
 11
98.0802720788
 21
239.4974741506
 31
0.0
  0
LINE
  5
E6
330
1F
100
AcDbEntity
  8
0
  6
Continuous
 62
     7
370
    15
100
AcDbLine
 10
112.9802747074
 20
247.8974747825
 30
0.0
 11
112.9802747074
 21
239.4974741506
 31
0.0
  0
CIRCLE
  5
E7
330
1F
100
AcDbEntity
  8
0
  6
Continuous
 62
     7
370
    15
100
AcDbCircle
 10
76.6802737892
 20
243.6974732708
 30
0.0
 40
1.225000000000023
  0
CIRCLE
  5
E8
330
1F
100
AcDbEntity
  8
0
  6
Continuous
 62
     7
370
    15
100
AcDbCircle
 10
134.3802737892
 20
243.6974732708
 30
0.0
 40
1.225000000000023
  0
CIRCLE
  5
E9
330
1F
100
AcDbEntity
  8
0
  6
Continuous
 62
     7
370
    15
100
AcDbCircle
 10
158.4802737892
 20
243.6974732708
 30
0.0
 40
2.449999999999989
  0
CIRCLE
  5
EA
330
1F
100
AcDbEntity
  8
0
  6
Continuous
 62
     7
370
    15
100
AcDbCircle
 10
109.7802737892
 20
238.6974732708
 30
0.0
 40
0.4500000000000171
  0
CIRCLE
  5
EB
330
1F
100
AcDbEntity
  8
0
  6
Continuous
 62
     7
370
    15
100
AcDbCircle
 10
76.6802737892
 20
243.6974732708
 30
0.0
 40
1.024999999999977
  0
LINE
  5
EC
330
1F
100
AcDbEntity
  8
0
  6
Continuous
 62
     7
370
    15
100
AcDbLine
 10
112.7802713218
 20
247.6974713969
 30
0.0
 11
98.2802754643
 21
247.6974713969
 31
0.0
  0
LWPOLYLINE
  5
ED
330
1F
100
AcDbEntity
  8
0
  6
Continuous
 62
     7
370
    15
100
AcDbPolyline
 90
       10
 70
   128
 43
0.0
 10
98.2802754643
 20
247.6974713969
 10
98.2772356275
 20
247.7005112338
 10
98.2682129744
 20
247.7095338869
 10
98.2534794512
 20
247.7242711353
 10
98.2334820929
 20
247.7442610431
 10
98.208831847
 20
247.7689150143
 10
98.1802737716
 20
247.7974730897
 10
98.1486795845
 20
247.829071002
 10
98.1150029602
 20
247.8627401757
 10
98.0802720788
 20
247.8974747825
  0
LINE
  5
EE
330
1F
100
AcDbEntity
  8
0
  6
Continuous
 62
     7
370
    15
100
AcDbLine
 10
112.9802747074
 20
247.8974747825
 30
0.0
 11
112.7802713218
 21
247.6974713969
 31
0.0
  0
LWPOLYLINE
  5
EF
330
1F
100
AcDbEntity
  8
0
  6
Continuous
 62
     7
370
    15
100
AcDbPolyline
 90
        9
 70
   128
 43
0.0
 10
112.9802747074
 20
239.4974741506
 10
112.9412560168
 20
239.5364928412
 10
112.9037348929
 20
239.5740065145
 10
112.8691567483
 20
239.6085846591
 10
112.8388552371
 20
239.638893621
 10
112.8139777484
 20
239.663763659
 10
112.7955003086
 20
239.6822485495
 10
112.7841158214
 20
239.6936330366
 10
112.7802713218
 20
239.6974700856
  0
LINE
  5
F0
330
1F
100
AcDbEntity
  8
0
  6
Continuous
 62
     7
370
    15
100
AcDbLine
 10
112.7802713218
 20
239.6974700856
 30
0.0
 11
112.7802713218
 21
247.6974713969
 31
0.0
  0
LINE
  5
F1
330
1F
100
AcDbEntity
  8
0
  6
Continuous
 62
     7
370
    15
100
AcDbLine
 10
98.2802754643
 20
239.6974700856
 30
0.0
 11
112.7802713218
 21
239.6974700856
 31
0.0
  0
LWPOLYLINE
  5
F2
330
1F
100
AcDbEntity
  8
0
  6
Continuous
 62
     7
370
    15
100
AcDbPolyline
 90
       10
 70
   128
 43
0.0
 10
98.2802754643
 20
239.6974700856
 10
98.2772356275
 20
239.6944376993
 10
98.2682129744
 20
239.6854150462
 10
98.2534794512
 20
239.6706777978
 10
98.2334820929
 20
239.6506804395
 10
98.208831847
 20
239.6260339188
 10
98.1802737716
 20
239.5974758434
 10
98.1486795845
 20
239.5658779311
 10
98.1150029602
 20
239.5322013068
 10
98.0802720788
 20
239.4974741506
  0
CIRCLE
  5
F3
330
1F
100
AcDbEntity
  8
0
  6
Continuous
 62
     7
370
    15
100
AcDbCircle
 10
158.4802737892
 20
243.6974732708
 30
0.0
 40
2.25
  0
CIRCLE
  5
F4
330
1F
100
AcDbEntity
  8
0
  6
Continuous
 62
     7
370
    15
100
AcDbCircle
 10
134.3802737892
 20
243.6974732708
 30
0.0
 40
1.024999999999977
  0
LINE
  5
F5
330
1F
100
AcDbEntity
  8
0
  6
Continuous
 62
     7
370
    15
100
AcDbLine
 10
98.2802754643
 20
247.6974713969
 30
0.0
 11
98.2802754643
 21
239.6974700856
 31
0.0
  0
LINE
  5
F6
330
1F
100
AcDbEntity
  8
0
  6
Continuous
 62
     7
370
    15
100
AcDbLine
 10
152.4302719536
 20
234.8974707889
 30
0.0
 11
152.4302719536
 21
234.697474854
 31
0.0
  0
LINE
  5
F7
330
1F
100
AcDbEntity
  8
0
  6
Continuous
 62
     7
370
    15
100
AcDbLine
 10
152.4302719536
 20
234.697474854
 30
0.0
 11
67.1302734318
 21
234.697474854
 31
0.0
  0
LINE
  5
F8
330
1F
100
AcDbEntity
  8
0
  6
Continuous
 62
     7
370
    15
100
AcDbLine
 10
67.1302734318
 20
234.697474854
 30
0.0
 11
67.1302734318
 21
234.8974707889
 31
0.0
  0
ARC
  5
F9
330
1F
100
AcDbEntity
  8
0
  6
Continuous
 62
     7
370
    15
100
AcDbCircle
 10
152.4302737892
 20
243.6974732708
 30
0.0
 40
9.0
100
AcDbArc
 50
270.0
 51
90.0
  0
CIRCLE
  5
FA
330
1F
100
AcDbEntity
  8
0
  6
Continuous
 62
     7
370
    15
100
AcDbCircle
 10
109.7802737892
 20
238.6974732708
 30
0.0
 40
0.2500000000000284
  0
ARC
  5
FB
330
1F
100
AcDbEntity
  8
0
  6
Continuous
 62
     7
370
    15
100
AcDbCircle
 10
67.1302737892
 20
243.6974732708
 30
0.0
 40
9.0
100
AcDbArc
 50
90.0
 51
270.0
  0
CIRCLE
  5
FC
330
1F
100
AcDbEntity
  8
0
  6
Continuous
 62
     7
370
    15
100
AcDbCircle
 10
109.7802737892
 20
180.6974732708
 30
0.0
 40
0.4499999999999886
  0
CIRCLE
  5
FD
330
1F
100
AcDbEntity
  8
0
  6
Continuous
 62
     7
370
    15
100
AcDbCircle
 10
131.8302737892
 20
175.6974732708
 30
0.0
 40
1.224999999999994
  0
CIRCLE
  5
FE
330
1F
100
AcDbEntity
  8
0
  6
Continuous
 62
     7
370
    15
100
AcDbCircle
 10
87.7302737892
 20
175.6974732708
 30
0.0
 40
1.224999999999994
  0
CIRCLE
  5
FF
330
1F
100
AcDbEntity
  8
0
  6
Continuous
 62
     7
370
    15
100
AcDbCircle
 10
66.1802737892
 20
175.6974732708
 30
0.0
 40
2.450000000000017
  0
LINE
  5
100
330
1F
100
AcDbEntity
  8
0
  6
Continuous
 62
     7
370
    15
100
AcDbLine
 10
147.3302750292
 20
184.4974744487
 30
0.0
 11
72.2302740815
 21
184.4974744487
 31
0.0
  0
ARC
  5
101
330
1F
100
AcDbEntity
  8
0
  6
Continuous
 62
     7
370
    15
100
AcDbCircle
 10
147.3302737892
 20
175.6974732708
 30
0.0
 40
8.799999999999983
100
AcDbArc
 50
270.0
 51
90.0
  0
LINE
  5
102
330
1F
100
AcDbEntity
  8
0
  6
Continuous
 62
     7
370
    15
100
AcDbLine
 10
72.2302740815
 20
166.8974726814
 30
0.0
 11
147.3302750292
 21
166.8974726814
 31
0.0
  0
ARC
  5
103
330
1F
100
AcDbEntity
  8
0
  6
Continuous
 62
     7
370
    15
100
AcDbCircle
 10
72.2302737892
 20
175.6974732708
 30
0.0
 40
8.800000000000011
100
AcDbArc
 50
90.0
 51
270.0
  0
LINE
  5
104
330
1F
100
AcDbEntity
  8
0
  6
Continuous
 62
     7
370
    15
100
AcDbLine
 10
98.0802720788
 20
179.8974748123
 30
0.0
 11
112.9802747074
 21
179.8974748123
 31
0.0
  0
LINE
  5
105
330
1F
100
AcDbEntity
  8
0
  6
Continuous
 62
     7
370
    15
100
AcDbLine
 10
98.0802720788
 20
171.4974741804
 30
0.0
 11
98.0802720788
 21
179.8974748123
 31
0.0
  0
LINE
  5
106
330
1F
100
AcDbEntity
  8
0
  6
Continuous
 62
     7
370
    15
100
AcDbLine
 10
112.9802747074
 20
171.4974741804
 30
0.0
 11
98.0802720788
 21
171.4974741804
 31
0.0
  0
LINE
  5
107
330
1F
100
AcDbEntity
  8
0
  6
Continuous
 62
     7
370
    15
100
AcDbLine
 10
112.9802747074
 20
179.8974748123
 30
0.0
 11
112.9802747074
 21
171.4974741804
 31
0.0
  0
CIRCLE
  5
108
330
1F
100
AcDbEntity
  8
0
  6
Continuous
 62
     7
370
    15
100
AcDbCircle
 10
79.2302737892
 20
175.6974732708
 30
0.0
 40
1.224999999999994
  0
CIRCLE
  5
109
330
1F
100
AcDbEntity
  8
0
  6
Continuous
 62
     7
370
    15
100
AcDbCircle
 10
140.3302737892
 20
175.6974732708
 30
0.0
 40
1.224999999999994
  0
CIRCLE
  5
10A
330
1F
100
AcDbEntity
  8
0
  6
Continuous
 62
     7
370
    15
100
AcDbCircle
 10
153.3802737892
 20
175.6974732708
 30
0.0
 40
2.449999999999989
  0
CIRCLE
  5
10B
330
1F
100
AcDbEntity
  8
0
  6
Continuous
 62
     7
370
    15
100
AcDbCircle
 10
109.7802737892
 20
170.6974732708
 30
0.0
 40
0.4500000000000171
  0
LWPOLYLINE
  5
10C
330
1F
100
AcDbEntity
  8
0
  6
Continuous
 62
     7
370
    15
100
AcDbPolyline
 90
        9
 70
   128
 43
0.0
 10
112.9802747074
 20
171.4974741804
 10
112.9412560168
 20
171.5364910084
 10
112.9037348929
 20
171.5740102696
 10
112.8691567483
 20
171.6085865515
 10
112.8388552371
 20
171.6388955134
 10
112.8139777484
 20
171.6637674141
 10
112.7955003086
 20
171.6822485793
 10
112.7841158214
 20
171.6936312038
 10
112.7802713218
 20
171.6974738407
  0
LINE
  5
10D
330
1F
100
AcDbEntity
  8
0
  6
Continuous
 62
     7
370
    15
100
AcDbLine
 10
112.7802713218
 20
171.6974738407
 30
0.0
 11
112.7802713218
 21
179.6974714267
 31
0.0
  0
LWPOLYLINE
  5
10E
330
1F
100
AcDbEntity
  8
0
  6
Continuous
 62
     7
370
    15
100
AcDbPolyline
 90
        9
 70
   128
 43
0.0
 10
112.9802747074
 20
179.8974748123
 10
112.9412560168
 20
179.8584561217
 10
112.9037348929
 20
179.8209349978
 10
112.8691567483
 20
179.7863605785
 10
112.8388552371
 20
179.7560516167
 10
112.8139777484
 20
179.7311778533
 10
112.7955003086
 20
179.7126966882
 10
112.7841158214
 20
179.7013159263
 10
112.7802713218
 20
179.6974714267
  0
LINE
  5
10F
330
1F
100
AcDbEntity
  8
0
  6
Continuous
 62
     7
370
    15
100
AcDbLine
 10
98.2802754643
 20
171.6974738407
 30
0.0
 11
112.7802713218
 21
171.6974738407
 31
0.0
  0
LWPOLYLINE
  5
110
330
1F
100
AcDbEntity
  8
0
  6
Continuous
 62
     7
370
    15
100
AcDbPolyline
 90
        9
 70
   128
 43
0.0
 10
98.2802754643
 20
171.6974738407
 10
98.2764309648
 20
171.6936312038
 10
98.2650502029
 20
171.6822485793
 10
98.2465690377
 20
171.6637674141
 10
98.2216952744
 20
171.6388955134
 10
98.1913863125
 20
171.6085865515
 10
98.1568118933
 20
171.5740102696
 10
98.1192907694
 20
171.5364910084
 10
98.0802720788
 20
171.4974741804
  0
LINE
  5
111
330
1F
100
AcDbEntity
  8
0
  6
Continuous
 62
     7
370
    15
100
AcDbLine
 10
72.2302740815
 20
166.8974726814
 30
0.0
 11
72.2302740815
 21
166.6974730211
 31
0.0
  0
ARC
  5
112
330
1F
100
AcDbEntity
  8
0
  6
Continuous
 62
     7
370
    15
100
AcDbCircle
 10
72.2302737892
 20
175.6974732708
 30
0.0
 40
9.0
100
AcDbArc
 50
90.0
 51
270.0
  0
LINE
  5
113
330
1F
100
AcDbEntity
  8
0
  6
Continuous
 62
     7
370
    15
100
AcDbLine
 10
72.2302740815
 20
184.4974744487
 30
0.0
 11
72.2302740815
 21
184.6974741089
 31
0.0
  0
ARC
  5
114
330
1F
100
AcDbEntity
  8
0
  6
Continuous
 62
     7
370
    15
100
AcDbCircle
 10
147.3302737892
 20
175.6974732708
 30
0.0
 40
8.999999999999972
100
AcDbArc
 50
270.0
 51
90.0
  0
LINE
  5
115
330
1F
100
AcDbEntity
  8
0
  6
Continuous
 62
     7
370
    15
100
AcDbLine
 10
147.3302750292
 20
166.6974730211
 30
0.0
 11
147.3302750292
 21
166.8974726814
 31
0.0
  0
LINE
  5
116
330
1F
100
AcDbEntity
  8
0
  6
Continuous
 62
     7
370
    15
100
AcDbLine
 10
147.3302750292
 20
184.6974741089
 30
0.0
 11
147.3302750292
 21
184.4974744487
 31
0.0
  0
CIRCLE
  5
117
330
1F
100
AcDbEntity
  8
0
  6
Continuous
 62
     7
370
    15
100
AcDbCircle
 10
109.7802737892
 20
170.6974732708
 30
0.0
 40
0.25
  0
CIRCLE
  5
118
330
1F
100
AcDbEntity
  8
0
  6
Continuous
 62
     7
370
    15
100
AcDbCircle
 10
153.3802737892
 20
175.6974732708
 30
0.0
 40
2.25
  0
CIRCLE
  5
119
330
1F
100
AcDbEntity
  8
0
  6
Continuous
 62
     7
370
    15
100
AcDbCircle
 10
140.3302737892
 20
175.6974732708
 30
0.0
 40
1.025000000000006
  0
CIRCLE
  5
11A
330
1F
100
AcDbEntity
  8
0
  6
Continuous
 62
     7
370
    15
100
AcDbCircle
 10
79.2302737892
 20
175.6974732708
 30
0.0
 40
1.025000000000006
  0
LINE
  5
11B
330
1F
100
AcDbEntity
  8
0
  6
Continuous
 62
     7
370
    15
100
AcDbLine
 10
112.7802713218
 20
179.6974714267
 30
0.0
 11
98.2802754643
 21
179.6974714267
 31
0.0
  0
LWPOLYLINE
  5
11C
330
1F
100
AcDbEntity
  8
0
  6
Continuous
 62
     7
370
    15
100
AcDbPolyline
 90
       10
 70
   128
 43
0.0
 10
98.2802754643
 20
179.6974714267
 10
98.2772356275
 20
179.7005112636
 10
98.2682129744
 20
179.7095339167
 10
98.2534794512
 20
179.7242674398
 10
98.2334820929
 20
179.7442647982
 10
98.208831847
 20
179.7689150441
 10
98.1802737716
 20
179.7974731195
 10
98.1486795845
 20
179.8290710318
 10
98.1150029602
 20
179.8627439308
 10
98.0802720788
 20
179.8974748123
  0
LINE
  5
11D
330
1F
100
AcDbEntity
  8
0
  6
Continuous
 62
     7
370
    15
100
AcDbLine
 10
98.2802754643
 20
179.6974714267
 30
0.0
 11
98.2802754643
 21
171.6974738407
 31
0.0
  0
LINE
  5
11E
330
1F
100
AcDbEntity
  8
0
  6
Continuous
 62
     7
370
    15
100
AcDbLine
 10
72.2302740815
 20
184.6974741089
 30
0.0
 11
147.3302750292
 21
184.6974741089
 31
0.0
  0
LINE
  5
11F
330
1F
100
AcDbEntity
  8
0
  6
Continuous
 62
     7
370
    15
100
AcDbLine
 10
147.3302750292
 20
166.6974730211
 30
0.0
 11
72.2302740815
 21
166.6974730211
 31
0.0
  0
CIRCLE
  5
120
330
1F
100
AcDbEntity
  8
0
  6
Continuous
 62
     7
370
    15
100
AcDbCircle
 10
66.1802737892
 20
175.6974732708
 30
0.0
 40
2.25
  0
CIRCLE
  5
121
330
1F
100
AcDbEntity
  8
0
  6
Continuous
 62
     7
370
    15
100
AcDbCircle
 10
87.7302737892
 20
175.6974732708
 30
0.0
 40
1.025000000000006
  0
CIRCLE
  5
122
330
1F
100
AcDbEntity
  8
0
  6
Continuous
 62
     7
370
    15
100
AcDbCircle
 10
131.8302737892
 20
175.6974732708
 30
0.0
 40
1.025000000000006
  0
CIRCLE
  5
123
330
1F
100
AcDbEntity
  8
0
  6
Continuous
 62
     7
370
    15
100
AcDbCircle
 10
109.7802737892
 20
180.6974732708
 30
0.0
 40
0.25
  0
CIRCLE
  5
124
330
1F
100
AcDbEntity
  8
0
  6
Continuous
 62
     7
370
    15
100
AcDbCircle
 10
109.7802737892
 20
102.6974732708
 30
0.0
 40
0.25
  0
CIRCLE
  5
125
330
1F
100
AcDbEntity
  8
0
  6
Continuous
 62
     7
370
    15
100
AcDbCircle
 10
109.7802737892
 20
102.6974732708
 30
0.0
 40
0.4500000000000028
  0
CIRCLE
  5
126
330
1F
100
AcDbEntity
  8
0
  6
Continuous
 62
     7
370
    15
100
AcDbCircle
 10
148.2802737892
 20
107.6974732708
 30
0.0
 40
2.25
  0
CIRCLE
  5
127
330
1F
100
AcDbEntity
  8
0
  6
Continuous
 62
     7
370
    15
100
AcDbCircle
 10
148.2802737892
 20
107.6974732708
 30
0.0
 40
2.450000000000017
  0
CIRCLE
  5
128
330
1F
100
AcDbEntity
  8
0
  6
Continuous
 62
     7
370
    15
100
AcDbCircle
 10
109.7802737892
 20
112.6974732708
 30
0.0
 40
0.4499999999999886
  0
CIRCLE
  5
129
330
1F
100
AcDbEntity
  8
0
  6
Continuous
 62
     7
370
    15
100
AcDbCircle
 10
137.7802737892
 20
107.6974732708
 30
0.0
 40
1.225000000000009
  0
CIRCLE
  5
12A
330
1F
100
AcDbEntity
  8
0
  6
Continuous
 62
     7
370
    15
100
AcDbCircle
 10
90.2802737892
 20
107.6974732708
 30
0.0
 40
1.225000000000009
  0
CIRCLE
  5
12B
330
1F
100
AcDbEntity
  8
0
  6
Continuous
 62
     7
370
    15
100
AcDbCircle
 10
71.2802737892
 20
107.6974732708
 30
0.0
 40
2.450000000000017
  0
LINE
  5
12C
330
1F
100
AcDbEntity
  8
0
  6
Continuous
 62
     7
370
    15
100
AcDbLine
 10
142.2302706542
 20
116.4974744785
 30
0.0
 11
77.3302747312
 21
116.4974744785
 31
0.0
  0
ARC
  5
12D
330
1F
100
AcDbEntity
  8
0
  6
Continuous
 62
     7
370
    15
100
AcDbCircle
 10
142.2302737892
 20
107.6974732708
 30
0.0
 40
8.800000000000011
100
AcDbArc
 50
270.0
 51
90.0
  0
LINE
  5
12E
330
1F
100
AcDbEntity
  8
0
  6
Continuous
 62
     7
370
    15
100
AcDbLine
 10
77.3302747312
 20
98.8974745738
 30
0.0
 11
142.2302706542
 21
98.8974745738
 31
0.0
  0
ARC
  5
12F
330
1F
100
AcDbEntity
  8
0
  6
Continuous
 62
     7
370
    15
100
AcDbCircle
 10
77.3302737892
 20
107.6974732708
 30
0.0
 40
8.799999999999997
100
AcDbArc
 50
90.0
 51
270.0
  0
LINE
  5
130
330
1F
100
AcDbEntity
  8
0
  6
Continuous
 62
     7
370
    15
100
AcDbLine
 10
98.0802720788
 20
111.8974748421
 30
0.0
 11
112.9802747074
 21
111.8974748421
 31
0.0
  0
LINE
  5
131
330
1F
100
AcDbEntity
  8
0
  6
Continuous
 62
     7
370
    15
100
AcDbLine
 10
98.0802720788
 20
103.4974742103
 30
0.0
 11
98.0802720788
 21
111.8974748421
 31
0.0
  0
LINE
  5
132
330
1F
100
AcDbEntity
  8
0
  6
Continuous
 62
     7
370
    15
100
AcDbLine
 10
112.9802747074
 20
103.4974742103
 30
0.0
 11
98.0802720788
 21
103.4974742103
 31
0.0
  0
LINE
  5
133
330
1F
100
AcDbEntity
  8
0
  6
Continuous
 62
     7
370
    15
100
AcDbLine
 10
112.9802747074
 20
111.8974748421
 30
0.0
 11
112.9802747074
 21
103.4974742103
 31
0.0
  0
CIRCLE
  5
134
330
1F
100
AcDbEntity
  8
0
  6
Continuous
 62
     7
370
    15
100
AcDbCircle
 10
81.7802737892
 20
107.6974732708
 30
0.0
 40
1.225000000000009
  0
CIRCLE
  5
135
330
1F
100
AcDbEntity
  8
0
  6
Continuous
 62
     7
370
    15
100
AcDbCircle
 10
129.2802737892
 20
107.6974732708
 30
0.0
 40
1.225000000000009
  0
LINE
  5
136
330
1F
100
AcDbEntity
  8
0
  6
Continuous
 62
     7
370
    15
100
AcDbLine
 10
98.2802754643
 20
103.6974738705
 30
0.0
 11
112.7802713218
 21
103.6974738705
 31
0.0
  0
LWPOLYLINE
  5
137
330
1F
100
AcDbEntity
  8
0
  6
Continuous
 62
     7
370
    15
100
AcDbPolyline
 90
        9
 70
   128
 43
0.0
 10
112.9802747074
 20
103.4974742103
 10
112.9412560168
 20
103.5364929008
 10
112.9037348929
 20
103.5740102994
 10
112.8691567483
 20
103.608588444
 10
112.8388552371
 20
103.6388936806
 10
112.8139777484
 20
103.6637674439
 10
112.7955003086
 20
103.6822486091
 10
112.7841158214
 20
103.6936293709
 10
112.7802713218
 20
103.6974738705
  0
LWPOLYLINE
  5
138
330
1F
100
AcDbEntity
  8
0
  6
Continuous
 62
     7
370
    15
100
AcDbPolyline
 90
        9
 70
   128
 43
0.0
 10
98.2802754643
 20
103.6974738705
 10
98.2764309648
 20
103.6936293709
 10
98.2650502029
 20
103.6822486091
 10
98.2465690377
 20
103.6637674439
 10
98.2216952744
 20
103.6388936806
 10
98.1913863125
 20
103.608588444
 10
98.1568118933
 20
103.5740102994
 10
98.1192907694
 20
103.5364929008
 10
98.0802720788
 20
103.4974742103
  0
LINE
  5
139
330
1F
100
AcDbEntity
  8
0
  6
Continuous
 62
     7
370
    15
100
AcDbLine
 10
77.3302747312
 20
116.4974744785
 30
0.0
 11
77.3302747312
 21
116.6974741387
 31
0.0
  0
LINE
  5
13A
330
1F
100
AcDbEntity
  8
0
  6
Continuous
 62
     7
370
    15
100
AcDbLine
 10
77.3302747312
 20
116.6974741387
 30
0.0
 11
142.2302706542
 21
116.6974741387
 31
0.0
  0
LINE
  5
13B
330
1F
100
AcDbEntity
  8
0
  6
Continuous
 62
     7
370
    15
100
AcDbLine
 10
142.2302706542
 20
116.6974741387
 30
0.0
 11
142.2302706542
 21
116.4974744785
 31
0.0
  0
ARC
  5
13C
330
1F
100
AcDbEntity
  8
0
  6
Continuous
 62
     7
370
    15
100
AcDbCircle
 10
142.2302737892
 20
107.6974732708
 30
0.0
 40
9.0
100
AcDbArc
 50
270.0
 51
90.0
  0
LINE
  5
13D
330
1F
100
AcDbEntity
  8
0
  6
Continuous
 62
     7
370
    15
100
AcDbLine
 10
142.2302706542
 20
98.6974749136
 30
0.0
 11
142.2302706542
 21
98.8974745738
 31
0.0
  0
LINE
  5
13E
330
1F
100
AcDbEntity
  8
0
  6
Continuous
 62
     7
370
    15
100
AcDbLine
 10
142.2302706542
 20
98.6974749136
 30
0.0
 11
77.3302747312
 21
98.6974749136
 31
0.0
  0
LINE
  5
13F
330
1F
100
AcDbEntity
  8
0
  6
Continuous
 62
     7
370
    15
100
AcDbLine
 10
77.3302747312
 20
98.8974745738
 30
0.0
 11
77.3302747312
 21
98.6974749136
 31
0.0
  0
CIRCLE
  5
140
330
1F
100
AcDbEntity
  8
0
  6
Continuous
 62
     7
370
    15
100
AcDbCircle
 10
129.2802737892
 20
107.6974732708
 30
0.0
 40
1.025000000000006
  0
CIRCLE
  5
141
330
1F
100
AcDbEntity
  8
0
  6
Continuous
 62
     7
370
    15
100
AcDbCircle
 10
81.7802737892
 20
107.6974732708
 30
0.0
 40
1.025000000000006
  0
LINE
  5
142
330
1F
100
AcDbEntity
  8
0
  6
Continuous
 62
     7
370
    15
100
AcDbLine
 10
112.7802713218
 20
111.6974714565
 30
0.0
 11
98.2802754643
 21
111.6974714565
 31
0.0
  0
LWPOLYLINE
  5
143
330
1F
100
AcDbEntity
  8
0
  6
Continuous
 62
     7
370
    15
100
AcDbPolyline
 90
       10
 70
   128
 43
0.0
 10
98.2802754643
 20
111.6974714565
 10
98.2772356275
 20
111.7005112934
 10
98.2682129744
 20
111.7095339465
 10
98.2534794512
 20
111.7242674696
 10
98.2334820929
 20
111.744264828
 10
98.208831847
 20
111.7689150739
 10
98.1802737716
 20
111.7974731493
 10
98.1486795845
 20
111.8290710616
 10
98.1150029602
 20
111.8627439606
 10
98.0802720788
 20
111.8974748421
  0
LWPOLYLINE
  5
144
330
1F
100
AcDbEntity
  8
0
  6
Continuous
 62
     7
370
    15
100
AcDbPolyline
 90
        9
 70
   128
 43
0.0
 10
112.9802747074
 20
111.8974748421
 10
112.9412560168
 20
111.8584561515
 10
112.9037348929
 20
111.8209350276
 10
112.8691567483
 20
111.7863606083
 10
112.8388552371
 20
111.7560516465
 10
112.8139777484
 20
111.7311778831
 10
112.7955003086
 20
111.712696718
 10
112.7841158214
 20
111.7013159561
 10
112.7802713218
 20
111.6974714565
  0
LINE
  5
145
330
1F
100
AcDbEntity
  8
0
  6
Continuous
 62
     7
370
    15
100
AcDbLine
 10
98.2802754643
 20
111.6974714565
 30
0.0
 11
98.2802754643
 21
103.6974738705
 31
0.0
  0
LINE
  5
146
330
1F
100
AcDbEntity
  8
0
  6
Continuous
 62
     7
370
    15
100
AcDbLine
 10
112.7802713218
 20
103.6974738705
 30
0.0
 11
112.7802713218
 21
111.6974714565
 31
0.0
  0
CIRCLE
  5
147
330
1F
100
AcDbEntity
  8
0
  6
Continuous
 62
     7
370
    15
100
AcDbCircle
 10
90.2802737892
 20
107.6974732708
 30
0.0
 40
1.025000000000006
  0
ARC
  5
148
330
1F
100
AcDbEntity
  8
0
  6
Continuous
 62
     7
370
    15
100
AcDbCircle
 10
77.3302737892
 20
107.6974732708
 30
0.0
 40
9.0
100
AcDbArc
 50
90.0
 51
270.0
  0
CIRCLE
  5
149
330
1F
100
AcDbEntity
  8
0
  6
Continuous
 62
     7
370
    15
100
AcDbCircle
 10
71.2802737892
 20
107.6974732708
 30
0.0
 40
2.25
  0
CIRCLE
  5
14A
330
1F
100
AcDbEntity
  8
0
  6
Continuous
 62
     7
370
    15
100
AcDbCircle
 10
109.7802737892
 20
112.6974732708
 30
0.0
 40
0.25
  0
CIRCLE
  5
14B
330
1F
100
AcDbEntity
  8
0
  6
Continuous
 62
     7
370
    15
100
AcDbCircle
 10
137.7802737892
 20
107.6974732708
 30
0.0
 40
1.025000000000006
  0
LINE
  5
14C
330
1F
100
AcDbEntity
  8
SLD-0
100
AcDbLine
 10
61.0802737892
 20
243.6974732708
 30
0.0
 11
61.0802737892
 21
252.6974732708
 31
0.0
  0
LINE
  5
14D
330
1F
100
AcDbEntity
  8
SLD-0
100
AcDbLine
 10
158.4802737892
 20
243.6974732708
 30
0.0
 11
158.4802737892
 21
252.6974732708
 31
0.0
  0
LINE
  5
14E
330
1F
100
AcDbEntity
  8
SLD-0
100
AcDbLine
 10
58.1302737892
 20
243.6974732708
 30
0.0
 11
58.1302737892
 21
232.0970707546
 31
0.0
  0
LINE
  5
14F
330
1F
100
AcDbEntity
  8
SLD-0
100
AcDbLine
 10
161.4302737892
 20
243.6974732708
 30
0.0
 11
161.4302737892
 21
232.0970707546
 31
0.0
  0
LINE
  5
150
330
1F
100
AcDbEntity
  8
SLD-0
100
AcDbLine
 10
66.1802737892
 20
175.6974732708
 30
0.0
 11
66.1802737892
 21
184.7849225997
 31
0.0
  0
LINE
  5
151
330
1F
100
AcDbEntity
  8
SLD-0
100
AcDbLine
 10
153.3802737892
 20
175.6974732708
 30
0.0
 11
153.3802737892
 21
184.7849225997
 31
0.0
  0
LINE
  5
152
330
1F
100
AcDbEntity
  8
SLD-0
100
AcDbLine
 10
156.3302737892
 20
175.6974732708
 30
0.0
 11
156.3302737892
 21
164.110152939
 31
0.0
  0
LINE
  5
153
330
1F
100
AcDbEntity
  8
SLD-0
100
AcDbLine
 10
63.2302737892
 20
175.6974732708
 30
0.0
 11
63.2302737892
 21
164.110152939
 31
0.0
  0
LINE
  5
154
330
1F
100
AcDbEntity
  8
SLD-0
100
AcDbLine
 10
71.2802737892
 20
107.6974732708
 30
0.0
 11
71.2802737892
 21
116.6974732708
 31
0.0
  0
LINE
  5
155
330
1F
100
AcDbEntity
  8
SLD-0
100
AcDbLine
 10
148.2802737892
 20
107.6974732708
 30
0.0
 11
148.2802737892
 21
116.6974732708
 31
0.0
  0
LINE
  5
156
330
1F
100
AcDbEntity
  8
SLD-0
100
AcDbLine
 10
151.2302737892
 20
107.6974732708
 30
0.0
 11
151.2302737892
 21
96.7250544096
 31
0.0
  0
LINE
  5
157
330
1F
100
AcDbEntity
  8
SLD-0
100
AcDbLine
 10
68.3302737892
 20
107.6974732708
 30
0.0
 11
68.3302737892
 21
96.7250544096
 31
0.0
  0
DIMENSION
  5
158
330
1F
100
AcDbEntity
  8
SLD-0
100
AcDbDimension
  2
_D
 10
158.4802737892
 20
262.6974732708
 30
0.0
 11
111.5201730847
 21
262.6974732708
 31
0.0
 70
   160
  1
<> mm
 71
     2
 42
-1.0
  3
SLDDIMSTYLE0
100
AcDbAlignedDimension
 13
61.0802737892
 23
252.6974732708
 33
0.0
 14
158.4802737892
 24
252.6974732708
 34
0.0
100
AcDbRotatedDimension
  0
DIMENSION
  5
164
330
1F
100
AcDbEntity
  8
SLD-0
100
AcDbDimension
  2
_D_1
 10
161.4302737892
 20
224.4548099115
 30
0.0
 11
111.5201730847
 21
224.4548099115
 31
0.0
 70
   160
  1
<> mm
 71
     2
 42
-1.0
  3
SLDDIMSTYLE0
100
AcDbAlignedDimension
 13
58.1302737892
 23
232.0970707546
 33
0.0
 14
161.4302737892
 24
232.0970707546
 34
0.0
100
AcDbRotatedDimension
  0
DIMENSION
  5
16F
330
1F
100
AcDbEntity
  8
SLD-0
100
AcDbDimension
  2
_D_2
 10
153.3802737892
 20
191.6856853116
 30
0.0
 11
111.5201730847
 21
191.6856853116
 31
0.0
 70
   160
  1
<> mm
 71
     2
 42
-1.0
  3
SLDDIMSTYLE0
100
AcDbAlignedDimension
 13
66.1802737892
 23
184.7849225997
 33
0.0
 14
153.3802737892
 24
184.7849225997
 34
0.0
100
AcDbRotatedDimension
  0
DIMENSION
  5
17A
330
1F
100
AcDbEntity
  8
SLD-0
100
AcDbDimension
  2
_D_3
 10
156.3302737892
 20
156.1111347855
 30
0.0
 11
111.5201730847
 21
156.1111347855
 31
0.0
 70
   160
  1
<> mm
 71
     2
 42
-1.0
  3
SLDDIMSTYLE0
100
AcDbAlignedDimension
 13
63.2302737892
 23
164.110152939
 33
0.0
 14
156.3302737892
 24
164.110152939
 34
0.0
100
AcDbRotatedDimension
  0
DIMENSION
  5
185
330
1F
100
AcDbEntity
  8
SLD-0
100
AcDbDimension
  2
_D_4
 10
148.2802737892
 20
122.2783342335
 30
0.0
 11
108.6276117342
 21
122.2783342335
 31
0.0
 70
   160
  1
<> mm
 71
     2
 42
-1.0
  3
SLDDIMSTYLE1
100
AcDbAlignedDimension
 13
71.2802737892
 23
116.6974732708
 33
0.0
 14
148.2802737892
 24
116.6974732708
 34
0.0
100
AcDbRotatedDimension
  0
DIMENSION
  5
191
330
1F
100
AcDbEntity
  8
SLD-0
100
AcDbDimension
  2
_D_5
 10
151.2302737892
 20
86.1685468914
 30
0.0
 11
111.5201730847
 21
86.1685468914
 31
0.0
 70
   160
  1
<> mm
 71
     2
 42
-1.0
  3
SLDDIMSTYLE0
100
AcDbAlignedDimension
 13
68.3302737892
 23
96.7250544096
 33
0.0
 14
151.2302737892
 24
96.7250544096
 34
0.0
100
AcDbRotatedDimension
  0
DIMENSION
  5
19C
330
1F
100
AcDbEntity
  8
SLD-0
100
AcDbDimension
  2
_D_6
 10
48.1302737892
 20
242.1974732708
 30
0.0
 11
48.1302737892
 21
243.3020896983
 31
0.0
 70
   160
  1
%%c<>
 71
     2
 42
-1.0
  3
SLDDIMSTYLE2
100
AcDbAlignedDimension
 13
61.0802737892
 23
245.1974732708
 33
0.0
 14
61.0802737892
 24
242.1974732708
 34
0.0
 50
90.0
100
AcDbRotatedDimension
  0
DIMENSION
  5
1AA
330
1F
100
AcDbEntity
  8
SLD-0
100
AcDbDimension
  2
_D_7
 10
171.4302737892
 20
234.6974732708
 30
0.0
 11
171.4302737892
 21
243.3020896983
 31
0.0
 70
   160
  1
<> mm
 71
     2
 42
-1.0
  3
SLDDIMSTYLE2
100
AcDbAlignedDimension
 13
152.4302737892
 23
252.6974732708
 33
0.0
 14
152.4302737892
 24
234.6974732708
 34
0.0
 50
90.0
100
AcDbRotatedDimension
  0
DIMENSION
  5
1B7
330
1F
100
AcDbEntity
  8
SLD-0
100
AcDbDimension
  2
_D_8
 10
169.7339141696
 20
166.6974732708
 30
0.0
 11
169.7339141696
 21
174.5568575575
 31
0.0
 70
   160
  1
<> mm
 71
     2
 42
-1.0
  3
SLDDIMSTYLE2
100
AcDbAlignedDimension
 13
147.3302737892
 23
184.6974732708
 33
0.0
 14
147.3302737892
 24
166.6974732708
 34
0.0
 50
90.0
100
AcDbRotatedDimension
  0
DIMENSION
  5
1C4
330
1F
100
AcDbEntity
  8
SLD-0
100
AcDbDimension
  2
_D_9
 10
54.6165883002
 20
174.1974732708
 30
0.0
 11
54.6165883002
 21
174.5568575575
 31
0.0
 70
   160
  1
%%c<>
 71
     2
 42
-1.0
  3
SLDDIMSTYLE2
100
AcDbAlignedDimension
 13
66.1802737892
 23
177.1974732708
 33
0.0
 14
66.1802737892
 24
174.1974732708
 34
0.0
 50
90.0
100
AcDbRotatedDimension
  0
DIMENSION
  5
1D1
330
1F
100
AcDbEntity
  8
SLD-0
100
AcDbDimension
  2
_D_10
 10
59.5109905025
 20
106.1974732708
 30
0.0
 11
59.5109905025
 21
106.5389111883
 31
0.0
 70
   160
  1
%%c<>
 71
     2
 42
-1.0
  3
SLDDIMSTYLE2
100
AcDbAlignedDimension
 13
71.2802737892
 23
109.1974732708
 33
0.0
 14
71.2802737892
 24
106.1974732708
 34
0.0
 50
90.0
100
AcDbRotatedDimension
  0
DIMENSION
  5
1DE
330
1F
100
AcDbEntity
  8
SLD-0
100
AcDbDimension
  2
_D_11
 10
164.7337135091
 20
98.6974732708
 30
0.0
 11
164.7337135091
 21
106.5389111883
 31
0.0
 70
   160
  1
<> mm
 71
     2
 42
-1.0
  3
SLDDIMSTYLE2
100
AcDbAlignedDimension
 13
142.2302737892
 23
116.6974732708
 33
0.0
 14
142.2302737892
 24
98.6974732708
 34
0.0
 50
90.0
100
AcDbRotatedDimension
  0
MTEXT
  5
1EB
330
1F
100
AcDbEntity
  8
SLD-0
100
AcDbMText
 10
101.0272820864
 20
220.4379029919
 30
0.0
 40
3.5
 41
0.0
 71
     1
 72
     1
  1
XR8 Dual
  7
SLDTEXTSTYLE0
 73
     1
 44
1.0
  0
MTEXT
  5
1EC
330
1F
100
AcDbEntity
  8
SLD-0
100
AcDbMText
 10
101.5257277161
 20
151.3688523624
 30
0.0
 40
3.5
 41
0.0
 71
     1
 72
     1
  1
XR7 Dual
  7
SLDTEXTSTYLE0
 73
     1
 44
1.0
  0
LINE
  5
1ED
330
1F
100
AcDbEntity
  8
LAYER_1
100
AcDbLine
 10
135.0969231098
 20
43.8103090656
 30
0.0
 11
121.8784362425
 21
43.8103090656
 31
0.0
  0
LINE
  5
1EE
330
1F
100
AcDbEntity
  8
LAYER_1
100
AcDbLine
 10
116.8999287567
 20
46.8123652715
 30
0.0
 11
116.8999287567
 21
49.1171341511
 31
0.0
  0
LINE
  5
1EF
330
1F
100
AcDbEntity
  8
LAYER_1
100
AcDbLine
 10
121.8784362425
 20
52.119190357
 30
0.0
 11
135.0969231098
 21
52.119190357
 31
0.0
  0
LINE
  5
1F0
330
1F
100
AcDbEntity
  8
LAYER_1
100
AcDbLine
 10
135.0969231098
 20
52.119190357
 30
0.0
 11
135.0969231098
 21
49.6421667031
 31
0.0
  0
LINE
  5
1F1
330
1F
100
AcDbEntity
  8
LAYER_1
100
AcDbLine
 10
135.0969231098
 20
49.6421667031
 30
0.0
 11
121.8784362425
 21
49.6421667031
 31
0.0
  0
LINE
  5
1F2
330
1F
100
AcDbEntity
  8
LAYER_1
100
AcDbLine
 10
119.3772969202
 20
48.4784134482
 30
0.0
 11
119.3772969202
 21
47.4507414649
 31
0.0
  0
LINE
  5
1F3
330
1F
100
AcDbEntity
  8
LAYER_1
100
AcDbLine
 10
121.8784362425
 20
46.2873327195
 30
0.0
 11
135.0969231098
 21
46.2873327195
 31
0.0
  0
LINE
  5
1F4
330
1F
100
AcDbEntity
  8
LAYER_1
100
AcDbLine
 10
135.0969231098
 20
46.2873327195
 30
0.0
 11
135.0969231098
 21
43.8103090656
 31
0.0
  0
LINE
  5
1F5
330
1F
100
AcDbEntity
  8
LAYER_1
100
AcDbLine
 10
149.8185051374
 20
43.8103090656
 30
0.0
 11
145.882828055
 21
43.8103090656
 31
0.0
  0
LINE
  5
1F6
330
1F
100
AcDbEntity
  8
LAYER_1
100
AcDbLine
 10
145.882828055
 20
43.8103090656
 30
0.0
 11
145.882828055
 21
46.28698821
 31
0.0
  0
LINE
  5
1F7
330
1F
100
AcDbEntity
  8
LAYER_1
100
AcDbLine
 10
145.882828055
 20
46.28698821
 30
0.0
 11
149.8185051374
 21
46.28698821
 31
0.0
  0
LINE
  5
1F8
330
1F
100
AcDbEntity
  8
LAYER_1
100
AcDbLine
 10
136.2475850019
 20
52.119190357
 30
0.0
 11
138.7242641462
 21
52.119190357
 31
0.0
  0
LINE
  5
1F9
330
1F
100
AcDbEntity
  8
LAYER_1
100
AcDbLine
 10
138.7242641462
 20
52.119190357
 30
0.0
 11
138.7242641462
 21
50.6040373626
 31
0.0
  0
LINE
  5
1FA
330
1F
100
AcDbEntity
  8
LAYER_1
100
AcDbLine
 10
140.8622904044
 20
49.7806595416
 30
0.0
 11
152.3196444597
 21
49.7806595416
 31
0.0
  0
LINE
  5
1FB
330
1F
100
AcDbEntity
  8
LAYER_1
100
AcDbLine
 10
152.3196444597
 20
49.7806595416
 30
0.0
 11
152.3196444597
 21
52.119190357
 31
0.0
  0
LINE
  5
1FC
330
1F
100
AcDbEntity
  8
LAYER_1
100
AcDbLine
 10
152.3196444597
 20
52.119190357
 30
0.0
 11
154.7966681136
 21
52.119190357
 31
0.0
  0
LINE
  5
1FD
330
1F
100
AcDbEntity
  8
LAYER_1
100
AcDbLine
 10
154.7966681136
 20
52.119190357
 30
0.0
 11
154.7966681136
 21
47.1651430492
 31
0.0
  0
LINE
  5
1FE
330
1F
100
AcDbEntity
  8
LAYER_1
100
AcDbLine
 10
196.3667405316
 20
43.8103090656
 30
0.0
 11
193.8897168777
 21
43.8103090656
 31
0.0
  0
LINE
  5
1FF
330
1F
100
AcDbEntity
  8
LAYER_1
100
AcDbLine
 10
193.8897168777
 20
43.8103090656
 30
0.0
 11
193.8897168777
 21
52.119190357
 31
0.0
  0
LINE
  5
200
330
1F
100
AcDbEntity
  8
LAYER_1
100
AcDbLine
 10
193.8897168777
 20
52.119190357
 30
0.0
 11
196.3667405316
 21
52.119190357
 31
0.0
  0
LINE
  5
201
330
1F
100
AcDbEntity
  8
LAYER_1
100
AcDbLine
 10
196.3667405316
 20
52.119190357
 30
0.0
 11
196.3667405316
 21
43.8103090656
 31
0.0
  0
LINE
  5
202
330
1F
100
AcDbEntity
  8
LAYER_1
100
AcDbLine
 10
174.1438075944
 20
43.8103090656
 30
0.0
 11
160.9249762175
 21
43.8103090656
 31
0.0
  0
LINE
  5
203
330
1F
100
AcDbEntity
  8
LAYER_1
100
AcDbLine
 10
155.9466409865
 20
46.8123652715
 30
0.0
 11
155.9466409865
 21
49.1171341511
 31
0.0
  0
LINE
  5
204
330
1F
100
AcDbEntity
  8
LAYER_1
100
AcDbLine
 10
160.9249762175
 20
52.119190357
 30
0.0
 11
174.1438075944
 21
52.119190357
 31
0.0
  0
LINE
  5
205
330
1F
100
AcDbEntity
  8
LAYER_1
100
AcDbLine
 10
174.1438075944
 20
52.119190357
 30
0.0
 11
174.1438075944
 21
49.6421667031
 31
0.0
  0
LINE
  5
206
330
1F
100
AcDbEntity
  8
LAYER_1
100
AcDbLine
 10
174.1438075944
 20
49.6421667031
 30
0.0
 11
160.9249762175
 21
49.6421667031
 31
0.0
  0
LINE
  5
207
330
1F
100
AcDbEntity
  8
LAYER_1
100
AcDbLine
 10
158.4238368952
 20
48.4784134482
 30
0.0
 11
158.4238368952
 21
47.8035192426
 31
0.0
  0
LINE
  5
208
330
1F
100
AcDbEntity
  8
LAYER_1
100
AcDbLine
 10
160.9249762175
 20
46.2873327195
 30
0.0
 11
174.1438075944
 21
46.2873327195
 31
0.0
  0
LINE
  5
209
330
1F
100
AcDbEntity
  8
LAYER_1
100
AcDbLine
 10
174.1438075944
 20
46.2873327195
 30
0.0
 11
174.1438075944
 21
43.8103090656
 31
0.0
  0
LINE
  5
20A
330
1F
100
AcDbEntity
  8
LAYER_1
100
AcDbLine
 10
175.3061828111
 20
52.119190357
 30
0.0
 11
192.784530246
 21
52.119190357
 31
0.0
  0
LINE
  5
20B
330
1F
100
AcDbEntity
  8
LAYER_1
100
AcDbLine
 10
192.784530246
 20
52.119190357
 30
0.0
 11
192.784530246
 21
49.6425112126
 31
0.0
  0
LINE
  5
20C
330
1F
100
AcDbEntity
  8
LAYER_1
100
AcDbLine
 10
192.784530246
 20
49.6425112126
 30
0.0
 11
177.783206465
 21
49.6425112126
 31
0.0
  0
LINE
  5
20D
330
1F
100
AcDbEntity
  8
LAYER_1
100
AcDbLine
 10
177.783206465
 20
49.6425112126
 30
0.0
 11
177.7625358921
 21
48.6763341838
 31
0.0
  0
LINE
  5
20E
330
1F
100
AcDbEntity
  8
LAYER_1
100
AcDbLine
 10
177.7625358921
 20
48.6763341838
 30
0.0
 11
187.4198275564
 21
48.6690994833
 31
0.0
  0
LINE
  5
20F
330
1F
100
AcDbEntity
  8
LAYER_1
100
AcDbLine
 10
187.4198275564
 20
48.6690994833
 30
0.0
 11
187.4198275564
 21
46.1991382751
 31
0.0
  0
LINE
  5
210
330
1F
100
AcDbEntity
  8
LAYER_1
100
AcDbLine
 10
187.4198275564
 20
46.1991382751
 30
0.0
 11
177.7625358921
 21
46.1991382751
 31
0.0
  0
LINE
  5
211
330
1F
100
AcDbEntity
  8
LAYER_1
100
AcDbLine
 10
177.7625358921
 20
46.1991382751
 30
0.0
 11
177.783206465
 21
43.8103090656
 31
0.0
  0
LINE
  5
212
330
1F
100
AcDbEntity
  8
LAYER_1
100
AcDbLine
 10
177.783206465
 20
43.8103090656
 30
0.0
 11
175.3061828111
 21
43.8103090656
 31
0.0
  0
LINE
  5
213
330
1F
100
AcDbEntity
  8
LAYER_1
100
AcDbLine
 10
175.3061828111
 20
43.8103090656
 30
0.0
 11
175.3061828111
 21
52.119190357
 31
0.0
  0
SPLINE
  5
214
330
1F
100
AcDbEntity
  8
LAYER_1
100
AcDbSpline
210
0.0
220
0.0
230
1.0
 70
     8
 71
     3
 72
    17
 73
    13
 74
     0
 42
0.00000001
 43
0.00000001
 12
1.0
 22
0.0
 32
0.0
 13
1.0
 23
0.0
 33
0.0
 40
0.0
 40
0.0
 40
0.0
 40
0.0
 40
1.0
 40
2.0
 40
3.0
 40
4.0
 40
5.0
 40
6.0
 40
7.0
 40
8.0
 40
9.0
 40
10.0
 40
10.0
 40
10.0
 40
10.0
 10
121.8784362424519
 20
43.81030906564509
 30
0.0
 10
121.0722838989034
 20
43.81030906564509
 30
0.0
 10
120.3691399103639
 20
43.85268374011364
 30
0.0
 10
119.7879523020023
 20
43.93639956040523
 30
0.0
 10
119.1712802101426
 20
44.02493851437611
 30
0.0
 10
118.6483147154815
 20
44.18237937805203
 30
0.0
 10
118.2342142381546
 20
44.4032099986566
 30
0.0
 10
117.7835957486839
 20
44.6433331539785
 30
0.0
 10
117.4428758051927
 20
44.97096173462578
 30
0.0
 10
117.2220451845882
 20
45.37713849233671
 30
0.0
 10
117.0087937740512
 20
45.76919035855808
 30
0.0
 10
116.8999287567173
 20
46.25219274559017
 30
0.0
 10
116.8999287567173
 20
46.8123652714918
 30
0.0
  0
SPLINE
  5
215
330
1F
100
AcDbEntity
  8
LAYER_1
100
AcDbSpline
210
0.0
220
0.0
230
1.0
 70
     8
 71
     3
 72
    17
 73
    13
 74
     0
 42
0.00000001
 43
0.00000001
 12
1.0
 22
0.0
 32
0.0
 13
1.0
 23
0.0
 33
0.0
 40
0.0
 40
0.0
 40
0.0
 40
0.0
 40
1.0
 40
2.0
 40
3.0
 40
4.0
 40
5.0
 40
6.0
 40
7.0
 40
8.0
 40
9.0
 40
10.0
 40
10.0
 40
10.0
 40
10.0
 10
116.8999287567173
 20
49.1171341511239
 30
0.0
 10
116.8999287567173
 20
49.67730667702553
 30
0.0
 10
117.0087937740512
 20
50.16030906405761
 30
0.0
 10
117.2223896941368
 20
50.55270543982754
 30
0.0
 10
117.4428758051927
 20
50.95853768798991
 30
0.0
 10
117.7835957486839
 20
51.28616626863725
 30
0.0
 10
118.2345587477032
 20
51.52663393350765
 30
0.0
 10
118.6483147154815
 20
51.74712004456367
 30
0.0
 10
119.1712802101426
 20
51.90456090823958
 30
0.0
 10
119.7882968115508
 20
51.99309986221046
 30
0.0
 10
120.3715514772036
 20
52.07681568250205
 30
0.0
 10
121.0746954657431
 20
52.1191903569706
 30
0.0
 10
121.8784362424519
 20
52.1191903569706
 30
0.0
  0
SPLINE
  5
216
330
1F
100
AcDbEntity
  8
LAYER_1
100
AcDbSpline
210
0.0
220
0.0
230
1.0
 70
     8
 71
     3
 72
    17
 73
    13
 74
     0
 42
0.00000001
 43
0.00000001
 12
1.0
 22
0.0
 32
0.0
 13
1.0
 23
0.0
 33
0.0
 40
0.0
 40
0.0
 40
0.0
 40
0.0
 40
1.0
 40
2.0
 40
3.0
 40
4.0
 40
5.0
 40
6.0
 40
7.0
 40
8.0
 40
9.0
 40
10.0
 40
10.0
 40
10.0
 40
10.0
 10
121.8784362424519
 20
49.64216670307603
 30
0.0
 10
121.2204230047692
 20
49.64216670307603
 30
0.0
 10
120.6740308608085
 20
49.65801414230814
 30
0.0
 10
120.295070357431
 20
49.61563946783959
 30
0.0
 10
119.8682230268086
 20
49.56844165969165
 30
0.0
 10
119.7727938818671
 20
49.51538718921883
 30
0.0
 10
119.6711635650523
 20
49.45613154687251
 30
0.0
 10
119.5116556440853
 20
49.36311396877075
 30
0.0
 10
119.4775491987812
 20
49.22427662071516
 30
0.0
 10
119.4258727665025
 20
48.98139738900509
 30
0.0
 10
119.3896992639074
 20
48.68546368682214
 30
0.0
 10
119.3772969201605
 20
48.61656177711715
 30
0.0
 10
119.3772969201605
 20
48.47841344815856
 30
0.0
  0
SPLINE
  5
217
330
1F
100
AcDbEntity
  8
LAYER_1
100
AcDbSpline
210
0.0
220
0.0
230
1.0
 70
     8
 71
     3
 72
    17
 73
    13
 74
     0
 42
0.00000001
 43
0.00000001
 12
1.0
 22
0.0
 32
0.0
 13
1.0
 23
0.0
 33
0.0
 40
0.0
 40
0.0
 40
0.0
 40
0.0
 40
1.0
 40
2.0
 40
3.0
 40
4.0
 40
5.0
 40
6.0
 40
7.0
 40
8.0
 40
9.0
 40
10.0
 40
10.0
 40
10.0
 40
10.0
 10
119.3772969201605
 20
47.45074146490857
 30
0.0
 10
119.3772969201605
 20
47.31293764549854
 30
0.0
 10
119.4024461172029
 20
47.15480776272557
 30
0.0
 10
119.4275953142451
 20
46.94465693812538
 30
0.0
 10
119.4331074670215
 20
46.93707772805783
 30
0.0
 10
119.439997657992
 20
46.69109791041098
 30
0.0
 10
119.6529045589805
 20
46.52814489395868
 30
0.0
 10
119.9019849625641
 20
46.33763111362438
 30
0.0
 10
120.0294534955183
 20
46.38172833583554
 30
0.0
 10
120.316085439891
 20
46.35072247646826
 30
0.0
 10
120.6957349623656
 20
46.30972584019383
 30
0.0
 10
121.2211120238662
 20
46.28733271953972
 30
0.0
 10
121.8784362424519
 20
46.28733271953972
 30
0.0
  0
SPLINE
  5
218
330
1F
100
AcDbEntity
  8
LAYER_1
100
AcDbSpline
210
0.0
220
0.0
230
1.0
 70
     8
 71
     3
 72
    14
 73
    10
 74
     0
 42
0.00000001
 43
0.00000001
 12
1.0
 22
0.0
 32
0.0
 13
1.0
 23
0.0
 33
0.0
 40
0.0
 40
0.0
 40
0.0
 40
0.0
 40
1.0
 40
2.0
 40
3.0
 40
4.0
 40
5.0
 40
6.0
 40
7.0
 40
7.0
 40
7.0
 40
7.0
 10
149.8185051373766
 20
46.28698820999116
 30
0.0
 10
150.4758293559623
 20
46.28698820999116
 30
0.0
 10
151.028767181345
 20
46.28561017179711
 30
0.0
 10
151.40359357014
 20
46.32798484626566
 30
0.0
 10
151.8245842384376
 20
46.37483814486504
 30
0.0
 10
151.982369611662
 20
46.39964283235886
 30
0.0
 10
152.1187953928779
 20
46.51815411705146
 30
0.0
 10
152.2565992122879
 20
46.63804343993816
 30
0.0
 10
152.2290384484058
 20
47.28572139116516
 30
0.0
 10
152.2490200022203
 20
47.30398039723693
 30
0.0
  0
SPLINE
  5
219
330
1F
100
AcDbEntity
  8
LAYER_1
100
AcDbSpline
210
0.0
220
0.0
230
1.0
 70
     8
 71
     3
 72
    12
 73
     8
 74
     0
 42
0.00000001
 43
0.00000001
 12
1.0
 22
0.0
 32
0.0
 13
1.0
 23
0.0
 33
0.0
 40
0.0
 40
0.0
 40
0.0
 40
0.0
 40
1.0
 40
2.0
 40
3.0
 40
4.0
 40
5.0
 40
5.0
 40
5.0
 40
5.0
 10
152.2490200022203
 20
47.30398039723693
 30
0.0
 10
144.0128302256335
 20
47.2995017731061
 30
0.0
 10
140.8743482385709
 20
47.30398039723693
 30
0.0
 10
137.7358662515084
 20
47.30845902136777
 30
0.0
 10
136.2475850018804
 20
48.31752748899743
 30
0.0
 10
136.2475850018804
 20
50.63366518373091
 30
0.0
 10
136.2475850018804
 20
50.89532018583564
 30
0.0
 10
136.2475850018804
 20
52.1191903569706
 30
0.0
  0
SPLINE
  5
21A
330
1F
100
AcDbEntity
  8
LAYER_1
100
AcDbSpline
210
0.0
220
0.0
230
1.0
 70
     8
 71
     3
 72
    17
 73
    13
 74
     0
 42
0.00000001
 43
0.00000001
 12
1.0
 22
0.0
 32
0.0
 13
1.0
 23
0.0
 33
0.0
 40
0.0
 40
0.0
 40
0.0
 40
0.0
 40
1.0
 40
2.0
 40
3.0
 40
4.0
 40
5.0
 40
6.0
 40
7.0
 40
8.0
 40
9.0
 40
10.0
 40
10.0
 40
10.0
 40
10.0
 10
138.7242641462265
 20
50.60403736255775
 30
0.0
 10
138.7242641462265
 20
50.4417733652025
 30
0.0
 10
138.7463127573321
 20
50.59370207610198
 30
0.0
 10
138.791443508189
 20
50.42351435913067
 30
0.0
 10
138.8310621062693
 20
50.27399721507081
 30
0.0
 10
138.9523294673502
 20
50.13515986701522
 30
0.0
 10
139.0718742806882
 20
50.04455385575318
 30
0.0
 10
139.2368943544318
 20
49.92018590873565
 30
0.0
 10
139.3616068109977
 20
49.89744827853298
 30
0.0
 10
139.6423820930456
 20
49.85404007541882
 30
0.0
 10
139.9541632344607
 20
49.80546422907689
 30
0.0
 10
140.3648186163026
 20
49.78065954158306
 30
0.0
 10
140.8622904043726
 20
49.78065954158306
 30
0.0
  0
SPLINE
  5
21B
330
1F
100
AcDbEntity
  8
LAYER_1
100
AcDbSpline
210
0.0
220
0.0
230
1.0
 70
     8
 71
     3
 72
    17
 73
    13
 74
     0
 42
0.00000001
 43
0.00000001
 12
1.0
 22
0.0
 32
0.0
 13
1.0
 23
0.0
 33
0.0
 40
0.0
 40
0.0
 40
0.0
 40
0.0
 40
1.0
 40
2.0
 40
3.0
 40
4.0
 40
5.0
 40
6.0
 40
7.0
 40
8.0
 40
9.0
 40
10.0
 40
10.0
 40
10.0
 40
10.0
 10
154.7966681135626
 20
47.16514304918135
 30
0.0
 10
154.7966681135626
 20
46.60634856147389
 30
0.0
 10
154.6881476057772
 20
45.76884584900964
 30
0.0
 10
154.4745516856918
 20
45.37679398278821
 30
0.0
 10
154.2533765555387
 20
44.97061722507723
 30
0.0
 10
153.913001121596
 20
44.6433331539785
 30
0.0
 10
153.4627271416739
 20
44.40286548910804
 30
0.0
 10
153.0486266643468
 20
44.18169035895503
 30
0.0
 10
152.5260056792343
 20
44.02528302392466
 30
0.0
 10
151.9086445682777
 20
43.93639956040523
 30
0.0
 10
151.3257344121733
 20
43.85233923056514
 30
0.0
 10
150.6225904236339
 20
43.81030906564509
 30
0.0
 10
149.8185051373766
 20
43.81030906564509
 30
0.0
  0
SPLINE
  5
21C
330
1F
100
AcDbEntity
  8
LAYER_1
100
AcDbSpline
210
0.0
220
0.0
230
1.0
 70
     8
 71
     3
 72
    17
 73
    13
 74
     0
 42
0.00000001
 43
0.00000001
 12
1.0
 22
0.0
 32
0.0
 13
1.0
 23
0.0
 33
0.0
 40
0.0
 40
0.0
 40
0.0
 40
0.0
 40
1.0
 40
2.0
 40
3.0
 40
4.0
 40
5.0
 40
6.0
 40
7.0
 40
8.0
 40
9.0
 40
10.0
 40
10.0
 40
10.0
 40
10.0
 10
160.9249762174992
 20
43.81030906564509
 30
0.0
 10
160.1188238739508
 20
43.81030906564509
 30
0.0
 10
159.4153353758628
 20
43.85268374011364
 30
0.0
 10
158.8344922770496
 20
43.93639956040523
 30
0.0
 10
158.2178201851899
 20
44.02493851437611
 30
0.0
 10
157.694854690529
 20
44.18237937805203
 30
0.0
 10
157.280754213202
 20
44.4032099986566
 30
0.0
 10
156.8303079785056
 20
44.6433331539785
 30
0.0
 10
156.4895880350143
 20
44.97096173462578
 30
0.0
 10
156.2684129048614
 20
45.37713849233671
 30
0.0
 10
156.0551614943244
 20
45.76919035855808
 30
0.0
 10
155.946640986539
 20
46.25219274559017
 30
0.0
 10
155.946640986539
 20
46.8123652714918
 30
0.0
  0
SPLINE
  5
21D
330
1F
100
AcDbEntity
  8
LAYER_1
100
AcDbSpline
210
0.0
220
0.0
230
1.0
 70
     8
 71
     3
 72
    17
 73
    13
 74
     0
 42
0.00000001
 43
0.00000001
 12
1.0
 22
0.0
 32
0.0
 13
1.0
 23
0.0
 33
0.0
 40
0.0
 40
0.0
 40
0.0
 40
0.0
 40
1.0
 40
2.0
 40
3.0
 40
4.0
 40
5.0
 40
6.0
 40
7.0
 40
8.0
 40
9.0
 40
10.0
 40
10.0
 40
10.0
 40
10.0
 10
155.946640986539
 20
49.1171341511239
 30
0.0
 10
155.946640986539
 20
49.67730667702553
 30
0.0
 10
156.0551614943244
 20
50.16030906405761
 30
0.0
 10
156.2687574144099
 20
50.55270543982754
 30
0.0
 10
156.4895880350143
 20
50.95853768798991
 30
0.0
 10
156.8303079785056
 20
51.28616626863725
 30
0.0
 10
157.280754213202
 20
51.52663393350765
 30
0.0
 10
157.694854690529
 20
51.74712004456367
 30
0.0
 10
158.2178201851899
 20
51.90456090823958
 30
0.0
 10
158.8351812961467
 20
51.99309986221046
 30
0.0
 10
159.418091452251
 20
52.07681568250205
 30
0.0
 10
160.1215799503391
 20
52.1191903569706
 30
0.0
 10
160.9249762174992
 20
52.1191903569706
 30
0.0
  0
SPLINE
  5
21E
330
1F
100
AcDbEntity
  8
LAYER_1
100
AcDbSpline
210
0.0
220
0.0
230
1.0
 70
     8
 71
     3
 72
    17
 73
    13
 74
     0
 42
0.00000001
 43
0.00000001
 12
1.0
 22
0.0
 32
0.0
 13
1.0
 23
0.0
 33
0.0
 40
0.0
 40
0.0
 40
0.0
 40
0.0
 40
1.0
 40
2.0
 40
3.0
 40
4.0
 40
5.0
 40
6.0
 40
7.0
 40
8.0
 40
9.0
 40
10.0
 40
10.0
 40
10.0
 40
10.0
 10
160.9249762174992
 20
49.64216670307603
 30
0.0
 10
160.2669629798166
 20
49.64216670307603
 30
0.0
 10
159.7205708358559
 20
49.65801414230814
 30
0.0
 10
159.3416103324784
 20
49.61563946783959
 30
0.0
 10
158.9151075114045
 20
49.56844165969165
 30
0.0
 10
158.8193338569146
 20
49.51538718921883
 30
0.0
 10
158.7173590305512
 20
49.45613154687251
 30
0.0
 10
158.5581956191326
 20
49.36311396877075
 30
0.0
 10
158.5244336833772
 20
49.22427662071516
 30
0.0
 10
158.4727572510984
 20
48.98139738900509
 30
0.0
 10
158.4362392389548
 20
48.68546368682214
 30
0.0
 10
158.4238368952079
 20
48.61656177711715
 30
0.0
 10
158.4238368952079
 20
48.47841344815856
 30
0.0
  0
SPLINE
  5
21F
330
1F
100
AcDbEntity
  8
LAYER_1
100
AcDbSpline
210
0.0
220
0.0
230
1.0
 70
     8
 71
     3
 72
    17
 73
    13
 74
     0
 42
0.00000001
 43
0.00000001
 12
1.0
 22
0.0
 32
0.0
 13
1.0
 23
0.0
 33
0.0
 40
0.0
 40
0.0
 40
0.0
 40
0.0
 40
1.0
 40
2.0
 40
3.0
 40
4.0
 40
5.0
 40
6.0
 40
7.0
 40
8.0
 40
9.0
 40
10.0
 40
10.0
 40
10.0
 40
10.0
 10
158.4238368952079
 20
47.80351924259818
 30
0.0
 10
158.4238368952079
 20
47.66571542318815
 30
0.0
 10
158.4486415827017
 20
47.15480776272557
 30
0.0
 10
158.4741352892925
 20
46.94465693812538
 30
0.0
 10
158.4796474420689
 20
46.93707772805783
 30
0.0
 10
158.4865376330394
 20
46.69109791041098
 30
0.0
 10
158.6994445340278
 20
46.52814489395868
 30
0.0
 10
158.9481804280629
 20
46.33763111362438
 30
0.0
 10
159.0763379801142
 20
46.38172833583554
 30
0.0
 10
159.3629699244869
 20
46.35072247646826
 30
0.0
 10
159.7419304278644
 20
46.30972584019383
 30
0.0
 10
160.2676519989136
 20
46.28733271953972
 30
0.0
 10
160.9249762174992
 20
46.28733271953972
 30
0.0
  0
INSERT
  5
220
330
1F
100
AcDbEntity
  8
0
  6
Continuous
 62
     7
100
AcDbBlockReference
  2
BLOCK 2
 10
109.6266431683
 20
58.4505868398
 30
0.0
  0
HATCH
  5
221
330
1F
100
AcDbEntity
  8
LAYER_1
 62
   250
100
AcDbHatch
 10
0.0
 20
0.0
 30
0.0
210
0.0
220
0.0
230
1.0
  2
SOLID
 70
     1
 71
     0
 91
        1
 92
        0
 93
       12
 72
     1
 10
135.0969231098069
 20
46.28733271953972
 11
135.0969231098069
 21
43.81030906564509
 72
     1
 10
135.0969231098069
 20
43.81030906564509
 11
121.8784362424519
 21
43.81030906564509
 72
     4
 94
        3
 73
     1
 74
     0
 95
       17
 96
       13
 40
0.0
 40
0.0
 40
0.0
 40
0.0
 40
1.0
 40
2.0
 40
3.0
 40
4.0
 40
5.0
 40
6.0
 40
7.0
 40
8.0
 40
9.0
 40
10.0
 40
10.0
 40
10.0
 40
10.0
 10
121.8784362424519
 20
43.81030906564509
 42
1.0
 10
121.0722838989034
 20
43.81030906564509
 42
1.0
 10
120.3691399103639
 20
43.85268374011364
 42
1.0
 10
119.7879523020023
 20
43.93639956040523
 42
1.0
 10
119.1712802101426
 20
44.02493851437611
 42
1.0
 10
118.6483147154815
 20
44.18237937805203
 42
1.0
 10
118.2342142381546
 20
44.4032099986566
 42
1.0
 10
117.7835957486839
 20
44.6433331539785
 42
1.0
 10
117.4428758051927
 20
44.97096173462578
 42
1.0
 10
117.2220451845882
 20
45.37713849233671
 42
1.0
 10
117.0087937740512
 20
45.76919035855808
 42
1.0
 10
116.8999287567173
 20
46.25219274559017
 42
1.0
 10
116.8999287567173
 20
46.8123652714918
 42
1.0
 72
     1
 10
116.8999287567173
 20
46.8123652714918
 11
116.8999287567173
 21
49.1171341511239
 72
     4
 94
        3
 73
     1
 74
     0
 95
       17
 96
       13
 40
0.0
 40
0.0
 40
0.0
 40
0.0
 40
1.0
 40
2.0
 40
3.0
 40
4.0
 40
5.0
 40
6.0
 40
7.0
 40
8.0
 40
9.0
 40
10.0
 40
10.0
 40
10.0
 40
10.0
 10
116.8999287567173
 20
49.1171341511239
 42
1.0
 10
116.8999287567173
 20
49.67730667702553
 42
1.0
 10
117.0087937740512
 20
50.16030906405761
 42
1.0
 10
117.2223896941368
 20
50.55270543982754
 42
1.0
 10
117.4428758051927
 20
50.95853768798991
 42
1.0
 10
117.7835957486839
 20
51.28616626863725
 42
1.0
 10
118.2345587477032
 20
51.52663393350765
 42
1.0
 10
118.6483147154815
 20
51.74712004456367
 42
1.0
 10
119.1712802101426
 20
51.90456090823958
 42
1.0
 10
119.7882968115508
 20
51.99309986221046
 42
1.0
 10
120.3715514772036
 20
52.07681568250205
 42
1.0
 10
121.0746954657431
 20
52.1191903569706
 42
1.0
 10
121.8784362424519
 20
52.1191903569706
 42
1.0
 72
     1
 10
121.8784362424519
 20
52.1191903569706
 11
135.0969231098069
 21
52.1191903569706
 72
     1
 10
135.0969231098069
 20
52.1191903569706
 11
135.0969231098069
 21
49.64216670307603
 72
     1
 10
135.0969231098069
 20
49.64216670307603
 11
121.8784362424519
 21
49.64216670307603
 72
     4
 94
        3
 73
     1
 74
     0
 95
       17
 96
       13
 40
0.0
 40
0.0
 40
0.0
 40
0.0
 40
1.0
 40
2.0
 40
3.0
 40
4.0
 40
5.0
 40
6.0
 40
7.0
 40
8.0
 40
9.0
 40
10.0
 40
10.0
 40
10.0
 40
10.0
 10
121.8784362424519
 20
49.64216670307603
 42
1.0
 10
121.2204230047692
 20
49.64216670307603
 42
1.0
 10
120.6740308608085
 20
49.65801414230814
 42
1.0
 10
120.295070357431
 20
49.61563946783959
 42
1.0
 10
119.8682230268086
 20
49.56844165969165
 42
1.0
 10
119.7727938818671
 20
49.51538718921883
 42
1.0
 10
119.6711635650523
 20
49.45613154687251
 42
1.0
 10
119.5116556440853
 20
49.36311396877075
 42
1.0
 10
119.4775491987812
 20
49.22427662071516
 42
1.0
 10
119.4258727665025
 20
48.98139738900509
 42
1.0
 10
119.3896992639074
 20
48.68546368682214
 42
1.0
 10
119.3772969201605
 20
48.61656177711715
 42
1.0
 10
119.3772969201605
 20
48.47841344815856
 42
1.0
 72
     1
 10
119.3772969201605
 20
48.47841344815856
 11
119.3772969201605
 21
47.45074146490857
 72
     4
 94
        3
 73
     1
 74
     0
 95
       17
 96
       13
 40
0.0
 40
0.0
 40
0.0
 40
0.0
 40
1.0
 40
2.0
 40
3.0
 40
4.0
 40
5.0
 40
6.0
 40
7.0
 40
8.0
 40
9.0
 40
10.0
 40
10.0
 40
10.0
 40
10.0
 10
119.3772969201605
 20
47.45074146490857
 42
1.0
 10
119.3772969201605
 20
47.31293764549854
 42
1.0
 10
119.4024461172029
 20
47.15480776272557
 42
1.0
 10
119.4275953142451
 20
46.94465693812538
 42
1.0
 10
119.4331074670215
 20
46.93707772805783
 42
1.0
 10
119.439997657992
 20
46.69109791041098
 42
1.0
 10
119.6529045589805
 20
46.52814489395868
 42
1.0
 10
119.9019849625641
 20
46.33763111362438
 42
1.0
 10
120.0294534955183
 20
46.38172833583554
 42
1.0
 10
120.316085439891
 20
46.35072247646826
 42
1.0
 10
120.6957349623656
 20
46.30972584019383
 42
1.0
 10
121.2211120238662
 20
46.28733271953972
 42
1.0
 10
121.8784362424519
 20
46.28733271953972
 42
1.0
 72
     1
 10
121.8784362424519
 20
46.28733271953972
 11
135.0969231098069
 21
46.28733271953972
 97
        0
 75
     0
 76
     1
 98
        1
 10
0.0
 20
0.0
  0
HATCH
  5
222
330
1F
100
AcDbEntity
  8
LAYER_1
 62
   250
100
AcDbHatch
 10
0.0
 20
0.0
 30
0.0
210
0.0
220
0.0
230
1.0
  2
SOLID
 70
     1
 71
     0
 91
        1
 92
        0
 93
       13
 72
     4
 94
        3
 73
     1
 74
     0
 95
       17
 96
       13
 40
0.0
 40
0.0
 40
0.0
 40
0.0
 40
1.0
 40
2.0
 40
3.0
 40
4.0
 40
5.0
 40
6.0
 40
7.0
 40
8.0
 40
9.0
 40
10.0
 40
10.0
 40
10.0
 40
10.0
 10
154.7966681135626
 20
47.16514304918135
 42
1.0
 10
154.7966681135626
 20
46.60634856147389
 42
1.0
 10
154.6881476057772
 20
45.76884584900964
 42
1.0
 10
154.4745516856918
 20
45.37679398278821
 42
1.0
 10
154.2533765555387
 20
44.97061722507723
 42
1.0
 10
153.913001121596
 20
44.6433331539785
 42
1.0
 10
153.4627271416739
 20
44.40286548910804
 42
1.0
 10
153.0486266643468
 20
44.18169035895503
 42
1.0
 10
152.5260056792343
 20
44.02528302392466
 42
1.0
 10
151.9086445682777
 20
43.93639956040523
 42
1.0
 10
151.3257344121733
 20
43.85233923056514
 42
1.0
 10
150.6225904236339
 20
43.81030906564509
 42
1.0
 10
149.8185051373766
 20
43.81030906564509
 42
1.0
 72
     1
 10
149.8185051373766
 20
43.81030906564509
 11
145.8828280550271
 21
43.81030906564509
 72
     1
 10
145.8828280550271
 20
43.81030906564509
 11
145.8828280550271
 21
46.28698820999116
 72
     1
 10
145.8828280550271
 20
46.28698820999116
 11
149.8185051373766
 21
46.28698820999116
 72
     4
 94
        3
 73
     1
 74
     0
 95
       14
 96
       10
 40
0.0
 40
0.0
 40
0.0
 40
0.0
 40
1.0
 40
2.0
 40
3.0
 40
4.0
 40
5.0
 40
6.0
 40
7.0
 40
7.0
 40
7.0
 40
7.0
 10
149.8185051373766
 20
46.28698820999116
 42
1.0
 10
150.4758293559623
 20
46.28698820999116
 42
1.0
 10
151.028767181345
 20
46.28561017179711
 42
1.0
 10
151.40359357014
 20
46.32798484626566
 42
1.0
 10
151.8245842384376
 20
46.37483814486504
 42
1.0
 10
151.982369611662
 20
46.39964283235886
 42
1.0
 10
152.1187953928779
 20
46.51815411705146
 42
1.0
 10
152.2565992122879
 20
46.63804343993816
 42
1.0
 10
152.2290384484058
 20
47.28572139116516
 42
1.0
 10
152.2490200022203
 20
47.30398039723693
 42
1.0
 72
     4
 94
        3
 73
     1
 74
     0
 95
       12
 96
        8
 40
0.0
 40
0.0
 40
0.0
 40
0.0
 40
1.0
 40
2.0
 40
3.0
 40
4.0
 40
5.0
 40
5.0
 40
5.0
 40
5.0
 10
152.2490200022203
 20
47.30398039723693
 42
1.0
 10
144.0128302256335
 20
47.2995017731061
 42
1.0
 10
140.8743482385709
 20
47.30398039723693
 42
1.0
 10
137.7358662515084
 20
47.30845902136777
 42
1.0
 10
136.2475850018804
 20
48.31752748899743
 42
1.0
 10
136.2475850018804
 20
50.63366518373091
 42
1.0
 10
136.2475850018804
 20
50.89532018583564
 42
1.0
 10
136.2475850018804
 20
52.1191903569706
 42
1.0
 72
     1
 10
136.2475850018804
 20
52.1191903569706
 11
138.7242641462265
 21
52.1191903569706
 72
     1
 10
138.7242641462265
 20
52.1191903569706
 11
138.7242641462265
 21
50.60403736255775
 72
     4
 94
        3
 73
     1
 74
     0
 95
       17
 96
       13
 40
0.0
 40
0.0
 40
0.0
 40
0.0
 40
1.0
 40
2.0
 40
3.0
 40
4.0
 40
5.0
 40
6.0
 40
7.0
 40
8.0
 40
9.0
 40
10.0
 40
10.0
 40
10.0
 40
10.0
 10
138.7242641462265
 20
50.60403736255775
 42
1.0
 10
138.7242641462265
 20
50.4417733652025
 42
1.0
 10
138.7463127573321
 20
50.59370207610198
 42
1.0
 10
138.791443508189
 20
50.42351435913067
 42
1.0
 10
138.8310621062693
 20
50.27399721507081
 42
1.0
 10
138.9523294673502
 20
50.13515986701522
 42
1.0
 10
139.0718742806882
 20
50.04455385575318
 42
1.0
 10
139.2368943544318
 20
49.92018590873565
 42
1.0
 10
139.3616068109977
 20
49.89744827853298
 42
1.0
 10
139.6423820930456
 20
49.85404007541882
 42
1.0
 10
139.9541632344607
 20
49.80546422907689
 42
1.0
 10
140.3648186163026
 20
49.78065954158306
 42
1.0
 10
140.8622904043726
 20
49.78065954158306
 42
1.0
 72
     1
 10
140.8622904043726
 20
49.78065954158306
 11
152.319644459668
 21
49.78065954158306
 72
     1
 10
152.319644459668
 20
49.78065954158306
 11
152.319644459668
 21
52.1191903569706
 72
     1
 10
152.319644459668
 20
52.1191903569706
 11
154.7966681135626
 21
52.1191903569706
 72
     1
 10
154.7966681135626
 20
52.1191903569706
 11
154.7966681135626
 21
47.16514304918135
 97
        0
 75
     0
 76
     1
 98
        1
 10
0.0
 20
0.0
  0
HATCH
  5
223
330
1F
100
AcDbEntity
  8
LAYER_1
 62
   250
100
AcDbHatch
 10
0.0
 20
0.0
 30
0.0
210
0.0
220
0.0
230
1.0
  2
SOLID
 70
     1
 71
     0
 91
        1
 92
        0
 93
        4
 72
     1
 10
196.3667405315555
 20
52.1191903569706
 11
196.3667405315555
 21
43.81030906564509
 72
     1
 10
196.3667405315555
 20
43.81030906564509
 11
193.8897168776609
 21
43.81030906564509
 72
     1
 10
193.8897168776609
 20
43.81030906564509
 11
193.8897168776609
 21
52.1191903569706
 72
     1
 10
193.8897168776609
 20
52.1191903569706
 11
196.3667405315555
 21
52.1191903569706
 97
        0
 75
     0
 76
     1
 98
        1
 10
0.0
 20
0.0
  0
HATCH
  5
224
330
1F
100
AcDbEntity
  8
LAYER_1
 62
   250
100
AcDbHatch
 10
0.0
 20
0.0
 30
0.0
210
0.0
220
0.0
230
1.0
  2
SOLID
 70
     1
 71
     0
 91
        1
 92
        0
 93
       12
 72
     1
 10
174.1438075944029
 20
46.28733271953972
 11
174.1438075944029
 21
43.81030906564509
 72
     1
 10
174.1438075944029
 20
43.81030906564509
 11
160.9249762174992
 21
43.81030906564509
 72
     4
 94
        3
 73
     1
 74
     0
 95
       17
 96
       13
 40
0.0
 40
0.0
 40
0.0
 40
0.0
 40
1.0
 40
2.0
 40
3.0
 40
4.0
 40
5.0
 40
6.0
 40
7.0
 40
8.0
 40
9.0
 40
10.0
 40
10.0
 40
10.0
 40
10.0
 10
160.9249762174992
 20
43.81030906564509
 42
1.0
 10
160.1188238739508
 20
43.81030906564509
 42
1.0
 10
159.4153353758628
 20
43.85268374011364
 42
1.0
 10
158.8344922770496
 20
43.93639956040523
 42
1.0
 10
158.2178201851899
 20
44.02493851437611
 42
1.0
 10
157.694854690529
 20
44.18237937805203
 42
1.0
 10
157.280754213202
 20
44.4032099986566
 42
1.0
 10
156.8303079785056
 20
44.6433331539785
 42
1.0
 10
156.4895880350143
 20
44.97096173462578
 42
1.0
 10
156.2684129048614
 20
45.37713849233671
 42
1.0
 10
156.0551614943244
 20
45.76919035855808
 42
1.0
 10
155.946640986539
 20
46.25219274559017
 42
1.0
 10
155.946640986539
 20
46.8123652714918
 42
1.0
 72
     1
 10
155.946640986539
 20
46.8123652714918
 11
155.946640986539
 21
49.1171341511239
 72
     4
 94
        3
 73
     1
 74
     0
 95
       17
 96
       13
 40
0.0
 40
0.0
 40
0.0
 40
0.0
 40
1.0
 40
2.0
 40
3.0
 40
4.0
 40
5.0
 40
6.0
 40
7.0
 40
8.0
 40
9.0
 40
10.0
 40
10.0
 40
10.0
 40
10.0
 10
155.946640986539
 20
49.1171341511239
 42
1.0
 10
155.946640986539
 20
49.67730667702553
 42
1.0
 10
156.0551614943244
 20
50.16030906405761
 42
1.0
 10
156.2687574144099
 20
50.55270543982754
 42
1.0
 10
156.4895880350143
 20
50.95853768798991
 42
1.0
 10
156.8303079785056
 20
51.28616626863725
 42
1.0
 10
157.280754213202
 20
51.52663393350765
 42
1.0
 10
157.694854690529
 20
51.74712004456367
 42
1.0
 10
158.2178201851899
 20
51.90456090823958
 42
1.0
 10
158.8351812961467
 20
51.99309986221046
 42
1.0
 10
159.418091452251
 20
52.07681568250205
 42
1.0
 10
160.1215799503391
 20
52.1191903569706
 42
1.0
 10
160.9249762174992
 20
52.1191903569706
 42
1.0
 72
     1
 10
160.9249762174992
 20
52.1191903569706
 11
174.1438075944029
 21
52.1191903569706
 72
     1
 10
174.1438075944029
 20
52.1191903569706
 11
174.1438075944029
 21
49.64216670307603
 72
     1
 10
174.1438075944029
 20
49.64216670307603
 11
160.9249762174992
 21
49.64216670307603
 72
     4
 94
        3
 73
     1
 74
     0
 95
       17
 96
       13
 40
0.0
 40
0.0
 40
0.0
 40
0.0
 40
1.0
 40
2.0
 40
3.0
 40
4.0
 40
5.0
 40
6.0
 40
7.0
 40
8.0
 40
9.0
 40
10.0
 40
10.0
 40
10.0
 40
10.0
 10
160.9249762174992
 20
49.64216670307603
 42
1.0
 10
160.2669629798166
 20
49.64216670307603
 42
1.0
 10
159.7205708358559
 20
49.65801414230814
 42
1.0
 10
159.3416103324784
 20
49.61563946783959
 42
1.0
 10
158.9151075114045
 20
49.56844165969165
 42
1.0
 10
158.8193338569146
 20
49.51538718921883
 42
1.0
 10
158.7173590305512
 20
49.45613154687251
 42
1.0
 10
158.5581956191326
 20
49.36311396877075
 42
1.0
 10
158.5244336833772
 20
49.22427662071516
 42
1.0
 10
158.4727572510984
 20
48.98139738900509
 42
1.0
 10
158.4362392389548
 20
48.68546368682214
 42
1.0
 10
158.4238368952079
 20
48.61656177711715
 42
1.0
 10
158.4238368952079
 20
48.47841344815856
 42
1.0
 72
     1
 10
158.4238368952079
 20
48.47841344815856
 11
158.4238368952079
 21
47.80351924259818
 72
     4
 94
        3
 73
     1
 74
     0
 95
       17
 96
       13
 40
0.0
 40
0.0
 40
0.0
 40
0.0
 40
1.0
 40
2.0
 40
3.0
 40
4.0
 40
5.0
 40
6.0
 40
7.0
 40
8.0
 40
9.0
 40
10.0
 40
10.0
 40
10.0
 40
10.0
 10
158.4238368952079
 20
47.80351924259818
 42
1.0
 10
158.4238368952079
 20
47.66571542318815
 42
1.0
 10
158.4486415827017
 20
47.15480776272557
 42
1.0
 10
158.4741352892925
 20
46.94465693812538
 42
1.0
 10
158.4796474420689
 20
46.93707772805783
 42
1.0
 10
158.4865376330394
 20
46.69109791041098
 42
1.0
 10
158.6994445340278
 20
46.52814489395868
 42
1.0
 10
158.9481804280629
 20
46.33763111362438
 42
1.0
 10
159.0763379801142
 20
46.38172833583554
 42
1.0
 10
159.3629699244869
 20
46.35072247646826
 42
1.0
 10
159.7419304278644
 20
46.30972584019383
 42
1.0
 10
160.2676519989136
 20
46.28733271953972
 42
1.0
 10
160.9249762174992
 20
46.28733271953972
 42
1.0
 72
     1
 10
160.9249762174992
 20
46.28733271953972
 11
174.1438075944029
 21
46.28733271953972
 97
        0
 75
     0
 76
     1
 98
        1
 10
0.0
 20
0.0
  0
HATCH
  5
225
330
1F
100
AcDbEntity
  8
LAYER_1
 62
   250
100
AcDbHatch
 10
0.0
 20
0.0
 30
0.0
210
0.0
220
0.0
230
1.0
  2
SOLID
 70
     1
 71
     0
 91
        1
 92
        0
 93
       10
 72
     1
 10
175.3061828111261
 20
43.81030906564509
 11
175.3061828111261
 21
52.1191903569706
 72
     1
 10
175.3061828111261
 20
52.1191903569706
 11
192.7845302459927
 21
52.1191903569706
 72
     1
 10
192.7845302459927
 20
52.1191903569706
 11
192.7845302459927
 21
49.64251121262453
 72
     1
 10
192.7845302459927
 20
49.64251121262453
 11
177.7832064650208
 21
49.64251121262453
 72
     1
 10
177.7832064650208
 20
49.64251121262453
 11
177.7625358921093
 21
48.6763341837862
 72
     1
 10
177.7625358921093
 20
48.6763341837862
 11
187.4198275563617
 21
48.6690994832672
 72
     1
 10
187.4198275563617
 20
48.6690994832672
 11
187.4198275563617
 21
46.19913827511735
 72
     1
 10
187.4198275563617
 20
46.19913827511735
 11
177.7625358921093
 21
46.19913827511735
 72
     1
 10
177.7625358921093
 20
46.19913827511735
 11
177.7832064650208
 21
43.81030906564509
 72
     1
 10
177.7832064650208
 20
43.81030906564509
 11
175.3061828111261
 21
43.81030906564509
 97
        0
 75
     0
 76
     1
 98
        1
 10
0.0
 20
0.0
  0
ENDSEC
  0
SECTION
  2
OBJECTS
  0
DICTIONARY
  5
C
330
0
100
AcDbDictionary
281
     1
  3
ACAD_GROUP
350
D
  3
ACAD_LAYOUT
350
1A
  3
ACAD_MLINESTYLE
350
17
  3
ACAD_PLOTSETTINGS
350
19
  3
ACAD_PLOTSTYLENAME
350
E
  0
DICTIONARY
  5
D
102
{ACAD_REACTORS
330
C
102
}
330
C
100
AcDbDictionary
281
     1
  0
DICTIONARY
  5
1A
102
{ACAD_REACTORS
330
C
102
}
330
C
100
AcDbDictionary
281
     1
  3
Layout1
350
1E
  3
Layout2
350
26
  3
Model
350
22
  0
DICTIONARY
  5
17
102
{ACAD_REACTORS
330
C
102
}
330
C
100
AcDbDictionary
281
     1
  3
Standard
350
18
  0
DICTIONARY
  5
19
102
{ACAD_REACTORS
330
C
102
}
330
C
100
AcDbDictionary
281
     1
  0
ACDBDICTIONARYWDFLT
  5
E
102
{ACAD_REACTORS
330
C
102
}
330
C
100
AcDbDictionary
281
     1
  3
Normal
350
F
100
AcDbDictionaryWithDefault
340
F
  0
LAYOUT
  5
1E
102
{ACAD_REACTORS
330
1A
102
}
330
1A
100
AcDbPlotSettings
  1

  2
none_device
  4

  6

 40
0.0
 41
0.0
 42
0.0
 43
0.0
 44
0.0
 45
0.0
 46
0.0
 47
0.0
 48
0.0
 49
0.0
140
0.0
141
0.0
142
1.0
143
1.0
 70
   688
 72
     0
 73
     0
 74
     5
  7

 75
    16
147
1.0
148
0.0
149
0.0
100
AcDbLayout
  1
Layout1
 70
     1
 71
     1
 10
0.0
 20
0.0
 11
420.0
 21
297.0
 12
0.0
 22
0.0
 32
0.0
 14
1.0000000000E+20
 24
1.0000000000E+20
 34
1.0000000000E+20
 15
-1.0000000000E+20
 25
-1.0000000000E+20
 35
-1.0000000000E+20
146
0.0
 13
0.0
 23
0.0
 33
0.0
 16
1.0
 26
0.0
 36
0.0
 17
0.0
 27
1.0
 37
0.0
 76
     0
330
1B
  0
LAYOUT
  5
26
102
{ACAD_REACTORS
330
1A
102
}
330
1A
100
AcDbPlotSettings
  1

  2
none_device
  4

  6

 40
0.0
 41
0.0
 42
0.0
 43
0.0
 44
0.0
 45
0.0
 46
0.0
 47
0.0
 48
0.0
 49
0.0
140
0.0
141
0.0
142
1.0
143
1.0
 70
   688
 72
     0
 73
     0
 74
     5
  7

 75
    16
147
1.0
148
0.0
149
0.0
100
AcDbLayout
  1
Layout2
 70
     1
 71
     2
 10
0.0
 20
0.0
 11
0.0
 21
0.0
 12
0.0
 22
0.0
 32
0.0
 14
0.0
 24
0.0
 34
0.0
 15
0.0
 25
0.0
 35
0.0
146
0.0
 13
0.0
 23
0.0
 33
0.0
 16
1.0
 26
0.0
 36
0.0
 17
0.0
 27
1.0
 37
0.0
 76
     0
330
23
  0
LAYOUT
  5
22
102
{ACAD_REACTORS
330
1A
102
}
330
1A
100
AcDbPlotSettings
  1

  2
none_device
  4

  6

 40
0.0
 41
0.0
 42
0.0
 43
0.0
 44
0.0
 45
0.0
 46
0.0
 47
0.0
 48
0.0
 49
0.0
140
0.0
141
0.0
142
1.0
143
1.0
 70
  1712
 72
     0
 73
     0
 74
     0
  7

 75
     0
147
1.0
148
0.0
149
0.0
100
AcDbLayout
  1
Model
 70
     1
 71
     0
 10
0.0
 20
0.0
 11
210.0
 21
297.0
 12
0.0
 22
0.0
 32
0.0
 14
0.0
 24
0.0
 34
0.0
 15
210.0
 25
297.0
 35
0.0
146
0.0
 13
0.0
 23
0.0
 33
0.0
 16
1.0
 26
0.0
 36
0.0
 17
0.0
 27
1.0
 37
0.0
 76
     0
330
1F
331
29
  0
MLINESTYLE
  5
18
102
{ACAD_REACTORS
330
17
102
}
330
17
100
AcDbMlineStyle
  2
Standard
 70
     0
  3

 62
   256
 51
90.0
 52
90.0
 71
     2
 49
0.5
 62
   256
  6
BYLAYER
 49
-0.5
 62
   256
  6
BYLAYER
  0
ACDBPLACEHOLDER
  5
F
102
{ACAD_REACTORS
330
E
102
}
330
E
  0
ENDSEC
  0
EOF
