  0
SECTION
  2
HEADER
  9
$ACADVER
  1
AC1015
  9
$ACADMAINTVER
 70
     6
  9
$DWGCODEPAGE
  3
ANSI_1252
  9
$INSBASE
 10
0.0
 20
0.0
 30
0.0
  9
$EXTMIN
 10
0.0
 20
0.0
 30
0.0
  9
$EXTMAX
 10
210.0
 20
297.0
 30
0.0
  9
$LIMMIN
 10
0.0
 20
0.0
  9
$LIMMAX
 10
210.0
 20
297.0
  9
$ORTHOMODE
 70
     0
  9
$REGENMODE
 70
     1
  9
$FILLMODE
 70
     1
  9
$QTEXTMODE
 70
     0
  9
$MIRRTEXT
 70
     1
  9
$LTSCALE
 40
1.0
  9
$ATTMODE
 70
     1
  9
$TEXTSIZE
 40
4.5861111111
  9
$TRACEWID
 40
1.0
  9
$TEXTSTYLE
  7
Standard
  9
$CLAYER
  8
0
  9
$CELTYPE
  6
ByLayer
  9
$CECOLOR
 62
   256
  9
$CELTSCALE
 40
1.0
  9
$DISPSILH
 70
     0
  9
$DIMSCALE
 40
1.0
  9
$DIMASZ
 40
3.556
  9
$DIMEXO
 40
1.0
  9
$DIMDLI
 40
3.75
  9
$DIMRND
 40
0.0
  9
$DIMDLE
 40
0.0
  9
$DIMEXE
 40
1.0
  9
$DIMTP
 40
0.0
  9
$DIMTM
 40
0.0
  9
$DIMTXT
 40
3.8805555556
  9
$DIMCEN
 40
2.5
  9
$DIMTSZ
 40
0.0
  9
$DIMTOL
 70
     0
  9
$DIMLIM
 70
     0
  9
$DIMTIH
 70
     1
  9
$DIMTOH
 70
     1
  9
$DIMSE1
 70
     0
  9
$DIMSE2
 70
     0
  9
$DIMTAD
 70
     1
  9
$DIMZIN
 70
     1
  9
$DIMBLK
  1

  9
$DIMASO
 70
     1
  9
$DIMSHO
 70
     1
  9
$DIMPOST
  1

  9
$DIMAPOST
  1

  9
$DIMALT
 70
     0
  9
$DIMALTD
 70
     3
  9
$DIMALTF
 40
0.0393700787
  9
$DIMLFAC
 40
5.0
  9
$DIMTOFL
 70
     1
  9
$DIMTVP
 40
0.0
  9
$DIMTIX
 70
     0
  9
$DIMSOXD
 70
     0
  9
$DIMSAH
 70
     0
  9
$DIMBLK1
  1

  9
$DIMBLK2
  1

  9
$DIMSTYLE
  2
ISO-25
  9
$DIMCLRD
 70
     0
  9
$DIMCLRE
 70
     0
  9
$DIMCLRT
 70
     0
  9
$DIMTFAC
 40
1.0
  9
$DIMGAP
 40
1.524
  9
$DIMJUST
 70
     0
  9
$DIMSD1
 70
     0
  9
$DIMSD2
 70
     0
  9
$DIMTOLJ
 70
     0
  9
$DIMTZIN
 70
     1
  9
$DIMALTZ
 70
     0
  9
$DIMALTTZ
 70
     0
  9
$DIMUPT
 70
     0
  9
$DIMDEC
 70
     2
  9
$DIMTDEC
 70
     2
  9
$DIMALTU
 70
     2
  9
$DIMALTTD
 70
     3
  9
$DIMTXSTY
  7
Standard
  9
$DIMAUNIT
 70
     0
  9
$DIMADEC
 70
     2
  9
$DIMALTRND
 40
0.0
  9
$DIMAZIN
 70
     0
  9
$DIMDSEP
 70
    44
  9
$DIMATFIT
 70
     3
  9
$DIMFRAC
 70
     0
  9
$DIMLDRBLK
  1

  9
$DIMLUNIT
 70
     2
  9
$DIMLWD
 70
    -2
  9
$DIMLWE
 70
    -2
  9
$DIMTMOVE
 70
     0
  9
$LUNITS
 70
     2
  9
$LUPREC
 70
     3
  9
$SKETCHINC
 40
1.0
  9
$FILLETRAD
 40
10.0
  9
$AUNITS
 70
     0
  9
$AUPREC
 70
     2
  9
$MENU
  1
.
  9
$ELEVATION
 40
0.0
  9
$PELEVATION
 40
0.0
  9
$THICKNESS
 40
0.0
  9
$LIMCHECK
 70
     0
  9
$CHAMFERA
 40
0.0
  9
$CHAMFERB
 40
0.0
  9
$CHAMFERC
 40
0.0
  9
$CHAMFERD
 40
0.0
  9
$SKPOLY
 70
     0
  9
$TDCREATE
 40
2457465.503980926
  9
$TDUCREATE
 40
2457465.170647593
  9
$TDUPDATE
 40
2457465.503982199
  9
$TDUUPDATE
 40
2457465.170648866
  9
$TDINDWG
 40
0.0000000116
  9
$TDUSRTIMER
 40
0.0000000116
  9
$USRTIMER
 70
     1
  9
$ANGBASE
 50
0.0
  9
$ANGDIR
 70
     0
  9
$PDMODE
 70
     0
  9
$PDSIZE
 40
-1.0
  9
$PLINEWID
 40
0.0
  9
$SPLFRAME
 70
     0
  9
$SPLINETYPE
 70
     6
  9
$SPLINESEGS
 70
     8
  9
$HANDSEED
  5
2E1
  9
$SURFTAB1
 70
     6
  9
$SURFTAB2
 70
     6
  9
$SURFTYPE
 70
     6
  9
$SURFU
 70
     6
  9
$SURFV
 70
     6
  9
$UCSBASE
  2

  9
$UCSNAME
  2

  9
$UCSORG
 10
0.0
 20
0.0
 30
0.0
  9
$UCSXDIR
 10
1.0
 20
0.0
 30
0.0
  9
$UCSYDIR
 10
0.0
 20
1.0
 30
0.0
  9
$UCSORTHOREF
  2

  9
$UCSORTHOVIEW
 70
     0
  9
$UCSORGTOP
 10
0.0
 20
0.0
 30
0.0
  9
$UCSORGBOTTOM
 10
0.0
 20
0.0
 30
0.0
  9
$UCSORGLEFT
 10
0.0
 20
0.0
 30
0.0
  9
$UCSORGRIGHT
 10
0.0
 20
0.0
 30
0.0
  9
$UCSORGFRONT
 10
0.0
 20
0.0
 30
0.0
  9
$UCSORGBACK
 10
0.0
 20
0.0
 30
0.0
  9
$PUCSBASE
  2

  9
$PUCSNAME
  2

  9
$PUCSORG
 10
0.0
 20
0.0
 30
0.0
  9
$PUCSXDIR
 10
1.0
 20
0.0
 30
0.0
  9
$PUCSYDIR
 10
0.0
 20
1.0
 30
0.0
  9
$PUCSORTHOREF
  2

  9
$PUCSORTHOVIEW
 70
     0
  9
$PUCSORGTOP
 10
0.0
 20
0.0
 30
0.0
  9
$PUCSORGBOTTOM
 10
0.0
 20
0.0
 30
0.0
  9
$PUCSORGLEFT
 10
0.0
 20
0.0
 30
0.0
  9
$PUCSORGRIGHT
 10
0.0
 20
0.0
 30
0.0
  9
$PUCSORGFRONT
 10
0.0
 20
0.0
 30
0.0
  9
$PUCSORGBACK
 10
0.0
 20
0.0
 30
0.0
  9
$USERI1
 70
     0
  9
$USERI2
 70
     0
  9
$USERI3
 70
     0
  9
$USERI4
 70
     0
  9
$USERI5
 70
     0
  9
$USERR1
 40
0.0
  9
$USERR2
 40
0.0
  9
$USERR3
 40
0.0
  9
$USERR4
 40
0.0
  9
$USERR5
 40
0.0
  9
$WORLDVIEW
 70
     1
  9
$SHADEDGE
 70
     3
  9
$SHADEDIF
 70
    70
  9
$TILEMODE
 70
     1
  9
$MAXACTVP
 70
    64
  9
$PINSBASE
 10
0.0
 20
0.0
 30
0.0
  9
$PLIMCHECK
 70
     0
  9
$PEXTMIN
 10
1.0000000000E+20
 20
1.0000000000E+20
 30
1.0000000000E+20
  9
$PEXTMAX
 10
-1.0000000000E+20
 20
-1.0000000000E+20
 30
-1.0000000000E+20
  9
$PLIMMIN
 10
0.0
 20
0.0
  9
$PLIMMAX
 10
420.0
 20
297.0
  9
$UNITMODE
 70
     0
  9
$VISRETAIN
 70
     1
  9
$PLINEGEN
 70
     0
  9
$PSLTSCALE
 70
     1
  9
$TREEDEPTH
 70
  3020
  9
$CMLSTYLE
  2
Standard
  9
$CMLJUST
 70
     0
  9
$CMLSCALE
 40
20.0
  9
$PROXYGRAPHICS
 70
     1
  9
$MEASUREMENT
 70
     1
  9
$CELWEIGHT
370
    -1
  9
$ENDCAPS
280
     0
  9
$JOINSTYLE
280
     0
  9
$LWDISPLAY
290
     1
  9
$INSUNITS
 70
     4
  9
$HYPERLINKBASE
  1

  9
$STYLESHEET
  1

  9
$XEDIT
290
     1
  9
$CEPSNTYPE
380
     0
  9
$PSTYLEMODE
290
     1
  9
$FINGERPRINTGUID
  2
{F77E0AF3-7D8F-406E-B38E-F6258903F549}
  9
$VERSIONGUID
  2
{FAEB1C32-E019-11D5-929B-00C0DF256EC4}
  9
$EXTNAMES
290
     1
  9
$PSVPSCALE
 40
0.0
  9
$OLESTARTUP
290
     0
  0
ENDSEC
  0
SECTION
  2
CLASSES
  0
CLASS
  1
ACDBDICTIONARYWDFLT
  2
AcDbDictionaryWithDefault
  3
ObjectDBX Classes
 90
        0
280
     0
281
     0
  0
CLASS
  1
VISUALSTYLE
  2
AcDbVisualStyle
  3
ObjectDBX Classes
 90
     4095
280
     0
281
     0
  0
CLASS
  1
MATERIAL
  2
AcDbMaterial
  3
ObjectDBX Classes
 90
     1153
280
     0
281
     0
  0
CLASS
  1
SCALE
  2
AcDbScale
  3
ObjectDBX Classes
 90
     1153
280
     0
281
     0
  0
CLASS
  1
TABLESTYLE
  2
AcDbTableStyle
  3
ObjectDBX Classes
 90
     4095
280
     0
281
     0
  0
CLASS
  1
MLEADERSTYLE
  2
AcDbMLeaderStyle
  3
ACDB_MLEADERSTYLE_CLASS
 90
     4095
280
     0
281
     0
  0
CLASS
  1
SUN
  2
AcDbSun
  3
SCENEOE
 90
     1153
280
     0
281
     0
  0
CLASS
  1
ACDBPLACEHOLDER
  2
AcDbPlaceHolder
  3
ObjectDBX Classes
 90
        0
280
     0
281
     0
  0
CLASS
  1
LAYOUT
  2
AcDbLayout
  3
ObjectDBX Classes
 90
        0
280
     0
281
     0
  0
ENDSEC
  0
SECTION
  2
TABLES
  0
TABLE
  2
VPORT
  5
8
330
0
100
AcDbSymbolTable
 70
     1
  0
VPORT
  5
29
330
8
100
AcDbSymbolTableRecord
100
AcDbViewportTableRecord
  2
*Active
 70
     0
 10
0.0
 20
0.0
 11
1.0
 21
1.0
 12
105.0
 22
148.5
 13
0.0
 23
0.0
 14
10.0
 24
10.0
 15
10.0
 25
10.0
 16
0.0
 26
0.0
 36
1.0
 17
0.0
 27
0.0
 37
0.0
 40
297.0
 41
0.7070707071
 42
50.0
 43
0.0
 44
0.0
 50
0.0
 51
0.0
 71
     0
 72
  2000
 73
     1
 74
     3
 75
     0
 76
     0
 77
     0
 78
     0
281
     0
 65
     1
110
0.0
120
0.0
130
0.0
111
1.0
121
0.0
131
0.0
112
0.0
122
1.0
132
0.0
 79
     0
146
0.0
  0
ENDTAB
  0
TABLE
  2
LTYPE
  5
5
330
0
100
AcDbSymbolTable
 70
     6
  0
LTYPE
  5
14
330
5
100
AcDbSymbolTableRecord
100
AcDbLinetypeTableRecord
  2
ByBlock
 70
     0
  3

 72
    65
 73
     0
 40
0.0
  0
LTYPE
  5
15
330
5
100
AcDbSymbolTableRecord
100
AcDbLinetypeTableRecord
  2
ByLayer
 70
     0
  3

 72
    65
 73
     0
 40
0.0
  0
LTYPE
  5
16
330
5
100
AcDbSymbolTableRecord
100
AcDbLinetypeTableRecord
  2
Continuous
 70
     0
  3
Solid line
 72
    65
 73
     0
 40
0.0
  0
LTYPE
  5
6E
330
5
100
AcDbSymbolTableRecord
100
AcDbLinetypeTableRecord
  2
HIDDEN
 70
     0
  3
Hidden __ __ __ __ __ __ __ __ __ __ __ __ __ __
 72
    65
 73
     2
 40
1.905
 49
1.27
 74
     0
 49
-0.635
 74
     0
  0
LTYPE
  5
6F
330
5
100
AcDbSymbolTableRecord
100
AcDbLinetypeTableRecord
  2
PHANTOM
 70
     0
  3
Phantom ______  __  __  ______  __  __  ______
 72
    65
 73
     6
 40
12.7
 49
6.35
 74
     0
 49
-1.27
 74
     0
 49
1.27
 74
     0
 49
-1.27
 74
     0
 49
1.27
 74
     0
 49
-1.27
 74
     0
  0
LTYPE
  5
70
330
5
100
AcDbSymbolTableRecord
100
AcDbLinetypeTableRecord
  2
CENTER
 70
     0
  3
Center ____ _ ____ _ ____ _ ____ _ ____ _ ____
 72
    65
 73
     4
 40
10.16
 49
6.35
 74
     0
 49
-1.27
 74
     0
 49
1.27
 74
     0
 49
-1.27
 74
     0
  0
LTYPE
  5
71
330
5
100
AcDbSymbolTableRecord
100
AcDbLinetypeTableRecord
  2
CENTERX2
 70
     0
  3
Center (2x) ________  __  ________  __  _____
 72
    65
 73
     4
 40
20.32
 49
12.7
 74
     0
 49
-2.54
 74
     0
 49
2.54
 74
     0
 49
-2.54
 74
     0
  0
LTYPE
  5
72
330
5
100
AcDbSymbolTableRecord
100
AcDbLinetypeTableRecord
  2
DOT2
 70
     0
  3
Dot (.5x) ........................................
 72
    65
 73
     2
 40
0.635
 49
0.0
 74
     0
 49
-0.635
 74
     0
  0
ENDTAB
  0
TABLE
  2
LAYER
  5
2
330
0
100
AcDbSymbolTable
 70
     5
  0
LAYER
  5
10
330
2
100
AcDbSymbolTableRecord
100
AcDbLayerTableRecord
  2
0
 70
     0
 62
     7
  6
Continuous
370
    -3
390
F
  0
LAYER
  5
73
330
2
100
AcDbSymbolTableRecord
100
AcDbLayerTableRecord
  2
SLD-0_0
 70
     0
 62
   179
  6
Continuous
370
    -3
390
F
  0
LAYER
  5
74
330
2
100
AcDbSymbolTableRecord
100
AcDbLayerTableRecord
  2
SLD-0
 70
     0
 62
   179
  6
Continuous
370
    -3
390
F
  0
LAYER
  5
75
330
2
100
AcDbSymbolTableRecord
100
AcDbLayerTableRecord
  2
SLD-DEFPOINTS
 70
     0
 62
   179
  6
Continuous
370
    -3
390
F
  0
LAYER
  5
76
330
2
100
AcDbSymbolTableRecord
100
AcDbLayerTableRecord
  2
LAYER_1
 70
     0
 62
   179
  6
Continuous
370
    -3
390
F
  0
ENDTAB
  0
TABLE
  2
STYLE
  5
3
330
0
100
AcDbSymbolTable
 70
     3
  0
STYLE
  5
11
330
3
100
AcDbSymbolTableRecord
100
AcDbTextStyleTableRecord
  2
Standard
 70
     0
 40
0.0
 41
1.0
 50
0.0
 71
     0
 42
4.5861111111
  3
txt
  4

  0
STYLE
  5
230
330
3
100
AcDbSymbolTableRecord
100
AcDbTextStyleTableRecord
  2
SLDTEXTSTYLE0
 70
     0
 40
0.0
 41
0.75
 50
0.0
 71
     0
 42
4.5861111111
  3
TXT
  4

  0
STYLE
  5
2DD
330
3
100
AcDbSymbolTableRecord
100
AcDbTextStyleTableRecord
  2
SLDTEXTSTYLE1
 70
     0
 40
0.0
 41
0.7
 50
0.0
 71
     0
 42
4.5861111111
  3
TXT
  4

  0
ENDTAB
  0
TABLE
  2
VIEW
  5
6
330
0
100
AcDbSymbolTable
 70
     0
  0
ENDTAB
  0
TABLE
  2
UCS
  5
7
330
0
100
AcDbSymbolTable
 70
     0
  0
ENDTAB
  0
TABLE
  2
APPID
  5
9
330
0
100
AcDbSymbolTable
 70
     1
  0
APPID
  5
12
330
9
100
AcDbSymbolTableRecord
100
AcDbRegAppTableRecord
  2
ACAD
 70
     0
  0
ENDTAB
  0
TABLE
  2
DIMSTYLE
  5
A
330
0
100
AcDbSymbolTable
 70
     4
100
AcDbDimStyleTable
  0
DIMSTYLE
105
27
330
A
100
AcDbSymbolTableRecord
100
AcDbDimStyleTableRecord
  2
ISO-25
 70
     0
 41
2.5
 42
0.625
 43
3.75
 44
1.25
 73
     0
 74
     0
 77
     1
 78
     8
140
2.5
141
2.5
143
0.0393700787
147
0.625
171
     3
172
     1
178
     0
271
     2
272
     2
274
     3
278
    44
283
     0
284
     8
340
11
  0
DIMSTYLE
105
231
102
{ACAD_REACTORS
330
22F
330
243
330
24E
330
259
330
270
102
}
330
A
100
AcDbSymbolTableRecord
100
AcDbDimStyleTableRecord
  2
SLDDIMSTYLE0
 70
     0
 41
3.556
 44
0.0
 45
0.000000001
 73
     0
 74
     0
 77
     1
 78
     4
 79
     1
140
2.9104166667
144
5.0
147
0.7276041667
173
     1
178
     0
271
     2
272
     2
276
     2
284
    12
340
230
341
232
343
232
344
232
  0
DIMSTYLE
105
265
102
{ACAD_REACTORS
330
264
102
}
330
A
100
AcDbSymbolTableRecord
100
AcDbDimStyleTableRecord
  2
SLDDIMSTYLE1
 70
     0
 41
3.556
 44
0.0
 45
0.000000001
 73
     0
 74
     0
 77
     1
 78
    12
 79
     3
140
2.9104166667
144
5.0
147
0.7276041667
173
     1
178
     0
271
     0
272
     2
276
     2
284
    12
340
230
341
232
343
232
344
232
  0
DIMSTYLE
105
27C
102
{ACAD_REACTORS
330
27B
330
289
330
296
330
2A3
330
2B0
330
2BD
102
}
330
A
100
AcDbSymbolTableRecord
100
AcDbDimStyleTableRecord
  2
SLDDIMSTYLE2
 70
     0
 41
3.556
 44
0.0
 45
0.000000001
 73
     0
 74
     0
 77
     1
 78
    12
 79
     3
140
2.9104166667
144
5.0
147
0.7276041667
172
     1
173
     1
178
     0
271
     0
272
     2
276
     2
284
    12
289
     0
340
230
341
232
343
232
344
232
  0
ENDTAB
  0
TABLE
  2
BLOCK_RECORD
  5
1
330
0
100
AcDbSymbolTable
 70
    17
  0
BLOCK_RECORD
  5
1F
330
1
100
AcDbSymbolTableRecord
100
AcDbBlockTableRecord
  2
*Model_Space
340
22
  0
BLOCK_RECORD
  5
1B
330
1
100
AcDbSymbolTableRecord
100
AcDbBlockTableRecord
  2
*Paper_Space
340
1E
  0
BLOCK_RECORD
  5
23
330
1
100
AcDbSymbolTableRecord
100
AcDbBlockTableRecord
  2
*Paper_Space0
340
26
  0
BLOCK_RECORD
  5
77
330
1
100
AcDbSymbolTableRecord
100
AcDbBlockTableRecord
  2
BLOCK 2
340
0
102
{BLKREFS
331
229
102
}
  0
BLOCK_RECORD
  5
232
330
1
100
AcDbSymbolTableRecord
100
AcDbBlockTableRecord
  2
_CLOSED
340
0
102
{BLKREFS
331
23C
331
23D
331
247
331
248
331
252
331
253
331
25D
331
25E
331
269
331
26A
331
274
331
275
331
280
331
281
331
28D
331
28E
331
29A
331
29B
331
2A7
331
2A8
331
2B4
331
2B5
331
2C1
331
2C2
102
}
  0
BLOCK_RECORD
  5
239
330
1
100
AcDbSymbolTableRecord
100
AcDbBlockTableRecord
  2
_D
340
0
  0
BLOCK_RECORD
  5
244
330
1
100
AcDbSymbolTableRecord
100
AcDbBlockTableRecord
  2
_D_1
340
0
  0
BLOCK_RECORD
  5
24F
330
1
100
AcDbSymbolTableRecord
100
AcDbBlockTableRecord
  2
_D_2
340
0
  0
BLOCK_RECORD
  5
25A
330
1
100
AcDbSymbolTableRecord
100
AcDbBlockTableRecord
  2
_D_3
340
0
  0
BLOCK_RECORD
  5
266
330
1
100
AcDbSymbolTableRecord
100
AcDbBlockTableRecord
  2
_D_4
340
0
  0
BLOCK_RECORD
  5
271
330
1
100
AcDbSymbolTableRecord
100
AcDbBlockTableRecord
  2
_D_5
340
0
  0
BLOCK_RECORD
  5
27D
330
1
100
AcDbSymbolTableRecord
100
AcDbBlockTableRecord
  2
_D_6
340
0
  0
BLOCK_RECORD
  5
28A
330
1
100
AcDbSymbolTableRecord
100
AcDbBlockTableRecord
  2
_D_7
340
0
  0
BLOCK_RECORD
  5
297
330
1
100
AcDbSymbolTableRecord
100
AcDbBlockTableRecord
  2
_D_8
340
0
  0
BLOCK_RECORD
  5
2A4
330
1
100
AcDbSymbolTableRecord
100
AcDbBlockTableRecord
  2
_D_9
340
0
  0
BLOCK_RECORD
  5
2B1
330
1
100
AcDbSymbolTableRecord
100
AcDbBlockTableRecord
  2
_D_10
340
0
  0
BLOCK_RECORD
  5
2BE
330
1
100
AcDbSymbolTableRecord
100
AcDbBlockTableRecord
  2
_D_11
340
0
  0
BLOCK_RECORD
  5
2D2
330
1
100
AcDbSymbolTableRecord
100
AcDbBlockTableRecord
  2
SW_NOTE_0
340
0
102
{BLKREFS
331
2D8
102
}
  0
BLOCK_RECORD
  5
2DA
330
1
100
AcDbSymbolTableRecord
100
AcDbBlockTableRecord
  2
SW_NOTE_1
340
0
102
{BLKREFS
331
2E0
102
}
  0
ENDTAB
  0
ENDSEC
  0
SECTION
  2
BLOCKS
  0
BLOCK
  5
20
330
1F
100
AcDbEntity
  8
0
100
AcDbBlockBegin
  2
*Model_Space
 70
     0
 10
0.0
 20
0.0
 30
0.0
  3
*Model_Space
  1

  0
ENDBLK
  5
21
330
1F
100
AcDbEntity
  8
0
100
AcDbBlockEnd
  0
BLOCK
  5
1C
330
1B
100
AcDbEntity
 67
     1
  8
0
100
AcDbBlockBegin
  2
*Paper_Space
 70
     0
 10
0.0
 20
0.0
 30
0.0
  3
*Paper_Space
  1

  0
ENDBLK
  5
1D
330
1B
100
AcDbEntity
 67
     1
  8
0
100
AcDbBlockEnd
  0
BLOCK
  5
24
330
23
100
AcDbEntity
  8
0
100
AcDbBlockBegin
  2
*Paper_Space0
 70
     0
 10
0.0
 20
0.0
 30
0.0
  3
*Paper_Space0
  1

  0
ENDBLK
  5
25
330
23
100
AcDbEntity
  8
0
100
AcDbBlockEnd
  0
BLOCK
  5
78
330
77
100
AcDbEntity
  8
0
100
AcDbBlockBegin
  2
BLOCK 2
 70
     0
 10
0.0
 20
0.0
 30
0.0
  3
BLOCK 2
  1

  0
LINE
  5
7A
330
77
100
AcDbEntity
  8
LAYER_1
370
     0
100
AcDbLine
 10
127.3513997075
 20
-73.2013888705
 30
0.0
 11
61.258965371
 21
-73.2013888705
 31
0.0
  0
LINE
  5
7B
330
77
100
AcDbEntity
  8
LAYER_1
370
     0
100
AcDbLine
 10
36.3664279425
 20
-58.1911078415
 30
0.0
 11
36.3664279425
 21
-46.667263443
 31
0.0
  0
LINE
  5
7C
330
77
100
AcDbEntity
  8
LAYER_1
370
     0
100
AcDbLine
 10
61.258965371
 20
-31.656982414
 30
0.0
 11
127.3513997075
 21
-31.656982414
 31
0.0
  0
LINE
  5
7D
330
77
100
AcDbEntity
  8
LAYER_1
370
     0
100
AcDbLine
 10
127.3513997075
 20
-31.656982414
 30
0.0
 11
127.3513997075
 21
-44.0421006835
 31
0.0
  0
LINE
  5
7E
330
77
100
AcDbEntity
  8
LAYER_1
370
     0
100
AcDbLine
 10
127.3513997075
 20
-44.0421006835
 30
0.0
 11
61.258965371
 21
-44.0421006835
 31
0.0
  0
LINE
  5
7F
330
77
100
AcDbEntity
  8
LAYER_1
370
     0
100
AcDbLine
 10
48.7532687595
 20
-49.860866958
 30
0.0
 11
48.7532687595
 21
-54.9992268745
 31
0.0
  0
LINE
  5
80
330
77
100
AcDbEntity
  8
LAYER_1
370
     0
100
AcDbLine
 10
61.258965371
 20
-60.816270601
 30
0.0
 11
127.3513997075
 21
-60.816270601
 31
0.0
  0
LINE
  5
81
330
77
100
AcDbEntity
  8
LAYER_1
370
     0
100
AcDbLine
 10
127.3513997075
 20
-60.816270601
 30
0.0
 11
127.3513997075
 21
-73.2013888705
 31
0.0
  0
LINE
  5
82
330
77
100
AcDbEntity
  8
LAYER_1
370
     0
100
AcDbLine
 10
200.9593098455
 20
-73.2013888705
 30
0.0
 11
181.280924434
 21
-73.2013888705
 31
0.0
  0
LINE
  5
83
330
77
100
AcDbEntity
  8
LAYER_1
370
     0
100
AcDbLine
 10
181.280924434
 20
-73.2013888705
 30
0.0
 11
181.280924434
 21
-60.817993149
 31
0.0
  0
LINE
  5
84
330
77
100
AcDbEntity
  8
LAYER_1
370
     0
100
AcDbLine
 10
181.280924434
 20
-60.817993149
 30
0.0
 11
200.9593098455
 21
-60.817993149
 31
0.0
  0
LINE
  5
85
330
77
100
AcDbEntity
  8
LAYER_1
370
     0
100
AcDbLine
 10
133.104709168
 20
-31.656982414
 30
0.0
 11
145.48810489
 21
-31.656982414
 31
0.0
  0
LINE
  5
86
330
77
100
AcDbEntity
  8
LAYER_1
370
     0
100
AcDbLine
 10
145.48810489
 20
-31.656982414
 30
0.0
 11
145.48810489
 21
-39.232747386
 31
0.0
  0
LINE
  5
87
330
77
100
AcDbEntity
  8
LAYER_1
370
     0
100
AcDbLine
 10
156.1782361805
 20
-43.349636491
 30
0.0
 11
213.465006457
 21
-43.349636491
 31
0.0
  0
LINE
  5
88
330
77
100
AcDbEntity
  8
LAYER_1
370
     0
100
AcDbLine
 10
213.465006457
 20
-43.349636491
 30
0.0
 11
213.465006457
 21
-31.656982414
 31
0.0
  0
LINE
  5
89
330
77
100
AcDbEntity
  8
LAYER_1
370
     0
100
AcDbLine
 10
213.465006457
 20
-31.656982414
 30
0.0
 11
225.8501247265
 21
-31.656982414
 31
0.0
  0
LINE
  5
8A
330
77
100
AcDbEntity
  8
LAYER_1
370
     0
100
AcDbLine
 10
225.8501247265
 20
-31.656982414
 30
0.0
 11
225.8501247265
 21
-56.427218953
 31
0.0
  0
LINE
  5
8B
330
77
100
AcDbEntity
  8
LAYER_1
370
     0
100
AcDbLine
 10
433.7004868165
 20
-73.2013888705
 30
0.0
 11
421.315368547
 21
-73.2013888705
 31
0.0
  0
LINE
  5
8C
330
77
100
AcDbEntity
  8
LAYER_1
370
     0
100
AcDbLine
 10
421.315368547
 20
-73.2013888705
 30
0.0
 11
421.315368547
 21
-31.656982414
 31
0.0
  0
LINE
  5
8D
330
77
100
AcDbEntity
  8
LAYER_1
370
     0
100
AcDbLine
 10
421.315368547
 20
-31.656982414
 30
0.0
 11
433.7004868165
 21
-31.656982414
 31
0.0
  0
LINE
  5
8E
330
77
100
AcDbEntity
  8
LAYER_1
370
     0
100
AcDbLine
 10
433.7004868165
 20
-31.656982414
 30
0.0
 11
433.7004868165
 21
-73.2013888705
 31
0.0
  0
LINE
  5
8F
330
77
100
AcDbEntity
  8
LAYER_1
370
     0
100
AcDbLine
 10
322.5858221305
 20
-73.2013888705
 30
0.0
 11
256.491665246
 21
-73.2013888705
 31
0.0
  0
LINE
  5
90
330
77
100
AcDbEntity
  8
LAYER_1
370
     0
100
AcDbLine
 10
231.5999890915
 20
-58.1911078415
 30
0.0
 11
231.5999890915
 21
-46.667263443
 31
0.0
  0
LINE
  5
91
330
77
100
AcDbEntity
  8
LAYER_1
370
     0
100
AcDbLine
 10
256.491665246
 20
-31.656982414
 30
0.0
 11
322.5858221305
 21
-31.656982414
 31
0.0
  0
LINE
  5
92
330
77
100
AcDbEntity
  8
LAYER_1
370
     0
100
AcDbLine
 10
322.5858221305
 20
-31.656982414
 30
0.0
 11
322.5858221305
 21
-44.0421006835
 31
0.0
  0
LINE
  5
93
330
77
100
AcDbEntity
  8
LAYER_1
370
     0
100
AcDbLine
 10
322.5858221305
 20
-44.0421006835
 30
0.0
 11
256.491665246
 21
-44.0421006835
 31
0.0
  0
LINE
  5
94
330
77
100
AcDbEntity
  8
LAYER_1
370
     0
100
AcDbLine
 10
243.985968635
 20
-49.860866958
 30
0.0
 11
243.985968635
 21
-53.235337986
 31
0.0
  0
LINE
  5
95
330
77
100
AcDbEntity
  8
LAYER_1
370
     0
100
AcDbLine
 10
256.491665246
 20
-60.816270601
 30
0.0
 11
322.5858221305
 21
-60.816270601
 31
0.0
  0
LINE
  5
96
330
77
100
AcDbEntity
  8
LAYER_1
370
     0
100
AcDbLine
 10
322.5858221305
 20
-60.816270601
 30
0.0
 11
322.5858221305
 21
-73.2013888705
 31
0.0
  0
LINE
  5
97
330
77
100
AcDbEntity
  8
LAYER_1
370
     0
100
AcDbLine
 10
328.3976982145
 20
-31.656982414
 30
0.0
 11
415.7894353885
 21
-31.656982414
 31
0.0
  0
LINE
  5
98
330
77
100
AcDbEntity
  8
LAYER_1
370
     0
100
AcDbLine
 10
415.7894353885
 20
-31.656982414
 30
0.0
 11
415.7894353885
 21
-44.0403781355
 31
0.0
  0
LINE
  5
99
330
77
100
AcDbEntity
  8
LAYER_1
370
     0
100
AcDbLine
 10
415.7894353885
 20
-44.0403781355
 30
0.0
 11
340.782816484
 21
-44.0403781355
 31
0.0
  0
LINE
  5
9A
330
77
100
AcDbEntity
  8
LAYER_1
370
     0
100
AcDbLine
 10
340.782816484
 20
-44.0403781355
 30
0.0
 11
340.6794636195
 21
-48.87126328
 31
0.0
  0
LINE
  5
9B
330
77
100
AcDbEntity
  8
LAYER_1
370
     0
100
AcDbLine
 10
340.6794636195
 20
-48.87126328
 30
0.0
 11
388.9659219405
 21
-48.9074367825
 31
0.0
  0
LINE
  5
9C
330
77
100
AcDbEntity
  8
LAYER_1
370
     0
100
AcDbLine
 10
388.9659219405
 20
-48.9074367825
 30
0.0
 11
388.9659219405
 21
-61.257242823
 31
0.0
  0
LINE
  5
9D
330
77
100
AcDbEntity
  8
LAYER_1
370
     0
100
AcDbLine
 10
388.9659219405
 20
-61.257242823
 30
0.0
 11
340.6794636195
 21
-61.257242823
 31
0.0
  0
LINE
  5
9E
330
77
100
AcDbEntity
  8
LAYER_1
370
     0
100
AcDbLine
 10
340.6794636195
 20
-61.257242823
 30
0.0
 11
340.782816484
 21
-73.2013888705
 31
0.0
  0
LINE
  5
9F
330
77
100
AcDbEntity
  8
LAYER_1
370
     0
100
AcDbLine
 10
340.782816484
 20
-73.2013888705
 30
0.0
 11
328.3976982145
 21
-73.2013888705
 31
0.0
  0
LINE
  5
A0
330
77
100
AcDbEntity
  8
LAYER_1
370
     0
100
AcDbLine
 10
328.3976982145
 20
-73.2013888705
 30
0.0
 11
328.3976982145
 21
-31.656982414
 31
0.0
  0
SPLINE
  5
A1
330
77
100
AcDbEntity
  8
LAYER_1
370
     0
100
AcDbSpline
210
0.0
220
0.0
230
1.0
 70
     8
 71
     3
 72
     8
 73
     4
 74
     0
 42
0.000000001
 43
0.00000001
 40
1.0
 40
1.0
 40
1.0
 40
1.0
 40
2.0
 40
2.0
 40
2.0
 40
2.0
 10
61.25896537097
 20
-73.20138887058854
 30
0.0
 10
57.22820365322765
 20
-73.20138887058854
 30
0.0
 10
53.7124837105302
 20
-72.9895154982457
 30
0.0
 10
50.80654566872199
 20
-72.5709363967878
 30
0.0
  0
SPLINE
  5
A2
330
77
100
AcDbEntity
  8
LAYER_1
370
     0
100
AcDbSpline
210
0.0
220
0.0
230
1.0
 70
     8
 71
     3
 72
     8
 73
     4
 74
     0
 42
0.000000001
 43
0.00000001
 40
2.0
 40
2.0
 40
2.0
 40
2.0
 40
3.0
 40
3.0
 40
3.0
 40
3.0
 10
50.80654566872199
 20
-72.5709363967878
 30
0.0
 10
47.72318520942337
 20
-72.12824162693319
 30
0.0
 10
45.10835773611874
 20
-71.34103730855365
 30
0.0
 10
43.0378553494836
 20
-70.23688420553106
 30
0.0
  0
SPLINE
  5
A3
330
77
100
AcDbEntity
  8
LAYER_1
370
     0
100
AcDbSpline
210
0.0
220
0.0
230
1.0
 70
     8
 71
     3
 72
     8
 73
     4
 74
     0
 42
0.000000001
 43
0.00000001
 40
3.0
 40
3.0
 40
3.0
 40
3.0
 40
4.0
 40
4.0
 40
4.0
 40
4.0
 10
43.0378553494836
 20
-70.23688420553106
 30
0.0
 10
40.7847629021302
 20
-69.03626842892149
 30
0.0
 10
39.08116318467416
 20
-67.3981255256852
 30
0.0
 10
37.97701008165158
 20
-65.3672417371304
 30
0.0
  0
SPLINE
  5
A4
330
77
100
AcDbEntity
  8
LAYER_1
370
     0
100
AcDbSpline
210
0.0
220
0.0
230
1.0
 70
     8
 71
     3
 72
     8
 73
     4
 74
     0
 42
0.000000001
 43
0.00000001
 40
4.0
 40
4.0
 40
4.0
 40
4.0
 40
5.0
 40
5.0
 40
5.0
 40
5.0
 10
37.97701008165158
 20
-65.3672417371304
 30
0.0
 10
36.91075302896676
 20
-63.40698240602326
 30
0.0
 10
36.36642794229728
 20
-60.9919704708631
 30
0.0
 10
36.36642794229728
 20
-58.19110784135501
 30
0.0
  0
SPLINE
  5
A5
330
77
100
AcDbEntity
  8
LAYER_1
370
     0
100
AcDbSpline
210
0.0
220
0.0
230
1.0
 70
     8
 71
     3
 72
     8
 73
     4
 74
     0
 42
0.000000001
 43
0.00000001
 40
6.0
 40
6.0
 40
6.0
 40
6.0
 40
7.0
 40
7.0
 40
7.0
 40
7.0
 10
36.36642794229728
 20
-46.66726344319429
 30
0.0
 10
36.36642794229728
 20
-43.86640081368618
 30
0.0
 10
36.91075302896676
 20
-41.45138887852604
 30
0.0
 10
37.97873262939421
 20
-39.48940699967626
 30
0.0
  0
SPLINE
  5
A6
330
77
100
AcDbEntity
  8
LAYER_1
370
     0
100
AcDbSpline
210
0.0
220
0.0
230
1.0
 70
     8
 71
     3
 72
     8
 73
     4
 74
     0
 42
0.000000001
 43
0.00000001
 40
7.0
 40
7.0
 40
7.0
 40
7.0
 40
8.0
 40
8.0
 40
8.0
 40
8.0
 10
37.97873262939421
 20
-39.48940699967626
 30
0.0
 10
39.08116318467416
 20
-37.4602457588641
 30
0.0
 10
40.7847629021302
 20
-35.82210285562781
 30
0.0
 10
43.03957789722622
 20
-34.61976453127562
 30
0.0
  0
SPLINE
  5
A7
330
77
100
AcDbEntity
  8
LAYER_1
370
     0
100
AcDbSpline
210
0.0
220
0.0
230
1.0
 70
     8
 71
     3
 72
     8
 73
     4
 74
     0
 42
0.000000001
 43
0.00000001
 40
8.0
 40
8.0
 40
8.0
 40
8.0
 40
9.0
 40
9.0
 40
9.0
 40
9.0
 10
43.03957789722622
 20
-34.61976453127562
 30
0.0
 10
45.10835773611874
 20
-33.51733397599567
 30
0.0
 10
47.72318520942337
 20
-32.73012965761609
 30
0.0
 10
50.8082682164646
 20
-32.28743488776148
 30
0.0
  0
SPLINE
  5
A8
330
77
100
AcDbEntity
  8
LAYER_1
370
     0
100
AcDbSpline
210
0.0
220
0.0
230
1.0
 70
     8
 71
     3
 72
     8
 73
     4
 74
     0
 42
0.000000001
 43
0.00000001
 40
9.0
 40
9.0
 40
9.0
 40
9.0
 40
10.0
 40
10.0
 40
10.0
 40
10.0
 10
50.8082682164646
 20
-32.28743488776148
 30
0.0
 10
53.72454154472859
 20
-31.86885578630362
 30
0.0
 10
57.24026148742605
 20
-31.65698241396075
 30
0.0
 10
61.25896537097
 20
-31.65698241396075
 30
0.0
  0
SPLINE
  5
A9
330
77
100
AcDbEntity
  8
LAYER_1
370
     0
100
AcDbSpline
210
0.0
220
0.0
230
1.0
 70
     8
 71
     3
 72
     8
 73
     4
 74
     0
 42
0.000000001
 43
0.00000001
 40
13.0
 40
13.0
 40
13.0
 40
13.0
 40
14.0
 40
14.0
 40
14.0
 40
14.0
 10
61.25896537097
 20
-44.04210068343392
 30
0.0
 10
57.96889918255639
 20
-44.04210068343392
 30
0.0
 10
55.23693846275325
 20
-43.96286348727317
 30
0.0
 10
53.34213594586586
 20
-44.17473685961605
 30
0.0
  0
SPLINE
  5
AA
330
77
100
AcDbEntity
  8
LAYER_1
370
     0
100
AcDbSpline
210
0.0
220
0.0
230
1.0
 70
     8
 71
     3
 72
     8
 73
     4
 74
     0
 42
0.000000001
 43
0.00000001
 40
14.0
 40
14.0
 40
14.0
 40
14.0
 40
15.0
 40
15.0
 40
15.0
 40
15.0
 10
53.34213594586586
 20
-44.17473685961605
 30
0.0
 10
51.2078992927536
 20
-44.41072590035566
 30
0.0
 10
50.7307535680465
 20
-44.67599825271989
 30
0.0
 10
50.22260198397215
 20
-44.97227646445138
 30
0.0
  0
SPLINE
  5
AB
330
77
100
AcDbEntity
  8
LAYER_1
370
     0
100
AcDbSpline
210
0.0
220
0.0
230
1.0
 70
     8
 71
     3
 72
     8
 73
     4
 74
     0
 42
0.000000001
 43
0.00000001
 40
15.0
 40
15.0
 40
15.0
 40
15.0
 40
16.0
 40
16.0
 40
16.0
 40
16.0
 10
50.22260198397215
 20
-44.97227646445138
 30
0.0
 10
49.42506237913678
 20
-45.43736435496012
 30
0.0
 10
49.25453015261692
 20
-46.13155109523795
 30
0.0
 10
48.9961479912232
 20
-47.34594725378852
 30
0.0
  0
SPLINE
  5
AC
330
77
100
AcDbEntity
  8
LAYER_1
370
     0
100
AcDbSpline
210
0.0
220
0.0
230
1.0
 70
     8
 71
     3
 72
     8
 73
     4
 74
     0
 42
0.000000001
 43
0.00000001
 40
16.0
 40
16.0
 40
16.0
 40
16.0
 40
17.0
 40
17.0
 40
17.0
 40
17.0
 10
48.9961479912232
 20
-47.34594725378852
 30
0.0
 10
48.81528047824757
 20
-48.82561576470331
 30
0.0
 10
48.75326875951307
 20
-49.1701253132283
 30
0.0
 10
48.75326875951307
 20
-49.8608669580209
 30
0.0
  0
SPLINE
  5
AD
330
77
100
AcDbEntity
  8
LAYER_1
370
     0
100
AcDbSpline
210
0.0
220
0.0
230
1.0
 70
     8
 71
     3
 72
     8
 73
     4
 74
     0
 42
0.000000001
 43
0.00000001
 40
18.0
 40
18.0
 40
18.0
 40
18.0
 40
19.0
 40
19.0
 40
19.0
 40
19.0
 10
48.75326875951307
 20
-54.99922687427106
 30
0.0
 10
48.75326875951307
 20
-55.68824597132101
 30
0.0
 10
48.87901474472471
 20
-56.47889538518586
 30
0.0
 10
49.00476072993632
 20
-57.52964950818705
 30
0.0
  0
SPLINE
  5
AE
330
77
100
AcDbEntity
  8
LAYER_1
370
     0
100
AcDbSpline
210
0.0
220
0.0
230
1.0
 70
     8
 71
     3
 72
     8
 73
     4
 74
     0
 42
0.000000001
 43
0.00000001
 40
19.0
 40
19.0
 40
19.0
 40
19.0
 40
20.0
 40
20.0
 40
20.0
 40
20.0
 10
49.00476072993632
 20
-57.52964950818705
 30
0.0
 10
49.03232149381831
 20
-57.56754555852481
 30
0.0
 10
49.0667724486708
 20
-58.79744464675895
 30
0.0
 10
50.13130695361301
 20
-59.61220972902054
 30
0.0
  0
SPLINE
  5
AF
330
77
100
AcDbEntity
  8
LAYER_1
370
     0
100
AcDbSpline
210
0.0
220
0.0
230
1.0
 70
     8
 71
     3
 72
     8
 73
     4
 74
     0
 42
0.000000001
 43
0.00000001
 40
20.0
 40
20.0
 40
20.0
 40
20.0
 40
21.0
 40
21.0
 40
21.0
 40
21.0
 10
50.13130695361301
 20
-59.61220972902054
 30
0.0
 10
51.3767089715308
 20
-60.56477863069215
 30
0.0
 10
52.01405163630205
 20
-60.34429251963615
 30
0.0
 10
53.44721135816599
 20
-60.4993218164724
 30
0.0
  0
SPLINE
  5
B0
330
77
100
AcDbEntity
  8
LAYER_1
370
     0
100
AcDbSpline
210
0.0
220
0.0
230
1.0
 70
     8
 71
     3
 72
     8
 73
     4
 74
     0
 42
0.000000001
 43
0.00000001
 40
21.0
 40
21.0
 40
21.0
 40
21.0
 40
22.0
 40
22.0
 40
22.0
 40
22.0
 10
53.44721135816599
 20
-60.4993218164724
 30
0.0
 10
55.34545897053864
 20
-60.70430499784475
 30
0.0
 10
57.97234427804165
 20
-60.8162706011154
 30
0.0
 10
61.25896537097
 20
-60.8162706011154
 30
0.0
  0
SPLINE
  5
B1
330
77
100
AcDbEntity
  8
LAYER_1
370
     0
100
AcDbSpline
210
0.0
220
0.0
230
1.0
 70
     8
 71
     3
 72
     8
 73
     4
 74
     0
 42
0.000000001
 43
0.00000001
 40
3.0
 40
3.0
 40
3.0
 40
3.0
 40
4.0
 40
4.0
 40
4.0
 40
4.0
 10
200.9593098455935
 20
-60.817993148858
 30
0.0
 10
204.2459309385218
 20
-60.817993148858
 30
0.0
 10
207.0106200654348
 20
-60.8248833398285
 30
0.0
 10
208.8847520094107
 20
-60.61300996748565
 30
0.0
  0
SPLINE
  5
B2
330
77
100
AcDbEntity
  8
LAYER_1
370
     0
100
AcDbSpline
210
0.0
220
0.0
230
1.0
 70
     8
 71
     3
 72
     8
 73
     4
 74
     0
 42
0.000000001
 43
0.00000001
 40
4.0
 40
4.0
 40
4.0
 40
4.0
 40
5.0
 40
5.0
 40
5.0
 40
5.0
 10
208.8847520094107
 20
-60.61300996748565
 30
0.0
 10
210.9897053508984
 20
-60.37874347448866
 30
0.0
 10
211.7786322170206
 20
-60.25472003701965
 30
0.0
 10
212.4607611231001
 20
-59.6621636135567
 30
0.0
  0
SPLINE
  5
B3
330
77
100
AcDbEntity
  8
LAYER_1
370
     0
100
AcDbSpline
210
0.0
220
0.0
230
1.0
 70
     8
 71
     3
 72
     8
 73
     4
 74
     0
 42
0.000000001
 43
0.00000001
 40
5.0
 40
5.0
 40
5.0
 40
5.0
 40
6.0
 40
6.0
 40
6.0
 40
6.0
 10
212.4607611231001
 20
-59.6621636135567
 30
0.0
 10
213.1497802201501
 20
-59.0627169991232
 30
0.0
 10
213.0119764007401
 20
-55.82432724298835
 30
0.0
 10
213.1118841698123
 20
-55.73303221262925
 30
0.0
  0
SPLINE
  5
B4
330
77
100
AcDbEntity
  8
LAYER_1
370
     0
100
AcDbSpline
210
0.0
220
0.0
230
1.0
 70
     8
 71
     2
 72
     6
 73
     3
 74
     0
 42
0.000000001
 43
0.00000001
 40
6.0
 40
6.0
 40
6.0
 40
7.0
 40
7.0
 40
7.0
 10
213.1118841698123
 20
-55.73303221262925
 30
0.0
 10
171.9309352868784
 20
-55.75542533328335
 30
0.0
 10
156.2385253515654
 20
-55.73303221262925
 30
0.0
  0
SPLINE
  5
B5
330
77
100
AcDbEntity
  8
LAYER_1
370
     0
100
AcDbSpline
210
0.0
220
0.0
230
1.0
 70
     8
 71
     3
 72
     8
 73
     4
 74
     0
 42
0.000000001
 43
0.00000001
 40
7.0
 40
7.0
 40
7.0
 40
7.0
 40
8.0
 40
8.0
 40
8.0
 40
8.0
 10
156.2385253515654
 20
-55.73303221262925
 30
0.0
 10
140.5461154162524
 20
-55.7106390919751
 30
0.0
 10
133.1047091681127
 20
-50.66529675382675
 30
0.0
 10
133.1047091681127
 20
-39.0846082801594
 30
0.0
  0
SPLINE
  5
B6
330
77
100
AcDbEntity
  8
LAYER_1
370
     0
100
AcDbSpline
210
0.0
220
0.0
230
1.0
 70
    24
 71
     2
 72
     6
 73
     3
 74
     0
 42
0.000000001
 43
0.00000001
 40
8.0
 40
8.0
 40
8.0
 40
9.0
 40
9.0
 40
9.0
 10
133.1047091681127
 20
-39.0846082801594
 30
0.0
 10
133.1047091681127
 20
-37.77633326963578
 30
0.0
 10
133.1047091681127
 20
-31.65698241396075
 30
0.0
  0
SPLINE
  5
B7
330
77
100
AcDbEntity
  8
LAYER_1
370
     0
100
AcDbSpline
210
0.0
220
0.0
230
1.0
 70
     8
 71
     3
 72
     8
 73
     4
 74
     0
 42
0.000000001
 43
0.00000001
 40
11.0
 40
11.0
 40
11.0
 40
11.0
 40
12.0
 40
12.0
 40
12.0
 40
12.0
 10
145.4881048898432
 20
-39.23274738602515
 30
0.0
 10
145.4881048898432
 20
-40.04406737280149
 30
0.0
 10
145.5983479453712
 20
-39.28442381830389
 30
0.0
 10
145.8240016996551
 20
-40.13536240316061
 30
0.0
  0
SPLINE
  5
B8
330
77
100
AcDbEntity
  8
LAYER_1
370
     0
100
AcDbSpline
210
0.0
220
0.0
230
1.0
 70
     8
 71
     3
 72
     8
 73
     4
 74
     0
 42
0.000000001
 43
0.00000001
 40
12.0
 40
12.0
 40
12.0
 40
12.0
 40
13.0
 40
13.0
 40
13.0
 40
13.0
 10
145.8240016996551
 20
-40.13536240316061
 30
0.0
 10
146.022094690057
 20
-40.88294812345982
 30
0.0
 10
146.6284314954609
 20
-41.57713486373767
 30
0.0
 10
147.2261555621518
 20
-42.03016492004801
 30
0.0
  0
SPLINE
  5
B9
330
77
100
AcDbEntity
  8
LAYER_1
370
     0
100
AcDbSpline
210
0.0
220
0.0
230
1.0
 70
     8
 71
     3
 72
     8
 73
     4
 74
     0
 42
0.000000001
 43
0.00000001
 40
13.0
 40
13.0
 40
13.0
 40
13.0
 40
14.0
 40
14.0
 40
14.0
 40
14.0
 10
147.2261555621518
 20
-42.03016492004801
 30
0.0
 10
148.0512559308692
 20
-42.65200465513561
 30
0.0
 10
148.6748182136994
 20
-42.76569280614886
 30
0.0
 10
150.0786946239386
 20
-42.9827338217196
 30
0.0
  0
SPLINE
  5
BA
330
77
100
AcDbEntity
  8
LAYER_1
370
     0
100
AcDbSpline
210
0.0
220
0.0
230
1.0
 70
     8
 71
     3
 72
     8
 73
     4
 74
     0
 42
0.000000001
 43
0.00000001
 40
14.0
 40
14.0
 40
14.0
 40
14.0
 40
15.0
 40
15.0
 40
15.0
 40
15.0
 10
150.0786946239386
 20
-42.9827338217196
 30
0.0
 10
151.6376003310142
 20
-43.2256130534297
 30
0.0
 10
153.6908772402232
 20
-43.3496364908987
 30
0.0
 10
156.1782361805735
 20
-43.3496364908987
 30
0.0
  0
SPLINE
  5
BB
330
77
100
AcDbEntity
  8
LAYER_1
370
     0
100
AcDbSpline
210
0.0
220
0.0
230
1.0
 70
     8
 71
     3
 72
     8
 73
     4
 74
     0
 42
0.000000001
 43
0.00000001
 40
19.0
 40
19.0
 40
19.0
 40
19.0
 40
20.0
 40
20.0
 40
20.0
 40
20.0
 10
225.8501247265236
 20
-56.4272189529071
 30
0.0
 10
225.8501247265236
 20
-59.2211913914447
 30
0.0
 10
225.3075221875968
 20
-63.40870495376591
 30
0.0
 10
224.2395425871693
 20
-65.36896428487304
 30
0.0
  0
SPLINE
  5
BC
330
77
100
AcDbEntity
  8
LAYER_1
370
     0
100
AcDbSpline
210
0.0
220
0.0
230
1.0
 70
     8
 71
     3
 72
     8
 73
     4
 74
     0
 42
0.000000001
 43
0.00000001
 40
20.0
 40
20.0
 40
20.0
 40
20.0
 40
21.0
 40
21.0
 40
21.0
 40
21.0
 10
224.2395425871693
 20
-65.36896428487304
 30
0.0
 10
223.1336669364041
 20
-67.3998480734278
 30
0.0
 10
221.4317897666907
 20
-69.03626842892149
 30
0.0
 10
219.1804198670799
 20
-70.2386067532737
 30
0.0
  0
SPLINE
  5
BD
330
77
100
AcDbEntity
  8
LAYER_1
370
     0
100
AcDbSpline
210
0.0
220
0.0
230
1.0
 70
     8
 71
     3
 72
     8
 73
     4
 74
     0
 42
0.000000001
 43
0.00000001
 40
21.0
 40
21.0
 40
21.0
 40
21.0
 40
22.0
 40
22.0
 40
22.0
 40
22.0
 10
219.1804198670799
 20
-70.2386067532737
 30
0.0
 10
217.1099174804448
 20
-71.3444824040389
 30
0.0
 10
214.4968125548827
 20
-72.1265190791906
 30
0.0
 10
211.4100070000989
 20
-72.5709363967878
 30
0.0
  0
SPLINE
  5
BE
330
77
100
AcDbEntity
  8
LAYER_1
370
     0
100
AcDbSpline
210
0.0
220
0.0
230
1.0
 70
     8
 71
     3
 72
     8
 73
     4
 74
     0
 42
0.000000001
 43
0.00000001
 40
22.0
 40
22.0
 40
22.0
 40
22.0
 40
23.0
 40
23.0
 40
23.0
 40
23.0
 10
211.4100070000989
 20
-72.5709363967878
 30
0.0
 10
208.4954562195775
 20
-72.99123804598831
 30
0.0
 10
204.9797362768801
 20
-73.20138887058854
 30
0.0
 10
200.9593098455935
 20
-73.20138887058854
 30
0.0
  0
SPLINE
  5
BF
330
77
100
AcDbEntity
  8
LAYER_1
370
     0
100
AcDbSpline
210
0.0
220
0.0
230
1.0
 70
     8
 71
     3
 72
     8
 73
     4
 74
     0
 42
0.000000001
 43
0.00000001
 40
1.0
 40
1.0
 40
1.0
 40
1.0
 40
2.0
 40
2.0
 40
2.0
 40
2.0
 10
256.491665246207
 20
-73.20138887058854
 30
0.0
 10
252.4609035284647
 20
-73.20138887058854
 30
0.0
 10
248.9434610380245
 20
-72.9895154982457
 30
0.0
 10
246.0392455439589
 20
-72.5709363967878
 30
0.0
  0
SPLINE
  5
C0
330
77
100
AcDbEntity
  8
LAYER_1
370
     0
100
AcDbSpline
210
0.0
220
0.0
230
1.0
 70
     8
 71
     3
 72
     8
 73
     4
 74
     0
 42
0.000000001
 43
0.00000001
 40
2.0
 40
2.0
 40
2.0
 40
2.0
 40
3.0
 40
3.0
 40
3.0
 40
3.0
 10
246.0392455439589
 20
-72.5709363967878
 30
0.0
 10
242.9558850846604
 20
-72.12824162693319
 30
0.0
 10
240.3410576113557
 20
-71.34103730855365
 30
0.0
 10
238.2705552247206
 20
-70.23688420553106
 30
0.0
  0
SPLINE
  5
C1
330
77
100
AcDbEntity
  8
LAYER_1
370
     0
100
AcDbSpline
210
0.0
220
0.0
230
1.0
 70
     8
 71
     3
 72
     8
 73
     4
 74
     0
 42
0.000000001
 43
0.00000001
 40
3.0
 40
3.0
 40
3.0
 40
3.0
 40
4.0
 40
4.0
 40
4.0
 40
4.0
 10
238.2705552247206
 20
-70.23688420553106
 30
0.0
 10
236.0183240512384
 20
-69.03626842892149
 30
0.0
 10
234.3147243337825
 20
-67.3981255256852
 30
0.0
 10
233.2088486830172
 20
-65.3672417371304
 30
0.0
  0
SPLINE
  5
C2
330
77
100
AcDbEntity
  8
LAYER_1
370
     0
100
AcDbSpline
210
0.0
220
0.0
230
1.0
 70
     8
 71
     3
 72
     8
 73
     4
 74
     0
 42
0.000000001
 43
0.00000001
 40
4.0
 40
4.0
 40
4.0
 40
4.0
 40
5.0
 40
5.0
 40
5.0
 40
5.0
 10
233.2088486830172
 20
-65.3672417371304
 30
0.0
 10
232.1425916303324
 20
-63.40698240602326
 30
0.0
 10
231.5999890914056
 20
-60.9919704708631
 30
0.0
 10
231.5999890914056
 20
-58.19110784135501
 30
0.0
  0
SPLINE
  5
C3
330
77
100
AcDbEntity
  8
LAYER_1
370
     0
100
AcDbSpline
210
0.0
220
0.0
230
1.0
 70
     8
 71
     3
 72
     8
 73
     4
 74
     0
 42
0.000000001
 43
0.00000001
 40
6.0
 40
6.0
 40
6.0
 40
6.0
 40
7.0
 40
7.0
 40
7.0
 40
7.0
 10
231.5999890914056
 20
-46.66726344319429
 30
0.0
 10
231.5999890914056
 20
-43.86640081368618
 30
0.0
 10
232.1425916303324
 20
-41.45138887852604
 30
0.0
 10
233.2105712307599
 20
-39.48940699967626
 30
0.0
  0
SPLINE
  5
C4
330
77
100
AcDbEntity
  8
LAYER_1
370
     0
100
AcDbSpline
210
0.0
220
0.0
230
1.0
 70
     8
 71
     3
 72
     8
 73
     4
 74
     0
 42
0.000000001
 43
0.00000001
 40
7.0
 40
7.0
 40
7.0
 40
7.0
 40
8.0
 40
8.0
 40
8.0
 40
8.0
 10
233.2105712307599
 20
-39.48940699967626
 30
0.0
 10
234.3147243337825
 20
-37.4602457588641
 30
0.0
 10
236.0183240512384
 20
-35.82210285562781
 30
0.0
 10
238.2705552247206
 20
-34.61976453127562
 30
0.0
  0
SPLINE
  5
C5
330
77
100
AcDbEntity
  8
LAYER_1
370
     0
100
AcDbSpline
210
0.0
220
0.0
230
1.0
 70
     8
 71
     3
 72
     8
 73
     4
 74
     0
 42
0.000000001
 43
0.00000001
 40
8.0
 40
8.0
 40
8.0
 40
8.0
 40
9.0
 40
9.0
 40
9.0
 40
9.0
 10
238.2705552247206
 20
-34.61976453127562
 30
0.0
 10
240.3410576113557
 20
-33.51733397599567
 30
0.0
 10
242.9558850846604
 20
-32.73012965761609
 30
0.0
 10
246.0426906394442
 20
-32.28743488776148
 30
0.0
  0
SPLINE
  5
C6
330
77
100
AcDbEntity
  8
LAYER_1
370
     0
100
AcDbSpline
210
0.0
220
0.0
230
1.0
 70
     8
 71
     3
 72
     8
 73
     4
 74
     0
 42
0.000000001
 43
0.00000001
 40
9.0
 40
9.0
 40
9.0
 40
9.0
 40
10.0
 40
10.0
 40
10.0
 40
10.0
 10
246.0426906394442
 20
-32.28743488776148
 30
0.0
 10
248.9572414199656
 20
-31.86885578630362
 30
0.0
 10
252.4746839104057
 20
-31.65698241396075
 30
0.0
 10
256.491665246207
 20
-31.65698241396075
 30
0.0
  0
SPLINE
  5
C7
330
77
100
AcDbEntity
  8
LAYER_1
370
     0
100
AcDbSpline
210
0.0
220
0.0
230
1.0
 70
     8
 71
     3
 72
     8
 73
     4
 74
     0
 42
0.000000001
 43
0.00000001
 40
13.0
 40
13.0
 40
13.0
 40
13.0
 40
14.0
 40
14.0
 40
14.0
 40
14.0
 10
256.491665246207
 20
-44.04210068343392
 30
0.0
 10
253.2015990577934
 20
-44.04210068343392
 30
0.0
 10
250.4696383379903
 20
-43.96286348727317
 30
0.0
 10
248.5748358211029
 20
-44.17473685961605
 30
0.0
  0
SPLINE
  5
C8
330
77
100
AcDbEntity
  8
LAYER_1
370
     0
100
AcDbSpline
210
0.0
220
0.0
230
1.0
 70
     8
 71
     3
 72
     8
 73
     4
 74
     0
 42
0.000000001
 43
0.00000001
 40
14.0
 40
14.0
 40
14.0
 40
14.0
 40
15.0
 40
15.0
 40
15.0
 40
15.0
 10
248.5748358211029
 20
-44.17473685961605
 30
0.0
 10
246.4423217157333
 20
-44.41072590035566
 30
0.0
 10
245.9634534432835
 20
-44.67599825271989
 30
0.0
 10
245.4535793114664
 20
-44.97227646445138
 30
0.0
  0
SPLINE
  5
C9
330
77
100
AcDbEntity
  8
LAYER_1
370
     0
100
AcDbSpline
210
0.0
220
0.0
230
1.0
 70
     8
 71
     3
 72
     8
 73
     4
 74
     0
 42
0.000000001
 43
0.00000001
 40
15.0
 40
15.0
 40
15.0
 40
15.0
 40
16.0
 40
16.0
 40
16.0
 40
16.0
 10
245.4535793114664
 20
-44.97227646445138
 30
0.0
 10
244.6577622543738
 20
-45.43736435496012
 30
0.0
 10
244.4889525755965
 20
-46.13155109523795
 30
0.0
 10
244.2305704142028
 20
-47.34594725378852
 30
0.0
  0
SPLINE
  5
CA
330
77
100
AcDbEntity
  8
LAYER_1
370
     0
100
AcDbSpline
210
0.0
220
0.0
230
1.0
 70
     8
 71
     3
 72
     8
 73
     4
 74
     0
 42
0.000000001
 43
0.00000001
 40
16.0
 40
16.0
 40
16.0
 40
16.0
 40
17.0
 40
17.0
 40
17.0
 40
17.0
 10
244.2305704142028
 20
-47.34594725378852
 30
0.0
 10
244.0479803534845
 20
-48.82561576470331
 30
0.0
 10
243.9859686347501
 20
-49.1701253132283
 30
0.0
 10
243.9859686347501
 20
-49.8608669580209
 30
0.0
  0
SPLINE
  5
CB
330
77
100
AcDbEntity
  8
LAYER_1
370
     0
100
AcDbSpline
210
0.0
220
0.0
230
1.0
 70
     8
 71
     3
 72
     8
 73
     4
 74
     0
 42
0.000000001
 43
0.00000001
 40
18.0
 40
18.0
 40
18.0
 40
18.0
 40
19.0
 40
19.0
 40
19.0
 40
19.0
 10
243.9859686347501
 20
-53.2353379858231
 30
0.0
 10
243.9859686347501
 20
-53.9243570828731
 30
0.0
 10
244.1099920722191
 20
-56.47889538518586
 30
0.0
 10
244.2374606051733
 20
-57.52964950818705
 30
0.0
  0
SPLINE
  5
CC
330
77
100
AcDbEntity
  8
LAYER_1
370
     0
100
AcDbSpline
210
0.0
220
0.0
230
1.0
 70
     8
 71
     3
 72
     8
 73
     4
 74
     0
 42
0.000000001
 43
0.00000001
 40
19.0
 40
19.0
 40
19.0
 40
19.0
 40
20.0
 40
20.0
 40
20.0
 40
20.0
 10
244.2374606051733
 20
-57.52964950818705
 30
0.0
 10
244.2650213690553
 20
-57.56754555852481
 30
0.0
 10
244.2994723239078
 20
-58.79744464675895
 30
0.0
 10
245.36400682885
 20
-59.61220972902054
 30
0.0
  0
SPLINE
  5
CD
330
77
100
AcDbEntity
  8
LAYER_1
370
     0
100
AcDbSpline
210
0.0
220
0.0
230
1.0
 70
     8
 71
     3
 72
     8
 73
     4
 74
     0
 42
0.000000001
 43
0.00000001
 40
20.0
 40
20.0
 40
20.0
 40
20.0
 40
21.0
 40
21.0
 40
21.0
 40
21.0
 10
245.36400682885
 20
-59.61220972902054
 30
0.0
 10
246.6076862990251
 20
-60.56477863069215
 30
0.0
 10
247.2484740592817
 20
-60.34429251963615
 30
0.0
 10
248.6816337811456
 20
-60.4993218164724
 30
0.0
  0
SPLINE
  5
CE
330
77
100
AcDbEntity
  8
LAYER_1
370
     0
100
AcDbSpline
210
0.0
220
0.0
230
1.0
 70
     8
 71
     3
 72
     8
 73
     4
 74
     0
 42
0.000000001
 43
0.00000001
 40
21.0
 40
21.0
 40
21.0
 40
21.0
 40
22.0
 40
22.0
 40
22.0
 40
22.0
 10
248.6816337811456
 20
-60.4993218164724
 30
0.0
 10
250.576436298033
 20
-60.70430499784475
 30
0.0
 10
253.2050441532786
 20
-60.8162706011154
 30
0.0
 10
256.491665246207
 20
-60.8162706011154
 30
0.0
  0
ENDBLK
  5
79
330
77
100
AcDbEntity
  8
0
100
AcDbBlockEnd
  0
BLOCK
  5
233
330
232
100
AcDbEntity
  8
0
100
AcDbBlockBegin
  2
_CLOSED
 70
     0
 10
0.0
 20
0.0
 30
0.0
  3
_CLOSED
  1

  0
LINE
  5
235
330
232
100
AcDbEntity
  8
0
  6
ByBlock
 62
     0
370
    -2
100
AcDbLine
 10
-1.0
 20
0.166667
 30
0.0
 11
0.0
 21
0.0
 31
0.0
  0
LINE
  5
236
330
232
100
AcDbEntity
  8
0
  6
ByBlock
 62
     0
370
    -2
100
AcDbLine
 10
0.0
 20
0.0
 30
0.0
 11
-1.0
 21
-0.166667
 31
0.0
  0
LINE
  5
237
330
232
100
AcDbEntity
  8
0
  6
ByBlock
 62
     0
370
    -2
100
AcDbLine
 10
-1.0
 20
0.166667
 30
0.0
 11
-1.0
 21
-0.166667
 31
0.0
  0
LINE
  5
238
330
232
100
AcDbEntity
  8
0
  6
ByBlock
 62
     0
370
    -2
100
AcDbLine
 10
0.0
 20
0.0
 30
0.0
 11
-1.0
 21
0.0
 31
0.0
  0
ENDBLK
  5
234
330
232
100
AcDbEntity
  8
0
100
AcDbBlockEnd
  0
BLOCK
  5
23A
330
239
100
AcDbEntity
  8
0
100
AcDbBlockBegin
  2
_D
 70
     0
 10
0.0
 20
0.0
 30
0.0
  3
_D
  1

  0
INSERT
  5
23C
330
239
100
AcDbEntity
  8
SLD-0
100
AcDbBlockReference
  2
_CLOSED
 10
158.4802737892
 20
258.9552575895
 30
0.0
 41
3.556
 42
3.556
 50
0.0
  0
INSERT
  5
23D
330
239
100
AcDbEntity
  8
SLD-0
100
AcDbBlockReference
  2
_CLOSED
 10
61.0802737892
 20
258.9552575895
 30
0.0
 41
3.556
 42
3.556
 50
180.0
  0
LINE
  5
23E
330
239
100
AcDbEntity
  8
SLD-0
100
AcDbLine
 10
158.4802737892
 20
253.6974732708
 30
0.0
 11
158.4802737892
 21
259.9552575895
 31
0.0
  0
LINE
  5
23F
330
239
100
AcDbEntity
  8
SLD-0
100
AcDbLine
 10
61.0802737892
 20
253.6974732708
 30
0.0
 11
61.0802737892
 21
259.9552575895
 31
0.0
  0
LINE
  5
240
330
239
100
AcDbEntity
  8
SLD-0
100
AcDbLine
 10
158.4802737892
 20
258.9552575895
 30
0.0
 11
61.0802737892
 21
258.9552575895
 31
0.0
  0
MTEXT
  5
241
330
239
100
AcDbEntity
  8
SLD-0
100
AcDbMText
 10
102.5086604625
 20
262.7069818238
 30
0.0
 40
2.9104166667
 41
0.0
 71
     1
 72
     1
  1
97.40
  7
SLDTEXTSTYLE0
 73
     1
 44
1.0
  0
MTEXT
  5
242
330
239
100
AcDbEntity
  8
SLD-0
100
AcDbMText
 10
113.2745077818
 20
262.7069818238
 30
0.0
 40
2.9104166667
 41
0.0
 71
     1
 72
     1
  1
mm
  7
SLDTEXTSTYLE0
 73
     1
 44
1.0
  0
ENDBLK
  5
23B
330
239
100
AcDbEntity
  8
0
100
AcDbBlockEnd
  0
BLOCK
  5
245
330
244
100
AcDbEntity
  8
0
100
AcDbBlockBegin
  2
_D_1
 70
     0
 10
0.0
 20
0.0
 30
0.0
  3
_D_1
  1

  0
INSERT
  5
247
330
244
100
AcDbEntity
  8
SLD-0
100
AcDbBlockReference
  2
_CLOSED
 10
161.4302737892
 20
227.6102687022
 30
0.0
 41
3.556
 42
3.556
 50
0.0
  0
INSERT
  5
248
330
244
100
AcDbEntity
  8
SLD-0
100
AcDbBlockReference
  2
_CLOSED
 10
58.1302737892
 20
227.6102687022
 30
0.0
 41
3.556
 42
3.556
 50
180.0
  0
LINE
  5
249
330
244
100
AcDbEntity
  8
SLD-0
100
AcDbLine
 10
161.4302737892
 20
231.0970707546
 30
0.0
 11
161.4302737892
 21
226.6102687022
 31
0.0
  0
LINE
  5
24A
330
244
100
AcDbEntity
  8
SLD-0
100
AcDbLine
 10
58.1302737892
 20
231.0970707546
 30
0.0
 11
58.1302737892
 21
226.6102687022
 31
0.0
  0
LINE
  5
24B
330
244
100
AcDbEntity
  8
SLD-0
100
AcDbLine
 10
161.4302737892
 20
227.6102687022
 30
0.0
 11
58.1302737892
 21
227.6102687022
 31
0.0
  0
MTEXT
  5
24C
330
244
100
AcDbEntity
  8
SLD-0
100
AcDbMText
 10
101.433422473
 20
231.3619929365
 30
0.0
 40
2.9104166667
 41
0.0
 71
     1
 72
     1
  1
103.30
  7
SLDTEXTSTYLE0
 73
     1
 44
1.0
  0
MTEXT
  5
24D
330
244
100
AcDbEntity
  8
SLD-0
100
AcDbMText
 10
114.3497439086
 20
231.3619929365
 30
0.0
 40
2.9104166667
 41
0.0
 71
     1
 72
     1
  1
mm
  7
SLDTEXTSTYLE0
 73
     1
 44
1.0
  0
ENDBLK
  5
246
330
244
100
AcDbEntity
  8
0
100
AcDbBlockEnd
  0
BLOCK
  5
250
330
24F
100
AcDbEntity
  8
0
100
AcDbBlockBegin
  2
_D_2
 70
     0
 10
0.0
 20
0.0
 30
0.0
  3
_D_2
  1

  0
INSERT
  5
252
330
24F
100
AcDbEntity
  8
SLD-0
100
AcDbBlockReference
  2
_CLOSED
 10
153.3802737892
 20
190.909479793
 30
0.0
 41
3.556
 42
3.556
 50
0.0
  0
INSERT
  5
253
330
24F
100
AcDbEntity
  8
SLD-0
100
AcDbBlockReference
  2
_CLOSED
 10
66.1802737892
 20
190.909479793
 30
0.0
 41
3.556
 42
3.556
 50
180.0
  0
LINE
  5
254
330
24F
100
AcDbEntity
  8
SLD-0
100
AcDbLine
 10
153.3802737892
 20
185.7849225997
 30
0.0
 11
153.3802737892
 21
191.909479793
 31
0.0
  0
LINE
  5
255
330
24F
100
AcDbEntity
  8
SLD-0
100
AcDbLine
 10
66.1802737892
 20
185.7849225997
 30
0.0
 11
66.1802737892
 21
191.909479793
 31
0.0
  0
LINE
  5
256
330
24F
100
AcDbEntity
  8
SLD-0
100
AcDbLine
 10
153.3802737892
 20
190.909479793
 30
0.0
 11
66.1802737892
 21
190.909479793
 31
0.0
  0
MTEXT
  5
257
330
24F
100
AcDbEntity
  8
SLD-0
100
AcDbMText
 10
102.5086604625
 20
194.6612040273
 30
0.0
 40
2.9104166667
 41
0.0
 71
     1
 72
     1
  1
87.20
  7
SLDTEXTSTYLE0
 73
     1
 44
1.0
  0
MTEXT
  5
258
330
24F
100
AcDbEntity
  8
SLD-0
100
AcDbMText
 10
113.2745077818
 20
194.6612040273
 30
0.0
 40
2.9104166667
 41
0.0
 71
     1
 72
     1
  1
mm
  7
SLDTEXTSTYLE0
 73
     1
 44
1.0
  0
ENDBLK
  5
251
330
24F
100
AcDbEntity
  8
0
100
AcDbBlockEnd
  0
BLOCK
  5
25B
330
25A
100
AcDbEntity
  8
0
100
AcDbBlockBegin
  2
_D_3
 70
     0
 10
0.0
 20
0.0
 30
0.0
  3
_D_3
  1

  0
INSERT
  5
25D
330
25A
100
AcDbEntity
  8
SLD-0
100
AcDbBlockReference
  2
_CLOSED
 10
156.3302737892
 20
159.7442806008
 30
0.0
 41
3.556
 42
3.556
 50
0.0
  0
INSERT
  5
25E
330
25A
100
AcDbEntity
  8
SLD-0
100
AcDbBlockReference
  2
_CLOSED
 10
63.2302737892
 20
159.7442806008
 30
0.0
 41
3.556
 42
3.556
 50
180.0
  0
LINE
  5
25F
330
25A
100
AcDbEntity
  8
SLD-0
100
AcDbLine
 10
156.3302737892
 20
163.110152939
 30
0.0
 11
156.3302737892
 21
158.7442806008
 31
0.0
  0
LINE
  5
260
330
25A
100
AcDbEntity
  8
SLD-0
100
AcDbLine
 10
63.2302737892
 20
163.110152939
 30
0.0
 11
63.2302737892
 21
158.7442806008
 31
0.0
  0
LINE
  5
261
330
25A
100
AcDbEntity
  8
SLD-0
100
AcDbLine
 10
156.3302737892
 20
159.7442806008
 30
0.0
 11
63.2302737892
 21
159.7442806008
 31
0.0
  0
MTEXT
  5
262
330
25A
100
AcDbEntity
  8
SLD-0
100
AcDbMText
 10
102.5086604625
 20
163.4960048351
 30
0.0
 40
2.9104166667
 41
0.0
 71
     1
 72
     1
  1
93.10
  7
SLDTEXTSTYLE0
 73
     1
 44
1.0
  0
MTEXT
  5
263
330
25A
100
AcDbEntity
  8
SLD-0
100
AcDbMText
 10
113.2745077818
 20
163.4960048351
 30
0.0
 40
2.9104166667
 41
0.0
 71
     1
 72
     1
  1
mm
  7
SLDTEXTSTYLE0
 73
     1
 44
1.0
  0
ENDBLK
  5
25C
330
25A
100
AcDbEntity
  8
0
100
AcDbBlockEnd
  0
BLOCK
  5
267
330
266
100
AcDbEntity
  8
0
100
AcDbBlockBegin
  2
_D_4
 70
     0
 10
0.0
 20
0.0
 30
0.0
  3
_D_4
  1

  0
INSERT
  5
269
330
266
100
AcDbEntity
  8
SLD-0
100
AcDbBlockReference
  2
_CLOSED
 10
148.2802737892
 20
121.8890905581
 30
0.0
 41
3.556
 42
3.556
 50
0.0
  0
INSERT
  5
26A
330
266
100
AcDbEntity
  8
SLD-0
100
AcDbBlockReference
  2
_CLOSED
 10
71.2802737892
 20
121.8890905581
 30
0.0
 41
3.556
 42
3.556
 50
180.0
  0
LINE
  5
26B
330
266
100
AcDbEntity
  8
SLD-0
100
AcDbLine
 10
148.2802737892
 20
117.6974732708
 30
0.0
 11
148.2802737892
 21
122.8890905581
 31
0.0
  0
LINE
  5
26C
330
266
100
AcDbEntity
  8
SLD-0
100
AcDbLine
 10
71.2802737892
 20
117.6974732708
 30
0.0
 11
71.2802737892
 21
122.8890905581
 31
0.0
  0
LINE
  5
26D
330
266
100
AcDbEntity
  8
SLD-0
100
AcDbLine
 10
148.2802737892
 20
121.8890905581
 30
0.0
 11
71.2802737892
 21
121.8890905581
 31
0.0
  0
MTEXT
  5
26E
330
266
100
AcDbEntity
  8
SLD-0
100
AcDbMText
 10
105.1954064153
 20
125.6408147924
 30
0.0
 40
2.9104166667
 41
0.0
 71
     1
 72
     1
  1
77
  7
SLDTEXTSTYLE0
 73
     1
 44
1.0
  0
MTEXT
  5
26F
330
266
100
AcDbEntity
  8
SLD-0
100
AcDbMText
 10
110.587761829
 20
125.6408147924
 30
0.0
 40
2.9104166667
 41
0.0
 71
     1
 72
     1
  1
mm
  7
SLDTEXTSTYLE0
 73
     1
 44
1.0
  0
ENDBLK
  5
268
330
266
100
AcDbEntity
  8
0
100
AcDbBlockEnd
  0
BLOCK
  5
272
330
271
100
AcDbEntity
  8
0
100
AcDbBlockBegin
  2
_D_5
 70
     0
 10
0.0
 20
0.0
 30
0.0
  3
_D_5
  1

  0
INSERT
  5
274
330
271
100
AcDbEntity
  8
SLD-0
100
AcDbBlockReference
  2
_CLOSED
 10
151.2302737892
 20
90.9264927502
 30
0.0
 41
3.556
 42
3.556
 50
0.0
  0
INSERT
  5
275
330
271
100
AcDbEntity
  8
SLD-0
100
AcDbBlockReference
  2
_CLOSED
 10
68.3302737892
 20
90.9264927502
 30
0.0
 41
3.556
 42
3.556
 50
180.0
  0
LINE
  5
276
330
271
100
AcDbEntity
  8
SLD-0
100
AcDbLine
 10
151.2302737892
 20
95.7250544096
 30
0.0
 11
151.2302737892
 21
89.9264927502
 31
0.0
  0
LINE
  5
277
330
271
100
AcDbEntity
  8
SLD-0
100
AcDbLine
 10
68.3302737892
 20
95.7250544096
 30
0.0
 11
68.3302737892
 21
89.9264927502
 31
0.0
  0
LINE
  5
278
330
271
100
AcDbEntity
  8
SLD-0
100
AcDbLine
 10
151.2302737892
 20
90.9264927502
 30
0.0
 11
68.3302737892
 21
90.9264927502
 31
0.0
  0
MTEXT
  5
279
330
271
100
AcDbEntity
  8
SLD-0
100
AcDbMText
 10
102.5746930182
 20
94.6782169845
 30
0.0
 40
2.9104166667
 41
0.0
 71
     1
 72
     1
  1
82.90
  7
SLDTEXTSTYLE0
 73
     1
 44
1.0
  0
MTEXT
  5
27A
330
271
100
AcDbEntity
  8
SLD-0
100
AcDbMText
 10
113.3405403376
 20
94.6782169845
 30
0.0
 40
2.9104166667
 41
0.0
 71
     1
 72
     1
  1
mm
  7
SLDTEXTSTYLE0
 73
     1
 44
1.0
  0
ENDBLK
  5
273
330
271
100
AcDbEntity
  8
0
100
AcDbBlockEnd
  0
BLOCK
  5
27E
330
27D
100
AcDbEntity
  8
0
100
AcDbBlockBegin
  2
_D_6
 70
     0
 10
0.0
 20
0.0
 30
0.0
  3
_D_6
  1

  0
INSERT
  5
280
330
27D
100
AcDbEntity
  8
SLD-0
100
AcDbBlockReference
  2
_CLOSED
 10
48.1302737892
 20
242.1974732708
 30
0.0
 41
3.556
 42
3.556
 50
90.0
  0
INSERT
  5
281
330
27D
100
AcDbEntity
  8
SLD-0
100
AcDbBlockReference
  2
_CLOSED
 10
48.1302737892
 20
245.1974732708
 30
0.0
 41
3.556
 42
3.556
 50
270.0
  0
LINE
  5
282
330
27D
100
AcDbEntity
  8
SLD-0
100
AcDbLine
 10
60.0802737892
 20
242.1974732708
 30
0.0
 11
47.1302737892
 21
242.1974732708
 31
0.0
  0
LINE
  5
283
330
27D
100
AcDbEntity
  8
SLD-0
100
AcDbLine
 10
60.0802737892
 20
245.1974732708
 30
0.0
 11
47.1302737892
 21
245.1974732708
 31
0.0
  0
LINE
  5
284
330
27D
100
AcDbEntity
  8
SLD-0
100
AcDbLine
 10
48.1302737892
 20
242.1974732708
 30
0.0
 11
48.1302737892
 21
235.8474732708
 31
0.0
  0
LINE
  5
285
330
27D
100
AcDbEntity
  8
SLD-0
100
AcDbLine
 10
48.1302737892
 20
242.1974732708
 30
0.0
 11
48.1302737892
 21
245.1974732708
 31
0.0
  0
LINE
  5
286
330
27D
100
AcDbEntity
  8
SLD-0
100
AcDbLine
 10
48.1302737892
 20
245.1974732708
 30
0.0
 11
48.1302737892
 21
251.5474732708
 31
0.0
  0
MTEXT
  5
287
330
27D
100
AcDbEntity
  8
SLD-0
100
AcDbMText
 10
44.3785493221
 20
240.0302962173
 30
0.0
 40
2.9104166667
 41
0.0
 71
     1
 72
     1
  1
%%c
  7
SLDTEXTSTYLE0
 11
6.123233995736766E-17
 21
1.0
 31
0.0
 73
     1
 44
1.0
  0
MTEXT
  5
288
330
27D
100
AcDbEntity
  8
SLD-0
100
AcDbMText
 10
44.3785493221
 20
244.4234085974
 30
0.0
 40
2.9104166667
 41
0.0
 71
     1
 72
     1
  1
3
  7
SLDTEXTSTYLE0
 11
6.123233995736766E-17
 21
1.0
 31
0.0
 73
     1
 44
1.0
  0
ENDBLK
  5
27F
330
27D
100
AcDbEntity
  8
0
100
AcDbBlockEnd
  0
BLOCK
  5
28B
330
28A
100
AcDbEntity
  8
0
100
AcDbBlockBegin
  2
_D_7
 70
     0
 10
0.0
 20
0.0
 30
0.0
  3
_D_7
  1

  0
INSERT
  5
28D
330
28A
100
AcDbEntity
  8
SLD-0
100
AcDbBlockReference
  2
_CLOSED
 10
171.4302737892
 20
234.6974732708
 30
0.0
 41
3.556
 42
3.556
 50
90.0
  0
INSERT
  5
28E
330
28A
100
AcDbEntity
  8
SLD-0
100
AcDbBlockReference
  2
_CLOSED
 10
171.4302737892
 20
252.6974732708
 30
0.0
 41
3.556
 42
3.556
 50
270.0
  0
LINE
  5
28F
330
28A
100
AcDbEntity
  8
SLD-0
100
AcDbLine
 10
153.4302737892
 20
234.6974732708
 30
0.0
 11
172.4302737892
 21
234.6974732708
 31
0.0
  0
LINE
  5
290
330
28A
100
AcDbEntity
  8
SLD-0
100
AcDbLine
 10
153.4302737892
 20
252.6974732708
 30
0.0
 11
172.4302737892
 21
252.6974732708
 31
0.0
  0
LINE
  5
291
330
28A
100
AcDbEntity
  8
SLD-0
100
AcDbLine
 10
171.4302737892
 20
234.6974732708
 30
0.0
 11
171.4302737892
 21
228.3474732708
 31
0.0
  0
LINE
  5
292
330
28A
100
AcDbEntity
  8
SLD-0
100
AcDbLine
 10
171.4302737892
 20
234.6974732708
 30
0.0
 11
171.4302737892
 21
252.6974732708
 31
0.0
  0
LINE
  5
293
330
28A
100
AcDbEntity
  8
SLD-0
100
AcDbLine
 10
171.4302737892
 20
252.6974732708
 30
0.0
 11
171.4302737892
 21
259.0474732708
 31
0.0
  0
MTEXT
  5
294
330
28A
100
AcDbEntity
  8
SLD-0
100
AcDbMText
 10
167.6785495549
 20
236.9773230289
 30
0.0
 40
2.9104166667
 41
0.0
 71
     1
 72
     1
  1
18
  7
SLDTEXTSTYLE0
 11
6.123233995736766E-17
 21
1.0
 31
0.0
 73
     1
 44
1.0
  0
MTEXT
  5
295
330
28A
100
AcDbEntity
  8
SLD-0
100
AcDbMText
 10
167.6785495549
 20
242.3696784426
 30
0.0
 40
2.9104166667
 41
0.0
 71
     1
 72
     1
  1
mm
  7
SLDTEXTSTYLE0
 11
6.123233995736766E-17
 21
1.0
 31
0.0
 73
     1
 44
1.0
  0
ENDBLK
  5
28C
330
28A
100
AcDbEntity
  8
0
100
AcDbBlockEnd
  0
BLOCK
  5
298
330
297
100
AcDbEntity
  8
0
100
AcDbBlockBegin
  2
_D_8
 70
     0
 10
0.0
 20
0.0
 30
0.0
  3
_D_8
  1

  0
INSERT
  5
29A
330
297
100
AcDbEntity
  8
SLD-0
100
AcDbBlockReference
  2
_CLOSED
 10
171.3229051724
 20
166.6974732708
 30
0.0
 41
3.556
 42
3.556
 50
90.0
  0
INSERT
  5
29B
330
297
100
AcDbEntity
  8
SLD-0
100
AcDbBlockReference
  2
_CLOSED
 10
171.3229051724
 20
184.6974732708
 30
0.0
 41
3.556
 42
3.556
 50
270.0
  0
LINE
  5
29C
330
297
100
AcDbEntity
  8
SLD-0
100
AcDbLine
 10
148.3302737892
 20
166.6974732708
 30
0.0
 11
172.3229051724
 21
166.6974732708
 31
0.0
  0
LINE
  5
29D
330
297
100
AcDbEntity
  8
SLD-0
100
AcDbLine
 10
148.3302737892
 20
184.6974732708
 30
0.0
 11
172.3229051724
 21
184.6974732708
 31
0.0
  0
LINE
  5
29E
330
297
100
AcDbEntity
  8
SLD-0
100
AcDbLine
 10
171.3229051724
 20
166.6974732708
 30
0.0
 11
171.3229051724
 21
160.3474732708
 31
0.0
  0
LINE
  5
29F
330
297
100
AcDbEntity
  8
SLD-0
100
AcDbLine
 10
171.3229051724
 20
166.6974732708
 30
0.0
 11
171.3229051724
 21
184.6974732708
 31
0.0
  0
LINE
  5
2A0
330
297
100
AcDbEntity
  8
SLD-0
100
AcDbLine
 10
171.3229051724
 20
184.6974732708
 30
0.0
 11
171.3229051724
 21
191.0474732708
 31
0.0
  0
MTEXT
  5
2A1
330
297
100
AcDbEntity
  8
SLD-0
100
AcDbMText
 10
167.5711809381
 20
169.1267231023
 30
0.0
 40
2.9104166667
 41
0.0
 71
     1
 72
     1
  1
18
  7
SLDTEXTSTYLE0
 11
6.123233995736766E-17
 21
1.0
 31
0.0
 73
     1
 44
1.0
  0
MTEXT
  5
2A2
330
297
100
AcDbEntity
  8
SLD-0
100
AcDbMText
 10
167.5711809381
 20
174.5190785161
 30
0.0
 40
2.9104166667
 41
0.0
 71
     1
 72
     1
  1
mm
  7
SLDTEXTSTYLE0
 11
6.123233995736766E-17
 21
1.0
 31
0.0
 73
     1
 44
1.0
  0
ENDBLK
  5
299
330
297
100
AcDbEntity
  8
0
100
AcDbBlockEnd
  0
BLOCK
  5
2A5
330
2A4
100
AcDbEntity
  8
0
100
AcDbBlockBegin
  2
_D_9
 70
     0
 10
0.0
 20
0.0
 30
0.0
  3
_D_9
  1

  0
INSERT
  5
2A7
330
2A4
100
AcDbEntity
  8
SLD-0
100
AcDbBlockReference
  2
_CLOSED
 10
54.6165883002
 20
174.1974732708
 30
0.0
 41
3.556
 42
3.556
 50
90.0
  0
INSERT
  5
2A8
330
2A4
100
AcDbEntity
  8
SLD-0
100
AcDbBlockReference
  2
_CLOSED
 10
54.6165883002
 20
177.1974732708
 30
0.0
 41
3.556
 42
3.556
 50
270.0
  0
LINE
  5
2A9
330
2A4
100
AcDbEntity
  8
SLD-0
100
AcDbLine
 10
65.1802737892
 20
174.1974732708
 30
0.0
 11
53.6165883002
 21
174.1974732708
 31
0.0
  0
LINE
  5
2AA
330
2A4
100
AcDbEntity
  8
SLD-0
100
AcDbLine
 10
65.1802737892
 20
177.1974732708
 30
0.0
 11
53.6165883002
 21
177.1974732708
 31
0.0
  0
LINE
  5
2AB
330
2A4
100
AcDbEntity
  8
SLD-0
100
AcDbLine
 10
54.6165883002
 20
174.1974732708
 30
0.0
 11
54.6165883002
 21
167.8474732708
 31
0.0
  0
LINE
  5
2AC
330
2A4
100
AcDbEntity
  8
SLD-0
100
AcDbLine
 10
54.6165883002
 20
174.1974732708
 30
0.0
 11
54.6165883002
 21
177.1974732708
 31
0.0
  0
LINE
  5
2AD
330
2A4
100
AcDbEntity
  8
SLD-0
100
AcDbLine
 10
54.6165883002
 20
177.1974732708
 30
0.0
 11
54.6165883002
 21
183.5474732708
 31
0.0
  0
MTEXT
  5
2AE
330
2A4
100
AcDbEntity
  8
SLD-0
100
AcDbMText
 10
50.8648638331
 20
171.642853207
 30
0.0
 40
2.9104166667
 41
0.0
 71
     1
 72
     1
  1
%%c
  7
SLDTEXTSTYLE0
 11
6.123233995736766E-17
 21
1.0
 31
0.0
 73
     1
 44
1.0
  0
MTEXT
  5
2AF
330
2A4
100
AcDbEntity
  8
SLD-0
100
AcDbMText
 10
50.8648638331
 20
176.035965587
 30
0.0
 40
2.9104166667
 41
0.0
 71
     1
 72
     1
  1
3
  7
SLDTEXTSTYLE0
 11
6.123233995736766E-17
 21
1.0
 31
0.0
 73
     1
 44
1.0
  0
ENDBLK
  5
2A6
330
2A4
100
AcDbEntity
  8
0
100
AcDbBlockEnd
  0
BLOCK
  5
2B2
330
2B1
100
AcDbEntity
  8
0
100
AcDbBlockBegin
  2
_D_10
 70
     0
 10
0.0
 20
0.0
 30
0.0
  3
_D_10
  1

  0
INSERT
  5
2B4
330
2B1
100
AcDbEntity
  8
SLD-0
100
AcDbBlockReference
  2
_CLOSED
 10
59.5109905025
 20
106.1974732708
 30
0.0
 41
3.556
 42
3.556
 50
90.0
  0
INSERT
  5
2B5
330
2B1
100
AcDbEntity
  8
SLD-0
100
AcDbBlockReference
  2
_CLOSED
 10
59.5109905025
 20
109.1974732708
 30
0.0
 41
3.556
 42
3.556
 50
270.0
  0
LINE
  5
2B6
330
2B1
100
AcDbEntity
  8
SLD-0
100
AcDbLine
 10
70.2802737892
 20
106.1974732708
 30
0.0
 11
58.5109905025
 21
106.1974732708
 31
0.0
  0
LINE
  5
2B7
330
2B1
100
AcDbEntity
  8
SLD-0
100
AcDbLine
 10
70.2802737892
 20
109.1974732708
 30
0.0
 11
58.5109905025
 21
109.1974732708
 31
0.0
  0
LINE
  5
2B8
330
2B1
100
AcDbEntity
  8
SLD-0
100
AcDbLine
 10
59.5109905025
 20
106.1974732708
 30
0.0
 11
59.5109905025
 21
99.8474732708
 31
0.0
  0
LINE
  5
2B9
330
2B1
100
AcDbEntity
  8
SLD-0
100
AcDbLine
 10
59.5109905025
 20
106.1974732708
 30
0.0
 11
59.5109905025
 21
109.1974732708
 31
0.0
  0
LINE
  5
2BA
330
2B1
100
AcDbEntity
  8
SLD-0
100
AcDbLine
 10
59.5109905025
 20
109.1974732708
 30
0.0
 11
59.5109905025
 21
115.5474732708
 31
0.0
  0
MTEXT
  5
2BB
330
2B1
100
AcDbEntity
  8
SLD-0
100
AcDbMText
 10
55.7592660354
 20
103.2671177073
 30
0.0
 40
2.9104166667
 41
0.0
 71
     1
 72
     1
  1
%%c
  7
SLDTEXTSTYLE0
 11
6.123233995736766E-17
 21
1.0
 31
0.0
 73
     1
 44
1.0
  0
MTEXT
  5
2BC
330
2B1
100
AcDbEntity
  8
SLD-0
100
AcDbMText
 10
55.7592660354
 20
107.6602300874
 30
0.0
 40
2.9104166667
 41
0.0
 71
     1
 72
     1
  1
3
  7
SLDTEXTSTYLE0
 11
6.123233995736766E-17
 21
1.0
 31
0.0
 73
     1
 44
1.0
  0
ENDBLK
  5
2B3
330
2B1
100
AcDbEntity
  8
0
100
AcDbBlockEnd
  0
BLOCK
  5
2BF
330
2BE
100
AcDbEntity
  8
0
100
AcDbBlockBegin
  2
_D_11
 70
     0
 10
0.0
 20
0.0
 30
0.0
  3
_D_11
  1

  0
INSERT
  5
2C1
330
2BE
100
AcDbEntity
  8
SLD-0
100
AcDbBlockReference
  2
_CLOSED
 10
164.7337135091
 20
98.6974732708
 30
0.0
 41
3.556
 42
3.556
 50
90.0
  0
INSERT
  5
2C2
330
2BE
100
AcDbEntity
  8
SLD-0
100
AcDbBlockReference
  2
_CLOSED
 10
164.7337135091
 20
116.6974732708
 30
0.0
 41
3.556
 42
3.556
 50
270.0
  0
LINE
  5
2C3
330
2BE
100
AcDbEntity
  8
SLD-0
100
AcDbLine
 10
143.2302737892
 20
98.6974732708
 30
0.0
 11
165.7337135091
 21
98.6974732708
 31
0.0
  0
LINE
  5
2C4
330
2BE
100
AcDbEntity
  8
SLD-0
100
AcDbLine
 10
143.2302737892
 20
116.6974732708
 30
0.0
 11
165.7337135091
 21
116.6974732708
 31
0.0
  0
LINE
  5
2C5
330
2BE
100
AcDbEntity
  8
SLD-0
100
AcDbLine
 10
164.7337135091
 20
98.6974732708
 30
0.0
 11
164.7337135091
 21
92.3474732708
 31
0.0
  0
LINE
  5
2C6
330
2BE
100
AcDbEntity
  8
SLD-0
100
AcDbLine
 10
164.7337135091
 20
98.6974732708
 30
0.0
 11
164.7337135091
 21
116.6974732708
 31
0.0
  0
LINE
  5
2C7
330
2BE
100
AcDbEntity
  8
SLD-0
100
AcDbLine
 10
164.7337135091
 20
116.6974732708
 30
0.0
 11
164.7337135091
 21
123.0474732708
 31
0.0
  0
MTEXT
  5
2C8
330
2BE
100
AcDbEntity
  8
SLD-0
100
AcDbMText
 10
160.9819892748
 20
101.2666782937
 30
0.0
 40
2.9104166667
 41
0.0
 71
     1
 72
     1
  1
18
  7
SLDTEXTSTYLE0
 11
6.123233995736766E-17
 21
1.0
 31
0.0
 73
     1
 44
1.0
  0
MTEXT
  5
2C9
330
2BE
100
AcDbEntity
  8
SLD-0
100
AcDbMText
 10
160.9819892748
 20
106.6590337074
 30
0.0
 40
2.9104166667
 41
0.0
 71
     1
 72
     1
  1
mm
  7
SLDTEXTSTYLE0
 11
6.123233995736766E-17
 21
1.0
 31
0.0
 73
     1
 44
1.0
  0
ENDBLK
  5
2C0
330
2BE
100
AcDbEntity
  8
0
100
AcDbBlockEnd
  0
BLOCK
  5
2D3
330
2D2
100
AcDbEntity
  8
0
100
AcDbBlockBegin
  2
SW_NOTE_0
 70
     0
 10
0.0
 20
0.0
 30
0.0
  3
SW_NOTE_0
  1

  0
MTEXT
  5
2D5
330
2D2
100
AcDbEntity
  8
SLD-0
 62
     0
100
AcDbMText
 10
0.0
 20
4.0927900738
 30
0.0
 40
3.175
 41
0.0
 71
     1
 72
     1
  1
XR Project by Cycfi Research is licensed under
  7
SLDTEXTSTYLE0
 73
     1
 44
1.0
  0
MTEXT
  5
2D6
330
2D2
100
AcDbEntity
  8
SLD-0
 62
     0
100
AcDbMText
 10
0.0
 20
-1.1405433723
 30
0.0
 40
3.175
 41
0.0
 71
     1
 72
     1
  1
a Creative Commons Attribution-ShareAlike 4.0
  7
SLDTEXTSTYLE0
 73
     1
 44
1.0
  0
MTEXT
  5
2D7
330
2D2
100
AcDbEntity
  8
SLD-0
 62
     0
100
AcDbMText
 10
0.0
 20
-6.3738768184
 30
0.0
 40
3.175
 41
0.0
 71
     1
 72
     1
  1
International License.
  7
SLDTEXTSTYLE0
 73
     1
 44
1.0
  0
ENDBLK
  5
2D4
330
2D2
100
AcDbEntity
  8
0
100
AcDbBlockEnd
  0
BLOCK
  5
2DB
330
2DA
100
AcDbEntity
  8
0
100
AcDbBlockBegin
  2
SW_NOTE_1
 70
     0
 10
0.0
 20
0.0
 30
0.0
  3
SW_NOTE_1
  1

  0
MTEXT
  5
2DE
330
2DA
100
AcDbEntity
  8
SLD-0_0
 62
     0
100
AcDbMText
 10
12.352734375
 20
6.1391851107
 30
0.0
 40
4.7625
 41
0.0
 71
     2
 72
     1
  1
XR Dual
  7
SLDTEXTSTYLE1
 73
     1
 44
1.0
  0
MTEXT
  5
2DF
330
2DA
100
AcDbEntity
  8
SLD-0_0
 62
     0
100
AcDbMText
 10
11.8709731147
 20
-1.2108149765
 30
0.0
 40
4.7625
 41
0.0
 71
     2
 72
     1
  1
Mounting Base
  7
SLDTEXTSTYLE1
 73
     1
 44
1.0
  0
ENDBLK
  5
2DC
330
2DA
100
AcDbEntity
  8
0
100
AcDbBlockEnd
  0
ENDSEC
  0
SECTION
  2
ENTITIES
  0
LINE
  5
CF
330
1F
100
AcDbEntity
  8
LAYER_1
100
AcDbLine
 10
135.0969231098
 20
46.2873327195
 30
0.0
 11
135.0969231098
 21
43.8103090656
 31
0.0
  0
LINE
  5
D0
330
1F
100
AcDbEntity
  8
LAYER_1
100
AcDbLine
 10
135.0969231098
 20
43.8103090656
 30
0.0
 11
121.8784362425
 21
43.8103090656
 31
0.0
  0
LINE
  5
D1
330
1F
100
AcDbEntity
  8
LAYER_1
100
AcDbLine
 10
116.8999287567
 20
46.8123652715
 30
0.0
 11
116.8999287567
 21
49.1171341511
 31
0.0
  0
LINE
  5
D2
330
1F
100
AcDbEntity
  8
LAYER_1
100
AcDbLine
 10
121.8784362425
 20
52.119190357
 30
0.0
 11
135.0969231098
 21
52.119190357
 31
0.0
  0
LINE
  5
D3
330
1F
100
AcDbEntity
  8
LAYER_1
100
AcDbLine
 10
135.0969231098
 20
52.119190357
 30
0.0
 11
135.0969231098
 21
49.6421667031
 31
0.0
  0
LINE
  5
D4
330
1F
100
AcDbEntity
  8
LAYER_1
100
AcDbLine
 10
135.0969231098
 20
49.6421667031
 30
0.0
 11
121.8784362425
 21
49.6421667031
 31
0.0
  0
LINE
  5
D5
330
1F
100
AcDbEntity
  8
LAYER_1
100
AcDbLine
 10
119.3772969202
 20
48.4784134482
 30
0.0
 11
119.3772969202
 21
47.4507414649
 31
0.0
  0
LINE
  5
D6
330
1F
100
AcDbEntity
  8
LAYER_1
100
AcDbLine
 10
121.8784362425
 20
46.2873327195
 30
0.0
 11
135.0969231098
 21
46.2873327195
 31
0.0
  0
LINE
  5
D7
330
1F
100
AcDbEntity
  8
LAYER_1
100
AcDbLine
 10
149.8185051374
 20
43.8103090656
 30
0.0
 11
145.882828055
 21
43.8103090656
 31
0.0
  0
LINE
  5
D8
330
1F
100
AcDbEntity
  8
LAYER_1
100
AcDbLine
 10
145.882828055
 20
43.8103090656
 30
0.0
 11
145.882828055
 21
46.28698821
 31
0.0
  0
LINE
  5
D9
330
1F
100
AcDbEntity
  8
LAYER_1
100
AcDbLine
 10
145.882828055
 20
46.28698821
 30
0.0
 11
149.8185051374
 21
46.28698821
 31
0.0
  0
LINE
  5
DA
330
1F
100
AcDbEntity
  8
LAYER_1
100
AcDbLine
 10
136.2475850019
 20
52.119190357
 30
0.0
 11
138.7242641462
 21
52.119190357
 31
0.0
  0
LINE
  5
DB
330
1F
100
AcDbEntity
  8
LAYER_1
100
AcDbLine
 10
138.7242641462
 20
52.119190357
 30
0.0
 11
138.7242641462
 21
50.6040373626
 31
0.0
  0
LINE
  5
DC
330
1F
100
AcDbEntity
  8
LAYER_1
100
AcDbLine
 10
140.8622904044
 20
49.7806595416
 30
0.0
 11
152.3196444597
 21
49.7806595416
 31
0.0
  0
LINE
  5
DD
330
1F
100
AcDbEntity
  8
LAYER_1
100
AcDbLine
 10
152.3196444597
 20
49.7806595416
 30
0.0
 11
152.3196444597
 21
52.119190357
 31
0.0
  0
LINE
  5
DE
330
1F
100
AcDbEntity
  8
LAYER_1
100
AcDbLine
 10
152.3196444597
 20
52.119190357
 30
0.0
 11
154.7966681136
 21
52.119190357
 31
0.0
  0
LINE
  5
DF
330
1F
100
AcDbEntity
  8
LAYER_1
100
AcDbLine
 10
154.7966681136
 20
52.119190357
 30
0.0
 11
154.7966681136
 21
47.1651430492
 31
0.0
  0
LINE
  5
E0
330
1F
100
AcDbEntity
  8
LAYER_1
100
AcDbLine
 10
196.3667405316
 20
52.119190357
 30
0.0
 11
196.3667405316
 21
43.8103090656
 31
0.0
  0
LINE
  5
E1
330
1F
100
AcDbEntity
  8
LAYER_1
100
AcDbLine
 10
196.3667405316
 20
43.8103090656
 30
0.0
 11
193.8897168777
 21
43.8103090656
 31
0.0
  0
LINE
  5
E2
330
1F
100
AcDbEntity
  8
LAYER_1
100
AcDbLine
 10
193.8897168777
 20
43.8103090656
 30
0.0
 11
193.8897168777
 21
52.119190357
 31
0.0
  0
LINE
  5
E3
330
1F
100
AcDbEntity
  8
LAYER_1
100
AcDbLine
 10
193.8897168777
 20
52.119190357
 30
0.0
 11
196.3667405316
 21
52.119190357
 31
0.0
  0
LINE
  5
E4
330
1F
100
AcDbEntity
  8
LAYER_1
100
AcDbLine
 10
174.1438075944
 20
46.2873327195
 30
0.0
 11
174.1438075944
 21
43.8103090656
 31
0.0
  0
LINE
  5
E5
330
1F
100
AcDbEntity
  8
LAYER_1
100
AcDbLine
 10
174.1438075944
 20
43.8103090656
 30
0.0
 11
160.9249762175
 21
43.8103090656
 31
0.0
  0
LINE
  5
E6
330
1F
100
AcDbEntity
  8
LAYER_1
100
AcDbLine
 10
155.9466409865
 20
46.8123652715
 30
0.0
 11
155.9466409865
 21
49.1171341511
 31
0.0
  0
LINE
  5
E7
330
1F
100
AcDbEntity
  8
LAYER_1
100
AcDbLine
 10
160.9249762175
 20
52.119190357
 30
0.0
 11
174.1438075944
 21
52.119190357
 31
0.0
  0
LINE
  5
E8
330
1F
100
AcDbEntity
  8
LAYER_1
100
AcDbLine
 10
174.1438075944
 20
52.119190357
 30
0.0
 11
174.1438075944
 21
49.6421667031
 31
0.0
  0
LINE
  5
E9
330
1F
100
AcDbEntity
  8
LAYER_1
100
AcDbLine
 10
174.1438075944
 20
49.6421667031
 30
0.0
 11
160.9249762175
 21
49.6421667031
 31
0.0
  0
LINE
  5
EA
330
1F
100
AcDbEntity
  8
LAYER_1
100
AcDbLine
 10
158.4238368952
 20
48.4784134482
 30
0.0
 11
158.4238368952
 21
47.8035192426
 31
0.0
  0
LINE
  5
EB
330
1F
100
AcDbEntity
  8
LAYER_1
100
AcDbLine
 10
160.9249762175
 20
46.2873327195
 30
0.0
 11
174.1438075944
 21
46.2873327195
 31
0.0
  0
LINE
  5
EC
330
1F
100
AcDbEntity
  8
LAYER_1
100
AcDbLine
 10
175.3061828111
 20
43.8103090656
 30
0.0
 11
175.3061828111
 21
52.119190357
 31
0.0
  0
LINE
  5
ED
330
1F
100
AcDbEntity
  8
LAYER_1
100
AcDbLine
 10
175.3061828111
 20
52.119190357
 30
0.0
 11
192.784530246
 21
52.119190357
 31
0.0
  0
LINE
  5
EE
330
1F
100
AcDbEntity
  8
LAYER_1
100
AcDbLine
 10
192.784530246
 20
52.119190357
 30
0.0
 11
192.784530246
 21
49.6425112126
 31
0.0
  0
LINE
  5
EF
330
1F
100
AcDbEntity
  8
LAYER_1
100
AcDbLine
 10
192.784530246
 20
49.6425112126
 30
0.0
 11
177.783206465
 21
49.6425112126
 31
0.0
  0
LINE
  5
F0
330
1F
100
AcDbEntity
  8
LAYER_1
100
AcDbLine
 10
177.783206465
 20
49.6425112126
 30
0.0
 11
177.7625358921
 21
48.6763341838
 31
0.0
  0
LINE
  5
F1
330
1F
100
AcDbEntity
  8
LAYER_1
100
AcDbLine
 10
177.7625358921
 20
48.6763341838
 30
0.0
 11
187.4198275564
 21
48.6690994833
 31
0.0
  0
LINE
  5
F2
330
1F
100
AcDbEntity
  8
LAYER_1
100
AcDbLine
 10
187.4198275564
 20
48.6690994833
 30
0.0
 11
187.4198275564
 21
46.1991382751
 31
0.0
  0
LINE
  5
F3
330
1F
100
AcDbEntity
  8
LAYER_1
100
AcDbLine
 10
187.4198275564
 20
46.1991382751
 30
0.0
 11
177.7625358921
 21
46.1991382751
 31
0.0
  0
LINE
  5
F4
330
1F
100
AcDbEntity
  8
LAYER_1
100
AcDbLine
 10
177.7625358921
 20
46.1991382751
 30
0.0
 11
177.783206465
 21
43.8103090656
 31
0.0
  0
LINE
  5
F5
330
1F
100
AcDbEntity
  8
LAYER_1
100
AcDbLine
 10
177.783206465
 20
43.8103090656
 30
0.0
 11
175.3061828111
 21
43.8103090656
 31
0.0
  0
LINE
  5
F6
330
1F
100
AcDbEntity
  8
SLD-0_0
  6
Continuous
 62
   179
370
     0
100
AcDbLine
 10
107.9217561497
 20
12.1493458571
 30
0.0
 11
205.0
 21
12.1493458571
 31
0.0
  0
LINE
  5
F7
330
1F
100
AcDbEntity
  8
SLD-0_0
  6
Continuous
 62
   179
370
     0
100
AcDbLine
 10
174.8431841398
 20
5.0
 30
0.0
 11
174.8431841398
 21
12.1493458571
 31
0.0
  0
LINE
  5
F8
330
1F
100
AcDbEntity
  8
SLD-0_0
  6
Continuous
 62
   179
370
     0
100
AcDbLine
 10
107.9217561497
 20
19.759518537
 30
0.0
 11
205.0
 21
19.759518537
 31
0.0
  0
LINE
  5
F9
330
1F
100
AcDbEntity
  8
SLD-0_0
  6
Continuous
 62
   179
370
     0
100
AcDbLine
 10
174.8431841398
 20
12.1493458571
 30
0.0
 11
174.8431841398
 21
19.759518537
 31
0.0
  0
LINE
  5
FA
330
1F
100
AcDbEntity
  8
SLD-0_0
  6
Continuous
 62
   179
370
     0
100
AcDbLine
 10
17.8
 20
5.0
 30
0.0
 11
205.0
 21
5.0
 31
0.0
  0
LINE
  5
FB
330
1F
100
AcDbEntity
  8
SLD-0_0
  6
Continuous
 62
   179
370
     0
100
AcDbLine
 10
107.9217561497
 20
60.25
 30
0.0
 11
205.0
 21
60.25
 31
0.0
  0
LINE
  5
FC
330
1F
100
AcDbEntity
  8
SLD-0_0
  6
Continuous
 62
   179
370
     0
100
AcDbLine
 10
107.9217561497
 20
60.25
 30
0.0
 11
107.9217561497
 21
5.0
 31
0.0
  0
LINE
  5
FD
330
1F
100
AcDbEntity
  8
SLD-0_0
  6
Continuous
 62
   179
370
     0
100
AcDbLine
 10
205.0
 20
34.7762702395
 30
0.0
 11
107.9217561497
 21
34.7762702395
 31
0.0
  0
LINE
  5
FE
330
1F
100
AcDbEntity
  8
SLD-0_0
  6
Continuous
 62
   179
370
     0
100
AcDbLine
 10
7.0707974599
 20
292.0
 30
0.0
 11
7.0707974599
 21
5.0
 31
0.0
  0
LINE
  5
FF
330
1F
100
AcDbEntity
  8
SLD-0_0
  6
Continuous
 62
   179
370
     0
100
AcDbLine
 10
7.0707974599
 20
5.0
 30
0.0
 11
17.8
 21
5.0
 31
0.0
  0
LINE
  5
100
330
1F
100
AcDbEntity
  8
SLD-0_0
  6
Continuous
 62
   179
370
     0
100
AcDbLine
 10
205.0
 20
5.0
 30
0.0
 11
205.0
 21
292.0
 31
0.0
  0
LINE
  5
101
330
1F
100
AcDbEntity
  8
SLD-0_0
  6
Continuous
 62
   179
370
     0
100
AcDbLine
 10
205.0
 20
292.0
 30
0.0
 11
17.8
 21
292.0
 31
0.0
  0
LINE
  5
102
330
1F
100
AcDbEntity
  8
SLD-0_0
  6
Continuous
 62
   179
370
     0
100
AcDbLine
 10
17.8
 20
292.0
 30
0.0
 11
7.0707974599
 21
292.0
 31
0.0
  0
LINE
  5
103
330
1F
100
AcDbEntity
  8
SLD-0_0
  6
Continuous
 62
   179
370
    15
100
AcDbLine
 10
152.4302719536
 20
252.4974706936
 30
0.0
 11
67.1302734318
 21
252.4974706936
 31
0.0
  0
LINE
  5
104
330
1F
100
AcDbEntity
  8
SLD-0_0
  6
Continuous
 62
   179
370
    15
100
AcDbLine
 10
67.1302734318
 20
252.6974740791
 30
0.0
 11
67.1302734318
 21
252.4974706936
 31
0.0
  0
LINE
  5
105
330
1F
100
AcDbEntity
  8
SLD-0_0
  6
Continuous
 62
   179
370
    15
100
AcDbLine
 10
67.1302734318
 20
252.6974740791
 30
0.0
 11
152.4302719536
 21
252.6974740791
 31
0.0
  0
LINE
  5
106
330
1F
100
AcDbEntity
  8
SLD-0_0
  6
Continuous
 62
   179
370
    15
100
AcDbLine
 10
152.4302719536
 20
252.4974706936
 30
0.0
 11
152.4302719536
 21
252.6974740791
 31
0.0
  0
LINE
  5
107
330
1F
100
AcDbEntity
  8
SLD-0_0
  6
Continuous
 62
   179
370
    15
100
AcDbLine
 10
67.1302734318
 20
234.8974707889
 30
0.0
 11
152.4302719536
 21
234.8974707889
 31
0.0
  0
LINE
  5
108
330
1F
100
AcDbEntity
  8
SLD-0_0
  6
Continuous
 62
   179
370
    15
100
AcDbLine
 10
98.0802720788
 20
247.8974747825
 30
0.0
 11
112.9802747073
 21
247.8974747825
 31
0.0
  0
LINE
  5
109
330
1F
100
AcDbEntity
  8
SLD-0_0
  6
Continuous
 62
   179
370
    15
100
AcDbLine
 10
98.0802720788
 20
239.4974741506
 30
0.0
 11
98.0802720788
 21
247.8974747825
 31
0.0
  0
LINE
  5
10A
330
1F
100
AcDbEntity
  8
SLD-0_0
  6
Continuous
 62
   179
370
    15
100
AcDbLine
 10
112.9802747073
 20
239.4974741505
 30
0.0
 11
98.0802720788
 21
239.4974741506
 31
0.0
  0
LINE
  5
10B
330
1F
100
AcDbEntity
  8
SLD-0_0
  6
Continuous
 62
   179
370
    15
100
AcDbLine
 10
112.9802747073
 20
247.8974747825
 30
0.0
 11
112.9802747073
 21
239.4974741505
 31
0.0
  0
LINE
  5
10C
330
1F
100
AcDbEntity
  8
SLD-0_0
  6
Continuous
 62
   179
370
    15
100
AcDbLine
 10
112.7802713218
 20
247.6974713969
 30
0.0
 11
98.2802754643
 21
247.6974713969
 31
0.0
  0
LINE
  5
10D
330
1F
100
AcDbEntity
  8
SLD-0_0
  6
Continuous
 62
   179
370
    15
100
AcDbLine
 10
98.2802754643
 20
247.6974713969
 30
0.0
 11
98.2772356275
 21
247.7005112338
 31
0.0
  0
LINE
  5
10E
330
1F
100
AcDbEntity
  8
SLD-0_0
  6
Continuous
 62
   179
370
    15
100
AcDbLine
 10
98.2772356275
 20
247.7005112338
 30
0.0
 11
98.2682129744
 21
247.7095338869
 31
0.0
  0
LINE
  5
10F
330
1F
100
AcDbEntity
  8
SLD-0_0
  6
Continuous
 62
   179
370
    15
100
AcDbLine
 10
98.2682129744
 20
247.7095338869
 30
0.0
 11
98.2534794512
 21
247.7242711353
 31
0.0
  0
LINE
  5
110
330
1F
100
AcDbEntity
  8
SLD-0_0
  6
Continuous
 62
   179
370
    15
100
AcDbLine
 10
98.2534794512
 20
247.7242711353
 30
0.0
 11
98.2334820929
 21
247.7442610431
 31
0.0
  0
LINE
  5
111
330
1F
100
AcDbEntity
  8
SLD-0_0
  6
Continuous
 62
   179
370
    15
100
AcDbLine
 10
98.2334820929
 20
247.7442610431
 30
0.0
 11
98.208831847
 21
247.7689150143
 31
0.0
  0
LINE
  5
112
330
1F
100
AcDbEntity
  8
SLD-0_0
  6
Continuous
 62
   179
370
    15
100
AcDbLine
 10
98.208831847
 20
247.7689150143
 30
0.0
 11
98.1802737716
 21
247.7974730897
 31
0.0
  0
LINE
  5
113
330
1F
100
AcDbEntity
  8
SLD-0_0
  6
Continuous
 62
   179
370
    15
100
AcDbLine
 10
98.1802737716
 20
247.7974730897
 30
0.0
 11
98.1486795845
 21
247.829071002
 31
0.0
  0
LINE
  5
114
330
1F
100
AcDbEntity
  8
SLD-0_0
  6
Continuous
 62
   179
370
    15
100
AcDbLine
 10
98.1486795845
 20
247.829071002
 30
0.0
 11
98.1150029602
 21
247.8627401757
 31
0.0
  0
LINE
  5
115
330
1F
100
AcDbEntity
  8
SLD-0_0
  6
Continuous
 62
   179
370
    15
100
AcDbLine
 10
98.1150029602
 20
247.8627401757
 30
0.0
 11
98.0802720788
 21
247.8974747825
 31
0.0
  0
LINE
  5
116
330
1F
100
AcDbEntity
  8
SLD-0_0
  6
Continuous
 62
   179
370
    15
100
AcDbLine
 10
112.9802747073
 20
247.8974747825
 30
0.0
 11
112.7802713218
 21
247.6974713969
 31
0.0
  0
LINE
  5
117
330
1F
100
AcDbEntity
  8
SLD-0_0
  6
Continuous
 62
   179
370
    15
100
AcDbLine
 10
112.9802747073
 20
239.4974741505
 30
0.0
 11
112.9412560167
 21
239.5364928411
 31
0.0
  0
LINE
  5
118
330
1F
100
AcDbEntity
  8
SLD-0_0
  6
Continuous
 62
   179
370
    15
100
AcDbLine
 10
112.9412560167
 20
239.5364928411
 30
0.0
 11
112.9037348929
 21
239.5740065145
 31
0.0
  0
LINE
  5
119
330
1F
100
AcDbEntity
  8
SLD-0_0
  6
Continuous
 62
   179
370
    15
100
AcDbLine
 10
112.9037348929
 20
239.5740065145
 30
0.0
 11
112.8691567483
 21
239.608584659
 31
0.0
  0
LINE
  5
11A
330
1F
100
AcDbEntity
  8
SLD-0_0
  6
Continuous
 62
   179
370
    15
100
AcDbLine
 10
112.8691567483
 20
239.608584659
 30
0.0
 11
112.8388552371
 21
239.638893621
 31
0.0
  0
LINE
  5
11B
330
1F
100
AcDbEntity
  8
SLD-0_0
  6
Continuous
 62
   179
370
    15
100
AcDbLine
 10
112.8388552371
 20
239.638893621
 30
0.0
 11
112.8139777484
 21
239.663763659
 31
0.0
  0
LINE
  5
11C
330
1F
100
AcDbEntity
  8
SLD-0_0
  6
Continuous
 62
   179
370
    15
100
AcDbLine
 10
112.8139777484
 20
239.663763659
 30
0.0
 11
112.7955003086
 21
239.6822485495
 31
0.0
  0
LINE
  5
11D
330
1F
100
AcDbEntity
  8
SLD-0_0
  6
Continuous
 62
   179
370
    15
100
AcDbLine
 10
112.7955003086
 20
239.6822485495
 30
0.0
 11
112.7841158214
 21
239.6936330366
 31
0.0
  0
LINE
  5
11E
330
1F
100
AcDbEntity
  8
SLD-0_0
  6
Continuous
 62
   179
370
    15
100
AcDbLine
 10
112.7841158214
 20
239.6936330366
 30
0.0
 11
112.7802713218
 21
239.6974700856
 31
0.0
  0
LINE
  5
11F
330
1F
100
AcDbEntity
  8
SLD-0_0
  6
Continuous
 62
   179
370
    15
100
AcDbLine
 10
112.7802713218
 20
239.6974700856
 30
0.0
 11
112.7802713218
 21
247.6974713969
 31
0.0
  0
LINE
  5
120
330
1F
100
AcDbEntity
  8
SLD-0_0
  6
Continuous
 62
   179
370
    15
100
AcDbLine
 10
98.2802754643
 20
239.6974700856
 30
0.0
 11
112.7802713218
 21
239.6974700856
 31
0.0
  0
LINE
  5
121
330
1F
100
AcDbEntity
  8
SLD-0_0
  6
Continuous
 62
   179
370
    15
100
AcDbLine
 10
98.2802754643
 20
239.6974700856
 30
0.0
 11
98.2772356275
 21
239.6944376993
 31
0.0
  0
LINE
  5
122
330
1F
100
AcDbEntity
  8
SLD-0_0
  6
Continuous
 62
   179
370
    15
100
AcDbLine
 10
98.2772356275
 20
239.6944376993
 30
0.0
 11
98.2682129744
 21
239.6854150462
 31
0.0
  0
LINE
  5
123
330
1F
100
AcDbEntity
  8
SLD-0_0
  6
Continuous
 62
   179
370
    15
100
AcDbLine
 10
98.2682129744
 20
239.6854150462
 30
0.0
 11
98.2534794512
 21
239.6706777978
 31
0.0
  0
LINE
  5
124
330
1F
100
AcDbEntity
  8
SLD-0_0
  6
Continuous
 62
   179
370
    15
100
AcDbLine
 10
98.2534794512
 20
239.6706777978
 30
0.0
 11
98.2334820929
 21
239.6506804395
 31
0.0
  0
LINE
  5
125
330
1F
100
AcDbEntity
  8
SLD-0_0
  6
Continuous
 62
   179
370
    15
100
AcDbLine
 10
98.2334820929
 20
239.6506804395
 30
0.0
 11
98.208831847
 21
239.6260339188
 31
0.0
  0
LINE
  5
126
330
1F
100
AcDbEntity
  8
SLD-0_0
  6
Continuous
 62
   179
370
    15
100
AcDbLine
 10
98.208831847
 20
239.6260339188
 30
0.0
 11
98.1802737716
 21
239.5974758434
 31
0.0
  0
LINE
  5
127
330
1F
100
AcDbEntity
  8
SLD-0_0
  6
Continuous
 62
   179
370
    15
100
AcDbLine
 10
98.1802737716
 20
239.5974758434
 30
0.0
 11
98.1486795845
 21
239.5658779311
 31
0.0
  0
LINE
  5
128
330
1F
100
AcDbEntity
  8
SLD-0_0
  6
Continuous
 62
   179
370
    15
100
AcDbLine
 10
98.1486795845
 20
239.5658779311
 30
0.0
 11
98.1150029602
 21
239.5322013068
 31
0.0
  0
LINE
  5
129
330
1F
100
AcDbEntity
  8
SLD-0_0
  6
Continuous
 62
   179
370
    15
100
AcDbLine
 10
98.1150029602
 20
239.5322013068
 30
0.0
 11
98.0802720788
 21
239.4974741506
 31
0.0
  0
LINE
  5
12A
330
1F
100
AcDbEntity
  8
SLD-0_0
  6
Continuous
 62
   179
370
    15
100
AcDbLine
 10
98.2802754643
 20
247.6974713969
 30
0.0
 11
98.2802754643
 21
239.6974700856
 31
0.0
  0
LINE
  5
12B
330
1F
100
AcDbEntity
  8
SLD-0_0
  6
Continuous
 62
   179
370
    15
100
AcDbLine
 10
152.4302719536
 20
234.8974707889
 30
0.0
 11
152.4302719536
 21
234.697474854
 31
0.0
  0
LINE
  5
12C
330
1F
100
AcDbEntity
  8
SLD-0_0
  6
Continuous
 62
   179
370
    15
100
AcDbLine
 10
152.4302719536
 20
234.697474854
 30
0.0
 11
67.1302734318
 21
234.697474854
 31
0.0
  0
LINE
  5
12D
330
1F
100
AcDbEntity
  8
SLD-0_0
  6
Continuous
 62
   179
370
    15
100
AcDbLine
 10
67.1302734318
 20
234.697474854
 30
0.0
 11
67.1302734318
 21
234.8974707889
 31
0.0
  0
LINE
  5
12E
330
1F
100
AcDbEntity
  8
SLD-0_0
  6
Continuous
 62
   179
370
    15
100
AcDbLine
 10
147.3302750292
 20
184.4974740296
 30
0.0
 11
72.2302740815
 21
184.4974740296
 31
0.0
  0
LINE
  5
12F
330
1F
100
AcDbEntity
  8
SLD-0_0
  6
Continuous
 62
   179
370
    15
100
AcDbLine
 10
72.2302740815
 20
166.8974722623
 30
0.0
 11
147.3302737892
 21
166.8974722623
 31
0.0
  0
LINE
  5
130
330
1F
100
AcDbEntity
  8
SLD-0_0
  6
Continuous
 62
   179
370
    15
100
AcDbLine
 10
98.0802720788
 20
179.8974748123
 30
0.0
 11
112.9802747074
 21
179.8974748123
 31
0.0
  0
LINE
  5
131
330
1F
100
AcDbEntity
  8
SLD-0_0
  6
Continuous
 62
   179
370
    15
100
AcDbLine
 10
98.0802720788
 20
171.4974741804
 30
0.0
 11
98.0802720788
 21
179.8974748123
 31
0.0
  0
LINE
  5
132
330
1F
100
AcDbEntity
  8
SLD-0_0
  6
Continuous
 62
   179
370
    15
100
AcDbLine
 10
112.9802747074
 20
171.4974741804
 30
0.0
 11
98.0802720788
 21
171.4974741804
 31
0.0
  0
LINE
  5
133
330
1F
100
AcDbEntity
  8
SLD-0_0
  6
Continuous
 62
   179
370
    15
100
AcDbLine
 10
112.9802747074
 20
179.8974748123
 30
0.0
 11
112.9802747074
 21
171.4974741804
 31
0.0
  0
LINE
  5
134
330
1F
100
AcDbEntity
  8
SLD-0_0
  6
Continuous
 62
   179
370
    15
100
AcDbLine
 10
112.9802747074
 20
171.4974741804
 30
0.0
 11
112.9412560168
 21
171.5364910084
 31
0.0
  0
LINE
  5
135
330
1F
100
AcDbEntity
  8
SLD-0_0
  6
Continuous
 62
   179
370
    15
100
AcDbLine
 10
112.9412560168
 20
171.5364910084
 30
0.0
 11
112.9037348929
 21
171.5740102696
 31
0.0
  0
LINE
  5
136
330
1F
100
AcDbEntity
  8
SLD-0_0
  6
Continuous
 62
   179
370
    15
100
AcDbLine
 10
112.9037348929
 20
171.5740102696
 30
0.0
 11
112.8691567483
 21
171.6085865515
 31
0.0
  0
LINE
  5
137
330
1F
100
AcDbEntity
  8
SLD-0_0
  6
Continuous
 62
   179
370
    15
100
AcDbLine
 10
112.8691567483
 20
171.6085865515
 30
0.0
 11
112.8388552371
 21
171.6388955134
 31
0.0
  0
LINE
  5
138
330
1F
100
AcDbEntity
  8
SLD-0_0
  6
Continuous
 62
   179
370
    15
100
AcDbLine
 10
112.8388552371
 20
171.6388955134
 30
0.0
 11
112.8139777484
 21
171.6637674141
 31
0.0
  0
LINE
  5
139
330
1F
100
AcDbEntity
  8
SLD-0_0
  6
Continuous
 62
   179
370
    15
100
AcDbLine
 10
112.8139777484
 20
171.6637674141
 30
0.0
 11
112.7955003086
 21
171.6822485793
 31
0.0
  0
LINE
  5
13A
330
1F
100
AcDbEntity
  8
SLD-0_0
  6
Continuous
 62
   179
370
    15
100
AcDbLine
 10
112.7955003086
 20
171.6822485793
 30
0.0
 11
112.7841158214
 21
171.6936312038
 31
0.0
  0
LINE
  5
13B
330
1F
100
AcDbEntity
  8
SLD-0_0
  6
Continuous
 62
   179
370
    15
100
AcDbLine
 10
112.7841158214
 20
171.6936312038
 30
0.0
 11
112.7802713218
 21
171.6974738407
 31
0.0
  0
LINE
  5
13C
330
1F
100
AcDbEntity
  8
SLD-0_0
  6
Continuous
 62
   179
370
    15
100
AcDbLine
 10
112.7802713218
 20
171.6974738407
 30
0.0
 11
112.7802713218
 21
179.6974714267
 31
0.0
  0
LINE
  5
13D
330
1F
100
AcDbEntity
  8
SLD-0_0
  6
Continuous
 62
   179
370
    15
100
AcDbLine
 10
112.9802747074
 20
179.8974748123
 30
0.0
 11
112.9412560168
 21
179.8584561217
 31
0.0
  0
LINE
  5
13E
330
1F
100
AcDbEntity
  8
SLD-0_0
  6
Continuous
 62
   179
370
    15
100
AcDbLine
 10
112.9412560168
 20
179.8584561217
 30
0.0
 11
112.9037348929
 21
179.8209349978
 31
0.0
  0
LINE
  5
13F
330
1F
100
AcDbEntity
  8
SLD-0_0
  6
Continuous
 62
   179
370
    15
100
AcDbLine
 10
112.9037348929
 20
179.8209349978
 30
0.0
 11
112.8691567483
 21
179.7863605785
 31
0.0
  0
LINE
  5
140
330
1F
100
AcDbEntity
  8
SLD-0_0
  6
Continuous
 62
   179
370
    15
100
AcDbLine
 10
112.8691567483
 20
179.7863605785
 30
0.0
 11
112.8388552371
 21
179.7560516167
 31
0.0
  0
LINE
  5
141
330
1F
100
AcDbEntity
  8
SLD-0_0
  6
Continuous
 62
   179
370
    15
100
AcDbLine
 10
112.8388552371
 20
179.7560516167
 30
0.0
 11
112.8139777484
 21
179.7311778533
 31
0.0
  0
LINE
  5
142
330
1F
100
AcDbEntity
  8
SLD-0_0
  6
Continuous
 62
   179
370
    15
100
AcDbLine
 10
112.8139777484
 20
179.7311778533
 30
0.0
 11
112.7955003086
 21
179.7126966882
 31
0.0
  0
LINE
  5
143
330
1F
100
AcDbEntity
  8
SLD-0_0
  6
Continuous
 62
   179
370
    15
100
AcDbLine
 10
112.7955003086
 20
179.7126966882
 30
0.0
 11
112.7841158214
 21
179.7013159263
 31
0.0
  0
LINE
  5
144
330
1F
100
AcDbEntity
  8
SLD-0_0
  6
Continuous
 62
   179
370
    15
100
AcDbLine
 10
112.7841158214
 20
179.7013159263
 30
0.0
 11
112.7802713218
 21
179.6974714267
 31
0.0
  0
LINE
  5
145
330
1F
100
AcDbEntity
  8
SLD-0_0
  6
Continuous
 62
   179
370
    15
100
AcDbLine
 10
98.2802754643
 20
171.6974738407
 30
0.0
 11
112.7802713218
 21
171.6974738407
 31
0.0
  0
LINE
  5
146
330
1F
100
AcDbEntity
  8
SLD-0_0
  6
Continuous
 62
   179
370
    15
100
AcDbLine
 10
98.2802754643
 20
171.6974738407
 30
0.0
 11
98.2764309648
 21
171.6936312038
 31
0.0
  0
LINE
  5
147
330
1F
100
AcDbEntity
  8
SLD-0_0
  6
Continuous
 62
   179
370
    15
100
AcDbLine
 10
98.2764309648
 20
171.6936312038
 30
0.0
 11
98.2650502029
 21
171.6822485793
 31
0.0
  0
LINE
  5
148
330
1F
100
AcDbEntity
  8
SLD-0_0
  6
Continuous
 62
   179
370
    15
100
AcDbLine
 10
98.2650502029
 20
171.6822485793
 30
0.0
 11
98.2465690377
 21
171.6637674141
 31
0.0
  0
LINE
  5
149
330
1F
100
AcDbEntity
  8
SLD-0_0
  6
Continuous
 62
   179
370
    15
100
AcDbLine
 10
98.2465690377
 20
171.6637674141
 30
0.0
 11
98.2216952744
 21
171.6388955134
 31
0.0
  0
LINE
  5
14A
330
1F
100
AcDbEntity
  8
SLD-0_0
  6
Continuous
 62
   179
370
    15
100
AcDbLine
 10
98.2216952744
 20
171.6388955134
 30
0.0
 11
98.1913863125
 21
171.6085865515
 31
0.0
  0
LINE
  5
14B
330
1F
100
AcDbEntity
  8
SLD-0_0
  6
Continuous
 62
   179
370
    15
100
AcDbLine
 10
98.1913863125
 20
171.6085865515
 30
0.0
 11
98.1568118933
 21
171.5740102696
 31
0.0
  0
LINE
  5
14C
330
1F
100
AcDbEntity
  8
SLD-0_0
  6
Continuous
 62
   179
370
    15
100
AcDbLine
 10
98.1568118933
 20
171.5740102696
 30
0.0
 11
98.1192907694
 21
171.5364910084
 31
0.0
  0
LINE
  5
14D
330
1F
100
AcDbEntity
  8
SLD-0_0
  6
Continuous
 62
   179
370
    15
100
AcDbLine
 10
98.1192907694
 20
171.5364910084
 30
0.0
 11
98.0802720788
 21
171.4974741804
 31
0.0
  0
LINE
  5
14E
330
1F
100
AcDbEntity
  8
SLD-0_0
  6
Continuous
 62
   179
370
    15
100
AcDbLine
 10
72.2302740815
 20
166.8974722623
 30
0.0
 11
72.2302740815
 21
166.6974730211
 31
0.0
  0
LINE
  5
14F
330
1F
100
AcDbEntity
  8
SLD-0_0
  6
Continuous
 62
   179
370
    15
100
AcDbLine
 10
72.2302740815
 20
184.4974740296
 30
0.0
 11
72.2302737892
 21
184.6974732708
 31
0.0
  0
LINE
  5
150
330
1F
100
AcDbEntity
  8
SLD-0_0
  6
Continuous
 62
   179
370
    15
100
AcDbLine
 10
147.3302737892
 20
166.6974730211
 30
0.0
 11
147.3302737892
 21
166.8974722623
 31
0.0
  0
LINE
  5
151
330
1F
100
AcDbEntity
  8
SLD-0_0
  6
Continuous
 62
   179
370
    15
100
AcDbLine
 10
147.3302737892
 20
184.6974732708
 30
0.0
 11
147.3302750292
 21
184.4974740296
 31
0.0
  0
LINE
  5
152
330
1F
100
AcDbEntity
  8
SLD-0_0
  6
Continuous
 62
   179
370
    15
100
AcDbLine
 10
112.7802713218
 20
179.6974714267
 30
0.0
 11
98.2802754643
 21
179.6974714267
 31
0.0
  0
LINE
  5
153
330
1F
100
AcDbEntity
  8
SLD-0_0
  6
Continuous
 62
   179
370
    15
100
AcDbLine
 10
98.2802754643
 20
179.6974714267
 30
0.0
 11
98.2772356275
 21
179.7005112636
 31
0.0
  0
LINE
  5
154
330
1F
100
AcDbEntity
  8
SLD-0_0
  6
Continuous
 62
   179
370
    15
100
AcDbLine
 10
98.2772356275
 20
179.7005112636
 30
0.0
 11
98.2682129744
 21
179.7095339167
 31
0.0
  0
LINE
  5
155
330
1F
100
AcDbEntity
  8
SLD-0_0
  6
Continuous
 62
   179
370
    15
100
AcDbLine
 10
98.2682129744
 20
179.7095339167
 30
0.0
 11
98.2534794513
 21
179.7242674399
 31
0.0
  0
LINE
  5
156
330
1F
100
AcDbEntity
  8
SLD-0_0
  6
Continuous
 62
   179
370
    15
100
AcDbLine
 10
98.2534794513
 20
179.7242674399
 30
0.0
 11
98.233482093
 21
179.7442647982
 31
0.0
  0
LINE
  5
157
330
1F
100
AcDbEntity
  8
SLD-0_0
  6
Continuous
 62
   179
370
    15
100
AcDbLine
 10
98.233482093
 20
179.7442647982
 30
0.0
 11
98.208831847
 21
179.7689150441
 31
0.0
  0
LINE
  5
158
330
1F
100
AcDbEntity
  8
SLD-0_0
  6
Continuous
 62
   179
370
    15
100
AcDbLine
 10
98.208831847
 20
179.7689150441
 30
0.0
 11
98.1802737716
 21
179.7974731196
 31
0.0
  0
LINE
  5
159
330
1F
100
AcDbEntity
  8
SLD-0_0
  6
Continuous
 62
   179
370
    15
100
AcDbLine
 10
98.1802737716
 20
179.7974731196
 30
0.0
 11
98.1486795845
 21
179.8290710318
 31
0.0
  0
LINE
  5
15A
330
1F
100
AcDbEntity
  8
SLD-0_0
  6
Continuous
 62
   179
370
    15
100
AcDbLine
 10
98.1486795845
 20
179.8290710318
 30
0.0
 11
98.1150029602
 21
179.8627439309
 31
0.0
  0
LINE
  5
15B
330
1F
100
AcDbEntity
  8
SLD-0_0
  6
Continuous
 62
   179
370
    15
100
AcDbLine
 10
98.1150029602
 20
179.8627439309
 30
0.0
 11
98.0802720788
 21
179.8974748123
 31
0.0
  0
LINE
  5
15C
330
1F
100
AcDbEntity
  8
SLD-0_0
  6
Continuous
 62
   179
370
    15
100
AcDbLine
 10
98.2802754643
 20
179.6974714267
 30
0.0
 11
98.2802754643
 21
171.6974738407
 31
0.0
  0
LINE
  5
15D
330
1F
100
AcDbEntity
  8
SLD-0_0
  6
Continuous
 62
   179
370
    15
100
AcDbLine
 10
72.2302737892
 20
184.6974732708
 30
0.0
 11
147.3302737892
 21
184.6974732708
 31
0.0
  0
LINE
  5
15E
330
1F
100
AcDbEntity
  8
SLD-0_0
  6
Continuous
 62
   179
370
    15
100
AcDbLine
 10
147.3302737892
 20
166.6974730211
 30
0.0
 11
72.2302740815
 21
166.6974730211
 31
0.0
  0
LINE
  5
15F
330
1F
100
AcDbEntity
  8
SLD-0_0
  6
Continuous
 62
   179
370
    15
100
AcDbLine
 10
142.2302706542
 20
116.4974744785
 30
0.0
 11
77.3302747312
 21
116.4974744785
 31
0.0
  0
LINE
  5
160
330
1F
100
AcDbEntity
  8
SLD-0_0
  6
Continuous
 62
   179
370
    15
100
AcDbLine
 10
77.3302747312
 20
98.8974745738
 30
0.0
 11
142.2302706542
 21
98.8974745738
 31
0.0
  0
LINE
  5
161
330
1F
100
AcDbEntity
  8
SLD-0_0
  6
Continuous
 62
   179
370
    15
100
AcDbLine
 10
98.0802720788
 20
111.8974748421
 30
0.0
 11
112.9802747072
 21
111.8974748421
 31
0.0
  0
LINE
  5
162
330
1F
100
AcDbEntity
  8
SLD-0_0
  6
Continuous
 62
   179
370
    15
100
AcDbLine
 10
98.0802720788
 20
103.4974742103
 30
0.0
 11
98.0802720788
 21
111.8974748421
 31
0.0
  0
LINE
  5
163
330
1F
100
AcDbEntity
  8
SLD-0_0
  6
Continuous
 62
   179
370
    15
100
AcDbLine
 10
112.9802747072
 20
103.4974742103
 30
0.0
 11
98.0802720788
 21
103.4974742103
 31
0.0
  0
LINE
  5
164
330
1F
100
AcDbEntity
  8
SLD-0_0
  6
Continuous
 62
   179
370
    15
100
AcDbLine
 10
112.9802747072
 20
111.8974748421
 30
0.0
 11
112.9802747072
 21
103.4974742103
 31
0.0
  0
LINE
  5
165
330
1F
100
AcDbEntity
  8
SLD-0_0
  6
Continuous
 62
   179
370
    15
100
AcDbLine
 10
98.2802754642
 20
103.6974738706
 30
0.0
 11
112.7802713217
 21
103.6974738706
 31
0.0
  0
LINE
  5
166
330
1F
100
AcDbEntity
  8
SLD-0_0
  6
Continuous
 62
   179
370
    15
100
AcDbLine
 10
112.9802747072
 20
103.4974742103
 30
0.0
 11
112.9412560167
 21
103.5364929009
 31
0.0
  0
LINE
  5
167
330
1F
100
AcDbEntity
  8
SLD-0_0
  6
Continuous
 62
   179
370
    15
100
AcDbLine
 10
112.9412560167
 20
103.5364929009
 30
0.0
 11
112.9037348928
 21
103.5740102995
 31
0.0
  0
LINE
  5
168
330
1F
100
AcDbEntity
  8
SLD-0_0
  6
Continuous
 62
   179
370
    15
100
AcDbLine
 10
112.9037348928
 20
103.5740102995
 30
0.0
 11
112.8691567482
 21
103.6085884441
 31
0.0
  0
LINE
  5
169
330
1F
100
AcDbEntity
  8
SLD-0_0
  6
Continuous
 62
   179
370
    15
100
AcDbLine
 10
112.8691567482
 20
103.6085884441
 30
0.0
 11
112.838855237
 21
103.6388936807
 31
0.0
  0
LINE
  5
16A
330
1F
100
AcDbEntity
  8
SLD-0_0
  6
Continuous
 62
   179
370
    15
100
AcDbLine
 10
112.838855237
 20
103.6388936807
 30
0.0
 11
112.8139777483
 21
103.663767444
 31
0.0
  0
LINE
  5
16B
330
1F
100
AcDbEntity
  8
SLD-0_0
  6
Continuous
 62
   179
370
    15
100
AcDbLine
 10
112.8139777483
 20
103.663767444
 30
0.0
 11
112.7955003085
 21
103.6822486092
 31
0.0
  0
LINE
  5
16C
330
1F
100
AcDbEntity
  8
SLD-0_0
  6
Continuous
 62
   179
370
    15
100
AcDbLine
 10
112.7955003085
 20
103.6822486092
 30
0.0
 11
112.7841158213
 21
103.693629371
 31
0.0
  0
LINE
  5
16D
330
1F
100
AcDbEntity
  8
SLD-0_0
  6
Continuous
 62
   179
370
    15
100
AcDbLine
 10
112.7841158213
 20
103.693629371
 30
0.0
 11
112.7802713217
 21
103.6974738706
 31
0.0
  0
LINE
  5
16E
330
1F
100
AcDbEntity
  8
SLD-0_0
  6
Continuous
 62
   179
370
    15
100
AcDbLine
 10
98.2802754642
 20
103.6974738706
 30
0.0
 11
98.2764309647
 21
103.693629371
 31
0.0
  0
LINE
  5
16F
330
1F
100
AcDbEntity
  8
SLD-0_0
  6
Continuous
 62
   179
370
    15
100
AcDbLine
 10
98.2764309647
 20
103.693629371
 30
0.0
 11
98.2650502028
 21
103.6822486092
 31
0.0
  0
LINE
  5
170
330
1F
100
AcDbEntity
  8
SLD-0_0
  6
Continuous
 62
   179
370
    15
100
AcDbLine
 10
98.2650502028
 20
103.6822486092
 30
0.0
 11
98.2465690377
 21
103.663767444
 31
0.0
  0
LINE
  5
171
330
1F
100
AcDbEntity
  8
SLD-0_0
  6
Continuous
 62
   179
370
    15
100
AcDbLine
 10
98.2465690377
 20
103.663767444
 30
0.0
 11
98.2216952743
 21
103.6388936806
 31
0.0
  0
LINE
  5
172
330
1F
100
AcDbEntity
  8
SLD-0_0
  6
Continuous
 62
   179
370
    15
100
AcDbLine
 10
98.2216952743
 20
103.6388936806
 30
0.0
 11
98.1913863125
 21
103.6085884441
 31
0.0
  0
LINE
  5
173
330
1F
100
AcDbEntity
  8
SLD-0_0
  6
Continuous
 62
   179
370
    15
100
AcDbLine
 10
98.1913863125
 20
103.6085884441
 30
0.0
 11
98.1568118932
 21
103.5740102995
 31
0.0
  0
LINE
  5
174
330
1F
100
AcDbEntity
  8
SLD-0_0
  6
Continuous
 62
   179
370
    15
100
AcDbLine
 10
98.1568118932
 20
103.5740102995
 30
0.0
 11
98.1192907694
 21
103.5364929009
 31
0.0
  0
LINE
  5
175
330
1F
100
AcDbEntity
  8
SLD-0_0
  6
Continuous
 62
   179
370
    15
100
AcDbLine
 10
98.1192907694
 20
103.5364929009
 30
0.0
 11
98.0802720788
 21
103.4974742103
 31
0.0
  0
LINE
  5
176
330
1F
100
AcDbEntity
  8
SLD-0_0
  6
Continuous
 62
   179
370
    15
100
AcDbLine
 10
77.3302747312
 20
116.4974744785
 30
0.0
 11
77.3302747312
 21
116.6974741387
 31
0.0
  0
LINE
  5
177
330
1F
100
AcDbEntity
  8
SLD-0_0
  6
Continuous
 62
   179
370
    15
100
AcDbLine
 10
77.3302747312
 20
116.6974741387
 30
0.0
 11
142.2302706542
 21
116.6974741387
 31
0.0
  0
LINE
  5
178
330
1F
100
AcDbEntity
  8
SLD-0_0
  6
Continuous
 62
   179
370
    15
100
AcDbLine
 10
142.2302706542
 20
116.6974741387
 30
0.0
 11
142.2302706542
 21
116.4974744785
 31
0.0
  0
LINE
  5
179
330
1F
100
AcDbEntity
  8
SLD-0_0
  6
Continuous
 62
   179
370
    15
100
AcDbLine
 10
142.2302706542
 20
98.6974749136
 30
0.0
 11
142.2302706542
 21
98.8974745738
 31
0.0
  0
LINE
  5
17A
330
1F
100
AcDbEntity
  8
SLD-0_0
  6
Continuous
 62
   179
370
    15
100
AcDbLine
 10
142.2302706542
 20
98.6974749136
 30
0.0
 11
77.3302747312
 21
98.6974749136
 31
0.0
  0
LINE
  5
17B
330
1F
100
AcDbEntity
  8
SLD-0_0
  6
Continuous
 62
   179
370
    15
100
AcDbLine
 10
77.3302747312
 20
98.8974745738
 30
0.0
 11
77.3302747312
 21
98.6974749136
 31
0.0
  0
LINE
  5
17C
330
1F
100
AcDbEntity
  8
SLD-0_0
  6
Continuous
 62
   179
370
    15
100
AcDbLine
 10
112.7802713217
 20
111.6974714566
 30
0.0
 11
98.2802754642
 21
111.6974714566
 31
0.0
  0
LINE
  5
17D
330
1F
100
AcDbEntity
  8
SLD-0_0
  6
Continuous
 62
   179
370
    15
100
AcDbLine
 10
98.2802754642
 20
111.6974714566
 30
0.0
 11
98.2772356275
 21
111.7005112934
 31
0.0
  0
LINE
  5
17E
330
1F
100
AcDbEntity
  8
SLD-0_0
  6
Continuous
 62
   179
370
    15
100
AcDbLine
 10
98.2772356275
 20
111.7005112934
 30
0.0
 11
98.2682129744
 21
111.7095339465
 31
0.0
  0
LINE
  5
17F
330
1F
100
AcDbEntity
  8
SLD-0_0
  6
Continuous
 62
   179
370
    15
100
AcDbLine
 10
98.2682129744
 20
111.7095339465
 30
0.0
 11
98.2534794513
 21
111.7242674697
 31
0.0
  0
LINE
  5
180
330
1F
100
AcDbEntity
  8
SLD-0_0
  6
Continuous
 62
   179
370
    15
100
AcDbLine
 10
98.2534794513
 20
111.7242674697
 30
0.0
 11
98.233482093
 21
111.744264828
 31
0.0
  0
LINE
  5
181
330
1F
100
AcDbEntity
  8
SLD-0_0
  6
Continuous
 62
   179
370
    15
100
AcDbLine
 10
98.233482093
 20
111.744264828
 30
0.0
 11
98.208831847
 21
111.7689150739
 31
0.0
  0
LINE
  5
182
330
1F
100
AcDbEntity
  8
SLD-0_0
  6
Continuous
 62
   179
370
    15
100
AcDbLine
 10
98.208831847
 20
111.7689150739
 30
0.0
 11
98.1802737716
 21
111.7974731494
 31
0.0
  0
LINE
  5
183
330
1F
100
AcDbEntity
  8
SLD-0_0
  6
Continuous
 62
   179
370
    15
100
AcDbLine
 10
98.1802737716
 20
111.7974731494
 30
0.0
 11
98.1486795845
 21
111.8290710616
 31
0.0
  0
LINE
  5
184
330
1F
100
AcDbEntity
  8
SLD-0_0
  6
Continuous
 62
   179
370
    15
100
AcDbLine
 10
98.1486795845
 20
111.8290710616
 30
0.0
 11
98.1150029602
 21
111.8627439606
 31
0.0
  0
LINE
  5
185
330
1F
100
AcDbEntity
  8
SLD-0_0
  6
Continuous
 62
   179
370
    15
100
AcDbLine
 10
98.1150029602
 20
111.8627439606
 30
0.0
 11
98.0802720788
 21
111.8974748421
 31
0.0
  0
LINE
  5
186
330
1F
100
AcDbEntity
  8
SLD-0_0
  6
Continuous
 62
   179
370
    15
100
AcDbLine
 10
112.9802747072
 20
111.8974748421
 30
0.0
 11
112.9412560167
 21
111.8584561516
 31
0.0
  0
LINE
  5
187
330
1F
100
AcDbEntity
  8
SLD-0_0
  6
Continuous
 62
   179
370
    15
100
AcDbLine
 10
112.9412560167
 20
111.8584561516
 30
0.0
 11
112.9037348928
 21
111.8209350277
 31
0.0
  0
LINE
  5
188
330
1F
100
AcDbEntity
  8
SLD-0_0
  6
Continuous
 62
   179
370
    15
100
AcDbLine
 10
112.9037348928
 20
111.8209350277
 30
0.0
 11
112.8691567482
 21
111.7863606084
 31
0.0
  0
LINE
  5
189
330
1F
100
AcDbEntity
  8
SLD-0_0
  6
Continuous
 62
   179
370
    15
100
AcDbLine
 10
112.8691567482
 20
111.7863606084
 30
0.0
 11
112.838855237
 21
111.7560516466
 31
0.0
  0
LINE
  5
18A
330
1F
100
AcDbEntity
  8
SLD-0_0
  6
Continuous
 62
   179
370
    15
100
AcDbLine
 10
112.838855237
 20
111.7560516466
 30
0.0
 11
112.8139777483
 21
111.7311778832
 31
0.0
  0
LINE
  5
18B
330
1F
100
AcDbEntity
  8
SLD-0_0
  6
Continuous
 62
   179
370
    15
100
AcDbLine
 10
112.8139777483
 20
111.7311778832
 30
0.0
 11
112.7955003085
 21
111.7126967181
 31
0.0
  0
LINE
  5
18C
330
1F
100
AcDbEntity
  8
SLD-0_0
  6
Continuous
 62
   179
370
    15
100
AcDbLine
 10
112.7955003085
 20
111.7126967181
 30
0.0
 11
112.7841158213
 21
111.7013159562
 31
0.0
  0
LINE
  5
18D
330
1F
100
AcDbEntity
  8
SLD-0_0
  6
Continuous
 62
   179
370
    15
100
AcDbLine
 10
112.7841158213
 20
111.7013159562
 30
0.0
 11
112.7802713217
 21
111.6974714566
 31
0.0
  0
LINE
  5
18E
330
1F
100
AcDbEntity
  8
SLD-0_0
  6
Continuous
 62
   179
370
    15
100
AcDbLine
 10
98.2802754642
 20
111.6974714566
 30
0.0
 11
98.2802754642
 21
103.6974738706
 31
0.0
  0
LINE
  5
18F
330
1F
100
AcDbEntity
  8
SLD-0_0
  6
Continuous
 62
   179
370
    15
100
AcDbLine
 10
112.7802713217
 20
103.6974738706
 30
0.0
 11
112.7802713217
 21
111.6974714566
 31
0.0
  0
LINE
  5
190
330
1F
100
AcDbEntity
  8
SLD-0
100
AcDbLine
 10
61.0802737892
 20
243.6974732708
 30
0.0
 11
61.0802737892
 21
252.6974732708
 31
0.0
  0
LINE
  5
191
330
1F
100
AcDbEntity
  8
SLD-0
100
AcDbLine
 10
158.4802737892
 20
243.6974732708
 30
0.0
 11
158.4802737892
 21
252.6974732708
 31
0.0
  0
LINE
  5
192
330
1F
100
AcDbEntity
  8
SLD-0
100
AcDbLine
 10
58.1302737892
 20
243.6974732708
 30
0.0
 11
58.1302737892
 21
232.0970707546
 31
0.0
  0
LINE
  5
193
330
1F
100
AcDbEntity
  8
SLD-0
100
AcDbLine
 10
161.4302737892
 20
243.6974732708
 30
0.0
 11
161.4302737892
 21
232.0970707546
 31
0.0
  0
LINE
  5
194
330
1F
100
AcDbEntity
  8
SLD-0
100
AcDbLine
 10
66.1802737892
 20
175.6974732708
 30
0.0
 11
66.1802737892
 21
184.7849225997
 31
0.0
  0
LINE
  5
195
330
1F
100
AcDbEntity
  8
SLD-0
100
AcDbLine
 10
153.3802737892
 20
175.6974732708
 30
0.0
 11
153.3802737892
 21
184.7849225997
 31
0.0
  0
LINE
  5
196
330
1F
100
AcDbEntity
  8
SLD-0
100
AcDbLine
 10
156.3302737892
 20
175.6974732708
 30
0.0
 11
156.3302737892
 21
164.110152939
 31
0.0
  0
LINE
  5
197
330
1F
100
AcDbEntity
  8
SLD-0
100
AcDbLine
 10
63.2302737892
 20
175.6974732708
 30
0.0
 11
63.2302737892
 21
164.110152939
 31
0.0
  0
LINE
  5
198
330
1F
100
AcDbEntity
  8
SLD-0
100
AcDbLine
 10
71.2802737892
 20
107.6974732708
 30
0.0
 11
71.2802737892
 21
116.6974732708
 31
0.0
  0
LINE
  5
199
330
1F
100
AcDbEntity
  8
SLD-0
100
AcDbLine
 10
148.2802737892
 20
107.6974732708
 30
0.0
 11
148.2802737892
 21
116.6974732708
 31
0.0
  0
LINE
  5
19A
330
1F
100
AcDbEntity
  8
SLD-0
100
AcDbLine
 10
151.2302737892
 20
107.6974732708
 30
0.0
 11
151.2302737892
 21
96.7250544096
 31
0.0
  0
LINE
  5
19B
330
1F
100
AcDbEntity
  8
SLD-0
100
AcDbLine
 10
68.3302737892
 20
107.6974732708
 30
0.0
 11
68.3302737892
 21
96.7250544096
 31
0.0
  0
LINE
  5
19C
330
1F
100
AcDbEntity
  8
LAYER_1
100
AcDbLine
 10
135.0969231098
 20
43.8103090656
 30
0.0
 11
121.8784362425
 21
43.8103090656
 31
0.0
  0
LINE
  5
19D
330
1F
100
AcDbEntity
  8
LAYER_1
100
AcDbLine
 10
116.8999287567
 20
46.8123652715
 30
0.0
 11
116.8999287567
 21
49.1171341511
 31
0.0
  0
LINE
  5
19E
330
1F
100
AcDbEntity
  8
LAYER_1
100
AcDbLine
 10
121.8784362425
 20
52.119190357
 30
0.0
 11
135.0969231098
 21
52.119190357
 31
0.0
  0
LINE
  5
19F
330
1F
100
AcDbEntity
  8
LAYER_1
100
AcDbLine
 10
135.0969231098
 20
52.119190357
 30
0.0
 11
135.0969231098
 21
49.6421667031
 31
0.0
  0
LINE
  5
1A0
330
1F
100
AcDbEntity
  8
LAYER_1
100
AcDbLine
 10
135.0969231098
 20
49.6421667031
 30
0.0
 11
121.8784362425
 21
49.6421667031
 31
0.0
  0
LINE
  5
1A1
330
1F
100
AcDbEntity
  8
LAYER_1
100
AcDbLine
 10
119.3772969202
 20
48.4784134482
 30
0.0
 11
119.3772969202
 21
47.4507414649
 31
0.0
  0
LINE
  5
1A2
330
1F
100
AcDbEntity
  8
LAYER_1
100
AcDbLine
 10
121.8784362425
 20
46.2873327195
 30
0.0
 11
135.0969231098
 21
46.2873327195
 31
0.0
  0
LINE
  5
1A3
330
1F
100
AcDbEntity
  8
LAYER_1
100
AcDbLine
 10
135.0969231098
 20
46.2873327195
 30
0.0
 11
135.0969231098
 21
43.8103090656
 31
0.0
  0
LINE
  5
1A4
330
1F
100
AcDbEntity
  8
LAYER_1
100
AcDbLine
 10
149.8185051374
 20
43.8103090656
 30
0.0
 11
145.882828055
 21
43.8103090656
 31
0.0
  0
LINE
  5
1A5
330
1F
100
AcDbEntity
  8
LAYER_1
100
AcDbLine
 10
145.882828055
 20
43.8103090656
 30
0.0
 11
145.882828055
 21
46.28698821
 31
0.0
  0
LINE
  5
1A6
330
1F
100
AcDbEntity
  8
LAYER_1
100
AcDbLine
 10
145.882828055
 20
46.28698821
 30
0.0
 11
149.8185051374
 21
46.28698821
 31
0.0
  0
LINE
  5
1A7
330
1F
100
AcDbEntity
  8
LAYER_1
100
AcDbLine
 10
136.2475850019
 20
52.119190357
 30
0.0
 11
138.7242641462
 21
52.119190357
 31
0.0
  0
LINE
  5
1A8
330
1F
100
AcDbEntity
  8
LAYER_1
100
AcDbLine
 10
138.7242641462
 20
52.119190357
 30
0.0
 11
138.7242641462
 21
50.6040373626
 31
0.0
  0
LINE
  5
1A9
330
1F
100
AcDbEntity
  8
LAYER_1
100
AcDbLine
 10
140.8622904044
 20
49.7806595416
 30
0.0
 11
152.3196444597
 21
49.7806595416
 31
0.0
  0
LINE
  5
1AA
330
1F
100
AcDbEntity
  8
LAYER_1
100
AcDbLine
 10
152.3196444597
 20
49.7806595416
 30
0.0
 11
152.3196444597
 21
52.119190357
 31
0.0
  0
LINE
  5
1AB
330
1F
100
AcDbEntity
  8
LAYER_1
100
AcDbLine
 10
152.3196444597
 20
52.119190357
 30
0.0
 11
154.7966681136
 21
52.119190357
 31
0.0
  0
LINE
  5
1AC
330
1F
100
AcDbEntity
  8
LAYER_1
100
AcDbLine
 10
154.7966681136
 20
52.119190357
 30
0.0
 11
154.7966681136
 21
47.1651430492
 31
0.0
  0
LINE
  5
1AD
330
1F
100
AcDbEntity
  8
LAYER_1
100
AcDbLine
 10
196.3667405316
 20
43.8103090656
 30
0.0
 11
193.8897168777
 21
43.8103090656
 31
0.0
  0
LINE
  5
1AE
330
1F
100
AcDbEntity
  8
LAYER_1
100
AcDbLine
 10
193.8897168777
 20
43.8103090656
 30
0.0
 11
193.8897168777
 21
52.119190357
 31
0.0
  0
LINE
  5
1AF
330
1F
100
AcDbEntity
  8
LAYER_1
100
AcDbLine
 10
193.8897168777
 20
52.119190357
 30
0.0
 11
196.3667405316
 21
52.119190357
 31
0.0
  0
LINE
  5
1B0
330
1F
100
AcDbEntity
  8
LAYER_1
100
AcDbLine
 10
196.3667405316
 20
52.119190357
 30
0.0
 11
196.3667405316
 21
43.8103090656
 31
0.0
  0
LINE
  5
1B1
330
1F
100
AcDbEntity
  8
LAYER_1
100
AcDbLine
 10
174.1438075944
 20
43.8103090656
 30
0.0
 11
160.9249762175
 21
43.8103090656
 31
0.0
  0
LINE
  5
1B2
330
1F
100
AcDbEntity
  8
LAYER_1
100
AcDbLine
 10
155.9466409865
 20
46.8123652715
 30
0.0
 11
155.9466409865
 21
49.1171341511
 31
0.0
  0
LINE
  5
1B3
330
1F
100
AcDbEntity
  8
LAYER_1
100
AcDbLine
 10
160.9249762175
 20
52.119190357
 30
0.0
 11
174.1438075944
 21
52.119190357
 31
0.0
  0
LINE
  5
1B4
330
1F
100
AcDbEntity
  8
LAYER_1
100
AcDbLine
 10
174.1438075944
 20
52.119190357
 30
0.0
 11
174.1438075944
 21
49.6421667031
 31
0.0
  0
LINE
  5
1B5
330
1F
100
AcDbEntity
  8
LAYER_1
100
AcDbLine
 10
174.1438075944
 20
49.6421667031
 30
0.0
 11
160.9249762175
 21
49.6421667031
 31
0.0
  0
LINE
  5
1B6
330
1F
100
AcDbEntity
  8
LAYER_1
100
AcDbLine
 10
158.4238368952
 20
48.4784134482
 30
0.0
 11
158.4238368952
 21
47.8035192426
 31
0.0
  0
LINE
  5
1B7
330
1F
100
AcDbEntity
  8
LAYER_1
100
AcDbLine
 10
160.9249762175
 20
46.2873327195
 30
0.0
 11
174.1438075944
 21
46.2873327195
 31
0.0
  0
LINE
  5
1B8
330
1F
100
AcDbEntity
  8
LAYER_1
100
AcDbLine
 10
174.1438075944
 20
46.2873327195
 30
0.0
 11
174.1438075944
 21
43.8103090656
 31
0.0
  0
LINE
  5
1B9
330
1F
100
AcDbEntity
  8
LAYER_1
100
AcDbLine
 10
175.3061828111
 20
52.119190357
 30
0.0
 11
192.784530246
 21
52.119190357
 31
0.0
  0
LINE
  5
1BA
330
1F
100
AcDbEntity
  8
LAYER_1
100
AcDbLine
 10
192.784530246
 20
52.119190357
 30
0.0
 11
192.784530246
 21
49.6425112126
 31
0.0
  0
LINE
  5
1BB
330
1F
100
AcDbEntity
  8
LAYER_1
100
AcDbLine
 10
192.784530246
 20
49.6425112126
 30
0.0
 11
177.783206465
 21
49.6425112126
 31
0.0
  0
LINE
  5
1BC
330
1F
100
AcDbEntity
  8
LAYER_1
100
AcDbLine
 10
177.783206465
 20
49.6425112126
 30
0.0
 11
177.7625358921
 21
48.6763341838
 31
0.0
  0
LINE
  5
1BD
330
1F
100
AcDbEntity
  8
LAYER_1
100
AcDbLine
 10
177.7625358921
 20
48.6763341838
 30
0.0
 11
187.4198275564
 21
48.6690994833
 31
0.0
  0
LINE
  5
1BE
330
1F
100
AcDbEntity
  8
LAYER_1
100
AcDbLine
 10
187.4198275564
 20
48.6690994833
 30
0.0
 11
187.4198275564
 21
46.1991382751
 31
0.0
  0
LINE
  5
1BF
330
1F
100
AcDbEntity
  8
LAYER_1
100
AcDbLine
 10
187.4198275564
 20
46.1991382751
 30
0.0
 11
177.7625358921
 21
46.1991382751
 31
0.0
  0
LINE
  5
1C0
330
1F
100
AcDbEntity
  8
LAYER_1
100
AcDbLine
 10
177.7625358921
 20
46.1991382751
 30
0.0
 11
177.783206465
 21
43.8103090656
 31
0.0
  0
LINE
  5
1C1
330
1F
100
AcDbEntity
  8
LAYER_1
100
AcDbLine
 10
177.783206465
 20
43.8103090656
 30
0.0
 11
175.3061828111
 21
43.8103090656
 31
0.0
  0
LINE
  5
1C2
330
1F
100
AcDbEntity
  8
LAYER_1
100
AcDbLine
 10
175.3061828111
 20
43.8103090656
 30
0.0
 11
175.3061828111
 21
52.119190357
 31
0.0
  0
CIRCLE
  5
1C3
330
1F
100
AcDbEntity
  8
SLD-0_0
  6
Continuous
 62
   179
370
    15
100
AcDbCircle
 10
66.1802737892
 20
175.6974732708
 30
0.0
 40
2.0
  0
CIRCLE
  5
1C4
330
1F
100
AcDbEntity
  8
SLD-0_0
  6
Continuous
 62
   179
370
    15
100
AcDbCircle
 10
66.1802737892
 20
175.6974732708
 30
0.0
 40
1.5
  0
CIRCLE
  5
1C5
330
1F
100
AcDbEntity
  8
SLD-0_0
  6
Continuous
 62
   179
370
    15
100
AcDbCircle
 10
66.1802737892
 20
175.6974732708
 30
0.0
 40
1.25
  0
CIRCLE
  5
1C6
330
1F
100
AcDbEntity
  8
SLD-0_0
  6
Continuous
 62
   179
370
    15
100
AcDbCircle
 10
158.4802737892
 20
243.6974732708
 30
0.0
 40
2.0
  0
CIRCLE
  5
1C7
330
1F
100
AcDbEntity
  8
SLD-0_0
  6
Continuous
 62
   179
370
    15
100
AcDbCircle
 10
158.4802737892
 20
243.6974732708
 30
0.0
 40
1.5
  0
CIRCLE
  5
1C8
330
1F
100
AcDbEntity
  8
SLD-0_0
  6
Continuous
 62
   179
370
    15
100
AcDbCircle
 10
158.4802737892
 20
243.6974732708
 30
0.0
 40
1.25
  0
CIRCLE
  5
1C9
330
1F
100
AcDbEntity
  8
SLD-0_0
  6
Continuous
 62
   179
370
    15
100
AcDbCircle
 10
61.0802737892
 20
243.6974732708
 30
0.0
 40
2.000000000000007
  0
CIRCLE
  5
1CA
330
1F
100
AcDbEntity
  8
SLD-0_0
  6
Continuous
 62
   179
370
    15
100
AcDbCircle
 10
61.0802737892
 20
243.6974732708
 30
0.0
 40
1.500000000000014
  0
CIRCLE
  5
1CB
330
1F
100
AcDbEntity
  8
SLD-0_0
  6
Continuous
 62
   179
370
    15
100
AcDbCircle
 10
61.0802737892
 20
243.6974732708
 30
0.0
 40
1.250000000000007
  0
CIRCLE
  5
1CC
330
1F
100
AcDbEntity
  8
SLD-0_0
  6
Continuous
 62
   179
370
    15
100
AcDbCircle
 10
153.3802737892
 20
175.6974732708
 30
0.0
 40
2.0
  0
CIRCLE
  5
1CD
330
1F
100
AcDbEntity
  8
SLD-0_0
  6
Continuous
 62
   179
370
    15
100
AcDbCircle
 10
153.3802737892
 20
175.6974732708
 30
0.0
 40
1.499999999999972
  0
CIRCLE
  5
1CE
330
1F
100
AcDbEntity
  8
SLD-0_0
  6
Continuous
 62
   179
370
    15
100
AcDbCircle
 10
153.3802737892
 20
175.6974732708
 30
0.0
 40
1.25
  0
CIRCLE
  5
1CF
330
1F
100
AcDbEntity
  8
SLD-0_0
  6
Continuous
 62
   179
370
    15
100
AcDbCircle
 10
148.2802737892
 20
107.6974732708
 30
0.0
 40
2.0
  0
CIRCLE
  5
1D0
330
1F
100
AcDbEntity
  8
SLD-0_0
  6
Continuous
 62
   179
370
    15
100
AcDbCircle
 10
148.2802737892
 20
107.6974732708
 30
0.0
 40
1.499999999999972
  0
CIRCLE
  5
1D1
330
1F
100
AcDbEntity
  8
SLD-0_0
  6
Continuous
 62
   179
370
    15
100
AcDbCircle
 10
148.2802737892
 20
107.6974732708
 30
0.0
 40
1.25
  0
CIRCLE
  5
1D2
330
1F
100
AcDbEntity
  8
SLD-0_0
  6
Continuous
 62
   179
370
    15
100
AcDbCircle
 10
71.2802737892
 20
107.6974732708
 30
0.0
 40
2.000000000000014
  0
CIRCLE
  5
1D3
330
1F
100
AcDbEntity
  8
SLD-0_0
  6
Continuous
 62
   179
370
    15
100
AcDbCircle
 10
71.2802737892
 20
107.6974732708
 30
0.0
 40
1.500000000000014
  0
CIRCLE
  5
1D4
330
1F
100
AcDbEntity
  8
SLD-0_0
  6
Continuous
 62
   179
370
    15
100
AcDbCircle
 10
71.2802737892
 20
107.6974732708
 30
0.0
 40
1.250000000000014
  0
CIRCLE
  5
1D5
330
1F
100
AcDbEntity
  8
SLD-0_0
  6
Continuous
 62
   179
370
    15
100
AcDbCircle
 10
61.0802737892
 20
243.6974732708
 30
0.0
 40
2.250000000000028
  0
CIRCLE
  5
1D6
330
1F
100
AcDbEntity
  8
SLD-0_0
  6
Continuous
 62
   179
370
    15
100
AcDbCircle
 10
61.0802737892
 20
243.6974732708
 30
0.0
 40
2.449999999999996
  0
CIRCLE
  5
1D7
330
1F
100
AcDbEntity
  8
SLD-0_0
  6
Continuous
 62
   179
370
    15
100
AcDbCircle
 10
85.1802737892
 20
243.6974732708
 30
0.0
 40
1.024999999999963
  0
CIRCLE
  5
1D8
330
1F
100
AcDbEntity
  8
SLD-0_0
  6
Continuous
 62
   179
370
    15
100
AcDbCircle
 10
85.1802737892
 20
243.6974732708
 30
0.0
 40
1.22499999999998
  0
CIRCLE
  5
1D9
330
1F
100
AcDbEntity
  8
SLD-0_0
  6
Continuous
 62
   179
370
    15
100
AcDbCircle
 10
142.8802737892
 20
243.6974732708
 30
0.0
 40
1.025000000000006
  0
CIRCLE
  5
1DA
330
1F
100
AcDbEntity
  8
SLD-0_0
  6
Continuous
 62
   179
370
    15
100
AcDbCircle
 10
142.8802737892
 20
243.6974732708
 30
0.0
 40
1.224999999999994
  0
CIRCLE
  5
1DB
330
1F
100
AcDbEntity
  8
SLD-0_0
  6
Continuous
 62
   179
370
    15
100
AcDbCircle
 10
109.7802737892
 20
248.6974732708
 30
0.0
 40
0.2500000000000426
  0
CIRCLE
  5
1DC
330
1F
100
AcDbEntity
  8
SLD-0_0
  6
Continuous
 62
   179
370
    15
100
AcDbCircle
 10
109.7802737892
 20
248.6974732708
 30
0.0
 40
0.4499999999999886
  0
ARC
  5
1DD
330
1F
100
AcDbEntity
  8
SLD-0_0
  6
Continuous
 62
   179
370
    15
100
AcDbCircle
 10
67.1302737892
 20
243.6974744666
 30
0.0
 40
8.800000000000011
100
AcDbArc
 50
90.0
 51
270.0
  0
ARC
  5
1DE
330
1F
100
AcDbEntity
  8
SLD-0_0
  6
Continuous
 62
   179
370
    15
100
AcDbCircle
 10
152.4302719536
 20
243.6974744666
 30
0.0
 40
8.799999999999955
100
AcDbArc
 50
270.0
 51
90.0
  0
CIRCLE
  5
1DF
330
1F
100
AcDbEntity
  8
SLD-0_0
  6
Continuous
 62
   179
370
    15
100
AcDbCircle
 10
76.6802737892
 20
243.6974732708
 30
0.0
 40
1.225000000000037
  0
CIRCLE
  5
1E0
330
1F
100
AcDbEntity
  8
SLD-0_0
  6
Continuous
 62
   179
370
    15
100
AcDbCircle
 10
134.3802737892
 20
243.6974732708
 30
0.0
 40
1.225000000000023
  0
CIRCLE
  5
1E1
330
1F
100
AcDbEntity
  8
SLD-0_0
  6
Continuous
 62
   179
370
    15
100
AcDbCircle
 10
158.4802737892
 20
243.6974732708
 30
0.0
 40
2.449999999999989
  0
CIRCLE
  5
1E2
330
1F
100
AcDbEntity
  8
SLD-0_0
  6
Continuous
 62
   179
370
    15
100
AcDbCircle
 10
109.7802737892
 20
238.6974732708
 30
0.0
 40
0.4500000000000171
  0
CIRCLE
  5
1E3
330
1F
100
AcDbEntity
  8
SLD-0_0
  6
Continuous
 62
   179
370
    15
100
AcDbCircle
 10
76.6802737892
 20
243.6974732708
 30
0.0
 40
1.024999999999991
  0
CIRCLE
  5
1E4
330
1F
100
AcDbEntity
  8
SLD-0_0
  6
Continuous
 62
   179
370
    15
100
AcDbCircle
 10
158.4802737892
 20
243.6974732708
 30
0.0
 40
2.25
  0
CIRCLE
  5
1E5
330
1F
100
AcDbEntity
  8
SLD-0_0
  6
Continuous
 62
   179
370
    15
100
AcDbCircle
 10
134.3802737892
 20
243.6974732708
 30
0.0
 40
1.025000000000006
  0
ARC
  5
1E6
330
1F
100
AcDbEntity
  8
SLD-0_0
  6
Continuous
 62
   179
370
    15
100
AcDbCircle
 10
152.4302719536
 20
243.6974744666
 30
0.0
 40
8.999999612550027
100
AcDbArc
 50
270.0
 51
90.0
  0
CIRCLE
  5
1E7
330
1F
100
AcDbEntity
  8
SLD-0_0
  6
Continuous
 62
   179
370
    15
100
AcDbCircle
 10
109.7802737892
 20
238.6974732708
 30
0.0
 40
0.2500000000000426
  0
ARC
  5
1E8
330
1F
100
AcDbEntity
  8
SLD-0_0
  6
Continuous
 62
   179
370
    15
100
AcDbCircle
 10
67.1302737892
 20
243.6974744666
 30
0.0
 40
8.999999612550035
100
AcDbArc
 50
90.0000022753
 51
269.9999977247
  0
CIRCLE
  5
1E9
330
1F
100
AcDbEntity
  8
SLD-0_0
  6
Continuous
 62
   179
370
    15
100
AcDbCircle
 10
109.7802737892
 20
180.6974732708
 30
0.0
 40
0.4499999999999886
  0
CIRCLE
  5
1EA
330
1F
100
AcDbEntity
  8
SLD-0_0
  6
Continuous
 62
   179
370
    15
100
AcDbCircle
 10
131.8302737892
 20
175.6974732708
 30
0.0
 40
1.224999999999966
  0
CIRCLE
  5
1EB
330
1F
100
AcDbEntity
  8
SLD-0_0
  6
Continuous
 62
   179
370
    15
100
AcDbCircle
 10
87.7302737892
 20
175.6974732708
 30
0.0
 40
1.22499999999998
  0
CIRCLE
  5
1EC
330
1F
100
AcDbEntity
  8
SLD-0_0
  6
Continuous
 62
   179
370
    15
100
AcDbCircle
 10
66.1802737892
 20
175.6974732708
 30
0.0
 40
2.450000000000017
  0
ARC
  5
1ED
330
1F
100
AcDbEntity
  8
SLD-0_0
  6
Continuous
 62
   179
370
    15
100
AcDbCircle
 10
147.3302737892
 20
175.6974731459
 30
0.0
 40
8.800000883650002
100
AcDbArc
 50
270.0
 51
89.9999919265
  0
ARC
  5
1EE
330
1F
100
AcDbEntity
  8
SLD-0_0
  6
Continuous
 62
   179
370
    15
100
AcDbCircle
 10
72.2302737892
 20
175.6974731459
 30
0.0
 40
8.800000883650005
100
AcDbArc
 50
89.9999980969
 51
270.0000019031
  0
CIRCLE
  5
1EF
330
1F
100
AcDbEntity
  8
SLD-0_0
  6
Continuous
 62
   179
370
    15
100
AcDbCircle
 10
79.2302737892
 20
175.6974732708
 30
0.0
 40
1.225000000000009
  0
CIRCLE
  5
1F0
330
1F
100
AcDbEntity
  8
SLD-0_0
  6
Continuous
 62
   179
370
    15
100
AcDbCircle
 10
140.3302737892
 20
175.6974732708
 30
0.0
 40
1.224999999999966
  0
CIRCLE
  5
1F1
330
1F
100
AcDbEntity
  8
SLD-0_0
  6
Continuous
 62
   179
370
    15
100
AcDbCircle
 10
153.3802737892
 20
175.6974732708
 30
0.0
 40
2.44999999999996
  0
CIRCLE
  5
1F2
330
1F
100
AcDbEntity
  8
SLD-0_0
  6
Continuous
 62
   179
370
    15
100
AcDbCircle
 10
109.7802737892
 20
170.6974732708
 30
0.0
 40
0.4500000000000171
  0
ARC
  5
1F3
330
1F
100
AcDbEntity
  8
SLD-0_0
  6
Continuous
 62
   179
370
    15
100
AcDbCircle
 10
72.2302737892
 20
175.6974731459
 30
0.0
 40
9.00000012485001
100
AcDbArc
 50
90.0
 51
270.0000018608
  0
ARC
  5
1F4
330
1F
100
AcDbEntity
  8
SLD-0_0
  6
Continuous
 62
   179
370
    15
100
AcDbCircle
 10
147.3302737892
 20
175.6974731459
 30
0.0
 40
9.000000124850004
100
AcDbArc
 50
270.0
 51
90.0
  0
CIRCLE
  5
1F5
330
1F
100
AcDbEntity
  8
SLD-0_0
  6
Continuous
 62
   179
370
    15
100
AcDbCircle
 10
109.7802737892
 20
170.6974732708
 30
0.0
 40
0.25
  0
CIRCLE
  5
1F6
330
1F
100
AcDbEntity
  8
SLD-0_0
  6
Continuous
 62
   179
370
    15
100
AcDbCircle
 10
153.3802737892
 20
175.6974732708
 30
0.0
 40
2.25
  0
CIRCLE
  5
1F7
330
1F
100
AcDbEntity
  8
SLD-0_0
  6
Continuous
 62
   179
370
    15
100
AcDbCircle
 10
140.3302737892
 20
175.6974732708
 30
0.0
 40
1.025000000000006
  0
CIRCLE
  5
1F8
330
1F
100
AcDbEntity
  8
SLD-0_0
  6
Continuous
 62
   179
370
    15
100
AcDbCircle
 10
79.2302737892
 20
175.6974732708
 30
0.0
 40
1.02500000000002
  0
CIRCLE
  5
1F9
330
1F
100
AcDbEntity
  8
SLD-0_0
  6
Continuous
 62
   179
370
    15
100
AcDbCircle
 10
66.1802737892
 20
175.6974732708
 30
0.0
 40
2.25
  0
CIRCLE
  5
1FA
330
1F
100
AcDbEntity
  8
SLD-0_0
  6
Continuous
 62
   179
370
    15
100
AcDbCircle
 10
87.7302737892
 20
175.6974732708
 30
0.0
 40
1.024999999999991
  0
CIRCLE
  5
1FB
330
1F
100
AcDbEntity
  8
SLD-0_0
  6
Continuous
 62
   179
370
    15
100
AcDbCircle
 10
131.8302737892
 20
175.6974732708
 30
0.0
 40
1.024999999999977
  0
CIRCLE
  5
1FC
330
1F
100
AcDbEntity
  8
SLD-0_0
  6
Continuous
 62
   179
370
    15
100
AcDbCircle
 10
109.7802737892
 20
180.6974732708
 30
0.0
 40
0.25
  0
CIRCLE
  5
1FD
330
1F
100
AcDbEntity
  8
SLD-0_0
  6
Continuous
 62
   179
370
    15
100
AcDbCircle
 10
109.7802737892
 20
102.6974732708
 30
0.0
 40
0.25
  0
CIRCLE
  5
1FE
330
1F
100
AcDbEntity
  8
SLD-0_0
  6
Continuous
 62
   179
370
    15
100
AcDbCircle
 10
109.7802737892
 20
102.6974732708
 30
0.0
 40
0.4499999999999886
  0
CIRCLE
  5
1FF
330
1F
100
AcDbEntity
  8
SLD-0_0
  6
Continuous
 62
   179
370
    15
100
AcDbCircle
 10
148.2802737892
 20
107.6974732708
 30
0.0
 40
2.25
  0
CIRCLE
  5
200
330
1F
100
AcDbEntity
  8
SLD-0_0
  6
Continuous
 62
   179
370
    15
100
AcDbCircle
 10
148.2802737892
 20
107.6974732708
 30
0.0
 40
2.449999999999989
  0
CIRCLE
  5
201
330
1F
100
AcDbEntity
  8
SLD-0_0
  6
Continuous
 62
   179
370
    15
100
AcDbCircle
 10
109.7802737892
 20
112.6974732708
 30
0.0
 40
0.4499999999999886
  0
CIRCLE
  5
202
330
1F
100
AcDbEntity
  8
SLD-0_0
  6
Continuous
 62
   179
370
    15
100
AcDbCircle
 10
137.7802737892
 20
107.6974732708
 30
0.0
 40
1.225000000000023
  0
CIRCLE
  5
203
330
1F
100
AcDbEntity
  8
SLD-0_0
  6
Continuous
 62
   179
370
    15
100
AcDbCircle
 10
90.2802737892
 20
107.6974732708
 30
0.0
 40
1.224999999999994
  0
CIRCLE
  5
204
330
1F
100
AcDbEntity
  8
SLD-0_0
  6
Continuous
 62
   179
370
    15
100
AcDbCircle
 10
71.2802737892
 20
107.6974732708
 30
0.0
 40
2.450000000000031
  0
ARC
  5
205
330
1F
100
AcDbEntity
  8
SLD-0_0
  6
Continuous
 62
   179
370
    15
100
AcDbCircle
 10
142.2302737892
 20
107.6974732708
 30
0.0
 40
8.800000000000011
100
AcDbArc
 50
270.0
 51
90.0
  0
ARC
  5
206
330
1F
100
AcDbEntity
  8
SLD-0_0
  6
Continuous
 62
   179
370
    15
100
AcDbCircle
 10
77.3302737892
 20
107.6974745262
 30
0.0
 40
8.799999952350085
100
AcDbArc
 50
89.9999938667
 51
270.0000061333
  0
CIRCLE
  5
207
330
1F
100
AcDbEntity
  8
SLD-0_0
  6
Continuous
 62
   179
370
    15
100
AcDbCircle
 10
81.7802737892
 20
107.6974732708
 30
0.0
 40
1.225000000000023
  0
CIRCLE
  5
208
330
1F
100
AcDbEntity
  8
SLD-0_0
  6
Continuous
 62
   179
370
    15
100
AcDbCircle
 10
129.2802737892
 20
107.6974732708
 30
0.0
 40
1.225000000000023
  0
ARC
  5
209
330
1F
100
AcDbEntity
  8
SLD-0_0
  6
Continuous
 62
   179
370
    15
100
AcDbCircle
 10
142.2302737892
 20
107.6974732708
 30
0.0
 40
9.0
100
AcDbArc
 50
270.0
 51
90.0
  0
CIRCLE
  5
20A
330
1F
100
AcDbEntity
  8
SLD-0_0
  6
Continuous
 62
   179
370
    15
100
AcDbCircle
 10
129.2802737892
 20
107.6974732708
 30
0.0
 40
1.025000000000034
  0
CIRCLE
  5
20B
330
1F
100
AcDbEntity
  8
SLD-0_0
  6
Continuous
 62
   179
370
    15
100
AcDbCircle
 10
81.7802737892
 20
107.6974732708
 30
0.0
 40
1.02500000000002
  0
CIRCLE
  5
20C
330
1F
100
AcDbEntity
  8
SLD-0_0
  6
Continuous
 62
   179
370
    15
100
AcDbCircle
 10
90.2802737892
 20
107.6974732708
 30
0.0
 40
1.024999999999991
  0
ARC
  5
20D
330
1F
100
AcDbEntity
  8
SLD-0_0
  6
Continuous
 62
   179
370
    15
100
AcDbCircle
 10
77.3302737892
 20
107.6974745262
 30
0.0
 40
8.999999612550063
100
AcDbArc
 50
89.999994003
 51
270.000005997
  0
CIRCLE
  5
20E
330
1F
100
AcDbEntity
  8
SLD-0_0
  6
Continuous
 62
   179
370
    15
100
AcDbCircle
 10
71.2802737892
 20
107.6974732708
 30
0.0
 40
2.250000000000014
  0
CIRCLE
  5
20F
330
1F
100
AcDbEntity
  8
SLD-0_0
  6
Continuous
 62
   179
370
    15
100
AcDbCircle
 10
109.7802737892
 20
112.6974732708
 30
0.0
 40
0.25
  0
CIRCLE
  5
210
330
1F
100
AcDbEntity
  8
SLD-0_0
  6
Continuous
 62
   179
370
    15
100
AcDbCircle
 10
137.7802737892
 20
107.6974732708
 30
0.0
 40
1.025000000000006
  0
SPLINE
  5
211
330
1F
100
AcDbEntity
  8
LAYER_1
100
AcDbSpline
210
0.0
220
0.0
230
1.0
 70
    12
 71
     3
 72
    17
 73
    13
 74
     0
 42
0.000000001
 43
0.00000001
 40
0.0
 40
0.0
 40
0.0
 40
0.0
 40
1.0
 40
2.0
 40
3.0
 40
4.0
 40
5.0
 40
6.0
 40
7.0
 40
8.0
 40
9.0
 40
10.0
 40
10.0
 40
10.0
 40
10.0
 10
121.8784362424519
 20
43.81030906564509
 30
0.0
 41
1.0
 10
121.0722838989034
 20
43.81030906564509
 30
0.0
 41
1.0
 10
120.3691399103639
 20
43.85268374011364
 30
0.0
 41
1.0
 10
119.7879523020023
 20
43.93639956040523
 30
0.0
 41
1.0
 10
119.1712802101426
 20
44.02493851437611
 30
0.0
 41
1.0
 10
118.6483147154815
 20
44.18237937805203
 30
0.0
 41
1.0
 10
118.2342142381546
 20
44.4032099986566
 30
0.0
 41
1.0
 10
117.7835957486839
 20
44.6433331539785
 30
0.0
 41
1.0
 10
117.4428758051927
 20
44.97096173462578
 30
0.0
 41
1.0
 10
117.2220451845882
 20
45.37713849233671
 30
0.0
 41
1.0
 10
117.0087937740512
 20
45.76919035855808
 30
0.0
 41
1.0
 10
116.8999287567173
 20
46.25219274559017
 30
0.0
 41
1.0
 10
116.8999287567173
 20
46.8123652714918
 30
0.0
 41
1.0
  0
SPLINE
  5
212
330
1F
100
AcDbEntity
  8
LAYER_1
100
AcDbSpline
210
0.0
220
0.0
230
1.0
 70
    12
 71
     3
 72
    17
 73
    13
 74
     0
 42
0.000000001
 43
0.00000001
 40
0.0
 40
0.0
 40
0.0
 40
0.0
 40
1.0
 40
2.0
 40
3.0
 40
4.0
 40
5.0
 40
6.0
 40
7.0
 40
8.0
 40
9.0
 40
10.0
 40
10.0
 40
10.0
 40
10.0
 10
116.8999287567173
 20
49.1171341511239
 30
0.0
 41
1.0
 10
116.8999287567173
 20
49.67730667702553
 30
0.0
 41
1.0
 10
117.0087937740512
 20
50.16030906405761
 30
0.0
 41
1.0
 10
117.2223896941368
 20
50.55270543982754
 30
0.0
 41
1.0
 10
117.4428758051927
 20
50.95853768798991
 30
0.0
 41
1.0
 10
117.7835957486839
 20
51.28616626863726
 30
0.0
 41
1.0
 10
118.2345587477032
 20
51.52663393350765
 30
0.0
 41
1.0
 10
118.6483147154815
 20
51.74712004456368
 30
0.0
 41
1.0
 10
119.1712802101426
 20
51.90456090823958
 30
0.0
 41
1.0
 10
119.7882968115508
 20
51.99309986221046
 30
0.0
 41
1.0
 10
120.3715514772036
 20
52.07681568250205
 30
0.0
 41
1.0
 10
121.0746954657431
 20
52.1191903569706
 30
0.0
 41
1.0
 10
121.8784362424519
 20
52.1191903569706
 30
0.0
 41
1.0
  0
SPLINE
  5
213
330
1F
100
AcDbEntity
  8
LAYER_1
100
AcDbSpline
210
0.0
220
0.0
230
1.0
 70
    12
 71
     3
 72
    17
 73
    13
 74
     0
 42
0.000000001
 43
0.00000001
 40
0.0
 40
0.0
 40
0.0
 40
0.0
 40
1.0
 40
2.0
 40
3.0
 40
4.0
 40
5.0
 40
6.0
 40
7.0
 40
8.0
 40
9.0
 40
10.0
 40
10.0
 40
10.0
 40
10.0
 10
121.8784362424519
 20
49.64216670307603
 30
0.0
 41
1.0
 10
121.2204230047692
 20
49.64216670307603
 30
0.0
 41
1.0
 10
120.6740308608085
 20
49.65801414230814
 30
0.0
 41
1.0
 10
120.295070357431
 20
49.6156394678396
 30
0.0
 41
1.0
 10
119.8682230268086
 20
49.56844165969165
 30
0.0
 41
1.0
 10
119.7727938818671
 20
49.51538718921883
 30
0.0
 41
1.0
 10
119.6711635650523
 20
49.45613154687251
 30
0.0
 41
1.0
 10
119.5116556440853
 20
49.36311396877075
 30
0.0
 41
1.0
 10
119.4775491987812
 20
49.22427662071516
 30
0.0
 41
1.0
 10
119.4258727665025
 20
48.98139738900509
 30
0.0
 41
1.0
 10
119.3896992639074
 20
48.68546368682214
 30
0.0
 41
1.0
 10
119.3772969201605
 20
48.61656177711715
 30
0.0
 41
1.0
 10
119.3772969201605
 20
48.47841344815856
 30
0.0
 41
1.0
  0
SPLINE
  5
214
330
1F
100
AcDbEntity
  8
LAYER_1
100
AcDbSpline
210
0.0
220
0.0
230
1.0
 70
    12
 71
     3
 72
    17
 73
    13
 74
     0
 42
0.000000001
 43
0.00000001
 40
0.0
 40
0.0
 40
0.0
 40
0.0
 40
1.0
 40
2.0
 40
3.0
 40
4.0
 40
5.0
 40
6.0
 40
7.0
 40
8.0
 40
9.0
 40
10.0
 40
10.0
 40
10.0
 40
10.0
 10
119.3772969201605
 20
47.45074146490857
 30
0.0
 41
1.0
 10
119.3772969201605
 20
47.31293764549854
 30
0.0
 41
1.0
 10
119.4024461172029
 20
47.15480776272557
 30
0.0
 41
1.0
 10
119.4275953142451
 20
46.94465693812538
 30
0.0
 41
1.0
 10
119.4331074670215
 20
46.93707772805783
 30
0.0
 41
1.0
 10
119.439997657992
 20
46.69109791041098
 30
0.0
 41
1.0
 10
119.6529045589805
 20
46.52814489395868
 30
0.0
 41
1.0
 10
119.9019849625641
 20
46.33763111362438
 30
0.0
 41
1.0
 10
120.0294534955183
 20
46.38172833583555
 30
0.0
 41
1.0
 10
120.316085439891
 20
46.35072247646826
 30
0.0
 41
1.0
 10
120.6957349623656
 20
46.30972584019383
 30
0.0
 41
1.0
 10
121.2211120238662
 20
46.28733271953972
 30
0.0
 41
1.0
 10
121.8784362424519
 20
46.28733271953972
 30
0.0
 41
1.0
  0
SPLINE
  5
215
330
1F
100
AcDbEntity
  8
LAYER_1
100
AcDbSpline
210
0.0
220
0.0
230
1.0
 70
    12
 71
     3
 72
    17
 73
    13
 74
     0
 42
0.000000001
 43
0.00000001
 40
0.0
 40
0.0
 40
0.0
 40
0.0
 40
1.0
 40
2.0
 40
3.0
 40
4.0
 40
5.0
 40
6.0
 40
7.0
 40
8.0
 40
9.0
 40
10.0
 40
10.0
 40
10.0
 40
10.0
 10
154.7966681135626
 20
47.16514304918135
 30
0.0
 41
1.0
 10
154.7966681135626
 20
46.60634856147389
 30
0.0
 41
1.0
 10
154.6881476057772
 20
45.76884584900964
 30
0.0
 41
1.0
 10
154.4745516856918
 20
45.37679398278821
 30
0.0
 41
1.0
 10
154.2533765555387
 20
44.97061722507723
 30
0.0
 41
1.0
 10
153.913001121596
 20
44.6433331539785
 30
0.0
 41
1.0
 10
153.4627271416739
 20
44.40286548910804
 30
0.0
 41
1.0
 10
153.0486266643468
 20
44.18169035895504
 30
0.0
 41
1.0
 10
152.5260056792343
 20
44.02528302392466
 30
0.0
 41
1.0
 10
151.9086445682777
 20
43.93639956040523
 30
0.0
 41
1.0
 10
151.3257344121733
 20
43.85233923056514
 30
0.0
 41
1.0
 10
150.6225904236339
 20
43.81030906564509
 30
0.0
 41
1.0
 10
149.8185051373766
 20
43.81030906564509
 30
0.0
 41
1.0
  0
SPLINE
  5
216
330
1F
100
AcDbEntity
  8
LAYER_1
100
AcDbSpline
210
0.0
220
0.0
230
1.0
 70
    12
 71
     3
 72
    14
 73
    10
 74
     0
 42
0.000000001
 43
0.00000001
 40
0.0
 40
0.0
 40
0.0
 40
0.0
 40
1.0
 40
2.0
 40
3.0
 40
4.0
 40
5.0
 40
6.0
 40
7.0
 40
7.0
 40
7.0
 40
7.0
 10
149.8185051373766
 20
46.28698820999116
 30
0.0
 41
1.0
 10
150.4758293559623
 20
46.28698820999116
 30
0.0
 41
1.0
 10
151.028767181345
 20
46.28561017179711
 30
0.0
 41
1.0
 10
151.40359357014
 20
46.32798484626566
 30
0.0
 41
1.0
 10
151.8245842384376
 20
46.37483814486504
 30
0.0
 41
1.0
 10
151.982369611662
 20
46.39964283235886
 30
0.0
 41
1.0
 10
152.1187953928779
 20
46.51815411705146
 30
0.0
 41
1.0
 10
152.2565992122879
 20
46.63804343993816
 30
0.0
 41
1.0
 10
152.2290384484058
 20
47.28572139116517
 30
0.0
 41
1.0
 10
152.2490200022203
 20
47.30398039723693
 30
0.0
 41
1.0
  0
SPLINE
  5
217
330
1F
100
AcDbEntity
  8
LAYER_1
100
AcDbSpline
210
0.0
220
0.0
230
1.0
 70
    12
 71
     3
 72
    12
 73
     8
 74
     0
 42
0.000000001
 43
0.00000001
 40
0.0
 40
0.0
 40
0.0
 40
0.0
 40
1.0
 40
2.0
 40
3.0
 40
4.0
 40
5.0
 40
5.0
 40
5.0
 40
5.0
 10
152.2490200022203
 20
47.30398039723693
 30
0.0
 41
1.0
 10
144.0128302256335
 20
47.2995017731061
 30
0.0
 41
1.0
 10
140.8743482385709
 20
47.30398039723693
 30
0.0
 41
1.0
 10
137.7358662515084
 20
47.30845902136777
 30
0.0
 41
1.0
 10
136.2475850018804
 20
48.31752748899743
 30
0.0
 41
1.0
 10
136.2475850018804
 20
50.63366518373091
 30
0.0
 41
1.0
 10
136.2475850018804
 20
50.89532018583564
 30
0.0
 41
1.0
 10
136.2475850018804
 20
52.1191903569706
 30
0.0
 41
1.0
  0
SPLINE
  5
218
330
1F
100
AcDbEntity
  8
LAYER_1
100
AcDbSpline
210
0.0
220
0.0
230
1.0
 70
    12
 71
     3
 72
    17
 73
    13
 74
     0
 42
0.000000001
 43
0.00000001
 40
0.0
 40
0.0
 40
0.0
 40
0.0
 40
1.0
 40
2.0
 40
3.0
 40
4.0
 40
5.0
 40
6.0
 40
7.0
 40
8.0
 40
9.0
 40
10.0
 40
10.0
 40
10.0
 40
10.0
 10
138.7242641462265
 20
50.60403736255775
 30
0.0
 41
1.0
 10
138.7242641462265
 20
50.4417733652025
 30
0.0
 41
1.0
 10
138.7463127573321
 20
50.59370207610198
 30
0.0
 41
1.0
 10
138.791443508189
 20
50.42351435913067
 30
0.0
 41
1.0
 10
138.8310621062693
 20
50.27399721507081
 30
0.0
 41
1.0
 10
138.9523294673502
 20
50.13515986701522
 30
0.0
 41
1.0
 10
139.0718742806882
 20
50.04455385575318
 30
0.0
 41
1.0
 10
139.2368943544318
 20
49.92018590873565
 30
0.0
 41
1.0
 10
139.3616068109977
 20
49.89744827853298
 30
0.0
 41
1.0
 10
139.6423820930456
 20
49.85404007541882
 30
0.0
 41
1.0
 10
139.9541632344607
 20
49.80546422907689
 30
0.0
 41
1.0
 10
140.3648186163026
 20
49.78065954158306
 30
0.0
 41
1.0
 10
140.8622904043726
 20
49.78065954158306
 30
0.0
 41
1.0
  0
SPLINE
  5
219
330
1F
100
AcDbEntity
  8
LAYER_1
100
AcDbSpline
210
0.0
220
0.0
230
1.0
 70
    12
 71
     3
 72
    17
 73
    13
 74
     0
 42
0.000000001
 43
0.00000001
 40
0.0
 40
0.0
 40
0.0
 40
0.0
 40
1.0
 40
2.0
 40
3.0
 40
4.0
 40
5.0
 40
6.0
 40
7.0
 40
8.0
 40
9.0
 40
10.0
 40
10.0
 40
10.0
 40
10.0
 10
160.9249762174992
 20
43.81030906564509
 30
0.0
 41
1.0
 10
160.1188238739508
 20
43.81030906564509
 30
0.0
 41
1.0
 10
159.4153353758628
 20
43.85268374011364
 30
0.0
 41
1.0
 10
158.8344922770496
 20
43.93639956040523
 30
0.0
 41
1.0
 10
158.2178201851899
 20
44.02493851437611
 30
0.0
 41
1.0
 10
157.694854690529
 20
44.18237937805203
 30
0.0
 41
1.0
 10
157.280754213202
 20
44.4032099986566
 30
0.0
 41
1.0
 10
156.8303079785056
 20
44.6433331539785
 30
0.0
 41
1.0
 10
156.4895880350143
 20
44.97096173462578
 30
0.0
 41
1.0
 10
156.2684129048614
 20
45.37713849233671
 30
0.0
 41
1.0
 10
156.0551614943244
 20
45.76919035855808
 30
0.0
 41
1.0
 10
155.946640986539
 20
46.25219274559017
 30
0.0
 41
1.0
 10
155.946640986539
 20
46.8123652714918
 30
0.0
 41
1.0
  0
SPLINE
  5
21A
330
1F
100
AcDbEntity
  8
LAYER_1
100
AcDbSpline
210
0.0
220
0.0
230
1.0
 70
    12
 71
     3
 72
    17
 73
    13
 74
     0
 42
0.000000001
 43
0.00000001
 40
0.0
 40
0.0
 40
0.0
 40
0.0
 40
1.0
 40
2.0
 40
3.0
 40
4.0
 40
5.0
 40
6.0
 40
7.0
 40
8.0
 40
9.0
 40
10.0
 40
10.0
 40
10.0
 40
10.0
 10
155.946640986539
 20
49.1171341511239
 30
0.0
 41
1.0
 10
155.946640986539
 20
49.67730667702553
 30
0.0
 41
1.0
 10
156.0551614943244
 20
50.16030906405761
 30
0.0
 41
1.0
 10
156.2687574144099
 20
50.55270543982754
 30
0.0
 41
1.0
 10
156.4895880350143
 20
50.95853768798991
 30
0.0
 41
1.0
 10
156.8303079785056
 20
51.28616626863726
 30
0.0
 41
1.0
 10
157.280754213202
 20
51.52663393350765
 30
0.0
 41
1.0
 10
157.694854690529
 20
51.74712004456368
 30
0.0
 41
1.0
 10
158.2178201851899
 20
51.90456090823958
 30
0.0
 41
1.0
 10
158.8351812961467
 20
51.99309986221046
 30
0.0
 41
1.0
 10
159.418091452251
 20
52.07681568250205
 30
0.0
 41
1.0
 10
160.1215799503392
 20
52.1191903569706
 30
0.0
 41
1.0
 10
160.9249762174992
 20
52.1191903569706
 30
0.0
 41
1.0
  0
SPLINE
  5
21B
330
1F
100
AcDbEntity
  8
LAYER_1
100
AcDbSpline
210
0.0
220
0.0
230
1.0
 70
    12
 71
     3
 72
    17
 73
    13
 74
     0
 42
0.000000001
 43
0.00000001
 40
0.0
 40
0.0
 40
0.0
 40
0.0
 40
1.0
 40
2.0
 40
3.0
 40
4.0
 40
5.0
 40
6.0
 40
7.0
 40
8.0
 40
9.0
 40
10.0
 40
10.0
 40
10.0
 40
10.0
 10
160.9249762174992
 20
49.64216670307603
 30
0.0
 41
1.0
 10
160.2669629798166
 20
49.64216670307603
 30
0.0
 41
1.0
 10
159.7205708358559
 20
49.65801414230814
 30
0.0
 41
1.0
 10
159.3416103324784
 20
49.6156394678396
 30
0.0
 41
1.0
 10
158.9151075114045
 20
49.56844165969165
 30
0.0
 41
1.0
 10
158.8193338569146
 20
49.51538718921883
 30
0.0
 41
1.0
 10
158.7173590305512
 20
49.45613154687251
 30
0.0
 41
1.0
 10
158.5581956191326
 20
49.36311396877075
 30
0.0
 41
1.0
 10
158.5244336833772
 20
49.22427662071516
 30
0.0
 41
1.0
 10
158.4727572510984
 20
48.98139738900509
 30
0.0
 41
1.0
 10
158.4362392389548
 20
48.68546368682214
 30
0.0
 41
1.0
 10
158.4238368952079
 20
48.61656177711715
 30
0.0
 41
1.0
 10
158.4238368952079
 20
48.47841344815856
 30
0.0
 41
1.0
  0
SPLINE
  5
21C
330
1F
100
AcDbEntity
  8
LAYER_1
100
AcDbSpline
210
0.0
220
0.0
230
1.0
 70
    12
 71
     3
 72
    17
 73
    13
 74
     0
 42
0.000000001
 43
0.00000001
 40
0.0
 40
0.0
 40
0.0
 40
0.0
 40
1.0
 40
2.0
 40
3.0
 40
4.0
 40
5.0
 40
6.0
 40
7.0
 40
8.0
 40
9.0
 40
10.0
 40
10.0
 40
10.0
 40
10.0
 10
158.4238368952079
 20
47.80351924259818
 30
0.0
 41
1.0
 10
158.4238368952079
 20
47.66571542318815
 30
0.0
 41
1.0
 10
158.4486415827017
 20
47.15480776272557
 30
0.0
 41
1.0
 10
158.4741352892925
 20
46.94465693812538
 30
0.0
 41
1.0
 10
158.4796474420689
 20
46.93707772805783
 30
0.0
 41
1.0
 10
158.4865376330394
 20
46.69109791041098
 30
0.0
 41
1.0
 10
158.6994445340278
 20
46.52814489395868
 30
0.0
 41
1.0
 10
158.9481804280629
 20
46.33763111362438
 30
0.0
 41
1.0
 10
159.0763379801142
 20
46.38172833583555
 30
0.0
 41
1.0
 10
159.3629699244869
 20
46.35072247646826
 30
0.0
 41
1.0
 10
159.7419304278644
 20
46.30972584019383
 30
0.0
 41
1.0
 10
160.2676519989136
 20
46.28733271953972
 30
0.0
 41
1.0
 10
160.9249762174992
 20
46.28733271953972
 30
0.0
 41
1.0
  0
SPLINE
  5
21D
330
1F
100
AcDbEntity
  8
LAYER_1
100
AcDbSpline
210
0.0
220
0.0
230
1.0
 70
     8
 71
     3
 72
    17
 73
    13
 74
     0
 42
0.000000001
 43
0.00000001
 40
0.0
 40
0.0
 40
0.0
 40
0.0
 40
1.0
 40
2.0
 40
3.0
 40
4.0
 40
5.0
 40
6.0
 40
7.0
 40
8.0
 40
9.0
 40
10.0
 40
10.0
 40
10.0
 40
10.0
 10
121.8784362424519
 20
43.81030906564509
 30
0.0
 10
121.0722838989034
 20
43.81030906564509
 30
0.0
 10
120.3691399103639
 20
43.85268374011364
 30
0.0
 10
119.7879523020023
 20
43.93639956040523
 30
0.0
 10
119.1712802101426
 20
44.02493851437611
 30
0.0
 10
118.6483147154815
 20
44.18237937805203
 30
0.0
 10
118.2342142381546
 20
44.4032099986566
 30
0.0
 10
117.7835957486839
 20
44.6433331539785
 30
0.0
 10
117.4428758051927
 20
44.97096173462578
 30
0.0
 10
117.2220451845882
 20
45.37713849233671
 30
0.0
 10
117.0087937740512
 20
45.76919035855808
 30
0.0
 10
116.8999287567173
 20
46.25219274559017
 30
0.0
 10
116.8999287567173
 20
46.8123652714918
 30
0.0
  0
SPLINE
  5
21E
330
1F
100
AcDbEntity
  8
LAYER_1
100
AcDbSpline
210
0.0
220
0.0
230
1.0
 70
     8
 71
     3
 72
    17
 73
    13
 74
     0
 42
0.000000001
 43
0.00000001
 40
0.0
 40
0.0
 40
0.0
 40
0.0
 40
1.0
 40
2.0
 40
3.0
 40
4.0
 40
5.0
 40
6.0
 40
7.0
 40
8.0
 40
9.0
 40
10.0
 40
10.0
 40
10.0
 40
10.0
 10
116.8999287567173
 20
49.1171341511239
 30
0.0
 10
116.8999287567173
 20
49.67730667702553
 30
0.0
 10
117.0087937740512
 20
50.16030906405761
 30
0.0
 10
117.2223896941368
 20
50.55270543982754
 30
0.0
 10
117.4428758051927
 20
50.95853768798991
 30
0.0
 10
117.7835957486839
 20
51.28616626863726
 30
0.0
 10
118.2345587477032
 20
51.52663393350765
 30
0.0
 10
118.6483147154815
 20
51.74712004456368
 30
0.0
 10
119.1712802101426
 20
51.90456090823958
 30
0.0
 10
119.7882968115508
 20
51.99309986221046
 30
0.0
 10
120.3715514772036
 20
52.07681568250205
 30
0.0
 10
121.0746954657431
 20
52.1191903569706
 30
0.0
 10
121.8784362424519
 20
52.1191903569706
 30
0.0
  0
SPLINE
  5
21F
330
1F
100
AcDbEntity
  8
LAYER_1
100
AcDbSpline
210
0.0
220
0.0
230
1.0
 70
     8
 71
     3
 72
    17
 73
    13
 74
     0
 42
0.000000001
 43
0.00000001
 40
0.0
 40
0.0
 40
0.0
 40
0.0
 40
1.0
 40
2.0
 40
3.0
 40
4.0
 40
5.0
 40
6.0
 40
7.0
 40
8.0
 40
9.0
 40
10.0
 40
10.0
 40
10.0
 40
10.0
 10
121.8784362424519
 20
49.64216670307603
 30
0.0
 10
121.2204230047692
 20
49.64216670307603
 30
0.0
 10
120.6740308608085
 20
49.65801414230814
 30
0.0
 10
120.295070357431
 20
49.6156394678396
 30
0.0
 10
119.8682230268086
 20
49.56844165969165
 30
0.0
 10
119.7727938818671
 20
49.51538718921883
 30
0.0
 10
119.6711635650523
 20
49.45613154687251
 30
0.0
 10
119.5116556440853
 20
49.36311396877075
 30
0.0
 10
119.4775491987812
 20
49.22427662071516
 30
0.0
 10
119.4258727665025
 20
48.98139738900509
 30
0.0
 10
119.3896992639074
 20
48.68546368682214
 30
0.0
 10
119.3772969201605
 20
48.61656177711715
 30
0.0
 10
119.3772969201605
 20
48.47841344815856
 30
0.0
  0
SPLINE
  5
220
330
1F
100
AcDbEntity
  8
LAYER_1
100
AcDbSpline
210
0.0
220
0.0
230
1.0
 70
     8
 71
     3
 72
    17
 73
    13
 74
     0
 42
0.000000001
 43
0.00000001
 40
0.0
 40
0.0
 40
0.0
 40
0.0
 40
1.0
 40
2.0
 40
3.0
 40
4.0
 40
5.0
 40
6.0
 40
7.0
 40
8.0
 40
9.0
 40
10.0
 40
10.0
 40
10.0
 40
10.0
 10
119.3772969201605
 20
47.45074146490857
 30
0.0
 10
119.3772969201605
 20
47.31293764549854
 30
0.0
 10
119.4024461172029
 20
47.15480776272557
 30
0.0
 10
119.4275953142451
 20
46.94465693812538
 30
0.0
 10
119.4331074670215
 20
46.93707772805783
 30
0.0
 10
119.439997657992
 20
46.69109791041098
 30
0.0
 10
119.6529045589805
 20
46.52814489395868
 30
0.0
 10
119.9019849625641
 20
46.33763111362438
 30
0.0
 10
120.0294534955183
 20
46.38172833583555
 30
0.0
 10
120.316085439891
 20
46.35072247646826
 30
0.0
 10
120.6957349623656
 20
46.30972584019383
 30
0.0
 10
121.2211120238662
 20
46.28733271953972
 30
0.0
 10
121.8784362424519
 20
46.28733271953972
 30
0.0
  0
SPLINE
  5
221
330
1F
100
AcDbEntity
  8
LAYER_1
100
AcDbSpline
210
0.0
220
0.0
230
1.0
 70
     8
 71
     3
 72
    14
 73
    10
 74
     0
 42
0.000000001
 43
0.00000001
 40
0.0
 40
0.0
 40
0.0
 40
0.0
 40
1.0
 40
2.0
 40
3.0
 40
4.0
 40
5.0
 40
6.0
 40
7.0
 40
7.0
 40
7.0
 40
7.0
 10
149.8185051373766
 20
46.28698820999116
 30
0.0
 10
150.4758293559623
 20
46.28698820999116
 30
0.0
 10
151.028767181345
 20
46.28561017179711
 30
0.0
 10
151.40359357014
 20
46.32798484626566
 30
0.0
 10
151.8245842384376
 20
46.37483814486504
 30
0.0
 10
151.982369611662
 20
46.39964283235886
 30
0.0
 10
152.1187953928779
 20
46.51815411705146
 30
0.0
 10
152.2565992122879
 20
46.63804343993816
 30
0.0
 10
152.2290384484058
 20
47.28572139116517
 30
0.0
 10
152.2490200022203
 20
47.30398039723693
 30
0.0
  0
SPLINE
  5
222
330
1F
100
AcDbEntity
  8
LAYER_1
100
AcDbSpline
210
0.0
220
0.0
230
1.0
 70
     8
 71
     3
 72
    12
 73
     8
 74
     0
 42
0.000000001
 43
0.00000001
 40
0.0
 40
0.0
 40
0.0
 40
0.0
 40
1.0
 40
2.0
 40
3.0
 40
4.0
 40
5.0
 40
5.0
 40
5.0
 40
5.0
 10
152.2490200022203
 20
47.30398039723693
 30
0.0
 10
144.0128302256335
 20
47.2995017731061
 30
0.0
 10
140.8743482385709
 20
47.30398039723693
 30
0.0
 10
137.7358662515084
 20
47.30845902136777
 30
0.0
 10
136.2475850018804
 20
48.31752748899743
 30
0.0
 10
136.2475850018804
 20
50.63366518373091
 30
0.0
 10
136.2475850018804
 20
50.89532018583564
 30
0.0
 10
136.2475850018804
 20
52.1191903569706
 30
0.0
  0
SPLINE
  5
223
330
1F
100
AcDbEntity
  8
LAYER_1
100
AcDbSpline
210
0.0
220
0.0
230
1.0
 70
     8
 71
     3
 72
    17
 73
    13
 74
     0
 42
0.000000001
 43
0.00000001
 40
0.0
 40
0.0
 40
0.0
 40
0.0
 40
1.0
 40
2.0
 40
3.0
 40
4.0
 40
5.0
 40
6.0
 40
7.0
 40
8.0
 40
9.0
 40
10.0
 40
10.0
 40
10.0
 40
10.0
 10
138.7242641462265
 20
50.60403736255775
 30
0.0
 10
138.7242641462265
 20
50.4417733652025
 30
0.0
 10
138.7463127573321
 20
50.59370207610198
 30
0.0
 10
138.791443508189
 20
50.42351435913067
 30
0.0
 10
138.8310621062693
 20
50.27399721507081
 30
0.0
 10
138.9523294673502
 20
50.13515986701522
 30
0.0
 10
139.0718742806882
 20
50.04455385575318
 30
0.0
 10
139.2368943544318
 20
49.92018590873565
 30
0.0
 10
139.3616068109977
 20
49.89744827853298
 30
0.0
 10
139.6423820930456
 20
49.85404007541882
 30
0.0
 10
139.9541632344607
 20
49.80546422907689
 30
0.0
 10
140.3648186163026
 20
49.78065954158306
 30
0.0
 10
140.8622904043726
 20
49.78065954158306
 30
0.0
  0
SPLINE
  5
224
330
1F
100
AcDbEntity
  8
LAYER_1
100
AcDbSpline
210
0.0
220
0.0
230
1.0
 70
     8
 71
     3
 72
    17
 73
    13
 74
     0
 42
0.000000001
 43
0.00000001
 40
0.0
 40
0.0
 40
0.0
 40
0.0
 40
1.0
 40
2.0
 40
3.0
 40
4.0
 40
5.0
 40
6.0
 40
7.0
 40
8.0
 40
9.0
 40
10.0
 40
10.0
 40
10.0
 40
10.0
 10
154.7966681135626
 20
47.16514304918135
 30
0.0
 10
154.7966681135626
 20
46.60634856147389
 30
0.0
 10
154.6881476057772
 20
45.76884584900964
 30
0.0
 10
154.4745516856918
 20
45.37679398278821
 30
0.0
 10
154.2533765555387
 20
44.97061722507723
 30
0.0
 10
153.913001121596
 20
44.6433331539785
 30
0.0
 10
153.4627271416739
 20
44.40286548910804
 30
0.0
 10
153.0486266643468
 20
44.18169035895504
 30
0.0
 10
152.5260056792343
 20
44.02528302392466
 30
0.0
 10
151.9086445682777
 20
43.93639956040523
 30
0.0
 10
151.3257344121733
 20
43.85233923056514
 30
0.0
 10
150.6225904236339
 20
43.81030906564509
 30
0.0
 10
149.8185051373766
 20
43.81030906564509
 30
0.0
  0
SPLINE
  5
225
330
1F
100
AcDbEntity
  8
LAYER_1
100
AcDbSpline
210
0.0
220
0.0
230
1.0
 70
     8
 71
     3
 72
    17
 73
    13
 74
     0
 42
0.000000001
 43
0.00000001
 40
0.0
 40
0.0
 40
0.0
 40
0.0
 40
1.0
 40
2.0
 40
3.0
 40
4.0
 40
5.0
 40
6.0
 40
7.0
 40
8.0
 40
9.0
 40
10.0
 40
10.0
 40
10.0
 40
10.0
 10
160.9249762174992
 20
43.81030906564509
 30
0.0
 10
160.1188238739508
 20
43.81030906564509
 30
0.0
 10
159.4153353758628
 20
43.85268374011364
 30
0.0
 10
158.8344922770496
 20
43.93639956040523
 30
0.0
 10
158.2178201851899
 20
44.02493851437611
 30
0.0
 10
157.694854690529
 20
44.18237937805203
 30
0.0
 10
157.280754213202
 20
44.4032099986566
 30
0.0
 10
156.8303079785056
 20
44.6433331539785
 30
0.0
 10
156.4895880350143
 20
44.97096173462578
 30
0.0
 10
156.2684129048614
 20
45.37713849233671
 30
0.0
 10
156.0551614943244
 20
45.76919035855808
 30
0.0
 10
155.946640986539
 20
46.25219274559017
 30
0.0
 10
155.946640986539
 20
46.8123652714918
 30
0.0
  0
SPLINE
  5
226
330
1F
100
AcDbEntity
  8
LAYER_1
100
AcDbSpline
210
0.0
220
0.0
230
1.0
 70
     8
 71
     3
 72
    17
 73
    13
 74
     0
 42
0.000000001
 43
0.00000001
 40
0.0
 40
0.0
 40
0.0
 40
0.0
 40
1.0
 40
2.0
 40
3.0
 40
4.0
 40
5.0
 40
6.0
 40
7.0
 40
8.0
 40
9.0
 40
10.0
 40
10.0
 40
10.0
 40
10.0
 10
155.946640986539
 20
49.1171341511239
 30
0.0
 10
155.946640986539
 20
49.67730667702553
 30
0.0
 10
156.0551614943244
 20
50.16030906405761
 30
0.0
 10
156.2687574144099
 20
50.55270543982754
 30
0.0
 10
156.4895880350143
 20
50.95853768798991
 30
0.0
 10
156.8303079785056
 20
51.28616626863726
 30
0.0
 10
157.280754213202
 20
51.52663393350765
 30
0.0
 10
157.694854690529
 20
51.74712004456368
 30
0.0
 10
158.2178201851899
 20
51.90456090823958
 30
0.0
 10
158.8351812961467
 20
51.99309986221046
 30
0.0
 10
159.418091452251
 20
52.07681568250205
 30
0.0
 10
160.1215799503392
 20
52.1191903569706
 30
0.0
 10
160.9249762174992
 20
52.1191903569706
 30
0.0
  0
SPLINE
  5
227
330
1F
100
AcDbEntity
  8
LAYER_1
100
AcDbSpline
210
0.0
220
0.0
230
1.0
 70
     8
 71
     3
 72
    17
 73
    13
 74
     0
 42
0.000000001
 43
0.00000001
 40
0.0
 40
0.0
 40
0.0
 40
0.0
 40
1.0
 40
2.0
 40
3.0
 40
4.0
 40
5.0
 40
6.0
 40
7.0
 40
8.0
 40
9.0
 40
10.0
 40
10.0
 40
10.0
 40
10.0
 10
160.9249762174992
 20
49.64216670307603
 30
0.0
 10
160.2669629798166
 20
49.64216670307603
 30
0.0
 10
159.7205708358559
 20
49.65801414230814
 30
0.0
 10
159.3416103324784
 20
49.6156394678396
 30
0.0
 10
158.9151075114045
 20
49.56844165969165
 30
0.0
 10
158.8193338569146
 20
49.51538718921883
 30
0.0
 10
158.7173590305512
 20
49.45613154687251
 30
0.0
 10
158.5581956191326
 20
49.36311396877075
 30
0.0
 10
158.5244336833772
 20
49.22427662071516
 30
0.0
 10
158.4727572510984
 20
48.98139738900509
 30
0.0
 10
158.4362392389548
 20
48.68546368682214
 30
0.0
 10
158.4238368952079
 20
48.61656177711715
 30
0.0
 10
158.4238368952079
 20
48.47841344815856
 30
0.0
  0
SPLINE
  5
228
330
1F
100
AcDbEntity
  8
LAYER_1
100
AcDbSpline
210
0.0
220
0.0
230
1.0
 70
     8
 71
     3
 72
    17
 73
    13
 74
     0
 42
0.000000001
 43
0.00000001
 40
0.0
 40
0.0
 40
0.0
 40
0.0
 40
1.0
 40
2.0
 40
3.0
 40
4.0
 40
5.0
 40
6.0
 40
7.0
 40
8.0
 40
9.0
 40
10.0
 40
10.0
 40
10.0
 40
10.0
 10
158.4238368952079
 20
47.80351924259818
 30
0.0
 10
158.4238368952079
 20
47.66571542318815
 30
0.0
 10
158.4486415827017
 20
47.15480776272557
 30
0.0
 10
158.4741352892925
 20
46.94465693812538
 30
0.0
 10
158.4796474420689
 20
46.93707772805783
 30
0.0
 10
158.4865376330394
 20
46.69109791041098
 30
0.0
 10
158.6994445340278
 20
46.52814489395868
 30
0.0
 10
158.9481804280629
 20
46.33763111362438
 30
0.0
 10
159.0763379801142
 20
46.38172833583555
 30
0.0
 10
159.3629699244869
 20
46.35072247646826
 30
0.0
 10
159.7419304278644
 20
46.30972584019383
 30
0.0
 10
160.2676519989136
 20
46.28733271953972
 30
0.0
 10
160.9249762174992
 20
46.28733271953972
 30
0.0
  0
INSERT
  5
229
330
1F
100
AcDbEntity
  8
0
  6
Continuous
 62
     7
100
AcDbBlockReference
  2
BLOCK 2
 10
109.6266431683
 20
58.4505868398
 30
0.0
 41
0.2
 42
0.2
 43
0.2
  0
HATCH
  5
22A
330
1F
100
AcDbEntity
  8
LAYER_1
 62
   250
100
AcDbHatch
 10
0.0
 20
0.0
 30
0.0
210
0.0
220
0.0
230
1.0
  2
SOLID
 70
     1
 71
     0
 91
        1
 92
        0
 93
       12
 72
     1
 10
121.8784362424519
 20
46.28733271953972
 11
135.0969231098069
 21
46.28733271953972
 72
     1
 10
135.0969231098069
 20
46.28733271953972
 11
135.0969231098069
 21
43.81030906564509
 72
     1
 10
135.0969231098069
 20
43.81030906564509
 11
121.8784362424519
 21
43.81030906564509
 72
     4
 94
        3
 73
     1
 74
     0
 95
       17
 96
       13
 40
0.0
 40
0.0
 40
0.0
 40
0.0
 40
1.0
 40
2.0
 40
3.0
 40
4.0
 40
5.0
 40
6.0
 40
7.0
 40
8.0
 40
9.0
 40
10.0
 40
10.0
 40
10.0
 40
10.0
 10
121.8784362424519
 20
43.81030906564509
 42
1.0
 10
121.0722838989034
 20
43.81030906564509
 42
1.0
 10
120.3691399103639
 20
43.85268374011364
 42
1.0
 10
119.7879523020023
 20
43.93639956040523
 42
1.0
 10
119.1712802101426
 20
44.02493851437611
 42
1.0
 10
118.6483147154815
 20
44.18237937805203
 42
1.0
 10
118.2342142381546
 20
44.4032099986566
 42
1.0
 10
117.7835957486839
 20
44.6433331539785
 42
1.0
 10
117.4428758051927
 20
44.97096173462578
 42
1.0
 10
117.2220451845882
 20
45.37713849233671
 42
1.0
 10
117.0087937740512
 20
45.76919035855808
 42
1.0
 10
116.8999287567173
 20
46.25219274559017
 42
1.0
 10
116.8999287567173
 20
46.8123652714918
 42
1.0
 72
     1
 10
116.8999287567173
 20
46.8123652714918
 11
116.8999287567173
 21
49.1171341511239
 72
     4
 94
        3
 73
     1
 74
     0
 95
       17
 96
       13
 40
0.0
 40
0.0
 40
0.0
 40
0.0
 40
1.0
 40
2.0
 40
3.0
 40
4.0
 40
5.0
 40
6.0
 40
7.0
 40
8.0
 40
9.0
 40
10.0
 40
10.0
 40
10.0
 40
10.0
 10
116.8999287567173
 20
49.1171341511239
 42
1.0
 10
116.8999287567173
 20
49.67730667702553
 42
1.0
 10
117.0087937740512
 20
50.16030906405761
 42
1.0
 10
117.2223896941368
 20
50.55270543982754
 42
1.0
 10
117.4428758051927
 20
50.95853768798991
 42
1.0
 10
117.7835957486839
 20
51.28616626863726
 42
1.0
 10
118.2345587477032
 20
51.52663393350765
 42
1.0
 10
118.6483147154815
 20
51.74712004456368
 42
1.0
 10
119.1712802101426
 20
51.90456090823958
 42
1.0
 10
119.7882968115508
 20
51.99309986221046
 42
1.0
 10
120.3715514772036
 20
52.07681568250205
 42
1.0
 10
121.0746954657431
 20
52.1191903569706
 42
1.0
 10
121.8784362424519
 20
52.1191903569706
 42
1.0
 72
     1
 10
121.8784362424519
 20
52.1191903569706
 11
135.0969231098069
 21
52.1191903569706
 72
     1
 10
135.0969231098069
 20
52.1191903569706
 11
135.0969231098069
 21
49.64216670307603
 72
     1
 10
135.0969231098069
 20
49.64216670307603
 11
121.8784362424519
 21
49.64216670307603
 72
     4
 94
        3
 73
     1
 74
     0
 95
       17
 96
       13
 40
0.0
 40
0.0
 40
0.0
 40
0.0
 40
1.0
 40
2.0
 40
3.0
 40
4.0
 40
5.0
 40
6.0
 40
7.0
 40
8.0
 40
9.0
 40
10.0
 40
10.0
 40
10.0
 40
10.0
 10
121.8784362424519
 20
49.64216670307603
 42
1.0
 10
121.2204230047692
 20
49.64216670307603
 42
1.0
 10
120.6740308608085
 20
49.65801414230814
 42
1.0
 10
120.295070357431
 20
49.6156394678396
 42
1.0
 10
119.8682230268086
 20
49.56844165969165
 42
1.0
 10
119.7727938818671
 20
49.51538718921883
 42
1.0
 10
119.6711635650523
 20
49.45613154687251
 42
1.0
 10
119.5116556440853
 20
49.36311396877075
 42
1.0
 10
119.4775491987812
 20
49.22427662071516
 42
1.0
 10
119.4258727665025
 20
48.98139738900509
 42
1.0
 10
119.3896992639074
 20
48.68546368682214
 42
1.0
 10
119.3772969201605
 20
48.61656177711715
 42
1.0
 10
119.3772969201605
 20
48.47841344815856
 42
1.0
 72
     1
 10
119.3772969201605
 20
48.47841344815856
 11
119.3772969201605
 21
47.45074146490857
 72
     4
 94
        3
 73
     1
 74
     0
 95
       17
 96
       13
 40
0.0
 40
0.0
 40
0.0
 40
0.0
 40
1.0
 40
2.0
 40
3.0
 40
4.0
 40
5.0
 40
6.0
 40
7.0
 40
8.0
 40
9.0
 40
10.0
 40
10.0
 40
10.0
 40
10.0
 10
119.3772969201605
 20
47.45074146490857
 42
1.0
 10
119.3772969201605
 20
47.31293764549854
 42
1.0
 10
119.4024461172029
 20
47.15480776272557
 42
1.0
 10
119.4275953142451
 20
46.94465693812538
 42
1.0
 10
119.4331074670215
 20
46.93707772805783
 42
1.0
 10
119.439997657992
 20
46.69109791041098
 42
1.0
 10
119.6529045589805
 20
46.52814489395868
 42
1.0
 10
119.9019849625641
 20
46.33763111362438
 42
1.0
 10
120.0294534955183
 20
46.38172833583555
 42
1.0
 10
120.316085439891
 20
46.35072247646826
 42
1.0
 10
120.6957349623656
 20
46.30972584019383
 42
1.0
 10
121.2211120238662
 20
46.28733271953972
 42
1.0
 10
121.8784362424519
 20
46.28733271953972
 42
1.0
 97
        0
 75
     0
 76
     1
 98
        1
 10
0.0
 20
0.0
  0
HATCH
  5
22B
330
1F
100
AcDbEntity
  8
LAYER_1
 62
   250
100
AcDbHatch
 10
0.0
 20
0.0
 30
0.0
210
0.0
220
0.0
230
1.0
  2
SOLID
 70
     1
 71
     0
 91
        1
 92
        0
 93
       13
 72
     4
 94
        3
 73
     1
 74
     0
 95
       17
 96
       13
 40
0.0
 40
0.0
 40
0.0
 40
0.0
 40
1.0
 40
2.0
 40
3.0
 40
4.0
 40
5.0
 40
6.0
 40
7.0
 40
8.0
 40
9.0
 40
10.0
 40
10.0
 40
10.0
 40
10.0
 10
154.7966681135626
 20
47.16514304918135
 42
1.0
 10
154.7966681135626
 20
46.60634856147389
 42
1.0
 10
154.6881476057772
 20
45.76884584900964
 42
1.0
 10
154.4745516856918
 20
45.37679398278821
 42
1.0
 10
154.2533765555387
 20
44.97061722507723
 42
1.0
 10
153.913001121596
 20
44.6433331539785
 42
1.0
 10
153.4627271416739
 20
44.40286548910804
 42
1.0
 10
153.0486266643468
 20
44.18169035895504
 42
1.0
 10
152.5260056792343
 20
44.02528302392466
 42
1.0
 10
151.9086445682777
 20
43.93639956040523
 42
1.0
 10
151.3257344121733
 20
43.85233923056514
 42
1.0
 10
150.6225904236339
 20
43.81030906564509
 42
1.0
 10
149.8185051373766
 20
43.81030906564509
 42
1.0
 72
     1
 10
149.8185051373766
 20
43.81030906564509
 11
145.8828280550271
 21
43.81030906564509
 72
     1
 10
145.8828280550271
 20
43.81030906564509
 11
145.8828280550271
 21
46.28698820999116
 72
     1
 10
145.8828280550271
 20
46.28698820999116
 11
149.8185051373766
 21
46.28698820999116
 72
     4
 94
        3
 73
     1
 74
     0
 95
       14
 96
       10
 40
0.0
 40
0.0
 40
0.0
 40
0.0
 40
1.0
 40
2.0
 40
3.0
 40
4.0
 40
5.0
 40
6.0
 40
7.0
 40
7.0
 40
7.0
 40
7.0
 10
149.8185051373766
 20
46.28698820999116
 42
1.0
 10
150.4758293559623
 20
46.28698820999116
 42
1.0
 10
151.028767181345
 20
46.28561017179711
 42
1.0
 10
151.40359357014
 20
46.32798484626566
 42
1.0
 10
151.8245842384376
 20
46.37483814486504
 42
1.0
 10
151.982369611662
 20
46.39964283235886
 42
1.0
 10
152.1187953928779
 20
46.51815411705146
 42
1.0
 10
152.2565992122879
 20
46.63804343993816
 42
1.0
 10
152.2290384484058
 20
47.28572139116517
 42
1.0
 10
152.2490200022203
 20
47.30398039723693
 42
1.0
 72
     4
 94
        3
 73
     1
 74
     0
 95
       12
 96
        8
 40
0.0
 40
0.0
 40
0.0
 40
0.0
 40
1.0
 40
2.0
 40
3.0
 40
4.0
 40
5.0
 40
5.0
 40
5.0
 40
5.0
 10
152.2490200022203
 20
47.30398039723693
 42
1.0
 10
144.0128302256335
 20
47.2995017731061
 42
1.0
 10
140.8743482385709
 20
47.30398039723693
 42
1.0
 10
137.7358662515084
 20
47.30845902136777
 42
1.0
 10
136.2475850018804
 20
48.31752748899743
 42
1.0
 10
136.2475850018804
 20
50.63366518373091
 42
1.0
 10
136.2475850018804
 20
50.89532018583564
 42
1.0
 10
136.2475850018804
 20
52.1191903569706
 42
1.0
 72
     1
 10
136.2475850018804
 20
52.1191903569706
 11
138.7242641462265
 21
52.1191903569706
 72
     1
 10
138.7242641462265
 20
52.1191903569706
 11
138.7242641462265
 21
50.60403736255775
 72
     4
 94
        3
 73
     1
 74
     0
 95
       17
 96
       13
 40
0.0
 40
0.0
 40
0.0
 40
0.0
 40
1.0
 40
2.0
 40
3.0
 40
4.0
 40
5.0
 40
6.0
 40
7.0
 40
8.0
 40
9.0
 40
10.0
 40
10.0
 40
10.0
 40
10.0
 10
138.7242641462265
 20
50.60403736255775
 42
1.0
 10
138.7242641462265
 20
50.4417733652025
 42
1.0
 10
138.7463127573321
 20
50.59370207610198
 42
1.0
 10
138.791443508189
 20
50.42351435913067
 42
1.0
 10
138.8310621062693
 20
50.27399721507081
 42
1.0
 10
138.9523294673502
 20
50.13515986701522
 42
1.0
 10
139.0718742806882
 20
50.04455385575318
 42
1.0
 10
139.2368943544318
 20
49.92018590873565
 42
1.0
 10
139.3616068109977
 20
49.89744827853298
 42
1.0
 10
139.6423820930456
 20
49.85404007541882
 42
1.0
 10
139.9541632344607
 20
49.80546422907689
 42
1.0
 10
140.3648186163026
 20
49.78065954158306
 42
1.0
 10
140.8622904043726
 20
49.78065954158306
 42
1.0
 72
     1
 10
140.8622904043726
 20
49.78065954158306
 11
152.319644459668
 21
49.78065954158306
 72
     1
 10
152.319644459668
 20
49.78065954158306
 11
152.319644459668
 21
52.1191903569706
 72
     1
 10
152.319644459668
 20
52.1191903569706
 11
154.7966681135626
 21
52.1191903569706
 72
     1
 10
154.7966681135626
 20
52.1191903569706
 11
154.7966681135626
 21
47.16514304918135
 97
        0
 75
     0
 76
     1
 98
        1
 10
0.0
 20
0.0
  0
HATCH
  5
22C
330
1F
100
AcDbEntity
  8
LAYER_1
 62
   250
100
AcDbHatch
 10
0.0
 20
0.0
 30
0.0
210
0.0
220
0.0
230
1.0
  2
SOLID
 70
     1
 71
     0
 91
        1
 92
        0
 93
        4
 72
     1
 10
193.8897168776609
 20
52.1191903569706
 11
196.3667405315555
 21
52.1191903569706
 72
     1
 10
196.3667405315555
 20
52.1191903569706
 11
196.3667405315555
 21
43.81030906564509
 72
     1
 10
196.3667405315555
 20
43.81030906564509
 11
193.8897168776609
 21
43.81030906564509
 72
     1
 10
193.8897168776609
 20
43.81030906564509
 11
193.8897168776609
 21
52.1191903569706
 97
        0
 75
     0
 76
     1
 98
        1
 10
0.0
 20
0.0
  0
HATCH
  5
22D
330
1F
100
AcDbEntity
  8
LAYER_1
 62
   250
100
AcDbHatch
 10
0.0
 20
0.0
 30
0.0
210
0.0
220
0.0
230
1.0
  2
SOLID
 70
     1
 71
     0
 91
        1
 92
        0
 93
       12
 72
     1
 10
160.9249762174992
 20
46.28733271953972
 11
174.1438075944029
 21
46.28733271953972
 72
     1
 10
174.1438075944029
 20
46.28733271953972
 11
174.1438075944029
 21
43.81030906564509
 72
     1
 10
174.1438075944029
 20
43.81030906564509
 11
160.9249762174992
 21
43.81030906564509
 72
     4
 94
        3
 73
     1
 74
     0
 95
       17
 96
       13
 40
0.0
 40
0.0
 40
0.0
 40
0.0
 40
1.0
 40
2.0
 40
3.0
 40
4.0
 40
5.0
 40
6.0
 40
7.0
 40
8.0
 40
9.0
 40
10.0
 40
10.0
 40
10.0
 40
10.0
 10
160.9249762174992
 20
43.81030906564509
 42
1.0
 10
160.1188238739508
 20
43.81030906564509
 42
1.0
 10
159.4153353758628
 20
43.85268374011364
 42
1.0
 10
158.8344922770496
 20
43.93639956040523
 42
1.0
 10
158.2178201851899
 20
44.02493851437611
 42
1.0
 10
157.694854690529
 20
44.18237937805203
 42
1.0
 10
157.280754213202
 20
44.4032099986566
 42
1.0
 10
156.8303079785056
 20
44.6433331539785
 42
1.0
 10
156.4895880350143
 20
44.97096173462578
 42
1.0
 10
156.2684129048614
 20
45.37713849233671
 42
1.0
 10
156.0551614943244
 20
45.76919035855808
 42
1.0
 10
155.946640986539
 20
46.25219274559017
 42
1.0
 10
155.946640986539
 20
46.8123652714918
 42
1.0
 72
     1
 10
155.946640986539
 20
46.8123652714918
 11
155.946640986539
 21
49.1171341511239
 72
     4
 94
        3
 73
     1
 74
     0
 95
       17
 96
       13
 40
0.0
 40
0.0
 40
0.0
 40
0.0
 40
1.0
 40
2.0
 40
3.0
 40
4.0
 40
5.0
 40
6.0
 40
7.0
 40
8.0
 40
9.0
 40
10.0
 40
10.0
 40
10.0
 40
10.0
 10
155.946640986539
 20
49.1171341511239
 42
1.0
 10
155.946640986539
 20
49.67730667702553
 42
1.0
 10
156.0551614943244
 20
50.16030906405761
 42
1.0
 10
156.2687574144099
 20
50.55270543982754
 42
1.0
 10
156.4895880350143
 20
50.95853768798991
 42
1.0
 10
156.8303079785056
 20
51.28616626863726
 42
1.0
 10
157.280754213202
 20
51.52663393350765
 42
1.0
 10
157.694854690529
 20
51.74712004456368
 42
1.0
 10
158.2178201851899
 20
51.90456090823958
 42
1.0
 10
158.8351812961467
 20
51.99309986221046
 42
1.0
 10
159.418091452251
 20
52.07681568250205
 42
1.0
 10
160.1215799503392
 20
52.1191903569706
 42
1.0
 10
160.9249762174992
 20
52.1191903569706
 42
1.0
 72
     1
 10
160.9249762174992
 20
52.1191903569706
 11
174.1438075944029
 21
52.1191903569706
 72
     1
 10
174.1438075944029
 20
52.1191903569706
 11
174.1438075944029
 21
49.64216670307603
 72
     1
 10
174.1438075944029
 20
49.64216670307603
 11
160.9249762174992
 21
49.64216670307603
 72
     4
 94
        3
 73
     1
 74
     0
 95
       17
 96
       13
 40
0.0
 40
0.0
 40
0.0
 40
0.0
 40
1.0
 40
2.0
 40
3.0
 40
4.0
 40
5.0
 40
6.0
 40
7.0
 40
8.0
 40
9.0
 40
10.0
 40
10.0
 40
10.0
 40
10.0
 10
160.9249762174992
 20
49.64216670307603
 42
1.0
 10
160.2669629798166
 20
49.64216670307603
 42
1.0
 10
159.7205708358559
 20
49.65801414230814
 42
1.0
 10
159.3416103324784
 20
49.6156394678396
 42
1.0
 10
158.9151075114045
 20
49.56844165969165
 42
1.0
 10
158.8193338569146
 20
49.51538718921883
 42
1.0
 10
158.7173590305512
 20
49.45613154687251
 42
1.0
 10
158.5581956191326
 20
49.36311396877075
 42
1.0
 10
158.5244336833772
 20
49.22427662071516
 42
1.0
 10
158.4727572510984
 20
48.98139738900509
 42
1.0
 10
158.4362392389548
 20
48.68546368682214
 42
1.0
 10
158.4238368952079
 20
48.61656177711715
 42
1.0
 10
158.4238368952079
 20
48.47841344815856
 42
1.0
 72
     1
 10
158.4238368952079
 20
48.47841344815856
 11
158.4238368952079
 21
47.80351924259818
 72
     4
 94
        3
 73
     1
 74
     0
 95
       17
 96
       13
 40
0.0
 40
0.0
 40
0.0
 40
0.0
 40
1.0
 40
2.0
 40
3.0
 40
4.0
 40
5.0
 40
6.0
 40
7.0
 40
8.0
 40
9.0
 40
10.0
 40
10.0
 40
10.0
 40
10.0
 10
158.4238368952079
 20
47.80351924259818
 42
1.0
 10
158.4238368952079
 20
47.66571542318815
 42
1.0
 10
158.4486415827017
 20
47.15480776272557
 42
1.0
 10
158.4741352892925
 20
46.94465693812538
 42
1.0
 10
158.4796474420689
 20
46.93707772805783
 42
1.0
 10
158.4865376330394
 20
46.69109791041098
 42
1.0
 10
158.6994445340278
 20
46.52814489395868
 42
1.0
 10
158.9481804280629
 20
46.33763111362438
 42
1.0
 10
159.0763379801142
 20
46.38172833583555
 42
1.0
 10
159.3629699244869
 20
46.35072247646826
 42
1.0
 10
159.7419304278644
 20
46.30972584019383
 42
1.0
 10
160.2676519989136
 20
46.28733271953972
 42
1.0
 10
160.9249762174992
 20
46.28733271953972
 42
1.0
 97
        0
 75
     0
 76
     1
 98
        1
 10
0.0
 20
0.0
  0
HATCH
  5
22E
330
1F
100
AcDbEntity
  8
LAYER_1
 62
   250
100
AcDbHatch
 10
0.0
 20
0.0
 30
0.0
210
0.0
220
0.0
230
1.0
  2
SOLID
 70
     1
 71
     0
 91
        1
 92
        0
 93
       10
 72
     1
 10
177.7832064650209
 20
43.81030906564509
 11
175.3061828111261
 21
43.81030906564509
 72
     1
 10
175.3061828111261
 20
43.81030906564509
 11
175.3061828111261
 21
52.1191903569706
 72
     1
 10
175.3061828111261
 20
52.1191903569706
 11
192.7845302459927
 21
52.1191903569706
 72
     1
 10
192.7845302459927
 20
52.1191903569706
 11
192.7845302459927
 21
49.64251121262453
 72
     1
 10
192.7845302459927
 20
49.64251121262453
 11
177.7832064650209
 21
49.64251121262453
 72
     1
 10
177.7832064650209
 20
49.64251121262453
 11
177.7625358921093
 21
48.6763341837862
 72
     1
 10
177.7625358921093
 20
48.6763341837862
 11
187.4198275563617
 21
48.6690994832672
 72
     1
 10
187.4198275563617
 20
48.6690994832672
 11
187.4198275563617
 21
46.19913827511736
 72
     1
 10
187.4198275563617
 20
46.19913827511736
 11
177.7625358921093
 21
46.19913827511736
 72
     1
 10
177.7625358921093
 20
46.19913827511736
 11
177.7832064650209
 21
43.81030906564509
 97
        0
 75
     0
 76
     1
 98
        1
 10
0.0
 20
0.0
  0
DIMENSION
  5
22F
330
1F
100
AcDbEntity
  8
SLD-0
100
AcDbDimension
  2
_D
 10
61.0802737892
 20
258.9552575895
 30
0.0
 11
111.5201730847
 21
258.9552575895
 31
0.0
 70
   160
  1
<> mm
 71
     2
 42
-1.0
  3
SLDDIMSTYLE0
100
AcDbAlignedDimension
 13
158.4802737892
 23
252.6974732708
 33
0.0
 14
61.0802737892
 24
252.6974732708
 34
0.0
100
AcDbRotatedDimension
  0
DIMENSION
  5
243
330
1F
100
AcDbEntity
  8
SLD-0
100
AcDbDimension
  2
_D_1
 10
58.1302737892
 20
227.6102687022
 30
0.0
 11
111.5201730847
 21
227.6102687022
 31
0.0
 70
   160
  1
<> mm
 71
     2
 42
-1.0
  3
SLDDIMSTYLE0
100
AcDbAlignedDimension
 13
161.4302737892
 23
232.0970707546
 33
0.0
 14
58.1302737892
 24
232.0970707546
 34
0.0
100
AcDbRotatedDimension
  0
DIMENSION
  5
24E
330
1F
100
AcDbEntity
  8
SLD-0
100
AcDbDimension
  2
_D_2
 10
66.1802737892
 20
190.909479793
 30
0.0
 11
111.5201730847
 21
190.909479793
 31
0.0
 70
   160
  1
<> mm
 71
     2
 42
-1.0
  3
SLDDIMSTYLE0
100
AcDbAlignedDimension
 13
153.3802737892
 23
184.7849225997
 33
0.0
 14
66.1802737892
 24
184.7849225997
 34
0.0
100
AcDbRotatedDimension
  0
DIMENSION
  5
259
330
1F
100
AcDbEntity
  8
SLD-0
100
AcDbDimension
  2
_D_3
 10
63.2302737892
 20
159.7442806008
 30
0.0
 11
111.5201730847
 21
159.7442806008
 31
0.0
 70
   160
  1
<> mm
 71
     2
 42
-1.0
  3
SLDDIMSTYLE0
100
AcDbAlignedDimension
 13
156.3302737892
 23
164.110152939
 33
0.0
 14
63.2302737892
 24
164.110152939
 34
0.0
100
AcDbRotatedDimension
  0
DIMENSION
  5
264
330
1F
100
AcDbEntity
  8
SLD-0
100
AcDbDimension
  2
_D_4
 10
71.2802737892
 20
121.8890905581
 30
0.0
 11
111.5201730847
 21
121.8890905581
 31
0.0
 70
   160
  1
<> mm
 71
     2
 42
-1.0
  3
SLDDIMSTYLE1
100
AcDbAlignedDimension
 13
148.2802737892
 23
116.6974732708
 33
0.0
 14
71.2802737892
 24
116.6974732708
 34
0.0
100
AcDbRotatedDimension
  0
DIMENSION
  5
270
330
1F
100
AcDbEntity
  8
SLD-0
100
AcDbDimension
  2
_D_5
 10
68.3302737892
 20
90.9264927502
 30
0.0
 11
111.5862056405
 21
90.9264927502
 31
0.0
 70
   160
  1
<> mm
 71
     2
 42
-1.0
  3
SLDDIMSTYLE0
100
AcDbAlignedDimension
 13
151.2302737892
 23
96.7250544096
 33
0.0
 14
68.3302737892
 24
96.7250544096
 34
0.0
100
AcDbRotatedDimension
  0
DIMENSION
  5
27B
330
1F
100
AcDbEntity
  8
SLD-0
100
AcDbDimension
  2
_D_6
 10
48.1302737892
 20
245.1974732708
 30
0.0
 11
48.1302737892
 21
243.3020896983
 31
0.0
 70
   160
  1
%%c<>
 71
     2
 42
-1.0
  3
SLDDIMSTYLE2
100
AcDbAlignedDimension
 13
61.0802737892
 23
242.1974732708
 33
0.0
 14
61.0802737892
 24
245.1974732708
 34
0.0
 50
90.0
100
AcDbRotatedDimension
  0
DIMENSION
  5
289
330
1F
100
AcDbEntity
  8
SLD-0
100
AcDbDimension
  2
_D_7
 10
171.4302737892
 20
252.6974732708
 30
0.0
 11
171.4302737892
 21
243.3020896983
 31
0.0
 70
   160
  1
<> mm
 71
     2
 42
-1.0
  3
SLDDIMSTYLE2
100
AcDbAlignedDimension
 13
152.4302737892
 23
234.6974732708
 33
0.0
 14
152.4302737892
 24
252.6974732708
 34
0.0
 50
90.0
100
AcDbRotatedDimension
  0
DIMENSION
  5
296
330
1F
100
AcDbEntity
  8
SLD-0
100
AcDbDimension
  2
_D_8
 10
171.3229051724
 20
184.6974732708
 30
0.0
 11
171.3229051724
 21
175.4514897718
 31
0.0
 70
   160
  1
<> mm
 71
     2
 42
-1.0
  3
SLDDIMSTYLE2
100
AcDbAlignedDimension
 13
147.3302737892
 23
166.6974732708
 33
0.0
 14
147.3302737892
 24
184.6974732708
 34
0.0
 50
90.0
100
AcDbRotatedDimension
  0
DIMENSION
  5
2A3
330
1F
100
AcDbEntity
  8
SLD-0
100
AcDbDimension
  2
_D_9
 10
54.6165883002
 20
177.1974732708
 30
0.0
 11
54.6165883002
 21
174.9146466879
 31
0.0
 70
   160
  1
%%c<>
 71
     2
 42
-1.0
  3
SLDDIMSTYLE2
100
AcDbAlignedDimension
 13
66.1802737892
 23
174.1974732708
 33
0.0
 14
66.1802737892
 24
177.1974732708
 34
0.0
 50
90.0
100
AcDbRotatedDimension
  0
DIMENSION
  5
2B0
330
1F
100
AcDbEntity
  8
SLD-0
100
AcDbDimension
  2
_D_10
 10
59.5109905025
 20
109.1974732708
 30
0.0
 11
59.5109905025
 21
106.5389111883
 31
0.0
 70
   160
  1
%%c<>
 71
     2
 42
-1.0
  3
SLDDIMSTYLE2
100
AcDbAlignedDimension
 13
71.2802737892
 23
106.1974732708
 33
0.0
 14
71.2802737892
 24
109.1974732708
 34
0.0
 50
90.0
100
AcDbRotatedDimension
  0
DIMENSION
  5
2BD
330
1F
100
AcDbEntity
  8
SLD-0
100
AcDbDimension
  2
_D_11
 10
164.7337135091
 20
116.6974732708
 30
0.0
 11
164.7337135091
 21
107.5914449631
 31
0.0
 70
   160
  1
<> mm
 71
     2
 42
-1.0
  3
SLDDIMSTYLE2
100
AcDbAlignedDimension
 13
142.2302737892
 23
98.6974732708
 33
0.0
 14
142.2302737892
 24
116.6974732708
 34
0.0
 50
90.0
100
AcDbRotatedDimension
  0
MTEXT
  5
2CA
330
1F
100
AcDbEntity
  8
SLD-0
100
AcDbMText
 10
101.8353290648
 20
87.1258319407
 30
0.0
 40
3.7041666667
 41
0.0
 71
     1
 72
     1
  1
X6 Dual
  7
SLDTEXTSTYLE0
 73
     1
 44
1.0
  0
MTEXT
  5
2CB
330
1F
100
AcDbEntity
  8
SLD-0_0
 62
   179
100
AcDbMText
 10
110.0978819568
 20
10.3992729581
 30
0.0
 40
3.4395833333
 41
0.0
 71
     1
 72
     1
  1
Date: 03/15/2016
  7
SLDTEXTSTYLE0
 73
     1
 44
1.0
  0
MTEXT
  5
2CC
330
1F
100
AcDbEntity
  8
SLD-0_0
 62
   179
100
AcDbMText
 10
177.1565823547
 20
17.5166082149
 30
0.0
 40
3.4395833333
 41
0.0
 71
     1
 72
     1
  1
REV: v 0.90
  7
SLDTEXTSTYLE0
 73
     1
 44
1.0
  0
MTEXT
  5
2CD
330
1F
100
AcDbEntity
  8
SLD-0_0
 62
   179
100
AcDbMText
 10
177.1565823547
 20
10.5753668048
 30
0.0
 40
3.4395833333
 41
0.0
 71
     1
 72
     1
  1
SHEET: 1/1
  7
SLDTEXTSTYLE0
 73
     1
 44
1.0
  0
MTEXT
  5
2CE
330
1F
100
AcDbEntity
  8
SLD-0_0
 62
   179
100
AcDbMText
 10
110.0764406051
 20
17.6846998996
 30
0.0
 40
3.4395833333
 41
0.0
 71
     1
 72
     1
  1
Document Number: 2016023
  7
SLDTEXTSTYLE0
 73
     1
 44
1.0
  0
MTEXT
  5
2CF
330
1F
100
AcDbEntity
  8
SLD-0_0
 62
   179
100
AcDbMText
 10
110.4597663299
 20
32.2177227122
 30
0.0
 40
3.4395833333
 41
0.0
 71
     1
 72
     1
  1
TITLE:
  7
SLDTEXTSTYLE0
 73
     1
 44
1.0
  0
MTEXT
  5
2D0
330
1F
100
AcDbEntity
  8
SLD-0
100
AcDbMText
 10
100.5482987407
 20
224.3367756213
 30
0.0
 40
3.7041666667
 41
0.0
 71
     1
 72
     1
  1
XR8 Dual
  7
SLDTEXTSTYLE0
 73
     1
 44
1.0
  0
MTEXT
  5
2D1
330
1F
100
AcDbEntity
  8
SLD-0
100
AcDbMText
 10
100.0509746939
 20
156.3831542802
 30
0.0
 40
3.7041666667
 41
0.0
 71
     1
 72
     1
  1
XR7 Dual
  7
SLDTEXTSTYLE0
 73
     1
 44
1.0
  0
INSERT
  5
2D8
330
1F
100
AcDbEntity
  8
SLD-0
100
AcDbBlockReference
  2
SW_NOTE_0
 10
9.8004551983
 20
39.2506732445
 30
0.0
  0
MTEXT
  5
2D9
330
1F
100
AcDbEntity
  8
SLD-0
100
AcDbMText
 10
9.8004551983
 20
24.2955055377
 30
0.0
 40
3.175
 41
0.0
 71
     1
 72
     1
  1
Copyright CYCFI Research Inc. 2013-2016
  7
SLDTEXTSTYLE0
 73
     1
 44
1.0
  0
INSERT
  5
2E0
330
1F
100
AcDbEntity
  8
SLD-0_0
 62
   179
100
AcDbBlockReference
  2
SW_NOTE_1
 10
143.734419354
 20
27.8549308631
 30
0.0
  0
ENDSEC
  0
SECTION
  2
OBJECTS
  0
DICTIONARY
  5
C
330
0
100
AcDbDictionary
281
     1
  3
ACAD_GROUP
350
D
  3
ACAD_LAYOUT
350
1A
  3
ACAD_MLINESTYLE
350
17
  3
ACAD_PLOTSETTINGS
350
19
  3
ACAD_PLOTSTYLENAME
350
E
  3
ACAD_SCALELIST
350
47
  0
DICTIONARY
  5
D
102
{ACAD_REACTORS
330
C
102
}
330
C
100
AcDbDictionary
281
     1
  0
DICTIONARY
  5
1A
102
{ACAD_REACTORS
330
C
102
}
330
C
100
AcDbDictionary
281
     1
  3
Layout1
350
1E
  3
Layout2
350
26
  3
Model
350
22
  0
DICTIONARY
  5
17
102
{ACAD_REACTORS
330
C
102
}
330
C
100
AcDbDictionary
281
     1
  3
Standard
350
18
  0
DICTIONARY
  5
19
102
{ACAD_REACTORS
330
C
102
}
330
C
100
AcDbDictionary
281
     1
  0
ACDBDICTIONARYWDFLT
  5
E
102
{ACAD_REACTORS
330
C
102
}
330
C
100
AcDbDictionary
281
     1
  3
Normal
350
F
100
AcDbDictionaryWithDefault
340
F
  0
DICTIONARY
  5
47
102
{ACAD_REACTORS
330
C
102
}
330
C
100
AcDbDictionary
281
     1
  3
A0
350
48
  3
A1
350
49
  3
A2
350
4A
  3
A3
350
4B
  3
A4
350
4C
  3
A5
350
4D
  3
A6
350
4E
  3
A7
350
4F
  3
A8
350
50
  3
A9
350
51
  3
B0
350
52
  3
B1
350
53
  3
B2
350
54
  3
B3
350
55
  3
B4
350
56
  3
B5
350
57
  3
B6
350
58
  3
B7
350
59
  3
B8
350
5A
  3
B9
350
5B
  3
C0
350
5C
  3
C1
350
5D
  3
C2
350
5E
  3
C3
350
5F
  3
C4
350
60
  3
C5
350
61
  3
C6
350
62
  3
C7
350
63
  3
C8
350
64
  3
C9
350
65
  3
D0
350
66
  3
D1
350
67
  3
D2
350
68
  0
LAYOUT
  5
1E
102
{ACAD_REACTORS
330
1A
102
}
330
1A
100
AcDbPlotSettings
  1

  2
none_device
  4

  6

 40
0.0
 41
0.0
 42
0.0
 43
0.0
 44
0.0
 45
0.0
 46
0.0
 47
0.0
 48
0.0
 49
0.0
140
0.0
141
0.0
142
1.0
143
1.0
 70
   688
 72
     1
 73
     0
 74
     5
  7

 75
    16
147
1.0
148
0.0
149
0.0
100
AcDbLayout
  1
Layout1
 70
     1
 71
     1
 10
0.0
 20
0.0
 11
420.0
 21
297.0
 12
0.0
 22
0.0
 32
0.0
 14
1.0000000000E+20
 24
1.0000000000E+20
 34
1.0000000000E+20
 15
-1.0000000000E+20
 25
-1.0000000000E+20
 35
-1.0000000000E+20
146
0.0
 13
0.0
 23
0.0
 33
0.0
 16
1.0
 26
0.0
 36
0.0
 17
0.0
 27
1.0
 37
0.0
 76
     0
330
1B
  0
LAYOUT
  5
26
102
{ACAD_REACTORS
330
1A
102
}
330
1A
100
AcDbPlotSettings
  1

  2
none_device
  4

  6

 40
0.0
 41
0.0
 42
0.0
 43
0.0
 44
0.0
 45
0.0
 46
0.0
 47
0.0
 48
0.0
 49
0.0
140
0.0
141
0.0
142
1.0
143
1.0
 70
   688
 72
     1
 73
     0
 74
     5
  7

 75
    16
147
1.0
148
0.0
149
0.0
100
AcDbLayout
  1
Layout2
 70
     1
 71
     2
 10
0.0
 20
0.0
 11
0.0
 21
0.0
 12
0.0
 22
0.0
 32
0.0
 14
0.0
 24
0.0
 34
0.0
 15
0.0
 25
0.0
 35
0.0
146
0.0
 13
0.0
 23
0.0
 33
0.0
 16
1.0
 26
0.0
 36
0.0
 17
0.0
 27
1.0
 37
0.0
 76
     0
330
23
  0
LAYOUT
  5
22
102
{ACAD_REACTORS
330
1A
102
}
330
1A
100
AcDbPlotSettings
  1

  2
none_device
  4
Letter_(8.50_x_11.00_Inches)
  6

 40
6.35
 41
6.35
 42
6.35000508
 43
6.35000508
 44
215.9
 45
279.4
 46
0.0
 47
0.0
 48
0.0
 49
0.0
140
0.0
141
0.0
142
1.0
143
1.0
 70
  1712
 72
     1
 73
     0
 74
     0
  7

 75
     0
147
1.0
148
0.0
149
0.0
100
AcDbLayout
  1
Model
 70
     1
 71
     0
 10
0.0
 20
0.0
 11
210.0
 21
297.0
 12
0.0
 22
0.0
 32
0.0
 14
0.0
 24
0.0
 34
0.0
 15
210.0
 25
297.0
 35
0.0
146
0.0
 13
0.0
 23
0.0
 33
0.0
 16
1.0
 26
0.0
 36
0.0
 17
0.0
 27
1.0
 37
0.0
 76
     0
330
1F
331
29
  0
MLINESTYLE
  5
18
102
{ACAD_REACTORS
330
17
102
}
330
17
100
AcDbMlineStyle
  2
Standard
 70
     0
  3

 62
   256
 51
90.0
 52
90.0
 71
     2
 49
0.5
 62
   256
  6
BYLAYER
 49
-0.5
 62
   256
  6
BYLAYER
  0
ACDBPLACEHOLDER
  5
F
102
{ACAD_REACTORS
330
E
102
}
330
E
  0
SCALE
  5
48
102
{ACAD_REACTORS
330
47
102
}
330
47
100
AcDbScale
 70
     0
300
1:1
140
1.0
141
1.0
290
     1
  0
SCALE
  5
49
102
{ACAD_REACTORS
330
47
102
}
330
47
100
AcDbScale
 70
     0
300
1:2
140
1.0
141
2.0
290
     0
  0
SCALE
  5
4A
102
{ACAD_REACTORS
330
47
102
}
330
47
100
AcDbScale
 70
     0
300
1:4
140
1.0
141
4.0
290
     0
  0
SCALE
  5
4B
102
{ACAD_REACTORS
330
47
102
}
330
47
100
AcDbScale
 70
     0
300
1:5
140
1.0
141
5.0
290
     0
  0
SCALE
  5
4C
102
{ACAD_REACTORS
330
47
102
}
330
47
100
AcDbScale
 70
     0
300
1:8
140
1.0
141
8.0
290
     0
  0
SCALE
  5
4D
102
{ACAD_REACTORS
330
47
102
}
330
47
100
AcDbScale
 70
     0
300
1:10
140
1.0
141
10.0
290
     0
  0
SCALE
  5
4E
102
{ACAD_REACTORS
330
47
102
}
330
47
100
AcDbScale
 70
     0
300
1:16
140
1.0
141
16.0
290
     0
  0
SCALE
  5
4F
102
{ACAD_REACTORS
330
47
102
}
330
47
100
AcDbScale
 70
     0
300
1:20
140
1.0
141
20.0
290
     0
  0
SCALE
  5
50
102
{ACAD_REACTORS
330
47
102
}
330
47
100
AcDbScale
 70
     0
300
1:30
140
1.0
141
30.0
290
     0
  0
SCALE
  5
51
102
{ACAD_REACTORS
330
47
102
}
330
47
100
AcDbScale
 70
     0
300
1:40
140
1.0
141
40.0
290
     0
  0
SCALE
  5
52
102
{ACAD_REACTORS
330
47
102
}
330
47
100
AcDbScale
 70
     0
300
1:50
140
1.0
141
50.0
290
     0
  0
SCALE
  5
53
102
{ACAD_REACTORS
330
47
102
}
330
47
100
AcDbScale
 70
     0
300
1:100
140
1.0
141
100.0
290
     0
  0
SCALE
  5
54
102
{ACAD_REACTORS
330
47
102
}
330
47
100
AcDbScale
 70
     0
300
2:1
140
2.0
141
1.0
290
     0
  0
SCALE
  5
55
102
{ACAD_REACTORS
330
47
102
}
330
47
100
AcDbScale
 70
     0
300
4:1
140
4.0
141
1.0
290
     0
  0
SCALE
  5
56
102
{ACAD_REACTORS
330
47
102
}
330
47
100
AcDbScale
 70
     0
300
8:1
140
8.0
141
1.0
290
     0
  0
SCALE
  5
57
102
{ACAD_REACTORS
330
47
102
}
330
47
100
AcDbScale
 70
     0
300
10:1
140
10.0
141
1.0
290
     0
  0
SCALE
  5
58
102
{ACAD_REACTORS
330
47
102
}
330
47
100
AcDbScale
 70
     0
300
100:1
140
100.0
141
1.0
290
     0
  0
SCALE
  5
59
102
{ACAD_REACTORS
330
47
102
}
330
47
100
AcDbScale
 70
     0
300
1/128" = 1'-0"
140
0.0078125
141
12.0
290
     0
  0
SCALE
  5
5A
102
{ACAD_REACTORS
330
47
102
}
330
47
100
AcDbScale
 70
     0
300
1/64" = 1'-0"
140
0.015625
141
12.0
290
     0
  0
SCALE
  5
5B
102
{ACAD_REACTORS
330
47
102
}
330
47
100
AcDbScale
 70
     0
300
1/32" = 1'-0"
140
0.03125
141
12.0
290
     0
  0
SCALE
  5
5C
102
{ACAD_REACTORS
330
47
102
}
330
47
100
AcDbScale
 70
     0
300
1/16" = 1'-0"
140
0.0625
141
12.0
290
     0
  0
SCALE
  5
5D
102
{ACAD_REACTORS
330
47
102
}
330
47
100
AcDbScale
 70
     0
300
3/32" = 1'-0"
140
0.09375
141
12.0
290
     0
  0
SCALE
  5
5E
102
{ACAD_REACTORS
330
47
102
}
330
47
100
AcDbScale
 70
     0
300
1/8" = 1'-0"
140
0.125
141
12.0
290
     0
  0
SCALE
  5
5F
102
{ACAD_REACTORS
330
47
102
}
330
47
100
AcDbScale
 70
     0
300
3/16" = 1'-0"
140
0.1875
141
12.0
290
     0
  0
SCALE
  5
60
102
{ACAD_REACTORS
330
47
102
}
330
47
100
AcDbScale
 70
     0
300
1/4" = 1'-0"
140
0.25
141
12.0
290
     0
  0
SCALE
  5
61
102
{ACAD_REACTORS
330
47
102
}
330
47
100
AcDbScale
 70
     0
300
3/8" = 1'-0"
140
0.375
141
12.0
290
     0
  0
SCALE
  5
62
102
{ACAD_REACTORS
330
47
102
}
330
47
100
AcDbScale
 70
     0
300
1/2" = 1'-0"
140
0.5
141
12.0
290
     0
  0
SCALE
  5
63
102
{ACAD_REACTORS
330
47
102
}
330
47
100
AcDbScale
 70
     0
300
3/4" = 1'-0"
140
0.75
141
12.0
290
     0
  0
SCALE
  5
64
102
{ACAD_REACTORS
330
47
102
}
330
47
100
AcDbScale
 70
     0
300
1" = 1'-0"
140
1.0
141
12.0
290
     0
  0
SCALE
  5
65
102
{ACAD_REACTORS
330
47
102
}
330
47
100
AcDbScale
 70
     0
300
1-1/2" = 1'-0"
140
1.5
141
12.0
290
     0
  0
SCALE
  5
66
102
{ACAD_REACTORS
330
47
102
}
330
47
100
AcDbScale
 70
     0
300
3" = 1'-0"
140
3.0
141
12.0
290
     0
  0
SCALE
  5
67
102
{ACAD_REACTORS
330
47
102
}
330
47
100
AcDbScale
 70
     0
300
6" = 1'-0"
140
6.0
141
12.0
290
     0
  0
SCALE
  5
68
102
{ACAD_REACTORS
330
47
102
}
330
47
100
AcDbScale
 70
     0
300
1'-0" = 1'-0"
140
12.0
141
12.0
290
     0
  0
ENDSEC
  0
EOF
